<svg width="16" height="16" fill="none" xmlns="http://www.w3.org/2000/svg">
    <path fill="#fff" d="M0 0h16v16H0z" />
    <path
        fill-rule="evenodd"
        clip-rule="evenodd"
        d="M6 2v5H5V3.221L3.5 4V3L5 2h1Zm6 7v5h-1v-3.778L9.5 11v-1L11 9h1Zm-.664-2.133c.206-.09.38-.223.523-.398a1.78 1.78 0 0 0 .318-.621c.072-.243.107-.516.107-.817V3.975c0-.3-.035-.573-.107-.814a1.789 1.789 0 0 0-.318-.626v-.001a1.395 1.395 0 0 0-.53-.398A1.674 1.674 0 0 0 10.64 2c-.25 0-.481.044-.69.136-.205.09-.38.223-.522.398-.143.175-.25.385-.321.627A2.844 2.844 0 0 0 9 3.975V5.03c0 .3.035.574.107.817.072.24.178.449.322.621.144.177.32.312.53.402.208.087.438.129.688.129.251 0 .482-.043.689-.133Zm-.081-3.627c.027.072.05.155.065.25L9.939 4.55v-.702c0-.2.02-.368.056-.508a.814.814 0 0 1 .156-.32.515.515 0 0 1 .194-.134l.002-.001a.766.766 0 0 1 .293-.052c.117 0 .212.018.288.047h.001c.078.03.14.073.19.128l.003.004a.628.628 0 0 1 .131.225l.002.003Zm.09 1.912c0 .21-.022.384-.061.528l-.001.002a.729.729 0 0 1-.164.319.512.512 0 0 1-.191.125.775.775 0 0 1-.282.047.819.819 0 0 1-.272-.042.521.521 0 0 1-.188-.119l-.002-.002a.658.658 0 0 1-.144-.221 1.26 1.26 0 0 1-.072-.251l1.377-1.053v.667Zm-5.509 8.715c.206-.09.38-.223.523-.398.141-.173.247-.381.318-.621.072-.243.107-.516.107-.817v-1.056c0-.3-.035-.573-.107-.814a1.79 1.79 0 0 0-.318-.626v-.001a1.395 1.395 0 0 0-.53-.398A1.674 1.674 0 0 0 5.14 9c-.25 0-.481.044-.69.136-.205.09-.38.223-.522.398-.143.175-.25.385-.321.627a2.844 2.844 0 0 0-.107.814v1.056c0 .3.035.574.107.817.072.24.178.449.322.621.144.177.32.312.53.402.208.087.438.129.688.129.251 0 .482-.043.689-.133Zm-.081-3.627c.027.072.05.155.065.25l-1.381 1.06v-.702c0-.2.02-.368.056-.508a.813.813 0 0 1 .156-.32.515.515 0 0 1 .194-.134l.002-.001a.766.766 0 0 1 .293-.052c.117 0 .212.018.288.047h.001c.078.03.14.073.19.128l.003.004a.63.63 0 0 1 .131.225l.002.003Zm.09 1.912c0 .21-.022.384-.061.528l-.001.002a.728.728 0 0 1-.164.319.511.511 0 0 1-.191.125.775.775 0 0 1-.281.047.819.819 0 0 1-.273-.042.522.522 0 0 1-.188-.119l-.002-.002a.658.658 0 0 1-.144-.221 1.259 1.259 0 0 1-.072-.251l1.377-1.053v.667Z"
        fill="currentColor"
    />
</svg>
