<svg width="16" height="16" fill="none" xmlns="http://www.w3.org/2000/svg">
    <path fill="#fff" d="M0 0h16v16H0z" />
    <path
        fill-rule="evenodd"
        clip-rule="evenodd"
        d="M7 3v4H6V4.221L5 4.75v-1L6 3h1Zm4 6v4h-1v-2.778l-1 .528v-1L10 9h1Zm-.366-2.106a1.25 1.25 0 0 0 .478-.319 1.34 1.34 0 0 0 .29-.497c.066-.194.098-.413.098-.653V4.58c0-.24-.031-.458-.097-.651a1.377 1.377 0 0 0-.29-.501l-.002-.001a1.273 1.273 0 0 0-.482-.318A1.719 1.719 0 0 0 9.998 3c-.23 0-.44.035-.63.109a1.252 1.252 0 0 0-.478.318c-.131.14-.228.308-.294.502a2.01 2.01 0 0 0-.097.65v.846c0 .24.032.46.098.654a1.31 1.31 0 0 0 .777.817l.002.001c.19.07.4.103.627.103.23 0 .441-.034.63-.106Zm-.074-2.902a.94.94 0 0 1 .06.2l-1.262.847v-.56c0-.16.017-.295.05-.407a.623.623 0 0 1 .143-.256.476.476 0 0 1 .178-.108h.002a.788.788 0 0 1 .268-.041c.106 0 .193.013.262.037a.452.452 0 0 1 .175.103l.003.003a.493.493 0 0 1 .12.18v.002Zm.082 1.53a1.4 1.4 0 0 1-.056.422v.001a.563.563 0 0 1-.15.255.477.477 0 0 1-.175.101.798.798 0 0 1-.257.037.846.846 0 0 1-.249-.033.49.49 0 0 1-.171-.095l-.002-.002a.526.526 0 0 1-.132-.177.913.913 0 0 1-.065-.2l1.257-.843v.534Zm-4.008 7.372c.188-.072.348-.179.478-.319a1.34 1.34 0 0 0 .29-.497c.066-.194.098-.412.098-.653v-.845c0-.24-.032-.458-.097-.651a1.376 1.376 0 0 0-.29-.501l-.002-.001a1.273 1.273 0 0 0-.483-.318A1.719 1.719 0 0 0 5.998 9c-.228 0-.44.035-.63.109a1.252 1.252 0 0 0-.477.318c-.131.14-.228.308-.294.502a2.01 2.01 0 0 0-.097.65v.846c0 .24.032.46.098.654.065.192.162.358.294.496.131.142.293.25.483.321l.002.001c.19.07.4.103.627.103.23 0 .441-.034.63-.106ZM6.56 9.992a.938.938 0 0 1 .06.2l-1.262.847v-.56c0-.16.017-.295.05-.407a.623.623 0 0 1 .143-.256.476.476 0 0 1 .178-.108h.002a.788.788 0 0 1 .268-.041c.106 0 .193.013.262.037h.001a.44.44 0 0 1 .173.103l.004.003a.494.494 0 0 1 .12.18v.002Zm.082 1.53a1.4 1.4 0 0 1-.056.422v.001a.562.562 0 0 1-.15.255.477.477 0 0 1-.175.101.8.8 0 0 1-.257.037.847.847 0 0 1-.249-.033.49.49 0 0 1-.171-.095l-.002-.002a.526.526 0 0 1-.132-.177.915.915 0 0 1-.065-.2l1.257-.843v.534Z"
        fill="currentColor"
    />
    <rect
        x="2.5"
        y="1.5"
        width="11"
        height="13"
        rx="1.5"
        stroke="currentColor"
    />
</svg>
