<svg viewBox="0 0 16 16" fill="none" xmlns="http://www.w3.org/2000/svg">
<path d="M3.5 13C3.22386 13 3 12.7761 3 12.5V4H1.5C1.22386 4 1 3.77614 1 3.5C1 3.22386 1.22386 3 1.5 3H5.5C5.77614 3 6 3.22386 6 3.5C6 3.77614 5.77614 4 5.5 4H4V12.5C4 12.7761 3.77614 13 3.5 13Z" fill="currentColor"/>
<path d="M10.5 13C10.2239 13 10 12.7761 10 12.5V3.5C10 3.22386 10.2239 3 10.5 3H14.5C14.7761 3 15 3.22386 15 3.5C15 3.77614 14.7761 4 14.5 4H11V7H13.5C13.7761 7 14 7.22386 14 7.5C14 7.77614 13.7761 8 13.5 8H11V12.5C11 12.7761 10.7761 13 10.5 13Z" fill="currentColor"/>
<path d="M8.00001 13.9998C7.96024 14.0015 7.9206 13.9933 7.88357 13.9758C7.84654 13.9583 7.81291 13.9318 7.78477 13.8981C7.75663 13.8643 7.73458 13.8239 7.72 13.7795C7.70542 13.7351 7.69861 13.6875 7.70001 13.6398V2.35999C7.70001 2.26452 7.73162 2.17295 7.78788 2.10544C7.84414 2.03793 7.92044 2 8.00001 2C8.07957 2 8.15588 2.03793 8.21214 2.10544C8.2684 2.17295 8.30001 2.26452 8.30001 2.35999V13.6398C8.30141 13.6875 8.2946 13.7351 8.28002 13.7795C8.26544 13.8239 8.24339 13.8643 8.21525 13.8981C8.18711 13.9318 8.15347 13.9583 8.11644 13.9758C8.07942 13.9933 8.03978 14.0015 8.00001 13.9998Z" fill="currentColor"/>
</svg>
