<svg viewBox="0 0 16 16" fill="none" xmlns="http://www.w3.org/2000/svg">
<path d="M12.6667 14.6666H3.33333C2.59695 14.6666 2 14.0697 2 13.3333V3.99998C2 3.2636 2.59695 2.66665 3.33333 2.66665H4.66667V1.99998C4.66667 1.63179 4.96514 1.33331 5.33333 1.33331C5.70152 1.33331 6 1.63179 6 1.99998V2.66665H10V1.99998C10 1.63179 10.2985 1.33331 10.6667 1.33331C11.0349 1.33331 11.3333 1.63179 11.3333 1.99998V2.66665H12.6667C13.403 2.66665 14 3.2636 14 3.99998V13.3333C14 14.0697 13.403 14.6666 12.6667 14.6666ZM3.33333 6.66665V13.3333H12.6667V6.66665H3.33333ZM3.33333 3.99998V5.33331H12.6667V3.99998H3.33333ZM11.3333 11.5C11.3333 11.7761 11.1095 12 10.8333 12H10.5C10.2239 12 10 11.7761 10 11.5V11.1666C10 10.8905 10.2239 10.6666 10.5 10.6666H10.8333C11.1095 10.6666 11.3333 10.8905 11.3333 11.1666V11.5ZM8.66667 11.5C8.66667 11.7761 8.44281 12 8.16667 12H7.83333C7.55719 12 7.33333 11.7761 7.33333 11.5V11.1666C7.33333 10.8905 7.55719 10.6666 7.83333 10.6666H8.16667C8.44281 10.6666 8.66667 10.8905 8.66667 11.1666V11.5ZM6 11.5C6 11.7761 5.77614 12 5.5 12H5.16667C4.89052 12 4.66667 11.7761 4.66667 11.5V11.1666C4.66667 10.8905 4.89052 10.6666 5.16667 10.6666H5.5C5.77614 10.6666 6 10.8905 6 11.1666V11.5ZM11.3333 8.83331C11.3333 9.10946 11.1095 9.33331 10.8333 9.33331H10.5C10.2239 9.33331 10 9.10946 10 8.83331V8.49998C10 8.22384 10.2239 7.99998 10.5 7.99998H10.8333C11.1095 7.99998 11.3333 8.22384 11.3333 8.49998V8.83331ZM8.66667 8.83331C8.66667 9.10946 8.44281 9.33331 8.16667 9.33331H7.83333C7.55719 9.33331 7.33333 9.10946 7.33333 8.83331V8.49998C7.33333 8.22384 7.55719 7.99998 7.83333 7.99998H8.16667C8.44281 7.99998 8.66667 8.22384 8.66667 8.49998V8.83331ZM6 8.83331C6 9.10946 5.77614 9.33331 5.5 9.33331H5.16667C4.89052 9.33331 4.66667 9.10946 4.66667 8.83331V8.49998C4.66667 8.22384 4.89052 7.99998 5.16667 7.99998H5.5C5.77614 7.99998 6 8.22384 6 8.49998V8.83331Z" fill="#currentColor"/>
</svg>
