<svg xmlns="http://www.w3.org/2000/svg" viewBox="0 0 16 16"><g id="Layer_2" data-name="Layer 2"><g id="Date"><path d="M2.33,5.72H13.62a0,0,0,0,1,0,0v6.39a.47.47,0,0,1-.47.47H2.81a.47.47,0,0,1-.47-.47V5.72A0,0,0,0,1,2.33,5.72Z" style="fill:#fff"/><path d="M13,3H11.25V1.4a.76.76,0,0,0-1.5,0V3H6.25V1.4A.71.71,0,0,0,5.5.75a.71.71,0,0,0-.75.65V3H3A2,2,0,0,0,1,5v7a2,2,0,0,0,2,2H13a2,2,0,0,0,2-2V5A2,2,0,0,0,13,3Zm.5,9a.51.51,0,0,1-.5.5H3a.51.51,0,0,1-.5-.5V5.8h11Z" style="fill:#adb5bd"/><path d="M13,3H11.25V1.4a.76.76,0,0,0-1.5,0V3H6.25V1.4A.71.71,0,0,0,5.5.75a.71.71,0,0,0-.75.65V3H3A2,2,0,0,0,1,5v7a2,2,0,0,0,2,2H13a2,2,0,0,0,2-2V5A2,2,0,0,0,13,3Zm.5,9a.51.51,0,0,1-.5.5H3a.51.51,0,0,1-.5-.5V5.8h11Z" style="fill:#adb5bd"/><rect id="Transparent_path" data-name="Transparent path" width="16" height="16" style="fill:none"/></g></g></svg>