<svg xmlns="http://www.w3.org/2000/svg"  viewBox="0 0 16 16">
  <defs>
    <style>
      .cls-1 {
        fill: #fff;
      }

      .cls-2 {
        fill: #adb5bd;
      }

      .cls-3 {
        fill: none;
      }
    </style>
  </defs>
  <g id="Layer_2" data-name="Layer 2">
    <g id="Layer_2-2" data-name="Layer 2">
      <g id="Date">
        <g>
          <path class="cls-1" d="M1,5H15a0,0,0,0,1,0,0v5.69A2.31,2.31,0,0,1,12.69,13H3.31A2.31,2.31,0,0,1,1,10.69V5A0,0,0,0,1,1,5Z"/>
          <path class="cls-2" d="M13,4.5a.51.51,0,0,1,.5.5v7a.51.51,0,0,1-.5.5H3a.51.51,0,0,1-.5-.5V5A.51.51,0,0,1,3,4.5H13M13,3H3A2,2,0,0,0,1,5v7a2,2,0,0,0,2,2H13a2,2,0,0,0,2-2V5a2,2,0,0,0-2-2Z"/>
          <path class="cls-2" d="M1.34,5.8V5.13c0-1,.43-1.77,1.62-1.77h9.89A2,2,0,0,1,15,5.13V5.8Z"/>
          <path class="cls-2" d="M5.5.75a.71.71,0,0,0-.75.65V4.6a.71.71,0,0,0,.75.65.71.71,0,0,0,.75-.65V1.4A.71.71,0,0,0,5.5.75Z"/>
          <path class="cls-2" d="M10.5.75a.71.71,0,0,0-.75.65V4.6a.76.76,0,0,0,1.5,0V1.4A.71.71,0,0,0,10.5.75Z"/>
        </g>
        <rect id="Transparent_path" data-name="Transparent path" class="cls-3" width="16" height="16"/>
      </g>
    </g>
  </g>
</svg>
