<svg viewBox="0 0 10 10" fill="none" xmlns="http://www.w3.org/2000/svg">
    <path
        d="M7.69976 2.97533C7.69976 2.84181 7.66016 2.71128 7.58598 2.60027C7.5118 2.48925 7.40637 2.40272 7.28301 2.35162C7.15966 2.30053 7.02392 2.28716 6.89296 2.31321C6.76201 2.33926 6.64172 2.40355 6.54731 2.49797C6.45289 2.59238 6.3886 2.71267 6.36255 2.84362C6.3365 2.97458 6.34987 3.11031 6.40097 3.23367C6.45206 3.35703 6.53859 3.46246 6.64961 3.53664C6.76063 3.61082 6.89115 3.65041 7.02467 3.65041C7.20371 3.65041 7.37542 3.57929 7.50203 3.45269C7.62863 3.32608 7.69976 3.15437 7.69976 2.97533ZM5.57998 9.10513L9.36947 5.32013C9.41119 5.27808 9.44419 5.22821 9.46658 5.17337C9.48898 5.11854 9.50033 5.05982 9.49999 5.00059L9.49999 0.950059C9.49999 0.830696 9.45258 0.716222 9.36817 0.631819C9.28377 0.547417 9.1693 0.5 9.04993 0.5L4.9994 0.5C4.94017 0.499658 4.88146 0.51101 4.82662 0.533407C4.77179 0.555804 4.72191 0.588805 4.67986 0.630517L0.894863 4.42002C0.642018 4.67317 0.499999 5.01634 0.499999 5.37414C0.499999 5.73194 0.642018 6.07511 0.894863 6.32827L3.64922 9.10513C3.90238 9.35797 4.24555 9.5 4.60335 9.5C4.96115 9.5 5.30432 9.35797 5.55747 9.10513L5.57998 9.10513ZM4.31081 8.6225L1.385 5.68918C1.30118 5.60486 1.25 5.49079 1.25 5.37189C1.25 5.25299 1.30118 5.13892 1.385 5.0546L5.15 1.25L8.75 1.25L8.75 4.85L4.94539 8.6225C4.90334 8.66421 4.85347 8.6976 4.79863 8.72C4.7438 8.7424 4.68508 8.75034 4.62585 8.75C4.50778 8.7495 4.39464 8.70565 4.31081 8.6225Z"
        fill="#64748B" />
</svg>