<svg viewBox="0 0 16 16" fill="none" xmlns="http://www.w3.org/2000/svg">
<path d="M3.5421 12.5011L3.51756 12.4995L3.49298 12.5003C3.10002 12.5137 2.71117 12.4175 2.36983 12.2227C2.08798 12.0401 1.86929 11.7749 1.74381 11.4633L1.74092 11.4561L1.73781 11.449C1.57799 11.085 1.49694 10.6914 1.49997 10.2938H1.49999V10.29V5.76002H1.50009L1.49989 5.75007C1.49136 5.3216 1.57062 4.89592 1.7328 4.49924L1.73569 4.49218L1.73836 4.48504C1.8529 4.1785 2.06449 3.91796 2.34069 3.74297C2.68992 3.55824 3.08357 3.47375 3.47804 3.499L3.50313 3.50061L3.52825 3.49969C3.92379 3.48524 4.31546 3.58128 4.65934 3.77694C4.93448 3.95722 5.14568 4.21994 5.2626 4.52763L5.26246 4.52768L5.2671 4.53905C5.42471 4.92501 5.50389 5.33849 5.50001 5.75537L5.49999 5.75537V5.76002V10.29H5.49987L5.50011 10.3011C5.50925 10.7129 5.42807 11.1217 5.26228 11.4988L5.25911 11.506L5.25617 11.5133C5.13166 11.8225 4.91539 12.086 4.63669 12.2684C4.30022 12.4449 3.92153 12.5255 3.5421 12.5011Z" stroke="currentColor"/>
<path d="M12.5428 12.5011L12.5183 12.4995L12.4937 12.5003C12.1008 12.5137 11.7119 12.4175 11.3706 12.2227C11.0887 12.0401 10.87 11.7749 10.7445 11.4633L10.7416 11.4561L10.7385 11.449C10.5787 11.085 10.4977 10.6914 10.5007 10.2938H10.5007V10.29V5.76002H10.5008L10.5006 5.75007C10.4921 5.3216 10.5714 4.89592 10.7335 4.49924L10.7364 4.49218L10.7391 4.48504C10.8536 4.1785 11.0652 3.91796 11.3414 3.74297C11.6907 3.55824 12.0843 3.47375 12.4788 3.499L12.5039 3.50061L12.529 3.49969C12.9245 3.48524 13.3162 3.58128 13.6601 3.77694C13.9352 3.95722 14.1464 4.21994 14.2633 4.52763L14.2632 4.52768L14.2678 4.53905C14.4254 4.92501 14.5046 5.33849 14.5007 5.75537L14.5007 5.75537V5.76002V10.29H14.5006L14.5008 10.3011C14.51 10.7129 14.4288 11.1217 14.263 11.4988L14.2598 11.506L14.2569 11.5133C14.1324 11.8225 13.9161 12.086 13.6374 12.2684C13.301 12.4449 12.9223 12.5255 12.5428 12.5011Z" stroke="currentColor"/>
<path d="M8.5 10H7.5C7.22386 10 7 10.2239 7 10.5V11.5C7 11.7761 7.22386 12 7.5 12H8.5C8.77614 12 9 11.7761 9 11.5V10.5C9 10.2239 8.77614 10 8.5 10Z" fill="currentColor"/>
</svg>
