<svg xmlns="http://www.w3.org/2000/svg" viewBox="0 0 16 16">
  <defs>
    <style>
      .cls-1 {
        fill: #adb5bd;
      }

      .cls-2 {
        fill: none;
      }
    </style>
  </defs>
  <g id="Layer_2" data-name="Layer 2">
    <g id="Layer_2-2" data-name="Layer 2">
      <g id="float1">
        <path class="cls-1" d="M3.51,13a2.62,2.62,0,0,1-1.4-.35,2.13,2.13,0,0,1-.83-1A3.32,3.32,0,0,1,1,10.29V5.76a3.64,3.64,0,0,1,.27-1.45,2,2,0,0,1,.82-1A2.64,2.64,0,0,1,3.51,3a2.63,2.63,0,0,1,1.41.35,2.06,2.06,0,0,1,.81,1A3.64,3.64,0,0,1,6,5.76v4.53a3.32,3.32,0,0,1-.28,1.41,2.13,2.13,0,0,1-.83,1A2.57,2.57,0,0,1,3.51,13Zm0-1.46a.92.92,0,0,0,.68-.21,1,1,0,0,0,.28-.48,2,2,0,0,0,.07-.52V5.72a2.64,2.64,0,0,0-.06-.55,1,1,0,0,0-.27-.5,1,1,0,0,0-.7-.21,1,1,0,0,0-.7.21,1,1,0,0,0-.28.5,2.64,2.64,0,0,0-.06.55v4.61a2.58,2.58,0,0,0,.07.52.91.91,0,0,0,1,.69Z"/>
        <path class="cls-1" d="M12.51,13a2.62,2.62,0,0,1-1.4-.35,2.13,2.13,0,0,1-.83-1A3.32,3.32,0,0,1,10,10.29V5.76a3.64,3.64,0,0,1,.27-1.45,2,2,0,0,1,.82-1A2.64,2.64,0,0,1,12.51,3a2.63,2.63,0,0,1,1.41.35,2.06,2.06,0,0,1,.81,1A3.64,3.64,0,0,1,15,5.76v4.53a3.32,3.32,0,0,1-.28,1.41,2.13,2.13,0,0,1-.83,1A2.57,2.57,0,0,1,12.51,13Zm0-1.46a.92.92,0,0,0,.68-.21,1,1,0,0,0,.28-.48,2,2,0,0,0,.07-.52V5.72a2.64,2.64,0,0,0-.06-.55,1,1,0,0,0-.27-.5,1,1,0,0,0-.7-.21,1,1,0,0,0-.7.21,1,1,0,0,0-.28.5,2.64,2.64,0,0,0-.06.55v4.61a2.58,2.58,0,0,0,.07.52.91.91,0,0,0,1,.69Z"/>
        <rect class="cls-1" x="7" y="10" width="2" height="2" rx="0.5"/>
        <rect id="Transparent_path" data-name="Transparent path" class="cls-2" width="16" height="16"/>
      </g>
    </g>
  </g>
</svg>
