<svg xmlns="http://www.w3.org/2000/svg" viewBox="0 0 16 16">
    <g id="Layer_2" data-name="Layer 2">
        <g id="float2">
            <circle cx="8" cy="8" r="1" style="fill:#6F7590"/>
            <path d="M8,15A7,7,0,0,1,1,8,7,7,0,0,1,8,1a7,7,0,0,1,7,7A7,7,0,0,1,8,15ZM8,2.5A5.9,5.9,0,0,0,2.5,8,5.9,5.9,0,0,0,8,13.5,5.9,5.9,0,0,0,13.5,8,5.9,5.9,0,0,0,8,2.5Z" style="fill:#6F7590"/>
            <rect id="Transparent_path" data-name="Transparent path" width="16" height="16" style="fill:none"/>
        </g>
    </g>
</svg>