<svg xmlns="http://www.w3.org/2000/svg"  viewBox="0 0 16 16"><g id="Layer_2" data-name="Layer 2"><g id="geography"><rect id="Transparent_path" data-name="Transparent path" width="16" height="16" style="fill:none"/><path d="M8,1A7,7,0,0,0,1,8a7,7,0,0,0,7,7,7,7,0,0,0,7-7A7,7,0,0,0,8,1Zm5.5,7a4.46,4.46,0,0,1-.19,1.25H11.24a10.45,10.45,0,0,0,0-2.5h2A4.46,4.46,0,0,1,13.5,8ZM8,13H8a4.61,4.61,0,0,1-2-2.49H10A4.61,4.61,0,0,1,8,13ZM5.64,9.25a9.1,9.1,0,0,1,0-2.5H10.3a9.51,9.51,0,0,1,0,2.5ZM2.5,8a4.46,4.46,0,0,1,.19-1.25h2a10.45,10.45,0,0,0,0,2.5h-2A4.46,4.46,0,0,1,2.5,8ZM8,2.84H8A3.9,3.9,0,0,1,10.05,5.5H5.88A3.9,3.9,0,0,1,8,2.84ZM12.78,5.5H11.05a1.22,1.22,0,0,1,0-.17,5.44,5.44,0,0,0-1.8-2.65A6.22,6.22,0,0,1,12.78,5.5ZM6.67,2.71A5.32,5.32,0,0,0,4.92,5.32c0,.06,0,.12,0,.18H3.22A6.28,6.28,0,0,1,6.67,2.71ZM3.22,10.5H4.94s0,.07,0,.1a5,5,0,0,0,2.17,2.81A6.15,6.15,0,0,1,3.22,10.5Zm5.55,2.92A4.94,4.94,0,0,0,11,10.6s0-.06,0-.1h1.79A6.08,6.08,0,0,1,8.77,13.42Z" style="fill:#adb5bd"/><path d="M8,2.84A3.9,3.9,0,0,0,5.88,5.5h4.17A3.9,3.9,0,0,0,8,2.84Z" style="fill:#fff"/><path d="M3.22,5.5H4.88c0-.06,0-.12,0-.18A5.32,5.32,0,0,1,6.67,2.71,6.28,6.28,0,0,0,3.22,5.5Z" style="fill:#fff"/><path d="M11.05,5.5h1.73A6.22,6.22,0,0,0,9.22,2.68,5.44,5.44,0,0,1,11,5.33,1.22,1.22,0,0,0,11.05,5.5Z" style="fill:#fff"/><path d="M5.64,9.25H10.3a9.51,9.51,0,0,0,0-2.5H5.63A9.1,9.1,0,0,0,5.64,9.25Z" style="fill:#fff"/><path d="M2.5,8a4.46,4.46,0,0,0,.19,1.25h2a10.45,10.45,0,0,1,0-2.5h-2A4.46,4.46,0,0,0,2.5,8Z" style="fill:#fff"/><path d="M13.5,8a4.46,4.46,0,0,0-.19-1.25h-2a10.45,10.45,0,0,1,0,2.5h2.07A4.46,4.46,0,0,0,13.5,8Z" style="fill:#fff"/><path d="M7.13,13.41A5,5,0,0,1,5,10.6s0-.06,0-.1H3.22A6.15,6.15,0,0,0,7.13,13.41Z" style="fill:#fff"/><path d="M11,10.5s0,.07,0,.1a4.94,4.94,0,0,1-2.2,2.82,6.08,6.08,0,0,0,4-2.92Z" style="fill:#fff"/><path d="M8,13H8a4.61,4.61,0,0,0,2-2.49H5.93A4.61,4.61,0,0,0,8,13Z" style="fill:#fff"/></g></g></svg>