<svg xmlns="http://www.w3.org/2000/svg" viewBox="0 0 16 16">
  <defs>
    <style>
      .cls-1 {
        fill: none;
      }

      .cls-2 {
        fill: #fff;
      }

      .cls-3 {
        fill: #adb5bd;
      }
    </style>
  </defs>
  <g id="Layer_2" data-name="Layer 2">
    <g id="Layer_2-2" data-name="Layer 2">
      <g id="geography">
        <rect id="Transparent_path" data-name="Transparent path" class="cls-1" width="16" height="16"/>
        <path class="cls-2" d="M8,2A6.22,6.22,0,0,0,2,8a6.22,6.22,0,0,0,6,6,6.22,6.22,0,0,0,6-6A6.22,6.22,0,0,0,8,2Z"/>
        <path class="cls-3" d="M8,15A7,7,0,0,1,1,8,7,7,0,0,1,8,1a7,7,0,0,1,7,7A7,7,0,0,1,8,15ZM8,2.5A5.9,5.9,0,0,0,2.5,8,5.9,5.9,0,0,0,8,13.5,5.9,5.9,0,0,0,13.5,8,5.9,5.9,0,0,0,8,2.5Z"/>
        <path class="cls-3" d="M8,13.83A5,5,0,0,1,5,10.6a10.27,10.27,0,0,1,0-5.28A5.08,5.08,0,0,1,8,2v.85A3.88,3.88,0,0,0,5.88,5.52a9.06,9.06,0,0,0-.06,4.68A4.64,4.64,0,0,0,8,13Z"/>
        <polygon class="cls-3" points="14 6.75 2 6.75 2.91 5.5 13.09 5.5 14 6.75"/>
        <rect class="cls-3" x="2.26" y="9.25" width="11.67" height="1.25"/>
        <path class="cls-3" d="M8,13.83a5,5,0,0,0,3-3.23,10.24,10.24,0,0,0,0-5.27A5.07,5.07,0,0,0,8,2v.85a3.88,3.88,0,0,1,2.08,2.68,9.06,9.06,0,0,1,.06,4.68A4.64,4.64,0,0,1,8,13Z"/>
      </g>
    </g>
  </g>
</svg>
