<svg viewBox="0 0 16 16" fill="none" xmlns="http://www.w3.org/2000/svg">
<path d="M8 13.5C11.0376 13.5 13.5 11.0376 13.5 8C13.5 4.96243 11.0376 2.5 8 2.5C4.96243 2.5 2.5 4.96243 2.5 8C2.5 11.0376 4.96243 13.5 8 13.5Z" stroke="currentColor" stroke-linecap="round" stroke-linejoin="round"/>
<path d="M13 10.2693L10.1011 8.25687C10.0503 8.22159 9.99346 8.19872 9.93434 8.18972L8.7158 8.00432C8.6243 7.9904 8.53127 8.01031 8.45063 8.06108C8.37 8.11184 8.30611 8.19072 8.26852 8.28591L7.537 10.1386C7.50298 10.2248 7.49209 10.3203 7.5057 10.4134C7.5193 10.5065 7.55679 10.593 7.61352 10.6622L8.61745 11.8879C8.66296 11.9434 8.69625 12.0103 8.71462 12.0831C8.73299 12.1559 8.73593 12.2325 8.7232 12.3068L8.5187 13.5" stroke="currentColor" stroke-linecap="round" stroke-linejoin="round"/>
<path d="M4.0595 4.20001L3.50049 5.52187C3.45064 5.63973 3.44789 5.77222 3.49279 5.89205L4.21096 7.80881C4.24037 7.88731 4.28904 7.95714 4.3525 8.01191C4.41596 8.06667 4.49216 8.10461 4.57411 8.12222L5.91348 8.41009C5.9878 8.42606 6.0575 8.45877 6.11728 8.50573C6.17706 8.55269 6.22534 8.61266 6.25846 8.68108L6.49632 9.17245C6.53725 9.25701 6.60118 9.32833 6.68077 9.37823C6.76037 9.42814 6.85242 9.4546 6.94636 9.4546H7.7859" stroke="currentColor" stroke-linecap="round" stroke-linejoin="round"/>
<path d="M9.52867 3L10.112 4.0449C10.1672 4.14368 10.1872 4.25824 10.1688 4.36987C10.1504 4.48149 10.0947 4.58359 10.0108 4.65947L8.3289 6.18057C8.30035 6.20638 8.26892 6.22882 8.23523 6.24742L7.47012 6.66994C7.39611 6.71081 7.31295 6.73225 7.22841 6.73225H5.89432C5.79594 6.73225 5.69975 6.76127 5.61778 6.81569C5.53582 6.8701 5.47173 6.94748 5.43354 7.03815L4.91309 8.27367" stroke="currentColor" stroke-linecap="round" stroke-linejoin="round"/>
</svg>
