<svg xmlns="http://www.w3.org/2000/svg" width="16" height="16" viewBox="0 0 16 16">
  <defs>
    <style>
      .cls-1 {
        fill: #adb5bd;
      }

      .cls-2 {
        fill: none;
      }
    </style>
  </defs>
  <g id="Layer_2" data-name="Layer 2">
    <g id="Layer_2-2" data-name="Layer 2">
      <g id="String">
        <g>
          <path class="cls-1" d="M1.57,13,3.49,3H5.73L7.64,13H5.77l-.36-2.2H3.85L3.47,13ZM4,9.56H5.22l-.6-4Z"/>
          <path class="cls-1" d="M8.57,13V3h2.51a6.44,6.44,0,0,1,1.2.11,2.62,2.62,0,0,1,1,.4,1.85,1.85,0,0,1,.65.78,3.2,3.2,0,0,1,.22,1.3,2.61,2.61,0,0,1-.17,1,1.57,1.57,0,0,1-.49.68,1.84,1.84,0,0,1-.78.33,2.12,2.12,0,0,1,1,.39,1.89,1.89,0,0,1,.58.82,3.39,3.39,0,0,1,.2,1.22,4,4,0,0,1-.19,1.31,2.2,2.2,0,0,1-.56.91,2.26,2.26,0,0,1-.9.54,4,4,0,0,1-1.25.18Zm2-6h.5a1.53,1.53,0,0,0,.79-.16.82.82,0,0,0,.38-.47,2.44,2.44,0,0,0,.1-.77,1.52,1.52,0,0,0-.15-.73.85.85,0,0,0-.47-.4A2,2,0,0,0,11,4.38h-.36Zm0,4.53h.56a1.24,1.24,0,0,0,1-.39A1.88,1.88,0,0,0,12.48,10a2.75,2.75,0,0,0-.13-.95,1,1,0,0,0-.44-.52,1.62,1.62,0,0,0-.8-.16h-.52Z"/>
        </g>
        <rect id="Transparent_path" data-name="Transparent path" class="cls-2" width="16" height="16"/>
      </g>
    </g>
  </g>
</svg>
