<svg xmlns="http://www.w3.org/2000/svg" viewBox="0 0 16 16">
    <g id="Layer_2" data-name="Layer 2">
        <g id="Struct">
            <path d="M5,13.25a6,6,0,0,1-1.27-.11,1.4,1.4,0,0,1-.7-.35,1.25,1.25,0,0,1-.29-.67,7.73,7.73,0,0,1-.06-1v-1c0-.47,0-.81,0-1a.61.61,0,0,0-.18-.42A.81.81,0,0,0,2,8.56V7.45a.81.81,0,0,0,.46-.1.62.62,0,0,0,.18-.43c0-.22,0-.56,0-1V4.94a7.79,7.79,0,0,1,.06-1.06A1.25,1.25,0,0,1,3,3.21a1.4,1.4,0,0,1,.7-.35A6,6,0,0,1,5,2.75V3.81a4.69,4.69,0,0,0-.59,0A.44.44,0,0,0,4.16,4a.77.77,0,0,0-.1.36A5.48,5.48,0,0,0,4,5V6.08a4.8,4.8,0,0,1-.1,1.41A.74.74,0,0,1,3.31,8,.72.72,0,0,1,4,8.48,5.05,5.05,0,0,1,4,9.91V11a5.36,5.36,0,0,0,0,.64.77.77,0,0,0,.1.36c.06.08.29.13.4.16a2.45,2.45,0,0,0,.44,0Z" style="fill:currentColor"/>
            <path d="M11,13.25a6,6,0,0,0,1.27-.11,1.4,1.4,0,0,0,.7-.35,1.25,1.25,0,0,0,.29-.67,7.73,7.73,0,0,0,.06-1v-1c0-.47,0-.81,0-1a.61.61,0,0,1,.18-.42.81.81,0,0,1,.46-.1V7.45a.81.81,0,0,1-.46-.1.62.62,0,0,1-.18-.43c0-.22,0-.56,0-1V4.94a7.79,7.79,0,0,0-.06-1.06A1.25,1.25,0,0,0,13,3.21a1.4,1.4,0,0,0-.7-.35A6,6,0,0,0,11,2.75V3.81a4.69,4.69,0,0,1,.59,0,.44.44,0,0,1,.25.16.77.77,0,0,1,.1.36A5.48,5.48,0,0,1,12,5V6.08a4.8,4.8,0,0,0,.1,1.41.74.74,0,0,0,.62.52.72.72,0,0,0-.64.47A5.05,5.05,0,0,0,12,9.91V11a5.36,5.36,0,0,1,0,.64.77.77,0,0,1-.1.36c-.06.08-.29.13-.4.16a2.45,2.45,0,0,1-.44,0Z" style="fill:currentColor"/>
            <rect id="Transparent_path" data-name="Transparent path" width="16" height="16" style="fill:none"/>
        </g>
    </g>
</svg>