<svg viewBox="0 0 16 16" fill="none" xmlns="http://www.w3.org/2000/svg">
<path d="M5.5 2.5C1.5 2.5 5 8 2 8C5 8 1.5 13.5 5.5 13.5" stroke="currentColor" stroke-linecap="round" stroke-linejoin="round"/>
<path d="M10.5 2.5C14.5 2.5 11 8 14 8C11 8 14.5 13.5 10.5 13.5" stroke="currentColor" stroke-linecap="round" stroke-linejoin="round"/>
<path d="M7.35034 4.85791C7.35034 4.67041 7.40503 4.51416 7.5144 4.38916C7.62769 4.26416 7.79565 4.20166 8.01831 4.20166C8.24097 4.20166 8.40894 4.26416 8.52222 4.38916C8.6394 4.51416 8.698 4.67041 8.698 4.85791C8.698 5.0376 8.6394 5.18799 8.52222 5.30908C8.40894 5.43018 8.24097 5.49072 8.01831 5.49072C7.79565 5.49072 7.62769 5.43018 7.5144 5.30908C7.40503 5.18799 7.35034 5.0376 7.35034 4.85791ZM7.55542 12.2993L6.94019 11.8774C7.30737 11.3657 7.49878 10.8384 7.5144 10.2954V9.31689H8.57495V10.1665C8.57495 10.561 8.47729 10.9556 8.28198 11.3501C8.09058 11.7446 7.84839 12.061 7.55542 12.2993Z" fill="currentColor"/>
</svg>
