<svg viewBox="0 0 16 16" fill="none" xmlns="http://www.w3.org/2000/svg">
<path d="M13 2.5H3C2.72386 2.5 2.5 2.72386 2.5 3V13C2.5 13.2761 2.72386 13.5 3 13.5H13C13.2761 13.5 13.5 13.2761 13.5 13V3C13.5 2.72386 13.2761 2.5 13 2.5Z" stroke="currentColor" stroke-linecap="round" stroke-linejoin="round"/>
<path d="M13.5 9.99999L10.8536 7.35355C10.7598 7.25979 10.6326 7.20711 10.5 7.20711C10.3674 7.20711 10.2402 7.25979 10.1464 7.35355L7.35355 10.1464C7.25978 10.2402 7.13261 10.2929 7 10.2929C6.86739 10.2929 6.74021 10.2402 6.64644 10.1464L5.35355 8.85355C5.25978 8.75979 5.13261 8.70711 5 8.70711C4.86739 8.70711 4.74021 8.75979 4.64644 8.85355L2.5 11" stroke="currentColor" stroke-linecap="round" stroke-linejoin="round"/>
<path d="M6.5 6C6.77614 6 7 5.77614 7 5.5C7 5.22386 6.77614 5 6.5 5C6.22386 5 6 5.22386 6 5.5C6 5.77614 6.22386 6 6.5 6Z" fill="currentColor"/>
</svg>
