<svg viewBox="0 0 16 16" fill="none" xmlns="http://www.w3.org/2000/svg">
<path d="M6.5 8H13.4999" stroke="currentColor" stroke-linecap="round" stroke-linejoin="round"/>
<path d="M6.5 4.5H13.4999" stroke="currentColor" stroke-linecap="round" stroke-linejoin="round"/>
<path d="M6.49994 11.5H13.4999" stroke="currentColor" stroke-linecap="round" stroke-linejoin="round"/>
<path d="M2.5 3.75L3.5 3.25V6.74963" stroke="currentColor" stroke-linecap="round" stroke-linejoin="round"/>
<path d="M2.56876 9.53442C2.61627 9.422 2.68677 9.32077 2.77573 9.23722C2.86468 9.15366 2.97013 9.08964 3.0853 9.04926C3.20047 9.00888 3.32281 8.99304 3.44447 9.00274C3.56612 9.01245 3.6844 9.04749 3.79171 9.10562C3.89902 9.16375 3.99298 9.24369 4.06756 9.34029C4.14215 9.43689 4.1957 9.54802 4.22479 9.66654C4.25387 9.78507 4.25785 9.90837 4.23645 10.0285C4.21506 10.1487 4.16877 10.263 4.10056 10.3642L2.5 12.5H4.25" stroke="currentColor" stroke-linecap="round" stroke-linejoin="round"/>
</svg>
