<svg width="24" height="24" viewBox="0 0 24 24" fill="none" xmlns="http://www.w3.org/2000/svg">
    <path d="M3 17.751L11.996 23l.002-2.624-6.749-3.938.001-7.874L3 7.254V17.75z" fill="#F96B13"></path>
    <path d="M5.25 8.564L7.5 7.252l-2.25-1.31-2.249 1.312 2.25 1.31z" fill="#FFCA73"></path>
    <path d="M11.996 23l2.25-1.313.003-2.621-2.25 1.31L11.995 23z" fill="#CC4E00"></path>
    <path d="M11.998 20.376l2.25-1.31-6.752-3.937-2.247 1.31 6.75 3.937z" fill="#FFCA73"></path>
    <path d="M5.249 16.44l2.249-1.312.001-7.875L5.25 8.565l-.001 7.875z" fill="#CC4E00"></path>
    <path d="M18.75 8.56L21 7.25 12.002 2 9.754 3.312l8.996 5.249z" fill="#FFCA73"></path>
    <path d="M9.753 5.938l6.748 3.935v7.877l2.25 1.31-.001-10.5-8.996-5.248-.001 2.626z" fill="#F96B13"></path>
    <path d="M18.75 19.06L21 17.748 20.998 7.25 18.75 8.561v10.5z" fill="#CC4E00"></path>
</svg>