<svg width="16" height="16" viewBox="0 0 16 16" fill="none" xmlns="http://www.w3.org/2000/svg">
<path d="M8 10.5C9.38071 10.5 10.5 9.38071 10.5 8C10.5 6.61929 9.38071 5.5 8 5.5C6.61929 5.5 5.5 6.61929 5.5 8C5.5 9.38071 6.61929 10.5 8 10.5Z" stroke="#6A7692" stroke-linecap="round" stroke-linejoin="round"/>
<path d="M11.3188 13C10.2051 13.7394 8.87634 14.0857 7.54342 13.984C6.21049 13.8823 4.94971 13.3383 3.96113 12.4385C2.97255 11.5386 2.3128 10.3344 2.08656 9.01684C1.86032 7.69932 2.08055 6.34398 2.71231 5.16588C3.34407 3.98778 4.35116 3.05439 5.5738 2.51383C6.79644 1.97327 8.16458 1.85649 9.46114 2.18203C10.7577 2.50758 11.9084 3.25678 12.7307 4.31078C13.553 5.36478 13.9997 6.66319 14 8C14 9.38125 13.5 10.5 12.25 10.5C11 10.5 10.5 9.38125 10.5 8V5.5" stroke="#6A7692" stroke-linecap="round" stroke-linejoin="round"/>
</svg>
