<svg width="16" height="16" viewBox="0 0 16 16" fill="none" xmlns="http://www.w3.org/2000/svg">
<g clip-path="url(#clip0_9106_387656)">
<path d="M8.03037 5.59832L10.7123 2.91634C11.0273 2.60136 10.8042 2.06279 10.3588 2.06279L7.53037 2.06279C7.39776 2.06279 7.27058 2.11547 7.17681 2.20923L4.99483 4.39121C4.90106 4.48498 4.84839 4.61216 4.84839 4.74477L4.84839 8.5732C4.84839 8.7058 4.79571 8.83298 4.70194 8.92675L1.66641 11.9623C1.47114 12.1575 1.47114 12.4741 1.66641 12.6694L3.08062 14.0836C3.27588 14.2789 3.59246 14.2789 3.78773 14.0836L6.82326 11.0481C6.91703 10.9543 7.0442 10.9016 7.17681 10.9016L11.0052 10.9016C11.1378 10.9016 11.265 10.8489 11.3588 10.7552L13.5408 8.5732C13.6345 8.47943 13.6872 8.35225 13.6872 8.21964L13.6872 5.39121C13.6872 4.94576 13.1486 4.72268 12.8337 5.03766L10.1517 7.71964C9.95642 7.9149 9.63984 7.9149 9.44458 7.71964L8.03037 6.30543C7.8351 6.11017 7.8351 5.79358 8.03037 5.59832Z" fill="#069A7A"/>
</g>
<defs>
<clipPath id="clip0_9106_387656">
<rect width="16" height="16" fill="white"/>
</clipPath>
</defs>
</svg>
