<svg width="16" height="16" viewBox="0 0 16 16" fill="none" xmlns="http://www.w3.org/2000/svg">
<path fill-rule="evenodd" clip-rule="evenodd" d="M8.57735 1.65313C8.22009 1.45449 7.77992 1.45449 7.42265 1.65313L2.57735 4.34713C2.22008 4.54577 2 4.91287 2 5.31015V10.6981C2 11.0954 2.22008 11.4625 2.57735 11.6612L7.42265 14.3552C7.77992 14.5538 8.22008 14.5538 8.57735 14.3552L13.4226 11.6612C13.7799 11.4625 14 11.0954 14 10.6981V5.31015C14 4.91287 13.7799 4.54577 13.4226 4.34713L8.57735 1.65313ZM8.00303 10.2678C9.32851 10.2678 10.403 9.20953 10.403 7.90413C10.403 6.59873 9.32851 5.54049 8.00303 5.54049C6.67754 5.54049 5.60303 6.59873 5.60303 7.90413C5.60303 9.20953 6.67754 10.2678 8.00303 10.2678Z" fill="#D9950D"/>
</svg>
