<svg width="24" height="24" viewBox="0 0 16 16" fill="none" xmlns="http://www.w3.org/2000/svg">
<path fill-rule="evenodd" clip-rule="evenodd" d="M8.49999 2.2887C8.19058 2.11007 7.80939 2.11007 7.49999 2.2887L3.30383 4.71135C2.99443 4.88998 2.80383 5.22011 2.80383 5.57737V10.4227C2.80383 10.7799 2.99443 11.1101 3.30383 11.2887L7.49999 13.7113C7.80939 13.89 8.19058 13.89 8.49999 13.7113L12.6961 11.2887C13.0055 11.1101 13.1961 10.7799 13.1961 10.4227V5.57737C13.1961 5.22011 13.0055 4.88998 12.6961 4.71135L8.49999 2.2887ZM7.99999 10C9.10455 10 9.99999 9.10459 9.99999 8.00002C9.99999 6.89545 9.10455 6.00002 7.99999 6.00002C6.89542 6.00002 5.99999 6.89545 5.99999 8.00002C5.99999 9.10459 6.89542 10 7.99999 10Z" fill="#D9950D"/>
</svg>
