<svg width="469" height="236" viewBox="0 0 469 236" fill="none" xmlns="http://www.w3.org/2000/svg">
<g clip-path="url(#clip0_38_19411)">
<path d="M0.5 8.5C0.5 4.08172 4.08172 0.5 8.5 0.5H460.5C464.918 0.5 468.5 4.08172 468.5 8.5V235.5H0.5V8.5Z" fill="#F6F8FD"/>
<g filter="url(#filter0_d_38_19411)">
<path d="M58.5 26.5C58.5 20.9772 62.9772 16.5 68.5 16.5H442.125C447.648 16.5 452.125 20.9772 452.125 26.5V69.5H58.5V26.5Z" fill="white"/>
<g filter="url(#filter1_i_38_19411)">
<path fill-rule="evenodd" clip-rule="evenodd" d="M85.5 48.5C88.8137 48.5 91.5 45.8137 91.5 42.5C91.5 39.1863 88.8137 36.5 85.5 36.5C82.1863 36.5 79.5 39.1863 79.5 42.5C79.5 45.8137 82.1863 48.5 85.5 48.5Z" fill="#EE6A5F"/>
</g>
<path d="M91.25 42.5C91.25 45.6756 88.6756 48.25 85.5 48.25C82.3244 48.25 79.75 45.6756 79.75 42.5C79.75 39.3244 82.3244 36.75 85.5 36.75C88.6756 36.75 91.25 39.3244 91.25 42.5Z" stroke="#CE5347" stroke-width="0.5"/>
<g filter="url(#filter2_i_38_19411)">
<path fill-rule="evenodd" clip-rule="evenodd" d="M105.5 48.5C108.814 48.5 111.5 45.8137 111.5 42.5C111.5 39.1863 108.814 36.5 105.5 36.5C102.186 36.5 99.5 39.1863 99.5 42.5C99.5 45.8137 102.186 48.5 105.5 48.5Z" fill="#F5BD4F"/>
</g>
<path d="M111.25 42.5C111.25 45.6756 108.676 48.25 105.5 48.25C102.324 48.25 99.75 45.6756 99.75 42.5C99.75 39.3244 102.324 36.75 105.5 36.75C108.676 36.75 111.25 39.3244 111.25 42.5Z" stroke="#D6A243" stroke-width="0.5"/>
<g filter="url(#filter3_i_38_19411)">
<path fill-rule="evenodd" clip-rule="evenodd" d="M125.5 48.5C128.814 48.5 131.5 45.8137 131.5 42.5C131.5 39.1863 128.814 36.5 125.5 36.5C122.186 36.5 119.5 39.1863 119.5 42.5C119.5 45.8137 122.186 48.5 125.5 48.5Z" fill="#61C454"/>
</g>
<path d="M131.25 42.5C131.25 45.6756 128.676 48.25 125.5 48.25C122.324 48.25 119.75 45.6756 119.75 42.5C119.75 39.3244 122.324 36.75 125.5 36.75C128.676 36.75 131.25 39.3244 131.25 42.5Z" stroke="#58A942" stroke-width="0.5"/>
<rect x="58.875" y="69.5" width="393.625" height="166.175" fill="#FAFAFA"/>
<rect width="360" height="54" transform="translate(76.5 80.5)" fill="#FAFAFA"/>
<g clip-path="url(#clip1_38_19411)">
<rect x="76.5" y="80.5" width="359" height="54" rx="8" fill="white"/>
<rect x="92.5" y="92.5" width="28" height="28" rx="14" fill="#FAFAFA"/>
<path fill-rule="evenodd" clip-rule="evenodd" d="M103.196 101.03C102.368 101.03 101.696 101.702 101.696 102.53V110.47C101.696 111.299 102.368 111.97 103.196 111.97H105.536C105.812 111.97 106.036 112.194 106.036 112.47C106.036 112.746 105.812 112.97 105.536 112.97H103.196C101.816 112.97 100.696 111.851 100.696 110.47V102.53C100.696 101.149 101.816 100.03 103.196 100.03H106.115C107.1 100.03 108.058 100.353 108.842 100.951L109.473 101.431C109.971 101.811 110.427 102.245 110.83 102.725L111.25 103.226C111.931 104.037 112.305 105.061 112.305 106.12V106.5C112.305 106.776 112.081 107 111.805 107C111.529 107 111.305 106.776 111.305 106.5V106.12C111.305 105.953 111.293 105.786 111.269 105.622H109.876C108.984 105.622 108.123 105.285 107.485 104.677C106.846 104.069 106.483 103.238 106.483 102.367V101.049C106.361 101.037 106.238 101.03 106.115 101.03H103.196ZM110.485 103.869C110.679 104.1 110.841 104.354 110.968 104.622H109.876C109.233 104.622 108.622 104.379 108.175 103.953C107.729 103.528 107.483 102.957 107.483 102.367V101.308C107.749 101.422 108.002 101.568 108.236 101.746L108.867 102.227C109.307 102.562 109.708 102.945 110.064 103.368L110.485 103.869ZM106.575 111.52C105.51 110.395 105.506 108.734 105.549 108.106C105.559 107.948 105.674 107.811 105.842 107.74L108.66 106.55C108.818 106.483 109.005 106.483 109.163 106.55L111.98 107.74C112.149 107.811 112.264 107.948 112.274 108.106C112.317 108.734 112.313 110.395 111.248 111.52C109.913 112.929 108.911 112.929 108.911 112.929C108.911 112.929 107.91 112.929 106.575 111.52ZM110.878 108.663C111.049 108.796 111.061 109.022 110.903 109.167L108.941 110.971C108.863 111.043 108.754 111.084 108.639 111.086C108.524 111.088 108.413 111.051 108.332 110.982L107.211 110.035C107.046 109.896 107.046 109.67 107.211 109.531C107.376 109.392 107.643 109.392 107.808 109.531L108.617 110.215L110.282 108.684C110.439 108.539 110.706 108.53 110.878 108.663Z" fill="#3E4359"/>
<rect x="128.5" y="92.5" width="87" height="10" rx="2" fill="#F3F3F3"/>
<rect x="128.5" y="110.5" width="62" height="10" rx="2" fill="#F3F3F3"/>
<g clip-path="url(#clip2_38_19411)">
<circle cx="343.5" cy="105.5" r="6.5" fill="white" stroke="#6F7590"/>
<path d="M347.04 101.96L342.38 104.38L339.96 109.04L344.62 106.62L347.04 101.96Z" fill="#E6E6EB" stroke="#6F7590" stroke-linejoin="round"/>
</g>
<rect x="355.5" y="99.5" width="8" height="12" rx="2" fill="#F3F3F3"/>
<path d="M385.522 102.115L386.022 102.143L385.522 102.115ZM387.346 109.298L386.956 109.61V109.61L387.346 109.298ZM395.654 109.298L396.044 109.61L395.654 109.298ZM397.478 102.115L397.977 102.086V102.086L397.478 102.115ZM396.955 101.345L397.179 100.897V100.897L396.955 101.345ZM391.947 98.8404L392.171 98.3932L391.947 98.8404ZM391.053 98.8404L390.829 98.3932L391.053 98.8404ZM386.045 101.345L386.268 101.792H386.268L386.045 101.345ZM385.023 102.086C384.984 102.769 384.966 104.014 385.204 105.399C385.44 106.78 385.937 108.337 386.956 109.61L387.737 108.986C386.863 107.894 386.41 106.519 386.189 105.23C385.969 103.945 385.985 102.781 386.022 102.143L385.023 102.086ZM386.956 109.61C389.417 112.687 391.337 112.765 391.5 112.765V111.765C391.663 111.765 390.023 111.843 387.737 108.986L386.956 109.61ZM391.5 112.765C391.663 112.765 393.583 112.687 396.044 109.61L395.263 108.986C392.977 111.843 391.337 111.765 391.5 111.765V112.765ZM396.044 109.61C397.063 108.337 397.56 106.78 397.796 105.399C398.034 104.014 398.016 102.769 397.977 102.086L396.978 102.143C397.015 102.781 397.031 103.945 396.811 105.23C396.59 106.519 396.137 107.894 395.263 108.986L396.044 109.61ZM397.179 100.897L392.171 98.3932L391.724 99.2876L396.732 101.792L397.179 100.897ZM390.829 98.3932L385.821 100.897L386.268 101.792L391.276 99.2876L390.829 98.3932ZM386.022 102.143C386.03 102.003 386.115 101.868 386.268 101.792L385.821 100.897C385.376 101.12 385.053 101.558 385.023 102.086L386.022 102.143ZM392.171 98.3932C391.749 98.1821 391.251 98.1821 390.829 98.3932L391.276 99.2876C391.417 99.2173 391.583 99.2173 391.724 99.2876L392.171 98.3932ZM397.977 102.086C397.947 101.558 397.624 101.12 397.179 100.897L396.732 101.792C396.885 101.868 396.97 102.003 396.978 102.143L397.977 102.086ZM391.5 112.765C391.5 112.765 391.5 112.765 391.5 112.765C391.5 112.265 391.5 111.765 391.5 111.765H391.5C391.5 111.765 391.5 111.765 391.5 111.765C391.5 111.765 391.5 112.265 391.5 112.765C391.5 112.765 391.5 112.765 391.5 112.765V111.765C391.5 111.765 391.5 111.765 391.5 111.765C391.5 112.265 391.5 112.765 391.5 112.765C391.5 112.765 391.5 112.765 391.5 112.765H391.5C391.5 112.765 391.5 112.265 391.5 111.765C391.5 111.765 391.5 111.765 391.5 111.765V112.765Z" fill="#6F7590"/>
<rect x="403.5" y="99.5" width="8" height="12" rx="2" fill="#F3F3F3"/>
</g>
<rect x="77" y="81" width="358" height="53" rx="7.5" stroke="#F3F3F3"/>
<rect width="360" height="54" transform="translate(16.5 142.5)" fill="#FAFAFA"/>
<g clip-path="url(#clip3_38_19411)">
<rect x="16.5" y="142.5" width="359" height="54" rx="8" fill="white"/>
<rect x="32.5" y="154.5" width="28" height="28" rx="14" fill="#FAFAFA"/>
<rect x="40" y="163" width="13" height="11" rx="1.5" stroke="#3E4359"/>
<path d="M42.5 166.5L44.5 168.5L42.5 170.5" stroke="#3E4359" stroke-linecap="round" stroke-linejoin="round"/>
<path d="M44.5 171.5H50.5" stroke="#3E4359" stroke-linecap="round" stroke-linejoin="round"/>
<rect x="68.5" y="154.5" width="87" height="10" rx="2" fill="#F3F3F3"/>
<rect x="68.5" y="172.5" width="62" height="10" rx="2" fill="#F3F3F3"/>
<g clip-path="url(#clip4_38_19411)">
<circle cx="283.5" cy="167.5" r="6.5" fill="white" stroke="#6F7590"/>
<path d="M287.04 163.96L282.38 166.38L279.96 171.04L284.62 168.62L287.04 163.96Z" fill="#E6E6EB" stroke="#6F7590" stroke-linejoin="round"/>
</g>
<rect x="295.5" y="161.5" width="8" height="12" rx="2" fill="#F3F3F3"/>
<path d="M326 165H337" stroke="#6F7590" stroke-linecap="round" stroke-linejoin="round"/>
<path d="M326 170H337" stroke="#6F7590" stroke-linecap="round" stroke-linejoin="round"/>
<path d="M334 162V173" stroke="#6F7590" stroke-linecap="round" stroke-linejoin="round"/>
<path d="M329 162V173" stroke="#6F7590" stroke-linecap="round" stroke-linejoin="round"/>
<rect x="343.5" y="161.5" width="8" height="12" rx="2" fill="#F3F3F3"/>
</g>
<rect x="17" y="143" width="358" height="53" rx="7.5" stroke="#F3F3F3"/>
<rect width="360" height="54" transform="translate(76.5 208.5)" fill="#FAFAFA"/>
<g clip-path="url(#clip5_38_19411)">
<rect x="76.5" y="208.5" width="359" height="54" rx="8" fill="white"/>
<rect x="92.5" y="220.5" width="28" height="28" rx="14" fill="#FAFAFA"/>
<path fill-rule="evenodd" clip-rule="evenodd" d="M103.196 229.03C102.368 229.03 101.696 229.702 101.696 230.53V238.47C101.696 239.299 102.368 239.97 103.196 239.97H105.536C105.812 239.97 106.036 240.194 106.036 240.47C106.036 240.746 105.812 240.97 105.536 240.97H103.196C101.816 240.97 100.696 239.851 100.696 238.47V230.53C100.696 229.149 101.816 228.03 103.196 228.03H106.115C107.1 228.03 108.058 228.353 108.842 228.951L109.473 229.431C109.971 229.811 110.427 230.245 110.83 230.725L111.25 231.226C111.931 232.037 112.305 233.061 112.305 234.12V234.5C112.305 234.776 112.081 235 111.805 235C111.529 235 111.305 234.776 111.305 234.5V234.12C111.305 233.953 111.293 233.786 111.269 233.622H109.876C108.984 233.622 108.123 233.285 107.485 232.677C106.846 232.069 106.483 231.238 106.483 230.367V229.049C106.361 229.037 106.238 229.03 106.115 229.03H103.196ZM110.485 231.869C110.679 232.1 110.841 232.354 110.968 232.622H109.876C109.233 232.622 108.622 232.379 108.175 231.953C107.729 231.528 107.483 230.957 107.483 230.367V229.308C107.749 229.422 108.002 229.568 108.236 229.746L108.867 230.227C109.307 230.562 109.708 230.945 110.064 231.368L110.485 231.869ZM106.575 239.52C105.51 238.395 105.506 236.734 105.549 236.106C105.559 235.948 105.674 235.811 105.842 235.74L108.66 234.55C108.818 234.483 109.005 234.483 109.163 234.55L111.98 235.74C112.149 235.811 112.264 235.948 112.274 236.106C112.317 236.734 112.313 238.395 111.248 239.52C109.913 240.929 108.911 240.929 108.911 240.929C108.911 240.929 107.91 240.929 106.575 239.52ZM110.878 236.663C111.049 236.796 111.061 237.022 110.903 237.167L108.941 238.971C108.863 239.043 108.754 239.084 108.639 239.086C108.524 239.088 108.413 239.051 108.332 238.982L107.211 238.035C107.046 237.896 107.046 237.67 107.211 237.531C107.376 237.392 107.643 237.392 107.808 237.531L108.617 238.215L110.282 236.684C110.439 236.539 110.706 236.53 110.878 236.663Z" fill="#3E4359"/>
<rect x="128.5" y="220.5" width="87" height="10" rx="2" fill="#F3F3F3"/>
<g clip-path="url(#clip6_38_19411)">
<circle cx="343.5" cy="233.5" r="6.5" fill="white" stroke="#6F7590"/>
<path d="M347.04 229.96L342.38 232.38L339.96 237.04L344.62 234.62L347.04 229.96Z" fill="#E6E6EB" stroke="#6F7590" stroke-linejoin="round"/>
</g>
<rect x="355.5" y="227.5" width="8" height="12" rx="2" fill="#F3F3F3"/>
<path d="M385.522 230.115L386.022 230.143L385.522 230.115ZM387.346 237.298L386.956 237.61V237.61L387.346 237.298ZM395.654 237.298L396.044 237.61L395.654 237.298ZM397.478 230.115L397.977 230.086V230.086L397.478 230.115ZM396.955 229.345L397.179 228.897V228.897L396.955 229.345ZM391.947 226.84L392.171 226.393L391.947 226.84ZM391.053 226.84L390.829 226.393L391.053 226.84ZM386.045 229.345L386.268 229.792H386.268L386.045 229.345ZM385.023 230.086C384.984 230.769 384.966 232.014 385.204 233.399C385.44 234.78 385.937 236.337 386.956 237.61L387.737 236.986C386.863 235.894 386.41 234.519 386.189 233.23C385.969 231.945 385.985 230.781 386.022 230.143L385.023 230.086ZM386.956 237.61C389.417 240.687 391.337 240.765 391.5 240.765V239.765C391.663 239.765 390.023 239.843 387.737 236.986L386.956 237.61ZM391.5 240.765C391.663 240.765 393.583 240.687 396.044 237.61L395.263 236.986C392.977 239.843 391.337 239.765 391.5 239.765V240.765ZM396.044 237.61C397.063 236.337 397.56 234.78 397.796 233.399C398.034 232.014 398.016 230.769 397.977 230.086L396.978 230.143C397.015 230.781 397.031 231.945 396.811 233.23C396.59 234.519 396.137 235.894 395.263 236.986L396.044 237.61ZM397.179 228.897L392.171 226.393L391.724 227.288L396.732 229.792L397.179 228.897ZM390.829 226.393L385.821 228.897L386.268 229.792L391.276 227.288L390.829 226.393ZM386.022 230.143C386.03 230.003 386.115 229.868 386.268 229.792L385.821 228.897C385.376 229.12 385.053 229.558 385.023 230.086L386.022 230.143ZM392.171 226.393C391.749 226.182 391.251 226.182 390.829 226.393L391.276 227.288C391.417 227.217 391.583 227.217 391.724 227.288L392.171 226.393ZM397.977 230.086C397.947 229.558 397.624 229.12 397.179 228.897L396.732 229.792C396.885 229.868 396.97 230.003 396.978 230.143L397.977 230.086ZM391.5 240.765C391.5 240.765 391.5 240.765 391.5 240.765C391.5 240.265 391.5 239.765 391.5 239.765H391.5C391.5 239.765 391.5 239.765 391.5 239.765C391.5 239.765 391.5 240.265 391.5 240.765C391.5 240.765 391.5 240.765 391.5 240.765V239.765C391.5 239.765 391.5 239.765 391.5 239.765C391.5 240.265 391.5 240.765 391.5 240.765C391.5 240.765 391.5 240.765 391.5 240.765H391.5C391.5 240.765 391.5 240.265 391.5 239.765C391.5 239.765 391.5 239.765 391.5 239.765V240.765Z" fill="#6F7590"/>
<rect x="403.5" y="227.5" width="8" height="12" rx="2" fill="#F3F3F3"/>
</g>
<rect x="77" y="209" width="358" height="53" rx="7.5" stroke="#F3F3F3"/>
</g>
</g>
<defs>
<filter id="filter0_d_38_19411" x="-3.5" y="5.5" width="476" height="286" filterUnits="userSpaceOnUse" color-interpolation-filters="sRGB">
<feFlood flood-opacity="0" result="BackgroundImageFix"/>
<feColorMatrix in="SourceAlpha" type="matrix" values="0 0 0 0 0 0 0 0 0 0 0 0 0 0 0 0 0 0 127 0" result="hardAlpha"/>
<feOffset dy="9"/>
<feGaussianBlur stdDeviation="10"/>
<feComposite in2="hardAlpha" operator="out"/>
<feColorMatrix type="matrix" values="0 0 0 0 0 0 0 0 0 0 0 0 0 0 0 0 0 0 0.05 0"/>
<feBlend mode="normal" in2="BackgroundImageFix" result="effect1_dropShadow_38_19411"/>
<feBlend mode="normal" in="SourceGraphic" in2="effect1_dropShadow_38_19411" result="shape"/>
</filter>
<filter id="filter1_i_38_19411" x="79.5" y="36.5" width="12" height="12" filterUnits="userSpaceOnUse" color-interpolation-filters="sRGB">
<feFlood flood-opacity="0" result="BackgroundImageFix"/>
<feBlend mode="normal" in="SourceGraphic" in2="BackgroundImageFix" result="shape"/>
<feColorMatrix in="SourceAlpha" type="matrix" values="0 0 0 0 0 0 0 0 0 0 0 0 0 0 0 0 0 0 127 0" result="hardAlpha"/>
<feOffset/>
<feGaussianBlur stdDeviation="3"/>
<feComposite in2="hardAlpha" operator="arithmetic" k2="-1" k3="1"/>
<feColorMatrix type="matrix" values="0 0 0 0 0.92549 0 0 0 0 0.427451 0 0 0 0 0.384314 0 0 0 1 0"/>
<feBlend mode="normal" in2="shape" result="effect1_innerShadow_38_19411"/>
</filter>
<filter id="filter2_i_38_19411" x="99.5" y="36.5" width="12" height="12" filterUnits="userSpaceOnUse" color-interpolation-filters="sRGB">
<feFlood flood-opacity="0" result="BackgroundImageFix"/>
<feBlend mode="normal" in="SourceGraphic" in2="BackgroundImageFix" result="shape"/>
<feColorMatrix in="SourceAlpha" type="matrix" values="0 0 0 0 0 0 0 0 0 0 0 0 0 0 0 0 0 0 127 0" result="hardAlpha"/>
<feOffset/>
<feGaussianBlur stdDeviation="3"/>
<feComposite in2="hardAlpha" operator="arithmetic" k2="-1" k3="1"/>
<feColorMatrix type="matrix" values="0 0 0 0 0.960784 0 0 0 0 0.768627 0 0 0 0 0.317647 0 0 0 1 0"/>
<feBlend mode="normal" in2="shape" result="effect1_innerShadow_38_19411"/>
</filter>
<filter id="filter3_i_38_19411" x="119.5" y="36.5" width="12" height="12" filterUnits="userSpaceOnUse" color-interpolation-filters="sRGB">
<feFlood flood-opacity="0" result="BackgroundImageFix"/>
<feBlend mode="normal" in="SourceGraphic" in2="BackgroundImageFix" result="shape"/>
<feColorMatrix in="SourceAlpha" type="matrix" values="0 0 0 0 0 0 0 0 0 0 0 0 0 0 0 0 0 0 127 0" result="hardAlpha"/>
<feOffset/>
<feGaussianBlur stdDeviation="3"/>
<feComposite in2="hardAlpha" operator="arithmetic" k2="-1" k3="1"/>
<feColorMatrix type="matrix" values="0 0 0 0 0.407843 0 0 0 0 0.8 0 0 0 0 0.345098 0 0 0 1 0"/>
<feBlend mode="normal" in2="shape" result="effect1_innerShadow_38_19411"/>
</filter>
<clipPath id="clip0_38_19411">
<path d="M0.5 8.5C0.5 4.08172 4.08172 0.5 8.5 0.5H460.5C464.918 0.5 468.5 4.08172 468.5 8.5V235.5H0.5V8.5Z" fill="white"/>
</clipPath>
<clipPath id="clip1_38_19411">
<rect x="76.5" y="80.5" width="359" height="54" rx="8" fill="white"/>
</clipPath>
<clipPath id="clip2_38_19411">
<rect width="14" height="14" fill="white" transform="translate(336.5 98.5)"/>
</clipPath>
<clipPath id="clip3_38_19411">
<rect x="16.5" y="142.5" width="359" height="54" rx="8" fill="white"/>
</clipPath>
<clipPath id="clip4_38_19411">
<rect width="14" height="14" fill="white" transform="translate(276.5 160.5)"/>
</clipPath>
<clipPath id="clip5_38_19411">
<rect x="76.5" y="208.5" width="359" height="54" rx="8" fill="white"/>
</clipPath>
<clipPath id="clip6_38_19411">
<rect width="14" height="14" fill="white" transform="translate(336.5 226.5)"/>
</clipPath>
</defs>
</svg>
