<svg width="120" height="107" fill="none" xmlns="http://www.w3.org/2000/svg"><path d="M84.993 105.69c-7.849.207-17.246 0-23.753-.104-6.609.104-16.007.311-23.752.104 5.474-3.107 8.365-8.077 9.811-12.633.62-1.865.93-3.728 1.033-5.282h25.92a21.606 21.606 0 0 0 1.033 5.281c1.446 4.557 4.338 9.631 9.708 12.634Z" fill="url(#No_Active_Sessions__a)"/><path d="M22.927 106h88.915m-98.623 0h4.44" stroke="#6F7590" stroke-miterlimit="10" stroke-linecap="round" stroke-linejoin="round"/><path opacity=".2" d="M75.285 93.056h-28.09c.62-1.864.93-3.727 1.033-5.28h25.92c.207 1.553.517 3.416 1.137 5.28Z" fill="#84A2FF"/><path d="M40.999 103.101c3.201-2.9 5.163-6.627 6.196-10.045.62-1.864.93-3.727 1.033-5.28h25.92a21.595 21.595 0 0 0 1.034 5.28c1.445 4.557 4.337 9.527 9.81 12.634" stroke="#6F7590" stroke-miterlimit="10" stroke-linecap="round" stroke-linejoin="round"/><path d="M109.983 19.329v67.618c0 1.553-1.342 2.9-2.891 2.9H15.388c-1.55 0-2.892-1.347-2.892-2.9V19.329c0-1.554 1.343-2.9 2.892-2.9h91.6c1.653 0 2.995 1.243 2.995 2.9Z" fill="#fff"/><path d="M100.069 89.846H15.388c-1.55 0-2.892-1.346-2.892-2.9V19.33c0-1.554 1.343-2.9 2.892-2.9h91.6c1.549 0 2.892 1.346 2.892 2.9v67.618c0 1.553-1.343 2.9-2.892 2.9m-33.149-13.36H12.496m64.647 0h-.723" stroke="#6F7590" stroke-miterlimit="10" stroke-linecap="round" stroke-linejoin="round"/><path d="M61.24 85.29a2.379 2.379 0 0 0 2.376-2.382 2.378 2.378 0 0 0-2.376-2.381 2.378 2.378 0 0 0-2.375 2.382 2.378 2.378 0 0 0 2.375 2.381Z" fill="#C0D6FF"/><path d="M77.555 66.03h-32.22a2.78 2.78 0 0 1-2.788-2.796v-32.93a2.78 2.78 0 0 1 2.788-2.795h32.22a2.78 2.78 0 0 1 2.789 2.796v33.032c0 1.45-1.24 2.692-2.788 2.692Z" fill="#E2EBFF"/><path d="M61.24 40.35a3.62 3.62 0 0 0 3.614-3.625A3.62 3.62 0 0 0 61.24 33.1a3.62 3.62 0 0 0-3.615 3.624 3.62 3.62 0 0 0 3.614 3.624Zm12.804 6.626H48.33c-.413 0-.826-.414-.826-.828v-2.486c0-.414.413-.828.826-.828h25.611c.413 0 .826.414.826.828v2.486c.104.414-.31.828-.723.828Zm0 6.938H48.33c-.413 0-.826-.414-.826-.828V50.6c0-.414.413-.828.826-.828h25.611c.413 0 .826.414.826.828v2.486c.104.517-.31.828-.723.828Z" fill="#C0D6FF"/><path d="M74.147 55.985H65.37a.707.707 0 0 0-.722.725v1.968c0 .414.31.725.722.725h8.778a.707.707 0 0 0 .723-.725V56.71a.707.707 0 0 0-.723-.725Z" fill="#EA67A4"/><path d="M72.289 57.331h-5.06c-.207 0-.31.104-.31.31v.208c0 .207.103.31.31.31h5.06c.207 0 .31-.103.31-.31v-.207c-.103-.207-.207-.31-.31-.31Zm-9.913-5.798h-12.6c-.206 0-.31.103-.31.31v.207c0 .208.104.311.31.311h12.6c.206 0 .31-.103.31-.31v-.208c-.104-.103-.207-.31-.31-.31Zm0-7.042h-12.6c-.206 0-.31.104-.31.31v.208c0 .207.104.31.31.31h12.6c.206 0 .31-.103.31-.31v-.207c-.104-.207-.207-.31-.31-.31Z" fill="#fff"/><path d="M108.64 78.145c0 4.038-1.755 7.766-4.544 10.355-2.478 2.278-5.886 3.728-9.5 3.728-2.995 0-5.68-.932-7.952-2.485a14.082 14.082 0 0 1-6.093-11.598c0-7.766 6.3-14.083 14.044-14.083 7.746 0 14.045 6.317 14.045 14.083Z" fill="url(#No_Active_Sessions__b)"/><path d="M87.883 65.719a14.314 14.314 0 0 1 6.713-1.657c7.745 0 14.044 6.317 14.044 14.083 0 4.038-1.755 7.766-4.544 10.355-2.478 2.278-5.886 3.728-9.5 3.728-2.995 0-5.68-.932-7.952-2.485a14.082 14.082 0 0 1-6.093-11.598c0-3.107 1.032-6.006 2.788-8.388 0-.103.103-.103.103-.207l.104-.103" stroke="#6F7590" stroke-miterlimit="10" stroke-linecap="round" stroke-linejoin="round"/><path d="M95.6 78.454a1 1 0 0 0-1.202-.002l-3.673 2.754a.56.56 0 0 0-.225.45v2.531a.562.562 0 0 0 .563.563h7.874a.562.562 0 0 0 .563-.563v-2.505a.563.563 0 0 0-.223-.45L95.6 78.455ZM95 78l-4.275-3.206a.562.562 0 0 1-.225-.45v-2.531a.562.562 0 0 1 .563-.563h7.874a.562.562 0 0 1 .563.563v2.505a.563.563 0 0 1-.223.45L95 78Z" stroke="#F3F3F3" stroke-linecap="round" stroke-linejoin="round"/><path d="M92 73.876V72.75a.25.25 0 0 1 .25-.25h5.5a.25.25 0 0 1 .25.25v1.207a.25.25 0 0 1-.102.201l-2.747 2.025a.25.25 0 0 1-.3-.003l-2.753-2.105a.25.25 0 0 1-.098-.199Z" fill="#fff"/><path d="M36.145 17.775c0 4.35-1.756 8.388-4.544 11.287l-.723.725c-2.892 2.692-6.816 4.349-11.153 4.349-3.408 0-6.713-1.036-9.294-2.9a12.38 12.38 0 0 1-2.17-1.76c-2.994-3.003-4.853-7.145-4.853-11.701 0-9.112 7.332-16.36 16.317-16.36 9.088 0 16.42 7.351 16.42 16.36Z" fill="#E9F0F8"/><path d="M36.145 17.775c0 4.763-2.066 9.009-5.267 12.012-2.892 2.692-6.816 4.349-11.153 4.349-3.408 0-6.713-1.036-9.294-2.9-4.234-3.002-7.023-7.87-7.023-13.461 0-9.112 7.332-16.36 16.317-16.36 8.984 0 16.42 7.351 16.42 16.36Z" fill="#E2EBFF"/><path d="m31.6 29.166-.722.724c-2.892 2.693-6.816 4.35-11.153 4.35-3.408 0-6.713-1.036-9.295-2.9a12.385 12.385 0 0 1-2.168-1.76c.31-.518 1.032-.829 2.272-1.346l.516-.208c1.033-.414 2.272-.931 4.13-1.656a1.06 1.06 0 0 0 .62-.518c.104-.104.207-.207.207-.414.103-.207.103-.415.103-.725v-3.314c0-.103-.103-.103-.103-.207-.31-.414-.516-.932-.516-1.45l-.31-.103c-.826.207-.826-.725-1.033-2.485-.103-.725 0-.829.31-1.036l.31-.414c-.62-1.45-.93-2.589-.93-3.624 0-1.657.723-2.693 1.653-3.21-.517-1.14-.517-1.554-.517-1.554s3.408.622 4.647.311c1.55-.31 3.821.104 4.648 2.071 1.445.518 1.962 1.45 2.065 2.485.207 1.553-.723 3.314-.826 3.935v.104c.206.103.31.31.206.932-.206 1.657-.103 2.692-1.032 2.485l-.723 1.346c0 .104 0 .207-.104.31v3.521c0 .311.104.622.31.932 0 .104.104.104.207.207.206.208.413.311.62.415 1.962.828 3.407 1.346 4.44 1.76 1.136.414 1.756.725 2.169 1.036Z" fill="#fff"/><path d="m31.6 29.166-.722.724c-2.892 2.693-6.816 4.35-11.153 4.35-3.408 0-6.713-1.036-9.295-2.9a12.38 12.38 0 0 1-2.168-1.76c.31-.518 1.032-.828 2.272-1.346l.516-.207c1.033-.415 2.272-.932 4.13-1.657.31-.104.517-.31.62-.518.93 1.346 2.582 2.278 4.338 2.278 1.755 0 3.304-.828 4.337-2.174.207.207.413.31.62.414 1.962.828 3.408 1.346 4.44 1.76 1.033.414 1.653.725 2.066 1.036Z" fill="#84A2FF"/><path d="M25.715 16.222c.103-.415-.104-.932-.31-1.347 0-.103-.104-.103-.104-.207-.62-1.346-2.168-1.863-3.51-1.967-3.615-.207-3.925.518-5.061-.518.31.518.413 1.346-.207 2.382-.413.725-1.136 1.035-1.755 1.242-1.652-3.727-.826-6.005.826-6.834-.516-1.139-.62-1.553-.62-1.553s3.408.621 4.648.31c1.549-.31 3.82.104 4.647 2.072 1.446.517 1.962 1.45 2.065 2.485.413 1.553-.516 3.21-.62 3.935Z" fill="#6F7590"/><path d="M16.11 21.088c.207.311.413.622.723.829l2.582 1.864c.62.517 1.446.517 2.065 0l1.136-1.036" stroke="#6F7590" stroke-miterlimit="10" stroke-linecap="round" stroke-linejoin="round"/><path d="m31.6 29.166-.722.724c-2.892 2.693-6.816 4.35-11.153 4.35-3.408 0-6.713-1.036-9.295-2.9a12.385 12.385 0 0 1-2.168-1.76c.31-.518 1.032-.829 2.272-1.346l.516-.208c1.033-.414 2.272-.931 4.13-1.656a1.06 1.06 0 0 0 .62-.518c.104-.104.207-.207.207-.414.103-.207.103-.415.103-.725v-3.314c0-.103-.103-.103-.103-.207-.31-.414-.516-.932-.516-1.45l-.31-.103c-.826.207-.826-.725-1.033-2.485-.103-.725 0-.829.31-1.036l.31-.414c-.62-1.45-.93-2.589-.93-3.624 0-1.657.723-2.693 1.653-3.21-.517-1.14-.517-1.554-.517-1.554s3.408.622 4.647.311c1.55-.31 3.821.104 4.648 2.071 1.445.518 1.962 1.45 2.065 2.485.207 1.553-.723 3.314-.826 3.935v.104c.206.103.31.31.206.932-.206 1.657-.103 2.692-1.032 2.485l-.723 1.346c0 .104 0 .207-.104.31v3.521c0 .311.104.622.31.932 0 .104.104.104.207.207.206.208.413.311.62.415 1.962.828 3.407 1.346 4.44 1.76 1.136.414 1.756.725 2.169 1.036Z" stroke="#6F7590" stroke-miterlimit="10" stroke-linecap="round" stroke-linejoin="round"/><path d="M3.408 17.05c.413-8.698 7.539-15.636 16.317-15.636 9.088 0 16.42 7.352 16.42 16.361 0 4.763-2.066 9.009-5.267 12.012-2.892 2.692-6.816 4.349-11.153 4.349-3.408 0-6.713-1.036-9.294-2.9-2.376-1.656-4.234-3.934-5.474-6.523 0-.104-.103-.104-.103-.207" stroke="#6F7590" stroke-miterlimit="10" stroke-linecap="round" stroke-linejoin="round"/><path d="M56.076 9.802a2.585 2.585 0 0 0 2.582-2.59 2.585 2.585 0 0 0-2.582-2.588 2.585 2.585 0 0 0-2.582 2.589 2.585 2.585 0 0 0 2.582 2.589ZM40.998 9.18c.97 0 1.755-.788 1.755-1.76s-.786-1.76-1.755-1.76c-.97 0-1.756.788-1.756 1.76s.786 1.76 1.756 1.76Z" fill="#EFF3FF"/><path d="M4.338 71.932c.912 0 1.652-.742 1.652-1.657s-.74-1.657-1.652-1.657c-.913 0-1.652.742-1.652 1.657s.74 1.657 1.652 1.657Z" fill="#EAEEF9"/><path d="M116.695 67.169c.627 0 1.136-.51 1.136-1.14a1.137 1.137 0 1 0-2.272 0c0 .63.508 1.14 1.136 1.14ZM5.577 52.465h-1.86V50.6c0-.31-.31-.621-.619-.621-.31 0-.62.31-.62.62v1.865H.62c-.31 0-.62.31-.62.621 0 .414.31.621.62.621h1.858v1.864c0 .31.31.622.62.622s.62-.311.62-.622v-1.864h1.859c.413 0 .62-.207.62-.621 0-.31-.207-.621-.62-.621Z" fill="#FFB5D7"/><path d="M112.461 3.485h-1.859V1.621c0-.31-.31-.621-.619-.621-.31 0-.62.31-.62.621v1.864h-1.962c-.31 0-.62.31-.62.622 0 .31.31.62.62.62h1.859v1.865c0 .31.31.621.619.621.31 0 .62-.31.62-.621V4.728h1.859c.31 0 .619-.31.619-.621s-.206-.622-.516-.622Z" fill="#E2EBFF"/><path d="M3.408 35.897c.913 0 1.653-.742 1.653-1.657s-.74-1.657-1.653-1.657c-.912 0-1.652.742-1.652 1.657s.74 1.657 1.652 1.657Z" fill="#FFB5D7"/><path d="M118.348 19.432c.912 0 1.652-.742 1.652-1.657s-.74-1.657-1.652-1.657c-.913 0-1.653.742-1.653 1.657s.74 1.657 1.653 1.657Z" fill="#E2EBFF"/><defs><linearGradient id="No_Active_Sessions__a" x1="61.243" y1="105.281" x2="61.243" y2="89.162" gradientUnits="userSpaceOnUse"><stop stop-color="#E2EBFF"/><stop offset=".991" stop-color="#C0D6FF"/></linearGradient><linearGradient id="No_Active_Sessions__b" x1="80.589" y1="77.772" x2="107.839" y2="77.772" gradientUnits="userSpaceOnUse"><stop stop-color="#FF66A9"/><stop offset="1" stop-color="#F53689"/></linearGradient></defs></svg>