<svg class="h-6 w-6" viewBox="0 0 20 21" fill="none" xmlns="http://www.w3.org/2000/svg" >
<path d="M7.66461 10.6483H8.33501V8.79546H10.0212V8.13668H8.33501V6.28387H7.66461V8.13668H5.99878V8.79546H7.66461V10.6483Z" fill="#E8762D"/>
<path d="M4.55653 13.3246H5.12535V11.6777H6.62866V11.163H5.12535V9.49548H4.55653V11.163H3.05322V11.6777H4.55653V13.3246Z" fill="#C72037"/>
<path d="M10.8744 7.37502H11.4432V5.72808H12.9668V5.23399H11.4432V3.56647H10.8744V5.23399H9.37109V5.72808H10.8744V7.37502Z" fill="#5B879B"/>
<path d="M7.76648 14.6216H8.25404V13.4481H9.29011V13.0158H8.25404V11.8423H7.76648V13.0158H6.75073V13.4481H7.76648V14.6216Z" fill="#5C6692"/>
<path d="M4.57685 7.37502H5.10504V5.70749H6.62866V5.23399H5.10504V3.56647H4.57685V5.23399H3.05322V5.70749H4.57685V7.37502Z" fill="#EB9129"/>
<path d="M12.6014 9.84536H13.089V8.6925H14.1251V8.23959H13.089V7.08673H12.6014V8.23959H11.5857V8.6925H12.6014V9.84536Z" fill="#5C6692"/>
<path fill-rule="evenodd" clip-rule="evenodd" d="M10.8744 13.3246H11.4432V11.6777H12.9668V11.163H11.4432V9.49548H10.8744V11.163H9.37109V11.6777H10.8744V13.3246Z" fill="#1F457E"/>
<path d="M9.20872 3.85725V3.50727H8.19297V2.375H7.8273V3.50727H6.81155V3.85725H7.8273V4.98952H8.19297V3.85725H9.20872ZM2.89075 9.76564H3.25642V8.63337H4.27217V8.2834H3.25642V7.17171H2.89075V8.2834H1.875V8.65396L2.89075 8.63337V9.76564Z" fill="#7199A6"/>
<rect x="8" y="8.5" width="12" height="12" rx="6" fill="white"/>
<rect x="10" y="11" width="8" height="6.83333" rx="1.5" stroke="#6A7692"/>
<line x1="17.5" y1="13.1667" x2="10.5" y2="13.1667" stroke="#6A7692"/>
<line x1="13.7917" y1="17.3376" x2="13.7917" y2="13.2457" stroke="#6A7692"/>
</svg>