<svg width="16" height="16" viewBox="0 0 16 16" fill="none" xmlns="http://www.w3.org/2000/svg">
<path d="M2 7.5C2 7.22386 1.77614 7 1.5 7C1.22386 7 1 7.22386 1 7.5L2 7.5ZM11.6001 12.5C11.8762 12.5 12.1001 12.2761 12.1001 12C12.1001 11.7239 11.8762 11.5 11.6001 11.5L11.6001 12.5ZM1 7.5L1 11L2 11L2 7.5L1 7.5ZM2.5 12.5L11.6001 12.5L11.6001 11.5L2.5 11.5L2.5 12.5ZM1 11C1 11.8284 1.67157 12.5 2.5 12.5L2.5 11.5C2.22386 11.5 2 11.2761 2 11L1 11Z" fill="#6A7692"/>
<path d="M13.5 5L4.5 5C3.94772 5 3.5 5.44772 3.5 6L3.5 9C3.5 9.55228 3.94771 10 4.5 10L13.5 10C14.0523 10 14.5 9.55228 14.5 9L14.5 6C14.5 5.44771 14.0523 5 13.5 5Z" stroke="#6A7692"/>
</svg>
