<svg class="h-6 w-6" viewBox="0 0 20 20" fill="none" xmlns="http://www.w3.org/2000/svg" >
<path d="M8.47403 0.937501C8.05011 0.937686 7.66081 1.17155 7.46156 1.54574C7.26232 1.91992 7.28558 2.37347 7.52205 2.7253L8.01222 2.23584C7.99601 2.18701 7.98784 2.13588 7.98802 2.08443C7.98802 1.81716 8.20468 1.60049 8.47196 1.60049C8.73923 1.60049 8.95589 1.81716 8.95589 2.08443C8.95589 2.3517 8.73923 2.56837 8.47196 2.56837C8.42074 2.56848 8.36985 2.56031 8.32124 2.54417L7.83178 3.03364C8.23938 3.31009 8.77798 3.29545 9.16997 2.99725C9.56195 2.69906 9.7198 2.1839 9.56214 1.7173C9.40449 1.2507 8.96654 0.936846 8.47403 0.937501Z" fill="#34A853"/>
<path d="M8.01752 4.28009C8.01828 3.89265 7.89281 3.51552 7.6601 3.20575L7.02407 3.84109C7.22298 4.2049 7.1514 4.65711 6.84985 4.9417L7.19552 5.78652C7.70769 5.45666 8.01729 4.88928 8.01752 4.28009Z" fill="#FBBC04"/>
<path d="M6.24028 5.19215H6.22369C5.83356 5.19218 5.48657 4.94422 5.36022 4.57512C5.23388 4.20603 5.35613 3.79744 5.66444 3.55839C5.97275 3.31935 6.39892 3.30273 6.72491 3.51704L7.35472 2.88723C6.7423 2.39074 5.87746 2.35244 5.22355 2.79285C4.56965 3.23326 4.28007 4.04908 4.50996 4.80321C4.73985 5.55733 5.4353 6.07287 6.22369 6.0736C6.34533 6.07366 6.46668 6.06162 6.58595 6.03765L6.24028 5.19215Z" fill="#EA4335"/>
<path d="M8.4981 5.92287C8.10004 5.92247 7.70406 5.98047 7.32283 6.09501L7.82681 7.32629C8.0462 7.27192 8.27139 7.24453 8.49741 7.24471C9.80706 7.24509 10.9341 8.1705 11.1893 9.45504C11.4445 10.7396 10.7568 12.0255 9.54679 12.5265C8.33675 13.0275 6.94133 12.604 6.21383 11.515C5.48633 10.426 5.62936 8.97477 6.55544 8.04874C6.74868 7.8561 6.96929 7.69303 7.21014 7.5648L6.71169 6.33698C4.85367 7.24694 3.97396 9.40603 4.66697 11.3554C5.35997 13.3047 7.40515 14.424 9.42061 13.9569C11.4361 13.4898 12.7804 11.585 12.5453 9.52958C12.3102 7.47411 10.5704 5.92208 8.50156 5.92218L8.4981 5.92287Z" fill="#4285F4"/>
<rect x="7" y="7" width="13" height="13" rx="6.5" fill="white"/>
<rect x="9.2085" y="9.75" width="8.58333" height="7.31944" rx="1.5" stroke="#6A7692"/>
<line x1="17.2915" y1="12.0139" x2="9.70817" y2="12.0139" stroke="#6A7692"/>
<line x1="13.3159" y1="16.5741" x2="13.3159" y2="12.1412" stroke="#6A7692"/>
</svg>