<svg class="h-6 w-6" viewBox="0 0 20 21" fill="none" xmlns="http://www.w3.org/2000/svg" >
<path d="M7.66461 10.6483H8.33501V8.79546H10.0212V8.13668H8.33501V6.28387H7.66461V8.13668H5.99878V8.79546H7.66461V10.6483Z" fill="#E8762D"/>
<path d="M4.55653 13.3246H5.12535V11.6777H6.62866V11.163H5.12535V9.49548H4.55653V11.163H3.05322V11.6777H4.55653V13.3246Z" fill="#C72037"/>
<path d="M10.8744 7.37502H11.4432V5.72808H12.9668V5.23399H11.4432V3.56647H10.8744V5.23399H9.37109V5.72808H10.8744V7.37502Z" fill="#5B879B"/>
<path d="M7.76648 14.6216H8.25404V13.4481H9.29011V13.0158H8.25404V11.8423H7.76648V13.0158H6.75073V13.4481H7.76648V14.6216Z" fill="#5C6692"/>
<path d="M4.57685 7.37502H5.10504V5.70749H6.62866V5.23399H5.10504V3.56647H4.57685V5.23399H3.05322V5.70749H4.57685V7.37502Z" fill="#EB9129"/>
<path d="M12.6014 9.84536H13.089V8.6925H14.1251V8.23959H13.089V7.08673H12.6014V8.23959H11.5857V8.6925H12.6014V9.84536Z" fill="#5C6692"/>
<path fill-rule="evenodd" clip-rule="evenodd" d="M10.8744 13.3246H11.4432V11.6777H12.9668V11.163H11.4432V9.49548H10.8744V11.163H9.37109V11.6777H10.8744V13.3246Z" fill="#1F457E"/>
<path d="M9.20872 3.85725V3.50727H8.19297V2.375H7.8273V3.50727H6.81155V3.85725H7.8273V4.98952H8.19297V3.85725H9.20872ZM2.89075 9.76564H3.25642V8.63337H4.27217V8.2834H3.25642V7.17171H2.89075V8.2834H1.875V8.65396L2.89075 8.63337V9.76564Z" fill="#7199A6"/>
<rect x="8" y="8.5" width="12" height="12" rx="6" fill="white"/>
<path d="M12 18C11.6022 18 11.2206 17.842 10.9393 17.5607C10.658 17.2794 10.5 16.8978 10.5 16.5V12.5C10.5 12.1022 10.658 11.7206 10.9393 11.4393C11.2206 11.158 11.6022 11 12 11C12.1326 11 12.2598 10.9473 12.3536 10.8536C12.4473 10.7598 12.5 10.6326 12.5 10.5C12.5 10.3674 12.4473 10.2402 12.3536 10.1464C12.2598 10.0527 12.1326 10 12 10C11.337 10 10.7011 10.2634 10.2322 10.7322C9.76339 11.2011 9.5 11.837 9.5 12.5V16.5C9.5 17.163 9.76339 17.7989 10.2322 18.2678C10.7011 18.7366 11.337 19 12 19C12.1326 19 12.2598 18.9473 12.3536 18.8536C12.4473 18.7598 12.5 18.6326 12.5 18.5C12.5 18.3674 12.4473 18.2402 12.3536 18.1464C12.2598 18.0527 12.1326 18 12 18ZM15.855 16.355C15.9019 16.3085 15.9391 16.2532 15.9644 16.1923C15.9898 16.1314 16.0029 16.066 16.0029 16C16.0029 15.934 15.9898 15.8686 15.9644 15.8077C15.9391 15.7468 15.9019 15.6915 15.855 15.645L14.705 14.5L15.855 13.355C15.9492 13.2608 16.002 13.1332 16.002 13C16.002 12.8668 15.9492 12.7392 15.855 12.645C15.7608 12.5508 15.6332 12.498 15.5 12.498C15.3668 12.498 15.2392 12.5508 15.145 12.645L14 13.795L12.855 12.645C12.7608 12.5508 12.6332 12.498 12.5 12.498C12.3668 12.498 12.2392 12.5508 12.145 12.645C12.0508 12.7392 11.998 12.8668 11.998 13C11.998 13.1332 12.0508 13.2608 12.145 13.355L13.295 14.5L12.145 15.645C12.0981 15.6915 12.0609 15.7468 12.0356 15.8077C12.0102 15.8686 11.9971 15.934 11.9971 16C11.9971 16.066 12.0102 16.1314 12.0356 16.1923C12.0609 16.2532 12.0981 16.3085 12.145 16.355C12.1915 16.4019 12.2468 16.4391 12.3077 16.4644C12.3686 16.4898 12.434 16.5029 12.5 16.5029C12.566 16.5029 12.6314 16.4898 12.6923 16.4644C12.7532 16.4391 12.8085 16.4019 12.855 16.355L14 15.205L15.145 16.355C15.1915 16.4019 15.2468 16.4391 15.3077 16.4644C15.3686 16.4898 15.434 16.5029 15.5 16.5029C15.566 16.5029 15.6314 16.4898 15.6923 16.4644C15.7532 16.4391 15.8085 16.4019 15.855 16.355ZM16 10C15.8674 10 15.7402 10.0527 15.6464 10.1464C15.5527 10.2402 15.5 10.3674 15.5 10.5C15.5 10.6326 15.5527 10.7598 15.6464 10.8536C15.7402 10.9473 15.8674 11 16 11C16.3978 11 16.7794 11.158 17.0607 11.4393C17.342 11.7206 17.5 12.1022 17.5 12.5V16.5C17.5 16.8978 17.342 17.2794 17.0607 17.5607C16.7794 17.842 16.3978 18 16 18C15.8674 18 15.7402 18.0527 15.6464 18.1464C15.5527 18.2402 15.5 18.3674 15.5 18.5C15.5 18.6326 15.5527 18.7598 15.6464 18.8536C15.7402 18.9473 15.8674 19 16 19C16.663 19 17.2989 18.7366 17.7678 18.2678C18.2366 17.7989 18.5 17.163 18.5 16.5V12.5C18.5 11.837 18.2366 11.2011 17.7678 10.7322C17.2989 10.2634 16.663 10 16 10Z" fill="#6A7692"/>
</svg>