<svg width="16" height="16" viewBox="0 0 16 16" fill="none" xmlns="http://www.w3.org/2000/svg">
<line x1="14" y1="4.5" x2="2" y2="4.5" stroke="#6A7692"/>
<line x1="8" y1="14" x2="8" y2="5" stroke="#6A7692"/>
<path fill-rule="evenodd" clip-rule="evenodd" d="M13 1H3C1.89543 1 1 1.89543 1 3V6H2V3C2 2.44772 2.44772 2 3 2H13C13.5523 2 14 2.44772 14 3V13C14 13.5523 13.5523 14 13 14H3C2.44772 14 2 13.5523 2 13H1C1 14.1046 1.89543 15 3 15H13C14.1046 15 15 14.1046 15 13V3C15 1.89543 14.1046 1 13 1Z" fill="#6A7692"/>
<rect y="8" width="6" height="1" fill="#6A7692"/>
<rect y="10" width="6" height="1" fill="#6A7692"/>
</svg>
