<svg width="16" height="16" viewBox="0 0 16 16" fill="none" xmlns="http://www.w3.org/2000/svg">
<path d="M2.5 6.66667V4C2.5 3.86739 2.55268 3.74021 2.64645 3.64645C2.74021 3.55268 3 3.5 3 3.5C3 3.5 5.43586 2.89103 7.38103 1.6731C7.75772 1.43724 8.24228 1.43724 8.61897 1.6731C10.5641 2.89103 13 3.5 13 3.5C13 3.5 13.2598 3.55268 13.3536 3.64645C13.4473 3.74021 13.5 3.86739 13.5 4V6.66667C13.5 11.9176 9.04338 14.175 8.15351 14.47C8.05403 14.5042 7.94597 14.5042 7.84649 14.47C6.95662 14.175 2.5 11.9176 2.5 6.66667Z" fill="white" stroke-linecap="round" stroke-linejoin="round"/>
<path d="M7.76224 4.73176C7.83707 4.50143 8.16293 4.50143 8.23776 4.73176L8.84193 6.59119C8.8754 6.69419 8.97139 6.76393 9.07969 6.76393H11.0348C11.277 6.76393 11.3777 7.07384 11.1818 7.21619L9.60003 8.36537C9.51241 8.42903 9.47574 8.54188 9.50921 8.64488L10.1134 10.5043C10.1882 10.7346 9.92459 10.9262 9.72867 10.7838L8.14695 9.63463C8.05932 9.57097 7.94068 9.57097 7.85305 9.63463L6.27133 10.7838C6.0754 10.9262 5.81179 10.7346 5.88662 10.5043L6.49079 8.64488C6.52426 8.54188 6.48759 8.42903 6.39997 8.36537L4.81825 7.21619C4.62232 7.07384 4.72301 6.76393 4.96519 6.76393H6.92031C7.02861 6.76393 7.1246 6.69419 7.15807 6.59119L7.76224 4.73176Z" fill="#2251CC"/>
</svg>
