<svg width="24" height="24" viewBox="0 0 24 24" fill="none" xmlns="http://www.w3.org/2000/svg">
<path fill-rule="evenodd" clip-rule="evenodd" d="M5.5 3C4.67157 3 4 3.67157 4 4.5V19.0714C4 19.8999 4.67157 20.5714 5.5 20.5714H10.25C10.5261 20.5714 10.75 20.7953 10.75 21.0714C10.75 21.3476 10.5261 21.5714 10.25 21.5714H5.5C4.11929 21.5714 3 20.4521 3 19.0714V4.5C3 3.11929 4.11929 2 5.5 2H11.0532C13.3817 2 15.5781 3.08153 16.9979 4.92717L18.4447 6.80802C19.0175 7.55271 19.4414 8.39309 19.7007 9.28331C19.7257 9.33519 19.742 9.39203 19.7477 9.45197C19.9141 10.0773 20 10.7254 20 11.3809V11.5C20 11.7761 19.7761 12 19.5 12C19.2239 12 19 11.7761 19 11.5V11.3809C19 10.9138 18.9497 10.451 18.8516 10H17C15.6831 10 14.4136 9.50774 13.4732 8.6121C12.5472 7.73019 12 6.65244 12 5.35714V3.06927C11.6887 3.02345 11.3724 3 11.0532 3H5.5ZM17.6521 7.41773C18.0259 7.90379 18.3266 8.43688 18.5483 9.00003H17C15.9299 9.00003 14.9103 8.59978 14.1628 7.88797C13.401 7.16243 13 6.33513 13 5.35714V3.29835C14.2581 3.69338 15.3823 4.467 16.2052 5.53688L17.6521 7.41773ZM12.2885 20.5878C10.7114 18.6646 10.7061 15.8214 10.7687 14.7478C10.7845 14.4764 10.9546 14.2432 11.2038 14.1216L15.3773 12.0858C15.6119 11.9714 15.8881 11.9714 16.1227 12.0858L20.2962 14.1216C20.5454 14.2432 20.7155 14.4764 20.7313 14.7478C20.7939 15.8214 20.7886 18.6646 19.2115 20.5878C17.2335 23 15.75 23 15.75 23C15.75 23 14.2665 23 12.2885 20.5878ZM18.6626 15.7005C18.9168 15.9282 18.9337 16.3139 18.7002 16.562L15.7941 19.6495C15.6789 19.772 15.5174 19.8432 15.3471 19.8467C15.1767 19.8503 15.0123 19.7858 14.8918 19.6683L13.2312 18.0482C12.9871 17.8101 12.9871 17.424 13.2312 17.1859C13.4752 16.9478 13.871 16.9478 14.115 17.1859L15.3145 18.3561L17.7795 15.7372C18.013 15.4891 18.4083 15.4727 18.6626 15.7005Z" fill="#64748B"/>
</svg>
