<svg width="12" height="15" viewBox="0 0 12 15" fill="none" xmlns="http://www.w3.org/2000/svg">
<path d="M0.5 6.66667V4C0.5 3.86739 0.552679 3.74021 0.646447 3.64645C0.740215 3.55268 1 3.5 1 3.5C1 3.5 3.43586 2.89103 5.38103 1.6731C5.75772 1.43724 6.24228 1.43724 6.61897 1.6731C8.56414 2.89103 11 3.5 11 3.5C11 3.5 11.2598 3.55268 11.3536 3.64645C11.4473 3.74021 11.5 3.86739 11.5 4V6.66667C11.5 11.9176 7.04338 14.175 6.15351 14.47C6.05403 14.5042 5.94597 14.5042 5.84649 14.47C4.95663 14.175 0.5 11.9176 0.5 6.66667Z" fill="white" stroke="#FFB119" stroke-linecap="round" stroke-linejoin="round"/>
</svg>
