<svg width="16" height="16" viewBox="0 0 16 16" fill="none" xmlns="http://www.w3.org/2000/svg">
<path d="M2.5 6.66667V4C2.5 3.86739 2.55268 3.74021 2.64645 3.64645C2.74021 3.55268 3 3.5 3 3.5C3 3.5 5.43586 2.89103 7.38103 1.6731C7.75772 1.43724 8.24228 1.43724 8.61897 1.6731C10.5641 2.89103 13 3.5 13 3.5C13 3.5 13.2598 3.55268 13.3536 3.64645C13.4473 3.74021 13.5 3.86739 13.5 4V6.66667C13.5 11.9176 9.04338 14.175 8.15351 14.47C8.05403 14.5042 7.94597 14.5042 7.84649 14.47C6.95662 14.175 2.5 11.9176 2.5 6.66667Z" fill="white" stroke-linecap="round" stroke-linejoin="round"/>
</svg>
