<svg viewBox="0 0 32 32" fill="none" xmlns="http://www.w3.org/2000/svg">
<rect width="32" height="32" rx="4" fill="#F4F6FD"/>
<path d="M22.3199 10.2402V22.2402H18.7199V21.1122C17.9279 22.0242 16.7527 22.5746 15.1423 22.5746C11.9975 22.5746 9.40555 19.817 9.40555 16.2402C9.40555 12.6634 11.9975 9.90576 15.1423 9.90576C16.7503 9.90576 17.9287 10.4562 18.7199 11.3682V10.2402H22.3199ZM18.7191 16.2242C18.7191 14.4234 17.5191 13.3066 15.8607 13.3066C14.2023 13.3066 13.0023 14.4234 13.0023 16.2242C13.0023 18.025 14.2055 19.1538 15.8607 19.1538C17.5159 19.1538 18.7191 18.0242 18.7191 16.2242Z" fill="#2026D2"/>
<path d="M15.8607 17.6999C16.6759 17.6999 17.3367 17.0391 17.3367 16.2239C17.3367 15.4087 16.6759 14.7479 15.8607 14.7479C15.0456 14.7479 14.3847 15.4087 14.3847 16.2239C14.3847 17.0391 15.0456 17.6999 15.8607 17.6999Z" fill="#62E1FC"/>
</svg>
