<svg viewBox="0 0 32 32" fill="none" xmlns="http://www.w3.org/2000/svg">
<rect width="32" height="32" rx="4" fill="#F4F6FD"/>
<path d="M22.5 15.5H20.58C20.2948 15.5 20.0216 15.6035 19.82 15.8C19.6184 15.9965 19.5 16.2622 19.5 16.54V19.4524C19.5 19.7302 19.6184 19.9967 19.82 20.1932C20.0216 20.3896 20.2948 20.5 20.58 20.5H21.4248C21.71 20.5 21.9835 20.3896 22.1851 20.1932C22.3867 19.9967 22.5 19.7302 22.5 19.4524V15.5ZM22.5 15.5C22.5 14.6705 22.3315 14.135 22.0042 13.3693C21.677 12.6036 21.1974 11.9085 20.5932 11.3242C19.989 10.7399 19.272 10.2779 18.4837 9.96489C17.6954 9.65183 16.8513 9.49389 16 9.50018C15.1487 9.49389 14.3046 9.65183 13.5163 9.96489C12.728 10.2779 12.011 10.7399 11.4068 11.3242C10.8026 11.9085 10.323 12.6036 9.99575 13.3693C9.66849 14.135 9.5 14.6705 9.5 15.5M9.5 15.5V19.4524C9.5 19.7302 9.61328 19.9967 9.81491 20.1932C10.0165 20.3896 10.29 20.5 10.5752 20.5H11.42C11.7052 20.5 11.9784 20.3896 12.18 20.1932C12.3816 19.9967 12.5 19.7302 12.5 19.4524V16.54C12.5 16.2622 12.3816 15.9965 12.18 15.8C11.9784 15.6035 11.7052 15.5 11.42 15.5H10.5752H9.5Z" stroke="#64748B" stroke-linecap="round" stroke-linejoin="round"/>
<path d="M22.5 19V20.5C22.5 21.0304 22.3803 21.5391 22.0052 21.9142C21.6301 22.2893 21.1214 22.5 20.591 22.5H16.5" stroke="#64748B" stroke-linecap="round" stroke-linejoin="round"/>
</svg>
