<svg viewBox="0 0 32 32" fill="none" xmlns="http://www.w3.org/2000/svg">
<rect width="32" height="32" rx="4" fill="#F4F6FD"/>
<path d="M10.4096 19.3162C9.6017 17.9543 9.31876 16.3442 9.61393 14.7884C9.9091 13.2326 10.7621 11.8381 12.0127 10.8667C13.2633 9.89525 14.8255 9.4138 16.406 9.5127C17.9864 9.6116 19.4764 10.2841 20.5962 11.4038C21.7159 12.5235 22.3884 14.0135 22.4873 15.594C22.5862 17.1745 22.1048 18.7367 21.1334 19.9873C20.1619 21.2379 18.7674 22.0909 17.2116 22.3861C15.6558 22.6812 14.0458 22.3983 12.6838 21.5904L12.6838 21.5903L10.4379 22.232C10.345 22.2586 10.2466 22.2598 10.1531 22.2355C10.0595 22.2113 9.97418 22.1625 9.90584 22.0942C9.83751 22.0258 9.78869 21.9405 9.76445 21.8469C9.74021 21.7534 9.74143 21.655 9.76798 21.5621L10.4097 19.3162L10.4096 19.3162Z" stroke="#64748B" stroke-linecap="round" stroke-linejoin="round"/>
<path d="M16 16.5C16.2761 16.5 16.5 16.2761 16.5 16C16.5 15.7239 16.2761 15.5 16 15.5C15.7239 15.5 15.5 15.7239 15.5 16C15.5 16.2761 15.7239 16.5 16 16.5Z" fill="#64748B"/>
<path d="M13 16.5C13.2761 16.5 13.5 16.2761 13.5 16C13.5 15.7239 13.2761 15.5 13 15.5C12.7239 15.5 12.5 15.7239 12.5 16C12.5 16.2761 12.7239 16.5 13 16.5Z" fill="#64748B"/>
<path d="M19 16.5C19.2761 16.5 19.5 16.2761 19.5 16C19.5 15.7239 19.2761 15.5 19 15.5C18.7239 15.5 18.5 15.7239 18.5 16C18.5 16.2761 18.7239 16.5 19 16.5Z" fill="#64748B"/>
</svg>
