<svg width="32" height="32" viewBox="0 0 32 32" fill="none" xmlns="http://www.w3.org/2000/svg">
<rect width="32" height="32" rx="4" fill="#F4F6FD"/>
<path d="M13.8784 17.1206L18.1211 12.8779" stroke="#5277D7" stroke-linecap="round" stroke-linejoin="round"/>
<path d="M17.0604 18.1821L15.2926 19.9499C14.7299 20.5123 13.9669 20.8282 13.1714 20.8282C12.3758 20.8281 11.6129 20.512 11.0503 19.9495C10.4878 19.3869 10.1717 18.624 10.1716 17.8284C10.1716 17.0329 10.4875 16.2699 11.0499 15.7072L12.8177 13.9395" stroke="#5277D7" stroke-linecap="round" stroke-linejoin="round"/>
<path d="M19.1818 16.0606L20.9496 14.2928C21.5121 13.7302 21.828 12.9672 21.8279 12.1716C21.8279 11.3761 21.5118 10.6131 20.9493 10.0506C20.3867 9.48801 19.6237 9.17194 18.8282 9.17188C18.0326 9.17181 17.2696 9.48774 16.707 10.0502L14.9392 11.818" stroke="#5277D7" stroke-linecap="round" stroke-linejoin="round"/>
</svg>
