<svg viewBox="0 0 16 16" fill="none" xmlns="http://www.w3.org/2000/svg">
<path fill-rule="evenodd" clip-rule="evenodd" d="M10.1864 1.5C9.89126 1.5 9.65198 1.73698 9.65198 2.0293C9.65198 2.32163 9.89126 2.55861 10.1864 2.55861L12.6753 2.55861L9.06381 6.13529C8.85509 6.342 8.85509 6.67713 9.06381 6.88384C9.27252 7.09054 9.61092 7.09054 9.81963 6.88384L13.4311 3.30715V5.77203C13.4311 6.06436 13.6704 6.30134 13.9656 6.30134C14.2607 6.30134 14.5 6.06436 14.5 5.77203L14.5 2.0293C14.5 1.73698 14.2607 1.5 13.9656 1.5L10.1864 1.5ZM5.81357 14.5C6.10874 14.5 6.34802 14.263 6.34802 13.9707C6.34802 13.6784 6.10874 13.4414 5.81357 13.4414L3.32472 13.4414L6.73935 10.0597C6.94807 9.85295 6.94807 9.51781 6.73935 9.31111C6.53064 9.1044 6.19224 9.1044 5.98353 9.31111L2.5689 12.6929L2.5689 10.228C2.5689 9.93564 2.32962 9.69867 2.03445 9.69867C1.73928 9.69867 1.5 9.93564 1.5 10.228L1.5 13.9707C1.5 14.263 1.73928 14.5 2.03445 14.5H5.81357Z" fill="#5277D7"/>
</svg>
