<svg viewBox="0 0 283 192" fill="none" xmlns="http://www.w3.org/2000/svg">
<path d="M146.262 186.421C197.478 186.421 239 144.899 239 93.5C239 42.1007 197.478 0.578857 146.262 0.578857C95.0453 0.578857 53.5234 42.1007 53.5234 93.5C53.5234 144.899 95.0453 186.421 146.262 186.421Z" fill="#F4F6FD"/>
<path d="M47.1216 60.575C49.9502 60.575 52.2433 58.282 52.2433 55.4534C52.2433 52.6248 49.9502 50.3317 47.1216 50.3317C44.293 50.3317 42 52.6248 42 55.4534C42 58.282 44.293 60.575 47.1216 60.575Z" fill="#F4F6FD"/>
<g filter="url(#filter0_d_7904_224805)">
<rect x="5" y="31.5529" width="188" height="72" rx="8" fill="white"/>
<g clip-path="url(#clip0_7904_224805)">
<rect width="12" height="12" transform="translate(17 43.5529)" fill="white" fill-opacity="0.01"/>
<path fill-rule="evenodd" clip-rule="evenodd" d="M23.75 47.6126L25.4705 49.3331C25.5397 49.4047 25.6224 49.4619 25.7139 49.5012C25.8054 49.5405 25.9039 49.5612 26.0034 49.562C26.103 49.5629 26.2018 49.5439 26.294 49.5062C26.3861 49.4685 26.4699 49.4128 26.5403 49.3424C26.6107 49.272 26.6664 49.1882 26.7041 49.0961C26.7418 49.0039 26.7608 48.9051 26.7599 48.8056C26.7591 48.706 26.7384 48.6076 26.6991 48.5161C26.6598 48.4246 26.6026 48.3418 26.531 48.2726L23.531 45.2726C23.3904 45.132 23.1996 45.053 23.0008 45.053C22.8019 45.053 22.6111 45.132 22.4705 45.2726L19.4705 48.2726C19.3339 48.4141 19.2583 48.6035 19.26 48.8002C19.2617 48.9968 19.3406 49.1849 19.4796 49.324C19.6187 49.463 19.8068 49.5419 20.0034 49.5436C20.2001 49.5453 20.3895 49.4697 20.531 49.3331L22.25 47.6141V53.3029C22.25 53.5018 22.329 53.6925 22.4697 53.8332C22.6103 53.9738 22.8011 54.0529 23 54.0529C23.1989 54.0529 23.3897 53.9738 23.5303 53.8332C23.671 53.6925 23.75 53.5018 23.75 53.3029V47.6126ZM18.5 43.5529H27.5C27.8978 43.5529 28.2794 43.7109 28.5607 43.9922C28.842 44.2735 29 44.655 29 45.0529V54.0529C29 54.4507 28.842 54.8322 28.5607 55.1135C28.2794 55.3948 27.8978 55.5529 27.5 55.5529H18.5C18.1022 55.5529 17.7206 55.3948 17.4393 55.1135C17.158 54.8322 17 54.4507 17 54.0529V45.0529C17 44.655 17.158 44.2735 17.4393 43.9922C17.7206 43.7109 18.1022 43.5529 18.5 43.5529V43.5529Z" fill="#36B37E"/>
</g>
<rect x="17" y="67.5529" width="150" height="8" rx="2" fill="#EFF1F5"/>
<rect x="17" y="83.5529" width="80" height="8" rx="2" fill="#EFF1F5"/>
<rect x="5.375" y="31.9279" width="187.25" height="71.25" rx="7.625" stroke="#C0D2FA" stroke-width="0.75"/>
</g>
<g filter="url(#filter1_d_7904_224805)">
<rect x="88" y="82.5789" width="188" height="72" rx="8" fill="white"/>
<g clip-path="url(#clip1_7904_224805)">
<rect width="12" height="12" transform="translate(100 94.5789)" fill="white" fill-opacity="0.01"/>
<path fill-rule="evenodd" clip-rule="evenodd" d="M101.5 94.5789H110.5C110.898 94.5789 111.279 94.7369 111.561 95.0182C111.842 95.2995 112 95.681 112 96.0789V105.079C112 105.477 111.842 105.858 111.561 106.14C111.279 106.421 110.898 106.579 110.5 106.579H101.5C101.102 106.579 100.721 106.421 100.439 106.14C100.158 105.858 100 105.477 100 105.079V96.0789C100 95.681 100.158 95.2995 100.439 95.0182C100.721 94.7369 101.102 94.5789 101.5 94.5789V94.5789ZM106 103.579C106.796 103.579 107.559 103.263 108.121 102.7C108.684 102.138 109 101.375 109 100.579C109 99.7832 108.684 99.0201 108.121 98.4575C107.559 97.8949 106.796 97.5789 106 97.5789C105.204 97.5789 104.441 97.8949 103.879 98.4575C103.316 99.0201 103 99.7832 103 100.579C103 101.375 103.316 102.138 103.879 102.7C104.441 103.263 105.204 103.579 106 103.579V103.579Z" fill="#FF5630"/>
</g>
<rect x="100" y="118.579" width="150" height="8" rx="2" fill="#EFF1F5"/>
<rect x="100" y="134.579" width="80" height="8" rx="2" fill="#EFF1F5"/>
<rect x="88.375" y="82.9539" width="187.25" height="71.25" rx="7.625" stroke="#C0D2FA" stroke-width="0.75"/>
</g>
<path d="M235.465 171.063L223.561 159.234C210.995 168.435 193.767 159.464 193.767 144.447C193.767 134.228 202.133 125.947 212.384 125.947C227.199 125.947 236.292 142.508 227.662 155.028L239.632 166.923C240.789 168.073 240.789 169.913 239.632 171.063C238.475 172.213 236.623 172.213 235.465 171.063ZM212.384 131.829C205.374 131.829 199.653 137.514 199.653 144.48C199.653 155.685 213.145 161.074 220.883 153.878C229.646 145.728 223.793 131.829 212.384 131.829Z" fill="url(#paint0_linear_7904_224805)"/>
<g filter="url(#filter2_d_7904_224805)">
<circle cx="212.31" cy="144.489" r="13.9067" fill="url(#paint1_linear_7904_224805)"/>
</g>
<path d="M205.927 147.223C206.85 147.223 207.631 146.442 207.631 145.518C207.631 144.595 206.85 143.814 205.927 143.814C205.004 143.814 204.223 144.595 204.223 145.518C204.223 146.442 205.004 147.223 205.927 147.223Z" fill="#6F7590"/>
<path d="M218.991 147.223C219.914 147.223 220.695 146.442 220.695 145.518C220.695 144.595 219.914 143.814 218.991 143.814C218.068 143.814 217.287 144.595 217.287 145.518C217.287 146.513 218.068 147.223 218.991 147.223Z" fill="#6F7590"/>
<path d="M205.86 139.881L202.111 141.905L202.617 142.842L206.366 140.818L205.86 139.881Z" fill="#6F7590"/>
<path d="M218.759 139.854L218.253 140.791L222.002 142.814L222.508 141.877L218.759 139.854Z" fill="#6F7590"/>
<path d="M212.459 151.199C213.557 151.199 214.447 150.531 214.447 149.708C214.447 148.884 213.557 148.217 212.459 148.217C211.361 148.217 210.471 148.884 210.471 149.708C210.471 150.531 211.361 151.199 212.459 151.199Z" fill="#6F7590"/>
<defs>
<filter id="filter0_d_7904_224805" x="0" y="27.5529" width="200" height="84" filterUnits="userSpaceOnUse" color-interpolation-filters="sRGB">
<feFlood flood-opacity="0" result="BackgroundImageFix"/>
<feColorMatrix in="SourceAlpha" type="matrix" values="0 0 0 0 0 0 0 0 0 0 0 0 0 0 0 0 0 0 127 0" result="hardAlpha"/>
<feMorphology radius="3" operator="dilate" in="SourceAlpha" result="effect1_dropShadow_7904_224805"/>
<feOffset dx="1" dy="2"/>
<feGaussianBlur stdDeviation="1.5"/>
<feComposite in2="hardAlpha" operator="out"/>
<feColorMatrix type="matrix" values="0 0 0 0 0 0 0 0 0 0 0 0 0 0 0 0 0 0 0.05 0"/>
<feBlend mode="normal" in2="BackgroundImageFix" result="effect1_dropShadow_7904_224805"/>
<feBlend mode="normal" in="SourceGraphic" in2="effect1_dropShadow_7904_224805" result="shape"/>
</filter>
<filter id="filter1_d_7904_224805" x="83" y="78.5789" width="200" height="84" filterUnits="userSpaceOnUse" color-interpolation-filters="sRGB">
<feFlood flood-opacity="0" result="BackgroundImageFix"/>
<feColorMatrix in="SourceAlpha" type="matrix" values="0 0 0 0 0 0 0 0 0 0 0 0 0 0 0 0 0 0 127 0" result="hardAlpha"/>
<feMorphology radius="3" operator="dilate" in="SourceAlpha" result="effect1_dropShadow_7904_224805"/>
<feOffset dx="1" dy="2"/>
<feGaussianBlur stdDeviation="1.5"/>
<feComposite in2="hardAlpha" operator="out"/>
<feColorMatrix type="matrix" values="0 0 0 0 0 0 0 0 0 0 0 0 0 0 0 0 0 0 0.05 0"/>
<feBlend mode="normal" in2="BackgroundImageFix" result="effect1_dropShadow_7904_224805"/>
<feBlend mode="normal" in="SourceGraphic" in2="effect1_dropShadow_7904_224805" result="shape"/>
</filter>
<filter id="filter2_d_7904_224805" x="176.403" y="119.583" width="71.8135" height="71.8135" filterUnits="userSpaceOnUse" color-interpolation-filters="sRGB">
<feFlood flood-opacity="0" result="BackgroundImageFix"/>
<feColorMatrix in="SourceAlpha" type="matrix" values="0 0 0 0 0 0 0 0 0 0 0 0 0 0 0 0 0 0 127 0" result="hardAlpha"/>
<feOffset dy="11"/>
<feGaussianBlur stdDeviation="11"/>
<feColorMatrix type="matrix" values="0 0 0 0 0.397708 0 0 0 0 0.47749 0 0 0 0 0.575 0 0 0 0.27 0"/>
<feBlend mode="normal" in2="BackgroundImageFix" result="effect1_dropShadow_7904_224805"/>
<feBlend mode="normal" in="SourceGraphic" in2="effect1_dropShadow_7904_224805" result="shape"/>
</filter>
<linearGradient id="paint0_linear_7904_224805" x1="193.781" y1="148.958" x2="240.523" y2="148.958" gradientUnits="userSpaceOnUse">
<stop stop-color="#83A6FF"/>
<stop offset="1" stop-color="#5277D7"/>
</linearGradient>
<linearGradient id="paint1_linear_7904_224805" x1="212.301" y1="129.939" x2="212.301" y2="158.696" gradientUnits="userSpaceOnUse">
<stop stop-color="#FDFEFF"/>
<stop offset="0.9964" stop-color="#ECF0F5"/>
</linearGradient>
<clipPath id="clip0_7904_224805">
<rect width="12" height="12" fill="white" transform="translate(17 43.5529)"/>
</clipPath>
<clipPath id="clip1_7904_224805">
<rect width="12" height="12" fill="white" transform="translate(100 94.5789)"/>
</clipPath>
</defs>
</svg>
