<svg viewBox="0 0 24 24" fill="none" xmlns="http://www.w3.org/2000/svg">
<path d="M20.25 7.5H3.75C3.33579 7.5 3 7.83579 3 8.25V11.25C3 11.6642 3.33579 12 3.75 12H20.25C20.6642 12 21 11.6642 21 11.25V8.25C21 7.83579 20.6642 7.5 20.25 7.5Z" stroke="#6A7692" stroke-linecap="round" stroke-linejoin="round"/>
<path d="M19.5 12V18.75C19.5 18.9489 19.421 19.1397 19.2803 19.2803C19.1397 19.421 18.9489 19.5 18.75 19.5H5.25C5.05109 19.5 4.86032 19.421 4.71967 19.2803C4.57902 19.1397 4.5 18.9489 4.5 18.75V12" stroke="#6A7692" stroke-linecap="round" stroke-linejoin="round"/>
<path d="M12 7.5V19.5" stroke="#6A7692" stroke-linecap="round" stroke-linejoin="round"/>
<path d="M16.2469 6.44067C15.1781 7.50005 12 7.50005 12 7.50005C12 7.50005 12 4.32192 13.0594 3.25317C13.4821 2.83048 14.0554 2.59302 14.6531 2.59302C15.2509 2.59302 15.8242 2.83048 16.2469 3.25317C16.6696 3.67586 16.907 4.24915 16.907 4.84692C16.907 5.44469 16.6696 6.01798 16.2469 6.44067V6.44067Z" stroke="#6A7692" stroke-linecap="round" stroke-linejoin="round"/>
<path d="M7.75314 6.44067C8.82189 7.50005 12 7.50005 12 7.50005C12 7.50005 12 4.32192 10.9406 3.25317C10.518 2.83048 9.94466 2.59302 9.34689 2.59302C8.74912 2.59302 8.17583 2.83048 7.75314 3.25317C7.33045 3.67586 7.09299 4.24915 7.09299 4.84692C7.09299 5.44469 7.33045 6.01798 7.75314 6.44067V6.44067Z" stroke="#6A7692" stroke-linecap="round" stroke-linejoin="round"/>
</svg>
