<svg viewBox="0 0 16 16" fill="none" xmlns="http://www.w3.org/2000/svg">
<path d="M15.8084 7.55233L8.69001 0.667432L8 6.10352e-05L2.64154 5.18274L0.191577 7.55233C0.0689041 7.67113 0 7.83216 0 8.00006C0 8.16796 0.0689041 8.32899 0.191577 8.44779L5.08713 13.1827L8 16.0001L13.3585 10.8174L13.4414 10.7371L15.8084 8.44779C15.9311 8.32899 16 8.16796 16 8.00006C16 7.83216 15.9311 7.67113 15.8084 7.55233ZM8 10.3654L5.55441 8.00006L8 5.6347L10.4456 8.00006L8 10.3654Z" fill="#2684FF"/>
<path d="M7.99927 5.63455C7.23009 4.89052 6.79654 3.88237 6.79326 2.83022C6.78999 1.77807 7.21727 0.767411 7.9818 0.0189209L2.62988 5.19316L5.54276 8.01047L7.99927 5.63455Z" fill="url(#paint0_linear_7813_223368)"/>
<path d="M10.4521 7.99353L8 10.3652C8.38267 10.7351 8.68623 11.1743 8.89335 11.6577C9.10046 12.1411 9.20706 12.6593 9.20706 13.1825C9.20706 13.7058 9.10046 14.224 8.89335 14.7074C8.68623 15.1908 8.38267 15.63 8 15.9999L13.365 10.8108L10.4521 7.99353Z" fill="url(#paint1_linear_7813_223368)"/>
<defs>
<linearGradient id="paint0_linear_7813_223368" x1="7.56255" y1="3.24173" x2="4.26133" y2="6.65492" gradientUnits="userSpaceOnUse">
<stop offset="0.18" stop-color="#0052CC"/>
<stop offset="1" stop-color="#2684FF"/>
</linearGradient>
<linearGradient id="paint1_linear_7813_223368" x1="216.055" y1="490.615" x2="331.647" y2="413.158" gradientUnits="userSpaceOnUse">
<stop offset="0.18" stop-color="#0052CC"/>
<stop offset="1" stop-color="#2684FF"/>
</linearGradient>
</defs>
</svg>
