<svg width="16" height="16" viewBox="0 0 16 16" fill="none" xmlns="http://www.w3.org/2000/svg">
<g clip-path="url(#clip0_2278_2560)">
<path d="M12.9849 6.3467C13.1008 6.46265 13.2376 6.55481 13.3886 6.61903C13.7038 6.75103 14.0587 6.75103 14.3745 6.61903C14.6789 6.4894 14.9215 6.2474 15.0505 5.94296C15.1825 5.62782 15.1825 5.27284 15.0505 4.9571C14.9209 4.65267 14.6789 4.41007 14.3745 4.28104C14.0593 4.14903 13.7044 4.14903 13.3886 4.28104C13.0842 4.41066 12.8416 4.65267 12.7126 4.9571C12.5805 5.27224 12.5805 5.62722 12.7126 5.94296C12.7768 6.0934 12.8695 6.23075 12.9849 6.3467ZM12.6138 7.52283V11.3408H13.2501C13.4689 11.3396 13.6865 11.3194 13.9012 11.279C14.117 11.2409 14.3251 11.1684 14.5178 11.0637C14.6997 10.965 14.8567 10.8259 14.9774 10.6582C15.1041 10.4721 15.1677 10.2503 15.1588 10.0249V7.52283H12.6138ZM10.5518 5.92215C10.7206 5.92334 10.8883 5.88945 11.0441 5.82285C11.3485 5.69323 11.5905 5.45122 11.7196 5.14678C11.8516 4.83164 11.8516 4.47666 11.719 4.16093C11.5893 3.85649 11.3473 3.61389 11.0429 3.48486C10.8871 3.41826 10.7194 3.38437 10.55 3.38556C10.3817 3.38437 10.2152 3.41826 10.0606 3.48486C9.94525 3.53421 9.90898 3.59843 9.75022 3.67573V5.63198C9.90958 5.70987 9.94525 5.7735 10.0606 5.82285C10.2158 5.89004 10.3829 5.92334 10.5518 5.92215ZM9.75022 12.3504C9.90958 12.3849 9.96666 12.4117 10.0796 12.4271C10.2033 12.445 10.3282 12.4539 10.453 12.4545C10.6457 12.4533 10.8384 12.4331 11.0268 12.3927C11.2189 12.354 11.4032 12.2821 11.5709 12.1804C11.7356 12.0793 11.8742 11.9413 11.9764 11.7778C12.0894 11.587 12.1447 11.367 12.1364 11.1452V6.72725H9.75022V12.3504V12.3504ZM1 13.5682L9.27275 15V1L1 2.43181V13.5682Z" fill="#5558AF"/>
<path d="M7.04541 5.29541L3.22742 5.5279V6.40851L4.65924 6.35084V10.434L5.61359 10.4899V6.31338L7.04541 6.24975V5.29541Z" fill="white"/>
</g>
<defs>
<clipPath id="clip0_2278_2560">
<rect width="14.1599" height="14" fill="white" transform="translate(1 1)"/>
</clipPath>
</defs>
</svg>
