<svg viewBox="0 0 176 159" fill="none" xmlns="http://www.w3.org/2000/svg">
<path d="M82.3589 139.885C113.906 139.885 139.482 114.309 139.482 82.6483C139.482 50.9881 113.794 25.4121 82.3589 25.4121C50.8114 25.4121 25.2354 50.9881 25.2354 82.6483C25.2354 114.309 50.8114 139.885 82.3589 139.885Z" fill="#F1F3F9"/>
<path d="M5.96471 51.4587C7.60207 51.4587 8.92941 50.1314 8.92941 48.494C8.92941 46.8566 7.60207 45.5293 5.96471 45.5293C4.32734 45.5293 3 46.8566 3 48.494C3 50.1314 4.32734 51.4587 5.96471 51.4587Z" fill="#F1F3F9"/>
<path d="M144.148 21.9993L143.413 21.8775C143.046 21.8775 142.801 21.6343 142.678 21.2694C142.556 21.0262 142.556 20.7829 142.433 20.6613C142.311 20.4181 142.311 20.053 142.556 19.8097L142.923 19.2017C143.168 18.8368 143.168 18.3504 142.801 18.1072L141.576 16.891C141.209 16.5261 140.719 16.526 140.474 16.7693L139.862 17.1345C139.617 17.3777 139.25 17.3772 138.882 17.2556C138.638 17.134 138.393 17.0127 138.27 17.0127C137.903 16.8911 137.78 16.6478 137.658 16.2829L137.535 15.5531C137.413 15.0666 137.046 14.8232 136.678 14.8232H134.964C134.474 14.8232 134.107 15.1882 134.107 15.5531L133.984 16.2829C133.984 16.6478 133.74 16.8911 133.372 17.0127C133.127 17.1344 132.882 17.134 132.76 17.2556C132.515 17.3772 132.148 17.3777 131.903 17.1345L131.291 16.7693C130.923 16.526 130.433 16.5261 130.188 16.891L128.964 18.1072C128.597 18.4721 128.597 18.9584 128.842 19.2017L129.209 19.8097C129.454 20.053 129.454 20.4181 129.331 20.6613C129.209 20.9046 129.086 21.1478 129.086 21.2694C128.964 21.6343 128.719 21.7559 128.352 21.8775L127.617 21.9993C127.127 22.1209 126.882 22.4854 126.882 22.8502V24.5528C126.882 25.0393 127.25 25.4044 127.617 25.4044L128.352 25.5261C128.719 25.5261 128.964 25.7693 129.086 26.1342C129.209 26.3774 129.209 26.6207 129.331 26.7423C129.454 26.9855 129.454 27.3501 129.209 27.715L128.842 28.3231C128.597 28.688 128.597 29.1744 128.964 29.5393L130.188 30.7555C130.556 31.1203 131.046 31.1205 131.291 30.8772L131.903 30.5126C132.148 30.2694 132.515 30.2692 132.76 30.3909C133.005 30.5125 133.25 30.6337 133.372 30.6337C133.74 30.7554 133.862 30.9987 133.984 31.3636L134.107 32.0934C134.229 32.5799 134.597 32.8232 134.964 32.8232H136.678C137.168 32.8232 137.535 32.4583 137.535 32.0934L137.658 31.3636C137.658 30.9987 137.903 30.7554 138.27 30.6337C138.515 30.5121 138.76 30.5125 138.882 30.3909C139.127 30.2692 139.495 30.2694 139.862 30.5126L140.474 30.8772C140.842 31.1205 141.331 31.1203 141.576 30.7555L142.801 29.5393C143.168 29.1744 143.168 28.688 142.923 28.3231L142.556 27.715C142.311 27.4718 142.311 27.1071 142.433 26.7423C142.556 26.499 142.678 26.2558 142.678 26.1342C142.801 25.7693 143.046 25.6477 143.413 25.5261L144.148 25.4044C144.638 25.2827 144.882 24.9176 144.882 24.5528V22.8502C144.882 22.3638 144.638 21.9993 144.148 21.9993ZM136.066 26.6205C134.352 26.6205 133.005 25.2827 133.005 23.5801C133.005 21.8774 134.352 20.5396 136.066 20.5396C137.78 20.5396 139.127 21.8774 139.127 23.5801C139.005 25.2827 137.658 26.6205 136.066 26.6205Z" fill="url(#paint0_linear_548_11892)"/>
<path d="M89.5297 10.0737C89.1047 10.0737 88.7646 9.7337 88.7646 9.30865V0.765094C88.7646 0.340042 89.1047 0 89.5297 0C89.9548 0 90.2948 0.340042 90.2948 0.765094V9.30865C90.2948 9.7337 89.9548 10.0737 89.5297 10.0737Z" fill="#CED3DE"/>
<path d="M95.7356 16.6196C95.7356 16.1945 96.0756 15.8545 96.5007 15.8545H105.044C105.469 15.8545 105.809 16.1945 105.809 16.6196C105.809 17.0446 105.469 17.3847 105.044 17.3847H96.5007C96.0756 17.3847 95.7356 17.0446 95.7356 16.6196Z" fill="#CED3DE"/>
<path d="M95.0554 11.0935C94.7579 10.796 94.7579 10.2859 95.0554 9.98839L101.134 3.95264C101.431 3.65511 101.941 3.65511 102.239 3.95264C102.536 4.25018 102.536 4.76024 102.239 5.05778L96.2031 11.0935C95.863 11.3911 95.353 11.3911 95.0554 11.0935Z" fill="#CED3DE"/>
<g filter="url(#filter0_d_548_11892)">
<path d="M153.981 127.562C153.551 129.39 152.907 131.217 152.154 132.83C150.112 136.701 146.995 139.819 143.125 141.754C139.149 143.797 134.419 144.549 129.582 143.582C118.404 141.216 111.203 130.357 113.567 119.176C115.932 107.994 126.788 100.79 137.966 103.156C141.943 104.016 145.49 105.951 148.392 108.747C153.337 113.692 155.379 120.788 153.981 127.562Z" fill="url(#paint1_linear_548_11892)"/>
</g>
<path d="M139.997 121.644H135.474V117.121C135.474 116.216 134.77 115.412 133.765 115.412C132.86 115.412 132.056 116.116 132.056 117.121V121.644H127.532C126.628 121.644 125.823 122.348 125.823 123.353C125.823 124.358 126.527 125.062 127.532 125.062H132.056V129.586C132.056 130.49 132.759 131.294 133.765 131.294C134.669 131.294 135.474 130.591 135.474 129.586V125.062H139.997C140.902 125.062 141.706 124.358 141.706 123.353C141.706 122.348 140.902 121.644 139.997 121.644Z" fill="white"/>
<path d="M15.6127 67.4274C16.0565 67.2799 16.3523 66.8377 16.2044 66.3954L15.9085 65.216C15.7606 64.7737 15.3168 64.4788 14.873 64.6262L3.63021 67.5748C3.18641 67.7222 2.89055 68.1645 3.03848 68.6068L3.33434 69.7862C3.48228 70.2285 3.92607 70.5234 4.36987 70.3759C4.81366 71.9976 5.99712 73.3245 7.47643 74.2091L9.54748 75.241C9.84334 75.3885 9.84334 75.6833 9.69541 75.8308L8.36402 77.5999C7.3285 78.9267 7.03264 80.6959 7.3285 82.3176C6.88471 82.465 6.58884 82.9073 6.73677 83.3496L7.03264 84.529C7.18057 84.9713 7.62436 85.2661 8.06816 85.1187L19.311 82.1702C19.7548 82.0227 20.0506 81.5804 19.9027 81.1382L19.7548 80.1062C19.6068 79.6639 19.163 79.369 18.7192 79.5164C18.2754 77.8947 17.092 76.5679 15.6127 75.8308L13.5416 74.7988C13.2458 74.6513 13.0978 74.3565 13.2458 74.2091L14.5772 72.4399C15.6127 70.8182 15.9085 69.0491 15.6127 67.4274ZM12.9499 71.1131L11.4706 73.1771C11.3227 73.4719 10.8789 73.4719 10.7309 73.3245L8.51195 72.1451C7.62436 71.7028 7.03264 71.1131 6.58884 70.2285C6.44091 69.9336 6.58884 69.6388 6.88471 69.4914C6.88471 69.4914 6.88471 69.4914 7.03264 69.4914L13.2458 67.8696C13.5416 67.8696 13.8375 68.0171 13.8375 68.3119C13.8375 68.3119 13.8375 68.3119 13.8375 68.4594C13.6896 69.4914 13.5416 70.3759 12.9499 71.1131Z" fill="#F65199"/>
<g filter="url(#filter1_d_548_11892)">
<path d="M95.6079 97.4121C97.4536 97.4121 98.9498 98.9083 98.9498 100.754V127.321C98.9498 129.167 97.4536 130.663 95.6079 130.663H27.5183C25.6727 130.663 24.1765 129.167 24.1765 127.321L24.1765 100.754C24.1765 98.9083 25.6727 97.4121 27.5183 97.4121L95.6079 97.4121Z" fill="url(#paint2_linear_548_11892)"/>
</g>
<g filter="url(#filter2_d_548_11892)">
<path d="M153.843 55.0586C155.689 55.0586 157.185 56.5548 157.185 58.4004V84.9679C157.185 86.8135 155.689 88.3097 153.843 88.3097H85.7537C83.9081 88.3097 82.4119 86.8135 82.4119 84.9679L82.4119 58.4004C82.4119 56.5548 83.908 55.0586 85.7537 55.0586L153.843 55.0586Z" fill="url(#paint3_linear_548_11892)"/>
</g>
<rect x="108.883" y="65.6465" width="30.7059" height="4.23529" rx="2.11765" fill="#CED3DE"/>
<rect x="108.883" y="74.1172" width="41.2941" height="4.23529" rx="2.11765" fill="#CED3DE"/>
<rect x="87.7061" y="63.5293" width="16.9412" height="16.9412" rx="8.47059" fill="#CED3DE"/>
<path d="M92.6472 71.9994L95.0002 74.3524L99.706 69.6465" stroke="white" stroke-width="1.88235" stroke-linecap="round" stroke-linejoin="round"/>
<g filter="url(#filter3_d_548_11892)">
<path d="M90.4314 13C92.2771 13 93.7732 14.4962 93.7732 16.3418V42.9093C93.7732 44.7549 92.2771 46.2511 90.4314 46.2511H22.3418C20.4962 46.2511 19 44.755 19 42.9093L19 16.3418C19 14.4962 20.4962 13 22.3418 13L90.4314 13Z" fill="url(#paint4_linear_548_11892)"/>
</g>
<rect x="45.353" y="23.2939" width="42.3529" height="4.23529" rx="2.11765" fill="#CED3DE"/>
<rect x="50.647" y="108" width="24.3529" height="4.23529" rx="2.11765" fill="#CED3DE"/>
<rect x="45.353" y="31.7646" width="28.5882" height="4.23529" rx="2.11765" fill="#CED3DE"/>
<rect x="50.647" y="116.471" width="30.7059" height="4.23529" rx="2.11765" fill="#CED3DE"/>
<rect x="24.1765" y="21.1768" width="16.9412" height="16.9412" rx="8.47059" fill="#CED3DE"/>
<path d="M29.1177 29.6469L31.4706 31.9998L36.1765 27.2939" stroke="white" stroke-width="1.88235" stroke-linecap="round" stroke-linejoin="round"/>
<g clip-path="url(#clip0_548_11892)">
<path fill-rule="evenodd" clip-rule="evenodd" d="M37.9413 122.824C42.6195 122.824 46.4119 119.032 46.4119 114.353C46.4119 109.675 42.6195 105.883 37.9413 105.883C33.2631 105.883 29.4707 109.675 29.4707 114.353C29.4707 119.032 33.2631 122.824 37.9413 122.824ZM37.9413 120C41.06 120 43.5883 117.472 43.5883 114.353C43.5883 111.235 41.06 108.706 37.9413 108.706C34.8225 108.706 32.2942 111.235 32.2942 114.353C32.2942 117.472 34.8225 120 37.9413 120Z" fill="#EBEEF5"/>
<path fill-rule="evenodd" clip-rule="evenodd" d="M44.8276 119.286C45.8579 117.848 46.4119 116.123 46.4119 114.353L43.5883 114.353C43.5883 115.533 43.2189 116.683 42.532 117.642C41.845 118.601 40.875 119.321 39.7581 119.7C38.6412 120.08 37.4335 120.1 36.3046 119.758C35.1756 119.416 34.182 118.729 33.4633 117.794C32.7446 116.859 32.3369 115.722 32.2974 114.543C32.2578 113.364 32.5885 112.202 33.2429 111.221C33.8974 110.239 34.8427 109.487 35.9462 109.07C37.0492 108.654 38.2549 108.593 39.3941 108.896L40.1206 106.168C38.4108 105.713 36.6015 105.804 34.9464 106.43C33.2914 107.055 31.8738 108.184 30.8926 109.656C29.9114 111.128 29.4159 112.871 29.4755 114.639C29.5352 116.407 30.147 118.113 31.2252 119.515C32.3034 120.918 33.7939 121.948 35.4873 122.461C37.1807 122.973 38.9921 122.943 40.6673 122.373C42.3425 121.804 43.7973 120.724 44.8276 119.286ZM37.9691 114.249L37.9413 114.353L37.9413 114.353L37.9691 114.249Z" fill="#CED3DE"/>
</g>
<defs>
<filter id="filter0_d_548_11892" x="104.647" y="99.5296" width="58.2354" height="58.2351" filterUnits="userSpaceOnUse" color-interpolation-filters="sRGB">
<feFlood flood-opacity="0" result="BackgroundImageFix"/>
<feColorMatrix in="SourceAlpha" type="matrix" values="0 0 0 0 0 0 0 0 0 0 0 0 0 0 0 0 0 0 127 0" result="hardAlpha"/>
<feOffset dy="5.29412"/>
<feGaussianBlur stdDeviation="4.23529"/>
<feColorMatrix type="matrix" values="0 0 0 0 0.1125 0 0 0 0 0.295916 0 0 0 0 1 0 0 0 0.22 0"/>
<feBlend mode="normal" in2="BackgroundImageFix" result="effect1_dropShadow_548_11892"/>
<feBlend mode="normal" in="SourceGraphic" in2="effect1_dropShadow_548_11892" result="shape"/>
</filter>
<filter id="filter1_d_548_11892" x="5.7965" y="88.2221" width="111.533" height="70.011" filterUnits="userSpaceOnUse" color-interpolation-filters="sRGB">
<feFlood flood-opacity="0" result="BackgroundImageFix"/>
<feColorMatrix in="SourceAlpha" type="matrix" values="0 0 0 0 0 0 0 0 0 0 0 0 0 0 0 0 0 0 127 0" result="hardAlpha"/>
<feOffset dy="9.19001"/>
<feGaussianBlur stdDeviation="9.19001"/>
<feColorMatrix type="matrix" values="0 0 0 0 0.397708 0 0 0 0 0.47749 0 0 0 0 0.575 0 0 0 0.27 0"/>
<feBlend mode="normal" in2="BackgroundImageFix" result="effect1_dropShadow_548_11892"/>
<feBlend mode="normal" in="SourceGraphic" in2="effect1_dropShadow_548_11892" result="shape"/>
</filter>
<filter id="filter2_d_548_11892" x="64.0319" y="45.8686" width="111.533" height="70.011" filterUnits="userSpaceOnUse" color-interpolation-filters="sRGB">
<feFlood flood-opacity="0" result="BackgroundImageFix"/>
<feColorMatrix in="SourceAlpha" type="matrix" values="0 0 0 0 0 0 0 0 0 0 0 0 0 0 0 0 0 0 127 0" result="hardAlpha"/>
<feOffset dy="9.19001"/>
<feGaussianBlur stdDeviation="9.19001"/>
<feColorMatrix type="matrix" values="0 0 0 0 0.397708 0 0 0 0 0.47749 0 0 0 0 0.575 0 0 0 0.27 0"/>
<feBlend mode="normal" in2="BackgroundImageFix" result="effect1_dropShadow_548_11892"/>
<feBlend mode="normal" in="SourceGraphic" in2="effect1_dropShadow_548_11892" result="shape"/>
</filter>
<filter id="filter3_d_548_11892" x="0.619986" y="3.80999" width="111.533" height="70.011" filterUnits="userSpaceOnUse" color-interpolation-filters="sRGB">
<feFlood flood-opacity="0" result="BackgroundImageFix"/>
<feColorMatrix in="SourceAlpha" type="matrix" values="0 0 0 0 0 0 0 0 0 0 0 0 0 0 0 0 0 0 127 0" result="hardAlpha"/>
<feOffset dy="9.19001"/>
<feGaussianBlur stdDeviation="9.19001"/>
<feColorMatrix type="matrix" values="0 0 0 0 0.397708 0 0 0 0 0.47749 0 0 0 0 0.575 0 0 0 0.27 0"/>
<feBlend mode="normal" in2="BackgroundImageFix" result="effect1_dropShadow_548_11892"/>
<feBlend mode="normal" in="SourceGraphic" in2="effect1_dropShadow_548_11892" result="shape"/>
</filter>
<linearGradient id="paint0_linear_548_11892" x1="126.907" y1="23.5847" x2="144.369" y2="23.5847" gradientUnits="userSpaceOnUse">
<stop stop-color="#FF66A9"/>
<stop offset="1" stop-color="#F53689"/>
</linearGradient>
<linearGradient id="paint1_linear_548_11892" x1="115.534" y1="113.52" x2="152.097" y2="134.114" gradientUnits="userSpaceOnUse">
<stop stop-color="#83A6FF"/>
<stop offset="0.994956" stop-color="#5277D7"/>
</linearGradient>
<linearGradient id="paint2_linear_548_11892" x1="61.5388" y1="96.643" x2="61.5388" y2="131.022" gradientUnits="userSpaceOnUse">
<stop stop-color="#FDFEFF"/>
<stop offset="0.9964" stop-color="#ECF0F5"/>
</linearGradient>
<linearGradient id="paint3_linear_548_11892" x1="119.774" y1="54.2895" x2="119.774" y2="88.6682" gradientUnits="userSpaceOnUse">
<stop stop-color="#FDFEFF"/>
<stop offset="0.9964" stop-color="#ECF0F5"/>
</linearGradient>
<linearGradient id="paint4_linear_548_11892" x1="56.3623" y1="12.2309" x2="56.3623" y2="46.6096" gradientUnits="userSpaceOnUse">
<stop stop-color="#FDFEFF"/>
<stop offset="0.9964" stop-color="#ECF0F5"/>
</linearGradient>
<clipPath id="clip0_548_11892">
<rect x="29.4707" y="105.883" width="16.9412" height="16.9412" rx="3.76471" fill="white"/>
</clipPath>
</defs>
</svg>
