<svg viewBox="0 0 271 204" fill="none" xmlns="http://www.w3.org/2000/svg">
<path d="M132.501 182.472C182.789 182.472 223.558 141.704 223.558 91.2362C223.558 40.7689 182.609 0 132.501 0C82.2137 0 41.4448 40.7689 41.4448 91.2362C41.4448 141.704 82.2137 182.472 132.501 182.472Z" fill="#F1F3F9"/>
<path d="M20.2378 25.5039H19.8948C19.2087 25.5039 18.5227 26.021 18.5227 26.8829C18.5227 27.7448 19.0372 28.262 19.8948 28.262H20.2378C20.9238 28.262 21.6099 27.7448 21.6099 26.8829C21.6099 26.021 20.9238 25.5039 20.2378 25.5039Z" fill="url(#paint0_linear_548_21883)"/>
<path d="M14.75 25.5039H14.407C13.7209 25.5039 13.0349 26.021 13.0349 26.8829C13.0349 27.7448 13.5494 28.262 14.407 28.262H14.75C15.436 28.262 16.1221 27.7448 16.1221 26.8829C16.1221 26.021 15.436 25.5039 14.75 25.5039Z" fill="url(#paint1_linear_548_21883)"/>
<path d="M25.7264 25.6758H25.3834C24.6974 25.6758 24.0114 26.1929 24.0114 26.8824C24.0114 27.572 24.5259 28.2615 25.2119 28.2615H25.5549C25.5549 28.2615 25.5549 28.2615 25.7264 28.2615C26.4125 28.2615 26.927 27.7443 26.927 27.0548C26.927 26.3653 26.4125 25.6758 25.7264 25.6758Z" fill="url(#paint2_linear_548_21883)"/>
<path d="M37.7318 42.3966C37.7318 41.7071 37.2173 41.0176 36.3597 41.0176C35.5022 41.0176 34.9877 41.5347 34.9877 42.3966V42.7414C34.9877 43.4309 35.5022 44.1204 36.3597 44.1204C37.2173 44.1204 37.7318 43.6033 37.7318 42.7414V42.3966Z" fill="url(#paint3_linear_548_21883)"/>
<path d="M35.5021 31.7097L35.3306 31.3649C34.9875 30.8478 34.13 30.6754 33.6155 31.0202C33.1009 31.3649 32.9294 32.2268 33.2725 32.744L33.444 33.0887C33.6155 33.4335 34.13 33.6059 34.473 33.6059C34.6445 33.6059 34.9875 33.6059 35.1591 33.4335C35.8451 33.0887 36.0166 32.2268 35.5021 31.7097Z" fill="url(#paint4_linear_548_21883)"/>
<path d="M36.3597 46.5342C35.6737 46.5342 34.9877 47.0513 34.9877 47.9132V48.258C34.9877 48.9475 35.5022 49.637 36.3597 49.637C37.2173 49.637 37.7318 48.9475 37.7318 48.258V47.9132C37.7318 47.2237 37.0458 46.5342 36.3597 46.5342Z" fill="url(#paint5_linear_548_21883)"/>
<path d="M9.43305 25.5039H9.09003C8.40399 25.5039 7.71796 26.021 7.71796 26.8829C7.71796 27.7448 8.23249 28.262 9.09003 28.262H9.43305C10.1191 28.262 10.8051 27.7448 10.8051 26.8829C10.8051 26.021 10.1191 25.5039 9.43305 25.5039Z" fill="url(#paint6_linear_548_21883)"/>
<path d="M31.3861 27.4004L31.043 27.228C30.357 26.8833 29.671 27.0557 29.3279 27.7452C28.9849 28.4347 29.1564 29.1242 29.8425 29.469L30.014 29.6414C30.1855 29.8137 30.5285 29.8137 30.7 29.8137C31.2145 29.8137 31.5576 29.6414 31.7291 29.1242C32.0721 28.6071 31.9006 27.9176 31.3861 27.4004Z" fill="url(#paint7_linear_548_21883)"/>
<path d="M39.2751 63.0827C38.9321 62.5656 38.0746 62.3932 37.5601 62.738C37.0455 63.0827 36.874 63.9446 37.217 64.4618L37.3885 64.8065C37.56 65.1513 38.0746 65.3237 38.4176 65.3237C38.5891 65.3237 38.9321 65.3237 39.1036 65.1513C39.6182 64.8065 39.7897 63.9446 39.4467 63.4275L39.2751 63.0827Z" fill="url(#paint8_linear_548_21883)"/>
<path d="M43.0491 66.7023L42.8776 66.5299C42.1915 66.1852 41.5055 66.3576 41.1625 66.8747C40.8194 67.5642 40.991 68.2537 41.5055 68.5985L41.8485 68.7709C42.02 68.9433 42.1915 68.9433 42.5345 68.9433C43.0491 68.9433 43.3921 68.7709 43.7351 68.2537C43.9066 67.7366 43.5636 67.0471 43.0491 66.7023Z" fill="url(#paint9_linear_548_21883)"/>
<path d="M47.5076 68.082H47.1646C46.4786 68.082 45.7925 68.5992 45.7925 69.2887C45.7925 69.9782 46.3071 70.6677 46.9931 70.6677H47.3361C47.3361 70.6677 47.3361 70.6677 47.5076 70.6677C48.1937 70.6677 48.7082 70.1506 48.7082 69.4611C48.8797 68.7715 48.3652 68.082 47.5076 68.082Z" fill="url(#paint10_linear_548_21883)"/>
<path d="M36.3595 38.605C37.2171 38.4326 37.7316 37.9154 37.5601 37.2259V36.8812C37.3886 36.1916 36.8741 35.6745 36.0165 35.8469C35.3305 36.0193 34.816 36.5364 34.9875 37.3983V37.7431C35.159 38.2602 35.6735 38.605 36.3595 38.605Z" fill="url(#paint11_linear_548_21883)"/>
<path d="M37.7324 58.946V58.6012C37.7324 57.9117 37.0463 57.3945 36.3603 57.3945C35.6743 57.3945 35.1597 58.084 35.1597 58.7736C35.1597 58.9459 35.1597 59.1183 35.1597 59.1183C35.3312 59.8078 35.8458 60.1526 36.3603 60.1526H36.5318C37.3894 60.325 37.9039 59.6355 37.7324 58.946Z" fill="url(#paint12_linear_548_21883)"/>
<path d="M36.3597 54.9808C37.0458 54.9808 37.7318 54.4636 37.7318 53.6017V53.257C37.7318 52.5674 37.2173 51.8779 36.3597 51.8779C35.5022 51.8779 34.9877 52.3951 34.9877 53.257V53.6017C35.1592 54.4636 35.6737 54.9808 36.3597 54.9808Z" fill="url(#paint13_linear_548_21883)"/>
<path d="M3.77326 25.5039C3.08722 25.5039 2.40118 26.021 2.40118 26.8829C2.40118 27.7448 2.91571 28.262 3.77326 28.262H3.94477C4.63081 28.0896 5.14534 27.5725 5.14534 26.8829C5.14534 26.1934 4.4593 25.5039 3.77326 25.5039Z" fill="url(#paint14_linear_548_21883)"/>
<path d="M68.9464 68.082H63.6296H63.2866H58.1413H57.7982H52.8245H52.4815C51.7954 68.082 51.1094 68.5992 51.1094 69.4611C51.1094 70.323 51.6239 70.8401 52.4815 70.8401H52.8245H57.7982H58.3128H63.4581H63.8011H69.1179C69.8039 70.8401 70.4899 70.323 70.4899 69.4611C70.4899 68.5992 69.6324 68.082 68.9464 68.082Z" fill="url(#paint15_linear_548_21883)"/>
<path d="M24.0114 82.3896H23.6683C22.9823 82.3896 22.2963 82.9068 22.2963 83.7687C22.2963 84.6306 22.8108 85.1477 23.6683 85.1477H24.0114C24.6974 85.1477 25.3834 84.6306 25.3834 83.7687C25.3834 82.9068 24.6974 82.3896 24.0114 82.3896Z" fill="url(#paint16_linear_548_21883)"/>
<path d="M29.6708 82.3896H29.3278C28.6418 82.3896 27.9557 82.9068 27.9557 83.7687C27.9557 84.6306 28.4703 85.1477 29.3278 85.1477H29.6708C30.3569 85.1477 31.0429 84.6306 31.0429 83.7687C31.0429 82.9068 30.3569 82.3896 29.6708 82.3896Z" fill="url(#paint17_linear_548_21883)"/>
<path d="M18.3518 82.3896H18.0088C17.3228 82.3896 16.6367 82.9068 16.6367 83.7687C16.6367 84.6306 17.1512 85.1477 18.0088 85.1477H18.3518C19.0379 85.1477 19.7239 84.6306 19.7239 83.7687C19.7239 82.9068 19.0379 82.3896 18.3518 82.3896Z" fill="url(#paint18_linear_548_21883)"/>
<path d="M12.6916 82.3896H12.3486C11.6625 82.3896 10.9765 82.9068 10.9765 83.7687C10.9765 84.6306 11.491 85.1477 12.3486 85.1477H12.6916C13.3776 85.1477 14.0637 84.6306 14.0637 83.7687C14.0637 82.9068 13.3776 82.3896 12.6916 82.3896Z" fill="url(#paint19_linear_548_21883)"/>
<path d="M7.03211 82.3896H6.68909C6.00305 82.3896 5.31702 82.9068 5.31702 83.7687C5.31702 84.6306 5.83155 85.1477 6.68909 85.1477H7.03211C7.71815 85.1477 8.40419 84.6306 8.40419 83.7687C8.40419 82.9068 7.88966 82.3896 7.03211 82.3896Z" fill="url(#paint20_linear_548_21883)"/>
<path d="M46.6509 82.3896H46.3079C45.6218 82.3896 44.9358 82.9068 44.9358 83.7687C44.9358 84.6306 45.4503 85.1477 46.3079 85.1477H46.6509C47.3369 85.1477 48.023 84.6306 48.023 83.7687C48.023 82.9068 47.3369 82.3896 46.6509 82.3896Z" fill="url(#paint21_linear_548_21883)"/>
<path d="M35.3311 82.3896H34.988C34.302 82.3896 33.616 82.9068 33.616 83.7687C33.616 84.6306 34.1305 85.1477 34.988 85.1477H35.3311C36.0171 85.1477 36.7031 84.6306 36.7031 83.7687C36.7031 82.9068 36.0171 82.3896 35.3311 82.3896Z" fill="url(#paint22_linear_548_21883)"/>
<path d="M40.9907 82.3896H40.6477C39.9616 82.3896 39.2756 82.9068 39.2756 83.7687C39.2756 84.6306 39.7901 85.1477 40.6477 85.1477H40.9907C41.6767 85.1477 42.3627 84.6306 42.3627 83.7687C42.3627 82.9068 41.6767 82.3896 40.9907 82.3896Z" fill="url(#paint23_linear_548_21883)"/>
<path d="M1.54359 82.3896H1.37208C0.686038 82.3896 0 82.9068 0 83.7687C0 84.6306 0.514529 85.1477 1.37208 85.1477H1.54359C2.22962 85.1477 2.91566 84.6306 2.91566 83.7687C2.91566 82.9068 2.22962 82.3896 1.54359 82.3896Z" fill="url(#paint24_linear_548_21883)"/>
<path d="M68.9468 82.3896H63.4585H63.1155H57.7987H57.4557H52.6534H52.4819H52.3104H51.9674C51.2813 82.3896 50.5953 82.9068 50.5953 83.7687C50.5953 84.6306 51.1098 85.1477 51.9674 85.1477H52.3104H52.4819H52.6534H57.4557H57.7987H63.1155H63.4585H68.9468C69.6328 85.1477 70.3189 84.6306 70.3189 83.7687C70.3189 82.9068 69.6328 82.3896 68.9468 82.3896Z" fill="url(#paint25_linear_548_21883)"/>
<path d="M30.014 138.413L29.8425 138.585C29.1564 138.93 28.9849 139.792 29.3279 140.309C29.4995 140.654 30.014 140.998 30.5285 140.998C30.7 140.998 30.8715 140.998 31.2145 140.826L31.5576 140.654C32.2436 140.309 32.4151 139.447 31.9006 138.93C31.3861 138.24 30.5285 138.068 30.014 138.413Z" fill="url(#paint26_linear_548_21883)"/>
<path d="M25.3825 139.965H25.0394C24.3534 139.965 23.8389 140.654 23.8389 141.344C23.8389 142.033 24.5249 142.55 25.0394 142.55H25.3825C26.0685 142.55 26.583 141.861 26.583 141.171C26.7545 140.309 26.0685 139.792 25.3825 139.965Z" fill="url(#paint27_linear_548_21883)"/>
<path d="M36.5308 129.449C35.8448 129.277 35.1587 129.794 35.1587 130.656V131C34.9872 131.69 35.5017 132.38 36.1878 132.552H36.3593C37.0453 132.552 37.5599 132.035 37.5599 131.518V131.173C37.7314 130.139 37.2168 129.449 36.5308 129.449Z" fill="url(#paint28_linear_548_21883)"/>
<path d="M20.2371 139.965H19.8941C19.2081 139.965 18.522 140.482 18.522 141.344C18.522 142.206 19.0366 142.723 19.8941 142.723H20.2371C20.9232 142.723 21.6092 142.206 21.6092 141.344C21.6092 140.482 20.9232 139.965 20.2371 139.965Z" fill="url(#paint29_linear_548_21883)"/>
<path d="M36.359 123.934C35.673 123.934 34.9869 124.451 34.9869 125.313V125.657C34.9869 126.347 35.5015 127.036 36.359 127.036C37.2166 127.036 37.7311 126.519 37.7311 125.657V125.313C37.7311 124.623 37.0451 123.934 36.359 123.934Z" fill="url(#paint30_linear_548_21883)"/>
<path d="M9.43226 139.965H9.08924C8.4032 139.965 7.71716 140.482 7.71716 141.344C7.71716 142.206 8.23169 142.723 9.08924 142.723H9.43226C10.1183 142.723 10.8043 142.206 10.8043 141.344C10.8043 140.482 10.1183 139.965 9.43226 139.965Z" fill="url(#paint31_linear_548_21883)"/>
<path d="M14.7491 139.965H14.4061C13.72 139.965 13.034 140.482 13.034 141.344C13.034 142.206 13.5485 142.723 14.4061 142.723H14.7491C15.4351 142.723 16.1212 142.206 16.1212 141.344C16.1212 140.482 15.4351 139.965 14.7491 139.965Z" fill="url(#paint32_linear_548_21883)"/>
<path d="M35.1591 134.621C34.6445 134.276 33.787 134.448 33.444 134.966L33.2725 135.31C32.9294 135.827 33.1009 136.689 33.6155 137.034C33.787 137.206 34.13 137.206 34.3015 137.206C34.6445 137.206 35.1591 137.034 35.3306 136.689L35.5021 136.345C36.0166 135.827 35.8451 135.138 35.1591 134.621Z" fill="url(#paint33_linear_548_21883)"/>
<path d="M41.6766 99.2833L41.3335 99.4557C40.6475 99.8005 40.476 100.662 40.9905 101.179C41.162 101.524 41.6766 101.869 42.0196 101.869C42.1911 101.869 42.5341 101.869 42.7056 101.697L42.8771 101.524C43.5632 101.179 43.7347 100.318 43.3916 99.8005C43.0486 99.2833 42.3626 98.9385 41.6766 99.2833Z" fill="url(#paint34_linear_548_21883)"/>
<path d="M47.3356 97.5584H46.9926C46.3065 97.5584 45.792 98.2479 45.792 98.9375C45.792 99.627 46.478 100.144 46.9926 100.144H47.1641H47.5071C48.1931 100.144 48.7077 99.4546 48.7077 98.7651C48.7077 97.9032 48.0216 97.386 47.3356 97.5584Z" fill="url(#paint35_linear_548_21883)"/>
<path d="M37.3878 103.247L37.2163 103.592C36.8733 104.109 37.0448 104.971 37.5593 105.316C37.7308 105.488 38.0738 105.488 38.2454 105.488C38.5884 105.488 39.1029 105.316 39.2744 104.971L39.4459 104.799C39.7889 104.282 39.6174 103.42 39.1029 103.075C38.5884 102.558 37.7308 102.73 37.3878 103.247Z" fill="url(#paint36_linear_548_21883)"/>
<path d="M36.359 118.589C35.673 118.589 34.9869 119.106 34.9869 119.968V120.313C34.9869 121.002 35.5015 121.692 36.359 121.692C37.2166 121.692 37.7311 121.175 37.7311 120.313V119.968C37.7311 119.106 37.0451 118.589 36.359 118.589Z" fill="url(#paint37_linear_548_21883)"/>
<path d="M36.359 113.073C35.673 113.073 34.9869 113.59 34.9869 114.452V114.797C34.9869 115.487 35.5015 116.176 36.359 116.176C37.2166 116.176 37.7311 115.487 37.7311 114.797V114.452C37.7311 113.763 37.0451 113.073 36.359 113.073Z" fill="url(#paint38_linear_548_21883)"/>
<path d="M36.7025 107.73C36.0165 107.557 35.3304 108.074 35.1589 108.764C35.1589 108.936 35.1589 109.109 35.1589 109.109C35.1589 109.798 35.6735 110.488 36.3595 110.488H36.531C37.217 110.488 37.7316 109.971 37.7316 109.281V108.936C37.9031 108.419 37.3886 107.902 36.7025 107.73Z" fill="url(#paint39_linear_548_21883)"/>
<path d="M3.77247 139.965C3.08643 139.965 2.40039 140.482 2.40039 141.344C2.40039 142.206 2.91492 142.723 3.77247 142.723H3.94398C4.63001 142.551 5.14454 142.033 5.14454 141.344C5.14454 140.654 4.4585 139.965 3.77247 139.965Z" fill="url(#paint40_linear_548_21883)"/>
<path d="M68.9458 97.3867H63.629H63.2859H58.1407H57.7976H52.6524H52.4808H52.3093C51.6233 97.3867 50.9373 97.9039 50.9373 98.7658C50.9373 99.6277 51.4518 100.145 52.3093 100.145H52.4808H52.6524H57.7976H58.3122H63.4574H63.8005H69.1173C69.8033 100.145 70.4893 99.6277 70.4893 98.7658C70.4893 97.9039 69.6318 97.3867 68.9458 97.3867Z" fill="url(#paint41_linear_548_21883)"/>
<path d="M234.453 41.1904C233.767 41.1904 233.081 41.7076 233.081 42.5695V42.9142C233.081 43.6037 233.595 44.2933 234.453 44.2933C235.311 44.2933 235.825 43.7761 235.825 42.9142V42.5695C235.825 41.7076 235.139 41.1904 234.453 41.1904Z" fill="url(#paint42_linear_548_21883)"/>
<path d="M234.453 46.5342C233.767 46.5342 233.081 47.0513 233.081 47.9132V48.258C233.081 48.9475 233.595 49.637 234.453 49.637C235.311 49.637 235.825 49.1199 235.825 48.258V47.9132C235.825 47.2237 235.139 46.5342 234.453 46.5342Z" fill="url(#paint43_linear_548_21883)"/>
<path d="M234.453 57.3945C233.767 57.3945 233.081 57.9117 233.081 58.6012V58.946C232.909 59.6355 233.424 60.325 234.11 60.4974H234.281C234.967 60.4974 235.482 59.9802 235.482 59.4631C235.482 59.2907 235.482 59.1183 235.482 59.1183C235.825 58.2564 235.31 57.5669 234.453 57.3945Z" fill="url(#paint44_linear_548_21883)"/>
<path d="M233.253 62.738C232.739 62.3932 231.881 62.5656 231.538 63.0827L231.366 63.2551C231.023 63.7722 231.195 64.6341 231.709 64.9789C231.881 65.1513 232.224 65.1513 232.396 65.1513C232.739 65.1513 233.253 64.9789 233.425 64.6341L233.596 64.2894C234.111 63.9446 233.939 63.0827 233.253 62.738Z" fill="url(#paint45_linear_548_21883)"/>
<path d="M223.476 68.0819H223.133C222.447 68.0819 221.933 68.7714 221.933 69.4609C221.933 70.1504 222.619 70.6676 223.133 70.6676C223.133 70.6676 223.133 70.6676 223.305 70.6676H223.648C224.334 70.6676 224.848 69.978 224.848 69.2885C224.848 68.4266 224.334 67.9095 223.476 68.0819Z" fill="url(#paint46_linear_548_21883)"/>
<path d="M228.108 66.5298L227.936 66.7022C227.25 67.0469 227.079 67.9088 227.422 68.426C227.593 68.7707 228.108 69.1155 228.623 69.1155C228.794 69.1155 229.137 69.1155 229.309 68.9431L229.652 68.7707C230.338 68.426 230.509 67.5641 229.995 67.0469C229.48 66.3574 228.622 66.185 228.108 66.5298Z" fill="url(#paint47_linear_548_21883)"/>
<path d="M218.331 68.082H217.988H213.015H212.672H207.526H207.183H201.866C201.18 68.082 200.494 68.5992 200.494 69.4611C200.494 70.323 201.009 70.8401 201.866 70.8401H207.183H207.526H212.672H213.015H217.988H218.331C219.017 70.8401 219.703 70.323 219.703 69.4611C219.703 68.5992 219.017 68.082 218.331 68.082Z" fill="url(#paint48_linear_548_21883)"/>
<path d="M234.453 52.0508C233.767 52.0508 233.081 52.5679 233.081 53.4298V53.7746C233.081 54.4641 233.595 55.1536 234.453 55.1536C235.311 55.1536 235.825 54.6365 235.825 53.7746V53.4298C235.825 52.5679 235.139 52.0508 234.453 52.0508Z" fill="url(#paint49_linear_548_21883)"/>
<path d="M256.407 25.5039H256.064C255.378 25.5039 254.692 26.021 254.692 26.8829C254.692 27.7448 255.206 28.262 256.064 28.262H256.407C257.093 28.262 257.779 27.7448 257.779 26.8829C257.779 26.021 257.093 25.5039 256.407 25.5039Z" fill="url(#paint50_linear_548_21883)"/>
<path d="M261.894 25.5039H261.551C260.865 25.5039 260.179 26.021 260.179 26.8829C260.179 27.7448 260.694 28.262 261.551 28.262H261.894C262.581 28.262 263.267 27.7448 263.267 26.8829C263.267 26.021 262.581 25.5039 261.894 25.5039Z" fill="url(#paint51_linear_548_21883)"/>
<path d="M251.09 25.5039H250.747C250.061 25.5039 249.375 26.021 249.375 26.8829C249.375 27.7448 249.889 28.262 250.747 28.262H251.09C251.776 28.262 252.462 27.7448 252.462 26.8829C252.462 26.021 251.776 25.5039 251.09 25.5039Z" fill="url(#paint52_linear_548_21883)"/>
<path d="M234.797 35.8469C234.11 35.6745 233.424 36.1916 233.253 36.8812V37.2259C233.253 37.9154 233.596 38.605 234.453 38.605H234.625C235.311 38.605 235.826 38.0878 235.826 37.3983V37.0535C235.997 36.5364 235.483 35.8469 234.797 35.8469Z" fill="url(#paint53_linear_548_21883)"/>
<path d="M235.482 31.3652L235.31 31.7099C234.967 32.2271 235.139 33.089 235.653 33.4337C235.825 33.6061 236.168 33.6061 236.339 33.6061C236.682 33.6061 237.197 33.4337 237.368 33.089L237.54 32.7442C237.883 32.2271 237.711 31.3652 237.197 31.0204C236.682 30.5033 235.996 30.6757 235.482 31.3652Z" fill="url(#paint54_linear_548_21883)"/>
<path d="M239.942 27.2276L239.599 27.4C238.913 27.7448 238.741 28.6067 239.256 29.1238C239.427 29.4686 239.942 29.8133 240.285 29.8133C240.456 29.8133 240.799 29.8133 240.971 29.641L241.142 29.4686C241.828 29.1238 242 28.2619 241.657 27.7448C241.314 27.2276 240.456 26.8829 239.942 27.2276Z" fill="url(#paint55_linear_548_21883)"/>
<path d="M245.601 25.5039H245.258C244.572 25.5039 244.058 26.1934 244.058 26.8829C244.058 27.5725 244.744 28.0896 245.258 28.0896C245.258 28.0896 245.258 28.0896 245.43 28.0896H245.773C246.459 28.0896 246.973 27.4001 246.973 26.7106C246.802 26.021 246.287 25.5039 245.601 25.5039Z" fill="url(#paint56_linear_548_21883)"/>
<path d="M267.212 25.5039C266.354 25.5039 265.84 26.021 265.84 26.8829C265.84 27.7448 266.526 28.262 267.212 28.262C267.898 28.262 268.584 27.7448 268.584 26.8829C268.584 26.021 267.898 25.5039 267.212 25.5039Z" fill="url(#paint57_linear_548_21883)"/>
<path d="M230.337 82.3896H229.994C229.308 82.3896 228.622 82.9068 228.622 83.7687C228.622 84.6306 229.136 85.1477 229.994 85.1477H230.337C231.023 85.1477 231.709 84.6306 231.709 83.7687C231.709 82.9068 231.023 82.3896 230.337 82.3896Z" fill="url(#paint58_linear_548_21883)"/>
<path d="M235.997 82.3896H235.654C234.968 82.3896 234.282 82.9068 234.282 83.7687C234.282 84.6306 234.797 85.1477 235.654 85.1477H235.997C236.683 85.1477 237.369 84.6306 237.369 83.7687C237.369 82.9068 236.683 82.3896 235.997 82.3896Z" fill="url(#paint59_linear_548_21883)"/>
<path d="M224.677 82.3896H224.334C223.648 82.3896 222.962 82.9068 222.962 83.7687C222.962 84.6306 223.477 85.1477 224.334 85.1477H224.677C225.363 85.1477 226.05 84.6306 226.05 83.7687C226.05 82.9068 225.363 82.3896 224.677 82.3896Z" fill="url(#paint60_linear_548_21883)"/>
<path d="M219.018 82.3896H218.675H218.503H218.332H213.53H213.187H207.87H207.527H202.038C201.352 82.3896 200.666 82.9068 200.666 83.7687C200.666 84.6306 201.181 85.1477 202.038 85.1477H207.527H207.87H213.187H213.53H218.332H218.503H218.675H219.018C219.704 85.1477 220.39 84.6306 220.39 83.7687C220.39 82.9068 219.704 82.3896 219.018 82.3896Z" fill="url(#paint61_linear_548_21883)"/>
<path d="M241.485 82.3896H241.142C240.456 82.3896 239.77 82.9068 239.77 83.7687C239.77 84.6306 240.284 85.1477 241.142 85.1477H241.485C242.171 85.1477 242.857 84.6306 242.857 83.7687C242.857 82.9068 242.343 82.3896 241.485 82.3896Z" fill="url(#paint62_linear_548_21883)"/>
<path d="M258.465 82.3896H258.122C257.436 82.3896 256.75 82.9068 256.75 83.7687C256.75 84.6306 257.265 85.1477 258.122 85.1477H258.465C259.151 85.1477 259.837 84.6306 259.837 83.7687C259.837 82.9068 259.151 82.3896 258.465 82.3896Z" fill="url(#paint63_linear_548_21883)"/>
<path d="M264.125 82.3896H263.782C263.096 82.3896 262.41 82.9068 262.41 83.7687C262.41 84.6306 262.924 85.1477 263.782 85.1477H264.125C264.811 85.1477 265.497 84.6306 265.497 83.7687C265.497 82.9068 264.811 82.3896 264.125 82.3896Z" fill="url(#paint64_linear_548_21883)"/>
<path d="M252.805 82.3896H252.462C251.776 82.3896 251.09 82.9068 251.09 83.7687C251.09 84.6306 251.604 85.1477 252.462 85.1477H252.805C253.491 85.1477 254.177 84.6306 254.177 83.7687C254.177 82.9068 253.491 82.3896 252.805 82.3896Z" fill="url(#paint65_linear_548_21883)"/>
<path d="M247.145 82.3896H246.802C246.116 82.3896 245.43 82.9068 245.43 83.7687C245.43 84.6306 245.945 85.1477 246.802 85.1477H247.145C247.831 85.1477 248.517 84.6306 248.517 83.7687C248.517 82.9068 247.831 82.3896 247.145 82.3896Z" fill="url(#paint66_linear_548_21883)"/>
<path d="M269.613 82.3896C268.755 82.3896 268.241 82.9068 268.241 83.7687C268.241 84.6306 268.927 85.1477 269.613 85.1477C270.299 85.1477 270.985 84.6306 270.985 83.7687C270.985 82.9068 270.299 82.3896 269.613 82.3896Z" fill="url(#paint67_linear_548_21883)"/>
<path d="M229.48 99.4551L229.137 99.2827C228.451 98.938 227.765 99.1104 227.422 99.7999C227.079 100.489 227.25 101.179 227.936 101.524L228.108 101.696C228.279 101.868 228.622 101.868 228.794 101.868C229.309 101.868 229.652 101.696 229.823 101.179C230.166 100.662 229.995 99.7999 229.48 99.4551Z" fill="url(#paint68_linear_548_21883)"/>
<path d="M233.596 103.593L233.425 103.248C233.082 102.731 232.224 102.558 231.709 102.903C231.195 103.248 231.023 104.11 231.366 104.627L231.538 104.799C231.709 105.144 232.224 105.316 232.567 105.316C232.739 105.316 233.082 105.316 233.253 105.144C233.939 104.972 234.111 104.11 233.596 103.593Z" fill="url(#paint69_linear_548_21883)"/>
<path d="M234.453 110.66C235.31 110.66 235.825 109.97 235.653 109.281C235.653 109.108 235.653 108.936 235.653 108.936C235.482 108.246 234.796 107.729 234.11 107.902C233.424 108.074 232.909 108.591 233.081 109.453V109.798C233.252 110.143 233.767 110.66 234.453 110.66Z" fill="url(#paint70_linear_548_21883)"/>
<path d="M218.332 97.3867H218.16H217.989H212.843H212.5H207.355H207.012H201.695C201.009 97.3867 200.323 97.9039 200.323 98.7658C200.323 99.6277 200.838 100.145 201.695 100.145H207.012H207.355H212.5H212.843H217.989H218.16H218.332C219.018 100.145 219.704 99.6277 219.704 98.7658C219.704 97.9039 219.018 97.3867 218.332 97.3867Z" fill="url(#paint71_linear_548_21883)"/>
<path d="M234.453 118.589C233.767 118.589 233.081 119.106 233.081 119.968V120.313C233.081 121.002 233.595 121.692 234.453 121.692C235.311 121.692 235.825 121.175 235.825 120.313V119.968C235.825 119.106 235.139 118.589 234.453 118.589Z" fill="url(#paint72_linear_548_21883)"/>
<path d="M235.826 114.452C235.826 113.763 235.311 113.073 234.453 113.073C233.596 113.073 233.253 113.763 233.253 114.452V114.797C233.253 115.487 233.767 116.176 234.625 116.176C235.483 116.176 235.997 115.659 235.997 114.797V114.452H235.826Z" fill="url(#paint73_linear_548_21883)"/>
<path d="M234.453 126.864C235.139 126.864 235.825 126.346 235.825 125.485V125.14C235.825 124.45 235.311 123.761 234.453 123.761C233.595 123.761 233.081 124.278 233.081 125.14V125.485C233.252 126.346 233.767 126.864 234.453 126.864Z" fill="url(#paint74_linear_548_21883)"/>
<path d="M223.82 97.5586H223.477C222.791 97.5586 222.105 98.0757 222.105 98.7653C222.105 99.4548 222.619 100.144 223.305 100.144H223.648H223.82C224.506 100.144 225.021 99.6272 225.021 98.9376C225.021 98.2481 224.506 97.5586 223.82 97.5586Z" fill="url(#paint75_linear_548_21883)"/>
<path d="M237.54 135.137C237.197 134.62 236.34 134.448 235.825 134.793C235.311 135.137 235.139 135.999 235.482 136.516L235.654 136.861C235.825 137.206 236.34 137.378 236.683 137.378C236.854 137.378 237.197 137.378 237.369 137.206C237.883 136.861 238.055 135.999 237.712 135.482L237.54 135.137Z" fill="url(#paint76_linear_548_21883)"/>
<path d="M235.826 130.829V130.484C235.826 129.794 235.14 129.277 234.453 129.277C233.767 129.277 233.253 129.967 233.253 130.656V131.001C233.424 131.691 233.939 132.035 234.453 132.035H234.625C235.483 132.208 235.997 131.518 235.826 130.829Z" fill="url(#paint77_linear_548_21883)"/>
<path d="M261.894 139.964H261.551C260.865 139.964 260.179 140.481 260.179 141.343C260.179 142.205 260.694 142.722 261.551 142.722H261.894C262.581 142.722 263.267 142.205 263.267 141.343C263.267 140.481 262.581 139.964 261.894 139.964Z" fill="url(#paint78_linear_548_21883)"/>
<path d="M251.09 139.964H250.747C250.061 139.964 249.375 140.481 249.375 141.343C249.375 142.205 249.889 142.722 250.747 142.722H251.09C251.776 142.722 252.462 142.205 252.462 141.343C252.462 140.481 251.776 139.964 251.09 139.964Z" fill="url(#paint79_linear_548_21883)"/>
<path d="M256.406 139.964H256.063C255.377 139.964 254.691 140.481 254.691 141.343C254.691 142.205 255.206 142.722 256.063 142.722H256.406C257.092 142.722 257.779 142.205 257.779 141.343C257.779 140.481 257.092 139.964 256.406 139.964Z" fill="url(#paint80_linear_548_21883)"/>
<path d="M245.773 139.964H245.43C244.744 139.964 244.058 140.481 244.058 141.171C244.058 141.86 244.572 142.55 245.258 142.55H245.601C246.287 142.55 246.802 142.032 246.802 141.343C246.973 140.653 246.459 139.964 245.773 139.964Z" fill="url(#paint81_linear_548_21883)"/>
<path d="M241.141 138.585L240.97 138.413C240.284 138.068 239.598 138.24 239.255 138.758C238.912 139.447 239.083 140.137 239.598 140.481L239.941 140.654C240.112 140.826 240.284 140.826 240.627 140.826C241.141 140.826 241.484 140.654 241.828 140.137C241.999 139.619 241.828 138.93 241.141 138.585Z" fill="url(#paint82_linear_548_21883)"/>
<path d="M267.212 139.964C266.354 139.964 265.839 140.481 265.839 141.343C265.839 142.205 266.526 142.722 267.212 142.722C267.898 142.722 268.584 142.205 268.584 141.343C268.584 140.481 267.898 139.964 267.212 139.964Z" fill="url(#paint83_linear_548_21883)"/>
<g filter="url(#filter0_d_548_21883)">
<path d="M203.433 55C207.851 55 211.433 58.5817 211.433 63V114.982C211.433 119.401 207.851 122.982 203.433 122.982H68C63.5817 122.982 60 119.401 60 114.982L60 63C60 58.5817 63.5817 55 68 55L203.433 55Z" fill="url(#paint84_linear_548_21883)"/>
</g>
<rect x="96.3254" y="71.543" width="48.9461" height="6.75118" rx="3.37559" fill="url(#paint85_linear_548_21883)"/>
<rect x="96.3254" y="85.8887" width="98.8298" height="6.37612" rx="3.18806" fill="#CED3DE"/>
<rect x="96.3254" y="98.6416" width="98.8298" height="6.37612" rx="3.18806" fill="#CED3DE"/>
<path d="M50.5146 48.3044L46.2269 40.7197L50.6861 36.4102L57.8895 39.1682L52.4012 49.1663L50.5146 48.3044Z" fill="white" stroke="#6F7590" stroke-miterlimit="10" stroke-linecap="round" stroke-linejoin="round"/>
<path d="M53.0872 43.4778L53.6018 49.3387L53.4303 49.6835L46.7414 47.0978L46.2269 40.7197L50.3431 42.4435" fill="white"/>
<path d="M53.0872 43.4778L53.6018 49.3387L53.4303 49.6835L46.7414 47.0978L46.2269 40.7197L50.3431 42.4435" stroke="#6F7590" stroke-miterlimit="10" stroke-linecap="round" stroke-linejoin="round"/>
<path d="M53.4304 49.6831L52.9159 43.8222V43.4775L55.66 41.0641L55.8316 40.8918L57.8897 39.168L58.2327 42.9603V43.3051L58.4042 45.3736L57.2036 46.4079L57.0321 46.5803L56.8606 46.7527L56.1746 47.2698L54.8025 48.4765L54.631 48.8212L53.4304 49.6831Z" fill="white" stroke="#6F7590" stroke-miterlimit="10" stroke-linecap="round" stroke-linejoin="round"/>
<path d="M175.031 28.3085L165.941 23.1371L167.827 15.8971L177.089 14.3457L177.432 27.9637L175.031 28.3085Z" fill="white" stroke="#6F7590" stroke-miterlimit="10" stroke-linecap="round" stroke-linejoin="round"/>
<path d="M174.688 21.7578L178.804 27.4463V27.9635L170.228 29.1701L165.941 23.1369L171.086 22.275" fill="white"/>
<path d="M174.688 21.7578L178.804 27.4463V27.9635L170.228 29.1701L165.941 23.1369L171.086 22.275" stroke="#6F7590" stroke-miterlimit="10" stroke-linecap="round" stroke-linejoin="round"/>
<path d="M178.804 27.9637L174.859 22.1028L174.516 21.758L175.888 17.7933V17.4485L177.089 14.3457L179.662 17.9657L179.833 18.3104L181.377 20.379L180.691 22.2752V22.6199L180.519 22.9647L180.176 23.8266L179.49 25.8952L179.319 26.2399L178.804 27.9637Z" fill="white" stroke="#6F7590" stroke-miterlimit="10" stroke-linecap="round" stroke-linejoin="round"/>
<path d="M87.1268 153.457L81.2955 146.562L84.7257 141.218L92.6152 142.597L89.185 153.802L87.1268 153.457Z" fill="white" stroke="#6F7590" stroke-miterlimit="10" stroke-linecap="round" stroke-linejoin="round"/>
<path d="M88.6704 147.941L90.3855 153.801V154.146L83.0106 152.94L81.2955 146.562L85.5833 147.423" fill="white"/>
<path d="M88.6704 147.941L90.3855 153.801V154.146L83.0106 152.94L81.2955 146.562L85.5833 147.423" stroke="#6F7590" stroke-miterlimit="10" stroke-linecap="round" stroke-linejoin="round"/>
<path d="M90.3856 154.146L88.6705 148.285L88.499 147.94L90.7287 145.01L90.9002 144.838L92.6153 142.597L93.6443 146.389L93.8158 146.734L94.5019 148.802L93.4728 150.181L93.3013 150.354L93.1298 150.526L92.6153 151.216L91.4147 152.767L91.2432 153.112L90.3856 154.146Z" fill="white" stroke="#6F7590" stroke-miterlimit="10" stroke-linecap="round" stroke-linejoin="round"/>
<g filter="url(#filter1_d_548_21883)">
<path d="M210.339 164.634C209.861 166.699 209.225 168.604 208.429 170.51C208.27 170.986 208.111 171.304 207.793 171.78C205.088 177.021 200.792 181.308 195.541 183.849C194.905 184.167 194.268 184.485 193.791 184.643C188.7 186.708 182.971 187.502 177.243 186.231C162.128 183.055 152.422 168.287 155.604 153.2C158.786 138.114 173.584 128.427 188.7 131.603C194.109 132.715 198.883 135.414 202.861 139.226C209.543 145.737 212.407 155.424 210.339 164.634Z" fill="url(#paint86_linear_548_21883)"/>
</g>
<path d="M194.021 156.568L193.041 156.406C192.551 156.406 192.225 156.081 192.062 155.595C191.898 155.271 191.898 154.946 191.735 154.784C191.571 154.46 191.572 153.973 191.898 153.649L192.388 152.838C192.715 152.351 192.714 151.703 192.225 151.379L190.592 149.757C190.102 149.271 189.449 149.27 189.123 149.595L188.306 150.082C187.98 150.406 187.49 150.405 187 150.243C186.674 150.081 186.347 149.919 186.184 149.919C185.694 149.757 185.531 149.433 185.367 148.946L185.204 147.973C185.041 147.324 184.551 147 184.061 147H181.776C181.123 147 180.633 147.487 180.633 147.973L180.469 148.946C180.469 149.433 180.143 149.757 179.653 149.919C179.327 150.081 179 150.081 178.837 150.243C178.51 150.405 178.021 150.406 177.694 150.082L176.878 149.595C176.388 149.27 175.735 149.271 175.408 149.757L173.775 151.379C173.286 151.865 173.286 152.514 173.612 152.838L174.102 153.649C174.429 153.973 174.429 154.46 174.265 154.784C174.102 155.108 173.939 155.433 173.939 155.595C173.776 156.081 173.449 156.244 172.959 156.406L171.98 156.568C171.327 156.73 171 157.216 171 157.703V159.973C171 160.621 171.49 161.108 171.98 161.108L172.959 161.27C173.449 161.27 173.776 161.595 173.939 162.081C174.102 162.406 174.102 162.73 174.265 162.892C174.429 163.216 174.429 163.703 174.102 164.189L173.612 165C173.286 165.486 173.286 166.135 173.775 166.621L175.408 168.243C175.898 168.729 176.551 168.73 176.878 168.405L177.694 167.919C178.021 167.595 178.51 167.595 178.837 167.757C179.163 167.919 179.49 168.081 179.653 168.081C180.143 168.243 180.306 168.567 180.469 169.054L180.633 170.027C180.796 170.676 181.286 171 181.776 171H184.061C184.714 171 185.204 170.513 185.204 170.027L185.367 169.054C185.367 168.567 185.694 168.243 186.184 168.081C186.51 167.919 186.837 167.919 187 167.757C187.327 167.595 187.817 167.595 188.306 167.919L189.123 168.405C189.612 168.73 190.265 168.729 190.592 168.243L192.225 166.621C192.714 166.135 192.715 165.486 192.388 165L191.898 164.189C191.572 163.865 191.571 163.379 191.735 162.892C191.898 162.568 192.062 162.243 192.062 162.081C192.225 161.595 192.551 161.433 193.041 161.27L194.021 161.108C194.674 160.946 195 160.459 195 159.973V157.703C195 157.054 194.674 156.568 194.021 156.568ZM183.245 162.73C180.959 162.73 179.163 160.946 179.163 158.676C179.163 156.406 180.959 154.622 183.245 154.622C185.531 154.622 187.327 156.406 187.327 158.676C187.163 160.946 185.367 162.73 183.245 162.73Z" fill="white"/>
<rect x="66" y="78" width="23.0588" height="23.0588" rx="11.5294" fill="#CED3DE"/>
<path d="M72.7255 89.5298L75.9281 92.7324L82.3333 86.3271" stroke="white" stroke-width="2.56209" stroke-linecap="round" stroke-linejoin="round"/>
<defs>
<filter id="filter0_d_548_21883" x="41.62" y="45.81" width="188.193" height="104.742" filterUnits="userSpaceOnUse" color-interpolation-filters="sRGB">
<feFlood flood-opacity="0" result="BackgroundImageFix"/>
<feColorMatrix in="SourceAlpha" type="matrix" values="0 0 0 0 0 0 0 0 0 0 0 0 0 0 0 0 0 0 127 0" result="hardAlpha"/>
<feOffset dy="9.19001"/>
<feGaussianBlur stdDeviation="9.19001"/>
<feColorMatrix type="matrix" values="0 0 0 0 0.397708 0 0 0 0 0.47749 0 0 0 0 0.575 0 0 0 0.27 0"/>
<feBlend mode="normal" in2="BackgroundImageFix" result="effect1_dropShadow_548_21883"/>
<feBlend mode="normal" in="SourceGraphic" in2="effect1_dropShadow_548_21883" result="shape"/>
</filter>
<filter id="filter1_d_548_21883" x="144.751" y="127.156" width="76.4988" height="76.3416" filterUnits="userSpaceOnUse" color-interpolation-filters="sRGB">
<feFlood flood-opacity="0" result="BackgroundImageFix"/>
<feColorMatrix in="SourceAlpha" type="matrix" values="0 0 0 0 0 0 0 0 0 0 0 0 0 0 0 0 0 0 127 0" result="hardAlpha"/>
<feOffset dy="6.40588"/>
<feGaussianBlur stdDeviation="5.12471"/>
<feColorMatrix type="matrix" values="0 0 0 0 0.1125 0 0 0 0 0.295916 0 0 0 0 1 0 0 0 0.22 0"/>
<feBlend mode="normal" in2="BackgroundImageFix" result="effect1_dropShadow_548_21883"/>
<feBlend mode="normal" in="SourceGraphic" in2="effect1_dropShadow_548_21883" result="shape"/>
</filter>
<linearGradient id="paint0_linear_548_21883" x1="-0.526" y1="26.839" x2="69.0127" y2="26.839" gradientUnits="userSpaceOnUse">
<stop stop-color="#83A6FF" stop-opacity="0"/>
<stop offset="1" stop-color="#5A78FF"/>
</linearGradient>
<linearGradient id="paint1_linear_548_21883" x1="-0.525485" y1="26.839" x2="69.0132" y2="26.839" gradientUnits="userSpaceOnUse">
<stop stop-color="#83A6FF" stop-opacity="0"/>
<stop offset="1" stop-color="#5A78FF"/>
</linearGradient>
<linearGradient id="paint2_linear_548_21883" x1="-0.525652" y1="26.8781" x2="69.013" y2="26.8781" gradientUnits="userSpaceOnUse">
<stop stop-color="#83A6FF" stop-opacity="0"/>
<stop offset="1" stop-color="#5A78FF"/>
</linearGradient>
<linearGradient id="paint3_linear_548_21883" x1="-0.525953" y1="42.6476" x2="69.0128" y2="42.6476" gradientUnits="userSpaceOnUse">
<stop stop-color="#83A6FF" stop-opacity="0"/>
<stop offset="1" stop-color="#5A78FF"/>
</linearGradient>
<linearGradient id="paint4_linear_548_21883" x1="-0.526081" y1="32.1946" x2="69.0126" y2="32.1946" gradientUnits="userSpaceOnUse">
<stop stop-color="#83A6FF" stop-opacity="0"/>
<stop offset="1" stop-color="#5A78FF"/>
</linearGradient>
<linearGradient id="paint5_linear_548_21883" x1="-0.525953" y1="48.0754" x2="69.0128" y2="48.0754" gradientUnits="userSpaceOnUse">
<stop stop-color="#83A6FF" stop-opacity="0"/>
<stop offset="1" stop-color="#5A78FF"/>
</linearGradient>
<linearGradient id="paint6_linear_548_21883" x1="-0.525648" y1="26.839" x2="69.0131" y2="26.839" gradientUnits="userSpaceOnUse">
<stop stop-color="#83A6FF" stop-opacity="0"/>
<stop offset="1" stop-color="#5A78FF"/>
</linearGradient>
<linearGradient id="paint7_linear_548_21883" x1="-0.525852" y1="28.499" x2="69.0128" y2="28.499" gradientUnits="userSpaceOnUse">
<stop stop-color="#83A6FF" stop-opacity="0"/>
<stop offset="1" stop-color="#5A78FF"/>
</linearGradient>
<linearGradient id="paint8_linear_548_21883" x1="-0.526188" y1="63.9643" x2="69.0125" y2="63.9643" gradientUnits="userSpaceOnUse">
<stop stop-color="#83A6FF" stop-opacity="0"/>
<stop offset="1" stop-color="#5A78FF"/>
</linearGradient>
<linearGradient id="paint9_linear_548_21883" x1="-0.525486" y1="67.6764" x2="69.0132" y2="67.6764" gradientUnits="userSpaceOnUse">
<stop stop-color="#83A6FF" stop-opacity="0"/>
<stop offset="1" stop-color="#5A78FF"/>
</linearGradient>
<linearGradient id="paint10_linear_548_21883" x1="-0.526145" y1="69.3175" x2="69.0125" y2="69.3175" gradientUnits="userSpaceOnUse">
<stop stop-color="#83A6FF" stop-opacity="0"/>
<stop offset="1" stop-color="#5A78FF"/>
</linearGradient>
<linearGradient id="paint11_linear_548_21883" x1="-0.526151" y1="37.2264" x2="69.0125" y2="37.2264" gradientUnits="userSpaceOnUse">
<stop stop-color="#83A6FF" stop-opacity="0"/>
<stop offset="1" stop-color="#5A78FF"/>
</linearGradient>
<linearGradient id="paint12_linear_548_21883" x1="-0.525396" y1="58.9268" x2="69.0133" y2="58.9268" gradientUnits="userSpaceOnUse">
<stop stop-color="#83A6FF" stop-opacity="0"/>
<stop offset="1" stop-color="#5A78FF"/>
</linearGradient>
<linearGradient id="paint13_linear_548_21883" x1="-0.525953" y1="53.5035" x2="69.0128" y2="53.5035" gradientUnits="userSpaceOnUse">
<stop stop-color="#83A6FF" stop-opacity="0"/>
<stop offset="1" stop-color="#5A78FF"/>
</linearGradient>
<linearGradient id="paint14_linear_548_21883" x1="-0.525626" y1="26.839" x2="69.0131" y2="26.839" gradientUnits="userSpaceOnUse">
<stop stop-color="#83A6FF" stop-opacity="0"/>
<stop offset="1" stop-color="#5A78FF"/>
</linearGradient>
<linearGradient id="paint15_linear_548_21883" x1="-0.52613" y1="69.3602" x2="69.0126" y2="69.3602" gradientUnits="userSpaceOnUse">
<stop stop-color="#83A6FF" stop-opacity="0"/>
<stop offset="1" stop-color="#5A78FF"/>
</linearGradient>
<linearGradient id="paint16_linear_548_21883" x1="0.677148" y1="83.6608" x2="69.5403" y2="83.6608" gradientUnits="userSpaceOnUse">
<stop stop-color="#FF66A9" stop-opacity="0"/>
<stop offset="1" stop-color="#F53689"/>
</linearGradient>
<linearGradient id="paint17_linear_548_21883" x1="0.676804" y1="83.6608" x2="69.54" y2="83.6608" gradientUnits="userSpaceOnUse">
<stop stop-color="#FF66A9" stop-opacity="0"/>
<stop offset="1" stop-color="#F53689"/>
</linearGradient>
<linearGradient id="paint18_linear_548_21883" x1="0.677415" y1="83.6608" x2="69.5405" y2="83.6608" gradientUnits="userSpaceOnUse">
<stop stop-color="#FF66A9" stop-opacity="0"/>
<stop offset="1" stop-color="#F53689"/>
</linearGradient>
<linearGradient id="paint19_linear_548_21883" x1="0.677015" y1="83.6608" x2="69.5401" y2="83.6608" gradientUnits="userSpaceOnUse">
<stop stop-color="#FF66A9" stop-opacity="0"/>
<stop offset="1" stop-color="#F53689"/>
</linearGradient>
<linearGradient id="paint20_linear_548_21883" x1="0.677341" y1="83.6608" x2="69.5405" y2="83.6608" gradientUnits="userSpaceOnUse">
<stop stop-color="#FF66A9" stop-opacity="0"/>
<stop offset="1" stop-color="#F53689"/>
</linearGradient>
<linearGradient id="paint21_linear_548_21883" x1="0.677438" y1="83.6608" x2="69.5405" y2="83.6608" gradientUnits="userSpaceOnUse">
<stop stop-color="#FF66A9" stop-opacity="0"/>
<stop offset="1" stop-color="#F53689"/>
</linearGradient>
<linearGradient id="paint22_linear_548_21883" x1="0.677238" y1="83.6608" x2="69.5403" y2="83.6608" gradientUnits="userSpaceOnUse">
<stop stop-color="#FF66A9" stop-opacity="0"/>
<stop offset="1" stop-color="#F53689"/>
</linearGradient>
<linearGradient id="paint23_linear_548_21883" x1="0.676993" y1="83.6608" x2="69.5402" y2="83.6608" gradientUnits="userSpaceOnUse">
<stop stop-color="#FF66A9" stop-opacity="0"/>
<stop offset="1" stop-color="#F53689"/>
</linearGradient>
<linearGradient id="paint24_linear_548_21883" x1="0.67712" y1="83.6608" x2="69.5402" y2="83.6608" gradientUnits="userSpaceOnUse">
<stop stop-color="#FF66A9" stop-opacity="0"/>
<stop offset="1" stop-color="#F53689"/>
</linearGradient>
<linearGradient id="paint25_linear_548_21883" x1="0.67709" y1="83.6608" x2="69.5402" y2="83.6608" gradientUnits="userSpaceOnUse">
<stop stop-color="#FF66A9" stop-opacity="0"/>
<stop offset="1" stop-color="#F53689"/>
</linearGradient>
<linearGradient id="paint26_linear_548_21883" x1="-0.525857" y1="139.604" x2="69.0128" y2="139.604" gradientUnits="userSpaceOnUse">
<stop stop-color="#83A6FF" stop-opacity="0"/>
<stop offset="1" stop-color="#5A78FF"/>
</linearGradient>
<linearGradient id="paint27_linear_548_21883" x1="-0.526636" y1="141.224" x2="69.0121" y2="141.224" gradientUnits="userSpaceOnUse">
<stop stop-color="#83A6FF" stop-opacity="0"/>
<stop offset="1" stop-color="#5A78FF"/>
</linearGradient>
<linearGradient id="paint28_linear_548_21883" x1="-0.526384" y1="130.875" x2="69.0123" y2="130.875" gradientUnits="userSpaceOnUse">
<stop stop-color="#83A6FF" stop-opacity="0"/>
<stop offset="1" stop-color="#5A78FF"/>
</linearGradient>
<linearGradient id="paint29_linear_548_21883" x1="-0.526672" y1="141.264" x2="69.012" y2="141.264" gradientUnits="userSpaceOnUse">
<stop stop-color="#83A6FF" stop-opacity="0"/>
<stop offset="1" stop-color="#5A78FF"/>
</linearGradient>
<linearGradient id="paint30_linear_548_21883" x1="-0.526685" y1="125.454" x2="69.012" y2="125.454" gradientUnits="userSpaceOnUse">
<stop stop-color="#83A6FF" stop-opacity="0"/>
<stop offset="1" stop-color="#5A78FF"/>
</linearGradient>
<linearGradient id="paint31_linear_548_21883" x1="-0.526442" y1="141.264" x2="69.0123" y2="141.264" gradientUnits="userSpaceOnUse">
<stop stop-color="#83A6FF" stop-opacity="0"/>
<stop offset="1" stop-color="#5A78FF"/>
</linearGradient>
<linearGradient id="paint32_linear_548_21883" x1="-0.526401" y1="141.264" x2="69.0123" y2="141.264" gradientUnits="userSpaceOnUse">
<stop stop-color="#83A6FF" stop-opacity="0"/>
<stop offset="1" stop-color="#5A78FF"/>
</linearGradient>
<linearGradient id="paint33_linear_548_21883" x1="-0.526081" y1="135.907" x2="69.0126" y2="135.907" gradientUnits="userSpaceOnUse">
<stop stop-color="#83A6FF" stop-opacity="0"/>
<stop offset="1" stop-color="#5A78FF"/>
</linearGradient>
<linearGradient id="paint34_linear_548_21883" x1="-0.525925" y1="100.425" x2="69.0128" y2="100.425" gradientUnits="userSpaceOnUse">
<stop stop-color="#83A6FF" stop-opacity="0"/>
<stop offset="1" stop-color="#5A78FF"/>
</linearGradient>
<linearGradient id="paint35_linear_548_21883" x1="-0.526687" y1="98.7854" x2="69.012" y2="98.7854" gradientUnits="userSpaceOnUse">
<stop stop-color="#83A6FF" stop-opacity="0"/>
<stop offset="1" stop-color="#5A78FF"/>
</linearGradient>
<linearGradient id="paint36_linear_548_21883" x1="-0.526921" y1="104.137" x2="69.0117" y2="104.137" gradientUnits="userSpaceOnUse">
<stop stop-color="#83A6FF" stop-opacity="0"/>
<stop offset="1" stop-color="#5A78FF"/>
</linearGradient>
<linearGradient id="paint37_linear_548_21883" x1="-0.526685" y1="120.026" x2="69.012" y2="120.026" gradientUnits="userSpaceOnUse">
<stop stop-color="#83A6FF" stop-opacity="0"/>
<stop offset="1" stop-color="#5A78FF"/>
</linearGradient>
<linearGradient id="paint38_linear_548_21883" x1="-0.526685" y1="114.599" x2="69.012" y2="114.599" gradientUnits="userSpaceOnUse">
<stop stop-color="#83A6FF" stop-opacity="0"/>
<stop offset="1" stop-color="#5A78FF"/>
</linearGradient>
<linearGradient id="paint39_linear_548_21883" x1="-0.526187" y1="109.176" x2="69.0125" y2="109.176" gradientUnits="userSpaceOnUse">
<stop stop-color="#83A6FF" stop-opacity="0"/>
<stop offset="1" stop-color="#5A78FF"/>
</linearGradient>
<linearGradient id="paint40_linear_548_21883" x1="-0.526419" y1="141.264" x2="69.0123" y2="141.264" gradientUnits="userSpaceOnUse">
<stop stop-color="#83A6FF" stop-opacity="0"/>
<stop offset="1" stop-color="#5A78FF"/>
</linearGradient>
<linearGradient id="paint41_linear_548_21883" x1="-0.526734" y1="98.7423" x2="69.012" y2="98.7423" gradientUnits="userSpaceOnUse">
<stop stop-color="#83A6FF" stop-opacity="0"/>
<stop offset="1" stop-color="#5A78FF"/>
</linearGradient>
<linearGradient id="paint42_linear_548_21883" x1="271.82" y1="42.6481" x2="210.994" y2="42.6481" gradientUnits="userSpaceOnUse">
<stop stop-color="#FF66A9" stop-opacity="0"/>
<stop offset="1" stop-color="#F53689"/>
</linearGradient>
<linearGradient id="paint43_linear_548_21883" x1="271.82" y1="48.0763" x2="210.994" y2="48.0763" gradientUnits="userSpaceOnUse">
<stop stop-color="#FF66A9" stop-opacity="0"/>
<stop offset="1" stop-color="#F53689"/>
</linearGradient>
<linearGradient id="paint44_linear_548_21883" x1="271.819" y1="58.9277" x2="210.994" y2="58.9277" gradientUnits="userSpaceOnUse">
<stop stop-color="#FF66A9" stop-opacity="0"/>
<stop offset="1" stop-color="#F53689"/>
</linearGradient>
<linearGradient id="paint45_linear_548_21883" x1="271.82" y1="63.9651" x2="210.995" y2="63.9651" gradientUnits="userSpaceOnUse">
<stop stop-color="#FF66A9" stop-opacity="0"/>
<stop offset="1" stop-color="#F53689"/>
</linearGradient>
<linearGradient id="paint46_linear_548_21883" x1="271.82" y1="69.3173" x2="210.994" y2="69.3173" gradientUnits="userSpaceOnUse">
<stop stop-color="#FF66A9" stop-opacity="0"/>
<stop offset="1" stop-color="#F53689"/>
</linearGradient>
<linearGradient id="paint47_linear_548_21883" x1="271.82" y1="67.6763" x2="210.995" y2="67.6763" gradientUnits="userSpaceOnUse">
<stop stop-color="#FF66A9" stop-opacity="0"/>
<stop offset="1" stop-color="#F53689"/>
</linearGradient>
<linearGradient id="paint48_linear_548_21883" x1="271.82" y1="69.3602" x2="210.995" y2="69.3602" gradientUnits="userSpaceOnUse">
<stop stop-color="#FF66A9" stop-opacity="0"/>
<stop offset="1" stop-color="#F53689"/>
</linearGradient>
<linearGradient id="paint49_linear_548_21883" x1="271.82" y1="53.5039" x2="210.994" y2="53.5039" gradientUnits="userSpaceOnUse">
<stop stop-color="#FF66A9" stop-opacity="0"/>
<stop offset="1" stop-color="#F53689"/>
</linearGradient>
<linearGradient id="paint50_linear_548_21883" x1="271.82" y1="26.839" x2="210.995" y2="26.839" gradientUnits="userSpaceOnUse">
<stop stop-color="#FF66A9" stop-opacity="0"/>
<stop offset="1" stop-color="#F53689"/>
</linearGradient>
<linearGradient id="paint51_linear_548_21883" x1="271.819" y1="26.839" x2="210.994" y2="26.839" gradientUnits="userSpaceOnUse">
<stop stop-color="#FF66A9" stop-opacity="0"/>
<stop offset="1" stop-color="#F53689"/>
</linearGradient>
<linearGradient id="paint52_linear_548_21883" x1="271.82" y1="26.839" x2="210.995" y2="26.839" gradientUnits="userSpaceOnUse">
<stop stop-color="#FF66A9" stop-opacity="0"/>
<stop offset="1" stop-color="#F53689"/>
</linearGradient>
<linearGradient id="paint53_linear_548_21883" x1="271.82" y1="37.2266" x2="210.995" y2="37.2266" gradientUnits="userSpaceOnUse">
<stop stop-color="#FF66A9" stop-opacity="0"/>
<stop offset="1" stop-color="#F53689"/>
</linearGradient>
<linearGradient id="paint54_linear_548_21883" x1="271.819" y1="32.1948" x2="210.994" y2="32.1948" gradientUnits="userSpaceOnUse">
<stop stop-color="#FF66A9" stop-opacity="0"/>
<stop offset="1" stop-color="#F53689"/>
</linearGradient>
<linearGradient id="paint55_linear_548_21883" x1="271.82" y1="28.4986" x2="210.995" y2="28.4986" gradientUnits="userSpaceOnUse">
<stop stop-color="#FF66A9" stop-opacity="0"/>
<stop offset="1" stop-color="#F53689"/>
</linearGradient>
<linearGradient id="paint56_linear_548_21883" x1="271.82" y1="26.8778" x2="210.995" y2="26.8778" gradientUnits="userSpaceOnUse">
<stop stop-color="#FF66A9" stop-opacity="0"/>
<stop offset="1" stop-color="#F53689"/>
</linearGradient>
<linearGradient id="paint57_linear_548_21883" x1="271.82" y1="26.839" x2="210.995" y2="26.839" gradientUnits="userSpaceOnUse">
<stop stop-color="#FF66A9" stop-opacity="0"/>
<stop offset="1" stop-color="#F53689"/>
</linearGradient>
<linearGradient id="paint58_linear_548_21883" x1="270.957" y1="83.6608" x2="200.996" y2="83.6608" gradientUnits="userSpaceOnUse">
<stop stop-color="#83A6FF" stop-opacity="0"/>
<stop offset="1" stop-color="#5A78FF"/>
</linearGradient>
<linearGradient id="paint59_linear_548_21883" x1="270.957" y1="83.6608" x2="200.997" y2="83.6608" gradientUnits="userSpaceOnUse">
<stop stop-color="#83A6FF" stop-opacity="0"/>
<stop offset="1" stop-color="#5A78FF"/>
</linearGradient>
<linearGradient id="paint60_linear_548_21883" x1="270.957" y1="83.6608" x2="200.996" y2="83.6608" gradientUnits="userSpaceOnUse">
<stop stop-color="#83A6FF" stop-opacity="0"/>
<stop offset="1" stop-color="#5A78FF"/>
</linearGradient>
<linearGradient id="paint61_linear_548_21883" x1="270.957" y1="83.6608" x2="200.997" y2="83.6608" gradientUnits="userSpaceOnUse">
<stop stop-color="#83A6FF" stop-opacity="0"/>
<stop offset="1" stop-color="#5A78FF"/>
</linearGradient>
<linearGradient id="paint62_linear_548_21883" x1="270.957" y1="83.6608" x2="200.996" y2="83.6608" gradientUnits="userSpaceOnUse">
<stop stop-color="#83A6FF" stop-opacity="0"/>
<stop offset="1" stop-color="#5A78FF"/>
</linearGradient>
<linearGradient id="paint63_linear_548_21883" x1="270.957" y1="83.6608" x2="200.997" y2="83.6608" gradientUnits="userSpaceOnUse">
<stop stop-color="#83A6FF" stop-opacity="0"/>
<stop offset="1" stop-color="#5A78FF"/>
</linearGradient>
<linearGradient id="paint64_linear_548_21883" x1="270.957" y1="83.6608" x2="200.996" y2="83.6608" gradientUnits="userSpaceOnUse">
<stop stop-color="#83A6FF" stop-opacity="0"/>
<stop offset="1" stop-color="#5A78FF"/>
</linearGradient>
<linearGradient id="paint65_linear_548_21883" x1="270.957" y1="83.6608" x2="200.996" y2="83.6608" gradientUnits="userSpaceOnUse">
<stop stop-color="#83A6FF" stop-opacity="0"/>
<stop offset="1" stop-color="#5A78FF"/>
</linearGradient>
<linearGradient id="paint66_linear_548_21883" x1="270.957" y1="83.6608" x2="200.997" y2="83.6608" gradientUnits="userSpaceOnUse">
<stop stop-color="#83A6FF" stop-opacity="0"/>
<stop offset="1" stop-color="#5A78FF"/>
</linearGradient>
<linearGradient id="paint67_linear_548_21883" x1="270.957" y1="83.6608" x2="200.996" y2="83.6608" gradientUnits="userSpaceOnUse">
<stop stop-color="#83A6FF" stop-opacity="0"/>
<stop offset="1" stop-color="#5A78FF"/>
</linearGradient>
<linearGradient id="paint68_linear_548_21883" x1="270.957" y1="100.424" x2="200.997" y2="100.424" gradientUnits="userSpaceOnUse">
<stop stop-color="#83A6FF" stop-opacity="0"/>
<stop offset="1" stop-color="#5A78FF"/>
</linearGradient>
<linearGradient id="paint69_linear_548_21883" x1="270.957" y1="104.137" x2="200.997" y2="104.137" gradientUnits="userSpaceOnUse">
<stop stop-color="#83A6FF" stop-opacity="0"/>
<stop offset="1" stop-color="#5A78FF"/>
</linearGradient>
<linearGradient id="paint70_linear_548_21883" x1="270.956" y1="109.175" x2="200.996" y2="109.175" gradientUnits="userSpaceOnUse">
<stop stop-color="#83A6FF" stop-opacity="0"/>
<stop offset="1" stop-color="#5A78FF"/>
</linearGradient>
<linearGradient id="paint71_linear_548_21883" x1="270.957" y1="98.7423" x2="200.996" y2="98.7423" gradientUnits="userSpaceOnUse">
<stop stop-color="#83A6FF" stop-opacity="0"/>
<stop offset="1" stop-color="#5A78FF"/>
</linearGradient>
<linearGradient id="paint72_linear_548_21883" x1="270.957" y1="120.025" x2="200.996" y2="120.025" gradientUnits="userSpaceOnUse">
<stop stop-color="#83A6FF" stop-opacity="0"/>
<stop offset="1" stop-color="#5A78FF"/>
</linearGradient>
<linearGradient id="paint73_linear_548_21883" x1="270.957" y1="114.599" x2="200.996" y2="114.599" gradientUnits="userSpaceOnUse">
<stop stop-color="#83A6FF" stop-opacity="0"/>
<stop offset="1" stop-color="#5A78FF"/>
</linearGradient>
<linearGradient id="paint74_linear_548_21883" x1="270.957" y1="125.454" x2="200.996" y2="125.454" gradientUnits="userSpaceOnUse">
<stop stop-color="#83A6FF" stop-opacity="0"/>
<stop offset="1" stop-color="#5A78FF"/>
</linearGradient>
<linearGradient id="paint75_linear_548_21883" x1="270.957" y1="98.7854" x2="200.997" y2="98.7854" gradientUnits="userSpaceOnUse">
<stop stop-color="#83A6FF" stop-opacity="0"/>
<stop offset="1" stop-color="#5A78FF"/>
</linearGradient>
<linearGradient id="paint76_linear_548_21883" x1="270.957" y1="135.907" x2="200.996" y2="135.907" gradientUnits="userSpaceOnUse">
<stop stop-color="#83A6FF" stop-opacity="0"/>
<stop offset="1" stop-color="#5A78FF"/>
</linearGradient>
<linearGradient id="paint77_linear_548_21883" x1="270.957" y1="130.876" x2="200.996" y2="130.876" gradientUnits="userSpaceOnUse">
<stop stop-color="#83A6FF" stop-opacity="0"/>
<stop offset="1" stop-color="#5A78FF"/>
</linearGradient>
<linearGradient id="paint78_linear_548_21883" x1="270.956" y1="141.263" x2="200.996" y2="141.263" gradientUnits="userSpaceOnUse">
<stop stop-color="#83A6FF" stop-opacity="0"/>
<stop offset="1" stop-color="#5A78FF"/>
</linearGradient>
<linearGradient id="paint79_linear_548_21883" x1="270.957" y1="141.263" x2="200.996" y2="141.263" gradientUnits="userSpaceOnUse">
<stop stop-color="#83A6FF" stop-opacity="0"/>
<stop offset="1" stop-color="#5A78FF"/>
</linearGradient>
<linearGradient id="paint80_linear_548_21883" x1="270.957" y1="141.263" x2="200.996" y2="141.263" gradientUnits="userSpaceOnUse">
<stop stop-color="#83A6FF" stop-opacity="0"/>
<stop offset="1" stop-color="#5A78FF"/>
</linearGradient>
<linearGradient id="paint81_linear_548_21883" x1="270.956" y1="141.223" x2="200.996" y2="141.223" gradientUnits="userSpaceOnUse">
<stop stop-color="#83A6FF" stop-opacity="0"/>
<stop offset="1" stop-color="#5A78FF"/>
</linearGradient>
<linearGradient id="paint82_linear_548_21883" x1="270.956" y1="139.604" x2="200.996" y2="139.604" gradientUnits="userSpaceOnUse">
<stop stop-color="#83A6FF" stop-opacity="0"/>
<stop offset="1" stop-color="#5A78FF"/>
</linearGradient>
<linearGradient id="paint83_linear_548_21883" x1="270.957" y1="141.263" x2="200.996" y2="141.263" gradientUnits="userSpaceOnUse">
<stop stop-color="#83A6FF" stop-opacity="0"/>
<stop offset="1" stop-color="#5A78FF"/>
</linearGradient>
<linearGradient id="paint84_linear_548_21883" x1="135.667" y1="53.4275" x2="135.667" y2="123.715" gradientUnits="userSpaceOnUse">
<stop stop-color="#FDFEFF"/>
<stop offset="0.9964" stop-color="#ECF0F5"/>
</linearGradient>
<linearGradient id="paint85_linear_548_21883" x1="96.3927" y1="74.8291" x2="143.875" y2="74.8291" gradientUnits="userSpaceOnUse">
<stop stop-color="#FF66A9"/>
<stop offset="1" stop-color="#F53689"/>
</linearGradient>
<linearGradient id="paint86_linear_548_21883" x1="155.016" y1="158.948" x2="211.027" y2="158.948" gradientUnits="userSpaceOnUse">
<stop stop-color="#83A6FF"/>
<stop offset="1" stop-color="#5277D7"/>
</linearGradient>
</defs>
</svg>
