<svg width="154" height="135" viewBox="0 0 154 135" fill="none" xmlns="http://www.w3.org/2000/svg">
<path d="M135.27 63.2635C135.27 77.272 130.694 90.1649 123.108 100.578C118.893 106.157 113.835 111.116 108.055 114.959C98.6621 121.281 87.4629 125 75.4208 125C42.3049 125 15.5713 97.3552 15.5713 63.3874C15.5713 29.2957 42.4253 1.77441 75.4208 1.77441C87.4629 1.77441 98.6621 5.49351 108.055 11.692C113.835 15.5351 118.893 20.4939 123.108 26.0725C130.815 36.362 135.27 49.2549 135.27 63.2635Z" fill="#EAEEF9"/>
<path opacity="0.3" d="M123.107 25.9489V100.455C118.892 106.033 113.835 110.992 108.055 114.835H47.2417V21.7339C47.3621 19.0066 48.4459 16.5272 50.1318 14.7916C52.0586 12.8081 54.5874 11.6924 57.4775 11.6924H108.055C113.835 15.5354 119.013 20.3703 123.107 25.9489Z" fill="#CED7E2"/>
<path d="M112.149 24.9572H77.9492V11.6924H122.866C122.987 11.6924 123.107 11.6924 123.107 11.6924C130.092 11.8164 135.752 17.7669 135.752 25.0811H120.94" fill="#CED7E2"/>
<path d="M124.071 11.6924C121.422 11.8164 119.013 13.0561 117.207 14.7916C117.086 14.9156 116.846 15.1635 116.725 15.4115C115.16 17.271 114.076 19.7504 114.076 22.3538V101.694C114.076 109.133 108.296 115.083 101.07 115.083H37.9695V21.7339C38.0899 19.0066 39.1737 16.5272 40.8596 14.7916C42.7863 12.8081 45.3152 11.6924 48.2053 11.6924H111.547H123.589C123.83 11.6924 123.95 11.6924 124.071 11.6924Z" fill="white"/>
<path d="M101.432 29.7919H82.7662C82.0437 29.7919 81.562 29.172 81.562 28.5522C81.562 27.9323 82.1641 27.3125 82.7662 27.3125H101.552C102.275 27.3125 102.756 27.9323 102.756 28.5522C102.756 29.172 102.154 29.7919 101.432 29.7919Z" fill="#CED7E2"/>
<path d="M73.9755 29.7919H49.5299C48.8074 29.7919 48.3257 29.172 48.3257 28.5522C48.3257 27.9323 48.9278 27.3125 49.5299 27.3125H73.9755C74.698 27.3125 75.1797 27.9323 75.1797 28.5522C75.1797 29.172 74.698 29.7919 73.9755 29.7919Z" fill="#CED7E2"/>
<path d="M89.6304 42.3124H65.3053C64.5828 42.3124 64.1011 41.6926 64.1011 41.0727C64.1011 40.3289 64.7032 39.833 65.3053 39.833H89.6304C90.353 39.833 90.8346 40.4529 90.8346 41.0727C90.8346 41.8165 90.353 42.3124 89.6304 42.3124Z" fill="#CED7E2"/>
<path d="M57.4777 42.3124H49.5299C48.8074 42.3124 48.3257 41.6926 48.3257 41.0727C48.3257 40.3289 48.9278 39.833 49.5299 39.833H57.4777C58.2002 39.833 58.6819 40.4529 58.6819 41.0727C58.6819 41.8165 58.0798 42.3124 57.4777 42.3124Z" fill="#E3EAF2"/>
<path d="M101.431 54.9579H86.4991C85.7766 54.9579 85.2949 54.3381 85.2949 53.7182C85.2949 52.9744 85.897 52.4785 86.4991 52.4785H101.431C102.154 52.4785 102.636 53.0984 102.636 53.7182C102.756 54.3381 102.154 54.9579 101.431 54.9579Z" fill="#E3EAF2"/>
<path d="M79.3944 54.9579H49.5299C48.8074 54.9579 48.3257 54.3381 48.3257 53.7182C48.3257 52.9744 48.9278 52.4785 49.5299 52.4785H79.3944C80.117 52.4785 80.5986 53.0984 80.5986 53.7182C80.5986 54.3381 80.117 54.9579 79.3944 54.9579Z" fill="#CED7E2"/>
<path d="M89.6302 67.4784H73.1324C72.4099 67.4784 71.9282 66.8586 71.9282 66.2387C71.9282 65.6189 72.5303 64.999 73.1324 64.999H89.6302C90.3527 64.999 90.8344 65.6189 90.8344 66.2387C90.8344 66.8586 90.3527 67.4784 89.6302 67.4784Z" fill="#CED7E2"/>
<path d="M66.0276 67.4784H49.5299C48.8074 67.4784 48.3257 66.8586 48.3257 66.2387C48.3257 65.6189 48.9278 64.999 49.5299 64.999H66.0276C66.7502 64.999 67.2319 65.6189 67.2319 66.2387C67.2319 66.8586 66.7502 67.4784 66.0276 67.4784Z" fill="#E3EAF2"/>
<path d="M101.432 80.1239H89.9916C89.269 80.1239 88.7874 79.5041 88.7874 78.8842C88.7874 78.1404 89.3895 77.6445 89.9916 77.6445H101.432C102.154 77.6445 102.636 78.2644 102.636 78.8842C102.756 79.5041 102.154 80.1239 101.432 80.1239Z" fill="#CED7E2"/>
<path d="M82.5256 80.1239H63.2582C62.5356 80.1239 62.054 79.5041 62.054 78.8842C62.054 78.1404 62.6561 77.6445 63.2582 77.6445H82.5256C83.2481 77.6445 83.7298 78.2644 83.7298 78.8842C83.8502 79.5041 83.2481 80.1239 82.5256 80.1239Z" fill="#E3EAF2"/>
<path d="M56.1531 80.1239H49.4095C48.687 80.1239 48.2053 79.5041 48.2053 78.8842C48.2053 78.1404 48.8074 77.6445 49.4095 77.6445H56.1531C56.8757 77.6445 57.3574 78.2644 57.3574 78.8842C57.3574 79.5041 56.8757 80.1239 56.1531 80.1239Z" fill="#CED7E2"/>
<path d="M89.6301 92.6444H78.1901C77.4675 92.6444 76.9858 92.0246 76.9858 91.4047C76.9858 90.7849 77.5879 90.165 78.1901 90.165H89.6301C90.3526 90.165 90.8343 90.7849 90.8343 91.4047C90.8343 92.0246 90.3526 92.6444 89.6301 92.6444Z" fill="#CED7E2"/>
<path d="M70.7241 92.6444H49.5299C48.8074 92.6444 48.3257 92.0246 48.3257 91.4047C48.3257 90.7849 48.9278 90.165 49.5299 90.165H70.7241C71.4466 90.165 71.9283 90.7849 71.9283 91.4047C71.9283 92.0246 71.3262 92.6444 70.7241 92.6444Z" fill="#E3EAF2"/>
<path d="M73.3734 104.422H89.9916C89.9916 107.273 91.0754 110.001 93.0021 111.86C94.8084 113.72 97.3373 114.959 100.227 114.959H25.2048C22.4351 114.959 19.7859 113.844 17.9795 111.86C16.1732 110.001 14.969 107.397 14.969 104.422H64.2214C64.3418 104.422 73.4938 104.546 73.3734 104.422Z" fill="#CED7E2"/>
<path d="M26.2695 14.7727C27.8507 14.2437 28.7159 12.4952 28.202 10.8674C27.6881 9.23957 25.9896 8.34888 24.4084 8.87796C22.8272 9.40704 21.962 11.1555 22.476 12.7833C22.9899 14.4111 24.6883 15.3018 26.2695 14.7727Z" fill="#EAEEF9"/>
<path d="M32.8413 4.65975C33.9165 4.29998 34.5049 3.11101 34.1554 2.00411C33.8059 0.897206 32.651 0.291539 31.5758 0.65131C30.5005 1.01108 29.9122 2.20005 30.2617 3.30695C30.6112 4.41386 31.7661 5.01952 32.8413 4.65975Z" fill="#EAEEF9"/>
<path d="M5.33501 71.4454C6.46563 71.4454 7.38217 70.5019 7.38217 69.338C7.38217 68.174 6.46563 67.2305 5.33501 67.2305C4.20439 67.2305 3.28784 68.174 3.28784 69.338C3.28784 70.5019 4.20439 71.4454 5.33501 71.4454Z" fill="url(#paint0_linear_860_33278)"/>
<path d="M147.622 45.3123C149.488 43.5572 149.618 40.5774 147.913 38.6568C146.208 36.7362 143.314 36.6021 141.448 38.3572C139.582 40.1123 139.452 43.0921 141.157 45.0127C142.862 46.9333 145.756 47.0675 147.622 45.3123Z" fill="#EAEEF9"/>
<path d="M146.71 24.7082C147.774 24.7082 148.637 23.8202 148.637 22.7247C148.637 21.6293 147.774 20.7412 146.71 20.7412C145.646 20.7412 144.783 21.6293 144.783 22.7247C144.783 23.8202 145.646 24.7082 146.71 24.7082Z" fill="url(#paint1_linear_860_33278)"/>
<g filter="url(#filter0_d_860_33278)">
<path d="M40.9799 42.0647C41.1003 46.1557 37.8489 49.6269 33.875 49.7508H31.9483L26.6497 49.8748C18.7019 50.1227 12.0787 43.5523 11.8379 35.3703C11.7175 27.1883 17.9794 20.37 25.9272 20.122C33.875 19.8741 40.4982 26.4445 40.7391 34.6265L40.8595 37.7257L40.9799 42.0647Z" fill="url(#paint2_linear_860_33278)"/>
</g>
<path d="M40.9802 42.0652C41.1006 46.1562 37.8492 49.6273 33.8753 49.7513H31.9485L22.074 39.5858L30.5035 31.7757L33.2732 30.1641L40.7393 37.8502L40.9802 42.0652Z" fill="url(#paint3_linear_860_33278)"/>
<path d="M24.3617 41.3197C23.88 41.3197 23.3983 41.1957 23.037 40.8238L19.5448 37.2287C18.8223 36.4849 18.8223 35.3691 19.5448 34.6253C20.2674 33.8815 21.3511 33.8815 22.0737 34.6253L24.2413 36.8568L30.6236 30.2864C31.3461 29.5426 32.4299 29.5426 33.1525 30.2864C33.875 31.0302 33.875 32.1459 33.1525 32.8897L25.4455 40.8238C25.3251 41.0718 24.8434 41.3197 24.3617 41.3197Z" fill="url(#paint4_linear_860_33278)"/>
<path d="M1 117.065H123.95" stroke="#EBF0F6" stroke-width="2" stroke-miterlimit="10" stroke-linecap="round" stroke-linejoin="round"/>
<g filter="url(#filter1_d_860_33278)">
<path d="M144.8 104.557C144.439 106.169 143.957 107.657 143.355 109.144C143.234 109.516 143.114 109.764 142.873 110.136C140.826 114.227 137.575 117.574 133.601 119.558C133.119 119.805 132.637 120.053 132.276 120.177C128.423 121.789 124.088 122.409 119.752 121.417C108.312 118.938 100.967 107.408 103.375 95.631C105.783 83.8538 116.983 76.2922 128.423 78.7715C132.517 79.6393 136.13 81.7466 139.14 84.7219C144.077 89.9286 146.245 97.3668 144.8 104.557Z" fill="url(#paint5_linear_860_33278)"/>
</g>
<path d="M132.741 107.149L129.61 103.926C132.018 100.207 131.055 95.2479 127.442 92.7685C123.83 90.2891 119.013 91.2809 116.604 95C114.196 98.7191 115.159 103.678 118.772 106.157C121.421 107.893 124.793 107.893 127.322 106.157L130.453 109.38C131.055 110 132.018 110 132.621 109.38C133.343 108.761 133.343 107.769 132.741 107.149ZM119.856 102.81C118.05 100.951 118.05 97.8513 119.856 95.9918C121.662 94.1322 124.673 94.1322 126.479 95.9918C128.285 97.8513 128.285 100.951 126.479 102.81C124.552 104.67 121.662 104.67 119.856 102.81Z" fill="url(#paint6_linear_860_33278)"/>
<defs>
<filter id="filter0_d_860_33278" x="3.83618" y="17.1152" width="45.147" height="45.7666" filterUnits="userSpaceOnUse" color-interpolation-filters="sRGB">
<feFlood flood-opacity="0" result="BackgroundImageFix"/>
<feColorMatrix in="SourceAlpha" type="matrix" values="0 0 0 0 0 0 0 0 0 0 0 0 0 0 0 0 0 0 127 0" result="hardAlpha"/>
<feOffset dy="5"/>
<feGaussianBlur stdDeviation="4"/>
<feColorMatrix type="matrix" values="0 0 0 0 0.968627 0 0 0 0 0.254902 0 0 0 0 0.564706 0 0 0 0.3 0"/>
<feBlend mode="normal" in2="BackgroundImageFix" result="effect1_dropShadow_860_33278"/>
<feBlend mode="normal" in="SourceGraphic" in2="effect1_dropShadow_860_33278" result="shape"/>
</filter>
<filter id="filter1_d_860_33278" x="94.9177" y="75.3008" width="58.323" height="59.5938" filterUnits="userSpaceOnUse" color-interpolation-filters="sRGB">
<feFlood flood-opacity="0" result="BackgroundImageFix"/>
<feColorMatrix in="SourceAlpha" type="matrix" values="0 0 0 0 0 0 0 0 0 0 0 0 0 0 0 0 0 0 127 0" result="hardAlpha"/>
<feOffset dy="5"/>
<feGaussianBlur stdDeviation="4"/>
<feColorMatrix type="matrix" values="0 0 0 0 0.1125 0 0 0 0 0.295916 0 0 0 0 1 0 0 0 0.22 0"/>
<feBlend mode="normal" in2="BackgroundImageFix" result="effect1_dropShadow_860_33278"/>
<feBlend mode="normal" in="SourceGraphic" in2="effect1_dropShadow_860_33278" result="shape"/>
</filter>
<linearGradient id="paint0_linear_860_33278" x1="3.29194" y1="69.3448" x2="7.27235" y2="69.3448" gradientUnits="userSpaceOnUse">
<stop stop-color="#83A6FF"/>
<stop offset="1" stop-color="#5A78FF"/>
</linearGradient>
<linearGradient id="paint1_linear_860_33278" x1="144.822" y1="22.7851" x2="148.56" y2="22.7851" gradientUnits="userSpaceOnUse">
<stop stop-color="#FF66A9"/>
<stop offset="1" stop-color="#F53689"/>
</linearGradient>
<linearGradient id="paint2_linear_860_33278" x1="11.838" y1="35.0477" x2="40.9256" y2="35.0477" gradientUnits="userSpaceOnUse">
<stop stop-color="#FF66A9"/>
<stop offset="1" stop-color="#F53689"/>
</linearGradient>
<linearGradient id="paint3_linear_860_33278" x1="27.4601" y1="34.6632" x2="35.0257" y2="42.0124" gradientUnits="userSpaceOnUse">
<stop stop-color="#E81778"/>
<stop offset="1" stop-color="#E01F79" stop-opacity="0"/>
</linearGradient>
<linearGradient id="paint4_linear_860_33278" x1="30.3431" y1="37.6351" x2="23.8199" y2="31.2985" gradientUnits="userSpaceOnUse">
<stop offset="0.0113208" stop-color="#FFC9E3"/>
<stop offset="1" stop-color="white"/>
</linearGradient>
<linearGradient id="paint5_linear_860_33278" x1="102.86" y1="100.157" x2="145.221" y2="100.157" gradientUnits="userSpaceOnUse">
<stop stop-color="#83A6FF"/>
<stop offset="1" stop-color="#5A78FF"/>
</linearGradient>
<linearGradient id="paint6_linear_860_33278" x1="130.886" y1="107.423" x2="120.161" y2="97.0042" gradientUnits="userSpaceOnUse">
<stop offset="0.0113208" stop-color="#C2D1FF"/>
<stop offset="1" stop-color="white"/>
</linearGradient>
</defs>
</svg>
