<svg width="151" height="142" viewBox="0 0 151 142" fill="none" xmlns="http://www.w3.org/2000/svg">
<path d="M74.0177 137.25C107.396 137.25 134.454 110.244 134.454 76.9311C134.454 43.6179 107.396 16.6123 74.0177 16.6123C40.6397 16.6123 13.5815 43.6179 13.5815 76.9311C13.5815 110.244 40.6397 137.25 74.0177 137.25Z" fill="#EAEEF9"/>
<path d="M39.8475 50.8379H106.607C109.16 50.8379 111.349 52.9011 111.349 55.5712V97.5637C111.349 100.112 109.282 102.297 106.607 102.297H39.8475C37.2938 102.297 35.105 100.234 35.105 97.5637V55.5712C35.105 53.0225 37.2938 50.8379 39.8475 50.8379Z" fill="#C0D6FF"/>
<path d="M102.837 50.8379H106.607C109.16 50.8379 111.349 52.9011 111.349 55.5712V97.5637C111.349 100.112 109.282 102.297 106.607 102.297H39.8475C37.2938 102.297 35.105 100.234 35.105 97.5637V55.5712C35.105 53.0225 37.1722 50.8379 39.8475 50.8379H91.6498" stroke="#6F7590" stroke-miterlimit="10" stroke-linecap="round" stroke-linejoin="round"/>
<path d="M144.347 61.8609C146.231 60.1427 146.363 57.2255 144.641 55.3452C142.92 53.465 139.997 53.3336 138.113 55.0519C136.229 56.7702 136.097 59.6873 137.819 61.5676C139.541 63.4479 142.463 63.5792 144.347 61.8609Z" fill="#E2EBFF"/>
<path d="M144.688 41.3568C145.481 40.6333 145.537 39.405 144.812 38.6133C144.087 37.8216 142.856 37.7664 142.063 38.4898C141.27 39.2133 141.215 40.4416 141.939 41.2333C142.664 42.025 143.895 42.0803 144.688 41.3568Z" fill="#E2EBFF"/>
<path d="M95.6032 12.9777C96.1485 12.4803 96.1866 11.6358 95.6882 11.0915C95.1899 10.5472 94.3438 10.5092 93.7985 11.0066C93.2531 11.504 93.215 12.3485 93.7134 12.8927C94.2118 13.437 95.0578 13.475 95.6032 12.9777Z" fill="#E2EBFF"/>
<path d="M135.569 28.7254L118.909 58.2171C118.301 59.188 117.085 59.5522 116.113 58.9454L87.6578 42.4395C86.685 41.8327 86.3201 40.6193 86.9281 39.6483L108.816 2.02495C109.424 1.05403 110.64 0.689812 111.613 1.29664L132.286 13.3117L135.569 28.7254Z" fill="white"/>
<path d="M107.236 4.45227L108.695 2.02495C109.303 1.05403 110.519 0.689812 111.492 1.29664L132.164 13.3117L135.569 28.8469L118.909 58.3386C118.301 59.3095 117.085 59.6737 116.113 59.0669L87.6578 42.561C86.685 41.9542 86.3201 40.7408 86.9281 39.7698L102.858 12.2196" stroke="#6F7590" stroke-miterlimit="10" stroke-linecap="round" stroke-linejoin="round"/>
<path d="M129.368 17.9238L127.422 21.2003C126.814 22.414 127.179 23.7493 128.273 24.4775L135.448 28.6038" stroke="#6F7590" stroke-miterlimit="10" stroke-linecap="round" stroke-linejoin="round"/>
<path d="M112.587 20.9584C113.073 20.837 113.56 20.8369 113.924 20.8369C114.411 20.8369 114.897 20.8369 115.384 20.8369C115.87 20.9583 116.478 21.0794 116.964 21.2008C117.572 21.4435 118.059 21.6864 118.545 21.9291C119.275 22.2932 119.883 22.7789 120.369 23.3857C120.856 23.8712 121.221 24.478 121.464 25.2062C121.707 25.813 121.707 26.5408 121.707 27.1476C121.585 27.8758 121.342 28.6042 120.977 29.211C120.613 29.8179 120.248 30.3031 119.761 30.7886C119.275 31.1526 118.91 31.3956 118.302 31.6384C117.816 31.8811 117.329 32.0022 116.843 32.0022L115.505 32.1237C115.14 32.1237 114.776 32.2453 114.289 32.3667C113.924 32.488 113.681 32.6093 113.438 32.852L112.1 34.551L109.912 33.3374L110.884 31.153C111.006 30.7889 111.371 30.4245 111.614 30.1817C111.979 29.939 112.344 29.8177 112.708 29.6964C113.195 29.575 113.56 29.5754 114.046 29.454C114.532 29.454 115.019 29.3324 115.505 29.211C115.992 29.0897 116.357 28.9684 116.843 28.7257C117.329 28.483 117.573 28.119 117.816 27.6335C117.937 27.3908 118.059 27.0263 118.18 26.6622C118.18 26.2981 118.181 26.0558 118.059 25.813C117.937 25.4489 117.816 25.206 117.572 24.9632C117.329 24.7205 117.086 24.4777 116.721 24.2349C116.356 23.9922 115.87 23.7495 115.384 23.6281C115.019 23.5067 114.654 23.5066 114.289 23.5066C113.924 23.5066 113.681 23.5066 113.438 23.5066C113.316 23.5066 113.073 23.5071 112.952 23.3857C112.709 23.2643 112.465 22.9001 112.465 22.6574L112.587 20.9584ZM106.142 37.4637C106.264 37.2209 106.507 36.9787 106.75 36.736C106.993 36.6146 107.236 36.3715 107.48 36.3715C108.088 36.2501 108.696 36.2504 109.182 36.6145C109.425 36.7358 109.669 36.9786 109.912 37.2213C110.033 37.464 110.155 37.7069 110.276 37.9496C110.641 39.1633 109.912 40.3767 108.696 40.7408C108.088 40.8622 107.48 40.7405 106.993 40.4978C106.75 40.3764 106.507 40.1337 106.264 39.891C106.142 39.6483 105.899 39.406 105.899 39.1633C105.777 38.9205 105.777 38.5562 105.899 38.3135C105.899 37.9494 106.02 37.7064 106.142 37.4637Z" fill="#C0D6FF"/>
<path d="M28.6806 15.8605L47.7721 35.6429C48.3801 36.3711 48.38 37.342 47.6504 38.0702L28.1941 56.3966C27.4644 57.0034 26.4916 57.0033 25.762 56.2751L1.56337 30.6674C0.955362 29.9392 0.955481 28.9683 1.68509 28.2401L15.7907 15.0107L28.6806 15.8605Z" fill="white"/>
<path d="M34.1529 21.565L47.6505 35.6429C48.2585 36.3711 48.2587 37.342 47.5291 38.0702L28.0728 56.3966C27.3432 57.0034 26.3703 57.0033 25.6407 56.2751L1.44179 30.6674C0.83378 29.9392 0.833899 28.9683 1.56351 28.2401L15.6694 15.0107L28.5591 15.982L29.6537 17.0742" stroke="#6F7590" stroke-miterlimit="10" stroke-linecap="round" stroke-linejoin="round"/>
<path d="M19.1675 18.5L21.0193 20.3516C21.7489 21.0798 22.965 21.0798 23.8162 20.3516L28.4997 16" stroke="#6F7590" stroke-miterlimit="10" stroke-linecap="round" stroke-linejoin="round"/>
<path d="M17.25 31.8806C17.25 31.5165 17.3718 31.1519 17.4934 30.7878C17.615 30.4237 17.7364 30.0598 17.858 29.6957C17.9796 29.3316 18.2228 28.9676 18.466 28.6035C18.7092 28.2394 19.0741 27.8754 19.4389 27.5113C19.9253 27.0259 20.4118 26.6619 21.0198 26.4191C21.5062 26.1764 22.1143 26.0547 22.6007 26.0547C23.0871 26.0547 23.6951 26.1763 24.1815 26.2977C24.668 26.5404 25.1543 26.9042 25.6407 27.2683C26.0055 27.6324 26.3703 28.118 26.4919 28.6035C26.6135 28.9676 26.7351 29.4532 26.8567 29.9386C26.8567 30.3027 26.8567 30.7882 26.8567 31.1523C26.7351 31.5164 26.7352 31.8804 26.6136 32.2445C26.6136 32.6086 26.4919 32.8511 26.4919 33.2152C26.4919 33.4579 26.4918 33.7007 26.735 33.9435L27.7079 35.4001L26.2487 36.7352L24.7896 35.4001C24.5463 35.1574 24.3031 34.9144 24.1815 34.5503C24.0599 34.1862 24.0598 33.9437 24.0598 33.5796C24.0598 33.2155 24.1815 32.8515 24.1815 32.4874C24.3031 32.1233 24.303 31.7588 24.303 31.3947C24.303 31.0306 24.3031 30.6666 24.1815 30.3025C24.0599 29.9384 23.8167 29.5744 23.5735 29.2103C23.4519 28.9676 23.2087 28.8463 22.9655 28.725C22.7223 28.6036 22.479 28.6035 22.2358 28.6035C21.9926 28.6035 21.7493 28.7251 21.5061 28.8465C21.2629 28.9678 21.0198 29.0891 20.7766 29.3318C20.5334 29.5745 20.2901 29.9383 20.0469 30.181C19.9253 30.4237 19.8036 30.6667 19.682 31.0308C19.5604 31.2735 19.5606 31.5163 19.5606 31.6376C19.5606 31.759 19.4391 31.8801 19.3175 32.0015C19.1959 32.2442 18.8309 32.2443 18.5877 32.123L17.25 31.8806ZM28.6808 40.6186C28.5591 40.4972 28.4375 40.2545 28.3159 40.0118C28.1943 39.769 28.1942 39.5262 28.1942 39.2834C28.1942 38.798 28.4374 38.313 28.8022 37.9489C28.9238 37.8275 29.167 37.7058 29.4102 37.5844C29.6534 37.4631 29.8967 37.463 30.1399 37.463C30.8695 37.463 31.599 37.9484 31.8422 38.6766C31.9638 38.9193 31.9639 39.1622 31.9639 39.4049C31.9639 39.6477 31.8422 39.8905 31.8422 40.1332C31.7206 40.376 31.5991 40.4973 31.3559 40.7401C31.2343 40.8614 30.9911 41.1039 30.7479 41.1039C30.2615 41.2253 29.775 41.2253 29.4102 41.1039C29.0454 40.9826 28.8024 40.8613 28.6808 40.6186Z" fill="#C0D6FF"/>
<path d="M78.2946 47.0516L70.8768 73.3876C70.6336 74.2371 69.6609 74.8438 68.8096 74.4798L43.1515 66.9554C42.3003 66.7127 41.6924 65.7415 42.0572 64.892L52.0285 31.031C52.2717 30.1815 53.2445 29.5748 54.0957 29.9389L72.7008 35.4003L78.2946 47.0516Z" fill="white"/>
<path d="M49.4744 39.8912L52.0282 31.2747C52.2714 30.4252 53.2441 29.8179 54.0953 30.182L72.7005 35.6434L78.4157 47.1732L70.9982 73.5098C70.755 74.3593 69.7819 74.9661 68.9307 74.602L43.2729 67.0776C42.4217 66.8349 41.8135 65.8637 42.1783 65.0142L47.0424 48.3868" stroke="#6F7590" stroke-miterlimit="10" stroke-linecap="round" stroke-linejoin="round"/>
<path d="M71.3628 39.8906L70.5116 42.8039C70.2684 43.7748 70.8766 44.8671 71.8494 45.2312L78.2943 47.1726" stroke="#6F7590" stroke-miterlimit="10" stroke-linecap="round" stroke-linejoin="round"/>
<path d="M58.7167 45.3519C59.0815 45.2306 59.4462 45.1095 59.811 44.9881C60.1758 44.8667 60.5407 44.7451 61.0271 44.7451C61.5135 44.7451 61.8784 44.7451 62.3648 44.7451C62.8512 44.7451 63.3376 44.8667 63.824 44.9881C64.432 45.1095 65.0402 45.4738 65.5266 45.8379C66.013 46.202 66.3778 46.5661 66.7426 47.0515C66.9858 47.537 67.229 48.0221 67.3506 48.5076C67.4722 49.1144 67.3505 49.7211 67.2289 50.2066C67.1073 50.692 66.8639 51.1777 66.4991 51.6632C66.2559 52.0273 65.8914 52.3912 65.5266 52.6339C65.1618 52.8766 64.7968 53.1194 64.432 53.2407L63.3377 53.6052C63.0945 53.7265 62.7297 53.8477 62.4865 53.969C62.2433 54.0904 61.9999 54.3331 61.9999 54.5759L61.2705 56.154L59.3248 55.5471L59.6896 53.6052C59.6896 53.2411 59.9327 52.9981 60.1759 52.7554C60.4191 52.5126 60.6623 52.2699 61.0271 52.1485C61.3919 52.0272 61.7567 51.9061 61.9999 51.7847C62.3647 51.6633 62.7297 51.5421 63.0945 51.2993C63.4593 51.178 63.7023 50.9352 64.0671 50.6925C64.3103 50.4498 64.5535 50.0852 64.6751 49.5997C64.7967 49.357 64.7968 49.1148 64.7968 48.872C64.7968 48.6293 64.6753 48.3864 64.5537 48.1437C64.4321 47.901 64.1889 47.7796 63.9457 47.5369C63.7025 47.4155 63.4593 47.2938 63.0945 47.1724C62.7297 47.0511 62.3649 47.0515 61.8785 47.0515C61.6353 47.0515 61.2703 47.0511 61.0271 47.1724C60.7839 47.1724 60.5407 47.2939 60.4191 47.2939C60.2974 47.2939 60.176 47.4153 59.9328 47.2939C59.6896 47.2939 59.4465 47.0513 59.4465 46.8086L58.7167 45.3519ZM56.8927 59.6735C57.0143 59.4307 57.0144 59.188 57.2576 59.0666C57.3792 58.8239 57.6223 58.7027 57.7439 58.5813C58.2303 58.3386 58.7168 58.3384 59.0816 58.4598C59.3248 58.5812 59.568 58.7023 59.6896 58.8237C59.8112 58.945 60.0543 59.1876 60.1759 59.309C60.6623 60.1586 60.2977 61.2509 59.4465 61.7363C58.9601 61.9791 58.4735 61.9792 58.1087 61.8578C57.8655 61.7364 57.6223 61.7367 57.5007 61.494C57.2575 61.3726 57.136 61.13 57.0144 61.0086C56.8928 60.7659 56.8926 60.6445 56.771 60.4018C56.771 60.159 56.7711 59.9162 56.8927 59.6735Z" fill="#C0D6FF"/>
<path d="M138.577 92.1217L114.431 105.122C113.65 105.539 112.537 105.263 112.209 104.4L99.8373 80.7705C99.4219 79.9914 99.7004 78.8805 100.566 78.5512L131.912 62.1481C132.693 61.7316 133.806 62.0066 134.134 62.8701L143.101 80.0074L138.577 92.1217Z" fill="white"/>
<path d="M138.577 92.1217L114.431 105.122C113.65 105.539 112.537 105.263 112.209 104.4L99.8373 80.7705C99.4219 79.9914 99.7004 78.8805 100.566 78.5512L131.912 62.1481C132.693 61.7316 133.806 62.0066 134.134 62.8701L143.101 80.0074L138.577 92.1217Z" stroke="#6F7590" stroke-miterlimit="10" stroke-linecap="round" stroke-linejoin="round"/>
<path d="M138.77 82.1829L136.253 83.4298C135.384 83.9308 135.018 85.1265 135.43 86.0773L138.501 92.0494" stroke="#6F7590" stroke-miterlimit="10" stroke-linecap="round" stroke-linejoin="round"/>
<path d="M126.138 76.8188C126.479 76.9959 126.819 77.1731 127.16 77.3502C127.5 77.5273 127.841 77.7042 128.179 78.0529C128.516 78.4016 128.769 78.6632 129.106 79.0119C129.444 79.3606 129.693 79.7938 129.943 80.2269C130.277 80.7471 130.437 81.4359 130.512 82.0378C130.586 82.6397 130.577 83.1544 130.48 83.7535C130.298 84.2655 130.117 84.7776 129.851 85.2024C129.497 85.7116 128.976 86.0465 128.541 86.297C128.107 86.5474 127.587 86.7108 126.984 86.7869C126.553 86.8658 126.038 86.8573 125.609 86.7646C125.181 86.6719 124.753 86.5793 124.413 86.4022L123.391 85.8705C123.135 85.7806 122.794 85.6038 122.538 85.5139C122.282 85.4239 121.938 85.4185 121.763 85.5873L120.119 86.1613L119.207 84.3447L120.861 83.2554C121.123 83.0022 121.467 83.0081 121.811 83.0136C122.154 83.0192 122.498 83.0247 122.839 83.2018C123.179 83.3789 123.52 83.5558 123.776 83.6457C124.117 83.8228 124.457 83.9999 124.886 84.0926C125.226 84.2697 125.57 84.2753 125.998 84.368C126.342 84.3735 126.773 84.2947 127.207 84.0443C127.642 83.7938 128.08 83.3717 128.089 82.8569C128.18 82.601 128.099 82.3422 128.105 81.9991C128.024 81.7403 127.943 81.4818 127.777 81.1359C127.612 80.7899 127.359 80.5283 127.022 80.1797C126.853 80.0053 126.6 79.7437 126.343 79.6538C126.175 79.4794 125.918 79.3896 125.834 79.3024C125.75 79.2153 125.578 79.2126 125.497 78.9538C125.328 78.7795 125.334 78.4365 125.51 78.2677L126.138 76.8188ZM114.631 85.3869C114.891 85.3053 115.066 85.1363 115.322 85.2262C115.581 85.1446 115.838 85.2343 116.01 85.2371C116.522 85.4169 116.859 85.7658 117.025 86.1117C117.106 86.3705 117.187 86.6291 117.184 86.8006C117.181 86.9722 117.175 87.3154 117.171 87.487C117.078 87.9146 116.64 88.3365 116.293 88.5026C116.033 88.5842 115.774 88.666 115.602 88.6633C115.43 88.6605 115.086 88.6548 114.915 88.652C114.402 88.4721 114.065 88.1237 113.899 87.7777C113.818 87.519 113.649 87.3448 113.74 87.0888C113.659 86.8301 113.75 86.5737 113.753 86.4021C113.844 86.1461 113.931 86.0617 114.022 85.8058C114.197 85.6369 114.456 85.5557 114.631 85.3869Z" fill="#C0D6FF"/>
<path d="M77.9292 14.2831L77.1994 14.1616C76.8346 14.1616 76.5916 13.9189 76.47 13.5548C76.3484 13.3121 76.3482 13.0693 76.2266 12.948C76.105 12.7053 76.1051 12.3409 76.3483 12.0982L76.7132 11.4914C76.9564 11.1273 76.9562 10.6419 76.5914 10.3992L75.3754 9.18553C75.0106 8.82143 74.5243 8.82131 74.2811 9.06404L73.6731 9.42849C73.4299 9.67123 73.065 9.67075 72.7002 9.54939C72.457 9.42802 72.2138 9.30701 72.0922 9.30701C71.7274 9.18564 71.6058 8.94279 71.4842 8.5787L71.3625 7.85038C71.2409 7.36492 70.8762 7.12207 70.5113 7.12207H68.809C68.3226 7.12207 67.9579 7.48629 67.9579 7.85038L67.8362 8.5787C67.8362 8.94279 67.593 9.18564 67.2282 9.30701C66.985 9.42838 66.7418 9.42802 66.6202 9.54939C66.3769 9.67075 66.0122 9.67123 65.769 9.42849L65.161 9.06404C64.7962 8.82131 64.3096 8.82143 64.0664 9.18553L62.8504 10.3992C62.4856 10.7633 62.4857 11.2486 62.729 11.4914L63.0938 12.0982C63.337 12.3409 63.3368 12.7053 63.2152 12.948C63.0936 13.1907 62.9721 13.4334 62.9721 13.5548C62.8505 13.9189 62.6072 14.0403 62.2424 14.1616L61.5129 14.2831C61.0265 14.4045 60.7832 14.7682 60.7832 15.1323V16.8313C60.7832 17.3168 61.1481 17.6811 61.5129 17.6811L62.2424 17.8026C62.6072 17.8026 62.8505 18.0453 62.9721 18.4094C63.0937 18.6522 63.0936 18.8949 63.2152 19.0163C63.3368 19.259 63.337 19.6229 63.0938 19.987L62.729 20.5938C62.4857 20.9579 62.4856 21.4434 62.8504 21.8074L64.0664 23.0211C64.4312 23.3852 64.9178 23.3853 65.161 23.1426L65.769 22.7787C66.0122 22.536 66.3769 22.5359 66.6202 22.6572C66.8634 22.7786 67.1066 22.8996 67.2282 22.8996C67.593 23.021 67.7146 23.2638 67.8362 23.6279L67.9579 24.3562C68.0795 24.8417 68.4442 25.0846 68.809 25.0846H70.5113C70.9978 25.0846 71.3625 24.7203 71.3625 24.3562L71.4842 23.6279C71.4842 23.2638 71.7274 23.021 72.0922 22.8996C72.3354 22.7783 72.5786 22.7786 72.7002 22.6572C72.9434 22.5359 73.3083 22.536 73.6731 22.7787L74.2811 23.1426C74.6459 23.3853 75.1322 23.3852 75.3754 23.0211L76.5914 21.8074C76.9562 21.4434 76.9564 20.9579 76.7132 20.5938L76.3483 19.987C76.1051 19.7442 76.105 19.3804 76.2266 19.0163C76.3482 18.7735 76.47 18.5308 76.47 18.4094C76.5916 18.0453 76.8346 17.924 77.1994 17.8026L77.9292 17.6811C78.4156 17.5598 78.6586 17.1954 78.6586 16.8313V15.1323C78.6586 14.6469 78.4156 14.2831 77.9292 14.2831ZM69.9033 18.8948C68.2009 18.8948 66.8633 17.5598 66.8633 15.8606C66.8633 14.1615 68.2009 12.8265 69.9033 12.8265C71.6058 12.8265 72.9434 14.1615 72.9434 15.8606C72.8218 17.5598 71.4842 18.8948 69.9033 18.8948Z" fill="#EA67A4"/>
<path d="M18.2227 79.9417L17.7364 79.8208C17.4932 79.8208 17.3714 79.5778 17.2498 79.4564C17.2498 79.335 17.1283 79.0924 17.0067 78.971C16.8851 78.7283 16.8852 78.4856 17.1284 78.3642L17.3716 78.0004C17.4932 77.7576 17.4932 77.3933 17.3716 77.1506L16.5204 76.3008C16.2772 76.058 15.9124 76.058 15.6692 76.3008L15.3044 76.5437C15.0612 76.6651 14.818 76.6651 14.6964 76.5437C14.5748 76.4224 14.3314 76.4221 14.2098 76.3008C13.9666 76.1794 13.8452 76.0581 13.8452 75.8154L13.7235 75.3301C13.7235 75.0873 13.4803 74.8447 13.1155 74.8447H12.0212C11.6564 74.8447 11.4132 75.0873 11.4132 75.3301L11.2915 75.8154C11.2915 76.0581 11.0482 76.1794 10.9266 76.3008C10.805 76.3008 10.5619 76.4224 10.4403 76.5437C10.1971 76.6651 9.9539 76.6651 9.8323 76.5437L9.46743 76.3008C9.22423 76.058 8.85948 76.1794 8.61628 76.3008L7.76512 77.1506C7.52192 77.3933 7.52192 77.7576 7.76512 78.0004L8.00827 78.3642C8.12987 78.6069 8.12987 78.7283 8.00827 78.971C7.88667 79.0924 7.88673 79.335 7.76512 79.4564C7.64352 79.6991 7.52174 79.8208 7.27854 79.8208L6.79225 79.9417C6.54905 79.9417 6.30566 80.1845 6.30566 80.5486V81.6413C6.30566 82.0054 6.54905 82.2482 6.79225 82.2482L7.27854 82.369C7.52174 82.369 7.64352 82.6121 7.76512 82.7335C7.76512 82.8549 7.88667 83.0975 8.00827 83.2188C8.12987 83.4616 8.12987 83.7043 8.00827 83.8257L7.76512 84.1895C7.64352 84.4323 7.64352 84.7966 7.76512 85.0393L8.61628 85.8891C8.85948 86.1319 9.22423 86.1319 9.46743 85.8891L9.8323 85.6462C9.9539 85.5248 10.1971 85.5247 10.4403 85.5247C10.5619 85.646 10.805 85.6463 10.9266 85.7676C11.1698 85.889 11.2915 86.0103 11.2915 86.253L11.4132 86.7383C11.4132 86.9811 11.6564 87.2237 12.0212 87.2237H13.1155C13.4803 87.2237 13.7235 86.9811 13.7235 86.7383L13.8452 86.253C13.8452 86.0103 14.0882 85.889 14.2098 85.7676C14.3314 85.7676 14.5748 85.646 14.6964 85.5247C14.9396 85.4033 15.1828 85.4034 15.3044 85.6462L15.6692 85.8891C15.9124 86.0105 16.2772 86.0105 16.5204 85.8891L17.3716 85.0393C17.6148 84.7966 17.6148 84.4323 17.3716 84.1895L17.1284 83.8257C17.0068 83.5829 17.0067 83.3402 17.0067 83.2188C17.1283 83.0975 17.1282 82.8549 17.2498 82.7335C17.3714 82.4908 17.4932 82.369 17.7364 82.369L18.2227 82.2482C18.4659 82.2482 18.7093 82.0054 18.7093 81.6413V80.5486C18.8309 80.1845 18.5875 79.9417 18.2227 79.9417ZM12.6292 83.2188C11.5348 83.2188 10.5617 82.2477 10.5617 81.1554C10.5617 80.0631 11.5348 79.0925 12.6292 79.0925C13.7236 79.0925 14.6964 80.0631 14.6964 81.1554C14.6964 82.2477 13.8452 83.2188 12.6292 83.2188Z" fill="#EA67A4"/>
<path d="M112.586 77.8787V98.6324C112.586 101.302 110.397 103.487 107.722 103.487H39.1385C36.4632 103.487 34.2744 101.302 34.2744 98.6324V76.1797" stroke="#84A2FF" stroke-width="3" stroke-linecap="round" stroke-linejoin="round"/>
<path d="M116.477 59.916H88.3866C85.7114 59.916 83.0363 60.8872 80.9691 62.5863L73.5513 68.6546C71.484 70.3537 68.809 71.3249 66.1337 71.3249H34.1524C30.9907 71.3249 28.3154 73.8733 28.3154 77.1502C28.3154 77.3929 28.3155 77.7573 28.4372 78L34.2738 109.069C34.7602 111.982 37.1923 114.167 40.1107 114.167H108.208C111.126 114.167 113.558 112.103 114.045 109.191L122.192 66.7126C122.678 63.5571 120.611 60.523 117.328 60.0375C117.085 59.9161 116.72 59.916 116.477 59.916Z" fill="white"/>
<path d="M37.4356 71.3249H34.1524C30.9907 71.3249 28.3154 73.8733 28.3154 77.1502C28.3154 77.3929 28.3155 77.7573 28.4372 78L34.2738 109.069C34.7602 111.982 37.1923 114.167 40.1107 114.167H108.208C111.126 114.167 113.558 112.103 114.045 109.191L122.192 66.7126C122.678 63.5571 120.611 60.523 117.328 60.0375C116.963 60.0375 116.72 59.916 116.355 59.916H88.2652C85.59 59.916 82.9146 60.8872 80.8474 62.5863L73.4298 68.6546C71.3626 70.3537 68.6872 71.3249 66.012 71.3249H47.042" stroke="#6F7590" stroke-miterlimit="10" stroke-linecap="round" stroke-linejoin="round"/>
<path d="M61.9995 92.2001C63.6785 92.2001 65.0396 90.8417 65.0396 89.166C65.0396 87.4903 63.6785 86.1318 61.9995 86.1318C60.3205 86.1318 58.9595 87.4903 58.9595 89.166C58.9595 90.8417 60.3205 92.2001 61.9995 92.2001Z" fill="#6F7590"/>
<path d="M85.8335 92.0781C87.5125 92.0781 88.8735 90.7196 88.8735 89.0439C88.8735 87.3682 87.5125 86.0098 85.8335 86.0098C84.1545 86.0098 82.7935 87.3682 82.7935 89.0439C82.7935 90.7196 84.1545 92.0781 85.8335 92.0781Z" fill="#6F7590"/>
<path d="M80.483 97.1758H78.9024C77.5648 94.3844 74.1598 93.2921 71.4846 94.7485C70.3902 95.234 69.539 96.2049 69.0526 97.1758H67.4717C68.8093 93.5348 72.9439 91.7145 76.4704 93.0495C78.2944 93.7777 79.7534 95.234 80.483 97.1758Z" fill="#6F7590"/>
<path d="M129.384 110.417C129.019 111.995 128.533 113.451 127.925 114.907C127.803 115.271 127.682 115.514 127.438 115.878C125.371 119.883 122.088 123.16 118.075 125.102C117.589 125.345 117.102 125.588 116.738 125.709C112.846 127.287 108.469 127.894 104.091 126.923C92.5387 124.495 85.121 113.208 87.5531 101.679C89.9851 90.1488 101.294 82.7455 112.846 85.1728C116.981 86.0223 120.629 88.0856 123.669 90.9983C128.654 95.9743 130.843 103.378 129.384 110.417Z" fill="white"/>
<g filter="url(#filter0_d_860_33209)">
<path d="M130.026 111.631C129.661 113.208 129.175 114.665 128.567 116.121C128.445 116.485 128.324 116.728 128.081 117.092C126.013 121.097 122.73 124.374 118.717 126.316C118.231 126.559 117.744 126.801 117.38 126.923C113.488 128.501 109.111 129.107 104.733 128.136C93.1808 125.709 85.7631 114.422 88.1952 102.892C90.6272 91.3626 101.936 83.9593 113.488 86.3866C117.623 87.2362 121.271 89.2994 124.311 92.2122C129.418 97.1882 131.607 104.592 130.026 111.631Z" fill="url(#paint0_linear_860_33209)"/>
</g>
<path d="M117.971 114.046L114.81 110.89C117.242 107.249 116.269 102.395 112.621 99.9673C108.973 97.54 104.109 98.5113 101.677 102.152C99.2445 105.793 100.217 110.648 103.865 113.075C106.541 114.774 109.945 114.774 112.499 113.075L115.661 116.231C116.269 116.838 117.242 116.838 117.85 116.231C118.458 115.624 118.579 114.653 117.971 114.046ZM104.838 109.92C103.014 108.099 103.014 105.065 104.838 103.244C106.662 101.424 109.702 101.424 111.526 103.244C113.35 105.065 113.35 108.099 111.526 109.92C109.702 111.74 106.662 111.74 104.838 109.92Z" fill="white"/>
<defs>
<filter id="filter0_d_860_33209" x="79.7334" y="82.9258" width="58.7983" height="58.6787" filterUnits="userSpaceOnUse" color-interpolation-filters="sRGB">
<feFlood flood-opacity="0" result="BackgroundImageFix"/>
<feColorMatrix in="SourceAlpha" type="matrix" values="0 0 0 0 0 0 0 0 0 0 0 0 0 0 0 0 0 0 127 0" result="hardAlpha"/>
<feOffset dy="5"/>
<feGaussianBlur stdDeviation="4"/>
<feColorMatrix type="matrix" values="0 0 0 0 0.1125 0 0 0 0 0.295916 0 0 0 0 1 0 0 0 0.22 0"/>
<feBlend mode="normal" in2="BackgroundImageFix" result="effect1_dropShadow_860_33209"/>
<feBlend mode="normal" in="SourceGraphic" in2="effect1_dropShadow_860_33209" result="shape"/>
</filter>
<linearGradient id="paint0_linear_860_33209" x1="87.7456" y1="107.285" x2="130.552" y2="107.285" gradientUnits="userSpaceOnUse">
<stop stop-color="#83A6FF"/>
<stop offset="1" stop-color="#5277D7"/>
</linearGradient>
</defs>
</svg>
