<svg viewBox="0 0 134 168" fill="none" xmlns="http://www.w3.org/2000/svg">
<path d="M63.3589 139.885C94.9064 139.885 120.482 114.309 120.482 82.6483C120.482 50.9881 94.7937 25.4121 63.3589 25.4121C31.8114 25.4121 6.23535 50.9881 6.23535 82.6483C6.23535 114.309 31.8114 139.885 63.3589 139.885Z" fill="#F1F3F9"/>
<path d="M2.96471 51.9294C4.60207 51.9294 5.92941 50.6021 5.92941 48.9647C5.92941 47.3273 4.60207 46 2.96471 46C1.32734 46 0 47.3273 0 48.9647C0 50.6021 1.32734 51.9294 2.96471 51.9294Z" fill="#F1F3F9"/>
<path d="M129.265 39.176L128.531 39.0543C128.163 39.0543 127.919 38.811 127.796 38.4462C127.674 38.2029 127.673 37.9597 127.551 37.8381C127.429 37.5948 127.429 37.2297 127.674 36.9865L128.041 36.3784C128.286 36.0136 128.286 35.5272 127.918 35.284L126.694 34.0678C126.327 33.7029 125.837 33.7028 125.592 33.946L124.98 34.3112C124.735 34.5545 124.367 34.554 124 34.4324C123.755 34.3108 123.51 34.1895 123.388 34.1895C123.021 34.0679 122.898 33.8245 122.776 33.4597L122.653 32.7298C122.531 32.2434 122.163 32 121.796 32H120.082C119.592 32 119.225 32.365 119.225 32.7298L119.102 33.4597C119.102 33.8245 118.857 34.0679 118.49 34.1895C118.245 34.3111 118 34.3108 117.878 34.4324C117.633 34.554 117.265 34.5545 117.021 34.3112L116.408 33.946C116.041 33.7028 115.551 33.7029 115.306 34.0678L114.082 35.284C113.714 35.6488 113.714 36.1352 113.959 36.3784L114.327 36.9865C114.572 37.2297 114.571 37.5948 114.449 37.8381C114.327 38.0813 114.204 38.3246 114.204 38.4462C114.082 38.811 113.837 38.9327 113.469 39.0543L112.735 39.176C112.245 39.2976 112 39.6621 112 40.027V41.7295C112 42.216 112.367 42.5811 112.735 42.5811L113.469 42.7028C113.837 42.7028 114.082 42.9461 114.204 43.3109C114.327 43.5542 114.327 43.7974 114.449 43.919C114.571 44.1623 114.572 44.5269 114.327 44.8918L113.959 45.4999C113.714 45.8647 113.714 46.3512 114.082 46.716L115.306 47.9322C115.673 48.2971 116.163 48.2972 116.408 48.054L117.021 47.6894C117.265 47.4461 117.633 47.446 117.878 47.5676C118.123 47.6892 118.367 47.8105 118.49 47.8105C118.857 47.9321 118.98 48.1755 119.102 48.5403L119.225 49.2702C119.347 49.7566 119.714 50 120.082 50H121.796C122.286 50 122.653 49.635 122.653 49.2702L122.776 48.5403C122.776 48.1755 123.021 47.9321 123.388 47.8105C123.633 47.6889 123.878 47.6892 124 47.5676C124.245 47.446 124.612 47.4461 124.98 47.6894L125.592 48.054C125.959 48.2972 126.449 48.2971 126.694 47.9322L127.918 46.716C128.286 46.3512 128.286 45.8647 128.041 45.4999L127.674 44.8918C127.429 44.6485 127.429 44.2839 127.551 43.919C127.673 43.6758 127.796 43.4326 127.796 43.3109C127.919 42.9461 128.163 42.8245 128.531 42.7028L129.265 42.5811C129.755 42.4595 130 42.0944 130 41.7295V40.027C130 39.5405 129.755 39.176 129.265 39.176ZM121.184 43.7973C119.469 43.7973 118.122 42.4595 118.122 40.7568C118.122 39.0542 119.469 37.7163 121.184 37.7163C122.898 37.7163 124.245 39.0542 124.245 40.7568C124.122 42.4595 122.776 43.7973 121.184 43.7973Z" fill="url(#paint0_linear_548_41013)"/>
<path d="M95.7651 10.0737C95.34 10.0737 95 9.7337 95 9.30865V0.765094C95 0.340042 95.34 0 95.7651 0C96.1901 0 96.5302 0.340042 96.5302 0.765094V9.30865C96.5302 9.7337 96.1901 10.0737 95.7651 10.0737Z" fill="#CED3DE"/>
<path d="M101.971 16.6196C101.971 16.1945 102.311 15.8545 102.736 15.8545H111.28C111.705 15.8545 112.045 16.1945 112.045 16.6196C112.045 17.0446 111.705 17.3847 111.28 17.3847H102.736C102.311 17.3847 101.971 17.0446 101.971 16.6196Z" fill="#CED3DE"/>
<path d="M101.291 11.0935C100.993 10.796 100.993 10.2859 101.291 9.98839L107.369 3.95264C107.667 3.65511 108.177 3.65511 108.474 3.95264C108.772 4.25018 108.772 4.76024 108.474 5.05778L102.438 11.0935C102.098 11.3911 101.588 11.3911 101.291 11.0935Z" fill="#CED3DE"/>
<g filter="url(#filter0_d_548_41013)">
<path d="M95.4314 97C97.2771 97 98.7732 98.4962 98.7732 100.342V126.909C98.7732 128.755 97.2771 130.251 95.4314 130.251H27.3418C25.4962 130.251 24 128.755 24 126.909L24 100.342C24 98.4962 25.4962 97 27.3418 97L95.4314 97Z" fill="url(#paint1_linear_548_41013)"/>
</g>
<rect x="50.4705" y="107.588" width="24.3529" height="4.23529" rx="2.11765" fill="#CED3DE"/>
<rect x="50.4705" y="116.059" width="30.7059" height="4.23529" rx="2.11765" fill="#CED3DE"/>
<g clip-path="url(#clip0_548_41013)">
<rect x="29.8235" y="105.588" width="16" height="16" rx="8" fill="#CED3DE"/>
<path d="M34.3232 117.088L41.3235 110.088" stroke="white" stroke-width="2" stroke-linecap="round" stroke-linejoin="round"/>
<path d="M34.3232 110.088L41.3232 117.088" stroke="white" stroke-width="2" stroke-linecap="round" stroke-linejoin="round"/>
</g>
<g filter="url(#filter1_d_548_41013)">
<path d="M95.4314 55C97.2771 55 98.7732 56.4962 98.7732 58.3418V84.9093C98.7732 86.7549 97.2771 88.2511 95.4314 88.2511H27.3418C25.4962 88.2511 24 86.755 24 84.9093L24 58.3418C24 56.4962 25.4962 55 27.3418 55L95.4314 55Z" fill="url(#paint2_linear_548_41013)"/>
</g>
<rect x="50.4707" y="65.5879" width="30.7059" height="4.23529" rx="2.11765" fill="#CED3DE"/>
<rect x="50.4707" y="74.0586" width="41.2941" height="4.23529" rx="2.11765" fill="#CED3DE"/>
<rect x="29.2942" y="63.4707" width="16.9412" height="16.9412" rx="8.47059" fill="#CED3DE"/>
<path d="M34.2354 71.9408L36.5883 74.2938L41.2942 69.5879" stroke="white" stroke-width="1.88235" stroke-linecap="round" stroke-linejoin="round"/>
<g filter="url(#filter2_d_548_41013)">
<path d="M95.4314 13C97.2771 13 98.7732 14.4962 98.7732 16.3418V42.9093C98.7732 44.7549 97.2771 46.2511 95.4314 46.2511H27.3418C25.4962 46.2511 24 44.755 24 42.9093L24 16.3418C24 14.4962 25.4962 13 27.3418 13L95.4314 13Z" fill="url(#paint3_linear_548_41013)"/>
</g>
<rect x="50.353" y="23.2939" width="42.3529" height="4.23529" rx="2.11765" fill="#CED3DE"/>
<rect x="50.353" y="31.7646" width="28.5882" height="4.23529" rx="2.11765" fill="#CED3DE"/>
<rect x="29.1765" y="21.1768" width="16.9412" height="16.9412" rx="8.47059" fill="#CED3DE"/>
<path d="M34.1177 29.6469L36.4706 31.9998L41.1765 27.2939" stroke="white" stroke-width="1.88235" stroke-linecap="round" stroke-linejoin="round"/>
<g filter="url(#filter3_d_548_41013)">
<path d="M124.864 136.856C124.434 138.684 123.789 140.511 123.037 142.124C120.994 145.995 117.877 149.113 114.008 151.048C110.031 153.091 105.302 153.843 100.465 152.876C89.2864 150.51 82.0849 139.651 84.4496 128.47C86.8142 117.288 97.6702 110.084 108.849 112.45C112.825 113.31 116.372 115.245 119.275 118.041C124.219 122.986 126.261 130.082 124.864 136.856Z" fill="url(#paint4_linear_548_41013)"/>
</g>
<path d="M110.398 127.165C110.865 127.138 111.266 126.787 111.237 126.322L111.257 125.106C111.228 124.64 110.876 124.241 110.409 124.268L98.7861 124.206C98.3193 124.234 97.919 124.585 97.9474 125.05L97.928 126.266C97.9564 126.731 98.3087 127.131 98.7756 127.104C98.7845 128.785 99.5842 130.373 100.784 131.61L102.518 133.143C102.765 133.362 102.689 133.647 102.508 133.751L100.764 135.115C99.4203 136.129 98.6766 137.761 98.5427 139.404C98.0758 139.432 97.6756 139.782 97.704 140.248L97.6845 141.464C97.7129 141.929 98.0653 142.329 98.5321 142.301L110.155 142.363C110.622 142.335 111.022 141.985 110.994 141.519L111.118 140.484C111.089 140.019 110.737 139.619 110.27 139.647C110.261 137.965 109.462 136.377 108.223 135.282L106.49 133.75C106.242 133.531 106.176 133.207 106.357 133.103L108.101 131.739C109.521 130.441 110.264 128.808 110.398 127.165ZM106.872 130.036L104.909 131.647C104.69 131.894 104.261 131.779 104.157 131.598L102.319 129.884C101.576 129.228 101.157 128.505 100.957 127.535C100.891 127.212 101.11 126.966 101.434 126.9C101.434 126.9 101.434 126.9 101.577 126.938L107.998 126.98C108.283 127.057 108.531 127.275 108.455 127.56C108.455 127.56 108.455 127.56 108.417 127.703C108.007 128.661 107.635 129.477 106.872 130.036Z" fill="white"/>
<defs>
<filter id="filter0_d_548_41013" x="7" y="87" width="108.773" height="67.251" filterUnits="userSpaceOnUse" color-interpolation-filters="sRGB">
<feFlood flood-opacity="0" result="BackgroundImageFix"/>
<feColorMatrix in="SourceAlpha" type="matrix" values="0 0 0 0 0 0 0 0 0 0 0 0 0 0 0 0 0 0 127 0" result="hardAlpha"/>
<feOffset dy="7"/>
<feGaussianBlur stdDeviation="8.5"/>
<feColorMatrix type="matrix" values="0 0 0 0 0.397708 0 0 0 0 0.47749 0 0 0 0 0.575 0 0 0 0.27 0"/>
<feBlend mode="normal" in2="BackgroundImageFix" result="effect1_dropShadow_548_41013"/>
<feBlend mode="normal" in="SourceGraphic" in2="effect1_dropShadow_548_41013" result="shape"/>
</filter>
<filter id="filter1_d_548_41013" x="7" y="45" width="108.773" height="67.251" filterUnits="userSpaceOnUse" color-interpolation-filters="sRGB">
<feFlood flood-opacity="0" result="BackgroundImageFix"/>
<feColorMatrix in="SourceAlpha" type="matrix" values="0 0 0 0 0 0 0 0 0 0 0 0 0 0 0 0 0 0 127 0" result="hardAlpha"/>
<feOffset dy="7"/>
<feGaussianBlur stdDeviation="8.5"/>
<feColorMatrix type="matrix" values="0 0 0 0 0.397708 0 0 0 0 0.47749 0 0 0 0 0.575 0 0 0 0.27 0"/>
<feBlend mode="normal" in2="BackgroundImageFix" result="effect1_dropShadow_548_41013"/>
<feBlend mode="normal" in="SourceGraphic" in2="effect1_dropShadow_548_41013" result="shape"/>
</filter>
<filter id="filter2_d_548_41013" x="7" y="3" width="108.773" height="67.251" filterUnits="userSpaceOnUse" color-interpolation-filters="sRGB">
<feFlood flood-opacity="0" result="BackgroundImageFix"/>
<feColorMatrix in="SourceAlpha" type="matrix" values="0 0 0 0 0 0 0 0 0 0 0 0 0 0 0 0 0 0 127 0" result="hardAlpha"/>
<feOffset dy="7"/>
<feGaussianBlur stdDeviation="8.5"/>
<feColorMatrix type="matrix" values="0 0 0 0 0.397708 0 0 0 0 0.47749 0 0 0 0 0.575 0 0 0 0.27 0"/>
<feBlend mode="normal" in2="BackgroundImageFix" result="effect1_dropShadow_548_41013"/>
<feBlend mode="normal" in="SourceGraphic" in2="effect1_dropShadow_548_41013" result="shape"/>
</filter>
<filter id="filter3_d_548_41013" x="75.5294" y="108.824" width="58.2354" height="58.2351" filterUnits="userSpaceOnUse" color-interpolation-filters="sRGB">
<feFlood flood-opacity="0" result="BackgroundImageFix"/>
<feColorMatrix in="SourceAlpha" type="matrix" values="0 0 0 0 0 0 0 0 0 0 0 0 0 0 0 0 0 0 127 0" result="hardAlpha"/>
<feOffset dy="5.29412"/>
<feGaussianBlur stdDeviation="4.23529"/>
<feColorMatrix type="matrix" values="0 0 0 0 0.1125 0 0 0 0 0.295916 0 0 0 0 1 0 0 0 0.22 0"/>
<feBlend mode="normal" in2="BackgroundImageFix" result="effect1_dropShadow_548_41013"/>
<feBlend mode="normal" in="SourceGraphic" in2="effect1_dropShadow_548_41013" result="shape"/>
</filter>
<linearGradient id="paint0_linear_548_41013" x1="112.025" y1="40.7615" x2="129.486" y2="40.7615" gradientUnits="userSpaceOnUse">
<stop stop-color="#FF66A9"/>
<stop offset="1" stop-color="#F53689"/>
</linearGradient>
<linearGradient id="paint1_linear_548_41013" x1="61.3623" y1="96.2309" x2="61.3623" y2="130.61" gradientUnits="userSpaceOnUse">
<stop stop-color="#FDFEFF"/>
<stop offset="0.9964" stop-color="#ECF0F5"/>
</linearGradient>
<linearGradient id="paint2_linear_548_41013" x1="61.3623" y1="54.2309" x2="61.3623" y2="88.6096" gradientUnits="userSpaceOnUse">
<stop stop-color="#FDFEFF"/>
<stop offset="0.9964" stop-color="#ECF0F5"/>
</linearGradient>
<linearGradient id="paint3_linear_548_41013" x1="61.3623" y1="12.2309" x2="61.3623" y2="46.6096" gradientUnits="userSpaceOnUse">
<stop stop-color="#FDFEFF"/>
<stop offset="0.9964" stop-color="#ECF0F5"/>
</linearGradient>
<linearGradient id="paint4_linear_548_41013" x1="86.4168" y1="122.814" x2="122.979" y2="143.408" gradientUnits="userSpaceOnUse">
<stop stop-color="#83A6FF"/>
<stop offset="0.994956" stop-color="#5277D7"/>
</linearGradient>
<clipPath id="clip0_548_41013">
<rect x="29.2942" y="105.471" width="16.9412" height="16.9412" rx="3.76471" fill="white"/>
</clipPath>
</defs>
</svg>
