<svg width="24" height="24" viewBox="0 0 24 24" fill="none" xmlns="http://www.w3.org/2000/svg">
<circle cx="2.70061" cy="13.638" r="0.556078" transform="rotate(17.9934 2.70061 13.638)" fill="currentColor"/>
<circle cx="2.84164" cy="9.69466" r="0.556078" transform="rotate(34.611 2.84164 9.69466)" fill="currentColor"/>
<circle cx="4.55222" cy="6.16467" r="0.556078" transform="rotate(-40.1029 4.55222 6.16467)" fill="currentColor"/>
<circle cx="7.5521" cy="3.65771" r="0.556078" transform="rotate(-40.1029 7.5521 3.65771)" fill="currentColor"/>
<path d="M11.8524 2.50117C13.4776 2.47564 15.0822 2.86755 16.5127 3.6394C17.9432 4.41125 19.1517 5.53724 20.0227 6.90965C20.8937 8.28206 21.3979 9.85499 21.4872 11.478C21.5766 13.101 21.2479 14.7197 20.5328 16.1794C19.8178 17.6391 18.7401 18.8909 17.4029 19.8151C16.0658 20.7393 14.5138 21.3049 12.8956 21.4578C11.2774 21.6108 9.64696 21.346 8.16032 20.6888C6.67367 20.0315 5.38053 19.0038 4.40458 17.704" stroke="currentColor" stroke-linecap="round" stroke-linejoin="round"/>
<path d="M12.0016 6L12.0013 12.6004C12.0013 12.7863 11.8981 12.9569 11.7335 13.0432L8.00159 15" stroke="currentColor" stroke-linecap="round"/>
<circle cx="2.70066" cy="13.638" r="0.556078" transform="rotate(17.9934 2.70066 13.638)" fill="currentColor"/>
<circle cx="2.84166" cy="9.6946" r="0.556078" transform="rotate(34.611 2.84166 9.6946)" fill="currentColor"/>
<circle cx="4.55223" cy="6.16467" r="0.556078" transform="rotate(-40.1029 4.55223 6.16467)" fill="currentColor"/>
<circle cx="7.55207" cy="3.65765" r="0.556078" transform="rotate(-40.1029 7.55207 3.65765)" fill="currentColor"/>
<path d="M11.8524 2.50117C13.4776 2.47564 15.0822 2.86755 16.5127 3.6394C17.9432 4.41125 19.1517 5.53724 20.0227 6.90965C20.8937 8.28206 21.3979 9.85499 21.4872 11.478C21.5766 13.101 21.2479 14.7197 20.5328 16.1794C19.8178 17.6391 18.7401 18.8909 17.4029 19.8151C16.0658 20.7393 14.5138 21.3049 12.8956 21.4578C11.2774 21.6108 9.64696 21.346 8.16032 20.6888C6.67367 20.0315 5.38053 19.0038 4.40458 17.704" stroke="currentColor" stroke-linecap="round" stroke-linejoin="round"/>
<path d="M12.0016 6L12.0013 12.6004C12.0013 12.7863 11.8981 12.9569 11.7335 13.0432L8.00159 15" stroke="currentColor" stroke-linecap="round"/>
</svg>
