<svg viewBox="0 0 16 16" fill="none" xmlns="http://www.w3.org/2000/svg">
<path fill-rule="evenodd" clip-rule="evenodd" d="M10.9998 6.875C10.1589 6.87613 9.33924 7.13484 8.65071 7.61526C8.50601 7.5289 8.35533 7.4514 8.20253 7.38035C8.61419 7.06464 8.95419 6.66387 9.19878 6.20442C9.4781 5.67973 9.62445 5.09452 9.62499 4.50012C9.62499 2.50408 7.99603 0.875 5.99999 0.875C4.00396 0.875 2.37499 2.50396 2.37499 4.5C2.37499 5.66998 2.93466 6.71756 3.79921 7.3818C2.22363 8.13825 1.08299 9.67318 0.900585 11.4881C0.864733 11.8449 1.15854 12.125 1.49999 12.125C1.84859 12.125 2.11425 11.8433 2.15464 11.5163C2.39136 9.60023 4.01782 8.125 5.99999 8.125C6.61304 8.125 7.18605 8.27177 7.69912 8.52662C7.16485 9.23907 6.87484 10.1068 6.87499 11C6.87501 13.272 8.72797 15.125 11 15.125C13.272 15.125 15.125 13.272 15.125 11C15.125 8.72796 13.2719 6.875 10.9998 6.875ZM5.99999 2.125C7.31746 2.125 8.37499 3.18254 8.37499 4.5C8.37499 5.81746 7.31746 6.875 5.99999 6.875C4.68253 6.875 3.62499 5.81746 3.62499 4.5C3.62499 3.18254 4.68253 2.125 5.99999 2.125ZM11 8.125C12.594 8.125 13.875 9.40604 13.875 11C13.875 12.594 12.594 13.875 11 13.875C9.40603 13.875 8.12499 12.594 8.12499 11C8.12499 9.40604 9.40603 8.125 11 8.125ZM10.375 9.5V10.375H9.49999C9.15482 10.375 8.87499 10.6548 8.87499 11C8.87499 11.3452 9.15482 11.625 9.49999 11.625H10.375V12.5C10.375 12.8452 10.6548 13.125 11 13.125C11.3452 13.125 11.625 12.8452 11.625 12.5V11.625H12.5C12.8452 11.625 13.125 11.3452 13.125 11C13.125 10.6548 12.8452 10.375 12.5 10.375H11.625V9.5C11.625 9.15482 11.3452 8.875 11 8.875C10.6548 8.875 10.375 9.15482 10.375 9.5Z" fill="currentColor"/>
</svg>
