<svg  viewBox="0 0 160 150" fill="none" xmlns="http://www.w3.org/2000/svg">
<path d="M5.50823 27.3625C7.35187 26.7608 8.36067 24.7723 7.76143 22.9211C7.1622 21.0698 5.18185 20.0569 3.33821 20.6586C1.49457 21.2603 0.485775 23.2488 1.08501 25.1C1.68424 26.9512 3.66459 27.9642 5.50823 27.3625Z" fill="#EAEEF9"/>
<path d="M13.1704 15.8627C14.4241 15.4536 15.1101 14.1014 14.7026 12.8426C14.2951 11.5838 12.9485 10.8949 11.6948 11.3041C10.4411 11.7132 9.75514 13.0654 10.1626 14.3242C10.5701 15.5831 11.9167 16.2719 13.1704 15.8627Z" fill="#EAEEF9"/>
<path d="M14.2642 136.797C15.1172 136.797 15.8087 136.102 15.8087 135.246C15.8087 134.389 15.1172 133.695 14.2642 133.695C13.4112 133.695 12.7197 134.389 12.7197 135.246C12.7197 136.102 13.4112 136.797 14.2642 136.797Z" fill="#EA67A4"/>
<path d="M158.531 82.4606C159.342 82.1958 159.786 81.3209 159.522 80.5063C159.259 79.6918 158.387 79.2461 157.576 79.5109C156.765 79.7756 156.321 80.6506 156.585 81.4651C156.848 82.2796 157.72 82.7253 158.531 82.4606Z" fill="url(#paint0_linear_2297:1284848)"/>
<path d="M121.592 5.29974C122.846 4.89057 123.532 3.53839 123.124 2.27954C122.717 1.0207 121.37 0.331902 120.117 0.741069C118.863 1.15024 118.177 2.50243 118.584 3.76127C118.992 5.02011 120.339 5.70891 121.592 5.29974Z" fill="url(#paint1_linear_2297:1284848)"/>
<path d="M155.589 39.2292C157.764 37.2332 157.916 33.8444 155.928 31.6602C153.94 29.4759 150.565 29.3234 148.39 31.3194C146.215 33.3155 146.063 36.7043 148.051 38.8885C150.038 41.0727 153.413 41.2253 155.589 39.2292Z" fill="#EAEEF9"/>
<path d="M155.992 15.2105C156.908 14.3701 156.972 12.9433 156.135 12.0236C155.298 11.1039 153.877 11.0397 152.961 11.8801C152.045 12.7205 151.981 14.1474 152.818 15.0671C153.655 15.9867 155.076 16.051 155.992 15.2105Z" fill="#EAEEF9"/>
<path d="M75.6218 143C114.162 143 145.405 111.628 145.405 72.9297C145.405 34.2309 114.162 2.85938 75.6218 2.85938C37.0818 2.85938 5.83887 34.2309 5.83887 72.9297C5.83887 111.628 37.0818 143 75.6218 143Z" fill="#EAEEF9"/>
<path d="M143.86 17.6632V98.1665C143.86 99.8584 142.456 101.268 140.771 101.268H30.5509C28.866 101.268 27.4619 99.8584 27.4619 98.1665V17.6632C27.4619 15.9714 28.866 14.5615 30.5509 14.5615H140.631C142.456 14.5615 143.86 15.9714 143.86 17.6632Z" fill="white"/>
<path d="M36.3076 20.4829V101.268H30.5509C28.866 101.268 27.4619 99.8583 27.4619 98.1665V20.4829H36.3076Z" fill="#F4F6FD"/>
<path d="M145.333 17.6414V21.3834H26.666V17.6414C26.666 16.0376 28.0975 14.7012 29.8152 14.7012H142.04C143.901 14.7012 145.333 16.0376 145.333 17.6414Z" fill="url(#paint2_linear_2297:1284848)"/>
<path d="M115.358 14.5615H140.631C142.316 14.5615 143.72 15.9714 143.72 17.6632V98.1665C143.72 99.8584 142.316 101.268 140.631 101.268H30.5509C28.866 101.268 27.4619 99.8584 27.4619 98.1665V17.6632C27.4619 15.9714 28.866 14.5615 30.5509 14.5615H103.563" stroke="#6F7590" stroke-miterlimit="10" stroke-linecap="round" stroke-linejoin="round"/>
<path d="M30.9721 19.3552C31.5149 19.3552 31.955 18.9133 31.955 18.3683C31.955 17.8232 31.5149 17.3813 30.9721 17.3813C30.4293 17.3813 29.9893 17.8232 29.9893 18.3683C29.9893 18.9133 30.4293 19.3552 30.9721 19.3552Z" fill="white"/>
<path d="M33.7807 19.3552C34.3235 19.3552 34.7636 18.9133 34.7636 18.3683C34.7636 17.8232 34.3235 17.3813 33.7807 17.3813C33.2379 17.3813 32.7979 17.8232 32.7979 18.3683C32.7979 18.9133 33.2379 19.3552 33.7807 19.3552Z" fill="white"/>
<path d="M36.5883 19.3552C37.1311 19.3552 37.5712 18.9133 37.5712 18.3683C37.5712 17.8232 37.1311 17.3813 36.5883 17.3813C36.0455 17.3813 35.6055 17.8232 35.6055 18.3683C35.6055 18.9133 36.0455 19.3552 36.5883 19.3552Z" fill="white"/>
<path d="M61.721 28.801H40.0981C39.5365 28.801 39.1152 28.378 39.1152 27.8141C39.1152 27.2501 39.5365 26.8271 40.0981 26.8271H61.721C62.2826 26.8271 62.7038 27.2501 62.7038 27.8141C62.7038 28.378 62.1422 28.801 61.721 28.801Z" fill="#C0D6FF"/>
<path d="M31.9542 28.801H31.1118C30.5501 28.801 30.1289 28.378 30.1289 27.8141C30.1289 27.2501 30.5501 26.8271 31.1118 26.8271H31.9542C32.5159 26.8271 32.9371 27.2501 32.9371 27.8141C32.9371 28.378 32.5159 28.801 31.9542 28.801Z" fill="#C0D6FF"/>
<path d="M31.9542 33.3127H31.1118C30.5501 33.3127 30.1289 32.8897 30.1289 32.3258C30.1289 31.7618 30.5501 31.3389 31.1118 31.3389H31.9542C32.5159 31.3389 32.9371 31.7618 32.9371 32.3258C32.9371 32.8897 32.5159 33.3127 31.9542 33.3127Z" fill="#C0D6FF"/>
<path d="M31.9542 37.8239H31.1118C30.5501 37.8239 30.1289 37.401 30.1289 36.837C30.1289 36.2731 30.5501 35.8501 31.1118 35.8501H31.9542C32.5159 35.8501 32.9371 36.2731 32.9371 36.837C32.9371 37.401 32.5159 37.8239 31.9542 37.8239Z" fill="#C0D6FF"/>
<path d="M31.9542 42.3356H31.1118C30.5501 42.3356 30.1289 41.9127 30.1289 41.3487C30.1289 40.7848 30.5501 40.3618 31.1118 40.3618H31.9542C32.5159 40.3618 32.9371 40.7848 32.9371 41.3487C32.9371 41.9127 32.5159 42.3356 31.9542 42.3356Z" fill="#C0D6FF"/>
<path d="M31.9542 46.8473H31.1118C30.5501 46.8473 30.1289 46.4244 30.1289 45.8604C30.1289 45.2965 30.5501 44.8735 31.1118 44.8735H31.9542C32.5159 44.8735 32.9371 45.2965 32.9371 45.8604C32.9371 46.4244 32.5159 46.8473 31.9542 46.8473Z" fill="#C0D6FF"/>
<path d="M31.9542 51.218H31.1118C30.5501 51.218 30.1289 50.795 30.1289 50.231C30.1289 49.6671 30.5501 49.2441 31.1118 49.2441H31.9542C32.5159 49.2441 32.9371 49.6671 32.9371 50.231C32.9371 50.936 32.5159 51.218 31.9542 51.218Z" fill="#C0D6FF"/>
<path d="M31.9542 55.7297H31.1118C30.5501 55.7297 30.1289 55.3067 30.1289 54.7428C30.1289 54.1788 30.5501 53.7559 31.1118 53.7559H31.9542C32.5159 53.7559 32.9371 54.1788 32.9371 54.7428C32.9371 55.3067 32.5159 55.7297 31.9542 55.7297Z" fill="#C0D6FF"/>
<path d="M31.9542 60.2409H31.1118C30.5501 60.2409 30.1289 59.8179 30.1289 59.254C30.1289 58.69 30.5501 58.2671 31.1118 58.2671H31.9542C32.5159 58.2671 32.9371 58.69 32.9371 59.254C32.9371 59.8179 32.5159 60.2409 31.9542 60.2409Z" fill="#C0D6FF"/>
<path d="M31.9542 64.7526H31.1118C30.5501 64.7526 30.1289 64.3297 30.1289 63.7657C30.1289 63.2018 30.5501 62.7788 31.1118 62.7788H31.9542C32.5159 62.7788 32.9371 63.2018 32.9371 63.7657C32.9371 64.3297 32.5159 64.7526 31.9542 64.7526Z" fill="#C0D6FF"/>
<path d="M31.9542 69.2643H31.1118C30.5501 69.2643 30.1289 68.8414 30.1289 68.2774C30.1289 67.7135 30.5501 67.2905 31.1118 67.2905H31.9542C32.5159 67.2905 32.9371 67.7135 32.9371 68.2774C32.9371 68.8414 32.5159 69.2643 31.9542 69.2643Z" fill="#C0D6FF"/>
<path d="M31.9542 73.7756H31.1118C30.5501 73.7756 30.1289 73.3526 30.1289 72.7887C30.1289 72.2247 30.5501 71.8018 31.1118 71.8018H31.9542C32.5159 71.8018 32.9371 72.2247 32.9371 72.7887C32.9371 73.3526 32.5159 73.7756 31.9542 73.7756Z" fill="#C0D6FF"/>
<path d="M31.9542 78.2873H31.1118C30.5501 78.2873 30.1289 77.8643 30.1289 77.3004C30.1289 76.7364 30.5501 76.3135 31.1118 76.3135H31.9542C32.5159 76.3135 32.9371 76.7364 32.9371 77.3004C32.9371 77.8643 32.5159 78.2873 31.9542 78.2873Z" fill="#C0D6FF"/>
<path d="M31.9542 82.799H31.1118C30.5501 82.799 30.1289 82.376 30.1289 81.8121C30.1289 81.2482 30.5501 80.8252 31.1118 80.8252H31.9542C32.5159 80.8252 32.9371 81.2482 32.9371 81.8121C32.9371 82.376 32.5159 82.799 31.9542 82.799Z" fill="#C0D6FF"/>
<path d="M31.9542 87.3102H31.1118C30.5501 87.3102 30.1289 86.8873 30.1289 86.3233C30.1289 85.7594 30.5501 85.3364 31.1118 85.3364H31.9542C32.5159 85.3364 32.9371 85.7594 32.9371 86.3233C32.9371 86.8873 32.5159 87.3102 31.9542 87.3102Z" fill="#C0D6FF"/>
<path d="M31.9542 91.822H31.1118C30.5501 91.822 30.1289 91.399 30.1289 90.8351C30.1289 90.2711 30.5501 89.8481 31.1118 89.8481H31.9542C32.5159 89.8481 32.9371 90.2711 32.9371 90.8351C32.9371 91.399 32.5159 91.822 31.9542 91.822Z" fill="#C0D6FF"/>
<path d="M31.9542 96.1926H31.1118C30.5501 96.1926 30.1289 95.7696 30.1289 95.2057C30.1289 94.6417 30.5501 94.2188 31.1118 94.2188H31.9542C32.5159 94.2188 32.9371 94.6417 32.9371 95.2057C32.9371 95.7696 32.5159 96.1926 31.9542 96.1926Z" fill="#C0D6FF"/>
<path d="M57.2269 33.3127H40.0971C39.5355 33.3127 39.1143 32.8897 39.1143 32.3258C39.1143 31.7618 39.5355 31.3389 40.0971 31.3389H57.2269C57.7886 31.3389 58.2098 31.7618 58.2098 32.3258C58.0694 32.8897 57.7886 33.3127 57.2269 33.3127Z" fill="#C0D6FF"/>
<path d="M103.281 33.3127H60.5971C60.0355 33.3127 59.6143 32.8897 59.6143 32.3258C59.6143 31.7618 60.0355 31.3389 60.5971 31.3389H103.141C103.703 31.3389 104.124 31.7618 104.124 32.3258C104.124 32.8897 103.703 33.3127 103.281 33.3127Z" fill="#C0D6FF"/>
<path d="M68.179 55.5886H46.5561C45.9945 55.5886 45.5732 55.1656 45.5732 54.6017C45.5732 54.0377 45.9945 53.6147 46.5561 53.6147H68.179C68.7406 53.6147 69.1619 54.0377 69.1619 54.6017C69.1619 55.1656 68.7406 55.5886 68.179 55.5886Z" fill="#C0D6FF"/>
<path d="M62.4223 60.0998H46.5561C45.9945 60.0998 45.5732 59.6768 45.5732 59.1129C45.5732 58.5489 45.9945 58.126 46.5561 58.126H62.4223C62.9839 58.126 63.4051 58.5489 63.4051 59.1129C63.4051 59.6768 62.9839 60.0998 62.4223 60.0998Z" fill="#C0D6FF"/>
<path d="M104.405 60.0998H66.9155C66.3538 60.0998 65.9326 59.6768 65.9326 59.1129C65.9326 58.5489 66.3538 58.126 66.9155 58.126H104.405C104.966 58.126 105.387 58.5489 105.387 59.1129C105.387 59.6768 104.966 60.0998 104.405 60.0998Z" fill="#C0D6FF"/>
<path d="M74.2165 42.1945H54.1381C53.5765 42.1945 53.1553 41.7716 53.1553 41.2076C53.1553 40.6437 53.5765 40.2207 54.1381 40.2207H74.3569C74.9186 40.2207 75.3398 40.6437 75.3398 41.2076C75.1994 41.7716 74.7782 42.1945 74.2165 42.1945Z" fill="#C0D6FF"/>
<path d="M85.5902 42.1945H77.3061C76.7445 42.1945 76.3232 41.7716 76.3232 41.2076C76.3232 40.6437 76.7445 40.2207 77.3061 40.2207H85.5902C86.1518 40.2207 86.5731 40.6437 86.5731 41.2076C86.5731 41.7716 86.1518 42.1945 85.5902 42.1945Z" fill="#C0D6FF"/>
<path d="M109.88 46.7062H54.1381C53.5765 46.7062 53.1553 46.2833 53.1553 45.7193C53.1553 45.1554 53.5765 44.7324 54.1381 44.7324H109.88C110.442 44.7324 110.863 45.1554 110.863 45.7193C110.863 46.2833 110.301 46.7062 109.88 46.7062Z" fill="#C0D6FF"/>
<path d="M119.709 46.7062H114.514C113.952 46.7062 113.531 46.2833 113.531 45.7193C113.531 45.1554 113.952 44.7324 114.514 44.7324H119.709C120.271 44.7324 120.692 45.1554 120.692 45.7193C120.692 46.2833 120.271 46.7062 119.709 46.7062Z" fill="#C0D6FF"/>
<path d="M92.4696 51.218H54.1381C53.5765 51.218 53.1553 50.795 53.1553 50.231C53.1553 49.6671 53.5765 49.2441 54.1381 49.2441H92.4696C93.0313 49.2441 93.4525 49.6671 93.4525 50.231C93.3121 50.795 92.8908 51.218 92.4696 51.218Z" fill="#C0D6FF"/>
<path d="M75.621 69.1232H60.7377C60.1761 69.1232 59.7549 68.7003 59.7549 68.1363C59.7549 67.5724 60.1761 67.1494 60.7377 67.1494H75.621C76.1827 67.1494 76.6039 67.5724 76.6039 68.1363C76.6039 68.7003 76.1827 69.1232 75.621 69.1232Z" fill="#C0D6FF"/>
<path d="M94.8578 69.1232H78.9916C78.43 69.1232 78.0088 68.7003 78.0088 68.1363C78.0088 67.5724 78.43 67.1494 78.9916 67.1494H94.8578C95.4194 67.1494 95.8407 67.5724 95.8407 68.1363C95.8407 68.7003 95.4194 69.1232 94.8578 69.1232Z" fill="#C0D6FF"/>
<path d="M109.32 69.1232H98.0873C97.5257 69.1232 97.1045 68.7003 97.1045 68.1363C97.1045 67.5724 97.5257 67.1494 98.0873 67.1494H109.32C109.882 67.1494 110.303 67.5724 110.303 68.1363C110.303 68.7003 109.741 69.1232 109.32 69.1232Z" fill="#C0D6FF"/>
<path d="M119.288 69.1232H113.532C112.97 69.1232 112.549 68.7003 112.549 68.1363C112.549 67.5724 112.97 67.1494 113.532 67.1494H119.288C119.85 67.1494 120.271 67.5724 120.271 68.1363C120.271 68.7003 119.85 69.1232 119.288 69.1232Z" fill="#C0D6FF"/>
<path d="M75.621 82.5168H60.7377C60.1761 82.5168 59.7549 82.0938 59.7549 81.5299C59.7549 80.9659 60.1761 80.543 60.7377 80.543H75.621C76.1827 80.543 76.6039 80.9659 76.6039 81.5299C76.6039 82.0938 76.1827 82.5168 75.621 82.5168Z" fill="#C0D6FF"/>
<path d="M109.179 96.0514H60.7377C60.1761 96.0514 59.7549 95.6285 59.7549 95.0645C59.7549 94.5006 60.1761 94.0776 60.7377 94.0776H109.179C109.74 94.0776 110.162 94.5006 110.162 95.0645C110.162 95.6285 109.74 96.0514 109.179 96.0514Z" fill="#C0D6FF"/>
<path d="M82.3611 73.4938H67.3374C66.7757 73.4938 66.3545 73.0709 66.3545 72.5069C66.3545 71.943 66.7757 71.52 67.3374 71.52H82.3611C82.9227 71.52 83.3439 71.943 83.3439 72.5069C83.3439 73.0709 82.7823 73.4938 82.3611 73.4938Z" fill="#C0D6FF"/>
<path d="M106.652 73.4938H85.4506C84.889 73.4938 84.4678 73.0709 84.4678 72.5069C84.4678 71.943 84.889 71.52 85.4506 71.52H106.652C107.214 71.52 107.635 71.943 107.635 72.5069C107.635 73.0709 107.074 73.4938 106.652 73.4938Z" fill="#C0D6FF"/>
<path d="M120.552 73.4938H109.741C109.179 73.4938 108.758 73.0709 108.758 72.5069C108.758 71.943 109.179 71.52 109.741 71.52H120.552C121.114 71.52 121.535 71.943 121.535 72.5069C121.535 73.0709 121.114 73.4938 120.552 73.4938Z" fill="#C0D6FF"/>
<path d="M127.291 73.4938H123.64C123.078 73.4938 122.657 73.0709 122.657 72.5069C122.657 71.943 123.078 71.52 123.64 71.52H127.291C127.852 71.52 128.274 71.943 128.274 72.5069C128.274 73.0709 127.852 73.4938 127.291 73.4938Z" fill="#C0D6FF"/>
<path d="M85.7311 78.0056H67.478C66.9163 78.0056 66.4951 77.5826 66.4951 77.0186C66.4951 76.4547 66.9163 76.0317 67.478 76.0317H85.7311C86.2927 76.0317 86.7139 76.4547 86.7139 77.0186C86.7139 77.5826 86.2927 78.0056 85.7311 78.0056Z" fill="#C0D6FF"/>
<path d="M94.2954 78.0056H89.2407C88.679 78.0056 88.2578 77.5826 88.2578 77.0186C88.2578 76.4547 88.679 76.0317 89.2407 76.0317H94.2954C94.857 76.0317 95.2782 76.4547 95.2782 77.0186C95.2782 77.5826 94.7166 78.0056 94.2954 78.0056Z" fill="#C0D6FF"/>
<path d="M135.576 78.0056H97.8061C97.2445 78.0056 96.8232 77.5826 96.8232 77.0186C96.8232 76.4547 97.2445 76.0317 97.8061 76.0317H135.576C136.138 76.0317 136.559 76.4547 136.559 77.0186C136.559 77.5826 135.997 78.0056 135.576 78.0056Z" fill="#C0D6FF"/>
<path d="M75.6206 64.6115H54.1381C53.5765 64.6115 53.1553 64.1885 53.1553 63.6246C53.1553 63.0607 53.5765 62.6377 54.1381 62.6377H75.761C76.3227 62.6377 76.7439 63.0607 76.7439 63.6246C76.7439 64.1885 76.1823 64.6115 75.6206 64.6115Z" fill="#C0D6FF"/>
<path d="M84.7486 64.6115H79.1323C78.5706 64.6115 78.1494 64.1885 78.1494 63.6246C78.1494 63.0607 78.5706 62.6377 79.1323 62.6377H84.7486C85.3102 62.6377 85.7315 63.0607 85.7315 63.6246C85.7315 64.1885 85.3102 64.6115 84.7486 64.6115Z" fill="#C0D6FF"/>
<path d="M75.6206 87.0285H54.1381C53.5765 87.0285 53.1553 86.6055 53.1553 86.0416C53.1553 85.4776 53.5765 85.0547 54.1381 85.0547H75.761C76.3227 85.0547 76.7439 85.4776 76.7439 86.0416C76.6035 86.6055 76.1823 87.0285 75.6206 87.0285Z" fill="#C0D6FF"/>
<path d="M92.61 91.3991H54.1381C53.5765 91.3991 53.1553 90.9761 53.1553 90.4122C53.1553 89.8483 53.5765 89.4253 54.1381 89.4253H92.7504C93.3121 89.4253 93.7333 89.8483 93.7333 90.4122C93.5929 90.9761 93.1717 91.3991 92.61 91.3991Z" fill="#C0D6FF"/>
<path d="M109.319 91.3991H95.6997C95.138 91.3991 94.7168 90.9761 94.7168 90.4122C94.7168 89.8483 95.138 89.4253 95.6997 89.4253H109.319C109.881 89.4253 110.302 89.8483 110.302 90.4122C110.302 90.9761 109.881 91.3991 109.319 91.3991Z" fill="#C0D6FF"/>
<path d="M118.165 91.3991H112.548C111.987 91.3991 111.565 90.9761 111.565 90.4122C111.565 89.8483 111.987 89.4253 112.548 89.4253H118.165C118.726 89.4253 119.147 89.8483 119.147 90.4122C119.147 90.9761 118.726 91.3991 118.165 91.3991Z" fill="#C0D6FF"/>
<path d="M124.484 40.7853V121.289C124.484 122.98 123.08 124.39 121.395 124.39H11.3146C9.62967 124.39 8.22559 122.98 8.22559 121.289V40.7853C8.22559 39.0934 9.62967 37.6835 11.3146 37.6835H121.395C123.08 37.5426 124.484 38.9524 124.484 40.7853Z" fill="white"/>
<path d="M17.0713 43.6045V124.39H11.3146C9.62967 124.39 8.22559 122.98 8.22559 121.288V43.6045H17.0713Z" fill="#F4F6FD"/>
<path d="M124.484 40.7853V44.7329H8.22559V40.7853C8.22559 39.0934 9.62967 37.6835 11.3146 37.6835H121.395C123.08 37.5426 124.484 38.9524 124.484 40.7853Z" fill="url(#paint3_linear_2297:1284848)"/>
<path d="M96.6906 37.2812H121.964C123.649 37.2812 125.053 38.6911 125.053 40.383V120.886C125.053 122.578 123.649 123.988 121.964 123.988H11.8839C10.199 123.988 8.79492 122.578 8.79492 120.886V40.383C8.79492 38.6911 10.199 37.2812 11.8839 37.2812H84.8963" stroke="#6F7590" stroke-miterlimit="10" stroke-linecap="round" stroke-linejoin="round"/>
<path d="M11.7358 42.3361C12.2786 42.3361 12.7186 41.8943 12.7186 41.3492C12.7186 40.8042 12.2786 40.3623 11.7358 40.3623C11.193 40.3623 10.7529 40.8042 10.7529 41.3492C10.7529 41.8943 11.193 42.3361 11.7358 42.3361Z" fill="white"/>
<path d="M14.5444 42.3361C15.0872 42.3361 15.5272 41.8943 15.5272 41.3492C15.5272 40.8042 15.0872 40.3623 14.5444 40.3623C14.0016 40.3623 13.5615 40.8042 13.5615 41.3492C13.5615 41.8943 14.0016 42.3361 14.5444 42.3361Z" fill="white"/>
<path d="M17.352 42.3361C17.8948 42.3361 18.3349 41.8943 18.3349 41.3492C18.3349 40.8042 17.8948 40.3623 17.352 40.3623C16.8092 40.3623 16.3691 40.8042 16.3691 41.3492C16.3691 41.8943 16.8092 42.3361 17.352 42.3361Z" fill="white"/>
<path d="M42.4847 51.7819H20.8618C20.3001 51.7819 19.8789 51.359 19.8789 50.795C19.8789 50.2311 20.3001 49.8081 20.8618 49.8081H42.4847C43.0463 49.8081 43.4675 50.2311 43.4675 50.795C43.4675 51.359 42.9059 51.7819 42.4847 51.7819Z" fill="#C0D6FF"/>
<path d="M12.7179 51.7816H11.8754C11.3138 51.7816 10.8926 51.3586 10.8926 50.7946C10.8926 50.2307 11.4542 49.9487 11.8754 49.9487H12.7179C13.2795 49.9487 13.7007 50.3717 13.7007 50.9356C13.7007 51.4996 13.2795 51.7816 12.7179 51.7816Z" fill="#C0D6FF"/>
<path d="M12.7179 56.2936H11.8754C11.3138 56.2936 10.8926 55.8707 10.8926 55.3067C10.8926 54.7428 11.3138 54.3198 11.8754 54.3198H12.7179C13.2795 54.3198 13.7007 54.7428 13.7007 55.3067C13.7007 55.8707 13.2795 56.2936 12.7179 56.2936Z" fill="#C0D6FF"/>
<path d="M12.7179 60.8049H11.8754C11.3138 60.8049 10.8926 60.3819 10.8926 59.818C10.8926 59.254 11.3138 58.8311 11.8754 58.8311H12.7179C13.2795 58.8311 13.7007 59.254 13.7007 59.818C13.7007 60.3819 13.2795 60.8049 12.7179 60.8049Z" fill="#C0D6FF"/>
<path d="M12.7179 65.3166H11.8754C11.3138 65.3166 10.8926 64.8936 10.8926 64.3297C10.8926 63.7657 11.3138 63.3428 11.8754 63.3428H12.7179C13.2795 63.3428 13.7007 63.7657 13.7007 64.3297C13.7007 64.8936 13.2795 65.3166 12.7179 65.3166Z" fill="#C0D6FF"/>
<path d="M12.7179 69.8283H11.8754C11.3138 69.8283 10.8926 69.4053 10.8926 68.8414C10.8926 68.2775 11.3138 67.8545 11.8754 67.8545H12.7179C13.2795 67.8545 13.7007 68.2775 13.7007 68.8414C13.7007 69.4053 13.2795 69.8283 12.7179 69.8283Z" fill="#C0D6FF"/>
<path d="M12.7179 74.3397H11.8754C11.3138 74.3397 10.8926 73.9167 10.8926 73.3528C10.8926 72.7888 11.4542 72.5068 11.8754 72.5068H12.7179C13.2795 72.5068 13.7007 72.9298 13.7007 73.4937C13.7007 74.0577 13.2795 74.3397 12.7179 74.3397Z" fill="#C0D6FF"/>
<path d="M12.7179 78.8513H11.8754C11.3138 78.8513 10.8926 78.4283 10.8926 77.8643C10.8926 77.3004 11.3138 76.8774 11.8754 76.8774H12.7179C13.2795 76.8774 13.7007 77.3004 13.7007 77.8643C13.7007 78.4283 13.2795 78.8513 12.7179 78.8513Z" fill="#C0D6FF"/>
<path d="M12.7179 83.363H11.8754C11.3138 83.363 10.8926 82.94 10.8926 82.3761C10.8926 81.8121 11.3138 81.3892 11.8754 81.3892H12.7179C13.2795 81.3892 13.7007 81.8121 13.7007 82.3761C13.7007 82.94 13.2795 83.363 12.7179 83.363Z" fill="#C0D6FF"/>
<path d="M12.7179 87.8747H11.8754C11.3138 87.8747 10.8926 87.4517 10.8926 86.8878C10.8926 86.3238 11.3138 85.9009 11.8754 85.9009H12.7179C13.2795 85.9009 13.7007 86.3238 13.7007 86.8878C13.7007 87.4517 13.2795 87.8747 12.7179 87.8747Z" fill="#C0D6FF"/>
<path d="M12.7179 92.2448H11.8754C11.3138 92.2448 10.8926 91.8219 10.8926 91.2579C10.8926 90.694 11.3138 90.271 11.8754 90.271H12.7179C13.2795 90.271 13.7007 90.694 13.7007 91.2579C13.7007 91.8219 13.2795 92.2448 12.7179 92.2448Z" fill="#C0D6FF"/>
<path d="M12.7179 96.7565H11.8754C11.3138 96.7565 10.8926 96.3336 10.8926 95.7696C10.8926 95.2057 11.3138 94.7827 11.8754 94.7827H12.7179C13.2795 94.7827 13.7007 95.2057 13.7007 95.7696C13.7007 96.3336 13.2795 96.7565 12.7179 96.7565Z" fill="#C0D6FF"/>
<path d="M12.7179 101.268H11.8754C11.3138 101.268 10.8926 100.845 10.8926 100.281C10.8926 99.7174 11.3138 99.2944 11.8754 99.2944H12.7179C13.2795 99.2944 13.7007 99.7174 13.7007 100.281C13.7007 100.845 13.2795 101.268 12.7179 101.268Z" fill="#C0D6FF"/>
<path d="M12.7179 105.78H11.8754C11.3138 105.78 10.8926 105.357 10.8926 104.793C10.8926 104.229 11.3138 103.806 11.8754 103.806H12.7179C13.2795 103.806 13.7007 104.229 13.7007 104.793C13.7007 105.357 13.2795 105.78 12.7179 105.78Z" fill="#C0D6FF"/>
<path d="M12.7179 110.291H11.8754C11.3138 110.291 10.8926 109.868 10.8926 109.304C10.8926 108.74 11.3138 108.317 11.8754 108.317H12.7179C13.2795 108.317 13.7007 108.74 13.7007 109.304C13.7007 109.868 13.2795 110.291 12.7179 110.291Z" fill="#C0D6FF"/>
<path d="M12.7179 114.803H11.8754C11.3138 114.803 10.8926 114.38 10.8926 113.816C10.8926 113.252 11.3138 112.829 11.8754 112.829H12.7179C13.2795 112.829 13.7007 113.252 13.7007 113.816C13.7007 114.38 13.2795 114.803 12.7179 114.803Z" fill="#C0D6FF"/>
<path d="M12.7179 119.315H11.8754C11.3138 119.315 10.8926 118.892 10.8926 118.328C10.8926 117.764 11.3138 117.341 11.8754 117.341H12.7179C13.2795 117.341 13.7007 117.764 13.7007 118.328C13.7007 118.892 13.2795 119.315 12.7179 119.315Z" fill="#C0D6FF"/>
<path d="M37.9916 56.2936H20.8618C20.3001 56.2936 19.8789 55.8707 19.8789 55.3067C19.8789 54.7428 20.3001 54.3198 20.8618 54.3198H37.9916C38.5532 54.3198 38.9745 54.7428 38.9745 55.3067C38.834 55.8707 38.4128 56.2936 37.9916 56.2936Z" fill="#C0D6FF"/>
<path d="M83.9045 56.2936H41.3608C40.7992 56.2936 40.3779 55.8707 40.3779 55.3067C40.3779 54.7428 40.7992 54.3198 41.3608 54.3198H83.9045C84.4662 54.3198 84.8874 54.7428 84.8874 55.3067C84.8874 55.8707 84.4662 56.2936 83.9045 56.2936Z" fill="#C0D6FF"/>
<path d="M102.299 56.2936H89.9428C89.3812 56.2936 88.96 55.8707 88.96 55.3067C88.96 54.7428 89.3812 54.3198 89.9428 54.3198H102.299C102.86 54.3198 103.282 54.7428 103.282 55.3067C103.282 55.8707 102.86 56.2936 102.299 56.2936Z" fill="#EAEEF9"/>
<g filter="url(#filter0_d_2297:1284848)">
<path d="M112.549 56.2936H108.336C107.775 56.2936 107.354 55.8707 107.354 55.3067C107.354 54.7428 107.775 54.3198 108.336 54.3198H112.549C113.11 54.3198 113.531 54.7428 113.531 55.3067C113.531 55.8707 113.11 56.2936 112.549 56.2936Z" fill="url(#paint4_linear_2297:1284848)"/>
</g>
<path d="M48.9436 60.8049H27.3207C26.7591 60.8049 26.3379 60.3819 26.3379 59.818C26.3379 59.254 26.7591 58.8311 27.3207 58.8311H48.9436C49.5053 58.8311 49.9265 59.254 49.9265 59.818C49.7861 60.3819 49.3649 60.8049 48.9436 60.8049Z" fill="#EA67A4"/>
<path d="M48.9436 78.7106H27.3207C26.7591 78.7106 26.3379 78.2877 26.3379 77.7237C26.3379 77.1598 26.7591 76.7368 27.3207 76.7368H48.9436C49.5053 76.7368 49.9265 77.1598 49.9265 77.7237C49.7861 78.2877 49.3649 78.7106 48.9436 78.7106Z" fill="#EA67A4"/>
<path d="M43.1869 83.2219H27.3207C26.7591 83.2219 26.3379 82.7989 26.3379 82.235C26.3379 81.671 26.7591 81.248 27.3207 81.248H43.1869C43.7485 81.248 44.1698 81.671 44.1698 82.235C44.1698 82.7989 43.7485 83.2219 43.1869 83.2219Z" fill="#C0D6FF"/>
<path d="M85.168 83.2219H47.5385C46.9769 83.2219 46.5557 82.7989 46.5557 82.235C46.5557 81.671 46.9769 81.248 47.5385 81.248H85.168C85.7296 81.248 86.1508 81.671 86.1508 82.235C86.1508 82.7989 85.5892 83.2219 85.168 83.2219Z" fill="#C0D6FF"/>
<path d="M54.98 65.3166H34.7612C34.1995 65.3166 33.7783 64.8936 33.7783 64.3297C33.7783 63.7657 34.1995 63.3428 34.7612 63.3428H54.98C55.5416 63.3428 55.9629 63.7657 55.9629 64.3297C55.9629 64.8936 55.5416 65.3166 54.98 65.3166Z" fill="#C0D6FF"/>
<g filter="url(#filter1_d_2297:1284848)">
<path d="M66.3539 65.3166H58.0698C57.5081 65.3166 57.0869 64.8936 57.0869 64.3297C57.0869 63.7657 57.5081 63.3428 58.0698 63.3428H66.3539C66.9155 63.3428 67.3367 63.7657 67.3367 64.3297C67.3367 64.8936 66.9155 65.3166 66.3539 65.3166Z" fill="url(#paint5_linear_2297:1284848)"/>
</g>
<path d="M90.5033 69.6872H34.7612C34.1995 69.6872 33.7783 69.2642 33.7783 68.7003C33.7783 68.1363 34.1995 67.7134 34.7612 67.7134H90.5033C91.065 67.7134 91.4862 68.1363 91.4862 68.7003C91.4862 69.2642 91.065 69.6872 90.5033 69.6872Z" fill="#C0D6FF"/>
<g filter="url(#filter2_d_2297:1284848)">
<path d="M100.473 69.6872H95.2778C94.7161 69.6872 94.2949 69.2642 94.2949 68.7003C94.2949 68.1363 94.7161 67.7134 95.2778 67.7134H100.473C101.035 67.7134 101.456 68.1363 101.456 68.7003C101.315 69.2642 101.035 69.6872 100.473 69.6872Z" fill="url(#paint6_linear_2297:1284848)"/>
</g>
<path d="M73.0927 74.1989H34.7612C34.1995 74.1989 33.7783 73.776 33.7783 73.212C33.7783 72.6481 34.1995 72.2251 34.7612 72.2251H73.0927C73.6543 72.2251 74.0755 72.6481 74.0755 73.212C74.0755 73.776 73.6543 74.1989 73.0927 74.1989Z" fill="#C0D6FF"/>
<path d="M56.3847 92.2453H41.5014C40.9398 92.2453 40.5186 91.8223 40.5186 91.2584C40.5186 90.6945 40.9398 90.2715 41.5014 90.2715H56.3847C56.9463 90.2715 57.3676 90.6945 57.3676 91.2584C57.3676 91.8223 56.9463 92.2453 56.3847 92.2453Z" fill="#C0D6FF"/>
<path d="M65.3851 92.2453H59.6284C59.0667 92.2453 58.6455 91.8223 58.6455 91.2584C58.6455 90.6945 59.0667 90.2715 59.6284 90.2715H65.3851C65.9467 90.2715 66.368 90.6945 66.368 91.2584C66.368 91.8223 65.8063 92.2453 65.3851 92.2453Z" fill="#EAEEF9"/>
<path d="M56.3847 105.639H41.5014C40.9398 105.639 40.5186 105.216 40.5186 104.652C40.5186 104.088 40.9398 103.665 41.5014 103.665H56.3847C56.9463 103.665 57.3676 104.088 57.3676 104.652C57.3676 105.216 56.9463 105.639 56.3847 105.639Z" fill="#EAEEF9"/>
<path d="M89.9423 119.032H41.5014C40.9398 119.032 40.5186 118.609 40.5186 118.046C40.5186 117.482 40.9398 117.059 41.5014 117.059H89.9423C90.504 117.059 90.9252 117.482 90.9252 118.046C90.9252 118.609 90.3635 119.032 89.9423 119.032Z" fill="#EA67A4"/>
<path d="M62.9843 96.6154H48.101C47.5394 96.6154 47.1182 96.1925 47.1182 95.6285C47.1182 95.0646 47.5394 94.6416 48.101 94.6416H62.9843C63.5459 94.6416 63.9672 95.0646 63.9672 95.6285C63.9672 96.1925 63.5459 96.6154 62.9843 96.6154Z" fill="#EA67A4"/>
<path d="M87.4158 96.6154H66.0737C65.512 96.6154 65.0908 96.1925 65.0908 95.6285C65.0908 95.0646 65.512 94.6416 66.0737 94.6416H87.2753C87.837 94.6416 88.2582 95.0646 88.2582 95.6285C88.2582 96.1925 87.837 96.6154 87.4158 96.6154Z" fill="#C0D6FF"/>
<path d="M108.055 96.6154H104.405C103.843 96.6154 103.422 96.1925 103.422 95.6285C103.422 95.0646 103.843 94.6416 104.405 94.6416H108.055C108.617 94.6416 109.038 95.0646 109.038 95.6285C109.038 96.1925 108.617 96.6154 108.055 96.6154Z" fill="#84A2FF"/>
<path d="M66.4947 100.986H48.2416C47.68 100.986 47.2588 100.564 47.2588 99.9996C47.2588 99.4357 47.68 99.0127 48.2416 99.0127H66.4947C67.0564 99.0127 67.4776 99.4357 67.4776 99.9996C67.4776 100.564 66.916 100.986 66.4947 100.986Z" fill="#C0D6FF"/>
<path d="M74.9184 100.986H69.8637C69.3021 100.986 68.8809 100.564 68.8809 99.9996C68.8809 99.4357 69.3021 99.0127 69.8637 99.0127H74.9184C75.4801 99.0127 75.9013 99.4357 75.9013 99.9996C75.9013 100.564 75.4801 100.986 74.9184 100.986Z" fill="#EA67A4"/>
<path d="M56.3841 87.5925H34.7612C34.1995 87.5925 33.7783 87.1695 33.7783 86.6056C33.7783 86.0416 34.1995 85.6187 34.7612 85.6187H56.3841C56.9457 85.6187 57.3669 86.0416 57.3669 86.6056C57.3669 87.1695 56.9457 87.5925 56.3841 87.5925Z" fill="#C0D6FF"/>
<g filter="url(#filter3_d_2297:1284848)">
<path d="M65.5123 87.5925H59.8959C59.3343 87.5925 58.9131 87.1695 58.9131 86.6056C58.9131 86.0416 59.3343 85.6187 59.8959 85.6187H65.5123C66.0739 85.6187 66.4951 86.0416 66.4951 86.6056C66.4951 87.1695 65.9335 87.5925 65.5123 87.5925Z" fill="url(#paint7_linear_2297:1284848)"/>
</g>
<path d="M56.3841 110.009H34.7612C34.1995 110.009 33.7783 109.587 33.7783 109.023C33.7783 108.459 34.1995 108.036 34.7612 108.036H56.3841C56.9457 108.036 57.3669 108.459 57.3669 109.023C57.3669 109.587 56.9457 110.009 56.3841 110.009Z" fill="#C0D6FF"/>
<path d="M73.3735 114.521H34.7612C34.1995 114.521 33.7783 114.098 33.7783 113.534C33.7783 112.97 34.1995 112.547 34.7612 112.547H73.3735C73.9351 112.547 74.3563 112.97 74.3563 113.534C74.3563 114.098 73.9351 114.521 73.3735 114.521Z" fill="#C0D6FF"/>
<path d="M90.0829 114.521H76.4633C75.9017 114.521 75.4805 114.098 75.4805 113.534C75.4805 112.97 75.9017 112.547 76.4633 112.547H90.0829C90.6446 112.547 91.0658 112.97 91.0658 113.534C91.0658 114.098 90.5042 114.521 90.0829 114.521Z" fill="white"/>
<g filter="url(#filter4_d_2297:1284848)">
<path d="M140.791 115.569C140.25 117.876 139.438 120.183 138.49 122.219C135.918 127.105 131.993 131.04 127.121 133.483C122.113 136.061 116.157 137.011 110.066 135.79C95.9899 132.804 86.9214 119.098 89.8991 104.984C92.8768 90.8707 106.547 81.7783 120.624 84.7639C125.632 85.8495 130.098 88.2923 133.753 91.8207C139.979 98.0632 142.551 107.02 140.791 115.569Z" fill="url(#paint8_linear_2297:1284848)"/>
</g>
<path d="M123.181 108.1H117.485V102.391C117.485 101.249 116.599 100.234 115.333 100.234C114.194 100.234 113.181 101.122 113.181 102.391V108.1H107.485C106.346 108.1 105.333 108.988 105.333 110.257C105.333 111.526 106.219 112.414 107.485 112.414H113.181V118.124C113.181 119.266 114.067 120.281 115.333 120.281C116.472 120.281 117.485 119.392 117.485 118.124V112.414H123.181C124.32 112.414 125.333 111.526 125.333 110.257C125.333 108.988 124.32 108.1 123.181 108.1Z" fill="white"/>
<defs>
<filter id="filter0_d_2297:1284848" x="99.3535" y="51.3198" width="22.1777" height="17.9736" filterUnits="userSpaceOnUse" color-interpolation-filters="sRGB">
<feFlood flood-opacity="0" result="BackgroundImageFix"/>
<feColorMatrix in="SourceAlpha" type="matrix" values="0 0 0 0 0 0 0 0 0 0 0 0 0 0 0 0 0 0 127 0" result="hardAlpha"/>
<feOffset dy="5"/>
<feGaussianBlur stdDeviation="4"/>
<feColorMatrix type="matrix" values="0 0 0 0 0.1125 0 0 0 0 0.295916 0 0 0 0 1 0 0 0 0.22 0"/>
<feBlend mode="normal" in2="BackgroundImageFix" result="effect1_dropShadow_2297:1284848"/>
<feBlend mode="normal" in="SourceGraphic" in2="effect1_dropShadow_2297:1284848" result="shape"/>
</filter>
<filter id="filter1_d_2297:1284848" x="49.0869" y="60.3428" width="26.25" height="17.9736" filterUnits="userSpaceOnUse" color-interpolation-filters="sRGB">
<feFlood flood-opacity="0" result="BackgroundImageFix"/>
<feColorMatrix in="SourceAlpha" type="matrix" values="0 0 0 0 0 0 0 0 0 0 0 0 0 0 0 0 0 0 127 0" result="hardAlpha"/>
<feOffset dy="5"/>
<feGaussianBlur stdDeviation="4"/>
<feColorMatrix type="matrix" values="0 0 0 0 0.1125 0 0 0 0 0.295916 0 0 0 0 1 0 0 0 0.22 0"/>
<feBlend mode="normal" in2="BackgroundImageFix" result="effect1_dropShadow_2297:1284848"/>
<feBlend mode="normal" in="SourceGraphic" in2="effect1_dropShadow_2297:1284848" result="shape"/>
</filter>
<filter id="filter2_d_2297:1284848" x="86.2949" y="64.7134" width="23.1611" height="17.9736" filterUnits="userSpaceOnUse" color-interpolation-filters="sRGB">
<feFlood flood-opacity="0" result="BackgroundImageFix"/>
<feColorMatrix in="SourceAlpha" type="matrix" values="0 0 0 0 0 0 0 0 0 0 0 0 0 0 0 0 0 0 127 0" result="hardAlpha"/>
<feOffset dy="5"/>
<feGaussianBlur stdDeviation="4"/>
<feColorMatrix type="matrix" values="0 0 0 0 0.1125 0 0 0 0 0.295916 0 0 0 0 1 0 0 0 0.22 0"/>
<feBlend mode="normal" in2="BackgroundImageFix" result="effect1_dropShadow_2297:1284848"/>
<feBlend mode="normal" in="SourceGraphic" in2="effect1_dropShadow_2297:1284848" result="shape"/>
</filter>
<filter id="filter3_d_2297:1284848" x="50.9131" y="82.6187" width="23.582" height="17.9736" filterUnits="userSpaceOnUse" color-interpolation-filters="sRGB">
<feFlood flood-opacity="0" result="BackgroundImageFix"/>
<feColorMatrix in="SourceAlpha" type="matrix" values="0 0 0 0 0 0 0 0 0 0 0 0 0 0 0 0 0 0 127 0" result="hardAlpha"/>
<feOffset dy="5"/>
<feGaussianBlur stdDeviation="4"/>
<feColorMatrix type="matrix" values="0 0 0 0 0.1125 0 0 0 0 0.295916 0 0 0 0 1 0 0 0 0.22 0"/>
<feBlend mode="normal" in2="BackgroundImageFix" result="effect1_dropShadow_2297:1284848"/>
<feBlend mode="normal" in="SourceGraphic" in2="effect1_dropShadow_2297:1284848" result="shape"/>
</filter>
<filter id="filter4_d_2297:1284848" x="81.333" y="81.1963" width="68" height="68.1216" filterUnits="userSpaceOnUse" color-interpolation-filters="sRGB">
<feFlood flood-opacity="0" result="BackgroundImageFix"/>
<feColorMatrix in="SourceAlpha" type="matrix" values="0 0 0 0 0 0 0 0 0 0 0 0 0 0 0 0 0 0 127 0" result="hardAlpha"/>
<feOffset dy="5"/>
<feGaussianBlur stdDeviation="4"/>
<feColorMatrix type="matrix" values="0 0 0 0 0.1125 0 0 0 0 0.295916 0 0 0 0 1 0 0 0 0.22 0"/>
<feBlend mode="normal" in2="BackgroundImageFix" result="effect1_dropShadow_2297:1284848"/>
<feBlend mode="normal" in="SourceGraphic" in2="effect1_dropShadow_2297:1284848" result="shape"/>
</filter>
<linearGradient id="paint0_linear_2297:1284848" x1="156.586" y1="81.4662" x2="159.527" y2="80.5144" gradientUnits="userSpaceOnUse">
<stop stop-color="#83A6FF"/>
<stop offset="1" stop-color="#5277D7"/>
</linearGradient>
<linearGradient id="paint1_linear_2297:1284848" x1="118.586" y1="3.76303" x2="123.131" y2="2.29206" gradientUnits="userSpaceOnUse">
<stop stop-color="#83A6FF"/>
<stop offset="1" stop-color="#5277D7"/>
</linearGradient>
<linearGradient id="paint2_linear_2297:1284848" x1="26.6554" y1="18.078" x2="145.3" y2="18.078" gradientUnits="userSpaceOnUse">
<stop stop-color="#BDCDF4"/>
<stop offset="1" stop-color="#6E88FF" stop-opacity="0"/>
</linearGradient>
<linearGradient id="paint3_linear_2297:1284848" x1="8.21521" y1="41.241" x2="124.452" y2="41.241" gradientUnits="userSpaceOnUse">
<stop stop-color="#6F88FF"/>
<stop offset="1" stop-color="#6E88FF" stop-opacity="0"/>
</linearGradient>
<linearGradient id="paint4_linear_2297:1284848" x1="107.355" y1="55.3077" x2="113.534" y2="55.3077" gradientUnits="userSpaceOnUse">
<stop stop-color="#83A6FF"/>
<stop offset="1" stop-color="#5277D7"/>
</linearGradient>
<linearGradient id="paint5_linear_2297:1284848" x1="57.0898" y1="64.3306" x2="67.3417" y2="64.3306" gradientUnits="userSpaceOnUse">
<stop stop-color="#83A6FF"/>
<stop offset="1" stop-color="#5277D7"/>
</linearGradient>
<linearGradient id="paint6_linear_2297:1284848" x1="94.297" y1="68.7012" x2="101.459" y2="68.7012" gradientUnits="userSpaceOnUse">
<stop stop-color="#83A6FF"/>
<stop offset="1" stop-color="#5277D7"/>
</linearGradient>
<linearGradient id="paint7_linear_2297:1284848" x1="58.9152" y1="86.6065" x2="66.4988" y2="86.6065" gradientUnits="userSpaceOnUse">
<stop stop-color="#83A6FF"/>
<stop offset="1" stop-color="#5277D7"/>
</linearGradient>
<linearGradient id="paint8_linear_2297:1284848" x1="89.3478" y1="110.282" x2="141.358" y2="110.282" gradientUnits="userSpaceOnUse">
<stop stop-color="#83A6FF"/>
<stop offset="1" stop-color="#5277D7"/>
</linearGradient>
</defs>
</svg>
