<svg viewBox="0 0 16 16" fill="none" xmlns="http://www.w3.org/2000/svg">
    <path
        d="M9.5 4.5C9.5 2.84315 8.15685 1.5 6.5 1.5C4.84315 1.5 3.5 2.84315 3.5 4.5C3.5 6.15685 4.84315 7.5 6.5 7.5"
        stroke="currentColor"
        stroke-linecap="round"
    />
    <path
        d="M6.5 7.5C3.73858 7.5 1.5 9 1.5 12.5V13.5"
        stroke="currentColor"
        stroke-linecap="round"
    />
    <path
        d="M11 12.5C11.8284 12.5 12.5 11.8284 12.5 11C12.5 10.1716 11.8284 9.5 11 9.5C10.1716 9.5 9.5 10.1716 9.5 11C9.5 11.8284 10.1716 12.5 11 12.5Z"
        stroke="currentColor"
        stroke-linecap="round"
        stroke-linejoin="round"
    />
    <path
        d="M13.8028 9.08796C13.8983 9.22824 13.9832 9.3755 14.0566 9.5285L15.1044 10.1101C15.232 10.6962 15.2324 11.3029 15.1056 11.8892L14.0573 12.4711C13.9836 12.624 13.8985 12.7711 13.8028 12.9112L13.8229 14.1094C13.3792 14.5129 12.854 14.8166 12.2829 15L11.2548 14.3831C11.0855 14.3957 10.9155 14.3956 10.7463 14.3827L9.71877 14.9993C9.14738 14.8167 8.62179 14.5138 8.17743 14.1108L8.19761 12.912C8.10207 12.7718 8.0172 12.6245 7.94373 12.4715L6.89602 11.8899C6.76841 11.3038 6.76797 10.6971 6.89474 10.1108L7.94302 9.52892C8.01674 9.37604 8.10184 9.22891 8.19761 9.08878L8.17744 7.89063C8.62121 7.48707 9.14637 7.18336 9.71749 7L10.7456 7.61688C10.9149 7.60428 11.0848 7.60441 11.2541 7.61728L12.2816 7.00074C12.853 7.18328 13.3786 7.48623 13.8229 7.88915L13.8028 9.08796Z"
        stroke="currentColor"
        stroke-linecap="round"
        stroke-linejoin="round"
    />
</svg>
