<svg width="16" height="16" viewBox="0 0 16 16" fill="none" xmlns="http://www.w3.org/2000/svg">
<path d="M9.5 4.5C9.5 2.84315 8.15685 1.5 6.5 1.5C4.84315 1.5 3.5 2.84315 3.5 4.5C3.5 6.15685 4.84315 7.5 6.5 7.5" stroke="currentColor" stroke-linecap="round"/>
<path d="M6.5 7.5C3.73858 7.5 1.5 9 1.5 12.5V13.5" stroke="currentColor" stroke-linecap="round"/>
<path d="M11 12.5C11.8284 12.5 12.5 11.8284 12.5 11C12.5 10.1716 11.8284 9.5 11 9.5C10.1716 9.5 9.5 10.1716 9.5 11C9.5 11.8284 10.1716 12.5 11 12.5Z" stroke="currentColor" stroke-linecap="round" stroke-linejoin="round"/>
<path d="M13.8026 9.08796C13.8981 9.22824 13.983 9.3755 14.0565 9.5285L15.1042 10.1101C15.2318 10.6962 15.2322 11.3029 15.1055 11.8892L14.0572 12.4711C13.9834 12.624 13.8983 12.7711 13.8026 12.9112L13.8228 14.1094C13.379 14.5129 12.8538 14.8166 12.2827 15L11.2546 14.3831C11.0853 14.3957 10.9154 14.3956 10.7461 14.3827L9.71859 14.9993C9.1472 14.8167 8.6216 14.5138 8.17725 14.1108L8.19743 12.912C8.10189 12.7718 8.01702 12.6245 7.94354 12.4715L6.89584 11.8899C6.76823 11.3038 6.76779 10.6971 6.89455 10.1108L7.94284 9.52892C8.01656 9.37604 8.10166 9.22891 8.19742 9.08878L8.17725 7.89063C8.62103 7.48707 9.14619 7.18336 9.71731 7L10.7454 7.61688C10.9147 7.60428 11.0846 7.60441 11.2539 7.61728L12.2814 7.00074C12.8528 7.18328 13.3784 7.48623 13.8228 7.88915L13.8026 9.08796Z" stroke="currentColor" stroke-linecap="round" stroke-linejoin="round"/>
</svg>
