<svg width="24" height="24" viewBox="0 0 24 24" fill="none" xmlns="http://www.w3.org/2000/svg">
<path d="M8.12051 11.8769C7.50342 10.3376 7.4367 8.63258 7.93163 7.04986C8.42657 5.46714 9.4528 4.10385 10.8369 3.19042C12.2209 2.277 13.8779 1.86947 15.5277 2.03671C17.1776 2.20396 18.7191 2.93573 19.8917 4.10833C21.0643 5.28092 21.796 6.82243 21.9633 8.47227C22.1305 10.1221 21.723 11.7791 20.8096 13.1632C19.8961 14.5472 18.5328 15.5734 16.9501 16.0684C15.3674 16.5633 13.6623 16.4966 12.1231 15.8795L12.1232 15.8793L10.8056 17.1969H8.40406V19.5985H6.00254V22H2V17.9975L8.12068 11.8768L8.12051 11.8769Z" stroke="currentColor" stroke-width="1.5" stroke-linecap="round" stroke-linejoin="round"/>
<path d="M14.5 11C15.3284 11 16 10.3284 16 9.5C16 8.67157 15.3284 8 14.5 8C13.6716 8 13 8.67157 13 9.5C13 10.3284 13.6716 11 14.5 11Z" fill="currentColor"/>
</svg>
