<svg  viewBox="0 0 16 16" fill="none" xmlns="http://www.w3.org/2000/svg">
<g clip-path="url(#clip0_1243:1689)">
<circle cx="8" cy="8" r="6" fill="white"/>
<path d="M11.6112 2.59545C11.4471 2.48582 11.2786 2.38404 11.1063 2.29028C11.5231 2.51703 11.9163 2.79005 12.2777 3.10602C12.0676 2.92232 11.845 2.75169 11.6112 2.59545ZM14.4988 7.87387C14.4831 7.06692 14.3172 6.26577 14.0052 5.51256C14.313 6.2556 14.4829 7.05575 14.4988 7.87387ZM3.40381 3.40381C3.36989 3.43772 3.33639 3.47198 3.3033 3.50656C3.38807 3.41796 3.47538 3.33171 3.56516 3.24793C3.51057 3.29887 3.45678 3.35083 3.40381 3.40381ZM1.5 8C1.5 7.95456 1.50048 7.90914 1.50143 7.86373C1.50048 7.9091 1.5 7.95452 1.5 8Z" fill="white" stroke="#2251CC"/>
<path d="M11.54 4.46002L6.87999 6.88002L4.45999 11.54L9.11999 9.12002L11.54 4.46002Z" fill="#D7F6FC" stroke="#70E6FD" stroke-linejoin="round"/>
</g>
<defs>
<clipPath id="clip0_1243:1689">
<rect width="14" height="14" fill="white" transform="translate(1 1)"/>
</clipPath>
</defs>
</svg>
