<svg width="16" height="16" fill="none" xmlns="http://www.w3.org/2000/svg"><path d="M4.5 14h1-1.364c-.434 0-.85-.167-1.157-.47a1.623 1.623 0 0 1-.479-1.15V7.115c0-.428.172-.839.48-1.142A1.647 1.647 0 0 1 4.135 5.5h2.637C7.5 5.5 9.5 7.5 9.5 8.192V9.5" stroke="#3C71DF" stroke-linecap="round" stroke-linejoin="round"/><path d="M6.5 5.5v1.2a1.8 1.8 0 0 0 1.8 1.8h1.2" stroke="#3C71DF" stroke-linecap="round" stroke-linejoin="round"/><path d="M4.5 11.5H6M4.5 10H6" stroke="#3C71DF" stroke-linecap="round"/><path d="M5.5 5.5V3.115c0-.428.172-.839.48-1.142A1.647 1.647 0 0 1 7.135 1.5h2.637c.727 0 2.727 2 2.727 2.692V5.5" stroke="#3C71DF" stroke-linecap="round" stroke-linejoin="round"/><path d="M9.5 1.5v1.2a1.8 1.8 0 0 0 1.8 1.8h1.2" stroke="#3C71DF" stroke-linecap="round" stroke-linejoin="round"/><path d="M13 10.5V12a1 1 0 0 1-1 1h-1.5" stroke="#3C71DF" stroke-linecap="round"/><circle cx="9" cy="13" r="1.5" fill="#F0F7FF" stroke="#3C71DF"/><circle cx="13" cy="9" r="1.5" fill="#F0F7FF" stroke="#3C71DF"/></svg>
