<svg width="16" height="16" viewBox="0 0 16 16" fill="none" xmlns="http://www.w3.org/2000/svg">
<path d="M14 2.31072V13.4611H10.6549V12.4129C9.91897 13.2604 8.82698 13.7718 7.33061 13.7718C4.40847 13.7718 2 11.2094 2 7.8859C2 4.56235 4.40847 2 7.33061 2C8.82475 2 9.91972 2.51143 10.6549 3.35886V2.31072H14ZM10.6542 7.87103C10.6542 6.19773 9.53912 5.16001 7.99814 5.16001C6.45716 5.16001 5.34213 6.19773 5.34213 7.87103C5.34213 9.54432 6.46014 10.5932 7.99814 10.5932C9.53615 10.5932 10.6542 9.54358 10.6542 7.87103Z" fill="#2026D2"/>
<path d="M7.99814 9.24299C8.7556 9.24299 9.36964 8.62895 9.36964 7.87149C9.36964 7.11404 8.7556 6.5 7.99814 6.5C7.24069 6.5 6.62665 7.11404 6.62665 7.87149C6.62665 8.62895 7.24069 9.24299 7.99814 9.24299Z" fill="#62E1FC"/>
</svg>
