<svg width="16" height="17" viewBox="0 0 16 17" fill="none" xmlns="http://www.w3.org/2000/svg">
<g clip-path="url(#clip0_2976_2869)">
<path d="M3.48699 14.9436L11.7955 6.63514C12.0426 6.38804 12.1661 6.26449 12.2232 6.12666C12.2994 5.94289 12.2994 5.73641 12.2232 5.55263C12.1661 5.41481 12.0426 5.29126 11.7955 5.04415C11.5484 4.79705 11.4248 4.6735 11.287 4.61641C11.1032 4.54029 10.8968 4.54029 10.713 4.61641C10.5752 4.6735 10.4516 4.79705 10.2045 5.04415L1.896 13.3527C1.6489 13.5998 1.52535 13.7233 1.46826 13.8611C1.39213 14.0449 1.39213 14.2514 1.46826 14.4352C1.52535 14.573 1.6489 14.6965 1.896 14.9436C2.1431 15.1907 2.26665 15.3143 2.40448 15.3714C2.58825 15.4475 2.79474 15.4475 2.97851 15.3714C3.11634 15.3143 3.23989 15.1908 3.48699 14.9436Z" stroke="#6F7590"/>
<path d="M12.3995 6.03111L10.8085 4.44012L7.31499 7.9336L8.90598 9.52459L12.3995 6.03111Z" fill="#6F7590"/>
<path d="M8 3.24866L9 2.24866L10 3.24866L9 4.24866L8 3.24866Z" fill="#6F7590"/>
<path d="M11 1.24866L12 0.248657L13 1.24866L12 2.24866L11 1.24866Z" fill="#6F7590"/>
<path d="M13 3.74866L14.5 2.24866L16 3.74866L14.5 5.24866L13 3.74866Z" fill="#6F7590"/>
<path d="M13 7.24866L14 6.24866L15 7.24866L14 8.24866L13 7.24866Z" fill="#6F7590"/>
</g>
<defs>
<clipPath id="clip0_2976_2869">
<rect width="16" height="16" fill="white" transform="translate(0 0.248657)"/>
</clipPath>
</defs>
</svg>
