<svg width="16" height="16" viewBox="0 0 16 16" fill="none" xmlns="http://www.w3.org/2000/svg">
<path d="M2.67 13V4.68H1V3H6V4.68H4.34V13H2.67Z" fill="#64748B"/>
<path d="M10 13V3H15V4.67H11.67V6.33H13.33V8H11.67V13H10Z" fill="#64748B"/>
<path d="M8.00001 13C7.96024 13.0014 7.9206 12.9946 7.88357 12.98C7.84654 12.9654 7.81291 12.9434 7.78477 12.9152C7.75663 12.8871 7.73458 12.8535 7.72 12.8164C7.70542 12.7794 7.69861 12.7398 7.70001 12.7V3.3C7.70001 3.22044 7.73162 3.14413 7.78788 3.08787C7.84414 3.03161 7.92044 3 8.00001 3C8.07957 3 8.15588 3.03161 8.21214 3.08787C8.2684 3.14413 8.30001 3.22044 8.30001 3.3V12.7C8.30141 12.7398 8.2946 12.7794 8.28002 12.8164C8.26544 12.8535 8.24339 12.8871 8.21525 12.9152C8.18711 12.9434 8.15347 12.9654 8.11644 12.98C8.07942 12.9946 8.03978 13.0014 8.00001 13Z" fill="#64748B"/>
</svg>
