<svg width="16" height="16" viewBox="0 0 16 16" fill="none" xmlns="http://www.w3.org/2000/svg">
<path fill-rule="evenodd" clip-rule="evenodd" d="M8.43333 2H3.23333C2.27604 2 1.5 2.76751 1.5 3.71429V8.85714C1.5 9.80392 2.27604 10.5714 3.23333 10.5714H5.83333V12.2857C5.83333 13.2325 6.60937 14 7.56667 14H12.7667C13.724 14 14.5 13.2325 14.5 12.2857V7.14286C14.5 6.19608 13.724 5.42857 12.7667 5.42857H10.1667V3.71429C10.1667 2.76751 9.39063 2 8.43333 2ZM9.3 5.42857V3.71429C9.3 3.2409 8.91198 2.85714 8.43333 2.85714H3.23333C2.75469 2.85714 2.36667 3.2409 2.36667 3.71429V8.85714C2.36667 9.33053 2.75469 9.71429 3.23333 9.71429H5.83333V7.14286C5.83333 6.19608 6.60937 5.42857 7.56667 5.42857H9.3ZM6.7 9.71429V7.14286C6.7 6.66947 7.08802 6.28571 7.56667 6.28571H9.3V8.85714C9.3 9.33053 8.91198 9.71429 8.43333 9.71429H6.7ZM6.7 10.5714H8.43333C9.39063 10.5714 10.1667 9.80392 10.1667 8.85714V6.28571H12.7667C13.2453 6.28571 13.6333 6.66947 13.6333 7.14286V12.2857C13.6333 12.7591 13.2453 13.1429 12.7667 13.1429H7.56667C7.08802 13.1429 6.7 12.7591 6.7 12.2857V10.5714Z" fill="currentColor"/>
</svg>
