<svg  viewBox="0 0 161 156" fill="none" xmlns="http://www.w3.org/2000/svg">
<path d="M81.6312 124.121C113.868 124.121 140 97.9023 140 65.5603C140 33.2184 113.868 7 81.6312 7C49.3949 7 23.2622 33.2184 23.2622 65.5603C23.2622 97.9023 49.3949 124.121 81.6312 124.121Z" fill="#EAEEF9"/>
<path d="M72.5345 32.0972L117.891 69.9966C120.544 72.1514 120.923 76.0808 118.649 78.7426L84.4105 119.811C82.2627 122.473 78.3462 122.853 75.693 120.571L22.2513 75.954C19.5981 73.7992 19.2191 69.8699 21.4932 67.208L48.909 34.252L72.5345 32.0972Z" fill="#E1EAF2"/>
<path d="M72.5346 32.0972L64.3225 42.1107C62.9328 43.7585 60.406 44.012 58.6372 42.491L48.7827 34.252L72.5346 32.0972Z" fill="#CED7E2"/>
<g filter="url(#filter0_d_2553_78108)">
<path d="M128.503 85.7142L124.713 88.376L79.1042 120.698C75.9457 122.98 71.5238 122.219 69.3761 119.051L23.8937 54.406C21.6196 51.2371 22.3776 46.8007 25.5361 44.6459L65.2069 16.6333L91.7382 21.1964L126.229 70.1235L130.272 75.8274C132.42 79.123 131.662 83.4326 128.503 85.7142Z" fill="#F0F5FA"/>
</g>
<path d="M91.7384 21.1964L79.9888 29.689C77.9674 31.21 75.0615 30.703 73.5455 28.5482L65.207 16.6333H65.3334L91.7384 21.1964Z" fill="#CED7E2"/>
<path d="M128.503 85.7143L124.713 88.3761V70.1235H126.103L130.145 75.8275C132.42 79.1231 131.662 83.4327 128.503 85.7143Z" fill="#CED7E2"/>
<g filter="url(#filter1_d_2553_78108)">
<path d="M138.863 49.9694L118.902 113.853C117.764 117.529 113.848 119.684 110.184 118.417L52.4467 100.291C48.7829 99.1499 46.7614 95.2206 47.8985 91.418L71.3977 16.1261C72.5348 12.4502 76.4513 10.2954 80.1152 11.563L126.482 26.0129" fill="#F0F5FA"/>
</g>
<path opacity="0.5" d="M129.767 53.6456L121.302 80.7709C120.797 82.292 119.281 83.1792 117.765 82.6722L66.5969 66.5745C65.0809 66.0674 64.1965 64.5464 64.7018 63.0254L73.1666 35.9C73.672 34.379 75.188 33.4917 76.7041 33.9987L127.872 50.0964C129.388 50.4767 130.272 52.1245 129.767 53.6456Z" fill="#CED7E2"/>
<path d="M138.863 49.9695L124.966 45.6598C122.566 44.8993 121.176 42.3642 121.934 39.8292L126.23 25.8862H126.356L138.863 49.9695Z" fill="#E6EDF5"/>
<path d="M119.659 41.3505L104.246 39.8294C101.593 39.5759 99.5711 37.1676 99.9501 34.379L101.593 18.915H101.719L119.659 41.3505Z" fill="#CED7E2"/>
<g filter="url(#filter2_d_2553_78108)">
<path d="M119.659 36.7873V108.15C119.659 112.333 116.374 115.628 112.205 115.628H47.6455C43.4762 115.628 40.1914 112.333 40.1914 108.15V23.8584C40.1914 19.6755 43.6026 16.3799 47.6455 16.3799H99.3185L119.659 36.7873Z" fill="white"/>
</g>
<path d="M119.659 36.7873L104.12 36.914C101.34 36.914 99.1924 34.7592 99.1924 31.9706V16.3799H99.3187L119.659 36.7873Z" fill="#E1EAF2"/>
<path d="M105.383 75.4471H56.2368C55.0997 75.4471 54.2153 74.5598 54.2153 73.419V45.0261C54.2153 43.8853 55.0997 42.998 56.2368 42.998H105.383C106.52 42.998 107.404 43.8853 107.404 45.0261V73.2922C107.531 74.433 106.52 75.4471 105.383 75.4471Z" fill="#E6EDF5"/>
<path d="M82.6419 71.0105H62.1748L72.4083 59.3491L82.6419 71.0105Z" fill="#CED7E2"/>
<path d="M99.6978 71.0108H70.1343L84.916 54.2793L99.6978 71.0108Z" fill="white"/>
<path d="M69.8814 55.1664C72.0444 55.1664 73.7979 53.4071 73.7979 51.237C73.7979 49.0669 72.0444 47.3076 69.8814 47.3076C67.7183 47.3076 65.9648 49.0669 65.9648 51.237C65.9648 53.4071 67.7183 55.1664 69.8814 55.1664Z" fill="#CED7E2"/>
<path d="M106.394 85.461H55.7315C54.9735 85.461 54.3418 84.8272 54.3418 84.0667C54.3418 83.3061 54.9735 82.6724 55.7315 82.6724H106.394C107.152 82.6724 107.784 83.3061 107.784 84.0667C107.784 84.8272 107.152 85.461 106.394 85.461Z" fill="#CED7E2"/>
<path d="M106.394 93.3193H55.7315C54.9735 93.3193 54.3418 92.6856 54.3418 91.9251C54.3418 91.1645 54.9735 90.5308 55.7315 90.5308H106.394C107.152 90.5308 107.784 91.1645 107.784 91.9251C107.784 92.6856 107.152 93.3193 106.394 93.3193Z" fill="#CED7E2"/>
<path d="M80.7468 99.7839C80.7468 100.544 80.1151 101.178 79.3571 101.178H55.7315C54.9735 101.178 54.3418 100.544 54.3418 99.7839C54.3418 99.0234 54.9735 98.3896 55.7315 98.3896H79.3571C80.1151 98.3896 80.7468 99.0234 80.7468 99.7839Z" fill="#CED7E2"/>
<path d="M81.7575 27.7876H55.7315C54.9735 27.7876 54.3418 27.1538 54.3418 26.3933C54.3418 25.6328 54.9735 24.999 55.7315 24.999H81.7575C82.5156 24.999 83.1473 25.6328 83.1473 26.3933C83.1473 27.1538 82.5156 27.7876 81.7575 27.7876Z" fill="#CED7E2"/>
<path d="M67.2285 35.6465H55.7315C54.9735 35.6465 54.3418 35.0127 54.3418 34.2522C54.3418 33.4917 54.9735 32.8579 55.7315 32.8579H67.2285C67.9865 32.8579 68.6182 33.4917 68.6182 34.2522C68.4919 35.0127 67.9865 35.6465 67.2285 35.6465Z" fill="#CED7E2"/>
<path d="M91.1062 121.205C90.3481 123.233 88.9584 125.008 87.0633 126.022C80.241 129.571 72.7869 122.853 74.9347 115.628H77.0825C74.5557 123.867 84.2838 127.797 88.3267 122.346C89.3374 121.079 89.0847 121.079 94.012 105.234C95.2754 101.052 91.2325 98.8967 88.3267 100.418C86.4316 101.432 86.6843 101.939 82.3887 115.628C82.2624 115.882 82.2624 116.135 82.2624 116.135C82.0097 117.276 82.8941 118.29 83.9048 118.163C85.0419 118.163 85.1682 116.642 85.5472 115.628C87.4423 109.544 87.8214 108.403 87.8214 108.277C88.3267 107.136 90.2218 107.516 89.7164 109.164C86.8106 119.177 86.8106 119.177 85.4209 119.811C82.2624 121.459 79.2302 117.783 80.241 115.628C84.6629 101.305 84.5365 99.9108 87.1897 98.6432C91.3589 96.4884 95.7808 99.0235 96.2861 103.08C96.4125 104.347 96.6651 103.967 91.1062 121.205Z" fill="url(#paint0_linear_2553_78108)"/>
<g filter="url(#filter3_d_2553_78108)">
<ellipse cx="80" cy="62.5" rx="10" ry="13.5" fill="#6382FF"/>
</g>
<path d="M95.9074 61.7576C95.2757 53.8988 88.706 47.4344 80.8729 47.1809C77.4617 47.0541 74.1769 47.9414 71.5238 49.7159C67.2282 52.5045 64.4487 57.4479 64.4487 62.8983C64.4487 68.0953 66.9755 72.7852 70.8921 75.7005C71.3974 76.0808 71.7764 76.5878 71.9028 77.2216C72.1555 78.2356 73.1662 79.3764 74.5559 79.3764C75.1876 79.3764 75.8193 79.1229 76.3247 78.7426C76.5774 78.4891 76.9564 78.4891 77.2091 78.6158C77.5881 78.7426 77.8408 78.9961 77.7144 79.5031C77.7144 79.6299 77.7144 79.6299 77.7144 79.6299C77.7144 80.5172 78.4725 81.2777 79.3568 81.2777C80.2412 81.2777 80.9992 80.5172 80.9992 79.6299C80.9992 79.2496 81.2519 78.8694 81.7573 78.7426C90.2221 77.7286 96.5391 70.3768 95.9074 61.7576Z" fill="url(#paint1_linear_2553_78108)"/>
<path d="M73.6715 84.3198C74.439 84.3198 75.0612 83.6956 75.0612 82.9255C75.0612 82.1555 74.439 81.5312 73.6715 81.5312C72.9039 81.5312 72.2817 82.1555 72.2817 82.9255C72.2817 83.6956 72.9039 84.3198 73.6715 84.3198Z" fill="url(#paint2_linear_2553_78108)"/>
<path d="M74.0504 91.4181C74.5388 91.4181 74.9348 91.0209 74.9348 90.5308C74.9348 90.0408 74.5388 89.6436 74.0504 89.6436C73.562 89.6436 73.166 90.0408 73.166 90.5308C73.166 91.0209 73.562 91.4181 74.0504 91.4181Z" fill="url(#paint3_linear_2553_78108)"/>
<path d="M79.7357 85.9676C80.3637 85.9676 80.8727 85.4569 80.8727 84.8268C80.8727 84.1968 80.3637 83.686 79.7357 83.686C79.1077 83.686 78.5986 84.1968 78.5986 84.8268C78.5986 85.4569 79.1077 85.9676 79.7357 85.9676Z" fill="url(#paint4_linear_2553_78108)"/>
<path d="M86.1793 82.5454C86.9468 82.5454 87.569 81.9212 87.569 81.1511C87.569 80.3811 86.9468 79.7568 86.1793 79.7568C85.4118 79.7568 84.7896 80.3811 84.7896 81.1511C84.7896 81.9212 85.4118 82.5454 86.1793 82.5454Z" fill="url(#paint5_linear_2553_78108)"/>
<path d="M84.0314 92.5587C84.5198 92.5587 84.9157 92.1615 84.9157 91.6715C84.9157 91.1814 84.5198 90.7842 84.0314 90.7842C83.5429 90.7842 83.147 91.1814 83.147 91.6715C83.147 92.1615 83.5429 92.5587 84.0314 92.5587Z" fill="url(#paint6_linear_2553_78108)"/>
<path d="M79.1045 95.6008C79.6627 95.6008 80.1152 95.1468 80.1152 94.5868C80.1152 94.0267 79.6627 93.5728 79.1045 93.5728C78.5463 93.5728 78.0938 94.0267 78.0938 94.5868C78.0938 95.1468 78.5463 95.6008 79.1045 95.6008Z" fill="url(#paint7_linear_2553_78108)"/>
<path d="M80.2413 104.854C80.4506 104.854 80.6203 104.684 80.6203 104.474C80.6203 104.264 80.4506 104.093 80.2413 104.093C80.032 104.093 79.8623 104.264 79.8623 104.474C79.8623 104.684 80.032 104.854 80.2413 104.854Z" fill="url(#paint8_linear_2553_78108)"/>
<path d="M77.7147 100.164C78.0636 100.164 78.3464 99.8803 78.3464 99.5303C78.3464 99.1802 78.0636 98.8965 77.7147 98.8965C77.3658 98.8965 77.083 99.1802 77.083 99.5303C77.083 99.8803 77.3658 100.164 77.7147 100.164Z" fill="url(#paint9_linear_2553_78108)"/>
<path d="M71.5238 49.5893C74.0506 47.9415 76.9564 47.0542 80.2412 47.0542C88.9587 47.0542 96.0337 54.1524 96.0337 62.8984C96.0337 71.6445 88.9587 78.7427 80.2412 78.7427C71.5238 78.7427 64.4487 71.6445 64.4487 62.8984C64.4487 57.3213 67.2282 52.5046 71.5238 49.5893Z" fill="url(#paint10_linear_2553_78108)"/>
<path d="M94.8964 68.6022L85.9263 59.6027L82.8941 58.4619L79.6093 57.1943L74.5557 61.7575L79.8619 67.0812L79.1039 70.757L85.9263 77.6017L94.8964 68.6022Z" fill="url(#paint11_linear_2553_78108)"/>
<path d="M81.252 54.9127L85.9266 59.6026C86.5583 60.2364 86.5583 61.1236 85.9266 61.7574C85.2949 62.3912 84.4105 62.3912 83.7788 61.7574L81.631 59.6026V69.7429C81.631 70.5034 80.9993 71.264 80.115 71.264C79.3569 71.264 78.5989 70.6302 78.5989 69.7429V59.6026L76.4511 61.7574C75.8194 62.3912 74.935 62.3912 74.3033 61.7574C74.0507 61.5039 73.9243 61.1236 73.9243 60.7434C73.9243 60.3631 74.0507 59.9828 74.3033 59.7293L78.9779 55.0394C79.2306 54.7859 79.6096 54.6592 79.9886 54.6592C80.3676 54.6592 80.9993 54.6592 81.252 54.9127Z" fill="url(#paint12_linear_2553_78108)"/>
<defs>
<filter id="filter0_d_2553_78108" x="0.579102" y="5.6333" width="152.91" height="149.384" filterUnits="userSpaceOnUse" color-interpolation-filters="sRGB">
<feFlood flood-opacity="0" result="BackgroundImageFix"/>
<feColorMatrix in="SourceAlpha" type="matrix" values="0 0 0 0 0 0 0 0 0 0 0 0 0 0 0 0 0 0 127 0" result="hardAlpha"/>
<feOffset dy="11"/>
<feGaussianBlur stdDeviation="11"/>
<feColorMatrix type="matrix" values="0 0 0 0 0.397708 0 0 0 0 0.47749 0 0 0 0 0.575 0 0 0 0.18 0"/>
<feBlend mode="normal" in2="BackgroundImageFix" result="effect1_dropShadow_2553_78108"/>
<feBlend mode="normal" in="SourceGraphic" in2="effect1_dropShadow_2553_78108" result="shape"/>
</filter>
<filter id="filter1_d_2553_78108" x="25.582" y="0.197754" width="135.281" height="151.584" filterUnits="userSpaceOnUse" color-interpolation-filters="sRGB">
<feFlood flood-opacity="0" result="BackgroundImageFix"/>
<feColorMatrix in="SourceAlpha" type="matrix" values="0 0 0 0 0 0 0 0 0 0 0 0 0 0 0 0 0 0 127 0" result="hardAlpha"/>
<feOffset dy="11"/>
<feGaussianBlur stdDeviation="11"/>
<feColorMatrix type="matrix" values="0 0 0 0 0.397708 0 0 0 0 0.47749 0 0 0 0 0.575 0 0 0 0.18 0"/>
<feBlend mode="normal" in2="BackgroundImageFix" result="effect1_dropShadow_2553_78108"/>
<feBlend mode="normal" in="SourceGraphic" in2="effect1_dropShadow_2553_78108" result="shape"/>
</filter>
<filter id="filter2_d_2553_78108" x="18.1914" y="5.37988" width="123.468" height="143.249" filterUnits="userSpaceOnUse" color-interpolation-filters="sRGB">
<feFlood flood-opacity="0" result="BackgroundImageFix"/>
<feColorMatrix in="SourceAlpha" type="matrix" values="0 0 0 0 0 0 0 0 0 0 0 0 0 0 0 0 0 0 127 0" result="hardAlpha"/>
<feOffset dy="11"/>
<feGaussianBlur stdDeviation="11"/>
<feColorMatrix type="matrix" values="0 0 0 0 0.397708 0 0 0 0 0.47749 0 0 0 0 0.575 0 0 0 0.18 0"/>
<feBlend mode="normal" in2="BackgroundImageFix" result="effect1_dropShadow_2553_78108"/>
<feBlend mode="normal" in="SourceGraphic" in2="effect1_dropShadow_2553_78108" result="shape"/>
</filter>
<filter id="filter3_d_2553_78108" x="57" y="49" width="46" height="57" filterUnits="userSpaceOnUse" color-interpolation-filters="sRGB">
<feFlood flood-opacity="0" result="BackgroundImageFix"/>
<feColorMatrix in="SourceAlpha" type="matrix" values="0 0 0 0 0 0 0 0 0 0 0 0 0 0 0 0 0 0 127 0" result="hardAlpha"/>
<feOffset dy="17"/>
<feGaussianBlur stdDeviation="6.5"/>
<feColorMatrix type="matrix" values="0 0 0 0 0.1125 0 0 0 0 0.295916 0 0 0 0 1 0 0 0 0.21 0"/>
<feBlend mode="normal" in2="BackgroundImageFix" result="effect1_dropShadow_2553_78108"/>
<feBlend mode="normal" in="SourceGraphic" in2="effect1_dropShadow_2553_78108" result="shape"/>
</filter>
<linearGradient id="paint0_linear_2553_78108" x1="85.4328" y1="98.0954" x2="85.4328" y2="125.004" gradientUnits="userSpaceOnUse">
<stop stop-color="#FF66A9"/>
<stop offset="1" stop-color="#F53689"/>
</linearGradient>
<linearGradient id="paint1_linear_2553_78108" x1="80.2243" y1="47.0481" x2="80.2243" y2="81.1071" gradientUnits="userSpaceOnUse">
<stop stop-color="#83A6FF"/>
<stop offset="1" stop-color="#5A78FF"/>
</linearGradient>
<linearGradient id="paint2_linear_2553_78108" x1="73.6562" y1="81.5402" x2="73.6562" y2="84.2359" gradientUnits="userSpaceOnUse">
<stop stop-color="#83A6FF"/>
<stop offset="1" stop-color="#5A78FF"/>
</linearGradient>
<linearGradient id="paint3_linear_2553_78108" x1="74.1113" y1="89.7115" x2="74.1113" y2="91.4111" gradientUnits="userSpaceOnUse">
<stop stop-color="#83A6FF"/>
<stop offset="1" stop-color="#5A78FF"/>
</linearGradient>
<linearGradient id="paint4_linear_2553_78108" x1="79.7937" y1="83.6786" x2="79.7937" y2="85.9605" gradientUnits="userSpaceOnUse">
<stop stop-color="#83A6FF"/>
<stop offset="1" stop-color="#5A78FF"/>
</linearGradient>
<linearGradient id="paint5_linear_2553_78108" x1="86.1611" y1="79.6647" x2="86.1611" y2="82.5256" gradientUnits="userSpaceOnUse">
<stop stop-color="#83A6FF"/>
<stop offset="1" stop-color="#5A78FF"/>
</linearGradient>
<linearGradient id="paint6_linear_2553_78108" x1="83.9942" y1="90.8585" x2="83.9942" y2="92.5419" gradientUnits="userSpaceOnUse">
<stop stop-color="#83A6FF"/>
<stop offset="1" stop-color="#5A78FF"/>
</linearGradient>
<linearGradient id="paint7_linear_2553_78108" x1="79.0442" y1="93.5814" x2="79.0442" y2="95.4847" gradientUnits="userSpaceOnUse">
<stop stop-color="#83A6FF"/>
<stop offset="1" stop-color="#5A78FF"/>
</linearGradient>
<linearGradient id="paint8_linear_2553_78108" x1="80.2109" y1="104.007" x2="80.2109" y2="104.886" gradientUnits="userSpaceOnUse">
<stop stop-color="#83A6FF"/>
<stop offset="1" stop-color="#5A78FF"/>
</linearGradient>
<linearGradient id="paint9_linear_2553_78108" x1="77.7731" y1="98.9572" x2="77.7731" y2="100.125" gradientUnits="userSpaceOnUse">
<stop stop-color="#83A6FF"/>
<stop offset="1" stop-color="#5A78FF"/>
</linearGradient>
<linearGradient id="paint10_linear_2553_78108" x1="80.2273" y1="47.8252" x2="80.2273" y2="79.8609" gradientUnits="userSpaceOnUse">
<stop stop-color="#83A6FF"/>
<stop offset="1" stop-color="#5A78FF"/>
</linearGradient>
<linearGradient id="paint11_linear_2553_78108" x1="80.207" y1="62.8709" x2="89.2871" y2="71.9213" gradientUnits="userSpaceOnUse">
<stop stop-color="#4F6AFF"/>
<stop offset="1" stop-color="#657EFF" stop-opacity="0"/>
</linearGradient>
<linearGradient id="paint12_linear_2553_78108" x1="86.0954" y1="68.767" x2="77.5791" y2="60.2784" gradientUnits="userSpaceOnUse">
<stop offset="0.0113208" stop-color="#C2D1FF"/>
<stop offset="1" stop-color="white"/>
</linearGradient>
</defs>
</svg>
