<svg width="16" height="16" viewBox="0 0 16 16" fill="none" xmlns="http://www.w3.org/2000/svg">
<mask id="path-1-inside-1_1892_1988" fill="white">
<path fill-rule="evenodd" clip-rule="evenodd" d="M6.40768 3.40895C6.4353 3.36972 6.4818 3.34615 6.5316 3.34615H9.4684C9.5182 3.34615 9.5647 3.36972 9.59232 3.40895L10.4301 4.59887C10.6235 4.8735 10.949 5.03846 11.2976 5.03846H13.3617C13.5592 5.03846 13.7486 5.11275 13.8883 5.24499C14.0279 5.37723 14.1064 5.55658 14.1064 5.74359V11.9487C14.1064 12.1357 14.0279 12.3151 13.8883 12.4473C13.7486 12.5796 13.5592 12.6538 13.3617 12.6538H2.6383C2.4408 12.6538 2.25138 12.5796 2.11173 12.4473C1.97207 12.3151 1.89362 12.1357 1.89362 11.9487V5.74359C1.89362 5.55658 1.97207 5.37723 2.11173 5.24499C2.25138 5.11275 2.4408 5.03846 2.6383 5.03846H4.70244C5.05102 5.03846 5.37654 4.8735 5.5699 4.59887L6.40768 3.40895ZM6.5316 2.5C6.18302 2.5 5.8575 2.66496 5.66414 2.93959L4.82637 4.12951C4.79874 4.16874 4.75224 4.19231 4.70244 4.19231H2.6383C2.20379 4.19231 1.78709 4.35575 1.47985 4.64667C1.17261 4.93759 1 5.33216 1 5.74359V11.9487C1 12.3601 1.17261 12.7547 1.47985 13.0456C1.78709 13.3366 2.20379 13.5 2.6383 13.5H13.3617C13.7962 13.5 14.2129 13.3366 14.5202 13.0456C14.8274 12.7547 15 12.3601 15 11.9487V5.74359C15 5.33216 14.8274 4.93759 14.5202 4.64667C14.2129 4.35575 13.7962 4.19231 13.3617 4.19231H11.2976C11.2478 4.19231 11.2013 4.16874 11.1736 4.12951L10.3359 2.93959C10.1425 2.66496 9.81698 2.5 9.4684 2.5H6.5316ZM6.06383 8.5641C6.06383 7.55158 6.93068 6.73077 8 6.73077C9.06932 6.73077 9.93617 7.55158 9.93617 8.5641C9.93617 9.57662 9.06932 10.3974 8 10.3974C6.93068 10.3974 6.06383 9.57662 6.06383 8.5641ZM8 5.88462C6.43715 5.88462 5.17021 7.08426 5.17021 8.5641C5.17021 10.0439 6.43715 11.2436 8 11.2436C9.56285 11.2436 10.8298 10.0439 10.8298 8.5641C10.8298 7.08426 9.56285 5.88462 8 5.88462Z"/>
</mask>
<path d="M6.40768 3.40895L5.59001 2.83326L5.59001 2.83326L6.40768 3.40895ZM9.59232 3.40895L8.77465 3.98464L8.77465 3.98464L9.59232 3.40895ZM10.4301 4.59887L11.2478 4.02318L11.2478 4.02318L10.4301 4.59887ZM2.11173 12.4473L1.42417 13.1734L1.42417 13.1734L2.11173 12.4473ZM2.11173 5.24499L2.79929 5.97112L2.79929 5.97112L2.11173 5.24499ZM5.5699 4.59887L4.75223 4.02318L4.75223 4.02318L5.5699 4.59887ZM5.66414 2.93959L6.48181 3.51528L6.48181 3.51528L5.66414 2.93959ZM4.82637 4.12951L4.0087 3.55382L4.0087 3.55382L4.82637 4.12951ZM1.47985 4.64667L0.792286 3.92054L0.792286 3.92054L1.47985 4.64667ZM1.47985 13.0456L0.792285 13.7718L0.792286 13.7718L1.47985 13.0456ZM14.5202 13.0456L15.2077 13.7718L15.2077 13.7718L14.5202 13.0456ZM14.5202 4.64667L15.2077 3.92054L15.2077 3.92054L14.5202 4.64667ZM11.1736 4.12951L11.9913 3.55383L11.9913 3.55382L11.1736 4.12951ZM10.3359 2.93959L9.51819 3.51528V3.51528L10.3359 2.93959ZM6.5316 2.34615C6.17106 2.34615 5.81319 2.51627 5.59001 2.83326L7.22534 3.98464C7.05741 4.22316 6.79255 4.34615 6.5316 4.34615V2.34615ZM9.4684 2.34615H6.5316V4.34615H9.4684V2.34615ZM10.41 2.83327C10.1868 2.51627 9.82894 2.34615 9.4684 2.34615V4.34615C9.20746 4.34615 8.94259 4.22317 8.77465 3.98464L10.41 2.83327ZM11.2478 4.02318L10.41 2.83326L8.77465 3.98464L9.61243 5.17456L11.2478 4.02318ZM11.2976 4.03846C11.2808 4.03846 11.2671 4.03445 11.2576 4.02965C11.2482 4.02489 11.2464 4.02118 11.2478 4.02318L9.61243 5.17456C10.0013 5.72695 10.6382 6.03846 11.2976 6.03846V4.03846ZM13.3617 4.03846H11.2976V6.03846H13.3617V4.03846ZM14.5758 4.51886C14.245 4.20558 13.8073 4.03846 13.3617 4.03846V6.03846C13.3111 6.03846 13.2523 6.01992 13.2007 5.97112L14.5758 4.51886ZM15.1064 5.74359C15.1064 5.27321 14.9085 4.8339 14.5758 4.51886L13.2007 5.97112C13.1473 5.92055 13.1064 5.83995 13.1064 5.74359H15.1064ZM15.1064 11.9487V5.74359H13.1064V11.9487H15.1064ZM14.5758 13.1734C14.9085 12.8584 15.1064 12.4191 15.1064 11.9487H13.1064C13.1064 11.8524 13.1473 11.7718 13.2007 11.7212L14.5758 13.1734ZM13.3617 13.6538C13.8073 13.6538 14.245 13.4867 14.5758 13.1734L13.2007 11.7212C13.2523 11.6724 13.3111 11.6538 13.3617 11.6538V13.6538ZM2.6383 13.6538H13.3617V11.6538H2.6383V13.6538ZM1.42417 13.1734C1.75502 13.4867 2.19265 13.6538 2.6383 13.6538V11.6538C2.68894 11.6538 2.74775 11.6724 2.79929 11.7212L1.42417 13.1734ZM0.893617 11.9487C0.893617 12.4191 1.09146 12.8584 1.42417 13.1734L2.79929 11.7212C2.85269 11.7718 2.89362 11.8524 2.89362 11.9487H0.893617ZM0.893617 5.74359V11.9487H2.89362V5.74359H0.893617ZM1.42417 4.51886C1.09146 4.8339 0.893617 5.27321 0.893617 5.74359H2.89362C2.89362 5.83995 2.85269 5.92055 2.79929 5.97112L1.42417 4.51886ZM2.6383 4.03846C2.19266 4.03846 1.75502 4.20558 1.42417 4.51886L2.79929 5.97112C2.74774 6.01992 2.68894 6.03846 2.6383 6.03846V4.03846ZM4.70244 4.03846H2.6383V6.03846H4.70244V4.03846ZM4.75223 4.02318C4.75364 4.02118 4.75175 4.02489 4.74235 4.02965C4.73289 4.03445 4.71917 4.03846 4.70244 4.03846V6.03846C5.36177 6.03846 5.99865 5.72695 6.38757 5.17456L4.75223 4.02318ZM5.59001 2.83326L4.75223 4.02318L6.38757 5.17456L7.22534 3.98464L5.59001 2.83326ZM6.48181 3.51528C6.4804 3.51729 6.48229 3.51357 6.49169 3.50881C6.50115 3.50402 6.51487 3.5 6.5316 3.5V1.5C5.87227 1.5 5.23539 1.81151 4.84647 2.3639L6.48181 3.51528ZM5.64403 4.7052L6.48181 3.51528L4.84647 2.3639L4.0087 3.55382L5.64403 4.7052ZM4.70244 5.19231C5.06298 5.19231 5.42086 5.02219 5.64404 4.7052L4.0087 3.55382C4.17663 3.3153 4.4415 3.19231 4.70244 3.19231V5.19231ZM2.6383 5.19231H4.70244V3.19231H2.6383V5.19231ZM2.16741 5.3728C2.28345 5.26292 2.45194 5.19231 2.6383 5.19231V3.19231C1.95565 3.19231 1.29073 3.44857 0.792286 3.92054L2.16741 5.3728ZM2 5.74359C2 5.61554 2.05322 5.48092 2.16741 5.3728L0.792286 3.92054C0.291993 4.39426 0 5.04879 0 5.74359H2ZM2 11.9487V5.74359H0V11.9487H2ZM2.16741 12.3195C2.05322 12.2114 2 12.0768 2 11.9487H0C0 12.6435 0.291993 13.298 0.792285 13.7718L2.16741 12.3195ZM2.6383 12.5C2.45194 12.5 2.28345 12.4294 2.16741 12.3195L0.792286 13.7718C1.29073 14.2437 1.95565 14.5 2.6383 14.5V12.5ZM13.3617 12.5H2.6383V14.5H13.3617V12.5ZM13.8326 12.3195C13.7166 12.4294 13.5481 12.5 13.3617 12.5V14.5C14.0443 14.5 14.7093 14.2437 15.2077 13.7718L13.8326 12.3195ZM14 11.9487C14 12.0768 13.9468 12.2114 13.8326 12.3195L15.2077 13.7718C15.708 13.298 16 12.6435 16 11.9487H14ZM14 5.74359V11.9487H16V5.74359H14ZM13.8326 5.37279C13.9468 5.48092 14 5.61554 14 5.74359H16C16 5.04879 15.708 4.39426 15.2077 3.92054L13.8326 5.37279ZM13.3617 5.19231C13.5481 5.19231 13.7166 5.26292 13.8326 5.3728L15.2077 3.92054C14.7093 3.44857 14.0443 3.19231 13.3617 3.19231V5.19231ZM11.2976 5.19231H13.3617V3.19231H11.2976V5.19231ZM10.356 4.70519C10.5791 5.02219 10.937 5.19231 11.2976 5.19231V3.19231C11.5585 3.19231 11.8234 3.31529 11.9913 3.55383L10.356 4.70519ZM9.51819 3.51528L10.356 4.7052L11.9913 3.55382L11.1535 2.3639L9.51819 3.51528ZM9.4684 3.5C9.48513 3.5 9.49885 3.50402 9.50831 3.50881C9.51771 3.51357 9.5196 3.51729 9.51819 3.51528L11.1535 2.3639C10.7646 1.81151 10.1277 1.5 9.4684 1.5V3.5ZM6.5316 3.5H9.4684V1.5H6.5316V3.5ZM8 5.73077C6.43052 5.73077 5.06383 6.94857 5.06383 8.5641H7.06383C7.06383 8.15459 7.43084 7.73077 8 7.73077V5.73077ZM10.9362 8.5641C10.9362 6.94857 9.56948 5.73077 8 5.73077V7.73077C8.56916 7.73077 8.93617 8.15459 8.93617 8.5641H10.9362ZM8 11.3974C9.56948 11.3974 10.9362 10.1796 10.9362 8.5641H8.93617C8.93617 8.97362 8.56916 9.39744 8 9.39744V11.3974ZM5.06383 8.5641C5.06383 10.1796 6.43052 11.3974 8 11.3974V9.39744C7.43084 9.39744 7.06383 8.97362 7.06383 8.5641H5.06383ZM6.17021 8.5641C6.17021 7.68727 6.93731 6.88462 8 6.88462V4.88462C5.93699 4.88462 4.17021 6.48126 4.17021 8.5641H6.17021ZM8 10.2436C6.93731 10.2436 6.17021 9.44094 6.17021 8.5641H4.17021C4.17021 10.6469 5.93699 12.2436 8 12.2436V10.2436ZM9.82979 8.5641C9.82979 9.44094 9.06269 10.2436 8 10.2436V12.2436C10.063 12.2436 11.8298 10.6469 11.8298 8.5641H9.82979ZM8 6.88462C9.06269 6.88462 9.82979 7.68727 9.82979 8.5641H11.8298C11.8298 6.48126 10.063 4.88462 8 4.88462V6.88462Z" fill="currentColor" mask="url(#path-1-inside-1_1892_1988)"/>
</svg>
