<svg viewBox="0 0 16 16" fill="none" xmlns="http://www.w3.org/2000/svg">
<path d="M5 5L5 14L4 14C2.89543 14 2 13.1046 2 12L2 7C2 5.89543 2.89543 5 4 5L5 5Z" fill="#E6E6EB"/>
<path d="M11 14L11 5H12C13.1046 5 14 5.89543 14 7V12C14 13.1046 13.1046 14 12 14H11Z" fill="#E6E6EB"/>
<path d="M5 5H4C2.89543 5 2 5.89543 2 7V12C2 13.1046 2.89543 14 4 14H5M5 5V5C5 3.89543 5.89543 3 7 3H9C10.1046 3 11 3.89543 11 5V5M5 5H11M5 5V14M11 5H12C13.1046 5 14 5.89543 14 7V12C14 13.1046 13.1046 14 12 14H11M11 5V14M11 14H5" stroke="#6F7590"/>
<path d="M8.5 10.8861C8.5 11.1541 8.63653 11.3751 8.83334 11.5068V14.4937C8.83334 15.0736 9.32078 15.5 9.86667 15.5H14.1333C14.6792 15.5 15.1667 15.0736 15.1667 14.4937V11.5068C15.3635 11.3751 15.5 11.1541 15.5 10.8861V10.3797C15.5 9.86971 15.0723 9.5 14.6 9.5H9.4C8.92774 9.5 8.5 9.86971 8.5 10.3797V10.8861Z" fill="#6E757C" stroke="white"/>
<rect x="11.2603" y="12.3268" width="1.46253" height="0.332392" rx="0.148148" fill="white"/>
</svg>
