<svg width="16" height="16" viewBox="0 0 16 16" fill="none" xmlns="http://www.w3.org/2000/svg">
<path d="M5 5L5 14L4 14C2.89543 14 2 13.1046 2 12L2 7C2 5.89543 2.89543 5 4 5L5 5Z" fill="#E6E6EB"/>
<path d="M11 14L11 5H12C13.1046 5 14 5.89543 14 7V12C14 13.1046 13.1046 14 12 14H11Z" fill="#E6E6EB"/>
<path d="M5 5H4C2.89543 5 2 5.89543 2 7V12C2 13.1046 2.89543 14 4 14H5M5 5V5C5 3.89543 5.89543 3 7 3H9C10.1046 3 11 3.89543 11 5V5M5 5H11M5 5V14M11 5H12C13.1046 5 14 5.89543 14 7V12C14 13.1046 13.1046 14 12 14H11M11 5V14M11 14H5" stroke="#6F7590"/>
<circle cx="12" cy="12" r="3.5" fill="#CF592E" stroke="white"/>
</svg>
