<svg width="16" height="16" viewBox="0 0 16 16" fill="none" xmlns="http://www.w3.org/2000/svg">
<g clip-path="url(#clip0_2343_2634)">
<path d="M5 5H4C2.89543 5 2 5.89543 2 7V12C2 13.1046 2.89543 14 4 14H12C13.1046 14 14 13.1046 14 12V7C14 5.89543 13.1046 5 12 5H11M5 5V5C5 3.89543 5.89543 3 7 3H9C10.1046 3 11 3.89543 11 5V5M5 5H11" stroke="#6F7590"/>
<g clip-path="url(#clip1_2343_2634)">
<path d="M11.9999 10.8502L10.4916 9.34183C10.036 8.88622 9.29726 8.88622 8.84165 9.34183C8.38604 9.79744 8.38604 10.5361 8.84165 10.9917L10.35 12.5001L8.84165 14.0085C8.38604 14.4641 8.38604 15.2028 8.84165 15.6584C9.29726 16.114 10.036 16.114 10.4916 15.6584L11.9999 14.15L13.5083 15.6584C13.9639 16.114 14.7026 16.114 15.1582 15.6584C15.6138 15.2028 15.6138 14.4641 15.1582 14.0085L13.6499 12.5001L15.1582 10.9917C15.6138 10.5361 15.6138 9.79744 15.1582 9.34183C14.7026 8.88622 13.9639 8.88622 13.5083 9.34183L11.9999 10.8502Z" fill="#CF592E" stroke="white" stroke-linecap="round"/>
</g>
</g>
<defs>
<clipPath id="clip0_2343_2634">
<rect width="16" height="16" fill="white"/>
</clipPath>
<clipPath id="clip1_2343_2634">
<rect width="8" height="8" fill="white" transform="translate(8 8.49988)"/>
</clipPath>
</defs>
</svg>
