<svg viewBox="0 0 24 24" fill="none" xmlns="http://www.w3.org/2000/svg">
<path d="M7.5 7.5L7.5 21L5 21C3.89543 21 3 20.1046 3 19L3 9.5C3 8.39543 3.89543 7.5 5 7.5L7.5 7.5Z" fill="#E6E6EB"/>
<path d="M16.5 21V7.5H19C20.1046 7.5 21 8.39543 21 9.5V19C21 20.1046 20.1046 21 19 21H16.5Z" fill="#E6E6EB"/>
<path d="M7.5 7.5H5C3.89543 7.5 3 8.39543 3 9.5V19C3 20.1046 3.89543 21 5 21H7.5M7.5 7.5V6.5C7.5 5.39543 8.39543 4.5 9.5 4.5H14.5C15.6046 4.5 16.5 5.39543 16.5 6.5V7.5M7.5 7.5H16.5M7.5 7.5V21M16.5 7.5H19C20.1046 7.5 21 8.39543 21 9.5V19C21 20.1046 20.1046 21 19 21H16.5M16.5 7.5V21M16.5 21H7.5" stroke="#535B62" stroke-width="1.5"/>
</svg>
