<svg  viewBox="0 0 16 16" fill="none" xmlns="http://www.w3.org/2000/svg">
<g clip-path="url(#clip0_2343_2634)">
<path d="M5 5H4C2.89543 5 2 5.89543 2 7V12C2 13.1046 2.89543 14 4 14H12C13.1046 14 14 13.1046 14 12V7C14 5.89543 13.1046 5 12 5H11M5 5V5C5 3.89543 5.89543 3 7 3H9C10.1046 3 11 3.89543 11 5V5M5 5H11" stroke="#6F7590"/>
<path d="M10.793 9.79289C11.1835 9.40237 11.8166 9.40237 12.2072 9.79289L13.2501 10.8358L14.293 9.79289C14.6835 9.40237 15.3166 9.40237 15.7072 9.79289C16.0977 10.1834 16.0977 10.8166 15.7072 11.2071L14.6643 12.25L15.7072 13.2929C16.0977 13.6834 16.0977 14.3166 15.7072 14.7071C15.3166 15.0976 14.6835 15.0976 14.293 14.7071L13.2501 13.6642L12.2072 14.7071C11.8166 15.0976 11.1835 15.0976 10.793 14.7071C10.4024 14.3166 10.4024 13.6834 10.793 13.2929M10.793 9.79289L10.793 13.2929M10.793 9.79289C10.4024 10.1834 10.4024 10.8166 10.793 11.2071L11.8358 12.25L10.793 13.2929M10.793 9.79289L10.793 13.2929" fill="#CF592E" stroke="white" stroke-linecap="round"/>
</g>
<defs>
<clipPath id="clip0_2343_2634">
<rect width="16" height="16" fill="white"/>
</clipPath>
</defs>
</svg>
