<svg  viewBox="0 0 24 24" fill="none" xmlns="http://www.w3.org/2000/svg">
<path d="M5.99997 13.5L2.5 16.5V4.25C2.5 4.05109 2.57932 3.86032 2.71997 3.71967C2.86062 3.57902 3.05109 3.5 3.25 3.5H14.75C14.9489 3.5 15.1393 3.57902 15.28 3.71967C15.4207 3.86032 15.5 4.05109 15.5 4.25V12.75C15.5 12.9489 15.4207 13.1393 15.28 13.28C15.1393 13.4207 14.9489 13.5 14.75 13.5H5.99997Z" stroke="#64748B" stroke-linecap="round" stroke-linejoin="round"/>
<path d="M7.50006 13.6471V17.78C7.50006 17.975 7.57908 18.1621 7.71973 18.3C7.86038 18.4379 8.05115 18.5 8.25006 18.5H17.5L20.5 21.5V9.23529C20.5 9.04028 20.4207 8.85326 20.28 8.71536C20.1393 8.57747 19.9489 8.5 19.75 8.5H15.5001" stroke="#64748B" stroke-linecap="round" stroke-linejoin="round"/>
</svg>
