<svg  viewBox="0 0 16 16" fill="none" xmlns="http://www.w3.org/2000/svg">
<path d="M4.00031 8.99992L1.66699 10.9999V2.83325C1.66699 2.70064 1.71987 2.57347 1.81364 2.4797C1.90741 2.38593 2.03438 2.33325 2.16699 2.33325H9.83366C9.96627 2.33325 10.0932 2.38593 10.187 2.4797C10.2808 2.57347 10.3337 2.70064 10.3337 2.83325V8.49992C10.3337 8.63253 10.2808 8.75948 10.187 8.85325C10.0932 8.94702 9.96627 8.99992 9.83366 8.99992H4.00031Z" stroke="#069A7A" stroke-linecap="round" stroke-linejoin="round"/>
<path d="M5 9.09812V11.8534C5 11.9834 5.05268 12.1082 5.14645 12.2001C5.24021 12.292 5.36739 12.3334 5.5 12.3334H11.6666L13.6666 14.3334V6.15694C13.6666 6.02694 13.6137 5.90225 13.52 5.81032C13.4262 5.71839 13.2992 5.66675 13.1666 5.66675H10.3333" stroke="#069A7A" stroke-linecap="round" stroke-linejoin="round"/>
</svg>
