<svg width="16" height="16" viewBox="0 0 16 16" fill="none" xmlns="http://www.w3.org/2000/svg">
<path d="M8 4.5V8.5L5.5 10.5" stroke="#6A7692" stroke-linecap="round" stroke-linejoin="round"/>
<path d="M15.265 12.924C15.4112 12.8326 15.5 12.6724 15.5 12.5C15.5 12.3276 15.4112 12.1674 15.265 12.076L11.265 9.576C11.1109 9.47967 10.9166 9.47457 10.7576 9.56268C10.5986 9.65079 10.5 9.81824 10.5 10V15C10.5 15.1818 10.5986 15.3492 10.7576 15.4373C10.9166 15.5254 11.1109 15.5203 11.265 15.424L15.265 12.924Z" fill="#F0FFFC" stroke="#00B28A" stroke-linecap="round" stroke-linejoin="round"/>
<path fill-rule="evenodd" clip-rule="evenodd" d="M2 8C2 4.68629 4.68629 2 8 2C11.3137 2 14 4.68629 14 8C14 8.27614 14.2239 8.5 14.5 8.5C14.7761 8.5 15 8.27614 15 8C15 4.13401 11.866 1 8 1C4.13401 1 1 4.13401 1 8C1 11.866 4.13401 15 8 15C8.27614 15 8.5 14.7761 8.5 14.5C8.5 14.2239 8.27614 14 8 14C4.68629 14 2 11.3137 2 8Z" fill="#6A7692"/>
</svg>
