<svg width="24" height="24" viewBox="0 0 24 24" fill="none" xmlns="http://www.w3.org/2000/svg">
<path d="M1.89878 5.03847L4.38568 15.5542C4.52303 16.135 5.10517 16.4944 5.68594 16.3571L10.6282 15.1883L14.0985 14.3676C14.6793 14.2302 15.0388 13.6481 14.9014 13.0673L14.0746 9.5711L12.4145 2.55156C12.2772 1.9708 11.695 1.61133 11.1142 1.74868L2.70166 3.7382C2.12089 3.87555 1.76143 4.4577 1.89878 5.03847Z" fill="white" stroke="#6F7590" stroke-width="1.5" stroke-linecap="round"/>
<path d="M4.62555 6.22096L9.88342 4.97751" stroke="#6F7590" stroke-width="1.2" stroke-linecap="round" stroke-linejoin="round"/>
<path d="M5.38361 8.7233L8.44899 7.99811" stroke="#6F7590" stroke-width="1.2" stroke-linecap="round" stroke-linejoin="round"/>
<path d="M11.8728 5.62844L9.20836 14.5127C9.02145 15.1359 9.37515 15.7927 9.99837 15.9796L14.1618 17.2282L17.0258 18.0871C17.649 18.274 18.3057 17.9203 18.4926 17.2971L19.3584 14.4104L21.1571 8.41286C21.344 7.78964 20.9903 7.13291 20.3671 6.946L13.3397 4.83843C12.7165 4.65152 12.0597 5.00522 11.8728 5.62844Z" fill="white" stroke="#6F7590" stroke-width="1.5" stroke-linecap="round"/>
<path d="M13.723 7.88255L17.9739 9.09988" stroke="#6F7590" stroke-width="1.2" stroke-linecap="round" stroke-linejoin="round"/>
<path d="M20.2499 12H3.74994C2.92151 12 2.24994 12.6716 2.24994 13.5V21C2.24994 21.8284 2.92151 22.5 3.74994 22.5H20.2499C21.0784 22.5 21.7499 21.8284 21.7499 21V13.5C21.7499 12.6716 21.0784 12 20.2499 12Z" fill="white" stroke="#6F7590" stroke-width="1.5"/>
<rect x="9" y="18" width="6" height="1.5" rx="0.75" fill="#6F7590"/>
</svg>
