<svg width="16" height="16" viewBox="0 0 16 16" fill="none" xmlns="http://www.w3.org/2000/svg">
<path d="M1.26586 3.35898L2.9238 10.3695C3.01536 10.7566 3.40346 10.9963 3.79064 10.9047L7.08545 10.1255L9.39903 9.57838C9.78621 9.48681 10.0259 9.09871 9.93429 8.71153L9.38307 6.38073L8.27635 1.70104C8.18479 1.31386 7.79669 1.07422 7.40951 1.16579L1.80112 2.49213C1.41394 2.5837 1.1743 2.9718 1.26586 3.35898Z" fill="white" stroke="#5277D7" stroke-linecap="round"/>
<path d="M3.35037 4.34732L6.85562 3.51835" stroke="#5277D7" stroke-width="0.720387" stroke-linecap="round" stroke-linejoin="round"/>
<path d="M3.72241 5.81554L5.766 5.33208" stroke="#5277D7" stroke-width="0.785397" stroke-linecap="round" stroke-linejoin="round"/>
<path d="M7.91522 3.75229L6.13892 9.67513C6.01431 10.0906 6.25011 10.5284 6.66559 10.653L9.44122 11.4855L11.3505 12.0581C11.766 12.1827 12.2038 11.9469 12.3284 11.5314L12.9056 9.60691L14.1047 5.60858C14.2293 5.1931 13.9935 4.75527 13.5781 4.63066L8.89313 3.22562C8.47765 3.10101 8.03983 3.33681 7.91522 3.75229Z" fill="white" stroke="#5277D7" stroke-linecap="round"/>
<path d="M9.14865 5.25504L11.9826 6.06659" stroke="#5277D7" stroke-width="0.785397" stroke-linecap="round" stroke-linejoin="round"/>
<path d="M13.5 8H2.49997C1.94768 8 1.49997 8.44772 1.49997 9V14C1.49997 14.5523 1.94768 15 2.49997 15H13.5C14.0523 15 14.5 14.5523 14.5 14V9C14.5 8.44772 14.0523 8 13.5 8Z" fill="white" stroke="#5277D7"/>
<rect x="6" y="12" width="4" height="1" rx="0.5" fill="#5277D7"/>
</svg>
