<svg  viewBox="0 0 16 16" fill="none" xmlns="http://www.w3.org/2000/svg">
<path d="M1 5V3C1.00363 2.47065 1.22361 1.96397 1.61233 1.58965C2.00104 1.21533 2.52721 1.00349 3.07692 1H12.9231C13.4739 1 14.0022 1.21071 14.3917 1.58578C14.7812 1.96086 15 2.46957 15 3V5H1Z" fill="#FAFAFA"/>
<path d="M1.5 4.5V3.00184C1.50311 2.61066 1.66573 2.23236 1.95915 1.94981C2.25324 1.66661 2.65502 1.50307 3.07862 1.5H12.9231C13.3473 1.5 13.7505 1.66244 14.0449 1.94595C14.3386 2.22883 14.5 2.60839 14.5 3V4.5H1.5Z" fill="#FAFAFA" stroke="currentColor"/>
<mask id="path-3-inside-1_3492_24182" fill="white">
<path d="M14.9982 7V12.25C15.0244 12.9517 14.7694 13.635 14.289 14.1505C13.8086 14.6659 13.142 14.9714 12.4351 15H3.57827C2.8702 14.9714 2.20218 14.6663 1.71958 14.1513C1.23698 13.6363 0.978852 12.953 1.00136 12.25V7"/>
</mask>
<path d="M15.9982 7C15.9982 6.44772 15.5504 6 14.9982 6C14.4459 6 13.9982 6.44772 13.9982 7H15.9982ZM14.9982 12.25H13.9982C13.9982 12.2625 13.9984 12.2749 13.9989 12.2874L14.9982 12.25ZM12.4351 15V16C12.4486 16 12.4621 15.9997 12.4756 15.9992L12.4351 15ZM3.57827 15L3.53784 15.9992C3.55131 15.9997 3.56479 16 3.57827 16V15ZM1.00136 12.25L2.00085 12.282C2.00119 12.2713 2.00136 12.2607 2.00136 12.25H1.00136ZM2.00136 7C2.00136 6.44772 1.55364 6 1.00136 6C0.449072 6 0.00135726 6.44772 0.00135726 7H2.00136ZM13.9982 7V12.25H15.9982V7H13.9982ZM13.9989 12.2874C14.0151 12.7222 13.8572 13.147 13.5575 13.4687L15.0205 14.8323C15.6816 14.123 16.0337 13.1811 15.9975 12.2126L13.9989 12.2874ZM13.5575 13.4687C13.2575 13.7905 12.8396 13.9828 12.3946 14.0008L12.4756 15.9992C13.4444 15.96 14.3598 15.5413 15.0205 14.8323L13.5575 13.4687ZM12.4351 14H3.57827V16H12.4351V14ZM3.61869 14.0008C3.17168 13.9827 2.7516 13.7902 2.44928 13.4675L0.989882 14.8351C1.65276 15.5425 2.56872 15.96 3.53784 15.9992L3.61869 14.0008ZM2.44928 13.4675C2.1472 13.1452 1.98685 12.719 2.00085 12.282L0.00186932 12.218C-0.0291505 13.1869 0.326761 14.1274 0.989882 14.8351L2.44928 13.4675ZM2.00136 12.25V7H0.00135726V12.25H2.00136Z" fill="currentColor" mask="url(#path-3-inside-1_3492_24182)"/>
<path d="M8 7.5L8 14" stroke="currentColor" stroke-miterlimit="10" stroke-linecap="round"/>
</svg>
