<svg  viewBox="0 0 150 132" fill="none" xmlns="http://www.w3.org/2000/svg">
<path d="M0.5 9.07909C0.5 4.93696 3.85786 1.5791 8 1.5791H109.877C114.019 1.5791 117.377 4.93697 117.377 9.0791V45.7114C117.377 49.8535 114.019 53.2114 109.877 53.2114H8.00001C3.85787 53.2114 0.5 49.8535 0.5 45.7114V9.07909Z" fill="white" stroke="#E0E4EB"/>
<path d="M0 9.07911C0 4.66083 3.58172 1.0791 8 1.0791H109.877C114.295 1.0791 117.877 4.66082 117.877 9.0791V26.2511H0V9.07911Z" fill="#EFF1F5"/>
<path d="M15.8609 8.95304C13.1489 8.95304 11.3729 10.813 11.3729 13.453C11.3729 16.093 13.2449 17.881 15.8609 17.881C17.1089 17.881 18.2969 17.401 19.0289 16.369L17.7809 15.481C17.3009 16.093 16.6769 16.513 15.8729 16.513C14.0849 16.513 12.9569 15.109 12.9569 13.357C12.9569 11.665 14.1329 10.321 15.8729 10.321C16.6169 10.321 17.1689 10.633 17.6609 11.161L18.8369 10.297C18.0329 9.38504 17.0729 8.95304 15.8609 8.95304ZM22.9957 11.761C21.2317 11.761 19.8637 12.997 19.8637 14.785C19.8637 16.585 21.2317 17.809 22.9957 17.809C23.9797 17.809 24.8077 17.425 25.4317 16.657L24.3997 15.877C23.9917 16.381 23.4997 16.657 22.8517 16.657C22.0237 16.657 21.3997 16.117 21.3037 15.289H25.6957V14.881C25.6957 13.141 24.8197 11.761 22.9957 11.761ZM21.3037 14.209C21.4117 13.393 21.9277 12.841 22.7797 12.841C23.6317 12.841 24.2437 13.309 24.2557 14.209H21.3037ZM30.4503 11.761C29.6943 11.761 29.0583 12.157 28.7463 12.817H28.7223V11.905H27.2823V17.665H28.7223V14.665C28.7223 13.897 29.1783 13.129 30.2703 13.129C30.4863 13.129 30.6903 13.165 30.9663 13.237V11.845C30.7743 11.797 30.6663 11.761 30.4503 11.761ZM32.7024 10.237V11.905H31.5144V13.129H32.7024V15.829C32.7024 17.281 33.2304 17.809 34.5864 17.809C34.9104 17.809 35.4504 17.749 35.7264 17.617V16.405C35.6064 16.501 35.3064 16.585 34.9464 16.585C34.3824 16.585 34.1424 16.297 34.1424 15.685V13.129H35.7264V11.905H34.1424V10.237H32.7024ZM37.8342 9.08504C37.3182 9.08504 36.9222 9.48104 36.9222 9.94904C36.9222 10.417 37.3182 10.813 37.8342 10.813C38.3502 10.813 38.7702 10.465 38.7702 9.94904C38.7702 9.45704 38.3622 9.08504 37.8342 9.08504ZM37.1262 11.905V17.665H38.5662V11.905H37.1262ZM43.1354 8.44904C41.6354 8.44904 40.9754 9.12104 40.9754 11.005V11.905H39.7874V13.129H40.9754V17.665H42.4154V13.129H43.7474V11.905H42.4154V10.813C42.4154 9.99704 42.7034 9.67304 43.3394 9.67304C43.5314 9.67304 43.6994 9.69704 43.9394 9.75704L44.0354 8.53304C43.7594 8.47304 43.3394 8.44904 43.1354 8.44904ZM45.3914 9.08504C44.8754 9.08504 44.4794 9.48104 44.4794 9.94904C44.4794 10.417 44.8754 10.813 45.3914 10.813C45.9074 10.813 46.3274 10.465 46.3274 9.94904C46.3274 9.45704 45.9194 9.08504 45.3914 9.08504ZM44.6834 11.905V17.665H46.1234V11.905H44.6834ZM50.6566 11.761C48.7966 11.761 47.5246 13.093 47.5246 14.785C47.5246 16.573 48.8926 17.809 50.6566 17.809C51.4006 17.809 52.2526 17.473 52.7326 17.005L51.7726 15.973C51.5086 16.321 51.0886 16.513 50.6566 16.513C49.6846 16.513 48.9646 15.781 48.9646 14.785C48.9646 13.861 49.6126 13.057 50.6566 13.057C51.0886 13.057 51.4606 13.333 51.7486 13.633L52.7446 12.637C52.2166 12.049 51.4366 11.761 50.6566 11.761ZM56.2777 11.761C55.1497 11.761 54.3457 12.157 53.8297 12.685L54.5857 13.441C54.9817 13.081 55.5217 12.841 56.1217 12.841C56.9137 12.841 57.4417 13.237 57.4417 13.909V14.077H56.9977C54.5257 14.077 53.4577 14.749 53.4577 16.081C53.4577 17.137 54.3697 17.809 55.5577 17.809C56.3257 17.809 56.9977 17.521 57.4057 16.873H57.4417V17.665H58.7377V14.221C58.7377 12.865 58.2457 11.761 56.2777 11.761ZM54.8977 15.973C54.8977 15.361 55.6657 15.085 56.9377 15.085H57.3577V15.445C57.3577 16.177 56.9017 16.729 55.9177 16.729C55.3777 16.729 54.8977 16.465 54.8977 15.973ZM61.043 10.237V11.905H59.855V13.129H61.043V15.829C61.043 17.281 61.571 17.809 62.927 17.809C63.251 17.809 63.791 17.749 64.067 17.617V16.405C63.947 16.501 63.647 16.585 63.287 16.585C62.723 16.585 62.483 16.297 62.483 15.685V13.129H64.067V11.905H62.483V10.237H61.043ZM68.2751 11.761C66.5111 11.761 65.1431 12.997 65.1431 14.785C65.1431 16.585 66.5111 17.809 68.2751 17.809C69.2591 17.809 70.0871 17.425 70.7111 16.657L69.6791 15.877C69.2711 16.381 68.7791 16.657 68.1311 16.657C67.3031 16.657 66.6791 16.117 66.5831 15.289H70.9751V14.881C70.9751 13.141 70.0991 11.761 68.2751 11.761ZM66.5831 14.209C66.6911 13.393 67.2071 12.841 68.0591 12.841C68.9111 12.841 69.5231 13.309 69.5351 14.209H66.5831Z" fill="#34394B"/>
<path d="M0.5 27.1367H72.2605V45.2726C72.2605 49.4148 68.9027 52.7726 64.7605 52.7726H8C3.85787 52.7726 0.5 49.4148 0.5 45.2726V27.1367Z" stroke="#E0E4EB"/>
<path d="M0.5 26.752H117.377V45.7123C117.377 49.8544 114.019 53.2123 109.877 53.2123H8.00001C3.85787 53.2123 0.5 49.8544 0.5 45.7123V26.752Z" fill="white" stroke="#E0E4EB"/>
<path d="M0.5 26.752H117.377V53.2123H0.5V26.752Z" fill="#FFF0F0" stroke="#E0E4EB"/>
<line x1="11.5" y1="46.5" x2="48.5" y2="46.5" stroke="#BF1B1B" stroke-linecap="round" stroke-dasharray="2 2"/>
<path d="M10.7729 34.504L14.0249 43H14.9969L18.3209 34.504H17.2529L14.5529 41.488H14.5289L11.9129 34.504H10.7729ZM21.2445 37.24C19.5765 37.24 18.3645 38.464 18.3645 40.192C18.3645 41.872 19.4805 43.144 21.2205 43.144C22.3605 43.144 23.1165 42.748 23.7045 41.98L22.9965 41.428C22.5525 42.004 22.0005 42.28 21.2205 42.28C20.2365 42.28 19.4685 41.524 19.3725 40.48H23.9085V40.252C23.9085 38.164 22.7085 37.24 21.2445 37.24ZM19.3725 39.688C19.5165 38.668 20.2365 38.104 21.1965 38.104C22.2405 38.104 22.8525 38.716 22.9005 39.688H19.3725ZM26.1485 34.504C25.7765 34.504 25.4645 34.804 25.4645 35.188C25.4645 35.584 25.7525 35.872 26.1485 35.872C26.5445 35.872 26.8325 35.584 26.8325 35.188C26.8325 34.804 26.5205 34.504 26.1485 34.504ZM25.6805 37.384V43H26.6165V37.384H25.6805ZM31.1793 33.784C29.8353 33.784 29.1993 34.576 29.1993 36.112V37.384H27.9753V38.176H29.1993V43H30.1353V38.176H31.5033V37.384H30.1353V36.124C30.1353 34.96 30.4353 34.648 31.1433 34.648C31.2753 34.648 31.5513 34.684 31.7793 34.768L31.9113 33.928C31.7313 33.832 31.4313 33.784 31.1793 33.784ZM32.8353 34.504C32.4633 34.504 32.1513 34.804 32.1513 35.188C32.1513 35.584 32.4393 35.872 32.8353 35.872C33.2313 35.872 33.5193 35.584 33.5193 35.188C33.5193 34.804 33.2073 34.504 32.8353 34.504ZM32.3673 37.384V43H33.3033V37.384H32.3673ZM37.9606 37.24C36.2926 37.24 35.0806 38.464 35.0806 40.192C35.0806 41.872 36.1966 43.144 37.9366 43.144C39.0766 43.144 39.8326 42.748 40.4206 41.98L39.7126 41.428C39.2686 42.004 38.7166 42.28 37.9366 42.28C36.9526 42.28 36.1846 41.524 36.0886 40.48H40.6246V40.252C40.6246 38.164 39.4246 37.24 37.9606 37.24ZM36.0886 39.688C36.2326 38.668 36.9526 38.104 37.9126 38.104C38.9566 38.104 39.5686 38.716 39.6166 39.688H36.0886ZM46.9806 33.928V38.2H46.9566C46.4406 37.588 45.7326 37.24 44.9406 37.24C43.1886 37.24 41.9886 38.488 41.9886 40.192C41.9886 41.86 43.2126 43.144 44.7966 43.144C45.7206 43.144 46.5726 42.712 46.9566 42.004H46.9806V43H47.9166V33.928H46.9806ZM42.9966 40.192C42.9966 39.004 43.8006 38.104 44.9766 38.104C46.2006 38.104 46.9806 39.004 46.9806 40.192C46.9806 41.38 46.1886 42.28 44.9886 42.28C43.8126 42.28 42.9966 41.404 42.9966 40.192Z" fill="#BF1B1B"/>
<path d="M0.5 52.752H117.377V71.7123C117.377 75.8544 114.019 79.2123 109.877 79.2123H8.00001C3.85787 79.2123 0.5 75.8544 0.5 71.7123V52.752Z" fill="white" stroke="#E0E4EB"/>
<rect x="25" y="58" width="4" height="14" fill="#B6F1E4"/>
<path d="M10.892 60.504L14.144 69H15.116L18.44 60.504H17.372L14.672 67.488H14.648L12.032 60.504H10.892ZM21.3637 63.24C19.6957 63.24 18.4837 64.464 18.4837 66.192C18.4837 67.872 19.5997 69.144 21.3397 69.144C22.4797 69.144 23.2357 68.748 23.8237 67.98L23.1157 67.428C22.6717 68.004 22.1197 68.28 21.3397 68.28C20.3557 68.28 19.5877 67.524 19.4917 66.48H24.0277V66.252C24.0277 64.164 22.8277 63.24 21.3637 63.24ZM19.4917 65.688C19.6357 64.668 20.3557 64.104 21.3157 64.104C22.3597 64.104 22.9717 64.716 23.0197 65.688H19.4917ZM28.4757 63.24C27.6477 63.24 26.9037 63.672 26.6037 64.308H26.5797C26.5797 63.936 26.5557 63.732 26.5557 63.384H25.6677C25.6677 63.72 25.7157 64.26 25.7157 64.632V69H26.6517V66.216C26.6517 64.92 27.2157 64.176 28.2957 64.176C28.4757 64.176 28.6197 64.2 28.7997 64.248L28.8597 63.3C28.7277 63.252 28.6197 63.24 28.4757 63.24ZM30.7264 60.504C30.3544 60.504 30.0424 60.804 30.0424 61.188C30.0424 61.584 30.3304 61.872 30.7264 61.872C31.1224 61.872 31.4104 61.584 31.4104 61.188C31.4104 60.804 31.0984 60.504 30.7264 60.504ZM30.2584 63.384V69H31.1944V63.384H30.2584ZM35.7572 59.784C34.4132 59.784 33.7772 60.576 33.7772 62.112V63.384H32.5532V64.176H33.7772V69H34.7132V64.176H36.0812V63.384H34.7132V62.124C34.7132 60.96 35.0132 60.648 35.7212 60.648C35.8532 60.648 36.1292 60.684 36.3572 60.768L36.4892 59.928C36.3092 59.832 36.0092 59.784 35.7572 59.784ZM37.4132 60.504C37.0412 60.504 36.7292 60.804 36.7292 61.188C36.7292 61.584 37.0172 61.872 37.4132 61.872C37.8092 61.872 38.0972 61.584 38.0972 61.188C38.0972 60.804 37.7852 60.504 37.4132 60.504ZM36.9452 63.384V69H37.8812V63.384H36.9452ZM42.5385 63.24C40.8705 63.24 39.6585 64.464 39.6585 66.192C39.6585 67.872 40.7745 69.144 42.5145 69.144C43.6545 69.144 44.4105 68.748 44.9985 67.98L44.2905 67.428C43.8465 68.004 43.2945 68.28 42.5145 68.28C41.5305 68.28 40.7625 67.524 40.6665 66.48H45.2025V66.252C45.2025 64.164 44.0025 63.24 42.5385 63.24ZM40.6665 65.688C40.8105 64.668 41.5305 64.104 42.4905 64.104C43.5345 64.104 44.1465 64.716 44.1945 65.688H40.6665ZM51.5585 59.928V64.2H51.5345C51.0185 63.588 50.3105 63.24 49.5185 63.24C47.7665 63.24 46.5665 64.488 46.5665 66.192C46.5665 67.86 47.7905 69.144 49.3745 69.144C50.2985 69.144 51.1505 68.712 51.5345 68.004H51.5585V69H52.4945V59.928H51.5585ZM47.5745 66.192C47.5745 65.004 48.3785 64.104 49.5545 64.104C50.7785 64.104 51.5585 65.004 51.5585 66.192C51.5585 67.38 50.7665 68.28 49.5665 68.28C48.3905 68.28 47.5745 67.404 47.5745 66.192Z" fill="#1B1F29"/>
<rect x="108.5" y="31.4434" width="18" height="18" rx="9" fill="#CC4747"/>
<path d="M120.875 37.0684L114.125 43.8184" stroke="white" stroke-width="1.5" stroke-linecap="round" stroke-linejoin="round"/>
<path d="M120.875 43.8184L114.125 37.0684" stroke="white" stroke-width="1.5" stroke-linecap="round" stroke-linejoin="round"/>
<g filter="url(#filter0_d_3432_126557)">
<rect x="61" y="93" width="84" height="31" rx="4" fill="white"/>
<rect x="65" y="97" width="76" height="23" rx="4" fill="#F0FFFC"/>
<path fill-rule="evenodd" clip-rule="evenodd" d="M74 108.5C74 109.519 74.6623 110.386 75.5855 110.704C75.399 111.037 75.2928 111.421 75.2928 111.829C75.2928 113.118 76.3516 114.162 77.6577 114.162C78.0531 114.162 78.4259 114.066 78.7534 113.897C79.0642 114.828 79.9526 115.5 81.0001 115.5C82.0476 115.5 82.936 114.828 83.2468 113.897C83.5743 114.066 83.9471 114.162 84.3425 114.162C85.6486 114.162 86.7074 113.118 86.7074 111.829C86.7074 111.421 86.6012 111.037 86.4147 110.704C87.3378 110.386 88.0002 109.519 88.0002 108.5C88.0002 107.481 87.3378 106.614 86.4147 106.296C86.6012 105.963 86.7074 105.579 86.7074 105.171C86.7074 103.882 85.6486 102.838 84.3425 102.838C83.9471 102.838 83.5743 102.933 83.2468 103.103C82.936 102.172 82.0476 101.5 81.0001 101.5C79.9526 101.5 79.0642 102.172 78.7535 103.103C78.4259 102.933 78.0531 102.838 77.6577 102.838C76.3516 102.838 75.2928 103.882 75.2928 105.171C75.2928 105.579 75.399 105.963 75.5855 106.296C74.6623 106.614 74 107.481 74 108.5Z" fill="#00B38A"/>
<path d="M83.69 107.575L80.6141 110.534C80.4165 110.724 80.3176 110.819 80.1965 110.819C80.0754 110.818 79.9778 110.721 79.7826 110.529L78.299 109.064C78.098 108.866 77.9975 108.766 77.9971 108.643C77.9967 108.519 78.0966 108.419 78.2963 108.219L78.4936 108.022C78.6922 107.823 78.7915 107.724 78.9149 107.724C79.0383 107.724 79.1376 107.823 79.3361 108.022L80.0447 108.73C80.144 108.829 80.1936 108.879 80.2553 108.879C80.317 108.879 80.3667 108.829 80.4659 108.73L82.6639 106.532C82.8625 106.334 82.9617 106.234 83.0851 106.234C83.2085 106.234 83.3078 106.334 83.5064 106.532L83.6982 106.724C83.9003 106.926 84.0014 107.027 84.0002 107.152C83.999 107.277 83.896 107.376 83.69 107.575Z" fill="white"/>
<path d="M92.91 104.42L95.62 111.5H96.43L99.2 104.42H98.31L96.06 110.24H96.04L93.86 104.42H92.91ZM101.636 106.7C100.246 106.7 99.2364 107.72 99.2364 109.16C99.2364 110.56 100.166 111.62 101.616 111.62C102.566 111.62 103.196 111.29 103.686 110.65L103.096 110.19C102.726 110.67 102.266 110.9 101.616 110.9C100.796 110.9 100.156 110.27 100.076 109.4H103.856V109.21C103.856 107.47 102.856 106.7 101.636 106.7ZM100.076 108.74C100.196 107.89 100.796 107.42 101.596 107.42C102.466 107.42 102.976 107.93 103.016 108.74H100.076ZM107.563 106.7C106.873 106.7 106.253 107.06 106.003 107.59H105.983C105.983 107.28 105.963 107.11 105.963 106.82H105.223C105.223 107.1 105.263 107.55 105.263 107.86V111.5H106.043V109.18C106.043 108.1 106.513 107.48 107.413 107.48C107.563 107.48 107.683 107.5 107.833 107.54L107.883 106.75C107.773 106.71 107.683 106.7 107.563 106.7ZM109.439 104.42C109.129 104.42 108.869 104.67 108.869 104.99C108.869 105.32 109.109 105.56 109.439 105.56C109.769 105.56 110.009 105.32 110.009 104.99C110.009 104.67 109.749 104.42 109.439 104.42ZM109.049 106.82V111.5H109.829V106.82H109.049ZM113.631 103.82C112.511 103.82 111.981 104.48 111.981 105.76V106.82H110.961V107.48H111.981V111.5H112.761V107.48H113.901V106.82H112.761V105.77C112.761 104.8 113.011 104.54 113.601 104.54C113.711 104.54 113.941 104.57 114.131 104.64L114.241 103.94C114.091 103.86 113.841 103.82 113.631 103.82ZM115.011 104.42C114.701 104.42 114.441 104.67 114.441 104.99C114.441 105.32 114.681 105.56 115.011 105.56C115.341 105.56 115.581 105.32 115.581 104.99C115.581 104.67 115.321 104.42 115.011 104.42ZM114.621 106.82V111.5H115.401V106.82H114.621ZM119.282 106.7C117.892 106.7 116.882 107.72 116.882 109.16C116.882 110.56 117.812 111.62 119.262 111.62C120.212 111.62 120.842 111.29 121.332 110.65L120.742 110.19C120.372 110.67 119.912 110.9 119.262 110.9C118.442 110.9 117.802 110.27 117.722 109.4H121.502V109.21C121.502 107.47 120.502 106.7 119.282 106.7ZM117.722 108.74C117.842 107.89 118.442 107.42 119.242 107.42C120.112 107.42 120.622 107.93 120.662 108.74H117.722ZM126.799 103.94V107.5H126.779C126.349 106.99 125.759 106.7 125.099 106.7C123.639 106.7 122.639 107.74 122.639 109.16C122.639 110.55 123.659 111.62 124.979 111.62C125.749 111.62 126.459 111.26 126.779 110.67H126.799V111.5H127.579V103.94H126.799ZM123.479 109.16C123.479 108.17 124.149 107.42 125.129 107.42C126.149 107.42 126.799 108.17 126.799 109.16C126.799 110.15 126.139 110.9 125.139 110.9C124.159 110.9 123.479 110.17 123.479 109.16Z" fill="#34394B"/>
<rect x="61.5" y="93.5" width="83" height="30" rx="3.5" stroke="#F6F7F9"/>
</g>
<rect x="39" y="99" width="20" height="20" rx="4" fill="white"/>
<path d="M55 103.311V114.461H51.6549V113.413C50.919 114.26 49.827 114.772 48.3306 114.772C45.4085 114.772 43 112.209 43 108.886C43 105.562 45.4085 103 48.3306 103C49.8248 103 50.9197 103.511 51.6549 104.359V103.311H55ZM51.6542 108.871C51.6542 107.198 50.5391 106.16 48.9981 106.16C47.4572 106.16 46.3421 107.198 46.3421 108.871C46.3421 110.544 47.4601 111.593 48.9981 111.593C50.5361 111.593 51.6542 110.544 51.6542 108.871Z" fill="#2026D2"/>
<path d="M48.9984 110.243C49.7559 110.243 50.3699 109.629 50.3699 108.871C50.3699 108.114 49.7559 107.5 48.9984 107.5C48.241 107.5 47.627 108.114 47.627 108.871C47.627 109.629 48.241 110.243 48.9984 110.243Z" fill="#62E1FC"/>
<rect x="109" y="57" width="18" height="18" rx="9" fill="#00B28A"/>
<path d="M113.499 66.0004L116.5 69.001L122.5 63.001" stroke="white" stroke-width="1.5" stroke-linecap="round" stroke-linejoin="round"/>
<path d="M8.01515 82.471C5.09724 88.4851 5.35054 95.8432 9.32365 101.809C13.3154 107.803 20.0512 110.875 26.7565 110.467" stroke="#E0E4EB" stroke-linecap="round" stroke-dasharray="4 4"/>
<path d="M34.4667 109.644C34.8056 109.826 34.82 110.307 34.4925 110.51L28.5585 114.176C28.2311 114.379 27.8074 114.151 27.7959 113.766L27.5876 106.793C27.5761 106.409 27.9854 106.156 28.3243 106.338L34.4667 109.644Z" fill="#E0E4EB" stroke="#E0E4EB"/>
<defs>
<filter id="filter0_d_3432_126557" x="56" y="90" width="94" height="41" filterUnits="userSpaceOnUse" color-interpolation-filters="sRGB">
<feFlood flood-opacity="0" result="BackgroundImageFix"/>
<feColorMatrix in="SourceAlpha" type="matrix" values="0 0 0 0 0 0 0 0 0 0 0 0 0 0 0 0 0 0 127 0" result="hardAlpha"/>
<feOffset dy="2"/>
<feGaussianBlur stdDeviation="2.5"/>
<feColorMatrix type="matrix" values="0 0 0 0 0.0988235 0 0 0 0 0.127007 0 0 0 0 0.219608 0 0 0 0.04 0"/>
<feBlend mode="normal" in2="BackgroundImageFix" result="effect1_dropShadow_3432_126557"/>
<feBlend mode="normal" in="SourceGraphic" in2="effect1_dropShadow_3432_126557" result="shape"/>
</filter>
</defs>
</svg>
