<svg width="16" height="16" viewBox="0 0 16 16" fill="none" xmlns="http://www.w3.org/2000/svg">
<mask id="path-1-outside-1_1333_80939" maskUnits="userSpaceOnUse" x="1" y="1" width="14" height="14" fill="black">
<rect fill="white" x="1" y="1" width="14" height="14"/>
<path d="M12 2H4C2.89543 2 2 2.89543 2 4V10C2 10.8837 2.71634 11.6 3.6 11.6C4.04183 11.6 4.4 11.9582 4.4 12.4V14L7.74808 11.768C7.91234 11.6584 8.10535 11.6 8.30278 11.6H12C13.1046 11.6 14 10.7046 14 9.6V4C14 2.89543 13.1046 2 12 2Z"/>
</mask>
<path d="M4.4 14H3.4C3.4 14.3688 3.60298 14.7077 3.92814 14.8817C4.2533 15.0557 4.64784 15.0366 4.9547 14.8321L4.4 14ZM7.74808 11.768L7.19338 10.9359L7.19338 10.9359L7.74808 11.768ZM4 3H12V1H4V3ZM13 4V9.6H15V4H13ZM3 10V4H1V10H3ZM12 10.6H8.30278V12.6H12V10.6ZM4.9547 14.8321L8.30278 12.6L7.19338 10.9359L3.8453 13.1679L4.9547 14.8321ZM5.4 14V12.4H3.4V14H5.4ZM5.4 12.4C5.4 11.4059 4.59411 10.6 3.6 10.6V12.6C3.48954 12.6 3.4 12.5105 3.4 12.4H5.4ZM1 10C1 11.4359 2.16406 12.6 3.6 12.6V10.6C3.26863 10.6 3 10.3314 3 10H1ZM13 9.6C13 10.1523 12.5523 10.6 12 10.6V12.6C13.6569 12.6 15 11.2569 15 9.6H13ZM12 3C12.5523 3 13 3.44772 13 4H15C15 2.34315 13.6569 1 12 1V3ZM8.30278 10.6C7.90792 10.6 7.52191 10.7169 7.19338 10.9359L8.30277 12.6L8.30278 12.6V10.6ZM4 1C2.34315 1 1 2.34314 1 4H3C3 3.44771 3.44771 3 4 3V1Z" fill="#6F7590" mask="url(#path-1-outside-1_1333_80939)"/>
</svg>
