<svg  viewBox="0 0 150 132" fill="none" xmlns="http://www.w3.org/2000/svg">
<path d="M6 26H134V49H6V26Z" fill="white" stroke="#E0E4EB" stroke-width="2"/>
<path d="M6 49H134V72H6V49Z" fill="white" stroke="#E0E4EB" stroke-width="2"/>
<path d="M6 72H134V88C134 91.866 130.866 95 127 95H13C9.13401 95 6 91.866 6 88V72Z" fill="white" stroke="#E0E4EB" stroke-width="2"/>
<path d="M6 10C6 6.13401 9.13401 3 13 3H127C130.866 3 134 6.13401 134 10V26H6V10Z" fill="#EFF1F5" stroke="#225BD2" stroke-width="2"/>
<line x1="71" y1="27" x2="71" y2="95" stroke="#E0E4EB" stroke-width="2"/>
<rect x="15.5" y="9.9209" width="40.6889" height="9.74711" rx="4.87356" fill="#E0E4EB"/>
<rect x="72.5" y="9.9209" width="40.6889" height="9.74711" rx="4.87356" fill="#E0E4EB"/>
<rect x="120.5" y="11.4209" width="27" height="27" rx="13.5" fill="white"/>
<path fill-rule="evenodd" clip-rule="evenodd" d="M129 23.9209V21.9209C129 20.5948 129.527 19.323 130.464 18.3854C131.402 17.4477 132.674 16.9209 134 16.9209C135.326 16.9209 136.598 17.4477 137.536 18.3854C138.473 19.323 139 20.5948 139 21.9209V23.9209C139.53 23.9209 140.039 24.1316 140.414 24.5067C140.789 24.8818 141 25.3905 141 25.9209V30.9209C141 31.4513 140.789 31.96 140.414 32.3351C140.039 32.7102 139.53 32.9209 139 32.9209H129C128.47 32.9209 127.961 32.7102 127.586 32.3351C127.211 31.96 127 31.4513 127 30.9209V25.9209C127 25.3905 127.211 24.8818 127.586 24.5067C127.961 24.1316 128.47 23.9209 129 23.9209ZM137 21.9209V23.9209H131V21.9209C131 21.1252 131.316 20.3622 131.879 19.7996C132.441 19.237 133.204 18.9209 134 18.9209C134.796 18.9209 135.559 19.237 136.121 19.7996C136.684 20.3622 137 21.1252 137 21.9209Z" fill="#225BD2"/>
<rect x="120.5" y="11.4209" width="27" height="27" rx="13.5" stroke="#E0E4EB"/>
</svg>
