<svg  viewBox="0 0 150 132" fill="none" xmlns="http://www.w3.org/2000/svg">
<g clip-path="url(#clip0_3433_127293)">
<path d="M-0.5 9C-0.5 4.58172 3.08172 1 7.5 1H126.5C130.918 1 134.5 4.58172 134.5 9V26H-0.5V9Z" fill="#EFF1F5"/>
<path d="M15.8609 8.95304C13.1489 8.95304 11.3729 10.813 11.3729 13.453C11.3729 16.093 13.2449 17.881 15.8609 17.881C17.1089 17.881 18.2969 17.401 19.0289 16.369L17.7809 15.481C17.3009 16.093 16.6769 16.513 15.8729 16.513C14.0849 16.513 12.9569 15.109 12.9569 13.357C12.9569 11.665 14.1329 10.321 15.8729 10.321C16.6169 10.321 17.1689 10.633 17.6609 11.161L18.8369 10.297C18.0329 9.38504 17.0729 8.95304 15.8609 8.95304ZM22.5877 11.761C21.4597 11.761 20.6557 12.157 20.1397 12.685L20.8957 13.441C21.2917 13.081 21.8317 12.841 22.4317 12.841C23.2237 12.841 23.7517 13.237 23.7517 13.909V14.077H23.3077C20.8357 14.077 19.7677 14.749 19.7677 16.081C19.7677 17.137 20.6797 17.809 21.8677 17.809C22.6357 17.809 23.3077 17.521 23.7157 16.873H23.7517V17.665H25.0477V14.221C25.0477 12.865 24.5557 11.761 22.5877 11.761ZM21.2077 15.973C21.2077 15.361 21.9757 15.085 23.2477 15.085H23.6677V15.445C23.6677 16.177 23.2117 16.729 22.2277 16.729C21.6877 16.729 21.2077 16.465 21.2077 15.973ZM27.353 10.237V11.905H26.165V13.129H27.353V15.829C27.353 17.281 27.881 17.809 29.237 17.809C29.561 17.809 30.101 17.749 30.377 17.617V16.405C30.257 16.501 29.957 16.585 29.597 16.585C29.033 16.585 28.793 16.297 28.793 15.685V13.129H30.377V11.905H28.793V10.237H27.353ZM34.5851 11.761C32.8211 11.761 31.4531 12.997 31.4531 14.785C31.4531 16.585 32.8211 17.809 34.5851 17.809C35.5691 17.809 36.3971 17.425 37.0211 16.657L35.9891 15.877C35.5811 16.381 35.0891 16.657 34.4411 16.657C33.6131 16.657 32.9891 16.117 32.8931 15.289H37.2851V14.881C37.2851 13.141 36.4091 11.761 34.5851 11.761ZM32.8931 14.209C33.0011 13.393 33.5171 12.841 34.3691 12.841C35.2211 12.841 35.8331 13.309 35.8451 14.209H32.8931ZM41.4157 11.761C39.6637 11.761 38.5837 13.057 38.5837 14.785C38.5837 16.453 39.7597 17.737 41.4517 17.737C42.1957 17.737 42.8917 17.461 43.3357 16.897H43.3597V17.269C43.3597 18.553 42.8797 19.249 41.5357 19.249C40.7437 19.249 40.1317 18.949 39.5557 18.421L38.6917 19.597C39.4957 20.305 40.4677 20.545 41.5477 20.545C43.7197 20.545 44.7997 19.273 44.7997 17.197V11.905H43.4317V12.769H43.4077C42.9757 12.061 42.2197 11.761 41.4157 11.761ZM40.0237 14.773C40.0237 13.753 40.7197 13.057 41.7157 13.057C42.7357 13.057 43.4317 13.693 43.4317 14.749C43.4317 15.757 42.7237 16.441 41.7157 16.441C40.7917 16.441 40.0237 15.733 40.0237 14.773ZM49.5143 11.761C47.7623 11.761 46.3823 12.997 46.3823 14.785C46.3823 16.585 47.7503 17.809 49.5143 17.809C51.2783 17.809 52.6463 16.585 52.6463 14.785C52.6463 12.985 51.2783 11.761 49.5143 11.761ZM47.8223 14.785C47.8223 13.801 48.5423 13.057 49.5023 13.057C50.4863 13.057 51.2063 13.789 51.2063 14.785C51.2063 15.745 50.5223 16.513 49.5143 16.513C48.5423 16.513 47.8223 15.781 47.8223 14.785ZM57.4025 11.761C56.6465 11.761 56.0105 12.157 55.6985 12.817H55.6745V11.905H54.2345V17.665H55.6745V14.665C55.6745 13.897 56.1305 13.129 57.2225 13.129C57.4385 13.129 57.6425 13.165 57.9185 13.237V11.845C57.7265 11.797 57.6185 11.761 57.4025 11.761ZM59.8706 9.08504C59.3546 9.08504 58.9586 9.48104 58.9586 9.94904C58.9586 10.417 59.3546 10.813 59.8706 10.813C60.3866 10.813 60.8066 10.465 60.8066 9.94904C60.8066 9.45704 60.3986 9.08504 59.8706 9.08504ZM59.1626 11.905V17.665H60.6026V11.905H59.1626ZM65.3398 11.761C63.5758 11.761 62.2078 12.997 62.2078 14.785C62.2078 16.585 63.5758 17.809 65.3398 17.809C66.3238 17.809 67.1518 17.425 67.7758 16.657L66.7438 15.877C66.3358 16.381 65.8438 16.657 65.1958 16.657C64.3678 16.657 63.7438 16.117 63.6478 15.289H68.0398V14.881C68.0398 13.141 67.1638 11.761 65.3398 11.761ZM63.6478 14.209C63.7558 13.393 64.2718 12.841 65.1238 12.841C65.9758 12.841 66.5878 13.309 66.5998 14.209H63.6478ZM71.5944 11.761C70.6104 11.761 69.2904 12.217 69.2904 13.621C69.2904 14.797 70.1904 15.073 70.9704 15.253C71.7024 15.421 72.3984 15.517 72.3984 16.069C72.3984 16.465 71.9664 16.729 71.4384 16.729C70.9464 16.729 70.5624 16.561 70.0704 16.021L69.1104 16.921C69.6984 17.581 70.4544 17.809 71.3424 17.809C72.7704 17.809 73.8384 17.173 73.8384 15.961C73.8384 14.773 72.9864 14.449 72.0984 14.245C71.3784 14.077 70.7304 13.993 70.7304 13.525C70.7304 13.153 71.1024 12.913 71.5704 12.913C72.0504 12.913 72.4104 13.105 72.6984 13.501L73.6584 12.637C73.2384 12.073 72.4944 11.761 71.5944 11.761Z" fill="#34394B"/>
<path d="M0 25.5H134V44C134 48.1421 130.642 51.5 126.5 51.5H7.5C3.35786 51.5 0 48.1421 0 44V25.5Z" fill="white" stroke="#E0E4EB"/>
<path d="M11.0129 33.7774V34.7134H13.8209V42.2734H14.8289V34.7134H17.6369V33.7774H11.0129ZM19.4515 33.7774C19.0795 33.7774 18.7675 34.0774 18.7675 34.4614C18.7675 34.8574 19.0555 35.1454 19.4515 35.1454C19.8475 35.1454 20.1355 34.8574 20.1355 34.4614C20.1355 34.0774 19.8235 33.7774 19.4515 33.7774ZM18.9835 36.6574V42.2734H19.9195V36.6574H18.9835ZM24.7943 36.5134C23.9423 36.5134 23.2103 36.9454 22.9103 37.5814H22.8863C22.8863 37.2094 22.8623 37.0054 22.8623 36.6574H21.9743C21.9743 36.9934 22.0223 37.5334 22.0223 37.9054V42.2734H22.9583V39.5254C22.9583 38.1694 23.5583 37.3774 24.6863 37.3774C25.5023 37.3774 25.7783 37.9294 25.7783 39.0214V42.2734H26.7143V38.9974C26.7143 38.1094 27.3263 37.3774 28.1663 37.3774C29.0663 37.3774 29.5343 37.9174 29.5343 38.8774V42.2734H30.4703V38.8054C30.4703 37.2814 29.7983 36.5134 28.3463 36.5134C27.5423 36.5134 27.0023 36.8494 26.5583 37.5814C26.1863 36.7774 25.5623 36.5134 24.7943 36.5134ZM35.037 36.5134C33.369 36.5134 32.157 37.7374 32.157 39.4654C32.157 41.1454 33.273 42.4174 35.013 42.4174C36.153 42.4174 36.909 42.0214 37.497 41.2534L36.789 40.7014C36.345 41.2774 35.793 41.5534 35.013 41.5534C34.029 41.5534 33.261 40.7974 33.165 39.7534H37.701V39.5254C37.701 37.4374 36.501 36.5134 35.037 36.5134ZM33.165 38.9614C33.309 37.9414 34.029 37.3774 34.989 37.3774C36.033 37.3774 36.645 37.9894 36.693 38.9614H33.165ZM39.557 33.7774V42.2734H40.565V38.4574H42.317C43.889 38.4574 45.053 37.6534 45.053 36.1054C45.053 34.5814 43.949 33.7774 42.137 33.7774H39.557ZM40.565 37.5214V34.7134H42.317C43.349 34.7134 43.973 35.2414 43.973 36.1174C43.973 36.9934 43.337 37.5214 42.317 37.5214H40.565ZM49.2983 36.5134C47.6303 36.5134 46.4183 37.7374 46.4183 39.4654C46.4183 41.1454 47.5343 42.4174 49.2743 42.4174C50.4143 42.4174 51.1703 42.0214 51.7583 41.2534L51.0503 40.7014C50.6063 41.2774 50.0543 41.5534 49.2743 41.5534C48.2903 41.5534 47.5223 40.7974 47.4263 39.7534H51.9623V39.5254C51.9623 37.4374 50.7623 36.5134 49.2983 36.5134ZM47.4263 38.9614C47.5703 37.9414 48.2903 37.3774 49.2503 37.3774C50.2943 37.3774 50.9063 37.9894 50.9543 38.9614H47.4263ZM56.4103 36.5134C55.5823 36.5134 54.8383 36.9454 54.5383 37.5814H54.5143C54.5143 37.2094 54.4903 37.0054 54.4903 36.6574H53.6023C53.6023 36.9934 53.6503 37.5334 53.6503 37.9054V42.2734H54.5863V39.4894C54.5863 38.1934 55.1503 37.4494 56.2303 37.4494C56.4103 37.4494 56.5543 37.4734 56.7343 37.5214L56.7943 36.5734C56.6623 36.5254 56.5543 36.5134 56.4103 36.5134ZM58.661 33.7774C58.289 33.7774 57.977 34.0774 57.977 34.4614C57.977 34.8574 58.265 35.1454 58.661 35.1454C59.057 35.1454 59.345 34.8574 59.345 34.4614C59.345 34.0774 59.033 33.7774 58.661 33.7774ZM58.193 36.6574V42.2734H59.129V36.6574H58.193ZM63.9078 36.5134C62.1438 36.5134 60.9078 37.7494 60.9078 39.4654C60.9078 41.1934 62.1678 42.4174 63.9078 42.4174C65.6478 42.4174 66.9078 41.1934 66.9078 39.4654C66.9078 37.7254 65.6478 36.5134 63.9078 36.5134ZM61.9158 39.4654C61.9158 38.2774 62.7198 37.3774 63.8958 37.3774C65.1078 37.3774 65.8998 38.2774 65.8998 39.4654C65.8998 40.6534 65.1078 41.5534 63.9078 41.5534C62.7318 41.5534 61.9158 40.6774 61.9158 39.4654ZM73.2648 33.2014V37.4734H73.2408C72.7248 36.8614 72.0168 36.5134 71.2248 36.5134C69.4728 36.5134 68.2728 37.7614 68.2728 39.4654C68.2728 41.1334 69.4968 42.4174 71.0808 42.4174C72.0048 42.4174 72.8568 41.9854 73.2408 41.2774H73.2648V42.2734H74.2008V33.2014H73.2648ZM69.2808 39.4654C69.2808 38.2774 70.0848 37.3774 71.2608 37.3774C72.4848 37.3774 73.2648 38.2774 73.2648 39.4654C73.2648 40.6534 72.4728 41.5534 71.2728 41.5534C70.0968 41.5534 69.2808 40.6774 69.2808 39.4654ZM84.3568 37.2334C84.3568 35.1694 82.5808 33.5614 80.3008 33.5614C77.7928 33.5614 75.8128 35.5774 75.8128 38.0254C75.8128 40.4734 77.7568 42.4894 80.3008 42.4894C81.8608 42.4894 83.3248 41.6974 84.0808 40.3894H83.3248C82.6528 41.2894 81.4648 41.8414 80.3008 41.8414C78.2248 41.8414 76.6048 40.0654 76.6048 38.0254C76.6048 35.9854 78.2128 34.2094 80.3008 34.2094C82.1368 34.2094 83.5648 35.5534 83.5648 37.2934C83.5648 38.5054 82.7368 39.9094 81.8848 39.9094C81.6928 39.9094 81.5968 39.8254 81.5968 39.6694C81.5968 39.5374 81.5968 39.4174 81.7288 38.9854L82.7128 35.6734H81.9328L81.7168 36.4294H81.6928C81.4648 35.8054 81.0088 35.4454 80.3488 35.4454C78.7408 35.4454 77.5648 37.1014 77.5648 38.8294C77.5648 39.8974 78.2488 40.7014 79.2568 40.7014C79.8208 40.7014 80.2408 40.4974 80.7568 39.9094H80.7808C80.7928 40.4494 81.1288 40.7014 81.5488 40.7014C82.7848 40.7014 84.3568 39.1774 84.3568 37.2334ZM79.4728 39.9094C78.8848 39.9094 78.4288 39.4174 78.4288 38.7574C78.4288 37.6054 79.3048 36.2374 80.3488 36.2374C80.8768 36.2374 81.3328 36.7774 81.3328 37.3654C81.3328 38.3734 80.5048 39.9094 79.4728 39.9094ZM85.1944 33.7774L87.6784 42.2734H88.7824L90.8944 35.0734H90.9184L93.0184 42.2734H94.1104L96.6064 33.7774H95.5504L93.5824 40.8334H93.5584L91.4824 33.7774H90.3544L88.2664 40.8334H88.2424L86.3104 33.7774H85.1944ZM99.7986 36.5134C98.1306 36.5134 96.9186 37.7374 96.9186 39.4654C96.9186 41.1454 98.0346 42.4174 99.7746 42.4174C100.915 42.4174 101.671 42.0214 102.259 41.2534L101.551 40.7014C101.107 41.2774 100.555 41.5534 99.7746 41.5534C98.7906 41.5534 98.0226 40.7974 97.9266 39.7534H102.463V39.5254C102.463 37.4374 101.263 36.5134 99.7986 36.5134ZM97.9266 38.9614C98.0706 37.9414 98.7906 37.3774 99.7506 37.3774C100.795 37.3774 101.407 37.9894 101.455 38.9614H97.9266ZM106.707 36.5134C105.039 36.5134 103.827 37.7374 103.827 39.4654C103.827 41.1454 104.943 42.4174 106.683 42.4174C107.823 42.4174 108.579 42.0214 109.167 41.2534L108.459 40.7014C108.015 41.2774 107.463 41.5534 106.683 41.5534C105.699 41.5534 104.931 40.7974 104.835 39.7534H109.371V39.5254C109.371 37.4374 108.171 36.5134 106.707 36.5134ZM104.835 38.9614C104.979 37.9414 105.699 37.3774 106.659 37.3774C107.703 37.3774 108.315 37.9894 108.363 38.9614H104.835ZM111.059 33.2014V42.2734H111.995V39.3214L114.779 42.2734H116.159L113.171 39.2134L115.883 36.6574H114.551L111.995 39.1294V33.2014H111.059ZM117.383 33.2014V42.2734H118.319V33.2014H117.383ZM119.653 36.6574L121.981 42.3094L121.561 43.4614C121.333 44.0734 121.021 44.2894 120.553 44.2894C120.301 44.2894 120.085 44.2774 119.893 44.1934L119.773 45.0094C120.025 45.1174 120.301 45.1534 120.613 45.1534C121.477 45.1534 121.993 44.8174 122.449 43.6534L125.197 36.6574H124.177L122.509 41.0614H122.485L120.745 36.6574H119.653Z" fill="#1B1F29"/>
<g filter="url(#filter0_d_3433_127293)">
<path d="M6.5 76C6.5 73.7909 8.29086 72 10.5 72H142.5C144.709 72 146.5 73.7909 146.5 76V120C146.5 122.209 144.709 124 142.5 124H10.5C8.29086 124 6.5 122.209 6.5 120V76Z" fill="white"/>
<path d="M22.5 86L18.8536 89.6464C18.6583 89.8417 18.3417 89.8417 18.1464 89.6464L14.5 86" stroke="#6A7692" stroke-linecap="round" stroke-linejoin="round"/>
<rect x="32" y="84.5" width="13" height="9" rx="2" fill="#F6F7F9" stroke="#6A7692"/>
<path d="M36 84C36 83.337 36.2634 82.7011 36.7322 82.2322C37.2011 81.7634 37.837 81.5 38.5 81.5C39.163 81.5 39.7989 81.7634 40.2678 82.2322C40.7366 82.7011 41 83.337 41 84" stroke="#6A7692" stroke-linecap="round" stroke-linejoin="round"/>
<path d="M50.632 82.504V83.44H53.44V91H54.448V83.44H57.256V82.504H50.632ZM59.0706 82.504C58.6986 82.504 58.3866 82.804 58.3866 83.188C58.3866 83.584 58.6746 83.872 59.0706 83.872C59.4666 83.872 59.7546 83.584 59.7546 83.188C59.7546 82.804 59.4426 82.504 59.0706 82.504ZM58.6026 85.384V91H59.5386V85.384H58.6026ZM64.4134 85.24C63.5614 85.24 62.8294 85.672 62.5294 86.308H62.5054C62.5054 85.936 62.4814 85.732 62.4814 85.384H61.5934C61.5934 85.72 61.6414 86.26 61.6414 86.632V91H62.5774V88.252C62.5774 86.896 63.1774 86.104 64.3054 86.104C65.1214 86.104 65.3974 86.656 65.3974 87.748V91H66.3334V87.724C66.3334 86.836 66.9454 86.104 67.7854 86.104C68.6854 86.104 69.1534 86.644 69.1534 87.604V91H70.0894V87.532C70.0894 86.008 69.4174 85.24 67.9654 85.24C67.1614 85.24 66.6214 85.576 66.1774 86.308C65.8054 85.504 65.1814 85.24 64.4134 85.24ZM74.6562 85.24C72.9882 85.24 71.7762 86.464 71.7762 88.192C71.7762 89.872 72.8922 91.144 74.6322 91.144C75.7722 91.144 76.5282 90.748 77.1162 89.98L76.4082 89.428C75.9642 90.004 75.4122 90.28 74.6322 90.28C73.6482 90.28 72.8802 89.524 72.7842 88.48H77.3202V88.252C77.3202 86.164 76.1202 85.24 74.6562 85.24ZM72.7842 87.688C72.9282 86.668 73.6482 86.104 74.6082 86.104C75.6522 86.104 76.2642 86.716 76.3122 87.688H72.7842ZM82.756 82.504V91H83.764V87.184H85.516C87.088 87.184 88.252 86.38 88.252 84.832C88.252 83.308 87.148 82.504 85.336 82.504H82.756ZM83.764 86.248V83.44H85.516C86.548 83.44 87.172 83.968 87.172 84.844C87.172 85.72 86.536 86.248 85.516 86.248H83.764ZM92.4973 85.24C90.8293 85.24 89.6173 86.464 89.6173 88.192C89.6173 89.872 90.7333 91.144 92.4733 91.144C93.6133 91.144 94.3693 90.748 94.9573 89.98L94.2493 89.428C93.8053 90.004 93.2533 90.28 92.4733 90.28C91.4893 90.28 90.7213 89.524 90.6253 88.48H95.1613V88.252C95.1613 86.164 93.9613 85.24 92.4973 85.24ZM90.6253 87.688C90.7693 86.668 91.4893 86.104 92.4493 86.104C93.4933 86.104 94.1053 86.716 94.1533 87.688H90.6253ZM99.6093 85.24C98.7813 85.24 98.0373 85.672 97.7373 86.308H97.7133C97.7133 85.936 97.6893 85.732 97.6893 85.384H96.8013C96.8013 85.72 96.8493 86.26 96.8493 86.632V91H97.7853V88.216C97.7853 86.92 98.3493 86.176 99.4293 86.176C99.6093 86.176 99.7533 86.2 99.9333 86.248L99.9933 85.3C99.8613 85.252 99.7533 85.24 99.6093 85.24ZM101.86 82.504C101.488 82.504 101.176 82.804 101.176 83.188C101.176 83.584 101.464 83.872 101.86 83.872C102.256 83.872 102.544 83.584 102.544 83.188C102.544 82.804 102.232 82.504 101.86 82.504ZM101.392 85.384V91H102.328V85.384H101.392ZM107.107 85.24C105.343 85.24 104.107 86.476 104.107 88.192C104.107 89.92 105.367 91.144 107.107 91.144C108.847 91.144 110.107 89.92 110.107 88.192C110.107 86.452 108.847 85.24 107.107 85.24ZM105.115 88.192C105.115 87.004 105.919 86.104 107.095 86.104C108.307 86.104 109.099 87.004 109.099 88.192C109.099 89.38 108.307 90.28 107.107 90.28C105.931 90.28 105.115 89.404 105.115 88.192ZM116.464 81.928V86.2H116.44C115.924 85.588 115.216 85.24 114.424 85.24C112.672 85.24 111.472 86.488 111.472 88.192C111.472 89.86 112.696 91.144 114.28 91.144C115.204 91.144 116.056 90.712 116.44 90.004H116.464V91H117.4V81.928H116.464ZM112.48 88.192C112.48 87.004 113.284 86.104 114.46 86.104C115.684 86.104 116.464 87.004 116.464 88.192C116.464 89.38 115.672 90.28 114.472 90.28C113.296 90.28 112.48 89.404 112.48 88.192Z" fill="#34394B"/>
<path d="M43 106L39.3536 109.646C39.1583 109.842 38.8417 109.842 38.6464 109.646L35 106" stroke="#6A7692" stroke-linecap="round" stroke-linejoin="round"/>
<rect x="52.5" y="104.5" width="13" height="9" rx="2" fill="#F6F7F9" stroke="#6A7692"/>
<path d="M56.5 104C56.5 103.337 56.7634 102.701 57.2322 102.232C57.7011 101.763 58.337 101.5 59 101.5C59.663 101.5 60.2989 101.763 60.7678 102.232C61.2366 102.701 61.5 103.337 61.5 104" stroke="#6A7692" stroke-linecap="round" stroke-linejoin="round"/>
<path d="M71.072 102.504L73.556 111H74.66L76.772 103.8H76.796L78.896 111H79.988L82.484 102.504H81.428L79.46 109.56H79.436L77.36 102.504H76.232L74.144 109.56H74.12L72.188 102.504H71.072ZM85.6762 105.24C84.0082 105.24 82.7962 106.464 82.7962 108.192C82.7962 109.872 83.9122 111.144 85.6522 111.144C86.7922 111.144 87.5482 110.748 88.1362 109.98L87.4282 109.428C86.9842 110.004 86.4322 110.28 85.6522 110.28C84.6682 110.28 83.9002 109.524 83.8042 108.48H88.3402V108.252C88.3402 106.164 87.1402 105.24 85.6762 105.24ZM83.8042 107.688C83.9482 106.668 84.6682 106.104 85.6282 106.104C86.6722 106.104 87.2842 106.716 87.3322 107.688H83.8042ZM92.5842 105.24C90.9162 105.24 89.7042 106.464 89.7042 108.192C89.7042 109.872 90.8202 111.144 92.5602 111.144C93.7002 111.144 94.4562 110.748 95.0442 109.98L94.3362 109.428C93.8922 110.004 93.3402 110.28 92.5602 110.28C91.5762 110.28 90.8082 109.524 90.7122 108.48H95.2482V108.252C95.2482 106.164 94.0482 105.24 92.5842 105.24ZM90.7122 107.688C90.8562 106.668 91.5762 106.104 92.5362 106.104C93.5802 106.104 94.1922 106.716 94.2402 107.688H90.7122ZM96.9361 101.928V111H97.8721V108.048L100.656 111H102.036L99.0481 107.94L101.76 105.384H100.428L97.8721 107.856V101.928H96.9361ZM103.26 101.928V111H104.196V101.928H103.26ZM105.531 105.384L107.859 111.036L107.439 112.188C107.211 112.8 106.899 113.016 106.431 113.016C106.179 113.016 105.963 113.004 105.771 112.92L105.651 113.736C105.903 113.844 106.179 113.88 106.491 113.88C107.355 113.88 107.871 113.544 108.327 112.38L111.075 105.384H110.055L108.387 109.788H108.363L106.623 105.384H105.531Z" fill="#34394B"/>
<path d="M7 76C7 74.067 8.567 72.5 10.5 72.5H142.5C144.433 72.5 146 74.067 146 76V120C146 121.933 144.433 123.5 142.5 123.5H10.5C8.567 123.5 7 121.933 7 120V76Z" stroke="#F6F7F9"/>
</g>
<rect y="91" width="20" height="20" rx="4" fill="white"/>
<path d="M16 95.3107V106.461H12.6549V105.413C11.919 106.26 10.827 106.772 9.33061 106.772C6.40847 106.772 4 104.209 4 100.886C4 97.5623 6.40847 95 9.33061 95C10.8248 95 11.9197 95.5114 12.6549 96.3589V95.3107H16ZM12.6542 100.871C12.6542 99.1977 11.5391 98.16 9.99814 98.16C8.45716 98.16 7.34213 99.1977 7.34213 100.871C7.34213 102.544 8.46014 103.593 9.99814 103.593C11.5361 103.593 12.6542 102.544 12.6542 100.871Z" fill="#2026D2"/>
<path d="M9.99845 102.243C10.7559 102.243 11.3699 101.629 11.3699 100.871C11.3699 100.114 10.7559 99.5 9.99845 99.5C9.24099 99.5 8.62695 100.114 8.62695 100.871C8.62695 101.629 9.24099 102.243 9.99845 102.243Z" fill="#62E1FC"/>
<path d="M89.2723 73.5136C89.1895 73.8895 88.7309 74.0349 88.4467 73.7753L83.2965 69.0709C83.0124 68.8113 83.1157 68.3414 83.4827 68.2251L90.1319 66.1171C90.4988 66.0008 90.8541 66.3253 90.7713 66.7012L89.2723 73.5136Z" fill="#E0E4EB" stroke="#E0E4EB"/>
<path d="M37.535 52.5107C36.2464 54.7657 36.0805 58.4055 36.9333 60.7881C37.9099 63.5171 40.0138 65.1033 42.6717 65.9101C46.1518 66.9666 50.0131 67.1212 53.6054 66.5118C55.9743 66.11 58.1237 65.3148 60.2464 64.2003C61.8478 63.3596 63.5344 62.7108 65.1409 61.8888C66.3621 61.264 67.512 60.7852 68.8393 60.4359C70.6376 59.9627 72.6315 60.1365 74.4603 60.3332C77.0642 60.6132 79.5498 61.6983 81.7837 62.9749C83.0066 63.6736 83.6426 64.6723 84.6016 65.6313C85.4266 66.4563 86.1617 67.7388 86.6709 68.7573" stroke="#E0E4EB" stroke-width="1.5" stroke-linecap="round" stroke-dasharray="3 3"/>
</g>
<defs>
<filter id="filter0_d_3433_127293" x="1.5" y="69" width="150" height="62" filterUnits="userSpaceOnUse" color-interpolation-filters="sRGB">
<feFlood flood-opacity="0" result="BackgroundImageFix"/>
<feColorMatrix in="SourceAlpha" type="matrix" values="0 0 0 0 0 0 0 0 0 0 0 0 0 0 0 0 0 0 127 0" result="hardAlpha"/>
<feOffset dy="2"/>
<feGaussianBlur stdDeviation="2.5"/>
<feColorMatrix type="matrix" values="0 0 0 0 0.0988235 0 0 0 0 0.127007 0 0 0 0 0.219608 0 0 0 0.04 0"/>
<feBlend mode="normal" in2="BackgroundImageFix" result="effect1_dropShadow_3433_127293"/>
<feBlend mode="normal" in="SourceGraphic" in2="effect1_dropShadow_3433_127293" result="shape"/>
</filter>
<clipPath id="clip0_3433_127293">
<rect width="150" height="132" fill="white"/>
</clipPath>
</defs>
</svg>
