<svg  viewBox="0 0 150 132" fill="none" xmlns="http://www.w3.org/2000/svg">
<g clip-path="url(#clip0_3433_127108)">
<rect x="2" y="100" width="20" height="20" rx="4" fill="white"/>
<path d="M18 104.311V115.461H14.6549V114.413C13.919 115.26 12.827 115.772 11.3306 115.772C8.40847 115.772 6 113.209 6 109.886C6 106.562 8.40847 104 11.3306 104C12.8248 104 13.9197 104.511 14.6549 105.359V104.311H18ZM14.6542 109.871C14.6542 108.198 13.5391 107.16 11.9981 107.16C10.4572 107.16 9.34213 108.198 9.34213 109.871C9.34213 111.544 10.4601 112.593 11.9981 112.593C13.5361 112.593 14.6542 111.544 14.6542 109.871Z" fill="#2026D2"/>
<path d="M11.9984 111.243C12.7559 111.243 13.3699 110.629 13.3699 109.871C13.3699 109.114 12.7559 108.5 11.9984 108.5C11.241 108.5 10.627 109.114 10.627 109.871C10.627 110.629 11.241 111.243 11.9984 111.243Z" fill="#62E1FC"/>
<g filter="url(#filter0_d_3433_127108)">
<rect x="22" y="93" width="124" height="34" rx="8" fill="white"/>
<rect x="28.5" y="99.5" width="45" height="22" rx="11" fill="white"/>
<path d="M37.5625 109.667V108C37.5625 107.917 37.5954 107.838 37.654 107.779C37.7126 107.72 37.875 107.688 37.875 107.688C37.875 107.688 39.2051 107.355 40.3717 106.69C40.7578 106.47 41.2422 106.47 41.6283 106.69C42.7949 107.355 44.125 107.688 44.125 107.688C44.125 107.688 44.2874 107.72 44.346 107.779C44.4046 107.838 44.4375 107.917 44.4375 108V109.667C44.4375 112.949 41.6521 114.359 41.0959 114.544C41.0338 114.565 40.9662 114.565 40.9041 114.544C40.3479 114.359 37.5625 112.949 37.5625 109.667Z" fill="#FFF0F0" stroke="#CC4747" stroke-linecap="round" stroke-linejoin="round"/>
<path d="M50.88 106.42V113.5H51.72V110.32H53.18C54.49 110.32 55.46 109.65 55.46 108.36C55.46 107.09 54.54 106.42 53.03 106.42H50.88ZM51.72 109.54V107.2H53.18C54.04 107.2 54.56 107.64 54.56 108.37C54.56 109.1 54.03 109.54 53.18 109.54H51.72ZM57.0077 106.42V113.5H57.8477V106.42H57.0077ZM59.8054 106.42V113.5H60.6454V106.42H59.8054Z" fill="#34394B"/>
<rect x="28.5" y="99.5" width="45" height="22" rx="11" stroke="#E0E4EB"/>
<rect x="78.5" y="99.5" width="61" height="22" rx="11" fill="white"/>
<path d="M87.5625 109.667V108C87.5625 107.917 87.5954 107.838 87.654 107.779C87.7126 107.72 87.875 107.688 87.875 107.688C87.875 107.688 89.2051 107.355 90.3717 106.69C90.7578 106.47 91.2422 106.47 91.6283 106.69C92.7949 107.355 94.125 107.688 94.125 107.688C94.125 107.688 94.2874 107.72 94.346 107.779C94.4046 107.838 94.4375 107.917 94.4375 108V109.667C94.4375 112.949 91.6521 114.359 91.0959 114.544C91.0338 114.565 90.9662 114.565 90.9041 114.544C90.3479 114.359 87.5625 112.949 87.5625 109.667Z" fill="#FFF0F0" stroke="#CC4747" stroke-linecap="round" stroke-linejoin="round"/>
<path d="M104.28 106.24C102.08 106.24 100.47 107.81 100.47 109.96C100.47 112.16 102.05 113.68 104.25 113.68C105.17 113.68 106.07 113.47 106.9 113.02V109.54H104.43V110.32H106.06V112.49C105.57 112.73 104.9 112.9 104.3 112.9C102.58 112.9 101.37 111.66 101.37 109.96C101.37 108.27 102.59 107.02 104.22 107.02C104.95 107.02 105.66 107.31 106.15 107.83L106.78 107.17C106.17 106.56 105.33 106.24 104.28 106.24ZM108.733 106.42V113.5H111.393C113.253 113.5 114.923 112.24 114.923 109.96C114.923 107.73 113.313 106.42 111.373 106.42H108.733ZM109.573 112.72V107.2H111.173C112.933 107.2 114.023 108.17 114.023 109.96C114.023 111.76 112.943 112.72 111.173 112.72H109.573ZM116.475 106.42V113.5H117.315V110.32H118.775C120.085 110.32 121.055 109.65 121.055 108.36C121.055 107.09 120.135 106.42 118.625 106.42H116.475ZM117.315 109.54V107.2H118.775C119.635 107.2 120.155 107.64 120.155 108.37C120.155 109.1 119.625 109.54 118.775 109.54H117.315ZM122.603 106.42V113.5H123.443V110.32H124.523L126.443 113.5H127.473L125.463 110.24C126.623 110.05 127.233 109.36 127.233 108.36C127.233 107.12 126.533 106.42 124.533 106.42H122.603ZM123.443 109.54V107.2H124.673C125.803 107.2 126.333 107.57 126.333 108.37C126.333 109.05 125.973 109.54 124.443 109.54H123.443Z" fill="#34394B"/>
<rect x="78.5" y="99.5" width="61" height="22" rx="11" stroke="#E0E4EB"/>
<rect x="22.5" y="93.5" width="123" height="33" rx="7.5" stroke="#EFF1F5"/>
</g>
<path d="M79.2723 94.5136C79.1895 94.8895 78.7309 95.0349 78.4467 94.7753L73.2965 90.0709C73.0124 89.8113 73.1157 89.3414 73.4827 89.2251L80.1319 87.1171C80.4988 87.0008 80.8541 87.3253 80.7713 87.7012L79.2723 94.5136Z" fill="#E0E4EB" stroke="#E0E4EB"/>
<path d="M27.535 73.5107C26.2464 75.7657 26.0805 79.4055 26.9333 81.7881C27.9099 84.5171 30.0138 86.1033 32.6717 86.9101C36.1518 87.9666 40.0131 88.1212 43.6054 87.5118C45.9743 87.11 48.1237 86.3148 50.2464 85.2003C51.8478 84.3596 53.5344 83.7108 55.1409 82.8888C56.3621 82.264 57.512 81.7852 58.8393 81.4359C60.6376 80.9627 62.6315 81.1365 64.4603 81.3332C67.0642 81.6132 69.5498 82.6983 71.7837 83.9749C73.0066 84.6736 73.6426 85.6723 74.6016 86.6313C75.4266 87.4563 76.1617 88.7388 76.6709 89.7573" stroke="#E0E4EB" stroke-width="1.5" stroke-linecap="round" stroke-dasharray="3 3"/>
<path d="M0 9.07911C0 4.66083 3.58172 1.0791 8 1.0791H109.877C114.295 1.0791 117.877 4.66082 117.877 9.0791V26.2511H0V9.07911Z" fill="#EFF1F5"/>
<path d="M15.8609 8.95304C13.1489 8.95304 11.3729 10.813 11.3729 13.453C11.3729 16.093 13.2449 17.881 15.8609 17.881C17.1089 17.881 18.2969 17.401 19.0289 16.369L17.7809 15.481C17.3009 16.093 16.6769 16.513 15.8729 16.513C14.0849 16.513 12.9569 15.109 12.9569 13.357C12.9569 11.665 14.1329 10.321 15.8729 10.321C16.6169 10.321 17.1689 10.633 17.6609 11.161L18.8369 10.297C18.0329 9.38504 17.0729 8.95304 15.8609 8.95304ZM20.1757 8.59304V17.665H21.6157V8.59304H20.1757ZM25.9449 11.761C24.8169 11.761 24.0129 12.157 23.4969 12.685L24.2529 13.441C24.6489 13.081 25.1889 12.841 25.7889 12.841C26.5809 12.841 27.1089 13.237 27.1089 13.909V14.077H26.6649C24.1929 14.077 23.1249 14.749 23.1249 16.081C23.1249 17.137 24.0369 17.809 25.2249 17.809C25.9929 17.809 26.6649 17.521 27.0729 16.873H27.1089V17.665H28.4049V14.221C28.4049 12.865 27.9129 11.761 25.9449 11.761ZM24.5649 15.973C24.5649 15.361 25.3329 15.085 26.6049 15.085H27.0249V15.445C27.0249 16.177 26.5689 16.729 25.5849 16.729C25.0449 16.729 24.5649 16.465 24.5649 15.973ZM32.1622 11.761C31.1782 11.761 29.8582 12.217 29.8582 13.621C29.8582 14.797 30.7582 15.073 31.5382 15.253C32.2702 15.421 32.9662 15.517 32.9662 16.069C32.9662 16.465 32.5342 16.729 32.0062 16.729C31.5142 16.729 31.1302 16.561 30.6382 16.021L29.6782 16.921C30.2662 17.581 31.0222 17.809 31.9102 17.809C33.3382 17.809 34.4062 17.173 34.4062 15.961C34.4062 14.773 33.5542 14.449 32.6662 14.245C31.9462 14.077 31.2982 13.993 31.2982 13.525C31.2982 13.153 31.6702 12.913 32.1382 12.913C32.6182 12.913 32.9782 13.105 33.2662 13.501L34.2262 12.637C33.8062 12.073 33.0622 11.761 32.1622 11.761ZM37.7342 11.761C36.7502 11.761 35.4302 12.217 35.4302 13.621C35.4302 14.797 36.3302 15.073 37.1102 15.253C37.8422 15.421 38.5382 15.517 38.5382 16.069C38.5382 16.465 38.1062 16.729 37.5782 16.729C37.0862 16.729 36.7022 16.561 36.2102 16.021L35.2502 16.921C35.8382 17.581 36.5942 17.809 37.4822 17.809C38.9102 17.809 39.9782 17.173 39.9782 15.961C39.9782 14.773 39.1262 14.449 38.2382 14.245C37.5182 14.077 36.8702 13.993 36.8702 13.525C36.8702 13.153 37.2422 12.913 37.7102 12.913C38.1902 12.913 38.5502 13.105 38.8382 13.501L39.7982 12.637C39.3782 12.073 38.6342 11.761 37.7342 11.761ZM42.0703 9.08504C41.5543 9.08504 41.1583 9.48104 41.1583 9.94904C41.1583 10.417 41.5543 10.813 42.0703 10.813C42.5863 10.813 43.0063 10.465 43.0063 9.94904C43.0063 9.45704 42.5983 9.08504 42.0703 9.08504ZM41.3623 11.905V17.665H42.8023V11.905H41.3623ZM47.3715 8.44904C45.8715 8.44904 45.2115 9.12104 45.2115 11.005V11.905H44.0235V13.129H45.2115V17.665H46.6515V13.129H47.9835V11.905H46.6515V10.813C46.6515 9.99704 46.9395 9.67304 47.5755 9.67304C47.7675 9.67304 47.9355 9.69704 48.1755 9.75704L48.2715 8.53304C47.9955 8.47304 47.5755 8.44904 47.3715 8.44904ZM49.6275 9.08504C49.1115 9.08504 48.7155 9.48104 48.7155 9.94904C48.7155 10.417 49.1115 10.813 49.6275 10.813C50.1435 10.813 50.5635 10.465 50.5635 9.94904C50.5635 9.45704 50.1555 9.08504 49.6275 9.08504ZM48.9195 11.905V17.665H50.3595V11.905H48.9195ZM54.8927 11.761C53.0327 11.761 51.7607 13.093 51.7607 14.785C51.7607 16.573 53.1287 17.809 54.8927 17.809C55.6367 17.809 56.4887 17.473 56.9687 17.005L56.0087 15.973C55.7447 16.321 55.3247 16.513 54.8927 16.513C53.9207 16.513 53.2007 15.781 53.2007 14.785C53.2007 13.861 53.8487 13.057 54.8927 13.057C55.3247 13.057 55.6967 13.333 55.9847 13.633L56.9807 12.637C56.4527 12.049 55.6727 11.761 54.8927 11.761ZM60.5138 11.761C59.3858 11.761 58.5818 12.157 58.0658 12.685L58.8218 13.441C59.2178 13.081 59.7578 12.841 60.3578 12.841C61.1498 12.841 61.6778 13.237 61.6778 13.909V14.077H61.2338C58.7618 14.077 57.6938 14.749 57.6938 16.081C57.6938 17.137 58.6058 17.809 59.7938 17.809C60.5618 17.809 61.2338 17.521 61.6418 16.873H61.6778V17.665H62.9738V14.221C62.9738 12.865 62.4818 11.761 60.5138 11.761ZM59.1338 15.973C59.1338 15.361 59.9018 15.085 61.1738 15.085H61.5938V15.445C61.5938 16.177 61.1378 16.729 60.1538 16.729C59.6138 16.729 59.1338 16.465 59.1338 15.973ZM65.2791 10.237V11.905H64.0911V13.129H65.2791V15.829C65.2791 17.281 65.8071 17.809 67.1631 17.809C67.4871 17.809 68.0271 17.749 68.3031 17.617V16.405C68.1831 16.501 67.8831 16.585 67.5231 16.585C66.9591 16.585 66.7191 16.297 66.7191 15.685V13.129H68.3031V11.905H66.7191V10.237H65.2791ZM70.4109 9.08504C69.8949 9.08504 69.4989 9.48104 69.4989 9.94904C69.4989 10.417 69.8949 10.813 70.4109 10.813C70.9269 10.813 71.3469 10.465 71.3469 9.94904C71.3469 9.45704 70.9389 9.08504 70.4109 9.08504ZM69.7029 11.905V17.665H71.1429V11.905H69.7029ZM75.8801 11.761C74.1281 11.761 72.7481 12.997 72.7481 14.785C72.7481 16.585 74.1161 17.809 75.8801 17.809C77.6441 17.809 79.0121 16.585 79.0121 14.785C79.0121 12.985 77.6441 11.761 75.8801 11.761ZM74.1881 14.785C74.1881 13.801 74.9081 13.057 75.8681 13.057C76.8521 13.057 77.5721 13.789 77.5721 14.785C77.5721 15.745 76.8881 16.513 75.8801 16.513C74.9081 16.513 74.1881 15.781 74.1881 14.785ZM83.7563 11.761C83.0003 11.761 82.3403 12.073 81.9923 12.829H81.9683V11.905H80.6003V17.665H82.0403V14.497C82.0403 13.729 82.4363 13.057 83.3603 13.057C84.0443 13.057 84.4163 13.525 84.4163 14.677V17.665H85.8563V13.981C85.8563 13.093 85.4723 11.761 83.7563 11.761ZM89.6989 11.761C88.7149 11.761 87.3949 12.217 87.3949 13.621C87.3949 14.797 88.2949 15.073 89.0749 15.253C89.8069 15.421 90.5029 15.517 90.5029 16.069C90.5029 16.465 90.0709 16.729 89.5429 16.729C89.0509 16.729 88.6669 16.561 88.1749 16.021L87.2149 16.921C87.8029 17.581 88.5589 17.809 89.4469 17.809C90.8749 17.809 91.9429 17.173 91.9429 15.961C91.9429 14.773 91.0909 14.449 90.2029 14.245C89.4829 14.077 88.8349 13.993 88.8349 13.525C88.8349 13.153 89.2069 12.913 89.6749 12.913C90.1549 12.913 90.5149 13.105 90.8029 13.501L91.7629 12.637C91.3429 12.073 90.5989 11.761 89.6989 11.761Z" fill="#34394B"/>
<path d="M0.5 26.752H117.377V53.2123H0.5V26.752Z" fill="#FFF0F0" stroke="#E0E4EB"/>
<line x1="11.8809" y1="46.5" x2="62.8809" y2="46.5" stroke="#BF1B1B" stroke-linecap="round" stroke-dasharray="2 2"/>
<path d="M11.9369 34.504V43H12.9449V39.184H14.6969C16.2689 39.184 17.4329 38.38 17.4329 36.832C17.4329 35.308 16.3289 34.504 14.5169 34.504H11.9369ZM12.9449 38.248V35.44H14.6969C15.7289 35.44 16.3529 35.968 16.3529 36.844C16.3529 37.72 15.7169 38.248 14.6969 38.248H12.9449ZM19.2901 34.504V43H20.2981V34.504H19.2901ZM22.6473 34.504V43H23.6553V34.504H22.6473ZM33.6644 34.288C31.0244 34.288 29.0924 36.172 29.0924 38.752C29.0924 41.392 30.9884 43.216 33.6284 43.216C34.7324 43.216 35.8124 42.964 36.8084 42.424V38.248H33.8444V39.184H35.8004V41.788C35.2124 42.076 34.4084 42.28 33.6884 42.28C31.6244 42.28 30.1724 40.792 30.1724 38.752C30.1724 36.724 31.6364 35.224 33.5924 35.224C34.4684 35.224 35.3204 35.572 35.9084 36.196L36.6644 35.404C35.9324 34.672 34.9244 34.288 33.6644 34.288ZM39.0082 34.504V43H42.2002C44.4322 43 46.4362 41.488 46.4362 38.752C46.4362 36.076 44.5042 34.504 42.1762 34.504H39.0082ZM40.0162 42.064V35.44H41.9362C44.0482 35.44 45.3562 36.604 45.3562 38.752C45.3562 40.912 44.0602 42.064 41.9362 42.064H40.0162ZM48.2987 34.504V43H49.3067V39.184H51.0587C52.6307 39.184 53.7947 38.38 53.7947 36.832C53.7947 35.308 52.6907 34.504 50.8787 34.504H48.2987ZM49.3067 38.248V35.44H51.0587C52.0907 35.44 52.7147 35.968 52.7147 36.844C52.7147 37.72 52.0787 38.248 51.0587 38.248H49.3067ZM55.652 34.504V43H56.66V39.184H57.956L60.26 43H61.496L59.084 39.088C60.476 38.86 61.208 38.032 61.208 36.832C61.208 35.344 60.368 34.504 57.968 34.504H55.652ZM56.66 38.248V35.44H58.136C59.492 35.44 60.128 35.884 60.128 36.844C60.128 37.66 59.696 38.248 57.86 38.248H56.66Z" fill="#BF1B1B"/>
<path d="M0.5 52.752H117.377V71.7123C117.377 75.8544 114.019 79.2123 109.877 79.2123H8.00001C3.85787 79.2123 0.5 75.8544 0.5 71.7123V52.752Z" fill="white" stroke="#E0E4EB"/>
<rect x="25" y="58" width="4" height="14" fill="#B6F1E4"/>
<path d="M12.056 60.504V69H13.064V65.184H14.816C16.388 65.184 17.552 64.38 17.552 62.832C17.552 61.308 16.448 60.504 14.636 60.504H12.056ZM13.064 64.248V61.44H14.816C15.848 61.44 16.472 61.968 16.472 62.844C16.472 63.72 15.836 64.248 14.816 64.248H13.064ZM19.4093 60.504V69H20.4173V60.504H19.4093ZM22.7665 60.504V69H23.7745V60.504H22.7665ZM26.5077 67.776L25.6917 70.656H26.6157L27.5997 67.776H26.5077ZM33.7835 60.288C31.1435 60.288 29.2115 62.172 29.2115 64.752C29.2115 67.392 31.1075 69.216 33.7475 69.216C34.8515 69.216 35.9315 68.964 36.9275 68.424V64.248H33.9635V65.184H35.9195V67.788C35.3315 68.076 34.5275 68.28 33.8075 68.28C31.7435 68.28 30.2915 66.792 30.2915 64.752C30.2915 62.724 31.7555 61.224 33.7115 61.224C34.5875 61.224 35.4395 61.572 36.0275 62.196L36.7835 61.404C36.0515 60.672 35.0435 60.288 33.7835 60.288ZM39.1273 60.504V69H42.3193C44.5513 69 46.5553 67.488 46.5553 64.752C46.5553 62.076 44.6233 60.504 42.2953 60.504H39.1273ZM40.1353 68.064V61.44H42.0553C44.1673 61.44 45.4753 62.604 45.4753 64.752C45.4753 66.912 44.1793 68.064 42.0553 68.064H40.1353ZM48.4179 60.504V69H49.4259V65.184H51.1779C52.7499 65.184 53.9139 64.38 53.9139 62.832C53.9139 61.308 52.8099 60.504 50.9979 60.504H48.4179ZM49.4259 64.248V61.44H51.1779C52.2099 61.44 52.8339 61.968 52.8339 62.844C52.8339 63.72 52.1979 64.248 51.1779 64.248H49.4259ZM55.7712 60.504V69H56.7792V65.184H58.0752L60.3792 69H61.6152L59.2032 65.088C60.5952 64.86 61.3272 64.032 61.3272 62.832C61.3272 61.344 60.4872 60.504 58.0872 60.504H55.7712ZM56.7792 64.248V61.44H58.2552C59.6112 61.44 60.2472 61.884 60.2472 62.844C60.2472 63.66 59.8152 64.248 57.9792 64.248H56.7792Z" fill="#1B1F29"/>
<rect x="108.5" y="56.9824" width="18" height="18" rx="9" fill="#00B28A"/>
<path d="M112.999 65.9828L116 68.9834L122 62.9834" stroke="white" stroke-width="1.5" stroke-linecap="round" stroke-linejoin="round"/>
<rect x="108.5" y="31.4434" width="18" height="18" rx="9" fill="#CC4747"/>
<path d="M120.875 37.0684L114.125 43.8184" stroke="white" stroke-width="1.5" stroke-linecap="round" stroke-linejoin="round"/>
<path d="M120.875 43.8184L114.125 37.0684" stroke="white" stroke-width="1.5" stroke-linecap="round" stroke-linejoin="round"/>
</g>
<defs>
<filter id="filter0_d_3433_127108" x="17" y="90" width="134" height="44" filterUnits="userSpaceOnUse" color-interpolation-filters="sRGB">
<feFlood flood-opacity="0" result="BackgroundImageFix"/>
<feColorMatrix in="SourceAlpha" type="matrix" values="0 0 0 0 0 0 0 0 0 0 0 0 0 0 0 0 0 0 127 0" result="hardAlpha"/>
<feOffset dy="2"/>
<feGaussianBlur stdDeviation="2.5"/>
<feColorMatrix type="matrix" values="0 0 0 0 0.0988235 0 0 0 0 0.127007 0 0 0 0 0.219608 0 0 0 0.04 0"/>
<feBlend mode="normal" in2="BackgroundImageFix" result="effect1_dropShadow_3433_127108"/>
<feBlend mode="normal" in="SourceGraphic" in2="effect1_dropShadow_3433_127108" result="shape"/>
</filter>
<clipPath id="clip0_3433_127108">
<rect width="150" height="132" fill="white"/>
</clipPath>
</defs>
</svg>
