<svg viewBox="0 0 16 16" fill="none" xmlns="http://www.w3.org/2000/svg">
<path d="M11 4H10.5V1H9.5V4H6.5V1H5.5V4H5C4.73478 4 4.48043 4.10536 4.29289 4.29289C4.10536 4.48043 4 4.73478 4 5V8C4.00163 8.97344 4.35787 9.91293 5.00207 10.6427C5.64627 11.3725 6.53429 11.8426 7.5 11.965V15H8.5V11.965C9.46571 11.8426 10.3537 11.3725 10.9979 10.6427C11.6421 9.91293 11.9984 8.97344 12 8V5C12 4.73478 11.8946 4.48043 11.7071 4.29289C11.5196 4.10536 11.2652 4 11 4V4ZM11 8C11 8.79565 10.6839 9.55871 10.1213 10.1213C9.55871 10.6839 8.79565 11 8 11C7.20435 11 6.44129 10.6839 5.87868 10.1213C5.31607 9.55871 5 8.79565 5 8V5H11V8Z" fill="#495057"/>
</svg>
