<svg viewBox="0 0 16 16" fill="none" xmlns="http://www.w3.org/2000/svg">
<path d="M13.25 8.25L9.66247 11.8375C9.47724 12.0234 9.25711 12.171 9.01472 12.2717C8.77232 12.3723 8.51244 12.4242 8.24997 12.4242C7.9875 12.4242 7.72762 12.3723 7.48523 12.2717C7.24284 12.171 7.02271 12.0234 6.83747 11.8375L4.16247 9.1625C3.97652 8.97726 3.82898 8.75714 3.7283 8.51474C3.62763 8.27235 3.57581 8.01247 3.57581 7.75C3.57581 7.48753 3.62763 7.22765 3.7283 6.98526C3.82898 6.74286 3.97652 6.52274 4.16247 6.3375L7.74997 2.75" stroke="#64748B" stroke-linecap="round" stroke-linejoin="round"/>
<path d="M5.5 10.5L2 14" stroke="#64748B" stroke-linecap="round" stroke-linejoin="round"/>
<path d="M9 4L11.5 1.5" stroke="#64748B" stroke-linecap="round" stroke-linejoin="round"/>
<path d="M14.5 4.5L12 7" stroke="#64748B" stroke-linecap="round" stroke-linejoin="round"/>
<path d="M14 9L7 2" stroke="#64748B" stroke-linecap="round" stroke-linejoin="round"/>
</svg>
