<svg width="16" height="16" viewBox="0 0 16 16" fill="none" xmlns="http://www.w3.org/2000/svg">
<path d="M10 2.5C10.2761 2.5 10.5 2.27614 10.5 2C10.5 1.72386 10.2761 1.5 10 1.5V2.5ZM2.5 11C2.5 11.2761 2.72386 11.5 3 11.5C3.27614 11.5 3.5 11.2761 3.5 11H2.5ZM10 1.5H4V2.5H10V1.5ZM2.5 3V11H3.5V3H2.5ZM4 1.5C3.17157 1.5 2.5 2.17157 2.5 3H3.5C3.5 2.72386 3.72386 2.5 4 2.5V1.5Z" fill="currentColor"/>
<path d="M13 13V5C13 4.44772 12.5523 4 12 4H6C5.44772 4 5 4.44772 5 5V13C5 13.5523 5.44772 14 6 14H12C12.5523 14 13 13.5523 13 13Z" stroke="currentColor"/>
</svg>
