<svg viewBox="0 0 16 16" fill="none" xmlns="http://www.w3.org/2000/svg">
<path d="M10.8421 1.63636C10.8421 1.28491 10.5572 1 10.2057 1H3.26316C2.56842 1 2 1.57273 2 2.27273V10.5502C2 10.8991 2.28277 11.1818 2.63158 11.1818C2.98039 11.1818 3.26316 10.8991 3.26316 10.5502V2.77273C3.26316 2.49659 3.48702 2.27273 3.76316 2.27273H10.2057C10.5572 2.27273 10.8421 1.98782 10.8421 1.63636ZM12.7368 3.54545H5.78947C5.09474 3.54545 4.52632 4.11818 4.52632 4.81818V13.7273C4.52632 14.4273 5.09474 15 5.78947 15H12.7368C13.4316 15 14 14.4273 14 13.7273V4.81818C14 4.11818 13.4316 3.54545 12.7368 3.54545ZM12.7368 13.2273C12.7368 13.5034 12.513 13.7273 12.2368 13.7273H6.28947C6.01333 13.7273 5.78947 13.5034 5.78947 13.2273V5.31818C5.78947 5.04204 6.01333 4.81818 6.28947 4.81818H12.2368C12.513 4.81818 12.7368 5.04204 12.7368 5.31818V13.2273Z" fill="#6F7590"/>
</svg>
