<svg width="89" height="102" viewBox="0 0 89 102" fill="none" xmlns="http://www.w3.org/2000/svg">
<path d="M44.4587 73.9999C62.1663 73.9999 76.522 59.611 76.522 41.7993C76.522 23.9875 62.103 9.59863 44.4587 9.59863C26.7512 9.59863 12.3955 23.9875 12.3955 41.7993C12.3955 59.611 26.7512 73.9999 44.4587 73.9999Z" fill="#EAEEF9"/>
<path d="M74.4347 20.6919C75.8667 20.6919 77.0276 19.5283 77.0276 18.093C77.0276 16.6577 75.8667 15.4941 74.4347 15.4941C73.0027 15.4941 71.8418 16.6577 71.8418 18.093C71.8418 19.5283 73.0027 20.6919 74.4347 20.6919Z" fill="#EAEEF9"/>
<path d="M78.2288 10.5497C79.2067 10.5497 79.9995 9.75505 79.9995 8.77484C79.9995 7.79462 79.2067 7 78.2288 7C77.2508 7 76.458 7.79462 76.458 8.77484C76.458 9.75505 77.2508 10.5497 78.2288 10.5497Z" fill="#EAEEF9"/>
<path d="M14.1028 20.6288C15.0807 20.6288 15.8735 19.8342 15.8735 18.8539C15.8735 17.8737 15.0807 17.0791 14.1028 17.0791C13.1248 17.0791 12.332 17.8737 12.332 18.8539C12.332 19.8342 13.1248 20.6288 14.1028 20.6288Z" fill="#EAEEF9"/>
<path d="M3.28854 54.8569C5.10475 54.8569 6.57707 53.3812 6.57707 51.5608C6.57707 49.7404 5.10475 48.2646 3.28854 48.2646C1.47233 48.2646 0 49.7404 0 51.5608C0 53.3812 1.47233 54.8569 3.28854 54.8569Z" fill="#EAEEF9"/>
<g filter="url(#filter0_d_3411_125871)">
<path d="M66.2766 25.6998L66.7825 66.521C66.7825 67.9155 65.6442 68.9931 64.2529 68.9931H24.5375C23.1462 68.9931 22.0078 67.8522 22.0078 66.521V14.0365C22.0078 12.642 23.1462 11.5645 24.5375 11.5645H53.3122L66.2766 25.6998Z" fill="url(#paint0_linear_3411_125871)"/>
</g>
<path d="M39.0173 55.1113C36.8919 55.1113 35.5 56.5724 35.5 58.6462C35.5 60.72 36.9671 62.1245 39.0173 62.1245C39.9954 62.1245 40.9264 61.7474 41.5001 60.9368L40.522 60.2392C40.1459 60.72 39.6568 61.0499 39.0267 61.0499C37.6254 61.0499 36.7414 59.947 36.7414 58.5708C36.7414 57.2417 37.663 56.1859 39.0267 56.1859C39.6098 56.1859 40.0424 56.431 40.428 56.8458L41.3496 56.1671C40.7195 55.4507 39.9672 55.1113 39.0173 55.1113Z" fill="#7E879F"/>
<path d="M44.703 55.1113C43.2547 55.1113 42.2484 55.922 42.2484 57.1285C42.2484 58.3351 43.0196 58.7404 44.214 59.1081C45.0698 59.372 45.4084 59.6359 45.4084 60.1355C45.4084 60.6728 44.8817 61.0499 44.2422 61.0499C43.7061 61.0499 43.2171 60.7954 42.9256 60.3523L42.0321 61.2195C42.5494 61.8417 43.3205 62.1245 44.261 62.1245C45.5682 62.1245 46.6498 61.3704 46.6498 59.9941C46.6498 58.6179 45.587 58.2786 44.5243 57.9486C43.866 57.7413 43.4898 57.4962 43.4898 57.0437C43.4898 56.5253 43.913 56.1859 44.5808 56.1859C45.0416 56.1859 45.4836 56.3462 45.7469 56.7138L46.6121 55.7994C46.1419 55.3564 45.4648 55.1113 44.703 55.1113Z" fill="#7E879F"/>
<path d="M47.3007 55.281L49.9152 61.9548H50.9403L53.63 55.281H52.351L50.4795 60.3241L48.6644 55.281H47.3007Z" fill="#7E879F"/>
<path d="M53.3125 11.5645V22.8473C53.3125 24.432 54.7038 25.6998 56.2848 25.6998H66.2769" fill="#D5DDEA"/>
<path d="M58.254 29.1992H49.035C48.9981 29.1992 48.9981 29.1992 48.9612 29.1992C48.9243 29.1992 48.9243 29.1992 48.8875 29.1992H39.3734C39.3365 29.1992 39.3365 29.1992 39.2996 29.1992C39.2628 29.1992 39.2628 29.1992 39.2259 29.1992H30.2649C29.2693 29.1992 28.458 30.0384 28.458 31.0235V47.004C28.458 48.0256 29.2693 48.8282 30.2649 48.8282H58.254C59.2497 48.8282 60.061 48.0256 60.061 47.004V31.0235C60.061 30.0384 59.2497 29.1992 58.254 29.1992ZM39.8528 43.3555V39.7799H48.4081V43.3555H39.8528ZM48.4081 44.45V47.7702H39.8528V44.45H48.4081ZM48.4081 35.0733V38.6854H39.8528V35.1098H48.4081V35.0733ZM39.8528 33.9788V30.2938H48.4081V33.9788H39.8528ZM58.9547 38.6854H49.5144V35.1098H58.9547V38.6854ZM38.7465 38.6854H29.5643V35.1098H38.7465V38.6854ZM29.5643 39.7799H38.7465V43.3555H29.5643V39.7799ZM49.5144 39.7799H58.9547V43.3555H49.5144V39.7799ZM58.9547 31.0235V33.9788H49.5144V30.2938H58.254C58.6597 30.2938 58.9547 30.6221 58.9547 31.0235ZM30.2649 30.2938H38.7465V33.9788H29.5643V31.0235C29.5643 30.6221 29.8593 30.2938 30.2649 30.2938ZM29.5643 47.0405V44.45H38.7465V47.7702H30.2649C29.8962 47.7702 29.5643 47.4418 29.5643 47.0405ZM58.254 47.7702H49.5144V44.45H58.9547V47.0405C58.9547 47.4418 58.6228 47.7702 58.254 47.7702Z" fill="#C6D0DE"/>
<defs>
<filter id="filter0_d_3411_125871" x="0.0078125" y="0.564453" width="88.7744" height="101.429" filterUnits="userSpaceOnUse" color-interpolation-filters="sRGB">
<feFlood flood-opacity="0" result="BackgroundImageFix"/>
<feColorMatrix in="SourceAlpha" type="matrix" values="0 0 0 0 0 0 0 0 0 0 0 0 0 0 0 0 0 0 127 0" result="hardAlpha"/>
<feOffset dy="11"/>
<feGaussianBlur stdDeviation="11"/>
<feColorMatrix type="matrix" values="0 0 0 0 0.397708 0 0 0 0 0.47749 0 0 0 0 0.575 0 0 0 0.27 0"/>
<feBlend mode="normal" in2="BackgroundImageFix" result="effect1_dropShadow_3411_125871"/>
<feBlend mode="normal" in="SourceGraphic" in2="effect1_dropShadow_3411_125871" result="shape"/>
</filter>
<linearGradient id="paint0_linear_3411_125871" x1="44.3806" y1="10.2361" x2="44.3806" y2="69.6122" gradientUnits="userSpaceOnUse">
<stop stop-color="#FDFEFF"/>
<stop offset="0.9964" stop-color="#ECF0F5"/>
</linearGradient>
</defs>
</svg>
