<svg width="16" height="16" viewBox="0 0 16 16" fill="none" xmlns="http://www.w3.org/2000/svg">
<path d="M3.13919 9.15199C3.27402 9.44961 3.34493 9.77332 3.34693 10.1015V12.2C3.34693 12.7015 3.54305 13.1839 3.89453 13.5408C4.24626 13.8979 4.72495 14.1 5.22572 14.1C5.27347 14.1 5.32083 14.1192 5.35695 14.1559C5.39333 14.1928 5.41511 14.2445 5.41511 14.3C5.41511 14.3555 5.39334 14.4072 5.35695 14.4441C5.32083 14.4808 5.27347 14.5 5.22572 14.5C4.62946 14.5 4.05605 14.2596 3.63206 13.8291C3.20782 13.3983 2.96815 12.8124 2.96815 12.2V10.1C2.96815 9.59853 2.77203 9.11609 2.42055 8.75921C2.06882 8.40206 1.59013 8.2 1.08936 8.2C1.04161 8.2 0.994251 8.18081 0.958124 8.14413C0.921743 8.10719 0.899963 8.05549 0.899963 8C0.899963 7.94451 0.921743 7.89281 0.958124 7.85587L0.601882 7.50503L0.958124 7.85587C0.994251 7.81919 1.04161 7.8 1.08936 7.8C1.59013 7.8 2.06882 7.59794 2.42055 7.24079C2.77203 6.88391 2.96815 6.40147 2.96815 5.9V3.8C2.96815 3.18756 3.20782 2.60171 3.63206 2.17095C4.05605 1.74044 4.62946 1.5 5.22572 1.5C5.27347 1.5 5.32083 1.51919 5.35695 1.55587C5.39333 1.59281 5.41511 1.64451 5.41511 1.7C5.41511 1.75549 5.39333 1.80719 5.35695 1.84413C5.32083 1.88081 5.27347 1.9 5.22572 1.9C4.72495 1.9 4.24626 2.10206 3.89453 2.45921C3.54305 2.81609 3.34693 3.29853 3.34693 3.8V5.89853C3.34493 6.22668 3.27402 6.55039 3.13919 6.84801C3.00419 7.146 2.80835 7.41069 2.56523 7.62467L2.13877 8L2.56523 8.37533C2.80835 8.58931 3.00419 8.854 3.13919 9.15199ZM13.4014 8.37533L13.8278 8L13.4014 7.62467C13.1582 7.41069 12.9624 7.146 12.8274 6.84801C12.6926 6.55039 12.6217 6.22667 12.6197 5.89853V3.8C12.6197 3.29853 12.4235 2.81609 12.0721 2.45921C11.7203 2.10206 11.2416 1.9 10.7409 1.9C10.6931 1.9 10.6458 1.88081 10.6096 1.84413C10.5733 1.80719 10.5515 1.75548 10.5515 1.7C10.5515 1.64451 10.5733 1.59281 10.6096 1.55587C10.6458 1.51919 10.6931 1.5 10.7409 1.5C11.3371 1.5 11.9105 1.74044 12.3345 2.17095C12.7588 2.60171 12.9984 3.18756 12.9984 3.8V5.9C12.9984 6.40147 13.1946 6.88391 13.546 7.24079C13.8978 7.59794 14.3765 7.8 14.8772 7.8C14.925 7.8 14.9723 7.81919 15.0085 7.85587L15.3647 7.50503L15.0085 7.85587C15.0448 7.89281 15.0666 7.94451 15.0666 8C15.0666 8.05549 15.0448 8.10719 15.0085 8.14413C14.9723 8.18081 14.925 8.2 14.8772 8.2C14.3765 8.2 13.8978 8.40206 13.546 8.75921C13.1946 9.11609 12.9984 9.59853 12.9984 10.1V12.2C12.9984 12.8124 12.7588 13.3983 12.3345 13.8291C11.9105 14.2596 11.3371 14.5 10.7409 14.5C10.6931 14.5 10.6458 14.4808 10.6096 14.4441C10.5733 14.4072 10.5515 14.3555 10.5515 14.3C10.5515 14.2445 10.5733 14.1928 10.6096 14.1559C10.6458 14.1192 10.6931 14.1 10.7409 14.1C11.2416 14.1 11.7203 13.8979 12.0721 13.5408C12.4235 13.1839 12.6197 12.7015 12.6197 12.2V10.1015C12.6217 9.77333 12.6926 9.44961 12.8274 9.15199C12.9624 8.854 13.1582 8.58931 13.4014 8.37533ZM9.79219 9.80602L9.78929 9.80891C9.78162 9.81665 9.7725 9.82279 9.76245 9.82697L9.95478 10.2885L9.76245 9.82697C9.75241 9.83116 9.74164 9.83331 9.73076 9.83331C9.71989 9.83331 9.70912 9.83116 9.69908 9.82697L9.50675 10.2885L9.69907 9.82697C9.68903 9.82279 9.67991 9.81665 9.67224 9.80891L9.67156 9.80823L8.33766 8.46822L7.9833 8.11224L7.62894 8.46822L6.29504 9.80823L6.29436 9.80891C6.28669 9.81665 6.27757 9.82279 6.26752 9.82697L6.45984 10.2885L6.26752 9.82697C6.25747 9.83116 6.24671 9.83331 6.23583 9.83331C6.22495 9.83331 6.21419 9.83116 6.20414 9.82697L6.01182 10.2885L6.20414 9.82697C6.19409 9.82279 6.18497 9.81665 6.1773 9.80891L6.1744 9.80602C6.16667 9.79834 6.16052 9.7892 6.15632 9.77912C6.15212 9.76905 6.14996 9.75824 6.14996 9.74732C6.14996 9.7364 6.15213 9.72559 6.15632 9.71551C6.16052 9.70544 6.16667 9.6963 6.1744 9.68863L6.17508 9.68795L7.51481 8.35377L7.87056 7.99948L7.51481 7.6452L6.17585 6.31178C6.17578 6.31171 6.17571 6.31164 6.17563 6.31156C6.15984 6.29565 6.15096 6.27412 6.15096 6.25164C6.15096 6.22906 6.15993 6.20743 6.17585 6.1915C6.19178 6.17557 6.21336 6.16664 6.23583 6.16664C6.25821 6.16664 6.27969 6.1755 6.2956 6.19129C6.29567 6.19136 6.29574 6.19143 6.2958 6.1915L7.62894 7.53074L7.9833 7.88672L8.33766 7.53074L9.67079 6.1915C9.67087 6.19142 9.67095 6.19134 9.67103 6.19126C9.68694 6.17548 9.70841 6.16664 9.73076 6.16664C9.75324 6.16664 9.77481 6.17557 9.79074 6.1915L10.1443 5.83799L9.79074 6.1915C9.80667 6.20743 9.81564 6.22906 9.81564 6.25164C9.81564 6.2741 9.80676 6.29562 9.791 6.31152C9.79091 6.31161 9.79083 6.3117 9.79074 6.31178L8.45179 7.6452L8.09603 7.99948L8.45179 8.35377L9.79151 9.68795L9.79219 9.68863C9.79993 9.6963 9.80608 9.70544 9.81027 9.71551C9.81447 9.72559 9.81663 9.7364 9.81663 9.74732C9.81663 9.75824 9.81447 9.76905 9.81027 9.77913C9.80608 9.7892 9.79993 9.79834 9.79219 9.80602Z" stroke="#6F7590"/>
</svg>
