<svg width="24" height="24" viewBox="0 0 24 24" fill="none" xmlns="http://www.w3.org/2000/svg">
<path d="M8.73433 11.5156C8.15618 10.0735 8.09367 8.47605 8.55738 6.9932C9.02108 5.51034 9.98256 4.23307 11.2793 3.37727C12.576 2.52148 14.1285 2.13967 15.6742 2.29636C17.22 2.45306 18.6642 3.13865 19.7628 4.23726C20.8614 5.33588 21.547 6.78012 21.7037 8.32586C21.8604 9.87161 21.4786 11.4241 20.6228 12.7208C19.767 14.0175 18.4897 14.979 17.0069 15.4427C15.524 15.9064 13.9265 15.8439 12.4844 15.2657L12.4845 15.2656L11.25 16.5001H9V18.7501H6.75V21.0001H3V17.2501L8.7345 11.5156L8.73433 11.5156Z" stroke="#EBB907" stroke-width="1.5" stroke-linecap="round" stroke-linejoin="round"/>
<path d="M15 10.5C15.8284 10.5 16.5 9.82843 16.5 9C16.5 8.17157 15.8284 7.5 15 7.5C14.1716 7.5 13.5 8.17157 13.5 9C13.5 9.82843 14.1716 10.5 15 10.5Z" fill="#EBB907"/>
</svg>
