<svg  viewBox="0 0 16 16" fill="none" xmlns="http://www.w3.org/2000/svg">
<path d="M11.6111 15L4.38889 15C3.59114 15 2.94444 14.3732 2.94444 13.6L2.94444 4.5H2C1.72386 4.5 1.5 4.27614 1.5 4V3.6C1.5 3.32386 1.72386 3.1 2 3.1L4.38889 3.1V2.4C4.38889 1.6268 5.03559 1 5.83333 1L10.1667 1C10.9644 1 11.6111 1.6268 11.6111 2.4V3.1L14 3.1C14.2761 3.1 14.5 3.32386 14.5 3.6V4C14.5 4.27614 14.2761 4.5 14 4.5H13.0556L13.0556 13.6C13.0556 14.3732 12.4089 15 11.6111 15ZM4.38889 4.5L4.38889 13.6L11.6111 13.6L11.6111 4.5L4.38889 4.5ZM5.83333 2.4V3.1L10.1667 3.1V2.4L5.83333 2.4Z" fill="currentColor"/>
</svg>
