<svg viewBox="0 0 20 20" fill="none" xmlns="http://www.w3.org/2000/svg">
<path d="M13.7257 4.50652L15.4907 6.27069L13.7257 4.50652ZM14.8607 2.95236L10.0882 7.72486C9.84164 7.9711 9.67346 8.28484 9.6049 8.62652L9.16406 10.8332L11.3707 10.3915C11.7124 10.3232 12.0257 10.1557 12.2724 9.90902L17.0449 5.13652C17.1883 4.99311 17.3021 4.82285 17.3797 4.63547C17.4573 4.44809 17.4973 4.24726 17.4973 4.04444C17.4973 3.84162 17.4573 3.64079 17.3797 3.45341C17.3021 3.26603 17.1883 3.09577 17.0449 2.95236C16.9015 2.80894 16.7312 2.69518 16.5438 2.61756C16.3565 2.53995 16.1556 2.5 15.9528 2.5C15.75 2.5 15.5492 2.53995 15.3618 2.61756C15.1744 2.69518 15.0041 2.80894 14.8607 2.95236V2.95236Z" stroke="currentColor" stroke-width="1.5" stroke-linecap="round" stroke-linejoin="round"/>
<path d="M15.832 12.4993V14.9993C15.832 15.4414 15.6564 15.8653 15.3439 16.1779C15.0313 16.4904 14.6074 16.666 14.1654 16.666H4.9987C4.55667 16.666 4.13275 16.4904 3.82019 16.1779C3.50763 15.8653 3.33203 15.4414 3.33203 14.9993V5.83268C3.33203 5.39065 3.50763 4.96673 3.82019 4.65417C4.13275 4.34161 4.55667 4.16602 4.9987 4.16602H7.4987" stroke="currentColor" stroke-width="1.5" stroke-linecap="round" stroke-linejoin="round"/>
</svg>
