<svg  viewBox="0 0 115 132" fill="none" xmlns="http://www.w3.org/2000/svg">
<path d="M53.2302 120C81.2204 120 103.911 97.2539 103.911 69.1952C103.911 41.1365 81.2204 18.3904 53.2302 18.3904C25.2399 18.3904 2.54932 41.1365 2.54932 69.1952C2.54932 97.2539 25.2399 120 53.2302 120Z" fill="#E2EBFF"/>
<path d="M15.9082 36.2794H88.0035C90.8588 36.2794 93.1022 38.5283 93.1022 41.3906V87.0842C93.1022 89.9465 90.8588 92.1954 88.0035 92.1954H15.9082C13.053 92.1954 10.8096 89.9465 10.8096 87.0842V41.3906C10.8096 38.5283 13.155 36.2794 15.9082 36.2794Z" fill="#C0D6FF"/>
<path d="M93.2042 46.0928V87.0842C93.2042 89.9465 90.9608 92.1954 88.1055 92.1954H15.9082C13.053 92.1954 10.8096 89.9465 10.8096 87.0842V41.3906C10.8096 38.5283 13.053 36.2794 15.9082 36.2794H88.0035C90.2469 36.2794 92.0825 37.7105 92.7963 39.6528" stroke="#182052" stroke-miterlimit="10" stroke-linecap="round" stroke-linejoin="round"/>
<path d="M112.139 56.5534C113.719 55.1061 113.83 52.6491 112.386 51.0654C110.942 49.4817 108.491 49.3711 106.911 50.8183C105.331 52.2656 105.221 54.7226 106.665 56.3063C108.109 57.89 110.56 58.0006 112.139 56.5534Z" fill="#E2EBFF"/>
<path d="M23.9438 23.4746C25.2828 23.0383 26.0154 21.5965 25.5802 20.2543C25.145 18.912 23.7068 18.1776 22.3678 18.6139C21.0288 19.0501 20.2962 20.4919 20.7314 21.8341C21.1666 23.1764 22.6048 23.9108 23.9438 23.4746Z" fill="#E2EBFF"/>
<path d="M29.5089 15.1363C30.4194 14.8397 30.9176 13.8593 30.6216 12.9465C30.3257 12.0338 29.3477 11.5344 28.4372 11.831C27.5267 12.1277 27.0285 13.1081 27.3244 14.0208C27.6204 14.9336 28.5984 15.433 29.5089 15.1363Z" fill="#F34D77"/>
<path d="M112.432 39.1386C113.097 38.5293 113.144 37.4947 112.536 36.8279C111.928 36.1611 110.896 36.1145 110.231 36.7239C109.566 37.3333 109.519 38.3678 110.127 39.0346C110.735 39.7014 111.767 39.748 112.432 39.1386Z" fill="#F34D77"/>
<path d="M94.547 65.5977V88.0867C94.547 90.9489 92.2016 93.4025 89.2444 93.4025H15.1097C12.2544 93.4025 9.80713 91.0512 9.80713 88.0867V63.6555" stroke="#84A2FF" stroke-width="3" stroke-linecap="round" stroke-linejoin="round"/>
<path d="M98.7276 46.0729H68.3394C65.3822 46.0729 62.527 47.0955 60.2836 48.9355L52.3296 55.4776C50.0862 57.3177 47.231 58.3397 44.2738 58.3397H9.70463C6.23753 58.3397 3.38232 61.2021 3.38232 64.6777C3.38232 64.9844 3.38242 65.291 3.4844 65.5976L9.8067 99.3312C10.3166 102.5 12.9678 104.851 16.129 104.851H89.7538C92.915 104.851 95.5663 102.602 96.0761 99.4335L104.948 53.3309C105.56 49.8553 103.214 46.6863 99.7473 46.0729C99.4414 46.0729 99.0335 46.0729 98.7276 46.0729Z" fill="white"/>
<path d="M99.8497 79.9088L104.948 53.3309C105.56 49.8553 103.215 46.6863 99.7476 46.073C99.4417 45.9707 99.0338 45.9711 98.7279 45.9711H68.3397C65.3825 45.9711 62.5273 46.9932 60.2839 48.8332L52.3299 55.3753C50.0865 57.2154 47.2313 58.2379 44.2741 58.2379H25.103" stroke="#182052" stroke-miterlimit="10" stroke-linecap="round" stroke-linejoin="round"/>
<path d="M14.0898 58.3397H9.80693C6.33983 58.3397 3.48462 61.2022 3.48462 64.6777C3.48462 64.9844 3.48447 65.291 3.58644 65.5976L9.90875 99.3312C10.4186 102.5 13.0701 104.851 16.2313 104.851H89.8561C93.0173 104.851 95.6686 102.602 96.1785 99.4335L98.4218 87.8825" stroke="#182052" stroke-miterlimit="10" stroke-linecap="round" stroke-linejoin="round"/>
<path d="M39.8891 81.0334C41.6913 81.0334 43.1522 79.5686 43.1522 77.762C43.1522 75.9554 41.6913 74.4912 39.8891 74.4912C38.0869 74.4912 36.626 75.9554 36.626 77.762C36.626 79.5686 38.0869 81.0334 39.8891 81.0334Z" fill="#182052"/>
<path d="M65.5863 80.9311C67.3885 80.9311 68.8494 79.4668 68.8494 77.6602C68.8494 75.8537 67.3885 74.3889 65.5863 74.3889C63.7842 74.3889 62.3232 75.8537 62.3232 77.6602C62.3232 79.4668 63.7842 80.9311 65.5863 80.9311Z" fill="#182052"/>
<g filter="url(#filter0_d_50_7428)">
<path d="M103.636 102.511C103.228 104.249 102.616 105.986 101.903 107.52C99.9652 111.2 97.0079 114.164 93.3369 116.004C89.5639 117.946 85.077 118.662 80.4882 117.742C69.883 115.493 63.0508 105.169 65.2942 94.5374C67.5376 83.9062 77.8369 77.0573 88.4422 79.3062C92.2152 80.124 95.5803 81.964 98.3336 84.6218C103.024 89.3241 104.962 96.0708 103.636 102.511Z" fill="url(#paint0_linear_50_7428)"/>
</g>
<path d="M77.5312 78.5907C80.9983 77.364 84.7713 77.0573 88.5443 77.7729C92.4193 78.5907 95.9884 80.5329 98.7417 83.2929C103.636 88.0974 105.676 95.1508 104.248 101.897C103.84 103.737 103.229 105.475 102.413 107.111C100.475 110.995 97.3141 114.062 93.541 116.004C89.5641 118.049 84.8733 118.764 80.1825 117.742C69.1694 115.493 62.1332 104.658 64.3766 93.6174C65.1924 89.6307 67.1299 86.1552 69.7812 83.3951" stroke="#182052" stroke-miterlimit="10" stroke-linecap="round" stroke-linejoin="round"/>
<path d="M72.3303 81.4529C72.5343 81.3507 72.6362 81.2485 72.8402 81.1462" stroke="#182052" stroke-miterlimit="10" stroke-linecap="round" stroke-linejoin="round"/>
<path d="M90.6715 96.7756H86.1846V92.2779C86.1846 91.3579 85.4708 90.5399 84.4511 90.5399C83.5333 90.5399 82.7176 91.2557 82.7176 92.2779V96.7756H78.2306C77.3128 96.7756 76.4971 97.4914 76.4971 98.5136C76.4971 99.5358 77.2108 100.251 78.2306 100.251H82.7176V104.749C82.7176 105.669 83.4313 106.487 84.4511 106.487C85.3688 106.487 86.1846 105.772 86.1846 104.749V100.251H90.6715C91.5893 100.251 92.405 99.5358 92.405 98.5136C92.405 97.4914 91.5893 96.7756 90.6715 96.7756Z" fill="white"/>
<path d="M48.7434 57.3373C45.1743 50.3862 44.3585 41.9017 46.7039 34.3372C49.0493 26.7727 54.4539 20.2304 61.2861 16.5504C63.4276 15.4259 65.773 14.5059 68.2203 14.4037C70.6677 14.3015 73.217 15.1193 74.8486 17.0615C76.4802 18.9015 76.7861 21.866 75.4604 23.9104C74.0328 25.8527 71.2795 26.5682 68.9341 26.0571C65.2631 25.3415 62.2039 22.4793 61.2861 19.0037C60.3684 15.5281 61.592 11.4392 64.3453 9.0881C66.1808 7.45253 68.6282 6.63475 70.9736 5.91919C82.1907 2.64805 94.3255 2.23916 105.747 4.69251" stroke="#C0D6FF" stroke-miterlimit="10" stroke-dasharray="4 4"/>
<path d="M58 86C58 87.65 55.7603 89 53.0098 89C50.2397 89 48 87.65 48 86H58Z" fill="#182052"/>
<path d="M111.763 2.0347C111.661 3.56805 111.559 4.89695 110.437 5.20361C109.315 5.51028 108.805 4.48805 108.091 3.05693C107.378 1.72804 107.786 0.399137 109.009 0.092468C110.233 -0.214201 111.966 0.194691 111.763 2.0347Z" fill="#E2EBFF"/>
<path d="M110.641 9.19032C110.947 7.3503 111.253 6.4303 110.233 5.91918C109.112 5.40807 108.398 6.32807 107.276 7.55475C106.256 8.6792 106.868 10.2125 107.888 10.7237C109.01 11.337 110.335 10.7237 110.641 9.19032Z" fill="#E2EBFF"/>
<path d="M111.967 5.91917C111.865 6.63473 111.355 7.14585 110.641 7.24807C110.335 7.24807 110.029 7.24807 109.621 7.24807C108.194 7.04363 107.072 6.12362 107.174 5.20361C107.276 4.28361 108.602 3.77249 110.131 3.97694C110.437 3.97694 110.743 4.07916 110.947 4.18138C111.661 4.38583 112.069 5.10139 111.967 5.91917C111.967 5.81695 111.967 5.91917 111.967 5.91917Z" fill="#182052"/>
<path d="M0.407715 34.0305C0.407715 32.2927 0.407715 30.6572 1.6314 30.1461C2.95705 29.6349 3.67087 30.8616 4.58863 32.4972C5.50639 34.0305 5.0985 35.5639 3.77284 36.075C2.65113 36.5861 0.407715 36.2794 0.407715 34.0305Z" fill="#E2EBFF"/>
<path d="M1.12179 25.6482C0.917838 27.7949 0.611918 28.9193 1.93757 29.4304C3.26323 29.9416 3.97704 28.8171 5.20073 27.1815C6.22046 25.7504 5.50665 24.0126 4.18099 23.5015C2.85533 22.9904 1.32573 23.9104 1.12179 25.6482Z" fill="#E2EBFF"/>
<path d="M0 29.6349C0 28.8171 0.611841 28.2038 1.32566 28.1016C1.63158 27.9993 2.03947 27.9993 2.44736 28.1016C4.07894 28.2038 5.4046 29.1238 5.30262 30.146C5.20065 31.1683 3.87499 31.8838 2.24342 31.6794C1.9375 31.6794 1.63158 31.5771 1.32566 31.4749C0.509867 31.2705 0 30.4527 0 29.6349Z" fill="#182052"/>
<path d="M6.83252 29.9417C17.3358 29.9417 36.7108 36.075 37.0167 58.4619" stroke="#C0D6FF" stroke-miterlimit="10" stroke-dasharray="4 4"/>
<defs>
<filter id="filter0_d_50_7428" x="56.8677" y="75.8787" width="55.1768" height="55.2611" filterUnits="userSpaceOnUse" color-interpolation-filters="sRGB">
<feFlood flood-opacity="0" result="BackgroundImageFix"/>
<feColorMatrix in="SourceAlpha" type="matrix" values="0 0 0 0 0 0 0 0 0 0 0 0 0 0 0 0 0 0 127 0" result="hardAlpha"/>
<feOffset dy="5"/>
<feGaussianBlur stdDeviation="4"/>
<feColorMatrix type="matrix" values="0 0 0 0 0.1125 0 0 0 0 0.295916 0 0 0 0 1 0 0 0 0.22 0"/>
<feBlend mode="normal" in2="BackgroundImageFix" result="effect1_dropShadow_50_7428"/>
<feBlend mode="normal" in="SourceGraphic" in2="effect1_dropShadow_50_7428" result="shape"/>
</filter>
<linearGradient id="paint0_linear_50_7428" x1="64.8788" y1="98.528" x2="104.064" y2="98.528" gradientUnits="userSpaceOnUse">
<stop stop-color="#83A6FF"/>
<stop offset="1" stop-color="#5277D7"/>
</linearGradient>
</defs>
</svg>
