<svg  viewBox="0 0 120 115" fill="none" xmlns="http://www.w3.org/2000/svg">
<path d="M5.64055 14.9462C7.13216 14.4588 7.94834 12.8481 7.46352 11.3486C6.97871 9.84907 5.3765 9.02857 3.88489 9.51595C2.39327 10.0033 1.5771 11.614 2.06191 13.1136C2.54673 14.6131 4.14894 15.4336 5.64055 14.9462Z" fill="#F4F6FD"/>
<path d="M11.8405 5.63093C12.8548 5.2995 13.4098 4.20423 13.0801 3.18455C12.7504 2.16488 11.6609 1.60694 10.6466 1.93836C9.63231 2.26978 9.07731 3.36506 9.40698 4.38473C9.73666 5.40441 10.8262 5.96235 11.8405 5.63093Z" fill="#F4F6FD"/>
<path d="M104.947 15.427C106.707 13.8102 106.83 11.0653 105.222 9.296C103.614 7.52675 100.883 7.40318 99.1231 9.02C97.3632 10.6368 97.2403 13.3818 98.8486 15.151C100.457 16.9203 103.187 17.0438 104.947 15.427Z" fill="#F4F6FD"/>
<path d="M118.658 7.43063C119.399 6.74987 119.451 5.5941 118.774 4.84915C118.097 4.10421 116.947 4.05218 116.206 4.73294C115.465 5.41371 115.413 6.56948 116.09 7.31442C116.768 8.05937 117.917 8.1114 118.658 7.43063Z" fill="#F4F6FD"/>
<path d="M10.6368 108.957C11.3778 108.277 11.4296 107.121 10.7524 106.376C10.0752 105.631 8.92553 105.579 8.18451 106.26C7.44349 106.941 7.39173 108.096 8.06891 108.841C8.74609 109.586 9.89577 109.638 10.6368 108.957Z" fill="#E2EBFF"/>
<path d="M56.4584 115C87.6396 115 112.917 89.5888 112.917 58.2423C112.917 26.8959 87.6396 1.48462 56.4584 1.48462C25.2773 1.48462 0 26.8959 0 58.2423C0 89.5888 25.2773 115 56.4584 115Z" fill="#F4F6FD"/>
<path d="M30.4443 89.3048V70.1191H39.873V89.3048H43.3946C45.0985 89.3048 45.8937 91.3605 44.7578 92.5025L37.0331 100.268C36.0107 101.296 34.4203 101.296 33.3979 100.268L25.5596 92.5025C24.4236 91.3605 25.2188 89.3048 26.9228 89.3048H30.4443Z" fill="url(#paint0_linear_251:55093)"/>
<path d="M75.3159 13.1331V0H83.495V13.1331H86.5622C88.0389 13.1331 88.7205 14.8461 87.6981 15.8739L80.9958 22.6117C80.0871 23.5253 78.7239 23.5253 77.8151 22.6117L71.1128 15.8739C70.0904 14.8461 70.772 13.1331 72.2488 13.1331H75.3159Z" fill="url(#paint1_linear_251:55093)"/>
<path d="M99.1718 41.3407V50.0199C99.1718 51.3904 98.7174 52.7608 97.9222 53.7886L66.569 87.4777V87.5919L64.9786 105.065C62.4795 107.691 53.0508 107.234 51.9148 105.065L50.3244 87.7062V87.3635L18.9713 53.7886C18.1761 52.7608 17.7217 51.3904 17.7217 50.0199V41.3407L58.5035 42.0259L99.1718 41.3407Z" fill="url(#paint2_linear_251:55093)"/>
<path d="M87.9255 39.2851L53.6188 37.9147L17.7217 41.3407V49.6773C17.7217 54.2454 36.011 57.8998 58.5035 57.8998C80.996 57.8998 99.2854 54.2454 99.2854 49.6773V41.3407L87.9255 39.2851Z" fill="url(#paint3_linear_251:55093)"/>
<path d="M79.7463 101.524V68.7488H89.0614V101.639H92.4693C94.1733 101.639 94.9685 103.694 93.8325 104.836L86.2214 112.488C85.199 113.515 83.6086 113.515 82.6998 112.488L74.9751 104.722C73.8392 103.58 74.6343 101.524 76.3383 101.524H79.7463Z" fill="url(#paint4_linear_251:55093)"/>
<path d="M99.1714 41.3407C99.1714 44.3099 93.7187 46.9365 85.0852 48.7637H84.9716C83.4949 49.1063 81.9045 49.3347 80.3141 49.5631C79.9733 49.6773 79.5189 49.6773 79.1781 49.7915C74.407 50.4767 68.9542 50.9335 63.1607 51.0477C61.5703 51.0477 60.0936 51.1619 58.3896 51.1619C56.7992 51.1619 55.0952 51.1619 53.5049 51.0477C45.4394 50.8193 38.1691 50.0199 32.2619 48.8779C23.2877 47.0507 17.4941 44.3099 17.4941 41.2265C17.4941 38.1431 23.2877 35.4022 32.2619 33.575C33.6251 33.3466 34.9883 33.004 36.5787 32.7756C36.8059 32.7756 37.1467 32.6614 37.3739 32.6614C39.5322 32.3188 41.9178 32.0904 44.3034 31.862C44.5306 31.862 44.8714 31.7478 45.0986 31.7478C47.1433 31.5194 49.3017 31.4052 51.5737 31.4052C51.8009 31.4052 52.1417 31.4052 52.3689 31.4052C52.7097 31.4052 53.0505 31.4052 53.3913 31.4052C54.9816 31.291 56.572 31.291 58.276 31.291C58.7304 31.291 59.1848 31.291 59.6392 31.291C59.8664 31.291 60.2072 31.291 60.4344 31.291C61.5704 31.291 62.5927 31.291 63.6151 31.4052C66.4551 31.5194 69.295 31.6336 71.9078 31.862C72.0214 31.862 72.0214 31.862 72.135 31.862C73.271 31.9762 74.407 32.0904 75.543 32.2046C77.4741 32.433 79.2917 32.6614 81.1093 33.004C82.3589 33.2324 83.6085 33.4608 84.7444 33.6892C93.6051 35.6306 99.1714 38.3715 99.1714 41.3407Z" fill="url(#paint5_linear_251:55093)"/>
<path d="M58.3898 33.1182C69.1816 33.1182 79.2919 34.146 86.7894 35.9732C95.1957 38.0288 97.4676 40.3129 97.4676 41.4549C97.4676 42.4827 95.1957 44.8809 86.7894 46.9365C79.1783 48.7637 69.068 49.7915 58.3898 49.7915C47.5979 49.7915 37.4876 48.7637 29.9901 46.9365C21.5839 44.8809 19.3119 42.5969 19.3119 41.4549C19.3119 40.4271 21.5839 38.0288 29.9901 35.9732C37.6012 34.146 47.5979 33.1182 58.3898 33.1182ZM58.3898 31.5194C35.8973 31.5194 17.6079 35.9732 17.6079 41.4549C17.6079 46.9365 35.8973 51.3903 58.3898 51.3903C80.8823 51.3903 99.1716 46.9365 99.1716 41.4549C99.1716 35.859 80.8823 31.5194 58.3898 31.5194Z" fill="#84A2FF"/>
<path d="M61.0018 106.663C57.3667 107.234 52.5955 106.549 51.8003 105.065L50.21 87.7061C52.5955 88.3913 55.2083 88.7339 58.0483 88.7339C61.1154 88.7339 63.9554 88.2771 66.4545 87.4777L64.9778 105.065C64.1826 105.864 62.7058 106.435 61.0018 106.663Z" fill="url(#paint6_linear_251:55093)"/>
<path d="M19.7658 38.1431C18.857 38.8283 18.289 39.5135 17.9482 40.3129C17.8346 40.6555 17.721 40.9981 17.721 41.3407C17.721 50.0199 17.2666 51.5045 18.9706 53.7885L21.4697 56.4152" stroke="#182052" stroke-miterlimit="10" stroke-linecap="round" stroke-linejoin="round"/>
<path d="M64.9784 105.065L66.5688 87.5919V87.4777C99.9668 51.3903 99.1716 53.2175 99.1716 50.0199C99.1716 49.7915 99.1716 41.2264 99.1716 41.3406C99.1716 30.9484 46.2347 28.6643 25.6733 35.288" stroke="#182052" stroke-miterlimit="10" stroke-linecap="round" stroke-linejoin="round"/>
<path d="M34.1934 70.1191L50.2107 87.3634V87.706L51.9147 105.065C52.4827 106.207 55.4363 106.892 58.3898 106.892" stroke="#182052" stroke-miterlimit="10" stroke-linecap="round" stroke-linejoin="round"/>
<path d="M29.7627 65.3228L31.0123 66.6932" stroke="#182052" stroke-miterlimit="10" stroke-linecap="round" stroke-linejoin="round"/>
<path d="M62.3657 44.3092H33.966C33.1708 44.3092 32.4893 43.6241 32.4893 42.8246V4.68164C32.4893 3.65383 33.2844 2.96863 34.3068 2.96863H54.5274C63.956 13.2467 62.4793 11.7621 63.6152 13.0183C63.8424 32.4324 63.8424 34.3738 63.956 42.8246C63.956 43.6241 63.2744 44.3092 62.3657 44.3092Z" fill="white"/>
<path d="M42.4859 2.85498H54.5274C63.956 13.133 62.4793 11.6484 63.6152 12.9046C63.8424 32.3187 63.8424 34.2602 63.956 42.711C63.956 43.5104 63.2744 44.3098 62.4793 44.3098H33.966C33.1708 44.3098 32.4893 43.6246 32.4893 42.8252V4.68219C32.4893 3.65438 33.2844 2.96918 34.3068 2.96918" stroke="#182052" stroke-miterlimit="10" stroke-linecap="round" stroke-linejoin="round"/>
<path d="M37.3738 2.85498H37.7146" stroke="#182052" stroke-miterlimit="10" stroke-linecap="round" stroke-linejoin="round"/>
<path d="M46.0075 37.9146H44.9852C44.758 37.9146 44.5308 37.6862 44.5308 37.4578C44.5308 37.2294 44.758 37.001 44.9852 37.001H46.0075C46.2347 37.001 46.4619 37.2294 46.4619 37.4578C46.4619 37.6862 46.2347 37.9146 46.0075 37.9146Z" fill="#E6E6EB"/>
<path d="M43.168 37.9146H37.1473C36.9201 37.9146 36.6929 37.6862 36.6929 37.4578C36.6929 37.2294 36.9201 37.001 37.1473 37.001H43.168C43.3952 37.001 43.6224 37.2294 43.6224 37.4578C43.6224 37.6862 43.3952 37.9146 43.168 37.9146Z" fill="#E6E6EB"/>
<path d="M51.0056 9.02189H37.4874C37.1466 9.02189 36.9194 8.79349 36.9194 8.45089C36.9194 8.10828 37.1466 7.87988 37.4874 7.87988H50.892C51.2328 7.87988 51.46 8.10828 51.46 8.45089C51.5736 8.67929 51.2328 9.02189 51.0056 9.02189Z" fill="#E6E6EB"/>
<path d="M42.713 12.2195H37.4874C37.1466 12.2195 36.9194 11.9911 36.9194 11.6485C36.9194 11.3059 37.1466 11.0775 37.4874 11.0775H42.5994C42.9402 11.0775 43.1673 11.3059 43.1673 11.6485C43.1673 11.9911 42.9402 12.2195 42.713 12.2195Z" fill="#E6E6EB"/>
<path d="M54.5272 2.96863V10.9627C54.5272 12.1047 55.5496 13.0183 56.572 13.0183H63.6151L54.5272 2.96863Z" fill="white"/>
<path d="M54.5272 8.33606V10.9627C54.5272 12.1047 55.5496 13.0183 56.572 13.0183H63.6151L54.5272 2.96863" stroke="#182052" stroke-miterlimit="10" stroke-linecap="round" stroke-linejoin="round"/>
<path d="M59.1854 18.2721H52.1423H44.872H38.0561C37.2609 18.2721 36.6929 18.9573 36.6929 19.6425V31.9762C36.6929 32.7756 37.2609 33.3466 38.0561 33.3466H59.1854C59.5262 33.3466 59.867 33.2324 60.0942 33.004C60.3214 32.7756 60.435 32.433 60.435 32.2046C60.435 32.2046 60.435 32.0904 60.435 31.9762V19.6425C60.5486 18.9573 59.9806 18.2721 59.1854 18.2721ZM45.2128 19.0715H51.6879V21.9265H45.2128V19.0715ZM37.4881 19.6425C37.4881 19.2999 37.7153 19.0715 38.0561 19.0715H44.4176V21.9265H37.4881V19.6425ZM44.4176 32.5472H38.0561C37.7153 32.5472 37.4881 32.3188 37.4881 31.9762V30.0348H44.4176V32.5472ZM44.4176 29.1212H37.4881V26.3803H44.4176V29.1212ZM44.4176 25.5809H37.4881V22.8401H44.4176V25.5809ZM51.6879 32.5472H45.2128V30.0348H51.6879V32.5472ZM51.6879 29.1212H45.2128V26.3803H51.6879V29.1212ZM51.6879 25.5809H45.2128V22.8401H51.6879V25.5809ZM59.1854 32.5472H52.5967V30.0348H59.7534V31.9762C59.7534 31.9762 59.7534 32.0904 59.7534 32.2046C59.6398 32.3188 59.4126 32.5472 59.1854 32.5472ZM59.7534 29.1212H52.5967V26.3803H59.7534V29.1212ZM59.7534 25.5809H52.5967V22.8401H59.7534V25.5809ZM59.7534 21.9265H52.5967V19.0715H59.1854C59.5262 19.0715 59.7534 19.2999 59.7534 19.6425V21.9265Z" fill="#E6E6EB"/>
<path d="M84.9713 47.3933C75.3155 49.4489 63.5012 50.0199 53.6182 49.6773V27.4081C53.6182 26.6087 54.1862 25.9235 54.8677 25.6951C54.9813 25.6951 55.2085 25.5809 55.3221 25.5809H75.6563L81.2226 31.6336L84.8577 35.6306C84.8577 40.7696 84.8577 38.2572 84.9713 47.3933Z" fill="white"/>
<path d="M80.0862 46.5939H77.1326C76.9054 46.5939 76.6782 46.3655 76.6782 46.1371C76.6782 45.9087 76.9054 45.6803 77.1326 45.6803H80.0862C80.3134 45.6803 80.5406 45.9087 80.5406 46.1371C80.5406 46.3655 80.3134 46.5939 80.0862 46.5939Z" fill="#E6E6EB"/>
<path d="M74.5199 46.5939H58.389C58.1618 46.5939 57.9346 46.3655 57.9346 46.1371C57.9346 45.9087 58.1618 45.6803 58.389 45.6803H74.4064C74.6335 45.6803 74.8607 45.9087 74.8607 46.1371C74.8607 46.3655 74.7471 46.5939 74.5199 46.5939Z" fill="#E6E6EB"/>
<path d="M80.2001 42.0258H69.8626C69.6354 42.0258 69.4082 41.7974 69.4082 41.569C69.4082 41.3406 69.6354 41.1122 69.8626 41.1122H80.2001C80.4273 41.1122 80.6545 41.3406 80.6545 41.569C80.6545 41.7974 80.4273 42.0258 80.2001 42.0258Z" fill="#E6E6EB"/>
<path d="M66.5684 42.0258H58.6165C58.3893 42.0258 58.1621 41.7974 58.1621 41.569C58.1621 41.3406 58.3893 41.1122 58.6165 41.1122H66.5684C66.7956 41.1122 67.0228 41.3406 67.0228 41.569C67.0228 41.7974 66.7956 42.0258 66.5684 42.0258Z" fill="#E6E6EB"/>
<path d="M72.1347 31.6336H58.7301C58.3893 31.6336 58.1621 31.4052 58.1621 31.0626C58.1621 30.72 58.3893 30.4916 58.7301 30.4916H72.2483C72.5891 30.4916 72.8163 30.72 72.8163 31.0626C72.8163 31.4052 72.4755 31.6336 72.1347 31.6336Z" fill="#E6E6EB"/>
<path d="M63.842 34.9454H58.7301C58.3893 34.9454 58.1621 34.7169 58.1621 34.3743C58.1621 34.0317 58.3893 33.8033 58.7301 33.8033H63.842C64.1828 33.8033 64.41 34.0317 64.41 34.3743C64.41 34.7169 64.1828 34.9454 63.842 34.9454Z" fill="#E6E6EB"/>
<path d="M75.6561 25.5809V33.575C75.6561 34.717 76.6785 35.6306 77.7009 35.6306H84.744L75.6561 25.5809Z" fill="white"/>
<path d="M75.6561 30.2632V33.575C75.6561 34.717 76.6785 35.6306 77.7009 35.6306H84.744L75.5425 25.5809" stroke="#182052" stroke-miterlimit="10" stroke-linecap="round" stroke-linejoin="round"/>
<path d="M63.7283 25.5809H75.6561L81.2224 31.6336L84.8576 35.6306C84.8576 40.6554 84.8576 38.143 84.9712 47.3933" stroke="#182052" stroke-miterlimit="10" stroke-linecap="round" stroke-linejoin="round"/>
<path d="M53.6182 44.5V27.4081C53.6182 26.6087 54.1862 25.9235 54.8677 25.6951C54.9813 25.6951 55.2085 25.5809 55.3221 25.5809H60.5477" stroke="#182052" stroke-miterlimit="10" stroke-linecap="round" stroke-linejoin="round"/>
<defs>
<linearGradient id="paint0_linear_251:55093" x1="35.1462" y1="100.971" x2="35.1462" y2="70.9938" gradientUnits="userSpaceOnUse">
<stop offset="0.00578035" stop-color="#FF66A9"/>
<stop offset="1" stop-color="#FF66A9" stop-opacity="0"/>
</linearGradient>
<linearGradient id="paint1_linear_251:55093" x1="79.3881" y1="23.2814" x2="79.3881" y2="0.641464" gradientUnits="userSpaceOnUse">
<stop offset="0.00578035" stop-color="#5277D7"/>
<stop offset="1" stop-color="#84A2FF" stop-opacity="0"/>
</linearGradient>
<linearGradient id="paint2_linear_251:55093" x1="22.4887" y1="58.5008" x2="86.2367" y2="103.133" gradientUnits="userSpaceOnUse">
<stop stop-color="#83A6FF"/>
<stop offset="0.994956" stop-color="#5277D7"/>
</linearGradient>
<linearGradient id="paint3_linear_251:55093" x1="22.4954" y1="43.1484" x2="37.6327" y2="77.9457" gradientUnits="userSpaceOnUse">
<stop stop-color="#83A6FF"/>
<stop offset="0.994956" stop-color="#5277D7"/>
</linearGradient>
<linearGradient id="paint4_linear_251:55093" x1="84.447" y1="112.339" x2="84.447" y2="72.54" gradientUnits="userSpaceOnUse">
<stop offset="0.00578035" stop-color="#FF66A9"/>
<stop offset="1" stop-color="#FF66A9" stop-opacity="0"/>
</linearGradient>
<linearGradient id="paint5_linear_251:55093" x1="22.2745" y1="36.4948" x2="37.2522" y2="71.1714" gradientUnits="userSpaceOnUse">
<stop stop-color="#718ED9"/>
<stop offset="0.994956" stop-color="#4667BC"/>
</linearGradient>
<linearGradient id="paint6_linear_251:55093" x1="51.1607" y1="92.5545" x2="66.6553" y2="99.8677" gradientUnits="userSpaceOnUse">
<stop stop-color="#83A6FF"/>
<stop offset="0.994956" stop-color="#5277D7"/>
</linearGradient>
</defs>
</svg>
