<svg width="121" height="117" viewBox="0 0 121 117" fill="none" xmlns="http://www.w3.org/2000/svg">
<path d="M59.4143 110C86.1167 110 107.763 88.3958 107.763 61.7453C107.763 35.0948 86.1167 13.4902 59.4143 13.4902C32.712 13.4902 11.0654 35.0948 11.0654 61.7453C11.0654 88.3958 32.712 110 59.4143 110Z" fill="#EAEEF9"/>
<path d="M32.0782 40.8701H85.4857C87.5286 40.8701 89.2797 42.5207 89.2797 44.6567V78.2508C89.2797 80.2897 87.6259 82.0374 85.4857 82.0374H32.0782C30.0352 82.0374 28.2842 80.3868 28.2842 78.2508V44.6567C28.2842 42.6178 30.0352 40.8701 32.0782 40.8701Z" fill="#C0D6FF"/>
<path d="M82.47 40.8701H85.4857C87.5286 40.8701 89.2797 42.5207 89.2797 44.6567V78.2508C89.2797 80.2897 87.6259 82.0374 85.4857 82.0374H32.0782C30.0352 82.0374 28.2842 80.3868 28.2842 78.2508V44.6567C28.2842 42.6178 29.938 40.8701 32.0782 40.8701H73.5201" stroke="#6F7590" stroke-miterlimit="10" stroke-linecap="round" stroke-linejoin="round"/>
<path d="M115.677 49.6887C117.185 48.3141 117.29 45.9804 115.913 44.4762C114.535 42.972 112.197 42.8669 110.69 44.2415C109.183 45.6161 109.077 47.9499 110.455 49.4541C111.832 50.9583 114.17 51.0633 115.677 49.6887Z" fill="#E2EBFF"/>
<path d="M115.95 33.2856C116.585 32.7068 116.629 31.7242 116.049 31.0909C115.469 30.4575 114.485 30.4133 113.85 30.9921C113.216 31.5708 113.171 32.5535 113.751 33.1868C114.331 33.8202 115.316 33.8644 115.95 33.2856Z" fill="#E2EBFF"/>
<path d="M76.6829 10.5819C77.1192 10.184 77.1497 9.50846 76.751 9.07303C76.3523 8.6376 75.6754 8.60719 75.2392 9.0051C74.8029 9.40301 74.7724 10.0786 75.1711 10.514C75.5698 10.9494 76.2467 10.9798 76.6829 10.5819Z" fill="#E2EBFF"/>
<path d="M108.655 23.1804L95.3277 46.7737C94.8413 47.5504 93.8685 47.8418 93.0902 47.3563L70.3264 34.1516C69.5482 33.6662 69.2562 32.6954 69.7427 31.9187L87.2533 1.81996C87.7397 1.04322 88.7126 0.75185 89.4909 1.23731L106.029 10.8494L108.655 23.1804Z" fill="white"/>
<path d="M85.9886 3.76182L87.1562 1.81996C87.6426 1.04322 88.6152 0.75185 89.3935 1.23731L105.931 10.8494L108.655 23.2775L95.3277 46.8709C94.8413 47.6476 93.8685 47.939 93.0902 47.4535L70.3264 34.2488C69.5482 33.7634 69.2562 32.7926 69.7427 32.0159L82.4866 9.97565" stroke="#6F7590" stroke-miterlimit="10" stroke-linecap="round" stroke-linejoin="round"/>
<path d="M103.694 14.5391L102.138 17.1603C101.651 18.1312 101.943 19.1994 102.819 19.782L108.558 23.083" stroke="#6F7590" stroke-miterlimit="10" stroke-linecap="round" stroke-linejoin="round"/>
<path d="M90.2691 16.9663C90.6583 16.8692 91.0473 16.8691 91.3391 16.8691C91.7282 16.8691 92.1175 16.8691 92.5067 16.8691C92.8958 16.9662 93.382 17.0631 93.7711 17.1602C94.2575 17.3544 94.6467 17.5487 95.0358 17.7429C95.6195 18.0342 96.1059 18.4227 96.4951 18.9082C96.8842 19.2966 97.1762 19.782 97.3707 20.3646C97.5653 20.85 97.5653 21.4322 97.5653 21.9177C97.468 22.5002 97.2733 23.083 96.9815 23.5684C96.6896 24.0539 96.3978 24.4421 96.0087 24.8305C95.6195 25.1217 95.3277 25.3161 94.8413 25.5103C94.4522 25.7045 94.0631 25.8014 93.674 25.8014L92.6038 25.8986C92.312 25.8986 92.0201 25.9959 91.631 26.0929C91.3391 26.19 91.1446 26.287 90.9501 26.4812L89.8799 27.8404L88.129 26.8695L88.9071 25.122C89.0043 24.8307 89.2963 24.5392 89.4908 24.345C89.7827 24.1508 90.0744 24.0538 90.3663 23.9567C90.7554 23.8596 91.0474 23.8599 91.4365 23.7628C91.8256 23.7628 92.2147 23.6655 92.6038 23.5684C92.9929 23.4713 93.2849 23.3744 93.674 23.1802C94.0631 22.986 94.2577 22.6948 94.4523 22.3064C94.5496 22.1122 94.6467 21.8207 94.744 21.5294C94.744 21.2381 94.7441 21.0442 94.6468 20.85C94.5495 20.5588 94.4521 20.3644 94.2575 20.1702C94.063 19.976 93.8685 19.7817 93.5766 19.5875C93.2848 19.3934 92.8958 19.1992 92.5067 19.1021C92.2148 19.005 91.9228 19.0049 91.631 19.0049C91.3391 19.0049 91.1446 19.0049 90.9501 19.0049C90.8528 19.0049 90.6583 19.0053 90.561 18.9082C90.3665 18.8111 90.1718 18.5197 90.1718 18.3255L90.2691 16.9663ZM85.1132 30.1706C85.2105 29.9764 85.405 29.7826 85.5996 29.5884C85.7942 29.4913 85.9888 29.2968 86.1834 29.2968C86.6698 29.1997 87.1561 29.1999 87.5452 29.4912C87.7398 29.5883 87.9344 29.7825 88.129 29.9767C88.2263 30.1708 88.3234 30.3651 88.4207 30.5593C88.7125 31.5302 88.129 32.501 87.1562 32.7922C86.6698 32.8893 86.1832 32.7921 85.7941 32.5979C85.5995 32.5008 85.4051 32.3066 85.2106 32.1124C85.1133 31.9182 84.9187 31.7244 84.9187 31.5302C84.8214 31.336 84.8214 31.0446 84.9187 30.8504C84.9187 30.5591 85.0159 30.3647 85.1132 30.1706Z" fill="#C0D6FF"/>
<path d="M23.1449 12.8888L38.4181 28.7147C38.9045 29.2973 38.9044 30.074 38.3207 30.6566L22.7556 45.3177C22.172 45.8031 21.3937 45.8031 20.81 45.2205L1.45109 24.7343C0.96468 24.1518 0.964775 23.375 1.54846 22.7925L12.833 12.209L23.1449 12.8888Z" fill="white"/>
<path d="M27.5223 17.4524L38.3204 28.7147C38.8068 29.2973 38.807 30.074 38.2233 30.6566L22.6582 45.3177C22.0745 45.8031 21.2963 45.8031 20.7126 45.2205L1.35343 24.7343C0.867024 24.1518 0.867119 23.375 1.45081 22.7925L12.7356 12.209L23.0473 12.986L23.9229 13.8597" stroke="#6F7590" stroke-miterlimit="10" stroke-linecap="round" stroke-linejoin="round"/>
<path d="M15.5342 15L17.0157 16.4813C17.5993 17.0638 18.5722 17.0638 19.2532 16.4813L22.9999 13" stroke="#6F7590" stroke-miterlimit="10" stroke-linecap="round" stroke-linejoin="round"/>
<path d="M14 25.7057C14 25.4144 14.0975 25.1227 14.1948 24.8314C14.292 24.5402 14.3891 24.249 14.4864 23.9577C14.5837 23.6664 14.7783 23.3752 14.9728 23.084C15.1674 22.7927 15.4593 22.5015 15.7511 22.2102C16.1402 21.8219 16.5294 21.5307 17.0158 21.3365C17.4049 21.1423 17.8914 21.0449 18.2805 21.0449C18.6697 21.0449 19.1561 21.1422 19.5452 21.2393C19.9344 21.4335 20.3234 21.7246 20.7126 22.0158C21.0044 22.3071 21.2962 22.6956 21.3935 23.084C21.4908 23.3752 21.5881 23.7637 21.6854 24.1521C21.6854 24.4434 21.6854 24.8317 21.6854 25.123C21.5881 25.4143 21.5881 25.7055 21.4909 25.9967C21.4909 26.288 21.3935 26.482 21.3935 26.7733C21.3935 26.9675 21.3934 27.1618 21.588 27.3559L22.3663 28.5212L21.199 29.5894L20.0316 28.5212C19.8371 28.3271 19.6425 28.1327 19.5452 27.8414C19.448 27.5501 19.4479 27.3561 19.4479 27.0649C19.4479 26.7736 19.5452 26.4824 19.5452 26.1911C19.6425 25.8998 19.6424 25.6082 19.6424 25.3169C19.6424 25.0256 19.6425 24.7344 19.5452 24.4432C19.448 24.1519 19.2534 23.8607 19.0588 23.5694C18.9615 23.3752 18.767 23.2782 18.5724 23.1812C18.3779 23.0841 18.1832 23.084 17.9886 23.084C17.7941 23.084 17.5994 23.1812 17.4049 23.2783C17.2103 23.3754 17.0159 23.4724 16.8213 23.6666C16.6267 23.8608 16.4321 24.1518 16.2375 24.346C16.1402 24.5402 16.0429 24.7345 15.9456 25.0258C15.8483 25.22 15.8485 25.4142 15.8485 25.5113C15.8485 25.6084 15.7513 25.7053 15.654 25.8024C15.5567 25.9966 15.2648 25.9966 15.0702 25.8996L14 25.7057ZM23.1446 32.696C23.0473 32.599 22.95 32.4048 22.8527 32.2106C22.7554 32.0164 22.7553 31.8221 22.7553 31.6279C22.7553 31.2396 22.9499 30.8516 23.2417 30.5603C23.339 30.4632 23.5336 30.3658 23.7282 30.2687C23.9227 30.1716 24.1174 30.1715 24.3119 30.1715C24.8956 30.1715 25.4792 30.5599 25.6738 31.1425C25.7711 31.3367 25.7712 31.5309 25.7712 31.7251C25.7712 31.9193 25.6738 32.1136 25.6738 32.3078C25.5765 32.502 25.4793 32.599 25.2848 32.7932C25.1875 32.8903 24.9929 33.0843 24.7983 33.0843C24.4092 33.1814 24.02 33.1814 23.7282 33.0843C23.4363 32.9872 23.2419 32.8902 23.1446 32.696Z" fill="#C0D6FF"/>
<path d="M62.8361 37.8418L56.9019 58.9107C56.7073 59.5903 55.9291 60.0757 55.2481 59.7844L34.7216 53.7649C34.0406 53.5708 33.5543 52.7938 33.8462 52.1142L41.8232 25.0254C42.0178 24.3458 42.796 23.8604 43.477 24.1517L58.3611 28.5208L62.8361 37.8418Z" fill="white"/>
<path d="M39.7797 32.1134L41.8227 25.2202C42.0173 24.5405 42.7955 24.0547 43.4765 24.346L58.3606 28.7151L62.9328 37.9389L56.9987 59.0082C56.8042 59.6879 56.0257 60.1733 55.3448 59.882L34.8185 53.8625C34.1375 53.6683 33.651 52.8914 33.9428 52.2117L37.8341 38.9099" stroke="#6F7590" stroke-miterlimit="10" stroke-linecap="round" stroke-linejoin="round"/>
<path d="M57.2902 32.1133L56.6093 34.4439C56.4147 35.2206 56.9012 36.0945 57.6795 36.3857L62.8355 37.9388" stroke="#6F7590" stroke-miterlimit="10" stroke-linecap="round" stroke-linejoin="round"/>
<path d="M47.1738 36.4825C47.4656 36.3854 47.7574 36.2885 48.0492 36.1914C48.3411 36.0944 48.6329 35.9971 49.022 35.9971C49.4112 35.9971 49.7031 35.9971 50.0922 35.9971C50.4814 35.9971 50.8704 36.0944 51.2596 36.1914C51.746 36.2885 52.2325 36.58 52.6216 36.8713C53.0108 37.1626 53.3026 37.4538 53.5945 37.8422C53.789 38.2306 53.9836 38.6187 54.0809 39.007C54.1782 39.4925 54.0808 39.9779 53.9835 40.3662C53.8862 40.7546 53.6916 41.1432 53.3997 41.5315C53.2051 41.8228 52.9135 42.1139 52.6216 42.3081C52.3298 42.5023 52.0378 42.6965 51.746 42.7936L50.8705 43.0851C50.676 43.1822 50.3842 43.2791 50.1896 43.3762C49.995 43.4733 49.8003 43.6675 49.8003 43.8617L49.2168 45.1242L47.6602 44.6387L47.9521 43.0851C47.9521 42.7938 48.1466 42.5995 48.3411 42.4053C48.5357 42.2111 48.7302 42.0169 49.022 41.9198C49.3139 41.8227 49.6058 41.7258 49.8003 41.6287C50.0922 41.5316 50.3842 41.4346 50.676 41.2405C50.9679 41.1434 51.1622 40.9492 51.4541 40.755C51.6486 40.5608 51.8432 40.2691 51.9405 39.8808C52.0378 39.6866 52.0379 39.4928 52.0379 39.2986C52.0379 39.1044 51.9406 38.9101 51.8433 38.7159C51.7461 38.5218 51.5515 38.4247 51.3569 38.2305C51.1624 38.1334 50.9679 38.036 50.676 37.9389C50.3842 37.8418 50.0923 37.8422 49.7032 37.8422C49.5086 37.8422 49.2166 37.8418 49.022 37.9389C48.8275 37.9389 48.6329 38.0361 48.5356 38.0361C48.4384 38.0361 48.3412 38.1332 48.1466 38.0361C47.952 38.0361 47.7576 37.842 47.7576 37.6478L47.1738 36.4825ZM45.7146 47.9398C45.8118 47.7456 45.8119 47.5514 46.0065 47.4543C46.1037 47.2601 46.2982 47.1631 46.3955 47.066C46.7846 46.8718 47.1738 46.8717 47.4657 46.9688C47.6602 47.0659 47.8548 47.1628 47.9521 47.2599C48.0494 47.357 48.2438 47.5511 48.3411 47.6482C48.7302 48.3278 48.4385 49.2017 47.7576 49.59C47.3684 49.7842 46.9792 49.7843 46.6874 49.6872C46.4928 49.5901 46.2983 49.5903 46.201 49.3961C46.0064 49.2991 45.9092 49.105 45.8119 49.0079C45.7147 48.8137 45.7145 48.7166 45.6172 48.5224C45.6172 48.3282 45.6173 48.1339 45.7146 47.9398Z" fill="#C0D6FF"/>
<path d="M111.062 73.8976L91.7459 84.2978C91.1206 84.631 90.2306 84.4107 89.9683 83.7199L80.0708 64.8166C79.7385 64.1934 79.9613 63.3046 80.654 63.0411L105.73 49.9187C106.356 49.5854 107.246 49.8054 107.508 50.4963L114.682 64.2061L111.062 73.8976Z" fill="white"/>
<path d="M111.062 73.8976L91.7459 84.2978C91.1206 84.631 90.2306 84.4107 89.9683 83.7199L80.0708 64.8166C79.7385 64.1934 79.9613 63.3046 80.654 63.0411L105.73 49.9187C106.356 49.5854 107.246 49.8054 107.508 50.4963L114.682 64.2061L111.062 73.8976Z" stroke="#6F7590" stroke-miterlimit="10" stroke-linecap="round" stroke-linejoin="round"/>
<path d="M111.217 65.9467L109.203 66.9442C108.508 67.345 108.215 68.3016 108.545 69.0622L111.002 73.8399" stroke="#6F7590" stroke-miterlimit="10" stroke-linecap="round" stroke-linejoin="round"/>
<path d="M101.111 61.6546C101.384 61.7963 101.656 61.9381 101.929 62.0798C102.201 62.2215 102.474 62.363 102.743 62.6419C103.013 62.9209 103.216 63.1302 103.486 63.4091C103.756 63.6881 103.955 64.0346 104.155 64.3811C104.423 64.7973 104.55 65.3483 104.61 65.8298C104.67 66.3113 104.662 66.7231 104.584 67.2024C104.439 67.612 104.294 68.0217 104.081 68.3615C103.798 68.7689 103.381 69.0368 103.033 69.2372C102.686 69.4376 102.271 69.5682 101.788 69.6291C101.443 69.6922 101.031 69.6854 100.688 69.6113C100.346 69.5371 100.003 69.463 99.7307 69.3213L98.9134 68.8961C98.7084 68.8241 98.4358 68.6827 98.2308 68.6107C98.0259 68.5388 97.7509 68.5344 97.6109 68.6694L96.2957 69.1287L95.5663 67.6753L96.8892 66.804C97.0993 66.6014 97.3742 66.6061 97.6492 66.6105C97.9242 66.615 98.1992 66.6193 98.4716 66.761C98.7441 66.9027 99.0168 67.0442 99.2217 67.1162C99.4942 67.2579 99.7665 67.3995 100.109 67.4737C100.381 67.6154 100.656 67.6199 100.999 67.694C101.274 67.6984 101.619 67.6354 101.967 67.435C102.314 67.2347 102.664 66.897 102.672 66.4852C102.745 66.2804 102.68 66.0734 102.685 65.7989C102.62 65.5919 102.555 65.385 102.423 65.1083C102.29 64.8316 102.088 64.6223 101.818 64.3433C101.683 64.2039 101.48 63.9946 101.275 63.9226C101.14 63.7832 100.935 63.7113 100.868 63.6415C100.8 63.5718 100.663 63.5697 100.598 63.3627C100.463 63.2232 100.468 62.9488 100.608 62.8138L101.111 61.6546ZM91.9057 68.5091C92.1132 68.4438 92.2531 68.3086 92.4581 68.3806C92.6656 68.3153 92.871 68.3871 93.0085 68.3893C93.4185 68.5332 93.688 68.8123 93.8204 69.089C93.8853 69.296 93.9504 69.5029 93.9478 69.6401C93.9452 69.7774 93.9403 70.052 93.9378 70.1892C93.8626 70.5313 93.5123 70.8688 93.2347 71.0017C93.0272 71.067 92.8198 71.1324 92.6823 71.1302C92.5448 71.128 92.2698 71.1234 92.1322 71.1212C91.7223 70.9773 91.4524 70.6985 91.32 70.4218C91.2551 70.2148 91.12 70.0755 91.1926 69.8707C91.1277 69.6637 91.2004 69.4585 91.203 69.3213C91.2756 69.1165 91.3456 69.049 91.4182 68.8442C91.5583 68.7092 91.7656 68.6442 91.9057 68.5091Z" fill="#C0D6FF"/>
<path d="M62.543 11.6263L61.9592 11.5291C61.6673 11.5291 61.4729 11.3349 61.3756 11.0437C61.2783 10.8495 61.2782 10.6553 61.1809 10.5582C61.0836 10.364 61.0837 10.0725 61.2783 9.87836L61.5701 9.39289C61.7647 9.10161 61.7646 8.71334 61.4728 8.51915L60.5 7.54823C60.2081 7.25695 59.8191 7.25685 59.6245 7.45104L59.1381 7.7426C58.9435 7.93679 58.6517 7.93641 58.3598 7.83931C58.1652 7.74222 57.9707 7.64541 57.8734 7.64541C57.5816 7.54832 57.4843 7.35404 57.387 7.06276L57.2896 6.48011C57.1923 6.09174 56.9005 5.89746 56.6087 5.89746H55.2468C54.8577 5.89746 54.5659 6.18883 54.5659 6.48011L54.4685 7.06276C54.4685 7.35404 54.274 7.54832 53.9821 7.64541C53.7876 7.74251 53.593 7.74222 53.4957 7.83931C53.3012 7.93641 53.0094 7.93679 52.8148 7.7426L52.3284 7.45104C52.0366 7.25685 51.6473 7.25695 51.4527 7.54823L50.4799 8.51915C50.1881 8.81043 50.1882 9.19871 50.3828 9.39289L50.6747 9.87836C50.8692 10.0725 50.8691 10.364 50.7718 10.5582C50.6745 10.7524 50.5773 10.9466 50.5773 11.0437C50.48 11.3349 50.2853 11.432 49.9935 11.5291L49.41 11.6263C49.0208 11.7234 48.8262 12.0144 48.8262 12.3057V13.6649C48.8262 14.0532 49.1181 14.3447 49.41 14.3447L49.9935 14.4419C50.2853 14.4419 50.48 14.6361 50.5773 14.9274C50.6746 15.1215 50.6745 15.3157 50.7718 15.4128C50.8691 15.607 50.8692 15.8981 50.6747 16.1894L50.3828 16.6748C50.1882 16.9661 50.1881 17.3545 50.4799 17.6458L51.4527 18.6167C51.7446 18.908 52.1338 18.9081 52.3284 18.7139L52.8148 18.4228C53.0094 18.2286 53.3012 18.2285 53.4957 18.3256C53.6903 18.4227 53.8849 18.5195 53.9821 18.5195C54.274 18.6166 54.3713 18.8109 54.4685 19.1022L54.5659 19.6848C54.6632 20.0732 54.955 20.2675 55.2468 20.2675H56.6087C56.9978 20.2675 57.2896 19.9761 57.2896 19.6848L57.387 19.1022C57.387 18.8109 57.5816 18.6166 57.8734 18.5195C58.068 18.4224 58.2625 18.4227 58.3598 18.3256C58.5544 18.2285 58.8463 18.2286 59.1381 18.4228L59.6245 18.7139C59.9164 18.9081 60.3054 18.908 60.5 18.6167L61.4728 17.6458C61.7646 17.3545 61.7647 16.9661 61.5701 16.6748L61.2783 16.1894C61.0837 15.9952 61.0836 15.7041 61.1809 15.4128C61.2782 15.2186 61.3756 15.0245 61.3756 14.9274C61.4729 14.6361 61.6673 14.539 61.9592 14.4419L62.543 14.3447C62.9321 14.2476 63.1265 13.9562 63.1265 13.6649V12.3057C63.1265 11.9173 62.9321 11.6263 62.543 11.6263ZM56.1223 15.3156C54.7603 15.3156 53.6902 14.2476 53.6902 12.8883C53.6902 11.529 54.7603 10.461 56.1223 10.461C57.4842 10.461 58.5543 11.529 58.5543 12.8883C58.457 14.2476 57.3869 15.3156 56.1223 15.3156Z" fill="#EA67A4"/>
<path d="M14.7778 64.1538L14.3887 64.0571C14.1942 64.0571 14.0968 63.8626 13.9995 63.7655C13.9995 63.6684 13.9022 63.4743 13.805 63.3772C13.7077 63.183 13.7078 62.9889 13.9023 62.8918L14.0969 62.6007C14.1941 62.4065 14.1941 62.115 14.0969 61.9208L13.4159 61.241C13.2214 61.0468 12.9296 61.0468 12.735 61.241L12.4431 61.4354C12.2486 61.5325 12.054 61.5325 11.9567 61.4354C11.8594 61.3383 11.6647 61.3381 11.5674 61.241C11.3729 61.1439 11.2758 61.0469 11.2758 60.8527L11.1784 60.4644C11.1784 60.2703 10.9838 60.0762 10.692 60.0762H9.81656C9.52472 60.0762 9.33015 60.2703 9.33015 60.4644L9.23278 60.8527C9.23278 61.0469 9.03817 61.1439 8.94089 61.241C8.8436 61.241 8.64914 61.3383 8.55185 61.4354C8.35729 61.5325 8.16273 61.5325 8.06545 61.4354L7.77356 61.241C7.57899 61.0468 7.28719 61.1439 7.09263 61.241L6.41171 61.9208C6.21715 62.115 6.21715 62.4065 6.41171 62.6007L6.60622 62.8918C6.70351 63.086 6.70351 63.183 6.60622 63.3772C6.50894 63.4743 6.50899 63.6684 6.41171 63.7655C6.31443 63.9597 6.217 64.0571 6.02244 64.0571L5.63341 64.1538C5.43885 64.1538 5.24414 64.348 5.24414 64.6392V65.5135C5.24414 65.8047 5.43885 65.9989 5.63341 65.9989L6.02244 66.0956C6.217 66.0956 6.31443 66.2901 6.41171 66.3872C6.41171 66.4843 6.50894 66.6784 6.60622 66.7755C6.70351 66.9697 6.70351 67.1638 6.60622 67.2609L6.41171 67.552C6.31443 67.7462 6.31443 68.0377 6.41171 68.2319L7.09263 68.9117C7.28719 69.1059 7.57899 69.1059 7.77356 68.9117L8.06545 68.7173C8.16273 68.6202 8.35729 68.6201 8.55185 68.6201C8.64914 68.7172 8.8436 68.7174 8.94089 68.8145C9.13545 68.9116 9.23278 69.0086 9.23278 69.2028L9.33015 69.5911C9.33015 69.7852 9.52472 69.9793 9.81656 69.9793H10.692C10.9838 69.9793 11.1784 69.7852 11.1784 69.5911L11.2758 69.2028C11.2758 69.0086 11.4702 68.9116 11.5674 68.8145C11.6647 68.8145 11.8594 68.7172 11.9567 68.6201C12.1513 68.523 12.3458 68.5231 12.4431 68.7173L12.735 68.9117C12.9296 69.0088 13.2214 69.0088 13.4159 68.9117L14.0969 68.2319C14.2914 68.0377 14.2914 67.7462 14.0969 67.552L13.9023 67.2609C13.8051 67.0667 13.805 66.8726 13.805 66.7755C13.9022 66.6784 13.9022 66.4843 13.9995 66.3872C14.0968 66.193 14.1942 66.0956 14.3887 66.0956L14.7778 65.9989C14.9723 65.9989 15.167 65.8047 15.167 65.5135V64.6392C15.2643 64.348 15.0696 64.1538 14.7778 64.1538ZM10.303 66.7755C9.42744 66.7755 8.64899 65.9985 8.64899 65.1247C8.64899 64.2509 9.42744 63.4744 10.303 63.4744C11.1785 63.4744 11.9567 64.2509 11.9567 65.1247C11.9567 65.9985 11.2758 66.7755 10.303 66.7755Z" fill="#EA67A4"/>
<path d="M90.2686 62.5028V79.1057C90.2686 81.2417 88.5175 82.9894 86.3773 82.9894H31.5104C29.3702 82.9894 27.6191 81.2417 27.6191 79.1057V61.1436" stroke="#84A2FF" stroke-width="3" stroke-linecap="round" stroke-linejoin="round"/>
<path d="M93.3816 48.1328H70.9095C68.7693 48.1328 66.6293 48.9097 64.9755 50.269L59.0412 55.1237C57.3874 56.483 55.2474 57.2599 53.1072 57.2599H27.5221C24.9928 57.2599 22.8525 59.2987 22.8525 61.9202C22.8525 62.1143 22.8526 62.4058 22.9499 62.6L27.6192 87.4553C28.0084 89.7856 29.954 91.5334 32.2888 91.5334H86.7665C89.1012 91.5334 91.0469 89.8828 91.436 87.5525L97.9538 53.5701C98.3429 51.0457 96.6892 48.6184 94.0626 48.23C93.868 48.1329 93.5762 48.1328 93.3816 48.1328Z" fill="white"/>
<path d="M30.1487 57.2599H27.5221C24.9928 57.2599 22.8525 59.2987 22.8525 61.9202C22.8525 62.1143 22.8526 62.4058 22.9499 62.6L27.6192 87.4553C28.0084 89.7856 29.954 91.5334 32.2888 91.5334H86.7665C89.1012 91.5334 91.0469 89.8828 91.436 87.5525L97.9538 53.5701C98.343 51.0457 96.6892 48.6184 94.0626 48.23C93.7707 48.23 93.5761 48.1328 93.2843 48.1328H70.8124C68.6722 48.1328 66.5319 48.9097 64.8781 50.269L58.9441 55.1237C57.2903 56.483 55.15 57.2599 53.0098 57.2599H37.8338" stroke="#6F7590" stroke-miterlimit="10" stroke-linecap="round" stroke-linejoin="round"/>
<path d="M49.7992 73.9601C51.1424 73.9601 52.2313 72.8734 52.2313 71.5328C52.2313 70.1922 51.1424 69.1055 49.7992 69.1055C48.456 69.1055 47.3672 70.1922 47.3672 71.5328C47.3672 72.8734 48.456 73.9601 49.7992 73.9601Z" fill="#6F7590"/>
<path d="M68.8666 73.8624C70.2098 73.8624 71.2986 72.7757 71.2986 71.4351C71.2986 70.0946 70.2098 69.0078 68.8666 69.0078C67.5234 69.0078 66.4346 70.0946 66.4346 71.4351C66.4346 72.7757 67.5234 73.8624 68.8666 73.8624Z" fill="#6F7590"/>
<path d="M64.5868 77.9409H63.3223C62.2522 75.7077 59.5283 74.8339 57.3881 75.999C56.5125 76.3874 55.8316 77.1641 55.4424 77.9409H54.1777C55.2478 75.0281 58.5555 73.5718 61.3767 74.6398C62.8359 75.2224 64.0031 76.3874 64.5868 77.9409Z" fill="#6F7590"/>
<path d="M103.707 88.5337C103.415 89.7959 103.026 90.961 102.54 92.1261C102.443 92.4174 102.345 92.6116 102.151 92.9029C100.497 96.1069 97.8704 98.7284 94.6601 100.282C94.271 100.476 93.8819 100.67 93.59 100.767C90.477 102.03 86.9749 102.515 83.4727 101.738C74.231 99.7964 68.2968 90.7668 70.2425 81.543C72.1881 72.3192 81.2353 66.3966 90.477 68.3384C93.7846 69.0181 96.703 70.6686 99.1351 72.9989C103.124 76.9797 104.875 82.9023 103.707 88.5337Z" fill="white"/>
<g filter="url(#filter0_d_2416:144447)">
<path d="M104.221 89.5044C103.929 90.7666 103.54 91.9317 103.054 93.0968C102.956 93.3881 102.859 93.5823 102.664 93.8736C101.011 97.0776 98.3841 99.6991 95.1738 101.253C94.7847 101.447 94.3955 101.641 94.1037 101.738C90.9907 103 87.4885 103.486 83.9864 102.709C74.7447 100.767 68.8105 91.7375 70.7561 82.5137C72.7018 73.2899 81.7489 67.3673 90.9907 69.3091C94.2983 69.9888 97.2167 71.6393 99.6487 73.9696C103.735 77.9504 105.486 83.873 104.221 89.5044Z" fill="url(#paint0_linear_2416:144447)"/>
</g>
<path d="M94.5769 91.4367L92.0477 88.9122C93.9933 85.9994 93.215 82.1157 90.2966 80.1738C87.3781 78.232 83.4869 79.009 81.5412 81.9218C79.5956 84.8346 80.3739 88.7183 83.2923 90.6601C85.4325 92.0194 88.1563 92.0194 90.1992 90.6601L92.7286 93.1846C93.215 93.6701 93.9933 93.6701 94.4797 93.1846C94.9661 92.6992 95.0633 91.9222 94.5769 91.4367ZM84.0704 88.1356C82.6112 86.6792 82.6112 84.2519 84.0704 82.7955C85.5296 81.3391 87.9617 81.3391 89.4209 82.7955C90.8801 84.2519 90.8801 86.6792 89.4209 88.1356C87.9617 89.592 85.5296 89.592 84.0704 88.1356Z" fill="white"/>
<defs>
<filter id="filter0_d_2416:144447" x="62.3867" y="65.9404" width="50.2383" height="50.1426" filterUnits="userSpaceOnUse" color-interpolation-filters="sRGB">
<feFlood flood-opacity="0" result="BackgroundImageFix"/>
<feColorMatrix in="SourceAlpha" type="matrix" values="0 0 0 0 0 0 0 0 0 0 0 0 0 0 0 0 0 0 127 0" result="hardAlpha"/>
<feOffset dy="5"/>
<feGaussianBlur stdDeviation="4"/>
<feColorMatrix type="matrix" values="0 0 0 0 0.1125 0 0 0 0 0.295916 0 0 0 0 1 0 0 0 0.22 0"/>
<feBlend mode="normal" in2="BackgroundImageFix" result="effect1_dropShadow_2416:144447"/>
<feBlend mode="normal" in="SourceGraphic" in2="effect1_dropShadow_2416:144447" result="shape"/>
</filter>
<linearGradient id="paint0_linear_2416:144447" x1="70.3965" y1="86.0281" x2="104.642" y2="86.0281" gradientUnits="userSpaceOnUse">
<stop stop-color="#83A6FF"/>
<stop offset="1" stop-color="#5277D7"/>
</linearGradient>
</defs>
</svg>
