<svg viewBox="0 0 132 148" fill="currentColor" xmlns="http://www.w3.org/2000/svg">
<path d="M2.43066 111.282L72.8964 148.001L132 117.209L61.5342 80.4902L2.43066 111.282Z" fill="#E0E0E0"/>
<path d="M126.404 115.821L72.8758 143.829L12.5981 112.218L66.1267 84.2168L126.404 115.821Z" fill="#BDCDF4"/>
<path opacity="0.5" d="M126.404 115.821L72.8758 143.829L12.5981 112.218L66.1267 84.2168L126.404 115.821Z" fill="black" fill-opacity="0.5"/>
<path d="M66.1267 46.2539V84.2175L12.5981 112.218V74.2613L66.1267 46.2539Z" fill="#BDCDF4"/>
<path opacity="0.23" d="M66.1267 46.2539V84.2175L12.5981 112.218V74.2613L66.1267 46.2539Z" fill="black" fill-opacity="0.5"/>
<path d="M72.8759 105.866V143.83L12.5981 112.219V74.2617L72.8759 105.866Z" fill="#BDCDF4"/>
<path opacity="0.38" d="M72.8759 105.866V143.83L12.5981 112.219V74.2617L72.8759 105.866Z" fill="black" fill-opacity="0.5"/>
<path d="M126.405 77.8585V115.822L66.127 84.2175V46.2539L126.405 77.8585Z" fill="#BDCDF4"/>
<path opacity="0.4" d="M126.405 77.8585V115.822L66.127 84.2175V46.2539L126.405 77.8585Z" fill="black" fill-opacity="0.5"/>
<path d="M126.405 115.823V77.8594L72.876 105.867V143.83L126.405 115.823Z" fill="#BDCDF4"/>
<path opacity="0.23" d="M126.405 115.823V77.8594L72.876 105.867V143.83L126.405 115.823Z" fill="black" fill-opacity="0.5"/>
<path d="M66.127 46.2534L66.1995 25.2363L126.332 56.8803L126.405 77.858L66.127 46.2534Z" fill="#BDCDF4"/>
<path opacity="0.2" d="M66.127 46.2534L66.1995 25.2363L126.332 56.8803L126.405 77.858L66.127 46.2534Z" fill="black" fill-opacity="0.5"/>
<path d="M72.876 105.864L77.8979 87.4775L130.94 59.7266L126.405 77.8568L72.876 105.864Z" fill="#BDCDF4"/>
<path opacity="0.3" d="M72.876 105.864L77.8979 87.4775L130.94 59.7266L126.405 77.8568L72.876 105.864Z" fill="black" fill-opacity="0.5"/>
<path d="M12.5982 74.2609L6.21191 55.1903L59.7406 27.1895L66.1269 46.2535L12.5982 74.2609Z" fill="#BDCDF4"/>
<path opacity="0.1" d="M12.5982 74.2609L6.21191 55.1903L59.7406 27.1895L66.1269 46.2535L12.5982 74.2609Z" fill="black" fill-opacity="0.5"/>
<path d="M12.5984 74.2609L0 58.498L60.285 90.1026L72.8761 105.865L12.5984 74.2609Z" fill="#BDCDF4"/>
<path opacity="0.45" d="M12.5984 74.2609L0 58.498L60.285 90.1026L72.8761 105.865L12.5984 74.2609Z" fill="black" fill-opacity="0.5"/>
<g opacity="0.7">
<path opacity="0.7" d="M88.639 132.538C88.5517 132.538 88.4679 132.507 88.4055 132.451C88.3431 132.396 88.3071 132.321 88.3052 132.242V125.56C88.307 125.481 88.3428 125.405 88.405 125.348C88.4672 125.292 88.5511 125.259 88.639 125.258C88.7263 125.26 88.8094 125.292 88.8704 125.349C88.9315 125.405 88.9657 125.481 88.9656 125.56V132.242C88.9656 132.32 88.9312 132.395 88.87 132.451C88.8087 132.506 88.7257 132.538 88.639 132.538Z" fill="white"/>
<path opacity="0.7" d="M87.6735 127.877C87.6303 127.883 87.5862 127.883 87.5429 127.877C87.4637 127.844 87.4015 127.784 87.3691 127.711C87.3367 127.637 87.3366 127.556 87.3687 127.482L88.5444 125.029L89.8507 126.397C89.8974 126.458 89.9176 126.533 89.9074 126.607C89.8971 126.681 89.8572 126.749 89.7952 126.797C89.7332 126.846 89.6535 126.873 89.5713 126.872C89.4892 126.871 89.4104 126.842 89.3499 126.792L88.7331 126.134L88.0074 127.712C87.976 127.767 87.9275 127.811 87.8681 127.84C87.8086 127.87 87.7409 127.882 87.6735 127.877Z" fill="white"/>
<path opacity="0.7" d="M91.6796 130.966C91.5924 130.965 91.5093 130.932 91.4482 130.876C91.3872 130.819 91.353 130.743 91.353 130.664V123.989C91.353 123.911 91.3874 123.836 91.4487 123.78C91.5099 123.725 91.593 123.693 91.6796 123.693C91.7663 123.693 91.8493 123.725 91.9106 123.78C91.9719 123.836 92.0063 123.911 92.0063 123.989V130.657C92.0072 130.697 91.9995 130.737 91.9837 130.774C91.9678 130.811 91.944 130.845 91.9136 130.873C91.8833 130.902 91.847 130.925 91.8069 130.941C91.7667 130.957 91.7235 130.966 91.6796 130.966Z" fill="white"/>
<path opacity="0.7" d="M90.7144 126.304C90.6711 126.31 90.627 126.31 90.5837 126.304C90.5439 126.288 90.5079 126.266 90.4779 126.237C90.4479 126.209 90.4244 126.175 90.4088 126.139C90.3933 126.102 90.386 126.063 90.3874 126.023C90.3887 125.984 90.3987 125.945 90.4168 125.91L91.5853 123.424L92.8916 124.785C92.9519 124.842 92.9857 124.917 92.9857 124.996C92.9857 125.074 92.9519 125.15 92.8916 125.206C92.8613 125.234 92.8251 125.256 92.7852 125.271C92.7454 125.286 92.7026 125.294 92.6594 125.294C92.6162 125.294 92.5734 125.286 92.5336 125.271C92.4937 125.256 92.4575 125.234 92.4272 125.206L91.8103 124.548L91.0845 126.127C91.0544 126.19 91.0013 126.242 90.934 126.275C90.8667 126.307 90.7892 126.317 90.7144 126.304Z" fill="white"/>
</g>
<g opacity="0.7">
<path opacity="0.7" d="M79.865 137.068C79.741 137.07 79.6186 137.043 79.5094 136.989C79.3782 136.913 79.272 136.806 79.2018 136.68C79.1316 136.554 79.1 136.413 79.1103 136.272V135.45C79.1122 135.371 79.1482 135.296 79.2106 135.241C79.273 135.185 79.3568 135.154 79.4441 135.154C79.5307 135.154 79.6138 135.186 79.675 135.241C79.7363 135.297 79.7707 135.372 79.7707 135.45V136.272C79.7707 136.391 79.7707 136.457 79.836 136.47C79.9013 136.483 79.9376 136.47 80.0464 136.417C80.2507 136.246 80.4116 136.037 80.5181 135.804C80.6246 135.572 80.6741 135.321 80.6633 135.069V131.649C80.6633 131.571 80.6977 131.496 80.7589 131.44C80.8202 131.385 80.9032 131.354 80.9898 131.354C81.0765 131.354 81.1595 131.385 81.2208 131.44C81.282 131.496 81.3164 131.571 81.3164 131.649V135.069C81.3326 135.424 81.2563 135.778 81.0937 136.101C80.9311 136.424 80.6866 136.708 80.3803 136.93C80.2252 137.017 80.0473 137.064 79.865 137.068Z" fill="white"/>
<path opacity="0.7" d="M76.4033 134.314V133.801C76.4896 132.484 76.9144 131.204 77.644 130.062C78.3735 128.92 79.3876 127.949 80.6051 127.225C81.7953 126.607 82.9274 126.515 83.7983 126.975C84.2627 127.264 84.6331 127.66 84.8705 128.123C85.108 128.586 85.2038 129.098 85.1481 129.606V129.777L76.4033 134.314ZM82.5791 127.251C81.998 127.276 81.4334 127.434 80.939 127.712C79.8956 128.334 79.0122 129.152 78.3485 130.111C77.6849 131.07 77.2566 132.146 77.0927 133.268L84.4732 129.402C84.5047 129.021 84.427 128.639 84.2477 128.293C84.0684 127.948 83.7936 127.65 83.4499 127.429C83.1818 127.302 82.8815 127.24 82.5791 127.251Z" fill="white"/>
</g>
<path opacity="0.7" d="M0 58.498L60.285 90.1026L72.8761 105.865L59.6173 90.6615L0 58.498Z" fill="white"/>
<path opacity="0.7" d="M126.405 77.8594L72.876 105.867V143.83L73.8775 106.63L126.405 77.8594Z" fill="white"/>
<path d="M47.8537 62.6734C53.3764 61.95 58.4201 58.7277 61.6423 54.6769C63.145 52.7842 64.2518 50.6578 64.908 48.4033C65.6049 46.2951 65.7195 44.064 65.2419 41.9062C64.2476 38.2959 60.561 36.1587 56.6639 35.7115C54.6864 35.4758 52.6756 35.6535 50.7856 36.231C48.8259 36.8405 47.1257 37.9902 45.9233 39.5191C45.1694 40.3336 44.6951 41.3303 44.559 42.3862C44.5474 42.7998 44.7083 43.2021 45.0096 43.513C45.3109 43.8238 45.7305 44.0202 46.1846 44.0631C47.3531 44.1523 48.5209 43.8837 49.5011 43.3003C50.6963 42.693 51.7489 41.8798 52.5999 40.9066C54.4253 38.8653 55.7912 36.5194 56.6204 34.0017C57.2022 31.8414 57.2022 29.586 56.6204 27.4257C56.1784 25.1658 55.0385 23.0658 53.3329 21.3691C51.3775 19.7578 48.8962 18.7675 46.2644 18.548C43.6451 18.2219 40.9781 18.4469 38.4702 19.2056C37.3687 19.5082 36.3482 20.0143 35.473 20.6918C34.8489 21.2179 34.1377 22.0859 34.3917 22.9408C34.6457 23.7957 36.0246 24.1771 36.9607 24.0653C38.3463 23.83 39.6154 23.2067 40.5893 22.2832C41.6747 21.315 42.5966 20.2071 43.3253 18.9952C43.8667 18.1242 44.1492 17.1408 44.1453 16.1412C44.051 11.9719 38.9637 9.27575 34.9795 8.51293C33.904 8.30933 32.8024 8.24293 31.7066 8.31565C31.3365 8.31565 31.5614 8.86804 31.859 8.84831C34.0029 8.76003 36.1336 9.19614 38.0275 10.1109C39.8961 10.8891 41.4654 12.1555 42.5342 13.7475C43.0105 14.5324 43.2457 15.4187 43.215 16.314C43.1844 17.2093 42.8891 18.0807 42.3601 18.8374C41.6495 19.9589 40.7647 20.982 39.733 21.8755C38.8694 22.5857 37.5558 23.4077 36.3439 23.3288C36.1438 23.3284 35.9479 23.277 35.7785 23.1805C35.6091 23.084 35.4731 22.9462 35.3859 22.783C35.3494 22.5671 35.369 22.3464 35.4434 22.1386C35.5177 21.9307 35.6447 21.7416 35.8141 21.5861C36.455 20.9608 37.2475 20.479 38.1291 20.1789C40.3063 19.3588 42.6638 19.0076 45.0162 19.153C47.4404 19.1928 49.798 19.879 51.7944 21.1258C53.5335 22.4343 54.7686 24.2098 55.3213 26.196C56.0215 28.2136 56.2392 30.3433 55.96 32.4432C55.529 34.5562 54.6331 36.569 53.3256 38.3617C51.983 40.374 50.2994 42.3073 47.7739 43.0965C47.1498 43.3003 45.8435 43.5962 45.5968 42.7742C45.35 41.9522 46.0612 40.9395 46.5184 40.3016C47.5294 38.8598 49.0034 37.733 50.7421 37.0728C52.4199 36.4634 54.231 36.2158 56.0325 36.3494C59.4506 36.5796 62.9196 38.1973 64.1097 41.2749C64.7068 43.1142 64.7717 45.0617 64.2984 46.9303C63.8715 48.9785 63.0589 50.9449 61.8963 52.7435C59.3955 56.5651 55.608 59.5591 51.0904 61.2859C50.0164 61.7067 48.9133 62.0618 47.7884 62.3906C47.6723 62.4301 47.7231 62.6931 47.8537 62.6734Z" fill="#E0E0E0"/>
<path d="M24.7831 5.5795C21.8803 5.3888 17.8816 7.46026 19.304 8.97276C20.7264 10.4853 24.5001 8.03895 24.5001 8.03895C24.5001 8.03895 24.1445 11.0968 25.3782 11.4454C26.6119 11.7939 28.281 8.87411 27.0473 7.00651C27.6423 7.21906 28.2869 7.29192 28.9212 7.21834C29.5556 7.14476 30.1591 6.92713 30.6758 6.58564C32.4321 5.4151 30.5742 4.31032 28.0996 4.5076C28.0996 4.5076 29.8703 -0.753248 26.2926 0.25289C24.5001 0.746094 23.8687 2.64658 24.7831 5.5795Z" fill="#5277D7"/>
<path opacity="0.65" d="M24.7831 5.5795C21.8803 5.3888 17.8816 7.46026 19.304 8.97276C20.7264 10.4853 24.5001 8.03895 24.5001 8.03895C24.5001 8.03895 24.1445 11.0968 25.3782 11.4454C26.6119 11.7939 28.281 8.87411 27.0473 7.00651C27.6423 7.21906 28.2869 7.29192 28.9212 7.21834C29.5556 7.14476 30.1591 6.92713 30.6758 6.58564C32.4321 5.4151 30.5742 4.31032 28.0996 4.5076C28.0996 4.5076 29.8703 -0.753248 26.2926 0.25289C24.5001 0.746094 23.8687 2.64658 24.7831 5.5795Z" fill="white"/>
<path d="M27.4826 6.69554C27.322 6.55303 27.1524 6.4191 26.9746 6.29441C26.7206 6.11686 26.4521 5.94589 26.1981 5.77491C25.9508 5.61197 25.6913 5.46475 25.4216 5.33431C25.2663 5.25624 25.1064 5.18599 24.9426 5.12389C24.7164 5.02765 24.4649 4.99118 24.2169 5.01867C24.1519 5.02033 24.0886 5.03778 24.0336 5.06921C23.9786 5.10063 23.9339 5.14488 23.9042 5.19731C23.8746 5.24973 23.861 5.30841 23.8649 5.36722C23.8689 5.42603 23.8902 5.4828 23.9266 5.53159C24.1261 5.72743 24.3752 5.87638 24.6523 5.96561L25.0442 6.15631C25.3127 6.30098 25.5522 6.46538 25.7699 6.62978C25.9876 6.79418 26.2779 6.95201 26.4956 7.11641C26.87 7.39152 27.2885 7.61327 27.7366 7.774C27.7567 7.78379 27.7791 7.78892 27.8019 7.78892C27.8247 7.78892 27.8472 7.78379 27.8672 7.774C28.2374 7.51097 27.6931 6.88625 27.4826 6.69554Z" fill="#455A64"/>
</svg>
