<svg viewBox="0 0 115 121" fill="none" xmlns="http://www.w3.org/2000/svg">
<path d="M53.2302 109C81.2204 109 103.911 86.2541 103.911 58.1954C103.911 30.1367 81.2204 7.39062 53.2302 7.39062C25.2399 7.39062 2.54932 30.1367 2.54932 58.1954C2.54932 86.2541 25.2399 109 53.2302 109Z" fill="#E2EBFF"/>
<path d="M112.139 45.553C113.719 44.1058 113.83 41.6488 112.386 40.0651C110.942 38.4814 108.491 38.3708 106.911 39.818C105.331 41.2653 105.221 43.7223 106.665 45.306C108.109 46.8897 110.56 47.0003 112.139 45.553Z" fill="#E2EBFF"/>
<path d="M23.9438 12.4751C25.2828 12.0388 26.0154 10.597 25.5802 9.25479C25.145 7.91255 23.7068 7.1781 22.3678 7.61437C21.0288 8.05063 20.2962 9.4924 20.7314 10.8346C21.1666 12.1769 22.6048 12.9113 23.9438 12.4751Z" fill="#E2EBFF"/>
<path d="M29.5089 4.13629C30.4194 3.83963 30.9176 2.85923 30.6216 1.9465C30.3257 1.03377 29.3477 0.534353 28.4372 0.831014C27.5267 1.12767 27.0285 2.10808 27.3244 3.0208C27.6204 3.93353 28.5984 4.43295 29.5089 4.13629Z" fill="#F34D77"/>
<path d="M112.432 28.1385C113.097 27.5292 113.144 26.4946 112.536 25.8278C111.928 25.161 110.896 25.1144 110.231 25.7238C109.566 26.3332 109.519 27.3677 110.127 28.0345C110.735 28.7013 111.767 28.7479 112.432 28.1385Z" fill="#F34D77"/>
<path d="M0.407715 23.0311C0.407715 21.2934 0.407715 19.6578 1.6314 19.1467C2.95705 18.6356 3.67087 19.8622 4.58863 21.4978C5.50639 23.0311 5.0985 24.5645 3.77284 25.0756C2.65113 25.5867 0.407715 25.28 0.407715 23.0311Z" fill="#E2EBFF"/>
<path d="M1.12179 14.6486C0.917838 16.7953 0.611918 17.9198 1.93757 18.4309C3.26323 18.942 3.97704 17.8175 5.20073 16.182C6.22046 14.7508 5.50665 13.0131 4.18099 12.5019C2.85533 11.9908 1.32573 12.9108 1.12179 14.6486Z" fill="#E2EBFF"/>
<path d="M0 18.6354C0 17.8176 0.611841 17.2043 1.32566 17.1021C1.63158 16.9998 2.03947 16.9998 2.44736 17.1021C4.07894 17.2043 5.4046 18.1243 5.30262 19.1465C5.20065 20.1687 3.87499 20.8843 2.24342 20.6799C1.9375 20.6799 1.63158 20.5776 1.32566 20.4754C0.509867 20.271 0 19.4532 0 18.6354Z" fill="#182052"/>
<path d="M6.83252 18.9414C17.3358 18.9414 36.7108 25.0748 37.0167 47.4616" stroke="#C0D6FF" stroke-miterlimit="10" stroke-dasharray="4 4"/>
<g opacity="0.3">
<path opacity="0.3" d="M91.1158 43.1698C89.3819 43.1698 85.2205 41.611 83.8334 41.0914C76.551 37.8007 64.587 28.1016 57.9981 28.1016C51.4093 28.1016 39.4453 37.8007 32.1629 41.0914C30.9491 41.611 26.6144 43.1698 24.8805 43.1698C22.1062 43.343 20.0255 45.7678 20.3723 48.3658C21.0658 54.7741 22.7998 66.2052 27.3079 80.927C33.0298 99.1128 49.1552 110.024 55.3973 113.661C56.9578 114.527 58.6917 114.527 60.2522 113.661C66.4943 110.024 82.793 99.1128 88.3416 80.927C92.8497 66.2052 94.5836 54.7741 95.2772 48.3658C95.9708 45.5946 93.8901 43.343 91.1158 43.1698Z" fill="#84A2FF"/>
</g>
<path d="M86.7813 36.0682C85.0474 36.0682 80.886 34.5095 79.4989 33.9899C72.2165 30.6991 60.2525 21 53.6637 21C47.0748 21 35.1108 30.5259 27.8284 33.9899C26.6147 34.5095 22.2799 36.0682 20.546 36.0682C17.7717 36.2414 15.691 38.6662 16.0378 41.2642C16.7314 47.6725 18.4653 59.1036 22.9735 73.8255C28.8687 92.0113 45.1675 102.923 51.4096 106.56C52.9701 107.426 54.704 107.426 56.2645 106.56C62.5066 102.923 78.8054 92.0113 84.3539 73.8255C88.862 59.1036 90.5959 47.6725 91.2895 41.2642C91.6363 38.493 89.5556 36.0682 86.7813 36.0682Z" fill="#C0D6FF"/>
<path d="M20.7193 36.0682C17.9451 36.2414 15.8644 38.6662 16.2112 41.2642C16.9047 47.6725 18.6386 59.1036 23.1468 73.8255C28.8687 92.0113 45.1674 102.923 51.4095 106.56C52.97 107.426 54.7039 107.426 56.2645 106.56C62.5065 102.923 78.8053 92.0113 84.3538 73.8255C88.862 59.1036 90.5959 47.6725 91.2894 41.2642C91.6362 38.493 89.5555 36.0682 86.7813 36.0682C85.0474 36.0682 80.886 34.5095 79.4989 33.9899C72.2164 30.6991 60.2525 21 53.6636 21C50.716 21 46.9014 22.732 42.9134 25.1568" stroke="#182052" stroke-miterlimit="10" stroke-linecap="round" stroke-linejoin="round"/>
<path d="M34.0707 30.5254C31.8166 31.911 29.7359 33.1234 27.8286 33.9894" stroke="#182052" stroke-miterlimit="10" stroke-linecap="round" stroke-linejoin="round"/>
<path d="M81.9263 44.2087C81.4062 48.3654 80.3658 54.7738 78.2851 62.7409C77.9383 64.1265 77.5916 65.6853 77.0714 67.0708C76.7246 68.4564 76.3778 69.6688 75.8576 71.0544C71.5229 84.9103 59.5589 93.5702 53.6636 97.0341C53.6636 97.0341 53.6636 97.0341 53.4902 97.0341C53.4902 97.0341 53.4902 97.0341 53.3168 97.0341C52.7966 96.6877 52.2765 96.3413 51.5829 95.9949C45.3408 91.8382 35.2842 83.6979 31.4696 71.2276C30.6026 68.2832 29.7357 65.5121 29.0421 62.7409C26.9614 54.7738 25.9211 48.3654 25.4009 44.2087C28.3485 43.6891 31.643 42.3035 32.3365 41.9571C34.9374 40.7447 38.0584 38.8395 41.1795 36.9344C44.6473 34.856 50.716 31.0456 53.1434 30.6992C53.1434 30.6992 53.1434 30.6992 53.3168 30.6992C53.3168 30.6992 53.3168 30.6992 53.4902 30.6992C55.7443 30.6992 62.1598 34.6828 65.801 36.9344C68.922 38.8395 72.0431 40.7447 74.6439 41.9571C75.6843 42.3035 78.9787 43.6891 81.9263 44.2087Z" fill="white"/>
<path d="M53.4907 30.6992V62.5677H29.2159C27.1352 54.6006 26.0949 48.1922 25.5747 44.0355C28.5224 43.5159 31.8168 42.1303 32.5103 41.7839C35.1112 40.5715 38.2323 38.6663 41.3533 36.7612C44.9945 34.856 51.0632 31.0456 53.4907 30.6992Z" fill="#C0D6FF"/>
<path d="M78.2856 62.7412C77.9388 64.1268 77.5921 65.6856 77.0719 67.0712C76.7251 68.4568 76.3783 69.6691 75.8582 71.0547C71.5234 84.9106 59.5594 93.5705 53.6641 97.0345C53.6641 97.0345 53.6641 97.0345 53.4907 97.0345V62.7412H78.2856Z" fill="#C0D6FF"/>
<path d="M75.5117 72.6133C70.8301 85.6031 59.3863 93.7435 53.8378 97.2074C53.8378 97.2074 53.8378 97.2074 53.6644 97.2074C53.6644 97.2074 53.6644 97.2074 53.491 97.2074C52.9708 96.861 52.4507 96.5146 51.7571 96.1682C50.5434 95.3023 48.9828 94.2631 47.5957 93.0507" stroke="#182052" stroke-miterlimit="10" stroke-linecap="round" stroke-linejoin="round"/>
<path d="M59.0391 32.7773C61.4665 34.1629 64.2408 35.7217 66.1481 36.9341C69.2691 38.8393 72.3902 40.7445 74.991 41.9568C75.6846 42.3032 79.1524 43.6888 81.9267 44.2084C81.5799 47.6724 80.7129 52.6951 79.3258 58.9303" stroke="#182052" stroke-miterlimit="10" stroke-linecap="round" stroke-linejoin="round"/>
<path d="M27.3086 54.0807C26.4416 50.0972 25.9214 46.6332 25.748 44.2084C28.6957 43.6888 31.9901 42.3032 32.6837 41.9568C34.7644 40.9177 37.1919 39.5321 39.6193 38.1465" stroke="#182052" stroke-miterlimit="10" stroke-linecap="round" stroke-linejoin="round"/>
<path d="M40.6747 58.9289C42.4769 58.9289 43.9378 57.4642 43.9378 55.6576C43.9378 53.851 42.4769 52.3867 40.6747 52.3867C38.8725 52.3867 37.4116 53.851 37.4116 55.6576C37.4116 57.4642 38.8725 58.9289 40.6747 58.9289Z" fill="#182052"/>
<path d="M66.372 58.8263C68.1742 58.8263 69.6351 57.3621 69.6351 55.5555C69.6351 53.7489 68.1742 52.2842 66.372 52.2842C64.5698 52.2842 63.1089 53.7489 63.1089 55.5555C63.1089 57.3621 64.5698 58.8263 66.372 58.8263Z" fill="#182052"/>
<path d="M56.6676 62.4238H50.4473V63.9572H56.6676V62.4238Z" fill="#182052"/>
<g filter="url(#filter0_d_4666:115427)">
<path d="M96.1802 91.9163C95.7723 93.6541 95.1604 95.3919 94.4466 96.9253C92.5091 100.605 89.5519 103.57 85.8808 105.41C82.1078 107.352 77.621 108.068 73.0322 107.148C62.4269 104.899 55.5947 94.5741 57.8381 83.9429C60.0815 73.3118 70.3809 66.4628 80.9861 68.7117C84.7591 69.5295 88.1243 71.3695 90.8775 74.0273C95.5683 78.7296 97.5058 85.4763 96.1802 91.9163Z" fill="url(#paint0_linear_4666:115427)"/>
</g>
<path d="M83.5861 86.5199H79.0991V82.0222C79.0991 81.1022 78.3853 80.2842 77.3656 80.2842C76.4478 80.2842 75.6321 80.9999 75.6321 82.0222V86.5199H71.1451C70.2274 86.5199 69.4116 87.2356 69.4116 88.2579C69.4116 89.2801 70.1254 89.9954 71.1451 89.9954H75.6321V94.4936C75.6321 95.4136 76.3459 96.2311 77.3656 96.2311C78.2834 96.2311 79.0991 95.5158 79.0991 94.4936V89.9954H83.5861C84.5038 89.9954 85.3196 89.2801 85.3196 88.2579C85.3196 87.2356 84.5038 86.5199 83.5861 86.5199Z" fill="white"/>
<path d="M69.9829 68.4821C73.45 67.2555 77.223 66.9488 80.996 67.6644C84.871 68.4821 88.4401 70.4244 91.1934 73.1844C96.0881 77.9889 98.1276 85.0423 96.6999 91.789C96.292 93.629 95.6802 95.3668 94.8644 97.0023C92.9269 100.887 89.7657 103.953 85.9927 105.896C82.0157 107.94 77.325 108.656 72.6342 107.634C61.621 105.385 54.5849 94.549 56.8283 83.5089C57.6441 79.5222 59.5816 76.0466 62.2329 73.2866" stroke="#182052" stroke-miterlimit="10" stroke-linecap="round" stroke-linejoin="round"/>
<path d="M64.7822 71.3448C64.9862 71.2425 65.0881 71.1403 65.2921 71.0381" stroke="#182052" stroke-miterlimit="10" stroke-linecap="round" stroke-linejoin="round"/>
<defs>
<filter id="filter0_d_4666:115427" x="49.4116" y="65.2842" width="55.1768" height="55.2607" filterUnits="userSpaceOnUse" color-interpolation-filters="sRGB">
<feFlood flood-opacity="0" result="BackgroundImageFix"/>
<feColorMatrix in="SourceAlpha" type="matrix" values="0 0 0 0 0 0 0 0 0 0 0 0 0 0 0 0 0 0 127 0" result="hardAlpha"/>
<feOffset dy="5"/>
<feGaussianBlur stdDeviation="4"/>
<feColorMatrix type="matrix" values="0 0 0 0 0.1125 0 0 0 0 0.295916 0 0 0 0 1 0 0 0 0.22 0"/>
<feBlend mode="normal" in2="BackgroundImageFix" result="effect1_dropShadow_4666:115427"/>
<feBlend mode="normal" in="SourceGraphic" in2="effect1_dropShadow_4666:115427" result="shape"/>
</filter>
<linearGradient id="paint0_linear_4666:115427" x1="57.4228" y1="87.9335" x2="96.6075" y2="87.9335" gradientUnits="userSpaceOnUse">
<stop stop-color="#83A6FF"/>
<stop offset="1" stop-color="#5277D7"/>
</linearGradient>
</defs>
</svg>
