<svg width="121" height="117" fill="none" xmlns="http://www.w3.org/2000/svg"><path d="M59.414 110c26.703 0 48.349-21.604 48.349-48.255 0-26.65-21.646-48.255-48.349-48.255-26.702 0-48.349 21.605-48.349 48.255 0 26.65 21.647 48.255 48.35 48.255Z" fill="#EAEEF9"/><path d="M32.078 40.87h53.408c2.043 0 3.794 1.65 3.794 3.787V78.25a3.795 3.795 0 0 1-3.794 3.786H32.078c-2.043 0-3.794-1.65-3.794-3.786V44.657c0-2.04 1.751-3.787 3.794-3.787Z" fill="#C0D6FF"/><path d="M82.47 40.87h3.016c2.043 0 3.794 1.65 3.794 3.787V78.25a3.795 3.795 0 0 1-3.794 3.786H32.078c-2.043 0-3.794-1.65-3.794-3.786V44.657a3.795 3.795 0 0 1 3.794-3.787H73.52" stroke="#6F7590" stroke-miterlimit="10" stroke-linecap="round" stroke-linejoin="round"/><path d="M115.678 49.689a3.685 3.685 0 0 0 .235-5.213 3.702 3.702 0 0 0-5.223-.234 3.685 3.685 0 0 0-.235 5.212 3.702 3.702 0 0 0 5.223.235Zm.273-16.403a1.552 1.552 0 0 0 .099-2.195 1.559 1.559 0 0 0-2.199-.099 1.55 1.55 0 0 0-.099 2.195 1.56 1.56 0 0 0 2.199.099ZM76.682 10.582a1.067 1.067 0 0 0 .069-1.509 1.072 1.072 0 0 0-1.512-.068 1.067 1.067 0 0 0-.068 1.509 1.072 1.072 0 0 0 1.511.068Z" fill="#E2EBFF"/><path d="M108.655 23.18 95.327 46.774c-.486.776-1.459 1.068-2.237.582L70.326 34.152c-.778-.486-1.07-1.457-.584-2.233L87.253 1.82c.487-.777 1.46-1.068 2.238-.583l16.537 9.612 2.627 12.331Z" fill="#fff"/><path d="m85.988 3.762 1.168-1.942c.486-.777 1.459-1.068 2.237-.583l16.538 9.612 2.724 12.428-13.328 23.594c-.486.777-1.459 1.068-2.237.582L70.326 34.25c-.778-.486-1.07-1.456-.584-2.233l12.744-22.04" stroke="#6F7590" stroke-miterlimit="10" stroke-linecap="round" stroke-linejoin="round"/><path d="m103.694 14.54-1.557 2.62c-.486.971-.194 2.04.681 2.622l5.74 3.301" stroke="#6F7590" stroke-miterlimit="10" stroke-linecap="round" stroke-linejoin="round"/><path d="M90.27 16.966c.389-.097.778-.097 1.07-.097h1.167c.389.097.875.194 1.264.291.487.194.876.389 1.265.583.584.291 1.07.68 1.46 1.165.388.389.68.874.875 1.457.195.485.195 1.067.195 1.553a4.774 4.774 0 0 1-.584 1.65 6.233 6.233 0 0 1-.973 1.262c-.39.292-.681.486-1.167.68-.39.194-.779.291-1.168.291l-1.07.098c-.292 0-.584.097-.973.194-.292.097-.486.194-.68.388l-1.07 1.36-1.752-.972.778-1.747c.098-.291.39-.583.584-.777.292-.194.584-.291.876-.388.389-.097.68-.097 1.07-.194.389 0 .778-.098 1.167-.195.39-.097.681-.194 1.07-.388.39-.194.584-.485.778-.874.098-.194.195-.485.292-.777 0-.29 0-.485-.097-.679-.097-.291-.195-.486-.39-.68-.194-.194-.388-.388-.68-.583a3.602 3.602 0 0 0-1.07-.485c-.292-.097-.584-.097-.876-.097h-.68c-.098 0-.292 0-.39-.097-.194-.097-.389-.388-.389-.582l.097-1.36Zm-5.157 13.205c.098-.195.292-.388.487-.583.194-.097.39-.291.584-.291.486-.097.972-.097 1.362.194.194.097.389.291.583.486l.292.582c.292.971-.292 1.942-1.265 2.233-.486.097-.973 0-1.362-.194-.194-.097-.389-.291-.583-.486-.097-.194-.292-.388-.292-.582a.828.828 0 0 1 0-.68c0-.29.097-.485.194-.68Z" fill="#C0D6FF"/><path d="m23.145 12.889 15.273 15.826c.486.582.486 1.359-.098 1.942l-15.565 14.66c-.583.486-1.361.486-1.945-.096L1.45 24.734c-.486-.582-.485-1.359.098-1.942L12.833 12.21l10.312.68Z" fill="#fff"/><path d="M27.522 17.452 38.32 28.715c.487.582.487 1.359-.097 1.942l-15.565 14.66c-.584.486-1.362.486-1.945-.096L1.353 24.734c-.486-.582-.486-1.359.098-1.942L12.736 12.21l10.311.777.876.874" stroke="#6F7590" stroke-miterlimit="10" stroke-linecap="round" stroke-linejoin="round"/><path d="m15.534 15 1.482 1.481c.583.583 1.556.583 2.237 0L23 13" stroke="#6F7590" stroke-miterlimit="10" stroke-linecap="round" stroke-linejoin="round"/><path d="M14 25.706c0-.292.098-.583.195-.875l.291-.873c.098-.292.292-.583.487-.874.194-.291.486-.582.778-.874.39-.388.778-.68 1.265-.873a3 3 0 0 1 1.265-.292c.389 0 .875.097 1.264.194.39.194.778.486 1.168.777.291.291.583.68.68 1.068.098.291.195.68.292 1.068v.971c-.097.291-.097.582-.194.874 0 .291-.098.485-.098.776 0 .195 0 .389.195.583l.778 1.165L21.2 29.59l-1.167-1.068c-.195-.194-.39-.388-.487-.68-.097-.29-.097-.485-.097-.776 0-.291.097-.583.097-.874.097-.291.097-.583.097-.874 0-.291 0-.583-.097-.874-.097-.291-.292-.582-.486-.874-.098-.194-.292-.29-.487-.388-.194-.097-.389-.097-.583-.097-.195 0-.39.097-.584.194-.195.097-.39.194-.584.389-.194.194-.389.485-.584.679a4.73 4.73 0 0 0-.291.68c-.098.194-.098.388-.098.485 0 .097-.097.194-.194.291-.097.195-.39.195-.584.098L14 25.706Zm9.145 6.99c-.098-.097-.195-.291-.292-.485-.098-.195-.098-.389-.098-.583 0-.388.195-.776.487-1.068.097-.097.292-.194.486-.291.195-.097.39-.097.584-.097.584 0 1.167.388 1.362.97.097.195.097.389.097.583 0 .194-.097.389-.097.583-.098.194-.195.291-.39.485-.096.097-.291.291-.486.291-.389.097-.778.097-1.07 0-.292-.097-.486-.194-.583-.388Z" fill="#C0D6FF"/><path d="M62.836 37.842 56.9 58.91c-.194.68-.972 1.165-1.653.873l-20.527-6.02c-.68-.193-1.167-.97-.875-1.65l7.977-27.089c.194-.68.972-1.165 1.654-.873L58.36 28.52l4.475 9.32Z" fill="#fff"/><path d="m39.78 32.113 2.042-6.893c.195-.68.973-1.165 1.654-.874l14.884 4.37 4.572 9.223-5.934 21.07c-.194.679-.972 1.164-1.654.873l-20.526-6.02c-.68-.194-1.167-.97-.875-1.65l3.89-13.302" stroke="#6F7590" stroke-miterlimit="10" stroke-linecap="round" stroke-linejoin="round"/><path d="m57.29 32.113-.68 2.33c-.195.778.291 1.651 1.07 1.943l5.156 1.553" stroke="#6F7590" stroke-miterlimit="10" stroke-linecap="round" stroke-linejoin="round"/><path d="m47.173 36.483.876-.292c.292-.097.583-.194.973-.194h1.07c.389 0 .778.097 1.167.194.486.097.973.389 1.362.68.39.292.681.583.973.971.194.389.39.777.486 1.165.098.486 0 .97-.097 1.36-.097.388-.292.776-.584 1.165a2.956 2.956 0 0 1-.778.776c-.292.194-.584.389-.876.486l-.875.291c-.194.097-.486.194-.68.291-.195.097-.39.291-.39.486l-.584 1.262-1.556-.485.292-1.554c0-.291.194-.486.389-.68.194-.194.389-.388.68-.485.292-.097.584-.194.779-.291.292-.097.584-.194.876-.389.291-.097.486-.29.778-.485a1.88 1.88 0 0 0 .486-.874c.097-.194.097-.388.097-.582 0-.195-.097-.389-.194-.583-.097-.194-.292-.291-.487-.486a4.747 4.747 0 0 0-.68-.291c-.292-.097-.584-.097-.973-.097-.195 0-.487 0-.681.097-.195 0-.39.097-.487.097-.097 0-.194.097-.389 0-.194 0-.389-.194-.389-.388l-.584-1.166ZM45.714 47.94c.097-.194.097-.389.292-.486.097-.194.292-.29.389-.388.39-.194.778-.194 1.07-.097.195.097.39.194.487.29l.389.39c.389.679.097 1.553-.584 1.941a1.412 1.412 0 0 1-1.07.097c-.195-.097-.39-.097-.486-.29-.195-.098-.292-.292-.39-.39-.097-.193-.097-.29-.194-.485 0-.194 0-.388.097-.582Z" fill="#C0D6FF"/><path d="m111.062 73.898-19.317 10.4c-.625.333-1.515.113-1.778-.578L80.07 64.817c-.332-.624-.11-1.512.583-1.776L105.73 49.92c.625-.334 1.515-.114 1.778.577l7.173 13.71-3.619 9.692Z" fill="#fff"/><path d="m111.062 73.898-19.317 10.4c-.625.333-1.515.113-1.778-.578L80.07 64.817c-.332-.624-.11-1.512.583-1.776L105.73 49.92c.625-.334 1.515-.114 1.778.577l7.173 13.71-3.619 9.692Z" stroke="#6F7590" stroke-miterlimit="10" stroke-linecap="round" stroke-linejoin="round"/><path d="m111.217 65.947-2.014.997c-.696.401-.989 1.358-.659 2.118l2.457 4.778" stroke="#6F7590" stroke-miterlimit="10" stroke-linecap="round" stroke-linejoin="round"/><path d="m101.111 61.655.817.425c.273.142.545.283.815.562l.743.767c.269.28.469.626.669.972.267.416.395.967.455 1.449a4.61 4.61 0 0 1-.026 1.372c-.145.41-.29.82-.503 1.16-.283.407-.7.675-1.048.875-.347.2-.763.331-1.245.392a2.966 2.966 0 0 1-1.1-.018c-.343-.074-.685-.148-.957-.29l-.818-.425c-.205-.072-.477-.213-.682-.285-.205-.072-.48-.077-.62.058l-1.316.46-.729-1.454 1.323-.871c.21-.203.485-.198.76-.194.275.005.55.01.822.151.273.142.545.283.75.355.273.142.545.284.888.358.272.141.547.146.89.22.275.004.62-.059.967-.259.348-.2.698-.538.706-.95.072-.205.008-.412.013-.686a4.667 4.667 0 0 0-.263-.69c-.132-.277-.334-.487-.604-.766-.135-.14-.338-.348-.543-.42-.135-.14-.34-.212-.407-.282-.068-.07-.205-.071-.27-.278-.135-.14-.13-.414.01-.55l.503-1.158Zm-9.206 6.854c.208-.065.348-.2.553-.128.207-.066.413.006.55.008.41.144.68.423.812.7.065.207.13.414.128.551l-.01.55c-.076.341-.426.679-.704.812-.207.065-.414.13-.552.128l-.55-.009a1.402 1.402 0 0 1-.812-.7c-.065-.206-.2-.346-.128-.55-.065-.207.008-.412.01-.55.073-.204.143-.272.216-.477.14-.135.347-.2.487-.335Z" fill="#C0D6FF"/><path d="m62.543 11.626-.583-.097c-.292 0-.487-.194-.584-.485-.097-.194-.097-.389-.195-.486-.097-.194-.097-.486.098-.68l.292-.485c.194-.291.194-.68-.098-.874l-.973-.97c-.291-.292-.68-.292-.875-.098l-.486.292c-.195.194-.487.193-.779.096-.194-.097-.389-.194-.486-.194-.292-.097-.39-.291-.486-.582l-.098-.583c-.097-.388-.389-.583-.68-.583h-1.363c-.389 0-.68.292-.68.583l-.098.583c0 .291-.194.485-.486.582-.195.098-.39.097-.487.194-.194.097-.486.098-.68-.096l-.487-.292c-.292-.194-.681-.194-.876.097l-.973.971c-.291.291-.291.68-.097.874l.292.485c.195.194.195.486.097.68-.097.194-.194.389-.194.486-.098.29-.292.388-.584.485l-.584.097c-.389.097-.583.388-.583.68v1.359c0 .388.292.68.583.68l.584.097c.292 0 .486.194.584.485.097.194.097.389.194.486.098.194.098.485-.097.776l-.292.486a.746.746 0 0 0 .097.97l.973.972c.292.291.681.291.876.097l.486-.291c.195-.194.487-.194.681-.097.195.097.39.194.487.194.292.097.389.29.486.582l.097.583c.098.388.39.582.681.582h1.362c.39 0 .681-.29.681-.582l.098-.583c0-.291.194-.485.486-.582.194-.098.389-.097.486-.194.195-.098.487-.097.779.097l.486.29c.292.195.68.195.875-.096l.973-.971a.746.746 0 0 0 .098-.971l-.292-.486c-.195-.194-.195-.485-.098-.776.098-.194.195-.389.195-.486.097-.29.292-.388.584-.485l.583-.097c.39-.097.584-.389.584-.68v-1.36c0-.388-.194-.679-.584-.679Zm-6.42 3.69a2.406 2.406 0 0 1-2.432-2.428 2.406 2.406 0 0 1 2.432-2.427 2.406 2.406 0 0 1 2.432 2.427c-.097 1.36-1.168 2.428-2.432 2.428ZM14.778 64.154l-.389-.097c-.194 0-.292-.194-.389-.291 0-.098-.097-.292-.194-.389-.098-.194-.098-.388.097-.485l.194-.291a.828.828 0 0 0 0-.68l-.68-.68a.47.47 0 0 0-.681 0l-.292.194c-.195.097-.39.097-.487 0-.097-.097-.292-.097-.39-.194-.194-.097-.29-.194-.29-.388l-.098-.389c0-.194-.195-.388-.486-.388h-.876c-.292 0-.486.194-.486.388l-.098.389c0 .194-.194.29-.292.388-.097 0-.291.097-.389.194-.194.097-.389.097-.486 0l-.292-.194c-.195-.194-.486-.097-.68 0l-.682.68a.469.469 0 0 0 0 .68l.195.29c.097.195.097.292 0 .486-.098.097-.098.291-.195.389-.097.194-.195.291-.39.291l-.388.097c-.195 0-.39.194-.39.485v.874c0 .292.195.486.39.486l.389.097c.194 0 .292.194.39.291 0 .097.096.291.194.388.097.195.097.389 0 .486l-.195.291a.828.828 0 0 0 0 .68l.681.68a.47.47 0 0 0 .681 0l.292-.195c.097-.097.292-.097.486-.097.098.097.292.097.39.194.194.098.291.195.291.389l.098.388c0 .194.194.388.486.388h.876c.291 0 .486-.194.486-.388l.097-.388c0-.194.195-.291.292-.389.097 0 .292-.097.39-.194.194-.097.388-.097.486.097l.291.195a.832.832 0 0 0 .681 0l.681-.68a.469.469 0 0 0 0-.68l-.194-.291c-.098-.194-.098-.388-.098-.486.098-.097.098-.29.195-.388.097-.194.195-.291.39-.291l.388-.097c.195 0 .39-.194.39-.486v-.874c.097-.291-.098-.485-.39-.485Zm-4.475 2.621c-.875 0-1.654-.776-1.654-1.65 0-.874.779-1.65 1.655-1.65.875 0 1.653.776 1.653 1.65 0 .874-.68 1.65-1.654 1.65Z" fill="#EA67A4"/><path d="M90.27 62.503v16.603c0 2.136-1.752 3.883-3.892 3.883H31.51c-2.14 0-3.891-1.747-3.891-3.883V61.144" stroke="#84A2FF" stroke-width="3" stroke-linecap="round" stroke-linejoin="round"/><path d="M93.382 48.133H70.909c-2.14 0-4.28.777-5.934 2.136l-5.934 4.855a9.454 9.454 0 0 1-5.934 2.136H27.522c-2.53 0-4.67 2.039-4.67 4.66 0 .194 0 .486.098.68l4.67 24.855c.388 2.33 2.334 4.078 4.669 4.078h54.477c2.335 0 4.28-1.65 4.67-3.98l6.518-33.983c.389-2.524-1.265-4.952-3.891-5.34-.195-.097-.487-.097-.681-.097Z" fill="#fff"/><path d="M30.149 57.26h-2.627c-2.53 0-4.67 2.039-4.67 4.66 0 .194 0 .486.098.68l4.67 24.855c.388 2.33 2.334 4.078 4.669 4.078h54.477c2.335 0 4.28-1.65 4.67-3.98l6.518-33.983c.389-2.524-1.265-4.952-3.891-5.34-.292 0-.487-.097-.779-.097H70.812c-2.14 0-4.28.777-5.934 2.136l-5.934 4.855a9.455 9.455 0 0 1-5.934 2.136H37.834" stroke="#6F7590" stroke-miterlimit="10" stroke-linecap="round" stroke-linejoin="round"/><path d="M49.8 73.96a2.43 2.43 0 0 0 2.432-2.427 2.43 2.43 0 0 0-2.432-2.427 2.43 2.43 0 0 0-2.432 2.427A2.43 2.43 0 0 0 49.8 73.96Zm19.067-.098a2.43 2.43 0 0 0 2.432-2.427 2.43 2.43 0 0 0-2.432-2.427 2.43 2.43 0 0 0-2.432 2.427 2.43 2.43 0 0 0 2.432 2.427Zm-4.281 4.078h-1.264c-1.07-2.232-3.794-3.106-5.934-1.941-.876.388-1.557 1.165-1.946 1.942h-1.265c1.07-2.913 4.378-4.37 7.2-3.301a5.661 5.661 0 0 1 3.21 3.3Z" fill="#6F7590"/><path d="M103.707 88.534a22.21 22.21 0 0 1-1.167 3.592 2.913 2.913 0 0 1-.389.777c-1.654 3.204-4.28 5.825-7.49 7.379-.39.194-.78.388-1.071.485-3.113 1.263-6.615 1.748-10.117.971-9.242-1.942-15.176-10.971-13.23-20.195 1.945-9.224 10.992-15.146 20.234-13.205 3.308.68 6.226 2.33 8.658 4.66 3.989 3.982 5.74 9.904 4.572 15.536Z" fill="#fff"/><g filter="url(#empty-search-query__a)"><path d="M104.221 89.504a22.21 22.21 0 0 1-1.167 3.593 2.917 2.917 0 0 1-.39.777c-1.653 3.204-4.28 5.825-7.49 7.379-.39.194-.779.388-1.07.485-3.113 1.262-6.615 1.748-10.118.971-9.241-1.942-15.175-10.972-13.23-20.195 1.946-9.224 10.993-15.147 20.235-13.205 3.307.68 6.226 2.33 8.658 4.66 4.086 3.981 5.837 9.904 4.572 15.535Z" fill="url(#empty-search-query__b)"/></g><path d="m94.577 91.437-2.53-2.525a6.268 6.268 0 0 0-1.75-8.738 6.295 6.295 0 0 0-8.756 1.748 6.268 6.268 0 0 0 1.751 8.738c2.14 1.36 4.864 1.36 6.907 0l2.53 2.525a1.235 1.235 0 0 0 1.75 0c.487-.486.584-1.263.098-1.748ZM84.07 88.136c-1.459-1.457-1.459-3.884 0-5.34 1.46-1.457 3.892-1.457 5.35 0 1.46 1.456 1.46 3.883 0 5.34-1.458 1.456-3.89 1.456-5.35 0Z" fill="#fff"/><defs><linearGradient id="empty-search-query__b" x1="70.397" y1="86.028" x2="104.642" y2="86.028" gradientUnits="userSpaceOnUse"><stop stop-color="#83A6FF"/><stop offset="1" stop-color="#5277D7"/></linearGradient><filter id="empty-search-query__a" x="62.387" y="65.94" width="50.239" height="50.143" filterUnits="userSpaceOnUse" color-interpolation-filters="sRGB"><feFlood flood-opacity="0" result="BackgroundImageFix"/><feColorMatrix in="SourceAlpha" values="0 0 0 0 0 0 0 0 0 0 0 0 0 0 0 0 0 0 127 0" result="hardAlpha"/><feOffset dy="5"/><feGaussianBlur stdDeviation="4"/><feColorMatrix values="0 0 0 0 0.1125 0 0 0 0 0.295916 0 0 0 0 1 0 0 0 0.22 0"/><feBlend in2="BackgroundImageFix" result="effect1_dropShadow_2825_166388"/><feBlend in="SourceGraphic" in2="effect1_dropShadow_2825_166388" result="shape"/></filter></defs></svg>