<svg
    width="395"
    height="201"
    viewBox="0 0 395 201"
    fill="none"
    xmlns="http://www.w3.org/2000/svg"
>
    <path
        d="M381.9 171.8H16.4L73.3 95.4L97.7 63L118 86.5L122 91.5L168.9 27.1L188.5 0L203.8 22.3L255.9 98.2L276.9 74.2L287.6 61.9L296.7 72.8L381.9 171.8Z"
        fill="#C0D6FF"
    />
    <path
        d="M97.7 63L96.7 171.8H16.4L73.3 95.4L97.7 63Z"
        fill="url(#paint0_linear_385_69937)"
    />
    <path
        d="M188.5 0L185.2 160.4L122.233 91.9396L188.5 0Z"
        fill="url(#paint1_linear_385_69937)"
    />
    <path
        d="M289.5 156.1L254.871 99.7766L287.6 61.8999L289.5 156.1Z"
        fill="url(#paint2_linear_385_69937)"
    />
    <path
        d="M1 171.8H96.7H381.9H393.6"
        stroke="#83869B"
        stroke-miterlimit="10"
        stroke-linecap="round"
        stroke-linejoin="round"
    />
    <path
        d="M207.4 187H232.8"
        stroke="#D6DCE8"
        stroke-width="3"
        stroke-miterlimit="10"
        stroke-linecap="round"
        stroke-linejoin="round"
    />
    <path
        d="M277.4 187H302.8"
        stroke="#D6DCE8"
        stroke-width="3"
        stroke-miterlimit="10"
        stroke-linecap="round"
        stroke-linejoin="round"
    />
    <path
        d="M261.9 187H267.3"
        stroke="#D6DCE8"
        stroke-width="3"
        stroke-miterlimit="10"
        stroke-linecap="round"
        stroke-linejoin="round"
    />
    <path
        d="M54.8 187H66.3001"
        stroke="#D6DCE8"
        stroke-width="3"
        stroke-miterlimit="10"
        stroke-linecap="round"
        stroke-linejoin="round"
    />
    <path
        d="M347.1 187H379.1"
        stroke="#D6DCE8"
        stroke-width="3"
        stroke-miterlimit="10"
        stroke-linecap="round"
        stroke-linejoin="round"
    />
    <path
        d="M6.29993 187H37.3999"
        stroke="#D6DCE8"
        stroke-width="3"
        stroke-miterlimit="10"
        stroke-linecap="round"
        stroke-linejoin="round"
    />
    <path
        d="M191 199.5H261.9"
        stroke="#D6DCE8"
        stroke-width="3"
        stroke-miterlimit="10"
        stroke-linecap="round"
        stroke-linejoin="round"
    />
    <path
        d="M298.4 199.5H369.3"
        stroke="#D6DCE8"
        stroke-width="3"
        stroke-miterlimit="10"
        stroke-linecap="round"
        stroke-linejoin="round"
    />
    <path
        d="M161.4 199.5H176.9"
        stroke="#D6DCE8"
        stroke-width="3"
        stroke-miterlimit="10"
        stroke-linecap="round"
        stroke-linejoin="round"
    />
    <path
        d="M134.5 146.9C134.5 153.2 129.4 156 123.2 156C117 156 111.9 153.2 111.9 146.9C111.9 140.6 123.2 101.7 123.2 101.7C123.2 101.7 134.5 140.7 134.5 146.9Z"
        fill="url(#paint3_linear_385_69937)"
        stroke="#FD579F"
        stroke-miterlimit="10"
        stroke-linejoin="round"
    />
    <path
        d="M123.1 135.9V171.6"
        stroke="white"
        stroke-width="2"
        stroke-miterlimit="10"
        stroke-linecap="round"
        stroke-linejoin="round"
    />
    <path
        d="M123.1 142.1L127.2 138.4"
        stroke="white"
        stroke-width="2"
        stroke-miterlimit="10"
        stroke-linecap="round"
        stroke-linejoin="round"
    />
    <path
        d="M123.1 150.6L117.2 143.6"
        stroke="white"
        stroke-width="2"
        stroke-miterlimit="10"
        stroke-linecap="round"
        stroke-linejoin="round"
    />
    <path
        d="M236.1 145.1C236.1 152.1 230.4 155.2 223.5 155.2C216.5 155.2 210.9 152.1 210.9 145.1C210.9 138.1 223.5 94.8 223.5 94.8C223.5 94.8 236.1 138.2 236.1 145.1Z"
        fill="url(#paint4_linear_385_69937)"
        stroke="#FD579F"
        stroke-miterlimit="10"
        stroke-linejoin="round"
    />
    <path
        d="M223.5 132.8V172.6"
        stroke="white"
        stroke-width="2"
        stroke-miterlimit="10"
        stroke-linecap="round"
        stroke-linejoin="round"
    />
    <path
        d="M223.5 139.8L228 135.6"
        stroke="white"
        stroke-width="2"
        stroke-miterlimit="10"
        stroke-linecap="round"
        stroke-linejoin="round"
    />
    <path
        d="M223.5 149.3L216.9 141.4"
        stroke="white"
        stroke-width="2"
        stroke-miterlimit="10"
        stroke-linecap="round"
        stroke-linejoin="round"
    />
    <path
        d="M264.1 155.8C264.1 160.1 260.6 162 256.4 162C252.1 162 248.7 160.1 248.7 155.8C248.7 151.5 256.4 125 256.4 125C256.4 125 264.1 151.5 264.1 155.8Z"
        fill="url(#paint5_linear_385_69937)"
        stroke="#FD579F"
        stroke-miterlimit="10"
        stroke-linejoin="round"
    />
    <path
        d="M256.3 148.3V172.6"
        stroke="white"
        stroke-width="2"
        stroke-miterlimit="10"
        stroke-linecap="round"
        stroke-linejoin="round"
    />
    <path
        d="M256.3 152.5L259.1 150"
        stroke="white"
        stroke-width="2"
        stroke-miterlimit="10"
        stroke-linecap="round"
        stroke-linejoin="round"
    />
    <path
        d="M256.3 158.3L252.3 153.5"
        stroke="white"
        stroke-width="2"
        stroke-miterlimit="10"
        stroke-linecap="round"
        stroke-linejoin="round"
    />
    <path
        d="M318.4 151C318.4 156.5 314 158.9 308.5 158.9C303 158.9 298.6 156.5 298.6 151C298.6 145.5 308.5 111.4 308.5 111.4C308.5 111.4 318.4 145.5 318.4 151Z"
        fill="url(#paint6_linear_385_69937)"
        stroke="#FD579F"
        stroke-miterlimit="10"
        stroke-linejoin="round"
    />
    <path
        d="M308.5 141.3V172.6"
        stroke="white"
        stroke-width="2"
        stroke-miterlimit="10"
        stroke-linecap="round"
        stroke-linejoin="round"
    />
    <path
        d="M308.5 146.7L312 143.5"
        stroke="white"
        stroke-width="2"
        stroke-miterlimit="10"
        stroke-linecap="round"
        stroke-linejoin="round"
    />
    <path
        d="M308.5 154.2L303.3 148"
        stroke="white"
        stroke-width="2"
        stroke-miterlimit="10"
        stroke-linecap="round"
        stroke-linejoin="round"
    />
    <path
        opacity="0.6"
        d="M122.7 91.6H106.5L98.5 99.8L88.9 98.1L73 108L68 101.5L97.7 62L122.7 91.6Z"
        fill="white"
    />
    <path
        opacity="0.6"
        d="M211.6 33.6L203.5 31.8L195.2 35.7L188.5 34L182.1 45.4L172.1 40.7L160.9 45.4L159 41L188.5 0L211.6 33.6Z"
        fill="white"
    />
    <path
        opacity="0.6"
        d="M302 79L292.9 85.3L285.1 81L274.1 87.4L271.5 80.5L287.5 62L302 79Z"
        fill="white"
    />
    <path
        d="M90.1 33.4001C91.7 33.0001 93.2 32.9001 94.8 32.9001C96.3 32.9001 97.9 33.0001 99.4 33.2001C100.9 33.4001 102.5 33.8001 104 34.5001C105.5 35.2001 107 36.2001 107.9 37.9001L106.2 37.5001L108 36.1001C108.7 35.7001 109.3 35.2001 109.9 34.8001C111.2 34.0001 112.6 33.3001 114.1 32.8001C115.6 32.3001 117.1 31.9001 118.6 31.7001C120.2 31.6001 121.7 31.6001 123.3 32.0001C123.6 32.1001 123.7 32.4001 123.6 32.6001C123.5 32.9001 123.3 33.0001 123 32.9001H122.9C121.6 32.6001 120.1 32.7001 118.7 32.9001C117.3 33.1001 115.9 33.6001 114.6 34.2001C113.3 34.8001 112.1 35.5001 110.9 36.3001C110.3 36.7001 109.7 37.2001 109.2 37.6001L107.6 39.0001C107.1 39.4001 106.5 39.3001 106.1 38.9001L106 39.0001L105.9 38.8001C105.5 37.7001 104.4 36.8001 103.2 36.2001C102 35.6001 100.6 35.1001 99.1 34.8001C97.7 34.5001 96.2 34.3001 94.7 34.2001C93.2 34.1001 91.7 34.1001 90.4 34.4001H90.3C90 34.5001 89.8 34.3001 89.7 34.0001C89.7 33.7001 89.8 33.4001 90.1 33.4001Z"
        fill="#182052"
    />
    <path
        d="M45.6999 60.8C47.2999 60.4 48.7999 60.3 50.3999 60.3C51.8999 60.3 53.4999 60.4 54.9999 60.6C56.4999 60.8 58.0999 61.2 59.5999 61.9C61.0999 62.6 62.5999 63.6 63.4999 65.3L61.7999 64.9L63.5999 63.5C64.2999 63.1 64.8999 62.6 65.4999 62.2C66.7999 61.4 68.1999 60.7 69.6999 60.2C71.1999 59.7 72.6999 59.3 74.1999 59.1C75.7999 59 77.2999 59 78.8999 59.4C79.1999 59.5 79.2999 59.8 79.1999 60C79.0999 60.3 78.8999 60.4 78.5999 60.3H78.4999C77.1999 60 75.6999 60.1 74.2999 60.3C72.8999 60.5 71.4999 61 70.1999 61.6C68.8999 62.2 67.6999 62.9 66.4999 63.7C65.8999 64.1 65.2999 64.6 64.7999 65L63.1999 66.4C62.6999 66.8 62.0999 66.7 61.6999 66.3L61.5999 66.2L61.4999 66C61.0999 64.9 59.9999 64 58.7999 63.4C57.5999 62.8 56.1999 62.3 54.6999 62C53.2999 61.7 51.7999 61.5 50.2999 61.4C48.7999 61.3 47.2999 61.3 45.9999 61.6H45.8999C45.5999 61.7 45.3999 61.5 45.2999 61.2C45.2999 61.1 45.4999 60.8 45.6999 60.8Z"
        fill="#182052"
    />
    <path
        d="M100.9 56.9001C102.5 56.5001 104 56.4001 105.6 56.4001C107.1 56.4001 108.7 56.5001 110.2 56.7001C111.7 56.9001 113.3 57.3001 114.8 58.0001C116.3 58.7001 117.8 59.7001 118.7 61.4001L117 61.0001L118.8 59.6001C119.5 59.2001 120.1 58.7001 120.7 58.3001C122 57.5001 123.4 56.8001 124.9 56.3001C126.4 55.8001 127.9 55.4001 129.4 55.2001C131 55.1001 132.5 55.1001 134.1 55.5001C134.4 55.6001 134.5 55.9001 134.4 56.1001C134.3 56.4001 134.1 56.5001 133.8 56.4001H133.7C132.4 56.1001 130.9 56.2001 129.5 56.4001C128.1 56.6001 126.7 57.1001 125.4 57.7001C124.1 58.3001 122.9 59.0001 121.7 59.8001C121.1 60.2001 120.5 60.7001 120 61.1001L118.4 62.5001C117.9 62.9001 117.3 62.8001 116.9 62.4001L116.8 62.3001L116.7 62.1001C116.3 61.0001 115.2 60.1001 114 59.5001C112.8 58.9001 111.4 58.4001 109.9 58.1001C108.5 57.8001 107 57.6001 105.5 57.5001C104 57.4001 102.5 57.4001 101.2 57.7001H101.1C100.8 57.8001 100.6 57.6001 100.5 57.3001C100.5 57.2001 100.6 56.9001 100.9 56.9001Z"
        fill="#182052"
    />
    <path
        d="M170.843 76.3044C170.843 80.6771 167.307 84.2133 162.896 84.2133C162.82 84.2133 162.174 84.2133 157.421 84.2133C154.113 84.2133 148.828 84.2133 140.386 84.2133H136.356C131.071 84.3274 126.85 80.1067 126.85 75.0116C126.85 69.8783 131.109 65.6197 136.47 65.8859C141.071 51.5129 162.136 53.5281 163.923 68.3954C167.878 68.8897 170.843 72.2358 170.843 76.3044Z"
        fill="white"
        stroke="#A2A7C6"
        stroke-miterlimit="10"
    />
    <path
        d="M163.809 68.4335C163.505 68.3955 163.201 68.3955 162.896 68.3955C161.337 68.3955 159.855 68.8518 158.6 69.6503"
        stroke="#A1A7C6"
        stroke-miterlimit="10"
        stroke-linecap="round"
    />
    <path
        d="M136.47 65.886C136.014 67.2548 135.786 68.6997 135.786 70.2207C135.786 70.8291 135.824 71.3994 135.9 71.9698"
        stroke="#A1A7C6"
        stroke-miterlimit="10"
        stroke-linecap="round"
        stroke-linejoin="round"
    />
    <path
        d="M261.9 57.7696C261.9 63.4795 257.282 68.0971 251.523 68.0971C251.424 68.0971 250.579 68.0971 244.373 68.0971C240.053 68.0971 233.152 68.0971 222.129 68.0971H216.866C209.965 68.2461 204.453 62.7347 204.453 56.0814C204.453 49.3785 210.014 43.8175 217.015 44.1651C223.023 25.3968 250.53 28.0284 252.863 47.4421C258.027 48.0876 261.9 52.4569 261.9 57.7696Z"
        fill="white"
        stroke="#A2A7C6"
        stroke-miterlimit="10"
    />
    <path
        d="M252.714 47.4918C252.317 47.4421 251.92 47.4421 251.523 47.4421C249.487 47.4421 247.551 48.038 245.912 49.0806"
        stroke="#A1A7C6"
        stroke-miterlimit="10"
        stroke-linecap="round"
    />
    <path
        d="M217.015 44.165C216.419 45.9525 216.121 47.8392 216.121 49.8253C216.121 50.6197 216.171 51.3645 216.27 52.1093"
        stroke="#A1A7C6"
        stroke-miterlimit="10"
        stroke-linecap="round"
        stroke-linejoin="round"
    />
    <defs>
        <linearGradient
            id="paint0_linear_385_69937"
            x1="21.1583"
            y1="91.4925"
            x2="101.71"
            y2="125.396"
            gradientUnits="userSpaceOnUse"
        >
            <stop stop-color="#83A6FF" />
            <stop offset="0.994956" stop-color="#5277D7" />
        </linearGradient>
        <linearGradient
            id="paint1_linear_385_69937"
            x1="126.112"
            y1="42.0055"
            x2="199.429"
            y2="59.0666"
            gradientUnits="userSpaceOnUse"
        >
            <stop stop-color="#83A6FF" />
            <stop offset="0.994956" stop-color="#5277D7" />
        </linearGradient>
        <linearGradient
            id="paint2_linear_385_69937"
            x1="256.898"
            y1="86.569"
            x2="295.626"
            y2="94.5879"
            gradientUnits="userSpaceOnUse"
        >
            <stop stop-color="#83A6FF" />
            <stop offset="0.994956" stop-color="#5277D7" />
        </linearGradient>
        <linearGradient
            id="paint3_linear_385_69937"
            x1="111.931"
            y1="128.13"
            x2="133.855"
            y2="128.13"
            gradientUnits="userSpaceOnUse"
        >
            <stop stop-color="#FF66A9" />
            <stop offset="1" stop-color="#F53689" />
        </linearGradient>
        <linearGradient
            id="paint4_linear_385_69937"
            x1="210.935"
            y1="124.2"
            x2="235.381"
            y2="124.2"
            gradientUnits="userSpaceOnUse"
        >
            <stop stop-color="#FF66A9" />
            <stop offset="1" stop-color="#F53689" />
        </linearGradient>
        <linearGradient
            id="paint5_linear_385_69937"
            x1="248.721"
            y1="143.01"
            x2="263.661"
            y2="143.01"
            gradientUnits="userSpaceOnUse"
        >
            <stop stop-color="#FF66A9" />
            <stop offset="1" stop-color="#F53689" />
        </linearGradient>
        <linearGradient
            id="paint6_linear_385_69937"
            x1="298.627"
            y1="134.521"
            x2="317.835"
            y2="134.521"
            gradientUnits="userSpaceOnUse"
        >
            <stop stop-color="#FF66A9" />
            <stop offset="1" stop-color="#F53689" />
        </linearGradient>
    </defs>
</svg>
