<svg  viewBox="0 0 121 110" fill="none" xmlns="http://www.w3.org/2000/svg">
<path d="M59.4143 110C86.1167 110 107.763 88.3953 107.763 61.7448C107.763 35.0943 86.1167 13.4897 59.4143 13.4897C32.712 13.4897 11.0654 35.0943 11.0654 61.7448C11.0654 88.3953 32.712 110 59.4143 110Z" fill="#E2EBFF"/>
<path d="M32.0782 40.8701H85.4857C87.5286 40.8701 89.2797 42.5207 89.2797 44.6567V78.2508C89.2797 80.2897 87.6259 82.0374 85.4857 82.0374H32.0782C30.0352 82.0374 28.2842 80.3868 28.2842 78.2508V44.6567C28.2842 42.6178 30.0352 40.8701 32.0782 40.8701Z" fill="#C0D6FF"/>
<path d="M82.47 40.8701H85.4857C87.5286 40.8701 89.2797 42.5207 89.2797 44.6567V78.2508C89.2797 80.2897 87.6259 82.0374 85.4857 82.0374H32.0782C30.0352 82.0374 28.2842 80.3868 28.2842 78.2508V44.6567C28.2842 42.6178 29.938 40.8701 32.0782 40.8701H73.5201" stroke="#182052" stroke-miterlimit="10" stroke-linecap="round" stroke-linejoin="round"/>
<path d="M115.678 49.689C117.185 48.3144 117.29 45.9806 115.913 44.4764C114.536 42.9722 112.197 42.8672 110.69 44.2418C109.183 45.6164 109.078 47.9501 110.455 49.4543C111.833 50.9585 114.171 51.0636 115.678 49.689Z" fill="#E2EBFF"/>
<path d="M115.951 33.2854C116.585 32.7066 116.63 31.724 116.05 31.0906C115.47 30.4573 114.485 30.413 113.851 30.9918C113.216 31.5706 113.172 32.5532 113.752 33.1866C114.332 33.8199 115.316 33.8642 115.951 33.2854Z" fill="#E2EBFF"/>
<path d="M76.6824 10.5819C77.1187 10.184 77.1492 9.50846 76.7505 9.07303C76.3518 8.6376 75.6749 8.60719 75.2387 9.0051C74.8024 9.40301 74.7719 10.0786 75.1706 10.514C75.5693 10.9494 76.2462 10.9798 76.6824 10.5819Z" fill="#E2EBFF"/>
<path d="M108.655 23.1804L95.3275 46.7737C94.8411 47.5504 93.8682 47.8418 93.09 47.3563L70.3262 34.1516C69.5479 33.6662 69.256 32.6954 69.7424 31.9187L87.2531 1.81996C87.7395 1.04322 88.7124 0.75185 89.4906 1.23731L106.028 10.8494L108.655 23.1804Z" fill="white"/>
<path d="M85.9884 3.76182L87.1559 1.81996C87.6424 1.04322 88.615 0.75185 89.3932 1.23731L105.931 10.8494L108.655 23.2775L95.3275 46.8709C94.8411 47.6476 93.8682 47.939 93.09 47.4535L70.3262 34.2488C69.5479 33.7634 69.256 32.7926 69.7424 32.0159L82.4864 9.97565" stroke="#182052" stroke-miterlimit="10" stroke-linecap="round" stroke-linejoin="round"/>
<path d="M103.694 14.5396L102.137 17.1608C101.651 18.1317 101.943 19.1999 102.818 19.7825L108.558 23.0835" stroke="#182052" stroke-miterlimit="10" stroke-linecap="round" stroke-linejoin="round"/>
<path d="M90.2694 16.9668C90.6585 16.8697 91.0475 16.8696 91.3393 16.8696C91.7285 16.8696 92.1178 16.8696 92.5069 16.8696C92.896 16.9667 93.3823 17.0636 93.7714 17.1607C94.2578 17.3549 94.647 17.5492 95.0361 17.7434C95.6198 18.0346 96.1062 18.4232 96.4953 18.9087C96.8844 19.297 97.1764 19.7825 97.371 20.3651C97.5656 20.8505 97.5655 21.4327 97.5655 21.9182C97.4682 22.5007 97.2736 23.0835 96.9817 23.5689C96.6899 24.0544 96.398 24.4426 96.0089 24.8309C95.6198 25.1222 95.328 25.3166 94.8416 25.5108C94.4524 25.705 94.0634 25.8019 93.6742 25.8019L92.6041 25.8991C92.3122 25.8991 92.0204 25.9963 91.6312 26.0934C91.3394 26.1905 91.1449 26.2875 90.9503 26.4817L89.8801 27.8409L88.1292 26.87L88.9073 25.1225C89.0046 24.8312 89.2965 24.5397 89.4911 24.3455C89.7829 24.1513 90.0747 24.0543 90.3665 23.9572C90.7557 23.8601 91.0476 23.8604 91.4367 23.7633C91.8258 23.7633 92.2149 23.666 92.6041 23.5689C92.9932 23.4718 93.2851 23.3748 93.6742 23.1807C94.0634 22.9865 94.258 22.6953 94.4525 22.3069C94.5498 22.1127 94.6469 21.8212 94.7442 21.5299C94.7442 21.2386 94.7443 21.0447 94.6471 20.8505C94.5498 20.5592 94.4524 20.3649 94.2578 20.1707C94.0632 19.9765 93.8687 19.7822 93.5769 19.588C93.285 19.3938 92.896 19.1997 92.5069 19.1026C92.2151 19.0055 91.9231 19.0054 91.6312 19.0054C91.3394 19.0054 91.1449 19.0054 90.9503 19.0054C90.853 19.0054 90.6586 19.0058 90.5613 18.9087C90.3667 18.8116 90.172 18.5202 90.172 18.326L90.2694 16.9668ZM85.1134 30.171C85.2107 29.9769 85.4053 29.783 85.5998 29.5889C85.7944 29.4918 85.9891 29.2973 86.1836 29.2973C86.67 29.2002 87.1563 29.2004 87.5455 29.4917C87.74 29.5888 87.9347 29.783 88.1292 29.9771C88.2265 30.1713 88.3236 30.3656 88.4209 30.5598C88.7127 31.5307 88.1292 32.5015 87.1564 32.7927C86.67 32.8898 86.1835 32.7925 85.7943 32.5984C85.5998 32.5013 85.4054 32.3071 85.2108 32.1129C85.1135 31.9187 84.9189 31.7249 84.9189 31.5307C84.8216 31.3365 84.8216 31.0451 84.9189 30.8509C84.9189 30.5596 85.0161 30.3652 85.1134 30.171Z" fill="#C0D6FF"/>
<path d="M23.1447 12.8886L38.4178 28.7145C38.9042 29.2971 38.9041 30.0738 38.3204 30.6563L22.7554 45.3174C22.1717 45.8029 21.3935 45.8028 20.8098 45.2203L1.45084 24.7341C0.964436 24.1515 0.964531 23.3748 1.54822 22.7922L12.8327 12.2087L23.1447 12.8886Z" fill="white"/>
<path d="M27.5223 17.4521L38.3204 28.7145C38.8068 29.2971 38.807 30.0738 38.2233 30.6563L22.6582 45.3174C22.0745 45.8029 21.2963 45.8028 20.7126 45.2203L1.35343 24.7341C0.867024 24.1515 0.867119 23.3748 1.45081 22.7922L12.7356 12.2087L23.0473 12.9858L23.9229 13.8595" stroke="#182052" stroke-miterlimit="10" stroke-linecap="round" stroke-linejoin="round"/>
<path d="M15.5342 15L17.0157 16.4813C17.5993 17.0638 18.5722 17.0638 19.2532 16.4813L22.9999 13" stroke="#182052" stroke-miterlimit="10" stroke-linecap="round" stroke-linejoin="round"/>
<path d="M14 25.7049C14 25.4136 14.0975 25.122 14.1948 24.8307C14.292 24.5394 14.3891 24.2482 14.4864 23.957C14.5837 23.6657 14.7783 23.3745 14.9728 23.0832C15.1674 22.792 15.4593 22.5008 15.7511 22.2095C16.1402 21.8211 16.5294 21.5299 17.0158 21.3358C17.4049 21.1416 17.8914 21.0442 18.2805 21.0442C18.6697 21.0442 19.1561 21.1415 19.5452 21.2386C19.9344 21.4327 20.3234 21.7238 20.7126 22.0151C21.0044 22.3064 21.2962 22.6949 21.3935 23.0832C21.4908 23.3745 21.5881 23.763 21.6854 24.1513C21.6854 24.4426 21.6854 24.831 21.6854 25.1223C21.5881 25.4135 21.5881 25.7047 21.4909 25.996C21.4909 26.2873 21.3935 26.4813 21.3935 26.7726C21.3935 26.9667 21.3934 27.161 21.588 27.3552L22.3663 28.5205L21.199 29.5886L20.0316 28.5205C19.8371 28.3263 19.6425 28.132 19.5452 27.8407C19.448 27.5494 19.4479 27.3554 19.4479 27.0641C19.4479 26.7728 19.5452 26.4817 19.5452 26.1904C19.6425 25.8991 19.6424 25.6075 19.6424 25.3162C19.6424 25.0249 19.6425 24.7337 19.5452 24.4424C19.448 24.1512 19.2534 23.86 19.0588 23.5687C18.9615 23.3745 18.767 23.2775 18.5724 23.1804C18.3779 23.0833 18.1832 23.0832 17.9886 23.0832C17.7941 23.0832 17.5994 23.1805 17.4049 23.2776C17.2103 23.3747 17.0159 23.4717 16.8213 23.6659C16.6267 23.8601 16.4321 24.1511 16.2375 24.3452C16.1402 24.5394 16.0429 24.7338 15.9456 25.0251C15.8483 25.2193 15.8485 25.4135 15.8485 25.5105C15.8485 25.6076 15.7513 25.7045 15.654 25.8016C15.5567 25.9958 15.2648 25.9959 15.0702 25.8988L14 25.7049ZM23.1446 32.6953C23.0473 32.5982 22.95 32.404 22.8527 32.2098C22.7554 32.0157 22.7553 31.8214 22.7553 31.6272C22.7553 31.2388 22.9499 30.8508 23.2417 30.5596C23.339 30.4625 23.5336 30.3651 23.7282 30.268C23.9227 30.1709 24.1174 30.1708 24.3119 30.1708C24.8956 30.1708 25.4792 30.5592 25.6738 31.1417C25.7711 31.3359 25.7712 31.5302 25.7712 31.7244C25.7712 31.9186 25.6738 32.1128 25.6738 32.307C25.5765 32.5012 25.4793 32.5983 25.2848 32.7925C25.1875 32.8896 24.9929 33.0836 24.7983 33.0836C24.4092 33.1807 24.02 33.1807 23.7282 33.0836C23.4363 32.9865 23.2419 32.8895 23.1446 32.6953Z" fill="#C0D6FF"/>
<path d="M62.8356 37.8416L56.9014 58.9104C56.7068 59.5901 55.9286 60.0754 55.2476 59.7842L34.7211 53.7647C34.0402 53.5705 33.5538 52.7936 33.8457 52.1139L41.8227 25.0252C42.0173 24.3455 42.7955 23.8602 43.4765 24.1514L58.3606 28.5206L62.8356 37.8416Z" fill="white"/>
<path d="M39.7795 32.1131L41.8225 25.2199C42.0171 24.5403 42.7953 24.0544 43.4762 24.3457L58.3603 28.7149L62.9325 37.9387L56.9985 59.008C56.8039 59.6876 56.0255 60.173 55.3445 59.8817L34.8183 53.8623C34.1373 53.6681 33.6507 52.8912 33.9426 52.2115L37.8339 38.9096" stroke="#182052" stroke-miterlimit="10" stroke-linecap="round" stroke-linejoin="round"/>
<path d="M57.2902 32.1128L56.6093 34.4434C56.4147 35.2201 56.9012 36.094 57.6795 36.3852L62.8355 37.9384" stroke="#182052" stroke-miterlimit="10" stroke-linecap="round" stroke-linejoin="round"/>
<path d="M47.1733 36.482C47.4651 36.385 47.7569 36.288 48.0487 36.191C48.3406 36.0939 48.6324 35.9966 49.0216 35.9966C49.4107 35.9966 49.7026 35.9966 50.0917 35.9966C50.4809 35.9966 50.8699 36.0939 51.2591 36.191C51.7455 36.288 52.232 36.5795 52.6212 36.8708C53.0103 37.1621 53.3021 37.4534 53.594 37.8417C53.7885 38.2301 53.9831 38.6182 54.0804 39.0065C54.1777 39.492 54.0803 39.9774 53.983 40.3658C53.8857 40.7541 53.6911 41.1427 53.3992 41.5311C53.2047 41.8223 52.913 42.1134 52.6212 42.3076C52.3293 42.5018 52.0373 42.696 51.7455 42.7931L50.87 43.0846C50.6755 43.1817 50.3837 43.2786 50.1891 43.3757C49.9946 43.4728 49.7999 43.667 49.7999 43.8612L49.2163 45.1237L47.6597 44.6382L47.9516 43.0846C47.9516 42.7934 48.1461 42.599 48.3406 42.4048C48.5352 42.2106 48.7297 42.0164 49.0216 41.9193C49.3134 41.8222 49.6053 41.7253 49.7999 41.6282C50.0917 41.5311 50.3837 41.4342 50.6755 41.24C50.9674 41.1429 51.1617 40.9487 51.4536 40.7545C51.6482 40.5603 51.8427 40.2687 51.94 39.8803C52.0373 39.6861 52.0374 39.4923 52.0374 39.2981C52.0374 39.1039 51.9401 38.9096 51.8429 38.7155C51.7456 38.5213 51.551 38.4242 51.3565 38.23C51.1619 38.1329 50.9674 38.0355 50.6755 37.9384C50.3837 37.8413 50.0918 37.8417 49.7027 37.8417C49.5082 37.8417 49.2161 37.8413 49.0216 37.9384C48.827 37.9384 48.6324 38.0356 48.5351 38.0356C48.4379 38.0356 48.3407 38.1327 48.1461 38.0356C47.9516 38.0356 47.7571 37.8415 47.7571 37.6473L47.1733 36.482ZM45.7141 47.9393C45.8114 47.7451 45.8114 47.5509 46.006 47.4538C46.1032 47.2596 46.2977 47.1626 46.395 47.0655C46.7841 46.8713 47.1733 46.8712 47.4652 46.9683C47.6598 47.0654 47.8543 47.1623 47.9516 47.2594C48.0489 47.3565 48.2433 47.5506 48.3406 47.6477C48.7298 48.3274 48.4381 49.2012 47.7571 49.5896C47.368 49.7837 46.9787 49.7838 46.6869 49.6867C46.4923 49.5897 46.2978 49.5898 46.2005 49.3957C46.0059 49.2986 45.9087 49.1045 45.8115 49.0074C45.7142 48.8132 45.714 48.7161 45.6167 48.5219C45.6167 48.3277 45.6168 48.1335 45.7141 47.9393Z" fill="#C0D6FF"/>
<path d="M111.067 73.907L91.7551 84.2954C91.1299 84.6282 90.2397 84.4073 89.977 83.7163L80.0683 64.805C79.7356 64.1814 79.9579 63.2928 80.6505 63.0297L105.721 49.9227C106.346 49.5898 107.236 49.8104 107.499 50.5014L114.681 64.2171L111.067 73.907Z" fill="white"/>
<path d="M111.067 73.907L91.7551 84.2954C91.1299 84.6282 90.2397 84.4073 89.977 83.7163L80.0683 64.805C79.7356 64.1814 79.9579 63.2928 80.6505 63.0297L105.721 49.9227C106.346 49.5898 107.236 49.8104 107.499 50.5014L114.681 64.2171L111.067 73.907Z" stroke="#182052" stroke-miterlimit="10" stroke-linecap="round" stroke-linejoin="round"/>
<path d="M111.214 65.9471L109.201 66.9432C108.506 67.3435 108.214 68.2999 108.544 69.0607L111.003 73.8399" stroke="#182052" stroke-miterlimit="10" stroke-linecap="round" stroke-linejoin="round"/>
<path d="M101.108 61.6559C101.38 61.7977 101.653 61.9397 101.925 62.0816C102.198 62.2235 102.47 62.3652 102.741 62.6444C103.011 62.9236 103.213 63.133 103.483 63.4122C103.753 63.6913 103.953 64.0381 104.153 64.3848C104.421 64.8012 104.549 65.3524 104.609 65.834C104.669 66.3157 104.662 66.7275 104.584 67.2068C104.439 67.6164 104.294 68.0261 104.082 68.3658C103.799 68.7731 103.382 69.0408 103.034 69.2409C102.687 69.4411 102.272 69.5715 101.789 69.6321C101.444 69.695 101.031 69.6879 100.689 69.6135C100.346 69.5391 100.004 69.4648 99.7312 69.3229L98.9136 68.897C98.7085 68.8249 98.4358 68.6833 98.2307 68.6112C98.0257 68.5391 97.7507 68.5345 97.6107 68.6695L96.2957 69.1279L95.5654 67.6739L96.8879 66.8033C97.0979 66.6008 97.3728 66.6057 97.6479 66.6103C97.9229 66.6149 98.1979 66.6195 98.4705 66.7614C98.7431 66.9032 99.0159 67.045 99.2209 67.1171C99.4935 67.2589 99.7659 67.4008 100.108 67.4752C100.381 67.6171 100.656 67.6218 100.999 67.6962C101.274 67.7008 101.619 67.6379 101.966 67.4378C102.314 67.2376 102.664 66.9001 102.671 66.4882C102.744 66.2834 102.679 66.0764 102.684 65.8018C102.619 65.5947 102.554 65.3878 102.421 65.1109C102.288 64.8341 102.086 64.6246 101.816 64.3455C101.681 64.2059 101.478 63.9964 101.273 63.9243C101.138 63.7848 100.933 63.7127 100.865 63.6429C100.798 63.5731 100.66 63.5709 100.595 63.3638C100.46 63.2242 100.465 62.9498 100.605 62.8148L101.108 61.6559ZM91.9047 68.5054C92.1122 68.4403 92.2521 68.3051 92.4572 68.3772C92.6647 68.312 92.8701 68.384 93.0076 68.3863C93.4177 68.5305 93.6874 68.8098 93.82 69.0867C93.8851 69.2937 93.9502 69.5007 93.9478 69.638C93.9453 69.7753 93.9405 70.0499 93.938 70.1871C93.8631 70.5292 93.5129 70.8666 93.2354 70.9993C93.0279 71.0645 92.8205 71.1298 92.683 71.1275C92.5454 71.1252 92.2704 71.1204 92.1328 71.1181C91.7227 70.9739 91.4527 70.6949 91.3201 70.4181C91.2551 70.211 91.1199 70.0715 91.1923 69.8668C91.1273 69.6597 91.2 69.4545 91.2024 69.3173C91.2749 69.1125 91.3449 69.045 91.4174 68.8403C91.5574 68.7053 91.7647 68.6404 91.9047 68.5054Z" fill="#C0D6FF"/>
<path d="M62.5434 11.6266L61.9597 11.5294C61.6678 11.5294 61.4734 11.3352 61.3761 11.0439C61.2788 10.8497 61.2786 10.6555 61.1814 10.5584C61.0841 10.3643 61.0842 10.0728 61.2787 9.8786L61.5706 9.39314C61.7652 9.10186 61.7651 8.71358 61.4733 8.5194L60.5004 7.54847C60.2086 7.25719 59.8196 7.2571 59.625 7.45128L59.1386 7.74285C58.944 7.93703 58.6521 7.93665 58.3603 7.83956C58.1657 7.74247 57.9712 7.64566 57.8739 7.64566C57.582 7.54857 57.4848 7.35428 57.3875 7.06301L57.2901 6.48036C57.1928 6.09199 56.901 5.89771 56.6092 5.89771H55.2473C54.8582 5.89771 54.5664 6.18908 54.5664 6.48036L54.469 7.06301C54.469 7.35428 54.2745 7.54857 53.9826 7.64566C53.7881 7.74275 53.5935 7.74247 53.4962 7.83956C53.3017 7.93665 53.0099 7.93703 52.8153 7.74285L52.3289 7.45128C52.037 7.2571 51.6478 7.25719 51.4532 7.54847L50.4804 8.5194C50.1886 8.81067 50.1887 9.19895 50.3833 9.39314L50.6752 9.8786C50.8697 10.0728 50.8696 10.3643 50.7723 10.5584C50.675 10.7526 50.5778 10.9468 50.5778 11.0439C50.4805 11.3352 50.2858 11.4323 49.994 11.5294L49.4104 11.6266C49.0213 11.7236 48.8267 12.0146 48.8267 12.3059V13.6651C48.8267 14.0535 49.1186 14.345 49.4104 14.345L49.994 14.4421C50.2858 14.4421 50.4805 14.6363 50.5778 14.9276C50.6751 15.1218 50.675 15.316 50.7723 15.4131C50.8696 15.6073 50.8697 15.8983 50.6752 16.1896L50.3833 16.6751C50.1887 16.9664 50.1886 17.3547 50.4804 17.646L51.4532 18.6169C51.7451 18.9082 52.1343 18.9083 52.3289 18.7141L52.8153 18.423C53.0099 18.2289 53.3017 18.2288 53.4962 18.3259C53.6908 18.4229 53.8853 18.5198 53.9826 18.5198C54.2745 18.6168 54.3718 18.8111 54.469 19.1024L54.5664 19.6851C54.6637 20.0734 54.9555 20.2677 55.2473 20.2677H56.6092C56.9983 20.2677 57.2901 19.9763 57.2901 19.6851L57.3875 19.1024C57.3875 18.8111 57.582 18.6168 57.8739 18.5198C58.0685 18.4227 58.263 18.4229 58.3603 18.3259C58.5549 18.2288 58.8468 18.2289 59.1386 18.423L59.625 18.7141C59.9168 18.9083 60.3059 18.9082 60.5004 18.6169L61.4733 17.646C61.7651 17.3547 61.7652 16.9664 61.5706 16.6751L61.2787 16.1896C61.0842 15.9954 61.0841 15.7043 61.1814 15.4131C61.2786 15.2189 61.3761 15.0247 61.3761 14.9276C61.4734 14.6363 61.6678 14.5392 61.9597 14.4421L62.5434 14.345C62.9326 14.2479 63.127 13.9564 63.127 13.6651V12.3059C63.127 11.9175 62.9326 11.6266 62.5434 11.6266ZM56.1228 15.3159C54.7608 15.3159 53.6907 14.2479 53.6907 12.8886C53.6907 11.5293 54.7608 10.4613 56.1228 10.4613C57.4847 10.4613 58.5548 11.5293 58.5548 12.8886C58.4575 14.2479 57.3874 15.3159 56.1228 15.3159Z" fill="#EA67A4"/>
<path d="M14.7783 64.1533L14.3892 64.0566C14.1947 64.0566 14.0972 63.8621 14 63.765C14 63.6679 13.9027 63.4738 13.8055 63.3767C13.7082 63.1826 13.7083 62.9884 13.9028 62.8913L14.0973 62.6002C14.1946 62.406 14.1946 62.1145 14.0973 61.9203L13.4164 61.2405C13.2219 61.0463 12.9301 61.0463 12.7355 61.2405L12.4436 61.4349C12.249 61.532 12.0545 61.532 11.9572 61.4349C11.8599 61.3378 11.6652 61.3376 11.5679 61.2405C11.3734 61.1434 11.2763 61.0464 11.2763 60.8522L11.1789 60.464C11.1789 60.2698 10.9843 60.0757 10.6925 60.0757H9.81705C9.52521 60.0757 9.33064 60.2698 9.33064 60.464L9.23327 60.8522C9.23327 61.0464 9.03866 61.1434 8.94137 61.2405C8.84409 61.2405 8.64962 61.3378 8.55234 61.4349C8.35778 61.532 8.16322 61.532 8.06594 61.4349L7.77404 61.2405C7.57948 61.0463 7.28768 61.1434 7.09312 61.2405L6.4122 61.9203C6.21763 62.1145 6.21763 62.406 6.4122 62.6002L6.60671 62.8913C6.70399 63.0855 6.70399 63.1826 6.60671 63.3767C6.50943 63.4738 6.50948 63.6679 6.4122 63.765C6.31492 63.9592 6.21749 64.0566 6.02293 64.0566L5.6339 64.1533C5.43933 64.1533 5.24463 64.3475 5.24463 64.6388V65.513C5.24463 65.8042 5.43933 65.9984 5.6339 65.9984L6.02293 66.0951C6.21749 66.0951 6.31492 66.2896 6.4122 66.3867C6.4122 66.4838 6.50943 66.6779 6.60671 66.775C6.70399 66.9692 6.70399 67.1634 6.60671 67.2604L6.4122 67.5515C6.31492 67.7457 6.31492 68.0372 6.4122 68.2314L7.09312 68.9112C7.28768 69.1054 7.57948 69.1054 7.77404 68.9112L8.06594 68.7168C8.16322 68.6197 8.35778 68.6196 8.55234 68.6196C8.64962 68.7167 8.84409 68.7169 8.94137 68.814C9.13594 68.9111 9.23327 69.0081 9.23327 69.2023L9.33064 69.5906C9.33064 69.7848 9.52521 69.9789 9.81705 69.9789H10.6925C10.9843 69.9789 11.1789 69.7848 11.1789 69.5906L11.2763 69.2023C11.2763 69.0081 11.4706 68.9111 11.5679 68.814C11.6652 68.814 11.8599 68.7167 11.9572 68.6196C12.1518 68.5226 12.3463 68.5227 12.4436 68.7168L12.7355 68.9112C12.9301 69.0083 13.2219 69.0083 13.4164 68.9112L14.0973 68.2314C14.2919 68.0372 14.2919 67.7457 14.0973 67.5515L13.9028 67.2604C13.8055 67.0663 13.8055 66.8721 13.8055 66.775C13.9027 66.6779 13.9027 66.4838 14 66.3867C14.0972 66.1925 14.1947 66.0951 14.3892 66.0951L14.7783 65.9984C14.9728 65.9984 15.1675 65.8042 15.1675 65.513V64.6388C15.2648 64.3475 15.0701 64.1533 14.7783 64.1533ZM10.3035 66.775C9.42792 66.775 8.64948 65.9981 8.64948 65.1242C8.64948 64.2504 9.42792 63.4739 10.3035 63.4739C11.179 63.4739 11.9572 64.2504 11.9572 65.1242C11.9572 65.9981 11.2763 66.775 10.3035 66.775Z" fill="#EA67A4"/>
<path d="M90.2691 62.503V79.1059C90.2691 81.242 88.518 82.9897 86.3778 82.9897H31.5109C29.3707 82.9897 27.6196 81.242 27.6196 79.1059V61.1438" stroke="#84A2FF" stroke-width="3" stroke-linecap="round" stroke-linejoin="round"/>
<path d="M93.3816 48.1331H70.9095C68.7693 48.1331 66.6293 48.91 64.9755 50.2693L59.0412 55.1239C57.3874 56.4832 55.2474 57.2601 53.1072 57.2601H27.5221C24.9928 57.2601 22.8525 59.2989 22.8525 61.9204C22.8525 62.1146 22.8526 62.4061 22.9499 62.6002L27.6192 87.4556C28.0084 89.7858 29.954 91.5337 32.2888 91.5337H86.7665C89.1012 91.5337 91.0469 89.883 91.436 87.5528L97.9538 53.5703C98.3429 51.0459 96.6892 48.6186 94.0626 48.2302C93.868 48.1332 93.5762 48.1331 93.3816 48.1331Z" fill="white"/>
<path d="M30.1487 57.2601H27.5221C24.9928 57.2601 22.8525 59.2989 22.8525 61.9204C22.8525 62.1146 22.8526 62.4061 22.9499 62.6002L27.6192 87.4556C28.0084 89.7858 29.954 91.5337 32.2888 91.5337H86.7665C89.1012 91.5337 91.0469 89.883 91.436 87.5528L97.9538 53.5703C98.343 51.0459 96.6892 48.6186 94.0626 48.2302C93.7707 48.2302 93.5761 48.1331 93.2843 48.1331H70.8124C68.6722 48.1331 66.5319 48.91 64.8781 50.2693L58.9441 55.1239C57.2903 56.4832 55.15 57.2601 53.0098 57.2601H37.8338" stroke="#182052" stroke-miterlimit="10" stroke-linecap="round" stroke-linejoin="round"/>
<path d="M49.7997 73.9601C51.1429 73.9601 52.2318 72.8734 52.2318 71.5328C52.2318 70.1922 51.1429 69.1055 49.7997 69.1055C48.4565 69.1055 47.3677 70.1922 47.3677 71.5328C47.3677 72.8734 48.4565 73.9601 49.7997 73.9601Z" fill="#182052"/>
<path d="M68.8671 73.8627C70.2103 73.8627 71.2991 72.7759 71.2991 71.4354C71.2991 70.0948 70.2103 69.0081 68.8671 69.0081C67.5239 69.0081 66.4351 70.0948 66.4351 71.4354C66.4351 72.7759 67.5239 73.8627 68.8671 73.8627Z" fill="#182052"/>
<path d="M65 79C65 80.65 62.7603 82 60.0098 82C57.2397 82 55 80.65 55 79H65Z" fill="#182052"/>
<path d="M103.707 88.5337C103.415 89.7959 103.026 90.961 102.54 92.1261C102.443 92.4174 102.345 92.6116 102.151 92.9029C100.497 96.1069 97.8704 98.7284 94.6601 100.282C94.271 100.476 93.8819 100.67 93.59 100.767C90.477 102.03 86.9749 102.515 83.4727 101.738C74.231 99.7964 68.2968 90.7668 70.2425 81.543C72.1881 72.3192 81.2353 66.3966 90.477 68.3384C93.7846 69.0181 96.703 70.6686 99.1351 72.9989C103.124 76.9797 104.875 82.9023 103.707 88.5337Z" fill="white"/>
<path d="M103.221 89.5046C102.929 90.7668 102.54 91.932 102.054 93.0971C101.956 93.3883 101.859 93.5825 101.664 93.8738C100.011 97.0779 97.3841 99.6994 94.1738 101.253C93.7847 101.447 93.3955 101.641 93.1037 101.738C89.9907 103.001 86.4885 103.486 82.9864 102.709C73.7447 100.767 67.8105 91.7378 69.7561 82.514C71.7018 73.2902 80.7489 67.3675 89.9907 69.3094C93.2983 69.989 96.2167 71.6396 98.6487 73.9698C102.735 77.9506 104.486 83.8733 103.221 89.5046Z" fill="url(#paint0_linear_166_67297)"/>
<path d="M83.9594 67.6589C85.9051 67.3676 88.0453 67.4647 90.0882 67.853C93.493 68.5327 96.606 70.2804 99.0381 72.7077C103.318 76.9798 105.167 82.9995 103.902 88.9222C103.61 90.2815 103.221 91.5437 102.638 92.7088C102.54 93.0001 102.443 93.1942 102.248 93.4855C100.497 96.8838 97.7734 99.5053 94.4659 101.253C94.0767 101.447 93.6876 101.641 93.2985 101.835C90.0882 103.195 86.4888 103.583 82.7921 102.806C73.1612 100.767 66.9352 91.3495 68.9781 81.7373C69.8536 77.4652 72.1884 73.9699 75.3014 71.4455" stroke="#182052" stroke-miterlimit="10" stroke-linecap="round" stroke-linejoin="round"/>
<path d="M77.3442 69.9896C77.5388 69.8923 77.6361 69.795 77.8306 69.6978" stroke="#182052" stroke-miterlimit="10" stroke-linecap="round" stroke-linejoin="round"/>
<path d="M93.5764 91.4362L91.0472 88.9117C92.9928 85.9989 92.2145 82.1152 89.2961 80.1734C86.3776 78.2315 82.4864 79.0085 80.5407 81.9213C78.5951 84.8341 79.3734 88.7178 82.2919 90.6597C84.4321 92.019 87.1558 92.019 89.1987 90.6597L91.7281 93.1842C92.2145 93.6696 92.9928 93.6696 93.4792 93.1842C93.9656 92.6987 94.0628 91.9217 93.5764 91.4362ZM83.0699 88.1351C81.6107 86.6788 81.6107 84.2514 83.0699 82.7951C84.5291 81.3387 86.9612 81.3387 88.4204 82.7951C89.8796 84.2514 89.8796 86.6788 88.4204 88.1351C86.9612 89.5915 84.5291 89.5915 83.0699 88.1351Z" fill="white"/>
<defs>
<linearGradient id="paint0_linear_166_67297" x1="71.3906" y1="77.8819" x2="101.665" y2="94.982" gradientUnits="userSpaceOnUse">
<stop stop-color="#83A6FF"/>
<stop offset="0.994956" stop-color="#5277D7"/>
</linearGradient>
</defs>
</svg>
