<svg viewBox="0 0 116 132" fill="none" xmlns="http://www.w3.org/2000/svg">
<path d="M53.7302 120C81.7204 120 104.411 97.2539 104.411 69.1952C104.411 41.1365 81.7204 18.3904 53.7302 18.3904C25.7399 18.3904 3.04932 41.1365 3.04932 69.1952C3.04932 97.2539 25.7399 120 53.7302 120Z" fill="#E2EBFF"/>
<path d="M16.4082 36.2793H88.5035C91.3588 36.2793 93.6022 38.5282 93.6022 41.3904V87.0841C93.6022 89.9463 91.3588 92.1952 88.5035 92.1952H16.4082C13.553 92.1952 11.3096 89.9463 11.3096 87.0841V41.3904C11.3096 38.5282 13.655 36.2793 16.4082 36.2793Z" fill="#C0D6FF"/>
<path d="M93.7042 46.0927V87.0841C93.7042 89.9463 91.4608 92.1952 88.6055 92.1952H16.4082C13.553 92.1952 11.3096 89.9463 11.3096 87.0841V41.3904C11.3096 38.5282 13.553 36.2793 16.4082 36.2793H88.5035C90.7469 36.2793 92.5825 37.7104 93.2963 39.6527" stroke="#182052" stroke-miterlimit="10" stroke-linecap="round" stroke-linejoin="round"/>
<path d="M112.639 56.5533C114.219 55.106 114.33 52.649 112.886 51.0653C111.442 49.4816 108.991 49.371 107.411 50.8183C105.831 52.2655 105.721 54.7226 107.165 56.3062C108.609 57.8899 111.06 58.0005 112.639 56.5533Z" fill="#E2EBFF"/>
<path d="M24.4438 23.4746C25.7828 23.0383 26.5154 21.5965 26.0802 20.2543C25.645 18.9121 24.2068 18.1776 22.8678 18.6139C21.5288 19.0501 20.7962 20.4919 21.2314 21.8342C21.6666 23.1764 23.1048 23.9108 24.4438 23.4746Z" fill="#E2EBFF"/>
<path d="M30.0089 15.1363C30.9194 14.8396 31.4176 13.8592 31.1216 12.9465C30.8257 12.0338 29.8477 11.5344 28.9372 11.831C28.0267 12.1277 27.5285 13.1081 27.8244 14.0208C28.1204 14.9335 29.0984 15.4329 30.0089 15.1363Z" fill="#F34D77"/>
<path d="M112.932 39.1385C113.597 38.5292 113.644 37.4946 113.036 36.8278C112.428 36.161 111.396 36.1144 110.731 36.7238C110.066 37.3332 110.019 38.3677 110.627 39.0345C111.235 39.7013 112.267 39.7479 112.932 39.1385Z" fill="#F34D77"/>
<path d="M95.047 65.5977V88.0867C95.047 90.9489 92.7016 93.4025 89.7444 93.4025H15.6097C12.7544 93.4025 10.3071 91.0512 10.3071 88.0867V63.6555" stroke="#84A2FF" stroke-width="3" stroke-linecap="round" stroke-linejoin="round"/>
<path d="M99.2276 46.073H68.8394C65.8822 46.073 63.027 47.0955 60.7836 48.9355L52.8296 55.4777C50.5862 57.3177 47.731 58.3398 44.7738 58.3398H10.2046C6.73753 58.3398 3.88232 61.2022 3.88232 64.6778C3.88232 64.9844 3.88242 65.291 3.9844 65.5977L10.3067 99.3313C10.8166 102.5 13.4678 104.851 16.629 104.851H90.2538C93.415 104.851 96.0663 102.602 96.5761 99.4336L105.448 53.3309C106.06 49.8553 103.714 46.6863 100.247 46.073C99.9414 46.073 99.5335 46.073 99.2276 46.073Z" fill="white"/>
<path d="M100.35 79.9089L105.448 53.3309C106.06 49.8554 103.715 46.6864 100.248 46.073C99.9417 45.9708 99.5338 45.9712 99.2279 45.9712H68.8397C65.8825 45.9712 63.0273 46.9932 60.7839 48.8332L52.8299 55.3754C50.5865 57.2154 47.7313 58.2379 44.7741 58.2379H25.603" stroke="#182052" stroke-miterlimit="10" stroke-linecap="round" stroke-linejoin="round"/>
<path d="M14.5898 58.3398H10.3069C6.83983 58.3398 3.98462 61.2023 3.98462 64.6779C3.98462 64.9845 3.98447 65.2911 4.08644 65.5978L10.4088 99.3313C10.9186 102.5 13.5701 104.851 16.7313 104.851H90.3561C93.5173 104.851 96.1686 102.603 96.6785 99.4337L98.9218 87.8827" stroke="#182052" stroke-miterlimit="10" stroke-linecap="round" stroke-linejoin="round"/>
<path d="M40.3891 81.0334C42.1913 81.0334 43.6522 79.5686 43.6522 77.762C43.6522 75.9554 42.1913 74.4912 40.3891 74.4912C38.5869 74.4912 37.126 75.9554 37.126 77.762C37.126 79.5686 38.5869 81.0334 40.3891 81.0334Z" fill="#182052"/>
<path d="M66.0863 80.9311C67.8885 80.9311 69.3494 79.4668 69.3494 77.6602C69.3494 75.8537 67.8885 74.3889 66.0863 74.3889C64.2842 74.3889 62.8232 75.8537 62.8232 77.6602C62.8232 79.4668 64.2842 80.9311 66.0863 80.9311Z" fill="#182052"/>
<g filter="url(#filter0_d_423_70390)">
<path d="M104.136 102.511C103.728 104.249 103.116 105.986 102.403 107.52C100.465 111.2 97.5079 114.164 93.8369 116.004C90.0639 117.946 85.577 118.662 80.9882 117.742C70.383 115.493 63.5508 105.169 65.7942 94.5374C68.0376 83.9062 78.3369 77.0573 88.9422 79.3062C92.7152 80.124 96.0803 81.964 98.8336 84.6218C103.524 89.3241 105.462 96.0708 104.136 102.511Z" fill="url(#paint0_linear_423_70390)"/>
</g>
<path d="M78.0312 78.5908C81.4983 77.3641 85.2713 77.0574 89.0443 77.773C92.9193 78.5908 96.4884 80.533 99.2417 83.293C104.136 88.0975 106.176 95.1509 104.748 101.898C104.34 103.738 103.729 105.475 102.913 107.111C100.975 110.995 97.8141 114.062 94.041 116.004C90.0641 118.049 85.3733 118.764 80.6825 117.742C69.6694 115.493 62.6332 104.658 64.8766 93.6176C65.6924 89.6309 67.6299 86.1553 70.2812 83.3953" stroke="#182052" stroke-miterlimit="10" stroke-linecap="round" stroke-linejoin="round"/>
<path d="M72.8303 81.4532C73.0343 81.3509 73.1362 81.2487 73.3402 81.1465" stroke="#182052" stroke-miterlimit="10" stroke-linecap="round" stroke-linejoin="round"/>
<path d="M91.1715 96.7757H86.6846V92.278C86.6846 91.358 85.9708 90.54 84.9511 90.54C84.0333 90.54 83.2176 91.2558 83.2176 92.278V96.7757H78.7306C77.8128 96.7757 76.9971 97.4915 76.9971 98.5137C76.9971 99.536 77.7108 100.251 78.7306 100.251H83.2176V104.749C83.2176 105.669 83.9313 106.487 84.9511 106.487C85.8688 106.487 86.6846 105.772 86.6846 104.749V100.251H91.1715C92.0893 100.251 92.905 99.536 92.905 98.5137C92.905 97.4915 92.0893 96.7757 91.1715 96.7757Z" fill="white"/>
<path d="M49.2434 57.3372C45.6743 50.386 44.8585 41.9015 47.2039 34.337C49.5493 26.7725 54.9539 20.2303 61.7861 16.5503C63.9276 15.4258 66.273 14.5058 68.7203 14.4036C71.1677 14.3013 73.717 15.1191 75.3486 17.0614C76.9802 18.9014 77.2861 21.8658 75.9604 23.9103C74.5328 25.8525 71.7795 26.5681 69.4341 26.057C65.7631 25.3414 62.7039 22.4792 61.7861 19.0036C60.8684 15.528 62.092 11.4391 64.8453 9.08797C66.6808 7.45241 69.1282 6.63462 71.4736 5.91906C82.6907 2.64793 94.8255 2.23904 106.247 4.69239" stroke="#C0D6FF" stroke-miterlimit="10" stroke-dasharray="4 4"/>
<path d="M56.3815 84.5286H50.1611V86.0619H56.3815V84.5286Z" fill="#182052"/>
<path d="M112.263 2.0347C112.161 3.56805 112.059 4.89695 110.937 5.20361C109.815 5.51028 109.305 4.48805 108.591 3.05693C107.878 1.72804 108.286 0.399137 109.509 0.092468C110.733 -0.214201 112.466 0.194691 112.263 2.0347Z" fill="#E2EBFF"/>
<path d="M111.141 9.19038C111.447 7.35036 111.753 6.43036 110.733 5.91924C109.612 5.40813 108.898 6.32813 107.776 7.55481C106.756 8.67926 107.368 10.2126 108.388 10.7237C109.51 11.3371 110.835 10.7237 111.141 9.19038Z" fill="#E2EBFF"/>
<path d="M112.467 5.91911C112.365 6.63467 111.855 7.14579 111.141 7.24801C110.835 7.24801 110.529 7.24801 110.121 7.24801C108.694 7.04356 107.572 6.12356 107.674 5.20355C107.776 4.28355 109.102 3.77243 110.631 3.97688C110.937 3.97688 111.243 4.0791 111.447 4.18132C112.161 4.38577 112.569 5.10133 112.467 5.91911C112.467 5.81689 112.467 5.91911 112.467 5.91911Z" fill="#182052"/>
<path d="M0.907715 34.0304C0.907715 32.2926 0.907715 30.6571 2.1314 30.1459C3.45705 29.6348 4.17087 30.8615 5.08863 32.4971C6.00639 34.0304 5.5985 35.5638 4.27284 36.0749C3.15113 36.586 0.907715 36.2793 0.907715 34.0304Z" fill="#E2EBFF"/>
<path d="M1.62179 25.6481C1.41784 27.7948 1.11192 28.9193 2.43757 29.4304C3.76323 29.9415 4.47704 28.817 5.70073 27.1815C6.72046 25.7504 6.00665 24.0126 4.68099 23.5015C3.35533 22.9903 1.82573 23.9103 1.62179 25.6481Z" fill="#E2EBFF"/>
<path d="M0.5 29.6349C0.5 28.8171 1.11184 28.2038 1.82566 28.1016C2.13158 27.9993 2.53947 27.9993 2.94736 28.1016C4.57894 28.2038 5.9046 29.1238 5.80262 30.146C5.70065 31.1683 4.37499 31.8838 2.74342 31.6794C2.4375 31.6794 2.13158 31.5771 1.82566 31.4749C1.00987 31.2705 0.5 30.4527 0.5 29.6349Z" fill="#182052"/>
<path d="M7.33252 29.9417C17.8358 29.9417 37.2108 36.075 37.5167 58.4619" stroke="#C0D6FF" stroke-miterlimit="10" stroke-dasharray="4 4"/>
<defs>
<filter id="filter0_d_423_70390" x="57.3677" y="75.8787" width="55.1768" height="55.2612" filterUnits="userSpaceOnUse" color-interpolation-filters="sRGB">
<feFlood flood-opacity="0" result="BackgroundImageFix"/>
<feColorMatrix in="SourceAlpha" type="matrix" values="0 0 0 0 0 0 0 0 0 0 0 0 0 0 0 0 0 0 127 0" result="hardAlpha"/>
<feOffset dy="5"/>
<feGaussianBlur stdDeviation="4"/>
<feColorMatrix type="matrix" values="0 0 0 0 0.1125 0 0 0 0 0.295916 0 0 0 0 1 0 0 0 0.22 0"/>
<feBlend mode="normal" in2="BackgroundImageFix" result="effect1_dropShadow_423_70390"/>
<feBlend mode="normal" in="SourceGraphic" in2="effect1_dropShadow_423_70390" result="shape"/>
</filter>
<linearGradient id="paint0_linear_423_70390" x1="65.3788" y1="98.528" x2="104.564" y2="98.528" gradientUnits="userSpaceOnUse">
<stop stop-color="#83A6FF"/>
<stop offset="1" stop-color="#5277D7"/>
</linearGradient>
</defs>
</svg>
