<svg  viewBox="0 0 122 99" fill="none" xmlns="http://www.w3.org/2000/svg">
<path d="M11.4024 20.1C13.4236 20.1 15.0621 18.4638 15.0621 16.4454C15.0621 14.4271 13.4236 12.7909 11.4024 12.7909C9.38118 12.7909 7.74268 14.4271 7.74268 16.4454C7.74268 18.4638 9.38118 20.1 11.4024 20.1Z" fill="#E2EBFF"/>
<path d="M111.563 31.256C113.584 31.256 115.222 29.6198 115.222 27.6014C115.222 25.5831 113.584 23.9469 111.563 23.9469C109.541 23.9469 107.903 25.5831 107.903 27.6014C107.903 29.6198 109.541 31.256 111.563 31.256Z" fill="#EAEEF9"/>
<path d="M19.8774 12.6947C21.2072 12.6947 22.2851 11.6183 22.2851 10.2904C22.2851 8.96255 21.2072 7.88611 19.8774 7.88611C18.5477 7.88611 17.4697 8.96255 17.4697 10.2904C17.4697 11.6183 18.5477 12.6947 19.8774 12.6947Z" fill="#E2EBFF"/>
<path d="M107.325 15.7722C108.176 15.7722 108.866 15.0833 108.866 14.2335C108.866 13.3836 108.176 12.6947 107.325 12.6947C106.474 12.6947 105.784 13.3836 105.784 14.2335C105.784 15.0833 106.474 15.7722 107.325 15.7722Z" fill="#E2EBFF"/>
<path d="M60.7117 95.595C87.1468 95.595 108.577 74.1953 108.577 47.7975C108.577 21.3997 87.1468 0 60.7117 0C34.2766 0 12.8467 21.3997 12.8467 47.7975C12.8467 74.1953 34.2766 95.595 60.7117 95.595Z" fill="#E2EBFF"/>
<path d="M75.5431 79.3419L29.5079 97.9031C28.7374 98.1916 27.8707 97.807 27.5817 97.1338L1.09706 31.4483C0.808133 30.6789 1.19336 29.8133 1.86752 29.5248L47.9027 10.9636C48.6732 10.6751 49.5399 11.0598 49.8288 11.733L76.3135 77.3223C76.6987 78.1879 76.3135 79.0534 75.5431 79.3419Z" fill="white"/>
<path d="M36.6347 95.0179L29.6042 97.903C28.8337 98.1916 27.967 97.8069 27.678 97.1337L1.09706 31.4482C0.808133 30.6788 1.19336 29.8132 1.86752 29.5247L28.1596 18.9458" stroke="#182052" stroke-miterlimit="10" stroke-linecap="round" stroke-linejoin="round"/>
<path d="M55.222 40.4885L16.6988 55.9722C16.3136 56.1646 15.9283 55.9722 15.7357 55.5875C15.5431 55.2028 15.7357 54.8181 16.121 54.6258L54.5478 39.1421C54.933 38.9498 55.3183 39.1421 55.5109 39.5268C55.7035 39.9115 55.5109 40.2962 55.222 40.4885Z" fill="#E2EBFF"/>
<path d="M56.6667 44.2391L18.2398 59.7228C17.8546 59.9152 17.4694 59.7228 17.2767 59.3381C17.0841 58.9534 17.2767 58.5688 17.662 58.3764L56.0888 42.8927C56.474 42.7004 56.8593 42.8927 57.0519 43.2774C57.2445 43.6621 57.0519 44.0468 56.6667 44.2391Z" fill="#E2EBFF"/>
<path d="M58.2077 47.8937L19.7808 63.4736C19.3956 63.6659 19.0104 63.4736 18.8178 63.0889C18.6251 62.7042 18.8178 62.3195 19.203 62.1271L57.6298 46.6435C58.0151 46.4511 58.4003 46.6435 58.5929 47.0281C58.7855 47.3167 58.5929 47.7975 58.2077 47.8937Z" fill="#E2EBFF"/>
<path d="M35.768 61.3579L21.3218 67.2244C20.9366 67.4167 20.5514 67.2244 20.3588 66.8397C20.1662 66.455 20.3588 66.0703 20.744 65.878L35.1902 60.0115C35.5754 59.8191 35.9606 60.0115 36.1533 60.3962C36.2496 60.7809 36.1533 61.1656 35.768 61.3579Z" fill="#E2EBFF"/>
<path opacity="0.3" d="M63.2154 57.4147L64.4674 60.5884C64.66 61.1654 64.4674 61.8386 63.8896 62.031L25.848 77.4185C25.2701 77.6108 24.596 77.4185 24.4033 76.8414L23.1513 73.6678C22.9587 73.0907 23.1513 72.4175 23.7292 72.2252L61.7708 56.9338C62.3486 56.6453 62.9265 56.9338 63.2154 57.4147Z" fill="#84A2FF"/>
<path opacity="0.3" d="M66.2013 64.7238L67.4533 67.8975C67.6459 68.4745 67.4533 69.1477 66.8754 69.34L28.8338 84.7276C28.2559 84.9199 27.5818 84.7276 27.3892 84.1505L26.1372 80.9768C25.9446 80.3998 26.1372 79.7266 26.715 79.5343L64.7566 64.2429C65.2382 63.9544 65.9123 64.2429 66.2013 64.7238Z" fill="#84A2FF"/>
<path opacity="0.3" d="M69.0904 72.0329L70.3424 75.2065C70.535 75.7836 70.3424 76.4568 69.7646 76.6491L31.723 92.0366C31.1451 92.229 30.471 92.0366 30.2783 91.4596L29.0263 88.2859C28.8337 87.7089 29.0263 87.0357 29.6042 86.8434L67.6458 71.552C68.2236 71.2635 68.8978 71.552 69.0904 72.0329Z" fill="#84A2FF"/>
<path d="M27.6778 70.5903L29.7966 75.8798L25.848 77.4185C25.2701 77.6109 24.596 77.4185 24.4033 76.8415L23.1513 73.6678C22.9587 73.0908 23.1513 72.4176 23.7292 72.2253L27.6778 70.5903Z" fill="#84A2FF"/>
<path d="M26.7146 79.438L38.2716 74.7256L40.3904 80.015L28.8334 84.7275C28.2556 84.9198 27.5814 84.7275 27.3888 84.1504L26.1368 80.9768C25.8479 80.3997 26.1368 79.7265 26.7146 79.438Z" fill="#84A2FF"/>
<path d="M29.6042 86.7472L31.2414 86.074L33.3602 91.3634L31.723 92.0366C31.1451 92.229 30.471 92.0366 30.2783 91.4596L29.0263 88.2859C28.8337 87.7089 29.0263 87.0357 29.6042 86.7472Z" fill="#84A2FF"/>
<path d="M30.182 37.2185C30.0857 31.9291 25.7518 27.6013 20.3586 27.6013H20.2623C14.869 27.6013 10.5352 32.0252 10.5352 37.4109C10.5352 42.7965 14.9653 47.2204 20.3586 47.2204C23.3441 47.2204 25.9444 45.874 27.7743 43.8544C29.3152 42.1233 30.182 39.9113 30.182 37.4109C30.182 37.3147 30.182 37.3147 30.182 37.2185ZM20.4549 44.0467C16.7952 44.0467 13.8096 41.0654 13.8096 37.4109C13.8096 33.7563 16.7952 30.775 20.4549 30.775H20.5512C24.2109 30.775 27.1001 33.6602 27.1964 37.2185C27.1964 37.3147 27.1964 37.3147 27.1964 37.4109C27.1964 39.0458 26.6186 40.5845 25.5592 41.7386C24.2109 43.1812 22.4773 44.0467 20.4549 44.0467Z" fill="#E2EBFF"/>
<path d="M30.1823 37.2185H27.0041C27.0041 33.6602 24.0186 30.775 20.4552 30.775H20.3589V27.6013H20.4552C25.7521 27.6013 30.086 31.9291 30.1823 37.2185Z" fill="#84A2FF"/>
<path d="M94.3232 94.2485L47.8064 76.9376C47.036 76.6491 46.6508 75.7835 46.9397 75.0141L71.5945 8.75162C71.8834 7.98225 72.7502 7.59756 73.5207 7.88608L120.037 25.1009C120.808 25.3894 121.193 26.2549 120.904 27.0243L96.2493 93.383C95.9604 94.1524 95.0936 94.5371 94.3232 94.2485Z" fill="white"/>
<path d="M95.2861 15.9646L120.037 25.1971C120.808 25.4856 121.193 26.3512 120.904 27.1206L96.2492 93.3831C95.9603 94.1524 95.0935 94.5371 94.3231 94.2486L88.8335 92.229" stroke="#182052" stroke-miterlimit="10" stroke-linecap="round" stroke-linejoin="round"/>
<path opacity="0.4" d="M91.3242 29.0531L87.5171 27.6882L84.4256 36.2874L88.2327 37.6522L91.3242 29.0531Z" fill="#84A2FF"/>
<path d="M97.9126 26.3802L94.1055 25.0154L89.4194 38.0499L93.2265 39.4147L97.9126 26.3802Z" fill="#84A2FF"/>
<path d="M109.64 25.8607L105.833 24.4958L99.617 41.7846L103.424 43.1495L109.64 25.8607Z" fill="#84A2FF"/>
<path opacity="0.4" d="M109.878 40.1587L106.071 38.7938L104.379 43.5007L108.186 44.8656L109.878 40.1587Z" fill="#84A2FF"/>
<path d="M105.495 51.8367L66.5862 37.4109C66.2009 37.3148 66.0083 36.8339 66.1046 36.4492C66.2009 36.0645 66.6825 35.8722 67.0677 35.9684L105.976 50.3942C106.361 50.4903 106.554 50.9712 106.458 51.3559C106.265 51.7406 105.88 51.9329 105.495 51.8367Z" fill="#E2EBFF"/>
<path d="M104.05 55.5874L65.1418 41.1615C64.7566 41.0654 64.564 40.5845 64.6603 40.1998C64.7566 39.8151 65.2381 39.6228 65.6234 39.719L104.532 54.1448C104.917 54.2409 105.11 54.7218 105.013 55.1065C104.917 55.4912 104.435 55.7797 104.05 55.5874Z" fill="#E2EBFF"/>
<path d="M102.702 59.338L63.7937 44.9122C63.4084 44.816 63.2158 44.3351 63.3121 43.9504C63.4084 43.5657 63.89 43.3734 64.2752 43.4696L103.184 57.8954C103.569 57.9916 103.761 58.4724 103.665 58.8571C103.473 59.338 103.087 59.5303 102.702 59.338Z" fill="#E2EBFF"/>
<path d="M77.0838 54.1447L62.4451 48.7591C62.0598 48.6629 61.8672 48.182 61.9635 47.7974C62.0598 47.4127 62.5414 47.2203 62.9266 47.3165L77.5654 52.7021C77.9506 52.7983 78.1432 53.2792 78.0469 53.6639C77.8543 54.0485 77.4691 54.2409 77.0838 54.1447Z" fill="#DDDDDD"/>
<path opacity="0.3" d="M100.005 69.7247L98.8493 72.9946C98.6567 73.5716 97.9825 73.8601 97.4047 73.6678L89.1222 70.5903L58.8815 59.3382C58.3037 59.1458 58.0148 58.4726 58.2074 57.8956L59.3631 54.6257C59.5557 54.0487 60.2298 53.7602 60.8077 53.9525L90.8558 65.1085L99.2345 68.186C99.9087 68.5707 100.198 69.1477 100.005 69.7247Z" fill="#EA67A4"/>
<path opacity="0.3" d="M97.2124 77.1299L96.0567 80.3998C95.8641 80.9768 95.1899 81.2653 94.6121 81.073L91.8192 80.0151L56.1852 66.8395C55.6074 66.6472 55.3185 65.974 55.5111 65.3969L56.6668 62.1271C56.8594 61.55 57.5336 61.2615 58.1114 61.4539L93.8416 74.7256L96.5382 75.7835C97.1161 75.9759 97.405 76.5529 97.2124 77.1299Z" fill="#EA67A4"/>
<path opacity="0.3" d="M94.5156 84.5352L93.3599 87.805C93.1673 88.3821 92.4932 88.6706 91.9153 88.4782L77.6617 83.1888L53.4885 74.2448C52.9106 74.0524 52.6217 73.3792 52.8143 72.8022L53.97 69.5324C54.1626 68.9553 54.8368 68.6668 55.4146 68.8591L80.1658 77.9955L93.8415 83.0926C94.4193 83.285 94.7082 83.9582 94.5156 84.5352Z" fill="#EA67A4"/>
<path d="M55.4146 68.8591L80.1657 77.9954L77.6617 83.0925L53.4885 74.1485C52.9106 73.9562 52.6217 73.283 52.8143 72.706L53.97 69.4361C54.1626 68.9552 54.8368 68.6667 55.4146 68.8591Z" fill="#EA67A4"/>
<path d="M58.2074 57.9917L59.3631 54.7218C59.5557 54.1448 60.2298 53.8563 60.8077 54.0486L90.8558 65.2046L88.9296 70.494L58.8815 59.3381C58.3037 59.1457 58.0148 58.5687 58.2074 57.9917Z" fill="#EA67A4"/>
<path d="M93.8416 74.7256L91.8192 80.0151L56.1852 66.8395C55.6074 66.6472 55.3185 65.974 55.5111 65.3969L56.6668 62.1271C56.8594 61.55 57.5336 61.2615 58.1114 61.4539L93.8416 74.7256Z" fill="#EA67A4"/>
<path d="M68.0308 56.7415L66.1046 62.031L58.8815 59.3382C58.3037 59.1458 58.0148 58.4726 58.2074 57.8956L59.3631 54.6257C59.5557 54.0487 60.2298 53.7602 60.8077 53.9525L68.0308 56.7415Z" fill="#DDDDDD"/>
<path d="M58.1114 61.4538L65.3345 64.1466L63.4083 69.4361L56.1852 66.7433C55.6074 66.5509 55.3185 65.8777 55.5111 65.3007L56.6668 62.0308C56.9557 61.55 57.5336 61.2615 58.1114 61.4538Z" fill="#DDDDDD"/>
<path d="M55.4146 68.8591L62.6377 71.5519L60.7116 76.8414L53.4885 74.1485C52.9106 73.9562 52.6217 73.283 52.8143 72.706L53.97 69.4361C54.1626 68.9552 54.8368 68.6667 55.4146 68.8591Z" fill="#DDDDDD"/>
<path d="M86.0407 78.1878H36.4422C35.6717 78.1878 34.9976 77.5146 34.9976 76.7452V5.9626C34.9976 5.19322 35.6717 4.52002 36.4422 4.52002H86.0407C86.8112 4.52002 87.4854 5.19322 87.4854 5.9626V76.649C87.5817 77.5146 86.9075 78.1878 86.0407 78.1878Z" fill="white"/>
<path d="M55.415 4.52002H86.1373C86.9077 4.52002 87.5819 5.19322 87.5819 5.9626V76.649C87.5819 77.4184 86.9077 78.0916 86.1373 78.0916H82.3812" stroke="#182052" stroke-miterlimit="10" stroke-linecap="round" stroke-linejoin="round"/>
<path d="M47.9023 4.52002H48.8654" stroke="#182052" stroke-miterlimit="10" stroke-linecap="round" stroke-linejoin="round"/>
<path d="M42.6059 78.1878H36.4422C35.6717 78.1878 34.9976 77.5146 34.9976 76.7452V5.9626C34.9976 5.19322 35.6717 4.52002 36.4422 4.52002H42.6059" stroke="#182052" stroke-miterlimit="10" stroke-linecap="round" stroke-linejoin="round"/>
<path d="M81.7068 31.7368H40.2944C39.9092 31.7368 39.5239 31.4482 39.5239 30.9674C39.5239 30.5827 39.8128 30.198 40.2944 30.198H81.7068C82.092 30.198 82.4772 30.4865 82.4772 30.9674C82.4772 31.3521 82.092 31.7368 81.7068 31.7368Z" fill="#E2EBFF"/>
<path d="M81.7068 35.6799H40.2944C39.9092 35.6799 39.5239 35.3913 39.5239 34.9105C39.5239 34.5258 39.8128 34.1411 40.2944 34.1411H81.7068C82.092 34.1411 82.4772 34.4296 82.4772 34.9105C82.4772 35.3913 82.092 35.6799 81.7068 35.6799Z" fill="#E2EBFF"/>
<path d="M81.7068 39.719H40.2944C39.9092 39.719 39.5239 39.4305 39.5239 38.9497C39.5239 38.565 39.8128 38.1803 40.2944 38.1803H81.7068C82.092 38.1803 82.4772 38.4688 82.4772 38.9497C82.4772 39.4305 82.092 39.719 81.7068 39.719Z" fill="#E2EBFF"/>
<path d="M81.6106 54.818H67.6459C67.2607 54.818 66.8755 54.5295 66.8755 54.0487C66.8755 53.664 67.1644 53.2793 67.6459 53.2793H81.6106C81.9958 53.2793 82.3811 53.5678 82.3811 54.0487C82.2847 54.4334 81.9958 54.818 81.6106 54.818Z" fill="#E2EBFF"/>
<path d="M59.0745 58.9534C58.9782 53.6639 54.6444 49.3362 49.2511 49.3362H49.1548C43.7616 49.3362 39.4277 53.7601 39.4277 59.1457C39.4277 64.5314 43.8579 68.9553 49.2511 68.9553C52.2367 68.9553 54.837 67.6089 56.6668 65.5893C58.2078 63.8582 59.0745 61.6462 59.0745 59.1457C59.0745 59.0496 59.0745 58.9534 59.0745 58.9534ZM49.2511 65.6854C45.5914 65.6854 42.6059 62.7041 42.6059 59.0496C42.6059 55.395 45.5914 52.4137 49.2511 52.4137H49.3474C53.0071 52.4137 55.8964 55.2988 55.9927 58.8572C55.9927 58.9534 55.9927 58.9534 55.9927 59.0496C55.9927 60.6845 55.4148 62.2232 54.3555 63.3773C53.0071 64.8199 51.2736 65.6854 49.2511 65.6854Z" fill="#E2EBFF"/>
<path d="M59.0745 58.9534H55.8963C55.8 55.395 52.9108 52.5099 49.2511 52.5099H49.1548V49.3362H49.2511C54.6443 49.3362 58.9782 53.5678 59.0745 58.9534Z" fill="#EA67A4"/>
<path d="M59.0742 59.0495C59.0742 61.55 58.2074 63.762 56.6665 65.4931L54.2588 63.4735C55.3182 62.3194 55.896 60.7806 55.896 59.1457C55.896 59.0495 55.896 59.0495 55.896 58.9534H59.0742V59.0495Z" fill="#84A2FF"/>
<path d="M64.2747 55.1065C64.8598 55.1065 65.3341 54.6329 65.3341 54.0486C65.3341 53.4644 64.8598 52.9907 64.2747 52.9907C63.6896 52.9907 63.2153 53.4644 63.2153 54.0486C63.2153 54.6329 63.6896 55.1065 64.2747 55.1065Z" fill="#E2EBFF"/>
<path d="M81.6106 59.2419H67.6459C67.2607 59.2419 66.8755 58.9534 66.8755 58.4725C66.8755 58.0878 67.1644 57.7031 67.6459 57.7031H81.6106C81.9958 57.7031 82.3811 57.9916 82.3811 58.4725C82.2847 58.8572 81.9958 59.2419 81.6106 59.2419Z" fill="#E2EBFF"/>
<path d="M64.2747 59.5305C64.8598 59.5305 65.3341 59.0568 65.3341 58.4726C65.3341 57.8883 64.8598 57.4147 64.2747 57.4147C63.6896 57.4147 63.2153 57.8883 63.2153 58.4726C63.2153 59.0568 63.6896 59.5305 64.2747 59.5305Z" fill="#EA67A4"/>
<path d="M81.6106 63.6658H67.6459C67.2607 63.6658 66.8755 63.3773 66.8755 62.8965C66.8755 62.5118 67.1644 62.1271 67.6459 62.1271H81.6106C81.9958 62.1271 82.3811 62.4156 82.3811 62.8965C82.2847 63.2811 81.9958 63.6658 81.6106 63.6658Z" fill="#E2EBFF"/>
<path d="M64.2747 63.9544C64.8598 63.9544 65.3341 63.4808 65.3341 62.8965C65.3341 62.3123 64.8598 61.8386 64.2747 61.8386C63.6896 61.8386 63.2153 62.3123 63.2153 62.8965C63.2153 63.4808 63.6896 63.9544 64.2747 63.9544Z" fill="#84A2FF"/>
<path d="M83.6333 89.7284C83.6333 94.1524 80.0699 97.7107 75.6398 97.7107C75.6398 97.7107 75.5434 97.7107 73.4247 97.7107C72.5579 97.7107 71.4985 97.7107 69.9576 97.7107C66.1053 97.7107 59.749 97.7107 49.1551 97.7107C43.8582 97.9031 39.6206 93.5753 39.6206 88.4782C39.6206 83.2849 43.8582 79.0533 49.2514 79.2457C53.8742 64.8199 74.9656 66.8395 76.7954 81.7462C80.6478 82.3232 83.6333 85.6892 83.6333 89.7284Z" fill="#84A2FF"/>
<path d="M72.0767 82.6116C73.136 82.0346 74.388 81.7461 75.64 81.7461C76.0253 81.7461 76.3142 81.7461 76.6994 81.8423" stroke="#182052" stroke-miterlimit="10" stroke-linecap="round" stroke-linejoin="round"/>
<path d="M48.481 83.5735C48.481 82.0347 48.6736 80.5921 49.1551 79.2457" stroke="#182052" stroke-miterlimit="10" stroke-linecap="round" stroke-linejoin="round"/>
<path d="M59.2673 69.8208C66.7793 68.0898 75.5433 72.3213 76.7953 81.7462C80.744 82.227 83.7295 85.5931 83.7295 89.6323C83.7295 94.0562 80.1661 97.6146 75.7359 97.6146C75.7359 97.6146 75.6396 97.6146 73.5209 97.6146C72.6541 97.6146 71.5947 97.6146 70.0538 97.6146C66.2015 97.6146 59.8451 97.6146 49.2513 97.6146C43.9543 97.8069 39.7168 93.4792 39.7168 88.3821C39.7168 83.1888 43.9543 78.9572 49.3476 79.1495C50.118 76.6491 51.4664 74.6295 53.1036 73.0907" stroke="#182052" stroke-miterlimit="10" stroke-linecap="round" stroke-linejoin="round"/>
<path d="M55.415 71.3598C55.5113 71.2635 55.704 71.1672 55.8003 71.1672" stroke="#182052" stroke-miterlimit="10" stroke-linecap="round" stroke-linejoin="round"/>
<path d="M61.8672 78.1878L57.2445 82.8041C56.7629 83.2849 56.7629 84.0543 57.2445 84.5352C57.726 85.016 58.4965 85.016 58.8817 84.5352L61.482 81.9385V88.8629C61.482 89.5361 62.0598 90.017 62.6377 90.017C63.3119 90.017 63.7934 89.4399 63.7934 88.8629V81.9385L66.3937 84.5352C66.8752 85.016 67.6457 85.016 68.1272 84.5352C68.6088 84.0543 68.6088 83.2849 68.1272 82.9002L63.5045 78.284C63.1192 77.707 62.3488 77.707 61.8672 78.1878Z" fill="white"/>
<path d="M39.813 26.4473H82.3811V9.23254L75.6395 12.5986L72.0761 15.099L65.7198 15.0029L60.134 17.888L55.3186 18.5612L53.585 20.4847L48.577 23.6583L43.6653 24.5239L39.813 26.4473Z" fill="#EA67A4"/>
<path d="M39.813 26.4473H82.3811V13.3679L75.6395 15.8684L72.0761 17.7918L65.7198 17.6957L60.134 19.9076L55.3186 20.4846L53.585 21.8311L48.577 24.3315L43.6653 25.0047L39.813 26.4473Z" fill="#E2EBFF"/>
<path opacity="0.4" d="M39.813 26.4474H82.3811V19.0421L75.6395 20.4847L72.0761 21.5426H65.7198L60.134 22.6967L55.3186 23.0813L53.585 23.8507L48.577 25.1971L43.6653 25.5818L39.813 26.4474Z" fill="#84A2FF"/>
</svg>
