<svg width="16" height="16" viewBox="0 0 16 16" fill="none" xmlns="http://www.w3.org/2000/svg">
<path fill-rule="evenodd" clip-rule="evenodd" d="M13.2208 7.03886C13.516 7.03886 13.7553 6.80189 13.7553 6.50956C13.7553 6.21724 13.516 5.98026 13.2208 5.98026H10.732L14.3435 2.40357C14.5522 2.19687 14.5522 1.86173 14.3435 1.65503C14.1347 1.44832 13.7964 1.44832 13.5876 1.65503L9.97617 5.23171V2.76683C9.97617 2.47451 9.73688 2.23753 9.44172 2.23753C9.14655 2.23753 8.90727 2.47451 8.90727 2.76683L8.90727 6.50956C8.90727 6.80189 9.14655 7.03886 9.44172 7.03886L13.2208 7.03886ZM2.58231 9.15608C2.28715 9.15608 2.04787 9.39306 2.04787 9.68538C2.04787 9.97771 2.28715 10.2147 2.58232 10.2147H5.07117L1.65654 13.5964C1.44782 13.8031 1.44782 14.1383 1.65654 14.345C1.86525 14.5517 2.20365 14.5517 2.41236 14.345L5.82699 10.9632L5.827 13.4281C5.827 13.7204 6.06628 13.9574 6.36144 13.9574C6.65661 13.9574 6.89589 13.7204 6.89589 13.4281L6.89589 9.68538C6.89589 9.39306 6.65661 9.15608 6.36144 9.15608H2.58231Z" fill="currentColor"/>
</svg>
