<svg width="16" height="16" viewBox="0 0 16 16" fill="none" xmlns="http://www.w3.org/2000/svg">
<path d="M5.67026 5.73599C5.81205 5.88211 6.02827 5.92766 6.21696 5.85117C6.40565 5.77467 6.5291 5.5914 6.5291 5.3878V2.81982C6.5291 2.80061 6.53621 2.78679 6.54466 2.77808C6.55286 2.76963 6.55939 2.76838 6.56418 2.76838C6.56897 2.76838 6.57549 2.76963 6.58369 2.77808C6.59215 2.78679 6.59925 2.80061 6.59925 2.81982L6.59925 6.7191C6.59925 6.73831 6.59215 6.75212 6.58369 6.76084C6.57549 6.76929 6.56897 6.77054 6.56418 6.77054H2.78064C2.77584 6.77054 2.76932 6.76929 2.76112 6.76084C2.75267 6.75212 2.74556 6.73831 2.74556 6.7191C2.74556 6.69989 2.75267 6.68607 2.76112 6.67736C2.76932 6.66891 2.77585 6.66766 2.78064 6.66766L5.2724 6.66766C5.47326 6.66766 5.65462 6.54746 5.73288 6.36247C5.81114 6.17749 5.77111 5.96362 5.63124 5.81947L2.01556 2.09318C2.0067 2.08405 2 2.07007 2 2.05144C2 2.03282 2.0067 2.01883 2.01556 2.0097C2.02036 2.00475 2.02412 2.00271 2.02653 2.00171C2.02925 2.00057 2.03213 2 2.03507 2C2.03802 2 2.0409 2.00057 2.04362 2.00171C2.04602 2.00271 2.04979 2.00475 2.05459 2.0097L5.67026 5.73599ZM10.3297 10.264C10.188 10.1179 9.97172 10.0723 9.78304 10.1488C9.59435 10.2253 9.4709 10.4086 9.4709 10.6122V13.1802C9.4709 13.1994 9.46379 13.2132 9.45534 13.2219C9.44714 13.2304 9.44061 13.2316 9.43582 13.2316C9.43103 13.2316 9.42451 13.2304 9.41631 13.2219C9.40785 13.2132 9.40075 13.1994 9.40075 13.1802V9.2809C9.40075 9.26169 9.40785 9.24788 9.41631 9.23916C9.42451 9.23071 9.43103 9.22946 9.43582 9.22946L13.2194 9.22946C13.2242 9.22946 13.2307 9.23071 13.2389 9.23916C13.2473 9.24788 13.2544 9.26169 13.2544 9.2809C13.2544 9.30011 13.2473 9.31393 13.2389 9.32264C13.2307 9.33109 13.2242 9.33234 13.2194 9.33234L10.7276 9.33234C10.5267 9.33234 10.3454 9.45254 10.2671 9.63753C10.1889 9.82251 10.2289 10.0364 10.3688 10.1805L13.9844 13.9068L14.3433 13.5586L13.9844 13.9068C13.9933 13.9159 14 13.9299 14 13.9486C14 13.9672 13.9933 13.9812 13.9844 13.9903C13.9796 13.9952 13.9759 13.9973 13.9735 13.9983C13.9728 13.9986 13.9722 13.9988 13.9715 13.999C13.9694 13.9997 13.9672 14 13.9649 14C13.962 14 13.9591 13.9994 13.9564 13.9983C13.954 13.9973 13.9502 13.9952 13.9454 13.9903L10.3297 10.264Z" stroke="#6F7590" stroke-linecap="round" stroke-linejoin="round"/>
</svg>
