<svg width="16" height="16" viewBox="0 0 16 16" fill="none" xmlns="http://www.w3.org/2000/svg">
<path d="M12 8.66667C12.3682 8.66667 12.6667 8.96514 12.6667 9.33333V12.6667C12.6667 13.0203 12.5262 13.3594 12.2761 13.6095C12.0261 13.8595 11.687 14 11.3333 14H3.33333C2.97971 14 2.64057 13.8595 2.39052 13.6095C2.14048 13.3594 2 13.0203 2 12.6667V4.66667C2 4.31304 2.14048 3.97391 2.39052 3.72386C2.64057 3.47381 2.97971 3.33333 3.33333 3.33333H6.66667C7.03486 3.33333 7.33333 3.63181 7.33333 4C7.33333 4.36819 7.03486 4.66667 6.66667 4.66667H3.83333C3.55719 4.66667 3.33333 4.89052 3.33333 5.16667V12.1667C3.33333 12.4428 3.55719 12.6667 3.83333 12.6667H10.8333C11.1095 12.6667 11.3333 12.4428 11.3333 12.1667V9.33333C11.3333 8.96514 11.6318 8.66667 12 8.66667ZM9.33333 2C8.96514 2 8.66667 2.29848 8.66667 2.66667C8.66667 3.03486 8.96514 3.33333 9.33333 3.33333H11.724L7 8.05733C6.73969 8.31764 6.73969 8.73969 7 9C7.26031 9.26031 7.68236 9.26031 7.94267 9L12.6667 4.276V6.66667C12.6667 7.03486 12.9651 7.33333 13.3333 7.33333C13.7015 7.33333 14 7.03486 14 6.66667V2H9.33333Z" fill="#6F7590"/>
</svg>
