<svg viewBox="0 0 32 32" fill="none" xmlns="http://www.w3.org/2000/svg">
<rect width="32" height="32" rx="4" fill="#F4F6FD"/>
<path d="M10.4096 18.3162C9.6017 16.9543 9.31876 15.3442 9.61393 13.7884C9.9091 12.2326 10.7621 10.8381 12.0127 9.86667C13.2633 8.89525 14.8255 8.4138 16.406 8.5127C17.9864 8.6116 19.4764 9.28406 20.5962 10.4038C21.7159 11.5235 22.3884 13.0135 22.4873 14.594C22.5862 16.1745 22.1048 17.7367 21.1334 18.9873C20.1619 20.2379 18.7674 21.0909 17.2116 21.3861C15.6558 21.6812 14.0458 21.3983 12.6838 20.5904L12.6838 20.5903L10.4379 21.232C10.345 21.2586 10.2466 21.2598 10.1531 21.2355C10.0595 21.2113 9.97418 21.1625 9.90584 21.0942C9.83751 21.0258 9.78869 20.9405 9.76445 20.8469C9.74021 20.7534 9.74143 20.655 9.76798 20.5621L10.4097 18.3162L10.4096 18.3162Z" stroke="#5277D7" stroke-linecap="round" stroke-linejoin="round"/>
<path d="M16 15.5C16.2761 15.5 16.5 15.2761 16.5 15C16.5 14.7239 16.2761 14.5 16 14.5C15.7239 14.5 15.5 14.7239 15.5 15C15.5 15.2761 15.7239 15.5 16 15.5Z" fill="#5277D7"/>
<path d="M13 15.5C13.2761 15.5 13.5 15.2761 13.5 15C13.5 14.7239 13.2761 14.5 13 14.5C12.7239 14.5 12.5 14.7239 12.5 15C12.5 15.2761 12.7239 15.5 13 15.5Z" fill="#5277D7"/>
<path d="M19 15.5C19.2761 15.5 19.5 15.2761 19.5 15C19.5 14.7239 19.2761 14.5 19 14.5C18.7239 14.5 18.5 14.7239 18.5 15C18.5 15.2761 18.7239 15.5 19 15.5Z" fill="#5277D7"/>
</svg>
