<svg  viewBox="0 0 16 16" fill="none" xmlns="http://www.w3.org/2000/svg">
<path d="M2.40962 11.3162C1.6017 9.95428 1.31876 8.34423 1.61393 6.78843C1.9091 5.23262 2.76207 3.83808 4.01268 2.86667C5.26328 1.89525 6.8255 1.4138 8.40596 1.5127C9.98643 1.6116 11.4764 2.28406 12.5962 3.4038C13.7159 4.52354 14.3884 6.01354 14.4873 7.59401C14.5862 9.17447 14.1048 10.7367 13.1334 11.9873C12.1619 13.2379 10.7674 14.0909 9.2116 14.3861C7.6558 14.6812 6.04575 14.3983 4.68379 13.5904L4.68381 13.5903L2.43789 14.232C2.34497 14.2586 2.24664 14.2598 2.15309 14.2355C2.05954 14.2113 1.97418 14.1625 1.90584 14.0942C1.83751 14.0258 1.78869 13.9405 1.76445 13.8469C1.74021 13.7534 1.74143 13.655 1.76798 13.5621L2.40967 11.3162L2.40962 11.3162Z" stroke="#64748B" stroke-linecap="round" stroke-linejoin="round"/>
<path d="M8 8.5C8.27614 8.5 8.5 8.27614 8.5 8C8.5 7.72386 8.27614 7.5 8 7.5C7.72386 7.5 7.5 7.72386 7.5 8C7.5 8.27614 7.72386 8.5 8 8.5Z" fill="#64748B"/>
<path d="M5 8.5C5.27614 8.5 5.5 8.27614 5.5 8C5.5 7.72386 5.27614 7.5 5 7.5C4.72386 7.5 4.5 7.72386 4.5 8C4.5 8.27614 4.72386 8.5 5 8.5Z" fill="#64748B"/>
<path d="M11 8.5C11.2761 8.5 11.5 8.27614 11.5 8C11.5 7.72386 11.2761 7.5 11 7.5C10.7239 7.5 10.5 7.72386 10.5 8C10.5 8.27614 10.7239 8.5 11 8.5Z" fill="#64748B"/>
</svg>
