<svg viewBox="0 0 16 16" fill="none" xmlns="http://www.w3.org/2000/svg">
<path d="M4.06639 3.99203C4.37298 3.46929 5.12872 3.46929 5.43531 3.99203L7.19146 6.98624C7.50172 7.51523 7.12025 8.18119 6.50699 8.18119H2.9947C2.38144 8.18119 1.99998 7.51522 2.31024 6.98624L4.06639 3.99203Z" fill="#6F7590"/>
<path d="M4.14631 8.19064C4.14631 7.85674 4.41699 7.58606 4.75088 7.58606C5.08478 7.58606 5.35546 7.85674 5.35546 8.19064V11.7425C5.35546 12.0764 5.08478 12.3471 4.75088 12.3471C4.41699 12.3471 4.14631 12.0764 4.14631 11.7425V8.19064Z" fill="#6F7590"/>
<path d="M8.37827 4.61042C8.37827 4.28174 8.64472 4.01529 8.9734 4.01529H13.2243C13.553 4.01529 13.8195 4.28174 13.8195 4.61042C13.8195 4.9391 13.553 5.20555 13.2243 5.20555H8.9734C8.64472 5.20555 8.37827 4.9391 8.37827 4.61042Z" fill="#6F7590"/>
<path d="M8.37827 9.37144C8.37827 9.04275 8.64472 8.77631 8.9734 8.77631H11.4106C11.7393 8.77631 12.0057 9.04275 12.0057 9.37144C12.0057 9.70012 11.7393 9.96656 11.4106 9.96656H8.9734C8.64472 9.96656 8.37827 9.70012 8.37827 9.37144Z" fill="#6F7590"/>
<path d="M8.37827 6.99091C8.37827 6.66223 8.64472 6.39578 8.9734 6.39578H12.6197C12.9484 6.39578 13.2149 6.66223 13.2149 6.99091C13.2149 7.31959 12.9484 7.58604 12.6197 7.58604H8.9734C8.64472 7.58604 8.37827 7.31959 8.37827 6.99091Z" fill="#6F7590"/>
<path d="M8.37827 11.752C8.37827 11.4233 8.64472 11.1568 8.9734 11.1568H10.806C11.1347 11.1568 11.4012 11.4233 11.4012 11.752C11.4012 12.0806 11.1347 12.3471 10.806 12.3471H8.9734C8.64472 12.3471 8.37827 12.0806 8.37827 11.752Z" fill="#6F7590"/>
<path fill-rule="evenodd" clip-rule="evenodd" d="M12.8 5.89999C14.1807 5.89999 15.3 4.78071 15.3 3.39999C15.3 2.01928 14.1807 0.899994 12.8 0.899994C11.4193 0.899994 10.3 2.01928 10.3 3.39999C10.3 4.78071 11.4193 5.89999 12.8 5.89999ZM12.8 1.525C11.7645 1.525 10.925 2.36447 10.925 3.4C10.925 3.4 10.925 3.40001 10.925 3.4C10.925 2.36447 11.7645 1.525 12.8 1.525Z" fill="#5277D7"/>
</svg>
