<svg viewBox="0 0 16 16" fill="none" xmlns="http://www.w3.org/2000/svg">
<path d="M4.06639 3.99203C4.37298 3.46929 5.12872 3.46929 5.43531 3.99203L7.19146 6.98624C7.50172 7.51523 7.12025 8.18119 6.50699 8.18119H2.9947C2.38144 8.18119 1.99998 7.51522 2.31024 6.98624L4.06639 3.99203Z" fill="#6F7590"/>
<path d="M4.14631 8.19064C4.14631 7.85674 4.41699 7.58606 4.75088 7.58606C5.08478 7.58606 5.35546 7.85674 5.35546 8.19064V11.7425C5.35546 12.0764 5.08478 12.3471 4.75088 12.3471C4.41699 12.3471 4.14631 12.0764 4.14631 11.7425V8.19064Z" fill="#6F7590"/>
<path d="M8.37827 4.61045C8.37827 4.28177 8.64472 4.01532 8.9734 4.01532H13.2243C13.553 4.01532 13.8195 4.28177 13.8195 4.61045C13.8195 4.93913 13.553 5.20558 13.2243 5.20558H8.9734C8.64472 5.20558 8.37827 4.93913 8.37827 4.61045Z" fill="#6F7590"/>
<path d="M8.37827 9.37144C8.37827 9.04275 8.64472 8.77631 8.9734 8.77631H11.4106C11.7393 8.77631 12.0057 9.04275 12.0057 9.37144C12.0057 9.70012 11.7393 9.96656 11.4106 9.96656H8.9734C8.64472 9.96656 8.37827 9.70012 8.37827 9.37144Z" fill="#6F7590"/>
<path d="M8.37827 6.99094C8.37827 6.66226 8.64472 6.39581 8.9734 6.39581H12.6197C12.9484 6.39581 13.2149 6.66226 13.2149 6.99094C13.2149 7.31962 12.9484 7.58607 12.6197 7.58607H8.9734C8.64472 7.58607 8.37827 7.31962 8.37827 6.99094Z" fill="#6F7590"/>
<path d="M8.37827 11.7519C8.37827 11.4232 8.64472 11.1568 8.9734 11.1568H10.806C11.1347 11.1568 11.4012 11.4232 11.4012 11.7519C11.4012 12.0806 11.1347 12.3471 10.806 12.3471H8.9734C8.64472 12.3471 8.37827 12.0806 8.37827 11.7519Z" fill="#6F7590"/>
</svg>
