<svg  viewBox="0 0 16 16" fill="none" xmlns="http://www.w3.org/2000/svg">
<path d="M2.63028 3H13.3697C13.4666 3 13.5614 3.02814 13.6425 3.08099C13.7237 3.13384 13.7878 3.20914 13.827 3.29772C13.8662 3.38631 13.8788 3.48437 13.8633 3.57999C13.8478 3.6756 13.8049 3.76466 13.7397 3.83634L9.63003 8.35697C9.54636 8.449 9.5 8.56892 9.5 8.6933V12.2324C9.5 12.3147 9.47968 12.3958 9.44084 12.4683C9.402 12.5409 9.34584 12.6028 9.27735 12.6484L7.27735 13.9818C7.20205 14.032 7.11454 14.0608 7.02415 14.0652C6.93375 14.0695 6.84387 14.0493 6.76408 14.0066C6.68428 13.9639 6.61758 13.9003 6.57107 13.8227C6.52457 13.745 6.5 13.6562 6.5 13.5657V8.6933C6.5 8.56892 6.45364 8.449 6.36997 8.35697L2.26031 3.83634C2.19515 3.76466 2.15221 3.6756 2.13672 3.57999C2.12122 3.48437 2.13384 3.38631 2.17302 3.29772C2.21221 3.20914 2.27628 3.13384 2.35746 3.08099C2.43863 3.02814 2.53341 3 2.63028 3V3Z" stroke="currentColor" stroke-linecap="round" stroke-linejoin="round"/>
</svg>
