<svg width="16" height="16" viewBox="0 0 16 16" fill="none" xmlns="http://www.w3.org/2000/svg">
<path d="M2.63025 3H13.3697C13.4666 3 13.5613 3.02814 13.6425 3.08099C13.7237 3.13384 13.7878 3.20914 13.827 3.29772C13.8661 3.38631 13.8788 3.48437 13.8633 3.57999C13.8478 3.6756 13.8048 3.76466 13.7397 3.83634L9.63 8.35697C9.54633 8.449 9.49997 8.56892 9.49997 8.6933V12.2324C9.49997 12.3147 9.47965 12.3958 9.44081 12.4683C9.40197 12.5409 9.34581 12.6028 9.27732 12.6484L7.27732 13.9818C7.20202 14.032 7.11451 14.0608 7.02412 14.0652C6.93372 14.0695 6.84384 14.0493 6.76404 14.0066C6.68425 13.9639 6.61755 13.9003 6.57104 13.8227C6.52454 13.745 6.49997 13.6562 6.49997 13.5657V8.6933C6.49997 8.56892 6.45361 8.449 6.36994 8.35697L2.26028 3.83634C2.19512 3.76466 2.15218 3.6756 2.13669 3.57999C2.12119 3.48437 2.13381 3.38631 2.17299 3.29772C2.21218 3.20914 2.27625 3.13384 2.35743 3.08099C2.4386 3.02814 2.53338 3 2.63025 3V3Z" stroke="#64748B" stroke-linecap="round" stroke-linejoin="round"/>
<path d="M13 5.5C14.3807 5.5 15.5 4.38071 15.5 3C15.5 1.61929 14.3807 0.5 13 0.5C11.6193 0.5 10.5 1.61929 10.5 3C10.5 4.38071 11.6193 5.5 13 5.5Z" fill="#5277D7" stroke="white"/>
</svg>
