<svg width="16" height="16" viewBox="0 0 16 16" fill="none" xmlns="http://www.w3.org/2000/svg">
<path d="M13.4064 11.6597L9.99977 5.81967V2.66634H10.6664C10.8432 2.66634 11.0128 2.5961 11.1378 2.47108C11.2629 2.34605 11.3331 2.17649 11.3331 1.99967C11.3331 1.82286 11.2629 1.65329 11.1378 1.52827C11.0128 1.40325 10.8432 1.33301 10.6664 1.33301H5.3331C5.15629 1.33301 4.98672 1.40325 4.8617 1.52827C4.73668 1.65329 4.66644 1.82286 4.66644 1.99967C4.66644 2.17649 4.73668 2.34605 4.8617 2.47108C4.98672 2.5961 5.15629 2.66634 5.3331 2.66634H5.99977V5.81967L2.5931 11.6597C2.41613 11.9635 2.32238 12.3086 2.3213 12.6602C2.32022 13.0118 2.41184 13.3574 2.58694 13.6623C2.76203 13.9672 3.01441 14.2206 3.31864 14.3969C3.62286 14.5731 3.96817 14.6661 4.31977 14.6663H11.6531C12.0047 14.6661 12.35 14.5731 12.6542 14.3969C12.9585 14.2206 13.2108 13.9672 13.3859 13.6623C13.561 13.3574 13.6527 13.0118 13.6516 12.6602C13.6505 12.3086 13.5567 11.9635 13.3798 11.6597H13.4064ZM7.23977 6.32634C7.29857 6.22734 7.33073 6.1148 7.3331 5.99967V2.66634H8.66644V5.99967C8.66766 6.11706 8.69985 6.23205 8.75977 6.33301L9.3331 7.33301H6.66644L7.23977 6.32634ZM12.2531 12.993C12.1949 13.0938 12.1114 13.1775 12.0108 13.236C11.9102 13.2945 11.7961 13.3256 11.6798 13.3263H4.34644C4.2301 13.3256 4.11596 13.2945 4.01538 13.236C3.9148 13.1775 3.83127 13.0938 3.7731 12.993C3.71459 12.8917 3.68379 12.7767 3.68379 12.6597C3.68379 12.5426 3.71459 12.4277 3.7731 12.3263L5.88644 8.66634H10.1198L12.2531 12.333C12.3116 12.4344 12.3424 12.5493 12.3424 12.6663C12.3424 12.7834 12.3116 12.8983 12.2531 12.9997V12.993ZM6.66644 9.99967C6.53458 9.99967 6.40569 10.0388 6.29606 10.112C6.18642 10.1853 6.10098 10.2894 6.05052 10.4112C6.00006 10.533 5.98686 10.6671 6.01258 10.7964C6.0383 10.9257 6.1018 11.0445 6.19503 11.1377C6.28827 11.231 6.40706 11.2945 6.53638 11.3202C6.6657 11.3459 6.79974 11.3327 6.92156 11.2823C7.04338 11.2318 7.1475 11.1464 7.22075 11.0367C7.294 10.9271 7.3331 10.7982 7.3331 10.6663C7.3331 10.4895 7.26287 10.32 7.13784 10.1949C7.01282 10.0699 6.84325 9.99967 6.66644 9.99967ZM9.3331 10.6663C9.20125 10.6663 9.07236 10.7054 8.96272 10.7787C8.85309 10.8519 8.76764 10.9561 8.71718 11.0779C8.66673 11.1997 8.65352 11.3337 8.67925 11.4631C8.70497 11.5924 8.76846 11.7112 8.8617 11.8044C8.95493 11.8976 9.07372 11.9611 9.20304 11.9869C9.33236 12.0126 9.46641 11.9994 9.58823 11.9489C9.71004 11.8985 9.81416 11.813 9.88742 11.7034C9.96067 11.5938 9.99977 11.4649 9.99977 11.333C9.99977 11.1562 9.92953 10.9866 9.80451 10.8616C9.67948 10.7366 9.50991 10.6663 9.3331 10.6663Z" fill="#069A7A"/>
</svg>
