<svg viewBox="0 0 16 16" fill="none" xmlns="http://www.w3.org/2000/svg">
<path d="M5.49951 2.00024H3.49951C2.94723 2.00024 2.49951 2.44796 2.49951 3.00024V12.3002C2.49951 12.8525 2.94723 13.3002 3.49951 13.3002H11.4995C12.0518 13.3002 12.4995 12.8525 12.4995 12.3003V5.00024C12.4995 4.44796 12.0518 4.00024 11.4995 4.00024H7.49951C6.94723 4.00024 6.49951 3.55253 6.49951 3.00024C6.49951 2.44796 6.0518 2.00024 5.49951 2.00024Z" fill="white" stroke="#5277D7"/>
<path d="M14.3433 7.00024H5.48612C5.07234 7.00024 4.7013 7.25507 4.55277 7.64127L2.822 12.1413C2.57008 12.7963 3.05357 13.5002 3.75535 13.5002H12.6125C13.0263 13.5002 13.3973 13.2454 13.5459 12.8592L15.2766 8.35922C15.5286 7.70422 15.0451 7.00024 14.3433 7.00024Z" fill="white" stroke="#5277D7"/>
</svg>
