<svg width="16" height="16" viewBox="0 0 16 16" fill="none" xmlns="http://www.w3.org/2000/svg">
<path d="M5.49951 2H3.49951C2.94723 2 2.49951 2.44772 2.49951 3V11.5C2.49951 12.0523 2.94723 12.5 3.49951 12.5H11.4995C12.0518 12.5 12.4995 12.0523 12.4995 11.5V5C12.4995 4.44772 12.0518 4 11.4995 4H7.49951C6.94723 4 6.49951 3.55228 6.49951 3C6.49951 2.44772 6.0518 2 5.49951 2Z" fill="white" stroke="#5277D7"/>
<path d="M13.3266 6H2.61167C2.01741 6 1.55428 6.51516 1.61731 7.10607L2.20398 12.6061C2.2582 13.1144 2.68711 13.5 3.19833 13.5H12.4466C12.9379 13.5 13.3564 13.1431 13.4341 12.658L14.3141 7.15799C14.4113 6.55041 13.9419 6 13.3266 6Z" fill="white" stroke="#5277D7"/>
</svg>
