<svg width="24" height="24" viewBox="0 0 24 24" fill="none" xmlns="http://www.w3.org/2000/svg">
<path d="M8.31371 3.02344H5.29028C4.45538 3.02344 3.77856 3.70026 3.77856 4.53516V17.3848C3.77856 18.2197 4.45538 18.8965 5.29028 18.8965H17.384C18.2189 18.8965 18.8957 18.2197 18.8957 17.3848V7.55859C18.8957 6.72369 18.2189 6.04688 17.384 6.04688H11.3372C10.5023 6.04688 9.82543 5.37006 9.82543 4.53516C9.82543 3.70026 9.14861 3.02344 8.31371 3.02344Z" fill="white" stroke="#6F7590" stroke-width="1.51172"/>
<path d="M20.1461 9.07031H3.94809C3.04974 9.07031 2.34961 9.84909 2.4449 10.7424L3.33177 19.0568C3.41374 19.8253 4.06213 20.4082 4.83496 20.4082H18.8158C19.5585 20.4082 20.1912 19.8687 20.3085 19.1353L21.6388 10.8209C21.7858 9.90237 21.0763 9.07031 20.1461 9.07031Z" fill="white" stroke="#6F7590" stroke-width="1.51172"/>
</svg>
