<svg viewBox="0 0 16 16" fill="none" xmlns="http://www.w3.org/2000/svg">
<path d="M5.49951 2.00024H3.49951C2.94723 2.00024 2.49951 2.44796 2.49951 3.00024V11.5002C2.49951 12.0525 2.94723 12.5002 3.49951 12.5002H11.4995C12.0518 12.5002 12.4995 12.0525 12.4995 11.5002V5.00024C12.4995 4.44796 12.0518 4.00024 11.4995 4.00024H7.49951C6.94723 4.00024 6.49951 3.55253 6.49951 3.00024C6.49951 2.44796 6.0518 2.00024 5.49951 2.00024Z" fill="white" stroke="#5277D7"/>
<path d="M13.3266 6.00024H2.61167C2.01741 6.00024 1.55428 6.51541 1.61731 7.10631L2.20398 12.6063C2.2582 13.1147 2.68711 13.5002 3.19833 13.5002H12.4466C12.9379 13.5002 13.3564 13.1434 13.4341 12.6582L14.3141 7.15824C14.4113 6.55065 13.9419 6.00024 13.3266 6.00024Z" fill="white" stroke="#5277D7"/>
</svg>
