<svg width="12" height="12" viewBox="0 0 12 12" fill="none" xmlns="http://www.w3.org/2000/svg">
<path d="M4.34637 2H3.2113C2.65902 2 2.2113 2.44772 2.2113 3V8.47275C2.2113 9.02503 2.65902 9.47275 3.2113 9.47275H8.32821C8.88049 9.47275 9.32821 9.02503 9.32821 8.47275V4.42338C9.32821 3.8711 8.88049 3.42338 8.32821 3.42338H5.76976C5.3767 3.42338 5.05806 3.10475 5.05806 2.71169C5.05806 2.31863 4.73943 2 4.34637 2Z" fill="white" stroke="#5277D7" stroke-width="0.5"/>
<path d="M9.57853 4.84692H2.61161C2.01735 4.84692 1.55422 5.36209 1.61725 5.95299L1.97327 9.29067C2.02749 9.79901 2.4564 10.1846 2.96763 10.1846H9.0445C9.53579 10.1846 9.95432 9.82772 10.0319 9.34259L10.566 6.00491C10.6632 5.39733 10.1938 4.84692 9.57853 4.84692Z" fill="white" stroke="#5277D7" stroke-width="0.5"/>
<circle cx="8.97249" cy="9.11702" r="2.84676" fill="#5277D7"/>
<path fill-rule="evenodd" clip-rule="evenodd" d="M8.54355 7.21135C8.74216 7.21135 8.76696 7.18495 8.76696 6.97352C8.76696 6.84271 8.74186 6.74052 8.71111 6.74646C8.34756 6.81678 8.32015 6.83581 8.32015 7.01871C8.32015 7.17988 8.35664 7.21135 8.54355 7.21135ZM10.1495 7.18678C10.1794 7.10385 10.0982 7.03409 9.87027 6.9468C9.48756 6.8002 9.32728 6.72985 9.2605 6.78626C9.20609 6.83222 9.21376 6.96236 9.21376 7.20398C9.21376 7.65706 9.20155 7.68965 8.98812 7.80722C8.78483 7.91908 8.75109 7.91932 8.64766 7.8092C8.58458 7.74205 8.43692 7.68703 8.31956 7.68703C8.13428 7.68703 8.10308 7.72025 8.08282 7.93953C8.06257 8.15882 7.98855 8.2377 7.51963 8.53991C7.04683 8.84458 6.97974 8.91665 6.97974 9.11984C6.97974 9.34412 6.99173 9.35189 7.33659 9.35189C7.65851 9.35189 7.72404 9.38511 8.00679 9.69184C8.31032 10.0211 8.32015 10.048 8.32015 10.5491C8.32015 11.0123 8.34197 11.0886 8.52903 11.2794C8.76018 11.5152 9.0165 11.5476 9.53985 11.4073C9.83184 11.329 9.8766 11.2808 10.0947 10.8099C10.3205 10.3225 10.3264 10.2864 10.2177 10.0626C10.132 9.88623 10.0511 9.82756 9.89313 9.82756C9.58461 9.82756 9.21376 9.42411 9.21376 9.08852C9.21376 8.53809 9.81226 8.23397 10.3322 8.52025C10.5438 8.63671 10.5526 8.63378 10.6625 8.40744L10.7754 8.17499L10.4505 8.04283C10.1506 7.9209 10.1077 7.92058 9.89313 8.03879L9.66057 8.16675V7.90314C9.66057 7.60973 9.77115 7.44919 9.97333 7.44919C10.0471 7.44919 10.1074 7.41645 10.1074 7.37641C10.1074 7.33638 10.1264 7.25099 10.1495 7.18678Z" fill="white"/>
</svg>
