<svg width="26" height="26" viewBox="0 0 26 26" fill="none" xmlns="http://www.w3.org/2000/svg">
<path d="M9.3059 4.01562H6.28246C5.44756 4.01562 4.77074 4.69244 4.77074 5.52734V19.5863C4.77074 20.4212 5.44756 21.0981 6.28246 21.0981H18.3762C19.2111 21.0981 19.8879 20.4212 19.8879 19.5863V8.55078C19.8879 7.71588 19.2111 7.03906 18.3762 7.03906H12.3293C11.4944 7.03906 10.8176 6.36224 10.8176 5.52734C10.8176 4.69244 10.1408 4.01562 9.3059 4.01562Z" fill="white" stroke="#5277D7" stroke-width="1.51172"/>
<path d="M22.6752 11.5742H9.28565C8.66015 11.5742 8.09924 11.9594 7.8747 12.5433L5.25826 19.346C4.87742 20.3362 5.60832 21.4004 6.66922 21.4004H20.0588C20.6843 21.4004 21.2452 21.0152 21.4697 20.4313L24.0862 13.6286C24.467 12.6384 23.7361 11.5742 22.6752 11.5742Z" fill="white" stroke="#5277D7" stroke-width="1.51172"/>
</svg>
