<svg width="16" height="16" viewBox="0 0 16 16" fill="none" xmlns="http://www.w3.org/2000/svg">
<path d="M5.49951 2H3.49951C2.94723 2 2.49951 2.44771 2.49951 3V12.3C2.49951 12.8523 2.94723 13.3 3.49951 13.3H11.4995C12.0518 13.3 12.4995 12.8523 12.4995 12.3V5C12.4995 4.44772 12.0518 4 11.4995 4H7.49951C6.94723 4 6.49951 3.55228 6.49951 3C6.49951 2.44772 6.0518 2 5.49951 2Z" fill="white" stroke="#5277D7"/>
<path d="M14.3433 7H5.48612C5.07234 7 4.7013 7.25483 4.55277 7.64102L2.822 12.141C2.57008 12.796 3.05357 13.5 3.75535 13.5H12.6125C13.0263 13.5 13.3973 13.2452 13.5459 12.859L15.2766 8.35898C15.5286 7.70398 15.0451 7 14.3433 7Z" fill="white" stroke="#5277D7"/>
</svg>
