<svg viewBox="0 0 16 16" fill="none" xmlns="http://www.w3.org/2000/svg">
<path fill-rule="evenodd" clip-rule="evenodd" d="M13.8179 4.04991C14.2391 3.61971 14.2391 2.91945 13.8179 2.48897C13.397 2.05828 12.7125 2.05828 12.2945 2.48897L11.9902 2.79716L10.7217 1.49998C10.5047 1.27777 10.1571 1.27777 9.93984 1.49998L8.04932 3.43358C7.83206 3.65539 7.83206 4.01111 8.04932 4.23329L9.31763 5.53044L7.05818 7.84431C6.5747 7.5888 6.0236 7.44456 5.44222 7.44456C3.49222 7.44456 1.9116 9.06095 1.9116 11.0556C1.9116 13.05 3.49222 14.6667 5.44222 14.6667C7.39234 14.6667 8.97282 13.05 8.97282 11.0556C8.97282 10.461 8.8317 9.89726 8.58191 9.40277L13.8179 4.04991ZM6.80018 11.0556C6.80018 11.8222 6.19175 12.4445 5.44225 12.4445C4.69267 12.4445 4.08436 11.8222 4.08436 11.0556C4.08436 10.2889 4.69267 9.66674 5.44225 9.66674C6.19172 9.66674 6.80018 10.289 6.80018 11.0556Z" fill="#9040F5"/>
</svg>
