<svg width="16" height="16" viewBox="0 0 16 16" fill="none" xmlns="http://www.w3.org/2000/svg">
<path d="M12.9435 7.62238C12.8341 7.71735 12.7713 7.85511 12.7713 8C12.7713 8.14489 12.8341 8.28265 12.9435 8.37762L14.4645 9.69762C14.4735 9.70543 14.4924 9.73 14.4982 9.77641C14.5036 9.82077 14.4935 9.85986 14.478 9.88531L12.7002 8.34238C12.619 8.27184 12.5614 8.14878 12.5614 8C12.5614 7.85122 12.619 7.72817 12.7002 7.65762L14.478 6.11469C14.4935 6.14014 14.5036 6.17923 14.4982 6.22359C14.4924 6.27 14.4735 6.29457 14.4645 6.30238L12.9435 7.62238ZM1.5 2.6C1.5 2.55013 1.51757 2.51726 1.53018 2.50266C1.53106 2.50164 1.53186 2.50076 1.53258 2.5H14.467C14.4677 2.50076 14.4685 2.50164 14.4694 2.50266C14.482 2.51726 14.4996 2.55013 14.4996 2.6C14.4996 2.64987 14.482 2.68274 14.4694 2.69734C14.4685 2.69836 14.4677 2.69924 14.467 2.7H1.53258C1.53186 2.69924 1.53106 2.69836 1.53018 2.69734C1.51757 2.68274 1.5 2.64987 1.5 2.6ZM1.5 6.2C1.5 6.15013 1.51757 6.11726 1.53018 6.10266C1.53106 6.10164 1.53186 6.10076 1.53258 6.1H9.28199C9.28271 6.10076 9.28351 6.10164 9.28439 6.10266C9.297 6.11726 9.31457 6.15013 9.31457 6.2C9.31457 6.24987 9.297 6.28274 9.28439 6.29734C9.28351 6.29836 9.28271 6.29924 9.28199 6.3H1.53258C1.53186 6.29924 1.53106 6.29836 1.53018 6.29734C1.51757 6.28274 1.5 6.24987 1.5 6.2ZM1.5004 9.8C1.5004 9.75013 1.51796 9.71726 1.53057 9.70266C1.53146 9.70164 1.53226 9.70076 1.53297 9.7H9.28238C9.2831 9.70076 9.2839 9.70164 9.28478 9.70266C9.29739 9.71726 9.31496 9.75013 9.31496 9.8C9.31496 9.84987 9.29739 9.88275 9.28478 9.89734C9.2839 9.89836 9.2831 9.89924 9.28238 9.9H1.53297C1.53226 9.89924 1.53146 9.89836 1.53057 9.89734C1.51796 9.88275 1.5004 9.84987 1.5004 9.8ZM1.5004 13.4C1.5004 13.3501 1.51796 13.3173 1.53057 13.3027C1.53146 13.3016 1.53226 13.3008 1.53297 13.3H14.4674C14.4681 13.3008 14.4689 13.3016 14.4698 13.3027C14.4824 13.3173 14.5 13.3501 14.5 13.4C14.5 13.4499 14.4824 13.4827 14.4698 13.4973C14.4689 13.4984 14.4681 13.4992 14.4674 13.5H1.53297C1.53226 13.4992 1.53146 13.4984 1.53057 13.4973C1.51796 13.4827 1.5004 13.4499 1.5004 13.4Z" stroke="#6F7590" stroke-linecap="round" stroke-linejoin="round"/>
</svg>
