<svg width="16" height="17" viewBox="0 0 16 17" fill="none" xmlns="http://www.w3.org/2000/svg">
<path d="M12.9654 3.17764C13.1116 3.03586 13.1571 2.81963 13.0806 2.63095C13.0041 2.44226 12.8209 2.3188 12.6173 2.3188L10.0493 2.3188C10.0301 2.3188 10.0163 2.3117 10.0075 2.30325C9.99909 2.29505 9.99783 2.28852 9.99783 2.28373C9.99783 2.27894 9.99909 2.27241 10.0075 2.26422C10.0163 2.25576 10.0301 2.24866 10.0493 2.24866L13.9486 2.24866C13.9678 2.24866 13.9816 2.25576 13.9903 2.26422C13.9987 2.27241 14 2.27894 14 2.28373L14 6.06727C14 6.07206 13.9987 6.07859 13.9903 6.08678C13.9816 6.09524 13.9678 6.10234 13.9486 6.10234C13.9293 6.10234 13.9155 6.09524 13.9068 6.08678C13.8984 6.07859 13.8971 6.07206 13.8971 6.06727L13.8971 3.57551C13.8971 3.37465 13.7769 3.19329 13.5919 3.11503C13.4069 3.03676 13.1931 3.0768 13.0489 3.21667L9.32264 6.83235C9.31351 6.84121 9.29952 6.84791 9.2809 6.84791C9.26227 6.84791 9.24829 6.84121 9.23916 6.83235C9.23421 6.82755 9.23217 6.82378 9.23117 6.82138C9.23003 6.81866 9.22946 6.81578 9.22946 6.81283C9.22946 6.80989 9.23003 6.80701 9.23117 6.80429C9.23217 6.80188 9.23421 6.79812 9.23916 6.79332L12.9654 3.17764ZM3.03455 13.3197C2.88843 13.4615 2.84288 13.6777 2.91937 13.8664C2.99587 14.0551 3.17914 14.1785 3.38274 14.1785L5.95072 14.1785C5.96994 14.1785 5.98375 14.1856 5.99246 14.1941C6.00091 14.2023 6.00217 14.2088 6.00217 14.2136C6.00217 14.2184 6.00091 14.2249 5.99246 14.2331C5.98375 14.2416 5.96994 14.2487 5.95073 14.2487L2.05144 14.2487C2.03223 14.2487 2.01842 14.2416 2.0097 14.2331C2.00125 14.2249 2 14.2184 2 14.2136L2 10.43C2 10.4253 2.00125 10.4187 2.0097 10.4105C2.01842 10.4021 2.03223 10.395 2.05144 10.395C2.07066 10.395 2.08447 10.4021 2.09318 10.4105C2.10163 10.4187 2.10288 10.4253 2.10288 10.43L2.10288 12.9218C2.10288 13.1227 2.22308 13.304 2.40807 13.3823C2.59306 13.4606 2.80692 13.4205 2.95107 13.2806L6.67736 9.66497L6.32918 9.30613L6.67736 9.66497C6.68649 9.65611 6.70048 9.64941 6.7191 9.64941C6.73773 9.64941 6.75171 9.65611 6.76084 9.66497C6.76579 9.66977 6.76783 9.67353 6.76883 9.67593C6.76997 9.67866 6.77054 9.68154 6.77054 9.68448C6.77054 9.68743 6.76997 9.69031 6.76883 9.69303C6.76783 9.69543 6.76579 9.69919 6.76084 9.704L3.03455 13.3197Z" stroke="#6F7590" stroke-linecap="round" stroke-linejoin="round"/>
</svg>
