<svg width="16" height="16" viewBox="0 0 16 16" fill="none" xmlns="http://www.w3.org/2000/svg">
<path d="M2.49219 14H5C5.32812 14 5.49219 13.8359 5.49219 13.5078C5.49219 13.1641 5.32812 12.9922 5 12.9922H3.71094L6.85156 9.85156C7.05469 9.61719 7.05469 9.38281 6.85156 9.14844C6.61719 8.94531 6.38281 8.94531 6.14844 9.14844L3.00781 12.2891V11C3.00781 10.6719 2.83594 10.5078 2.49219 10.5078C2.16406 10.5078 2 10.6719 2 11V13.5078C2 13.6484 2.04688 13.7656 2.14062 13.8594C2.23438 13.9531 2.35156 14 2.49219 14ZM13.5078 10.5078C13.1641 10.5078 12.9922 10.6719 12.9922 11V12.2891L9.85156 9.14844C9.61719 8.94531 9.38281 8.94531 9.14844 9.14844C8.94531 9.38281 8.94531 9.61719 9.14844 9.85156L12.2891 12.9922H11C10.6719 12.9922 10.5078 13.1641 10.5078 13.5078C10.5078 13.8359 10.6719 14 11 14H13.5078C13.6484 14 13.7656 13.9531 13.8594 13.8594C13.9531 13.7656 14 13.6484 14 13.5078V11C14 10.6719 13.8359 10.5078 13.5078 10.5078ZM13.5078 2H11C10.6719 2 10.5078 2.16406 10.5078 2.49219C10.5078 2.83594 10.6719 3.00781 11 3.00781H12.2891L9.14844 6.14844C8.94531 6.38281 8.94531 6.61719 9.14844 6.85156C9.24219 6.94531 9.35938 6.99219 9.5 6.99219C9.64062 6.99219 9.75781 6.94531 9.85156 6.85156L12.9922 3.71094V5C12.9922 5.32812 13.1641 5.49219 13.5078 5.49219C13.8359 5.49219 14 5.32812 14 5V2.49219C14 2.35156 13.9531 2.23438 13.8594 2.14062C13.7656 2.04688 13.6484 2 13.5078 2ZM2.49219 5.49219C2.83594 5.49219 3.00781 5.32812 3.00781 5V3.71094L6.14844 6.85156C6.24219 6.94531 6.35938 6.99219 6.5 6.99219C6.64062 6.99219 6.75781 6.94531 6.85156 6.85156C7.05469 6.61719 7.05469 6.38281 6.85156 6.14844L3.71094 3.00781H5C5.32812 3.00781 5.49219 2.83594 5.49219 2.49219C5.49219 2.16406 5.32812 2 5 2H2.49219C2.35156 2 2.23438 2.04688 2.14062 2.14062C2.04688 2.23438 2 2.35156 2 2.49219V5C2 5.32812 2.16406 5.49219 2.49219 5.49219Z" fill="#6F7590"/>
</svg>
