<svg width="16" height="16" viewBox="0 0 16 16" fill="none" xmlns="http://www.w3.org/2000/svg">
<path d="M2.92899 3.03455C2.7872 2.88843 2.57098 2.84288 2.38229 2.91937C2.1936 2.99587 2.07015 3.17914 2.07015 3.38274V5.95072C2.07015 5.96994 2.06305 5.98375 2.05459 5.99246C2.04639 6.00091 2.03987 6.00217 2.03507 6.00217C2.03028 6.00217 2.02376 6.00091 2.01556 5.99246C2.0071 5.98375 2 5.96994 2 5.95072V2.05144C2 2.03223 2.0071 2.01842 2.01556 2.0097C2.02376 2.00125 2.03028 2 2.03507 2L5.81861 2C5.8234 2 5.82993 2.00125 5.83813 2.0097C5.84658 2.01842 5.85369 2.03223 5.85369 2.05144C5.85369 2.07066 5.84658 2.08447 5.83813 2.09318C5.82993 2.10163 5.8234 2.10288 5.81861 2.10288L3.32685 2.10288C3.12599 2.10288 2.94463 2.22308 2.86637 2.40807C2.78811 2.59305 2.82814 2.80692 2.96801 2.95107L6.58369 6.67736C6.59255 6.68649 6.59925 6.70048 6.59925 6.7191C6.59925 6.73773 6.59255 6.75171 6.58369 6.76084C6.57889 6.76579 6.57513 6.76783 6.57272 6.76883C6.57 6.76997 6.56712 6.77054 6.56418 6.77054C6.56123 6.77054 6.55835 6.76997 6.55563 6.76883C6.55323 6.76783 6.54946 6.76579 6.54466 6.76084L2.92899 3.03455ZM13.071 12.9654C13.2128 13.1116 13.429 13.1571 13.6177 13.0806C13.8064 13.0041 13.9299 12.8209 13.9299 12.6173V10.0493C13.9299 10.0301 13.937 10.0162 13.9454 10.0075C13.9536 9.99909 13.9601 9.99783 13.9649 9.99783C13.9697 9.99783 13.9762 9.99909 13.9844 10.0075C13.9929 10.0162 14 10.0301 14 10.0493V13.9486C14 13.9678 13.9929 13.9816 13.9844 13.9903C13.9762 13.9987 13.9697 14 13.9649 14H10.1814C10.1766 14 10.1701 13.9987 10.1619 13.9903C10.1534 13.9816 10.1463 13.9678 10.1463 13.9486C10.1463 13.9293 10.1534 13.9155 10.1619 13.9068C10.1701 13.8984 10.1766 13.8971 10.1814 13.8971H12.6731C12.874 13.8971 13.0554 13.7769 13.1336 13.5919C13.2119 13.4069 13.1719 13.1931 13.032 13.0489L9.41631 9.32264L9.05747 9.67082L9.41631 9.32264C9.40745 9.31351 9.40075 9.29952 9.40075 9.2809C9.40075 9.26227 9.40745 9.24829 9.41631 9.23916C9.42111 9.23421 9.42488 9.23217 9.42728 9.23117C9.43 9.23003 9.43288 9.22945 9.43583 9.22945C9.43877 9.22946 9.44165 9.23003 9.44437 9.23117C9.44677 9.23217 9.45054 9.23421 9.45534 9.23916L13.071 12.9654Z" stroke="#6F7590" stroke-linecap="round" stroke-linejoin="round"/>
</svg>
