<svg width="17" height="16" viewBox="0 0 17 16" fill="none" xmlns="http://www.w3.org/2000/svg">
    <path
        d="M8.5 10C9.60457 10 10.5 9.10457 10.5 8C10.5 6.89543 9.60457 6 8.5 6C7.39543 6 6.5 6.89543 6.5 8C6.5 9.10457 7.39543 10 8.5 10Z"
        stroke="#3E4359" stroke-linecap="round" stroke-linejoin="round" />
    <path
        d="M12.5035 5.13194C12.64 5.34236 12.7612 5.56326 12.8662 5.79276L14.3628 6.66517C14.5451 7.54432 14.5457 8.4543 14.3646 9.33373L12.8672 10.2066C12.7619 10.4359 12.6403 10.6566 12.5035 10.8668L12.5323 12.6641C11.8984 13.2694 11.1482 13.725 10.3323 14L8.86368 13.0747C8.62189 13.0936 8.37909 13.0934 8.13733 13.0741L6.66949 13.9989C5.85326 13.7251 5.10245 13.2707 4.46768 12.6663L4.49651 10.8681C4.36003 10.6576 4.23879 10.4367 4.13383 10.2072L2.63719 9.33483C2.45489 8.45568 2.45427 7.5457 2.63535 6.66627L4.13283 5.79338C4.23814 5.56406 4.3597 5.34336 4.4965 5.13316L4.46769 3.33595C5.10162 2.7306 5.85181 2.27504 6.66766 2L8.13632 2.92532C8.3781 2.90642 8.6209 2.90662 8.86266 2.92592L10.3305 2.00112C11.1467 2.27492 11.8975 2.72934 12.5323 3.33373L12.5035 5.13194Z"
        stroke="#3E4359" stroke-linecap="round" stroke-linejoin="round" />
</svg>