<svg  viewBox="0 0 16 16" fill="none" xmlns="http://www.w3.org/2000/svg">
<circle cx="8" cy="8" r="6" fill="currentColor"/>
<path fill-rule="evenodd" clip-rule="evenodd" d="M7.0958 3.98377C7.51439 3.98377 7.56665 3.92813 7.56665 3.48249C7.56665 3.20679 7.51376 2.99141 7.44894 3.00394C6.6827 3.15215 6.62494 3.19225 6.62494 3.57774C6.62494 3.91744 6.70185 3.98377 7.0958 3.98377ZM10.4806 3.93197C10.5436 3.75719 10.3725 3.61015 9.89205 3.42618C9.08545 3.1172 8.74763 2.96893 8.60689 3.08782C8.4922 3.18469 8.50837 3.45897 8.50837 3.96823C8.50837 4.92317 8.48263 4.99184 8.0328 5.23964C7.60432 5.47541 7.53322 5.47591 7.31522 5.24382C7.18228 5.10229 6.87104 4.98633 6.62369 4.98633C6.23319 4.98633 6.16743 5.05634 6.12474 5.51852C6.08204 5.9807 5.92603 6.14696 4.93771 6.78392C3.94122 7.42606 3.7998 7.57794 3.7998 8.0062C3.7998 8.47891 3.82508 8.49529 4.55192 8.49529C5.23042 8.49529 5.36854 8.5653 5.96449 9.21178C6.60422 9.90572 6.62494 9.96236 6.62494 11.0186C6.62494 11.9949 6.67093 12.1556 7.06519 12.5578C7.55237 13.0548 8.0926 13.1231 9.19566 12.8273C9.81107 12.6624 9.9054 12.5608 10.3651 11.5683C10.841 10.541 10.8534 10.465 10.6244 9.99327C10.4437 9.62149 10.2731 9.49784 9.94024 9.49784C9.28999 9.49784 8.50837 8.64751 8.50837 7.9402C8.50837 6.78007 9.76979 6.13911 10.8656 6.74248C11.3117 6.98794 11.3302 6.98176 11.5619 6.50471L11.7998 6.01479L11.115 5.73624C10.483 5.47925 10.3926 5.47859 9.94024 5.72772L9.45008 5.99741V5.44183C9.45008 4.82341 9.68315 4.48505 10.1093 4.48505C10.2647 4.48505 10.3918 4.41604 10.3918 4.33166C10.3918 4.24728 10.4318 4.06732 10.4806 3.93197Z" fill="white"/>
</svg>
