<svg  viewBox="0 0 17 17" fill="none" xmlns="http://www.w3.org/2000/svg">
<rect x="3" y="2" width="10" height="11" fill="white"/>
<path d="M2.5 13.5V3.5C2.5 2.39543 3.39543 1.5 4.5 1.5H11.5C12.6046 1.5 13.5 2.39543 13.5 3.5V10.5C13.5 11.6046 12.6046 12.5 11.5 12.5H9.65" stroke="#F34D77"/>
<path d="M5 4.87929V2H7V4.87929C7 4.92383 6.94614 4.94614 6.91464 4.91464L6 4L5.08536 4.91464C5.05386 4.94614 5 4.92383 5 4.87929Z" fill="#F34D77"/>
<path d="M11.5 14.5H3.52304C2.95803 14.5 2.5 14.042 2.5 13.477C2.5 12.9374 2.9374 12.5 3.47696 12.5H6.9H11.3C12.3275 12.5 13.5 11.7757 13.5 10.5V12.5C13.5 13.6046 12.6046 14.5 11.5 14.5Z" fill="#FFECF1" stroke="#F34D77"/>
<g clip-path="url(#clip0_1079_5471)">
<path d="M12.2999 10.8505L10.7915 9.34208C10.3359 8.88646 9.59722 8.88646 9.1416 9.34208C8.68599 9.79769 8.68599 10.5364 9.14161 10.992L10.65 12.5004L9.14161 14.0087C8.68599 14.4644 8.68599 15.203 9.1416 15.6587C9.59722 16.1143 10.3359 16.1143 10.7915 15.6587L12.2999 14.1503L13.8083 15.6587C14.2639 16.1143 15.0026 16.1143 15.4582 15.6587C15.9138 15.203 15.9138 14.4644 15.4582 14.0087L13.9498 12.5004L15.4582 10.992C15.9138 10.5364 15.9138 9.79769 15.4582 9.34208C15.0026 8.88646 14.2639 8.88646 13.8083 9.34207L12.2999 10.8505Z" fill="#CF592E" stroke="white" stroke-linecap="round"/>
</g>
<defs>
<clipPath id="clip0_1079_5471">
<rect width="8" height="8" fill="white" transform="translate(8.29996 8.50012)"/>
</clipPath>
</defs>
</svg>
