<svg  viewBox="0 0 16 16" fill="none" xmlns="http://www.w3.org/2000/svg">
<rect x="3" y="2" width="10" height="11" fill="white"/>
<path d="M2.5 13.5V3.5C2.5 2.39543 3.39543 1.5 4.5 1.5H11.5C12.6046 1.5 13.5 2.39543 13.5 3.5V10.5C13.5 11.6046 12.6046 12.5 11.5 12.5H9.65" stroke="#F34D77"/>
<path d="M5 4.87929V2H7V4.87929C7 4.92383 6.94614 4.94614 6.91464 4.91464L6 4L5.08536 4.91464C5.05386 4.94614 5 4.92383 5 4.87929Z" fill="#F34D77"/>
<path d="M11.5 14.5H3.52304C2.95803 14.5 2.5 14.042 2.5 13.477C2.5 12.9374 2.9374 12.5 3.47696 12.5H6.9H11.3C12.3275 12.5 13.5 11.7757 13.5 10.5V12.5C13.5 13.6046 12.6046 14.5 11.5 14.5Z" fill="#FFECF1" stroke="#F34D77"/>
<circle cx="12" cy="12" r="3.5" fill="#F4B444" stroke="white"/>
</svg>
