<svg viewBox="0 0 24 24" fill="none" xmlns="http://www.w3.org/2000/svg">
<rect width="24" height="24" fill="white"/>
<path d="M4.60248 19.746V5.46387C4.60248 3.80701 5.94562 2.46387 7.60248 2.46387H16.6025C18.2593 2.46387 19.6025 3.80701 19.6025 5.46387V15.2139C19.6025 16.8707 18.2593 18.2139 16.6025 18.2139H14.3525" stroke="#6F7590" stroke-width="1.5"/>
<path d="M7.60248 8.54718V2.54718H10.6025V8.54718L9.10248 6.14718L7.60248 8.54718Z" fill="#6F7590"/>
<path d="M6.17323 18.2139H16.6025C18.0036 18.2139 19.6025 17.1726 19.6025 15.2139V18.3554C19.6025 20.0122 18.2593 21.3554 16.6025 21.3554H6.17323C5.30573 21.3554 4.60248 20.6521 4.60248 19.7846C4.60248 18.9171 5.30573 18.2139 6.17323 18.2139Z" fill="#E6E6EB" stroke="#6F7590" stroke-width="1.5"/>
</svg>
