<svg  viewBox="0 0 16 16" fill="none" xmlns="http://www.w3.org/2000/svg">
<rect x="3" y="2" width="10" height="11" fill="white"/>
<path d="M2.5 13.5V3.5C2.5 2.39543 3.39543 1.5 4.5 1.5H11.5C12.6046 1.5 13.5 2.39543 13.5 3.5V10.5C13.5 11.6046 12.6046 12.5 11.5 12.5H9.65" stroke="#F34D77"/>
<path d="M5 4.87929V2H7V4.87929C7 4.92383 6.94614 4.94614 6.91464 4.91464L6 4L5.08536 4.91464C5.05386 4.94614 5 4.92383 5 4.87929Z" fill="#F34D77"/>
<path d="M11.5 14.5H3.52304C2.95803 14.5 2.5 14.042 2.5 13.477C2.5 12.9374 2.9374 12.5 3.47696 12.5H6.9H11.3C12.3275 12.5 13.5 11.7757 13.5 10.5V12.5C13.5 13.6046 12.6046 14.5 11.5 14.5Z" fill="#FFECF1" stroke="#F34D77"/>
<path d="M9.79289 10.2928C10.1834 9.90225 10.8166 9.90225 11.2071 10.2928L12.25 11.3357L13.2929 10.2928C13.6834 9.90225 14.3166 9.90225 14.7071 10.2928C15.0976 10.6833 15.0976 11.3165 14.7071 11.707L13.6642 12.7499L14.7071 13.7928C15.0976 14.1833 15.0976 14.8165 14.7071 15.207C14.3166 15.5975 13.6834 15.5975 13.2929 15.207L12.25 14.1641L11.2071 15.207C10.8166 15.5975 10.1834 15.5975 9.79289 15.207C9.40237 14.8165 9.40237 14.1833 9.79289 13.7928M9.79289 10.2928L9.79289 13.7928M9.79289 10.2928C9.40237 10.6833 9.40237 11.3165 9.79289 11.707L10.8358 12.7499L9.79289 13.7928M9.79289 10.2928L9.79289 13.7928" fill="#CF592E" stroke="white" stroke-linecap="round"/>
</svg>
