<svg  viewBox="0 0 159 162" fill="none" xmlns="http://www.w3.org/2000/svg">
<path d="M77.9263 137.378C107.626 137.378 131.826 113.278 131.826 83.6785C131.826 53.9785 107.726 29.9785 77.9263 29.9785C48.1263 29.8785 24.0263 53.8785 24.0263 83.5785C24.0263 113.278 48.1263 137.378 77.9263 137.378Z" fill="#EAEEF9"/>
<path d="M68.4263 64.8785L67.0263 60.9785C66.7263 59.9785 65.7263 59.3785 64.7263 59.3785H40.1263C38.0263 59.3785 36.4263 60.9785 36.4263 63.0785V118.179V109.079H120.426V70.1785C120.426 68.0785 118.826 66.4785 116.726 66.4785H70.7263C69.7263 66.4785 68.8263 65.8785 68.4263 64.8785Z" fill="url(#paint0_linear_50_7193)"/>
<path d="M67.9557 65.0475L67.9587 65.0559L67.9621 65.0642C68.4358 66.2487 69.5161 66.9785 70.7263 66.9785H116.726C118.55 66.9785 119.926 68.3547 119.926 70.1785V108.579H36.9263V63.0785C36.9263 61.2547 38.3024 59.8785 40.1263 59.8785H64.7263C65.5499 59.8785 66.3227 60.3734 66.5474 61.1222L66.5512 61.135L66.5557 61.1475L67.9557 65.0475Z" stroke="#6F7590"/>
<path d="M102.426 84.0784L101.526 83.4785C101.326 83.2785 101.326 83.0785 101.526 82.8785C101.726 82.6785 101.926 82.6785 102.226 82.7785L103.126 83.3785C103.326 83.4785 103.326 83.7785 103.226 83.9785C102.926 84.1785 102.626 84.1784 102.426 84.0784Z" fill="#E3EAF2"/>
<path d="M100.026 82.1785L94.9263 78.1785C94.7263 78.0785 94.7263 77.7785 94.8263 77.5785C94.9263 77.3785 95.2263 77.3785 95.5263 77.4785L100.626 81.4785C100.826 81.5785 100.826 81.8785 100.726 82.0785C100.526 82.2785 100.226 82.3785 100.026 82.1785Z" fill="#E3EAF2"/>
<path d="M95.3263 80.2785L89.6263 79.6785C89.3263 79.6785 89.1263 79.3785 89.2263 79.0785C89.2263 78.7785 89.5263 78.5785 89.9263 78.6785L95.6263 79.2785C95.9263 79.2785 96.1263 79.5785 96.0263 79.8785C95.9263 80.1785 95.6263 80.4785 95.3263 80.2785Z" fill="url(#paint1_linear_50_7193)"/>
<path d="M122.126 85.6785L115.926 113.379C115.526 114.979 113.626 116.279 111.226 116.279H43.9263C41.6263 116.279 39.6263 115.079 39.2263 113.379L34.1263 90.6785C33.7263 88.9785 35.6263 87.3785 38.0263 87.3785H76.0263C77.2263 87.3785 78.1263 86.7785 78.5263 86.0785L79.6263 83.6785C80.0263 82.8785 81.0263 82.3785 82.1263 82.3785H118.326C120.626 82.3785 122.426 83.9785 122.126 85.6785Z" fill="white"/>
<g filter="url(#filter0_d_50_7193)">
<path d="M127.026 81.9785L120.126 124.478C119.726 126.978 117.526 128.878 114.926 128.878H39.9263C37.3263 128.878 35.1263 127.078 34.7263 124.478L29.0263 89.5785C28.6263 86.9785 30.6263 84.4785 33.3263 84.4785H75.6263C76.9263 84.4785 78.0263 83.5785 78.4263 82.3785L79.6263 78.6785C80.0263 77.4785 81.1263 76.5785 82.4263 76.5785H122.726C125.326 76.8785 127.426 79.2785 127.026 81.9785Z" fill="url(#paint2_linear_50_7193)"/>
</g>
<path d="M67.0263 6.07846C66.6263 6.27846 66.1263 6.07846 65.9263 5.67846L64.1263 1.17846C63.9263 0.778461 64.1263 0.278461 64.5263 0.078461C64.9263 -0.121539 65.4263 0.078461 65.6263 0.478461L67.4263 4.97846C67.7263 5.57846 67.5263 5.97846 67.0263 6.07846Z" fill="#D5DDEA"/>
<path d="M63.7263 10.4785C63.5263 10.6785 63.3263 10.7785 62.9263 10.6785L58.2263 9.77846C57.8263 9.67846 57.4263 9.27846 57.5263 8.77846C57.6263 8.37846 58.0263 7.97846 58.5263 8.17846L63.2263 9.07846C63.6263 9.17846 64.0263 9.57846 63.9263 10.0785C63.8263 10.1785 63.8263 10.3785 63.7263 10.4785Z" fill="#D5DDEA"/>
<path d="M73.2263 5.57847C73.1263 5.57847 73.0263 5.47847 72.8263 5.47847C72.5263 5.17847 72.4263 4.67847 72.7263 4.27847L75.6263 0.478465C75.9263 0.178465 76.4263 0.0784655 76.8263 0.378466C77.1263 0.678466 77.2263 1.17847 76.9263 1.57847L74.0263 5.37847C73.7263 5.47847 73.4263 5.57847 73.2263 5.57847Z" fill="#D5DDEA"/>
<g filter="url(#filter1_d_50_7193)">
<path d="M98.5936 122.475C98.1875 124.201 97.5784 125.927 96.8678 127.451C94.9391 131.106 91.9952 134.051 88.3407 135.879C84.5847 137.808 80.1182 138.519 75.5501 137.605C64.9927 135.371 58.1913 125.115 60.4246 114.555C62.6579 103.994 72.9107 97.1908 83.4681 99.4247C87.2241 100.237 90.574 102.065 93.3149 104.705C97.9845 109.376 99.9132 116.078 98.5936 122.475Z" fill="url(#paint3_linear_50_7193)"/>
</g>
<path d="M85.3861 116.886H81.1139V112.614C81.1139 111.759 80.4494 111 79.5 111C78.6456 111 77.8861 111.665 77.8861 112.614V116.886H73.6139C72.7595 116.886 72 117.551 72 118.5C72 119.449 72.6646 120.114 73.6139 120.114H77.8861V124.386C77.8861 125.241 78.5506 126 79.5 126C80.3544 126 81.1139 125.335 81.1139 124.386V120.114H85.3861C86.2405 120.114 87 119.449 87 118.5C87 117.551 86.2405 116.886 85.3861 116.886Z" fill="white"/>
<path d="M128.726 31.291L131.237 28.2876C131.894 27.501 133.078 27.3978 133.869 28.0582L150.391 41.8669L151.072 56.1612L131.841 79.6832C131.183 80.4698 129.999 80.5731 129.209 79.9126L106.437 60.8807C105.646 60.2203 105.538 59.0364 106.195 58.2498L125.111 35.6173" fill="white"/>
<path d="M128.726 31.291L131.237 28.2876C131.894 27.501 133.078 27.3978 133.869 28.0582L150.391 41.8669L151.072 56.1612L131.841 79.6832C131.183 80.4698 129.999 80.5731 129.209 79.9126L106.437 60.8807C105.646 60.2203 105.538 59.0364 106.195 58.2498L125.111 35.6173" stroke="#6F7590" stroke-miterlimit="10" stroke-linecap="round" stroke-linejoin="round"/>
<path d="M150.141 42.1485L145.347 48.5024C144.596 49.331 144.822 50.5381 145.609 51.1664L150.561 55.1664" fill="#D5DDEA"/>
<path d="M135.049 67.3038L121.4 55.8967C121.221 55.7466 121.226 55.4478 121.406 55.2332C121.585 55.0187 121.878 54.96 122.058 55.1101L135.706 66.5173C135.886 66.6673 135.88 66.9662 135.701 67.1807C135.522 67.3952 135.229 67.4539 135.049 67.3038Z" fill="#E6E6EB"/>
<path d="M119.712 54.4858L117.306 52.4746C117.126 52.3245 117.132 52.0256 117.311 51.8111C117.49 51.5966 117.783 51.5379 117.963 51.688L120.369 53.6992C120.549 53.8493 120.543 54.1482 120.364 54.3627C120.185 54.5772 119.892 54.6359 119.712 54.4858Z" fill="#E6E6EB"/>
<path d="M137.404 64.4135L131.298 59.3103C131.118 59.1602 131.124 58.8614 131.303 58.6469C131.482 58.4323 131.775 58.3736 131.955 58.5237L138.061 63.6269C138.241 63.777 138.235 64.0759 138.056 64.2904C137.876 64.5049 137.583 64.5636 137.404 64.4135Z" fill="#E6E6EB"/>
<path d="M128.711 57.149L119.804 49.7043C119.624 49.5542 119.63 49.2554 119.809 49.0408C119.989 48.8263 120.282 48.7676 120.461 48.9177L129.369 56.3624C129.548 56.5125 129.543 56.8113 129.363 57.0258C129.184 57.2404 128.891 57.2991 128.711 57.149Z" fill="#E6E6EB"/>
<path d="M142.414 53.9655L144.857 56.0068C145.036 56.1569 145.329 56.0982 145.509 55.8837C145.688 55.6692 145.7 55.4361 145.484 55.256L143.042 53.2147C142.862 53.0646 142.569 53.1233 142.39 53.3378C142.21 53.5524 142.235 53.8154 142.414 53.9655Z" fill="#E6E6EB"/>
<path d="M139.932 61.6074L137.561 59.6262C137.382 59.4761 137.387 59.1773 137.567 58.9627C137.746 58.7482 138.039 58.6895 138.219 58.8396L140.589 60.8209C140.769 60.9709 140.763 61.2698 140.584 61.4843C140.41 61.7646 140.111 61.7575 139.932 61.6074Z" fill="#E6E6EB"/>
<path d="M135.37 57.7951L129.013 52.4817C128.833 52.3316 128.839 52.0328 129.018 51.8183C129.197 51.6037 129.491 51.545 129.67 51.6951L136.064 57.0385C136.243 57.1886 136.237 57.4874 136.058 57.702C135.849 57.9522 135.586 57.9752 135.37 57.7951Z" fill="#E6E6EB"/>
<path d="M119.953 64.3435L119.127 63.653C118.948 63.5029 118.953 63.2041 119.133 62.9896C119.312 62.775 119.605 62.7163 119.785 62.8664L120.611 63.5569C120.79 63.707 120.785 64.0058 120.605 64.2203C120.426 64.4349 120.133 64.4936 119.953 64.3435Z" fill="#E6E6EB"/>
<path d="M117.655 62.4223L112.806 58.3697C112.626 58.2196 112.632 57.9208 112.811 57.7063C112.99 57.4917 113.284 57.433 113.463 57.5831L118.312 61.6357C118.492 61.7858 118.486 62.0846 118.307 62.2991C118.127 62.5137 117.834 62.5724 117.655 62.4223Z" fill="#E6E6EB"/>
<path d="M142.43 58.8371L137.653 54.8446C137.473 54.6945 137.479 54.3957 137.658 54.1812C137.838 53.9666 138.131 53.9079 138.31 54.058L143.123 58.0805C143.303 58.2306 143.297 58.5295 143.118 58.744C142.939 58.9585 142.646 59.0172 142.43 58.8371Z" fill="#E6E6EB"/>
<path d="M133.757 46.7305L140.223 52.1338C140.402 52.2839 140.695 52.2252 140.875 52.0107C141.054 51.7962 141.03 51.5331 140.85 51.383L134.385 45.9796C134.205 45.8295 133.912 45.8882 133.733 46.1028C133.554 46.3173 133.578 46.5804 133.757 46.7305Z" fill="#E6E6EB"/>
<path d="M135.642 53.1636L131.331 49.5613C131.152 49.4112 131.158 49.1124 131.337 48.8979C131.516 48.6833 131.809 48.6246 131.989 48.7747L136.299 52.377C136.479 52.5271 136.473 52.8259 136.294 53.0405C136.15 53.285 135.857 53.3437 135.642 53.1636Z" fill="#E6E6EB"/>
<path d="M143.423 44.3636L132.504 35.2379C132.253 35.0277 132.217 34.6331 132.426 34.3828C132.635 34.1325 133.03 34.0981 133.281 34.3083L144.2 43.434C144.452 43.6441 144.488 44.0387 144.279 44.289C144.07 44.5393 143.675 44.5737 143.423 44.3636Z" fill="#E6E6EB"/>
<path d="M134.525 41.3601L130.323 37.8479C130.071 37.6378 130.035 37.2431 130.244 36.9929C130.454 36.7426 130.848 36.7082 131.1 36.9183L135.266 40.4005C135.518 40.6106 135.554 41.0053 135.345 41.2555C135.136 41.5058 134.741 41.5402 134.525 41.3601Z" fill="#E6E6EB"/>
<path d="M146.775 46.1931L144.982 48.3383C144.235 49.2322 144.398 50.6434 145.296 51.3939L151.042 56.1969" stroke="#6F7590" stroke-miterlimit="10" stroke-linecap="round" stroke-linejoin="round"/>
<path d="M67.758 16.5044L68.2614 12.2264C68.3932 11.106 69.4219 10.2977 70.5475 10.4301L94.0815 13.1992L103.317 25.955L99.7685 59.2022C99.6367 60.3226 98.6079 61.131 97.4824 60.9985L65.0464 57.182C63.9209 57.0495 63.1079 56.0245 63.2397 54.9041L67.0329 22.6667" fill="white"/>
<path d="M67.758 16.5044L68.2614 12.2264C68.3932 11.106 69.4219 10.2977 70.5475 10.4301L94.0815 13.1992L103.317 25.955L99.7685 59.2022C99.6367 60.3226 98.6079 61.131 97.4824 60.9985L65.0464 57.182C63.9209 57.0495 63.1079 56.0245 63.2397 54.9041L67.0329 22.6667" stroke="#6F7590" stroke-miterlimit="10" stroke-linecap="round" stroke-linejoin="round"/>
<path d="M94.0206 13.6098L93.4316 22.3491C93.2393 23.5643 94.174 24.5402 95.2772 24.645L102.247 25.3475" fill="#D5DDEA"/>
<path d="M95.2686 45.8683L75.8275 43.5807C75.5717 43.5506 75.397 43.2719 75.433 42.9663C75.469 42.6608 75.7036 42.4302 75.9594 42.4603L95.4005 44.7479C95.6563 44.778 95.831 45.0567 95.795 45.3622C95.759 45.6678 95.5244 45.8984 95.2686 45.8683Z" fill="#E6E6EB"/>
<path d="M73.423 43.2978L69.9952 42.8945C69.7394 42.8644 69.5647 42.5857 69.6007 42.2801C69.6366 41.9745 69.8712 41.744 70.127 41.7741L73.5548 42.1774C73.8106 42.2075 73.9853 42.4862 73.9494 42.7918C73.9134 43.0974 73.6788 43.3279 73.423 43.2978Z" fill="#E6E6EB"/>
<path d="M95.6969 41.7881L86.9996 40.7647C86.7438 40.7346 86.5691 40.4559 86.605 40.1503C86.641 39.8447 86.8756 39.6142 87.1314 39.6443L95.8287 40.6677C96.0846 40.6978 96.2592 40.9765 96.2233 41.282C96.1873 41.5876 95.9527 41.8182 95.6969 41.7881Z" fill="#E6E6EB"/>
<path d="M83.3159 40.3313L70.6281 38.8383C70.3722 38.8082 70.1976 38.5295 70.2335 38.2239C70.2695 37.9184 70.5041 37.6878 70.7599 37.7179L83.4478 39.2108C83.7036 39.2409 83.8783 39.5197 83.8423 39.8252C83.8063 40.1308 83.5717 40.3614 83.3159 40.3313Z" fill="#E6E6EB"/>
<path d="M94.0202 29.1472L97.4992 29.5565C97.755 29.5866 97.9896 29.3561 98.0256 29.0505C98.0615 28.7449 97.932 28.5232 97.625 28.487L94.1461 28.0777C93.8903 28.0476 93.6557 28.2782 93.6197 28.5837C93.5838 28.8893 93.7644 29.1171 94.0202 29.1472Z" fill="#E6E6EB"/>
<path d="M96.3357 37.681L92.9591 37.2836C92.7033 37.2535 92.5286 36.9748 92.5646 36.6693C92.6005 36.3637 92.8351 36.1331 93.0909 36.1632L96.4675 36.5605C96.7233 36.5906 96.898 36.8694 96.8621 37.1749C96.8713 37.5374 96.5915 37.7111 96.3357 37.681Z" fill="#E6E6EB"/>
<path d="M89.8383 36.9164L80.7828 35.8509C80.527 35.8208 80.3523 35.5421 80.3883 35.2365C80.4242 34.931 80.6588 34.7004 80.9146 34.7305L90.0213 35.802C90.2771 35.8321 90.4517 36.1109 90.4158 36.4164C90.3738 36.7729 90.1452 36.9526 89.8383 36.9164Z" fill="#E6E6EB"/>
<path d="M79.5816 52.2322L78.4049 52.0937C78.1491 52.0636 77.9744 51.7849 78.0104 51.4793C78.0463 51.1738 78.2809 50.9432 78.5367 50.9733L79.7134 51.1117C79.9692 51.1418 80.1439 51.4206 80.108 51.7261C80.072 52.0317 79.8374 52.2623 79.5816 52.2322Z" fill="#E6E6EB"/>
<path d="M76.3073 51.8469L69.4006 51.0342C69.1448 51.0041 68.9701 50.7254 69.0061 50.4198C69.042 50.1143 69.2766 49.8837 69.5324 49.9138L76.4392 50.7265C76.695 50.7566 76.8696 51.0353 76.8337 51.3409C76.7977 51.6464 76.5631 51.877 76.3073 51.8469Z" fill="#E6E6EB"/>
<path d="M96.9685 33.6248L90.1641 32.8241C89.9083 32.794 89.7336 32.5153 89.7696 32.2098C89.8056 31.9042 90.0402 31.6736 90.296 31.7037L97.1515 32.5104C97.4073 32.5405 97.582 32.8192 97.5461 33.1248C97.5101 33.4303 97.2755 33.6609 96.9685 33.6248Z" fill="#E6E6EB"/>
<path d="M81.6894 27.6963L90.8983 28.7799C91.1541 28.81 91.3887 28.5794 91.4247 28.2738C91.4607 27.9683 91.28 27.7405 91.0242 27.7104L81.8152 26.6268C81.5594 26.5967 81.3248 26.8273 81.2889 27.1328C81.2529 27.4384 81.4336 27.6662 81.6894 27.6963Z" fill="#E6E6EB"/>
<path d="M87.2991 32.487L81.1598 31.7646C80.904 31.7346 80.7294 31.4558 80.7653 31.1503C80.8013 30.8447 81.0359 30.6141 81.2917 30.6442L87.431 31.3666C87.6868 31.3967 87.8615 31.6754 87.8255 31.981C87.8407 32.2926 87.6061 32.5231 87.2991 32.487Z" fill="#E6E6EB"/>
<path d="M89.1674 19.6953L73.6145 17.8653C73.2563 17.8231 72.9853 17.4814 73.0273 17.1249C73.0692 16.7684 73.4121 16.499 73.7703 16.5411L89.3232 18.3712C89.6813 18.4133 89.9523 18.755 89.9103 19.1115C89.8684 19.468 89.5255 19.7374 89.1674 19.6953Z" fill="#E6E6EB"/>
<path d="M79.1628 22.2873L73.177 21.583C72.8189 21.5408 72.5479 21.1991 72.5898 20.8427C72.6318 20.4862 72.9747 20.2167 73.3328 20.2588L79.2675 20.9571C79.6256 20.9993 79.8966 21.341 79.8547 21.6975C79.8127 22.054 79.4698 22.3234 79.1628 22.2873Z" fill="#E6E6EB"/>
<path d="M93.3562 19.362L92.9967 22.4177C92.8469 23.6909 93.8466 24.8928 95.1256 25.0433L103.311 26.0065" stroke="#6F7590" stroke-miterlimit="10" stroke-linecap="round" stroke-linejoin="round"/>
<path d="M3.12998 44.331L1.07139 40.5472C0.53223 39.5563 0.905603 38.3023 1.9011 37.7607L22.7161 26.4359L37.6215 31.5197L53.9168 60.7161C54.456 61.7071 54.0826 62.961 53.0871 63.5027L24.3986 79.1112C23.4031 79.6528 22.1475 79.2852 21.6083 78.2942L6.09534 49.7813" fill="white"/>
<path d="M3.12998 44.331L1.07139 40.5472C0.53223 39.5563 0.905603 38.3023 1.9011 37.7607L22.7161 26.4359L37.6215 31.5197L53.9168 60.7161C54.456 61.7071 54.0826 62.961 53.0871 63.5027L24.3986 79.1112C23.4031 79.6528 22.1475 79.2852 21.6083 78.2942L6.09534 49.7813" stroke="#6F7590" stroke-miterlimit="10" stroke-linecap="round" stroke-linejoin="round"/>
<path d="M22.9034 26.8063L27.4676 34.2823C28.0121 35.3856 29.3387 35.6429 30.3 35.0915L36.3965 31.6417" fill="#D5DDEA"/>
<path d="M42.545 52.4262L25.35 61.7814C25.1237 61.9045 24.8202 61.7778 24.6731 61.5075C24.5261 61.2373 24.5846 60.9136 24.8108 60.7905L42.0058 51.4352C42.2321 51.3121 42.5356 51.4388 42.6827 51.7091C42.8297 51.9794 42.7712 52.3031 42.545 52.4262Z" fill="#E6E6EB"/>
<path d="M23.2232 62.9385L20.1915 64.588C19.9652 64.7111 19.6617 64.5844 19.5147 64.3141C19.3676 64.0438 19.4261 63.7201 19.6523 63.597L22.6841 61.9476C22.9103 61.8245 23.2139 61.9512 23.3609 62.2215C23.5079 62.4917 23.4495 62.8154 23.2232 62.9385Z" fill="#E6E6EB"/>
<path d="M40.5392 48.8473L32.8467 53.0325C32.6205 53.1556 32.3169 53.0289 32.1699 52.7586C32.0228 52.4884 32.0813 52.1647 32.3076 52.0416L40.0001 47.8563C40.2263 47.7332 40.5299 47.86 40.6769 48.1302C40.8239 48.4005 40.7655 48.7242 40.5392 48.8473Z" fill="#E6E6EB"/>
<path d="M29.5887 54.8051L18.3667 60.9107C18.1404 61.0338 17.8369 60.907 17.6898 60.6368C17.5428 60.3665 17.6012 60.0428 17.8275 59.9197L29.0495 53.8142C29.2758 53.6911 29.5793 53.8178 29.7263 54.0881C29.8734 54.3583 29.8149 54.682 29.5887 54.8051Z" fill="#E6E6EB"/>
<path d="M31.8727 39.4934L34.9497 37.8193C35.176 37.6962 35.2344 37.3725 35.0874 37.1023C34.9404 36.832 34.7066 36.7257 34.4351 36.8734L31.3581 38.5475C31.1318 38.6706 31.0734 38.9943 31.2204 39.2645C31.3674 39.5348 31.6465 39.6165 31.8727 39.4934Z" fill="#E6E6EB"/>
<path d="M38.6898 45.1249L35.7033 46.7498C35.4771 46.8729 35.1735 46.7461 35.0265 46.4758C34.8795 46.2056 34.9379 45.8819 35.1642 45.7588L38.1507 44.1339C38.3769 44.0108 38.6805 44.1376 38.8275 44.4078C39.0443 44.6985 38.9161 45.0018 38.6898 45.1249Z" fill="#E6E6EB"/>
<path d="M32.9431 48.2515L24.9338 52.6091C24.7076 52.7322 24.404 52.6055 24.257 52.3352C24.1099 52.0649 24.1684 51.7412 24.3947 51.6181L32.4492 47.2359C32.6754 47.1128 32.979 47.2396 33.126 47.5099C33.2975 47.8252 33.2146 48.1038 32.9431 48.2515Z" fill="#E6E6EB"/>
<path d="M33.4097 66.6785L32.3689 67.2447C32.1427 67.3678 31.8391 67.2411 31.6921 66.9708C31.5451 66.7006 31.6035 66.3769 31.8298 66.2538L32.8705 65.6875C33.0968 65.5644 33.4003 65.6912 33.5473 65.9614C33.6944 66.2317 33.6359 66.5554 33.4097 66.6785Z" fill="#E6E6EB"/>
<path d="M30.5137 68.2541L24.4049 71.5777C24.1787 71.7008 23.8751 71.574 23.7281 71.3038C23.5811 71.0335 23.6395 70.7098 23.8658 70.5867L29.9745 67.2631C30.2008 67.14 30.5043 67.2668 30.6514 67.5371C30.7984 67.8073 30.7399 68.131 30.5137 68.2541Z" fill="#E6E6EB"/>
<path d="M36.865 41.4476L30.8467 44.7219C30.6205 44.845 30.3169 44.7182 30.1699 44.448C30.0228 44.1777 30.0813 43.854 30.3076 43.7309L36.3711 40.432C36.5973 40.3089 36.9009 40.4356 37.0479 40.7059C37.1949 40.9761 37.1365 41.2998 36.865 41.4476Z" fill="#E6E6EB"/>
<path d="M20.9665 45.4272L29.1115 40.9957C29.3377 40.8726 29.3962 40.5489 29.2492 40.2787C29.1021 40.0084 28.8231 39.9267 28.5969 40.0498L20.4518 44.4812C20.2256 44.6043 20.1671 44.928 20.3142 45.1983C20.4612 45.4686 20.7402 45.5503 20.9665 45.4272Z" fill="#E6E6EB"/>
<path d="M28.3127 46.1006L22.8827 49.0549C22.6565 49.178 22.3529 49.0512 22.2059 48.7809C22.0588 48.5107 22.1173 48.187 22.3436 48.0639L27.7736 45.1096C27.9998 44.9865 28.3034 45.1132 28.4504 45.3835C28.6427 45.6291 28.5842 45.9528 28.3127 46.1006Z" fill="#E6E6EB"/>
<path d="M22.4537 34.5771L8.69765 42.0613C8.3809 42.2336 7.96236 42.1111 7.79081 41.7958C7.61926 41.4805 7.74371 41.0625 8.06046 40.8902L21.8165 33.4059C22.1332 33.2336 22.5518 33.3562 22.7233 33.6715C22.8949 33.9868 22.7704 34.4048 22.4537 34.5771Z" fill="#E6E6EB"/>
<path d="M15.7809 42.4691L10.4866 45.3495C10.1699 45.5218 9.75135 45.3993 9.5798 45.084C9.40825 44.7687 9.53271 44.3507 9.84946 44.1783L15.0985 41.3225C15.4152 41.1502 15.8338 41.2727 16.0053 41.5881C16.1769 41.9034 16.0524 42.3213 15.7809 42.4691Z" fill="#E6E6EB"/>
<path d="M25.6817 31.8868L27.1521 34.5894C27.7648 35.7155 29.2749 36.1198 30.4062 35.5044L37.6462 31.5653" stroke="#6F7590" stroke-miterlimit="10" stroke-linecap="round" stroke-linejoin="round"/>
<defs>
<filter id="filter0_d_50_7193" x="6.97528" y="65.5785" width="142.1" height="96.3" filterUnits="userSpaceOnUse" color-interpolation-filters="sRGB">
<feFlood flood-opacity="0" result="BackgroundImageFix"/>
<feColorMatrix in="SourceAlpha" type="matrix" values="0 0 0 0 0 0 0 0 0 0 0 0 0 0 0 0 0 0 127 0" result="hardAlpha"/>
<feOffset dy="11"/>
<feGaussianBlur stdDeviation="11"/>
<feColorMatrix type="matrix" values="0 0 0 0 0.397708 0 0 0 0 0.47749 0 0 0 0 0.575 0 0 0 0.27 0"/>
<feBlend mode="normal" in2="BackgroundImageFix" result="effect1_dropShadow_50_7193"/>
<feBlend mode="normal" in="SourceGraphic" in2="effect1_dropShadow_50_7193" result="shape"/>
</filter>
<filter id="filter1_d_50_7193" x="52" y="96" width="55" height="55" filterUnits="userSpaceOnUse" color-interpolation-filters="sRGB">
<feFlood flood-opacity="0" result="BackgroundImageFix"/>
<feColorMatrix in="SourceAlpha" type="matrix" values="0 0 0 0 0 0 0 0 0 0 0 0 0 0 0 0 0 0 127 0" result="hardAlpha"/>
<feOffset dy="5"/>
<feGaussianBlur stdDeviation="4"/>
<feColorMatrix type="matrix" values="0 0 0 0 0.1125 0 0 0 0 0.295916 0 0 0 0 1 0 0 0 0.22 0"/>
<feBlend mode="normal" in2="BackgroundImageFix" result="effect1_dropShadow_50_7193"/>
<feBlend mode="normal" in="SourceGraphic" in2="effect1_dropShadow_50_7193" result="shape"/>
</filter>
<linearGradient id="paint0_linear_50_7193" x1="78.4329" y1="61.4212" x2="78.4329" y2="94.425" gradientUnits="userSpaceOnUse">
<stop stop-color="#B0BACC"/>
<stop offset="1" stop-color="#969EAE"/>
</linearGradient>
<linearGradient id="paint1_linear_50_7193" x1="89.0953" y1="79.0605" x2="95.9203" y2="79.8476" gradientUnits="userSpaceOnUse">
<stop stop-color="#83A6FF"/>
<stop offset="1" stop-color="#5A78FF"/>
</linearGradient>
<linearGradient id="paint2_linear_50_7193" x1="77.9934" y1="75.3687" x2="77.9934" y2="129.442" gradientUnits="userSpaceOnUse">
<stop stop-color="#FDFEFF"/>
<stop offset="0.9964" stop-color="#ECF0F5"/>
</linearGradient>
<linearGradient id="paint3_linear_50_7193" x1="62.2826" y1="109.213" x2="96.8135" y2="128.663" gradientUnits="userSpaceOnUse">
<stop stop-color="#83A6FF"/>
<stop offset="0.994956" stop-color="#5277D7"/>
</linearGradient>
</defs>
</svg>
