<svg viewBox="0 0 16 16" fill="none" xmlns="http://www.w3.org/2000/svg">
    <path
        d="M7.87597 1.57088C7.95282 1.52696 8.04718 1.52696 8.12403 1.57088L14.1826 5.03294C14.4052 5.16013 14.315 5.5 14.0586 5.5H1.94139C1.68503 5.5 1.59477 5.16013 1.81736 5.03294L7.87597 1.57088Z"
        fill="#E6E6EB"
        stroke="currentColor"
    />
    <path
        d="M1.5 14.5L14.5 14.5"
        stroke="currentColor"
        stroke-linecap="round"
    />
    <path
        fill-rule="evenodd"
        clip-rule="evenodd"
        d="M3.5 7C3.77614 7 4 7.22386 4 7.5L4 12.5C4 12.7761 3.77614 13 3.5 13C3.22386 13 3 12.7761 3 12.5L3 7.5C3 7.22386 3.22386 7 3.5 7Z"
        fill="currentColor"
    />
    <path
        fill-rule="evenodd"
        clip-rule="evenodd"
        d="M6.5 7C6.77614 7 7 7.22386 7 7.5L7 12.5C7 12.7761 6.77614 13 6.5 13C6.22386 13 6 12.7761 6 12.5L6 7.5C6 7.22386 6.22386 7 6.5 7Z"
        fill="currentColor"
    />
    <path
        fill-rule="evenodd"
        clip-rule="evenodd"
        d="M9.5 7C9.77614 7 10 7.22386 10 7.5L10 12.5C10 12.7761 9.77614 13 9.5 13C9.22386 13 9 12.7761 9 12.5L9 7.5C9 7.22386 9.22386 7 9.5 7Z"
        fill="currentColor"
    />
    <path
        fill-rule="evenodd"
        clip-rule="evenodd"
        d="M12.5 7C12.7761 7 13 7.22386 13 7.5V12.5C13 12.7761 12.7761 13 12.5 13C12.2239 13 12 12.7761 12 12.5V7.5C12 7.22386 12.2239 7 12.5 7Z"
        fill="currentColor"
    />
    <path
        fill-rule="evenodd"
        clip-rule="evenodd"
        d="M2 12.5C2 12.2239 2.22386 12 2.5 12H13.5C13.7761 12 14 12.2239 14 12.5C14 12.7761 13.7761 13 13.5 13H2.5C2.22386 13 2 12.7761 2 12.5Z"
        fill="currentColor"
    />
</svg>
