<svg  viewBox="0 0 24 24" fill="none" xmlns="http://www.w3.org/2000/svg">
<path d="M12.6454 8.72124C12.6454 10.7732 10.9696 12.4425 8.89536 12.4425C6.82108 12.4425 5.14536 10.7732 5.14536 8.72124C5.14536 6.66925 6.82108 5 8.89536 5C10.9696 5 12.6454 6.66925 12.6454 8.72124Z" fill="#F4F6FD" stroke="#5277D7"/>
<path d="M15 19C15 15.4344 12.2018 12.5439 8.75 12.5439C5.29822 12.5439 2.5 15.4344 2.5 19" stroke="#5277D7" stroke-linecap="round"/>
<path d="M16.6375 14C18.2379 14 19.2031 12.7688 19.2031 11.25C19.2031 9.73122 17.9057 8.5 16.3053 8.5C15.8357 8.5 15.3923 8.60598 15 8.79412" stroke="#5277D7" stroke-linecap="round"/>
<path d="M21 18C21 15.7909 19.1182 14 16.797 14" stroke="#5277D7" stroke-linecap="round"/>
</svg>
