<svg width="16" height="16" viewBox="0 0 16 16" fill="none" xmlns="http://www.w3.org/2000/svg">
<circle cx="6" cy="6" r="3" fill="white"/>
<path d="M6 8.5C3.68345 8.5 1.77573 10.2504 1.52738 12.5008C1.49708 12.7753 1.72386 13 2 13H10C10.2761 13 10.5029 12.7753 10.4726 12.5008C10.2243 10.2504 8.31655 8.5 6 8.5Z" fill="white" stroke="white" stroke-linecap="round"/>
<path d="M11.5009 9.5C12.6054 9.5 13.5009 8.60457 13.5009 7.5C13.5009 6.39543 12.6054 5.5 11.5009 5.5C11.1768 5.5 10.8707 5.57708 10.6 5.71391" stroke="white" stroke-linecap="round"/>
<path d="M14.5 12.5C14.5 10.8431 13.1569 9.5 11.5 9.5" stroke="white" stroke-linecap="round"/>
</svg>
