<svg  viewBox="0 0 24 24" fill="none" xmlns="http://www.w3.org/2000/svg">
<path d="M3.93875 9.74485C4.47035 7.77364 5.65592 6.0391 7.30142 4.82513C8.94692 3.61116 10.9549 2.98966 12.9966 3.06237C15.0384 3.13507 16.9931 3.89766 18.5407 5.22532C20.0882 6.55299 21.1371 8.36709 21.5156 10.3707C21.8941 12.3743 21.5798 14.4488 20.6241 16.2545C19.6684 18.0603 18.128 19.4904 16.2549 20.3107C14.3818 21.1311 12.2871 21.2932 10.3135 20.7704C8.33993 20.2476 6.60443 19.071 5.39106 17.433M3.93875 9.74485L2 6.49976M3.93875 9.74485L7.45204 9.00273" stroke="currentColor"  stroke-width="1.5" stroke-linecap="round" stroke-linejoin="round"/>
<path d="M12.4501 8.09961V12.5996L15.4501 15.5996" stroke="currentColor"  stroke-width="1.5" stroke-linecap="round" stroke-linejoin="round"/>
</svg>
