<svg viewBox="0 0 16 16" fill="none" xmlns="http://www.w3.org/2000/svg">
    <path
        d="M9.49963 12.9995V9.99947C9.49963 9.86686 9.44696 9.73969 9.35319 9.64592C9.25942 9.55215 9.13224 9.49947 8.99963 9.49947H6.99963C6.86703 9.49947 6.73985 9.55215 6.64608 9.64592C6.55231 9.73969 6.49963 9.86686 6.49963 9.99947V12.9995C6.49963 13.1321 6.44696 13.2593 6.35321 13.3531C6.25945 13.4468 6.13229 13.4995 5.9997 13.4995L3.00006 13.4999C2.9344 13.4999 2.86937 13.487 2.8087 13.4619C2.74803 13.4368 2.6929 13.3999 2.64647 13.3535C2.60003 13.3071 2.5632 13.252 2.53807 13.1913C2.51293 13.1306 2.5 13.0656 2.5 12.9999V7.22116C2.5 7.1515 2.51456 7.0826 2.54273 7.0189C2.57091 6.95519 2.61209 6.89808 2.66363 6.85121L7.66329 2.62997C7.75532 2.54629 7.87525 2.5 7.99964 2.5C8.12403 2.5 8.24396 2.5463 8.336 2.62997L13.3363 6.85121C13.3879 6.89808 13.4291 6.95519 13.4573 7.0189C13.4854 7.08261 13.5 7.15151 13.5 7.22118V12.9999C13.5 13.0656 13.4871 13.1306 13.4619 13.1913C13.4368 13.252 13.4 13.3071 13.3535 13.3535C13.3071 13.3999 13.252 13.4368 13.1913 13.4619C13.1306 13.487 13.0656 13.4999 12.9999 13.4999L9.99957 13.4995C9.86697 13.4995 9.73981 13.4468 9.64606 13.3531C9.5523 13.2593 9.49963 13.1321 9.49963 12.9995Z"
        stroke="currentColor"
        stroke-linecap="round"
        stroke-linejoin="round"
    />
</svg>
