<svg width="16" height="16" viewBox="0 0 16 16" fill="none" xmlns="http://www.w3.org/2000/svg">
<path d="M13.9091 1.5H2.09091C1.76456 1.5 1.5 1.76456 1.5 2.09091V13.9091C1.5 14.2354 1.76456 14.5 2.09091 14.5H13.9091C14.2354 14.5 14.5 14.2354 14.5 13.9091V2.09091C14.5 1.76456 14.2354 1.5 13.9091 1.5Z" stroke="currentColor" stroke-linecap="round" stroke-linejoin="round"/>
<path d="M14.5 9L10.8562 5.35626C10.8097 5.30901 10.7543 5.2715 10.6931 5.24589C10.6319 5.22028 10.5663 5.20709 10.5 5.20709C10.4337 5.20709 10.3681 5.22028 10.3069 5.24589C10.2457 5.2715 10.1903 5.30901 10.1438 5.35626L7.35625 8.14376C7.30973 8.191 7.25427 8.22852 7.19311 8.25412C7.13195 8.27973 7.06631 8.29292 7 8.29292C6.93369 8.29292 6.86805 8.27973 6.80689 8.25412C6.74573 8.22852 6.69027 8.191 6.64375 8.14376L5.35625 6.85626C5.30973 6.80901 5.25427 6.7715 5.19311 6.74589C5.13195 6.72028 5.06631 6.70709 5 6.70709C4.93369 6.70709 4.86805 6.72028 4.80689 6.74589C4.74573 6.7715 4.69027 6.80901 4.64375 6.85626L1.5 10" stroke="currentColor" stroke-linecap="round" stroke-linejoin="round"/>
</svg>
