<svg  viewBox="0 0 16 16" fill="none" xmlns="http://www.w3.org/2000/svg">
<path d="M8.00004 14.6667C4.31814 14.6667 1.33337 11.6819 1.33337 8.00004C1.33337 4.31814 4.31814 1.33337 8.00004 1.33337C11.6819 1.33337 14.6667 4.31814 14.6667 8.00004C14.6627 11.6803 11.6803 14.6627 8.00004 14.6667ZM2.66671 8.11471C2.69825 11.0489 5.09411 13.4064 8.0284 13.3907C10.9627 13.3749 13.3331 10.9917 13.3331 8.05737C13.3331 5.12304 10.9627 2.73989 8.0284 2.72404C5.09411 2.70835 2.69825 5.06588 2.66671 8.00004V8.11471ZM9.33337 11.3334H7.33337V8.66671H6.66671V7.33337H8.66671V10H9.33337V11.3334ZM8.66671 6.00004H7.33337V4.66671H8.66671V6.00004Z" fill="currentColor"/>
</svg>
