<svg width="16" height="16" viewBox="0 0 16 16" fill="none" xmlns="http://www.w3.org/2000/svg">
<path fill-rule="evenodd" clip-rule="evenodd" d="M7.48295 4.91371C6.87571 4.55042 6.1728 4.35714 5.45455 4.35714C4.4419 4.35714 3.47073 4.74094 2.75468 5.42411C2.03864 6.10728 1.63637 7.03385 1.63637 8C1.63637 8.72049 1.8603 9.4248 2.27985 10.0239C2.69939 10.6229 3.29571 11.0898 3.99339 11.3656C4.69107 11.6413 5.45878 11.7134 6.19944 11.5729C6.65707 11.486 7.09167 11.3204 7.48296 11.0863C7.45349 11.0597 7.42437 11.0326 7.39562 11.0052C6.77264 10.4108 6.34838 9.65355 6.1765 8.82913C6.00462 8.00471 6.09284 7.15018 6.42999 6.37359C6.67063 5.81932 7.03037 5.32252 7.48295 4.91371ZM8.00002 4.51222C7.25819 4.0194 6.37092 3.75 5.45455 3.75C4.57352 3.75 3.71228 3.99926 2.97973 4.46625C2.24719 4.93325 1.67624 5.59701 1.33908 6.37359C1.00193 7.15018 0.913715 8.00471 1.08559 8.82913C1.25747 9.65355 1.68173 10.4108 2.30471 11.0052C2.92769 11.5996 3.72141 12.0043 4.58551 12.1683C5.4496 12.3323 6.34527 12.2482 7.15923 11.9265C7.45671 11.8089 7.7384 11.6616 8 11.4878C8.5014 11.8209 9.07167 12.0536 9.67642 12.1683C10.5405 12.3323 11.4362 12.2482 12.2501 11.9265C13.0641 11.6048 13.7598 11.0601 14.2493 10.3612C14.7387 9.66226 15 8.84057 15 8C15 6.87283 14.5307 5.79183 13.6953 4.9948C12.8599 4.19777 11.7269 3.75 10.5455 3.75C9.66443 3.75 8.80319 3.99926 8.07064 4.46625C8.04693 4.48137 8.02339 4.49669 8.00002 4.51222ZM8.51705 11.0863C8.7573 10.8693 8.97267 10.6263 9.15837 10.3612C9.64784 9.66226 9.90909 8.84057 9.90909 8C9.90909 6.87283 9.43977 5.79183 8.60438 4.9948C8.57562 4.96735 8.5465 4.94032 8.51704 4.91371C9.12013 4.55292 9.82222 4.35714 10.5455 4.35714C11.3006 4.35714 12.0388 4.57079 12.6667 4.97107C13.2946 5.37136 13.784 5.94029 14.073 6.60594C14.362 7.27158 14.4376 8.00404 14.2903 8.71069C14.1429 9.41733 13.7793 10.0664 13.2453 10.5759C12.7113 11.0854 12.031 11.4323 11.2903 11.5729C10.5497 11.7134 9.78198 11.6413 9.0843 11.3656C8.88649 11.2874 8.69684 11.1938 8.51705 11.0863Z" fill="currentColor"/>
</svg>
