<svg viewBox="0 0 24 24" fill="none" xmlns="http://www.w3.org/2000/svg">
    <path fill-rule="evenodd" clip-rule="evenodd"
        d="M3.00146 5.1395C3.00146 3.95842 3.95891 3.00098 5.13999 3.00098H7.77851C8.95958 3.00098 9.91703 3.95842 9.91703 5.1395V7.77802C9.91703 8.95909 8.95958 9.91654 7.77851 9.91654H5.13999C3.95891 9.91654 3.00146 8.95909 3.00146 7.77802V5.1395ZM5.13999 2.00098C3.40663 2.00098 2.00146 3.40614 2.00146 5.1395V7.77802C2.00146 9.51138 3.40663 10.9165 5.13999 10.9165H7.77851C9.51187 10.9165 10.917 9.51138 10.917 7.77802V5.1395C10.917 3.40614 9.51187 2.00098 7.77851 2.00098H5.13999ZM14.0833 5.1395C14.0833 3.95842 15.0407 3.00098 16.2218 3.00098H18.8603C20.0414 3.00098 20.9988 3.95842 20.9988 5.1395V7.77802C20.9988 8.9591 20.0414 9.91654 18.8603 9.91654H16.2218C15.0407 9.91654 14.0833 8.9591 14.0833 7.77802V5.1395ZM16.2218 2.00098C14.4884 2.00098 13.0833 3.40614 13.0833 5.1395V7.77802C13.0833 9.51137 14.4884 10.9165 16.2218 10.9165H18.8603C20.5937 10.9165 21.9988 9.51137 21.9988 7.77802V5.1395C21.9988 3.40614 20.5937 2.00098 18.8603 2.00098H16.2218ZM5.13999 14.0828C3.95891 14.0828 3.00146 15.0402 3.00146 16.2213V18.8598C3.00146 20.0409 3.95891 20.9983 5.13999 20.9983H7.77851C8.95959 20.9983 9.91703 20.0409 9.91703 18.8598V16.2213C9.91703 15.0402 8.95959 14.0828 7.77851 14.0828H5.13999ZM2.00146 16.2213C2.00146 14.4879 3.40663 13.0828 5.13999 13.0828H7.77851C9.51186 13.0828 10.917 14.4879 10.917 16.2213V18.8598C10.917 20.5932 9.51186 21.9983 7.77851 21.9983H5.13999C3.40663 21.9983 2.00146 20.5932 2.00146 18.8598V16.2213ZM14.0833 16.2213C14.0833 15.0402 15.0407 14.0828 16.2218 14.0828H18.8603C20.0414 14.0828 20.9988 15.0402 20.9988 16.2213V18.8598C20.9988 20.0409 20.0414 20.9983 18.8603 20.9983H16.2218C15.0407 20.9983 14.0833 20.0409 14.0833 18.8598V16.2213ZM16.2218 13.0828C14.4884 13.0828 13.0833 14.4879 13.0833 16.2213V18.8598C13.0833 20.5932 14.4884 21.9983 16.2218 21.9983H18.8603C20.5937 21.9983 21.9988 20.5932 21.9988 18.8598V16.2213C21.9988 14.4879 20.5937 13.0828 18.8603 13.0828H16.2218Z"
        fill="#64748B" />
</svg>