<svg  viewBox="0 0 14 14" fill="none" xmlns="http://www.w3.org/2000/svg">
<path d="M13.5534 6.79793L0.483083 0.244802C0.429958 0.218239 0.369021 0.211989 0.311208 0.226052C0.247045 0.241914 0.191781 0.282554 0.157517 0.339075C0.123253 0.395595 0.112782 0.46339 0.128395 0.527614L1.47527 6.03074C1.49558 6.11355 1.55652 6.18074 1.63777 6.2073L3.94558 6.99949L1.63933 7.79168C1.55808 7.8198 1.49715 7.88543 1.4784 7.96824L0.128395 13.4792C0.114333 13.537 0.120583 13.5979 0.147145 13.6495C0.208083 13.7729 0.358083 13.8229 0.483083 13.762L13.5534 7.24636C13.6018 7.22293 13.6409 7.1823 13.6659 7.13543C13.7268 7.01043 13.6768 6.86043 13.5534 6.79793ZM1.66902 11.9136L2.45496 8.70105L7.06746 7.11824C7.1034 7.10574 7.13308 7.07761 7.14558 7.04011C7.16746 6.97449 7.13308 6.90418 7.06746 6.88074L2.45496 5.29949L1.67215 2.09949L11.4846 7.0198L1.66902 11.9136Z" fill="#64748B"/>
</svg>
