<svg width="14" height="14" viewBox="0 0 14 14" fill="none" xmlns="http://www.w3.org/2000/svg">
<circle cx="7" cy="7" r="7" fill="#CF592E"/>
<path fill-rule="evenodd" clip-rule="evenodd" d="M6.40206 8H7.59794C7.67386 8 7.7365 7.94061 7.74054 7.8648L7.99198 3.15041C7.99634 3.06867 7.93123 3 7.84938 3H6.15063C6.06877 3 6.00366 3.06867 6.00802 3.15041L6.25946 7.8648C6.2635 7.94061 6.32615 8 6.40206 8ZM7 11C7.55228 11 8 10.5523 8 10C8 9.44772 7.55228 9 7 9C6.44772 9 6 9.44772 6 10C6 10.5523 6.44772 11 7 11Z" fill="white"/>
</svg>
