<svg width="16" height="16" viewBox="0 0 16 16" fill="none" xmlns="http://www.w3.org/2000/svg">
<path fill-rule="evenodd" clip-rule="evenodd" d="M12.7084 4.97107C12.0917 4.57079 11.3667 4.35714 10.625 4.35714C9.65281 4.35714 8.71955 4.72387 8.02119 5.37846C7.95959 5.30748 7.89532 5.23846 7.82843 5.17157C7.74944 5.09259 7.66749 5.01724 7.58284 4.94565C7.77061 4.76916 7.97512 4.60857 8.19438 4.46625C8.91385 3.99926 9.75971 3.75 10.625 3.75C11.7853 3.75 12.8981 4.19777 13.7186 4.9948C14.5391 5.79183 15 6.87283 15 8C15 8.84057 14.7434 9.66226 14.2627 10.3612C13.7819 11.0601 13.0987 11.6048 12.2992 11.9265C11.4998 12.2482 10.6201 12.3323 9.77148 12.1683C8.94641 12.0089 8.18666 11.6219 7.58283 11.0543C7.73958 10.9218 7.88618 10.7771 8.02119 10.6215C8.35766 10.9369 8.75362 11.19 9.18994 11.3656C9.87516 11.6413 10.6292 11.7134 11.3566 11.5729C12.084 11.4323 12.7522 11.0854 13.2767 10.5759C13.8011 10.0664 14.1582 9.41733 14.3029 8.71069C14.4476 8.00404 14.3734 7.27158 14.0895 6.60594C13.8057 5.94029 13.3251 5.37136 12.7084 4.97107ZM7.58283 11.0543C7.26903 11.3197 6.91452 11.5365 6.53073 11.6955C5.79983 11.9983 4.99556 12.0775 4.21964 11.9231C3.44372 11.7688 2.73098 11.3878 2.17157 10.8284C1.61216 10.269 1.2312 9.55628 1.07686 8.78036C0.92252 8.00444 1.00173 7.20017 1.30448 6.46927C1.60723 5.73836 2.11992 5.11365 2.77772 4.67412C3.43552 4.2346 4.20888 4 5 4C5.94916 4 6.86354 4.33735 7.58284 4.94565C7.15446 5.34829 6.81325 5.83367 6.58303 6.37359C6.2519 7.15018 6.16526 8.00471 6.33407 8.82913C6.50288 9.65355 6.91955 10.4108 7.53141 11.0052C7.54842 11.0217 7.56556 11.0381 7.58283 11.0543ZM8.02119 10.6215C7.82925 10.4416 7.65666 10.2415 7.50699 10.0239C7.09494 9.4248 6.875 8.72049 6.875 8C6.875 7.03385 7.27009 6.10728 7.97335 5.42411C7.98917 5.40874 8.00512 5.39352 8.02119 5.37846C8.65038 6.10351 9 7.03373 9 8C9 8.79112 8.7654 9.56448 8.32588 10.2223C8.23243 10.3621 8.13061 10.4954 8.02119 10.6215Z" fill="currentColor"/>
</svg>
