<svg width="20" height="20" viewBox="0 0 20 20" fill="none" xmlns="http://www.w3.org/2000/svg">
<path fill-rule="evenodd" clip-rule="evenodd" d="M1.27382 15.9251C0.642044 16.5704 0.642044 17.6208 1.27382 18.2665C1.90515 18.9126 2.932 18.9126 3.55902 18.2665L4.01534 17.8042L5.91821 19.75C6.2436 20.0833 6.76512 20.0833 7.09096 19.75L9.92673 16.8496C10.2526 16.5169 10.2526 15.9833 9.92673 15.65L8.02428 13.7043L11.4135 10.2335C12.1387 10.6168 12.9653 10.8331 13.8374 10.8331C16.7624 10.8331 19.1333 8.40855 19.1333 5.41662C19.1333 2.42505 16.7624 0 13.8374 0C10.9122 0 8.54149 2.42505 8.54149 5.41662C8.54149 6.30856 8.75317 7.15409 9.12785 7.89583L1.27382 15.9251ZM11.8005 5.41662C11.8005 4.26667 12.7131 3.33323 13.8373 3.33323C14.9617 3.33323 15.8742 4.26667 15.8742 5.41662C15.8742 6.56657 14.9617 7.49987 13.8373 7.49987C12.7131 7.49987 11.8005 6.56652 11.8005 5.41662Z" fill="#EBB907"/>
</svg>
