<svg width="24" height="24" viewBox="0 0 24 24" fill="none" xmlns="http://www.w3.org/2000/svg">
<path d="M18.6821 4.68948C16.4295 2.43684 12.7772 2.43684 10.5245 4.68948C8.73657 6.47742 8.36799 9.14701 9.41828 11.2987L7.81196 12.9051C7.80002 12.917 7.7906 12.9312 7.78425 12.9469C7.7779 12.9625 7.77474 12.9792 7.77497 12.9961L7.78914 13.9999C7.78938 14.0168 7.78623 14.0336 7.77988 14.0492C7.77352 14.0649 7.7641 14.0791 7.75216 14.091L6.91266 14.9305C6.89794 14.9452 6.87981 14.9561 6.85988 14.9621C6.83995 14.9681 6.81885 14.9691 6.79844 14.965L5.99378 14.8029C5.97338 14.7988 5.95227 14.7998 5.93234 14.8058C5.91242 14.8118 5.89428 14.8227 5.87956 14.8374L4.98874 15.7283C4.96663 15.7504 4.95351 15.7799 4.95193 15.8112L4.90067 16.819C4.89981 16.8359 4.89556 16.8525 4.88819 16.8677C4.88081 16.8829 4.87045 16.8965 4.85772 16.9076C4.845 16.9187 4.83017 16.9272 4.8141 16.9325C4.79804 16.9378 4.78108 16.9398 4.76423 16.9384L3.91183 16.8683C3.89356 16.8668 3.87519 16.8693 3.85798 16.8756C3.84078 16.8819 3.82515 16.8919 3.8122 16.9048L3.037 17.68C3.02527 17.6917 3.01597 17.7057 3.00962 17.721C3.00327 17.7363 3 17.7527 3 17.7693C3 17.7859 3.00327 17.8023 3.00962 17.8176C3.01597 17.8329 3.02527 17.8469 3.037 17.8586L3.42154 18.2431C3.43327 18.2548 3.44258 18.2687 3.44892 18.284C3.45527 18.2994 3.45854 18.3158 3.45854 18.3324C3.45854 18.349 3.45527 18.3654 3.44892 18.3807C3.44258 18.396 3.43327 18.4099 3.42154 18.4216L3.12837 18.7148C3.10542 18.7378 3.09219 18.7687 3.09142 18.8012L3.05113 20.5291C3.05074 20.5462 3.05381 20.5631 3.06016 20.579C3.06651 20.5948 3.07601 20.6092 3.08808 20.6213L3.36206 20.8953C3.38737 20.9206 3.42221 20.9339 3.45793 20.9321L5.13562 20.8445C5.16679 20.8429 5.19625 20.8298 5.21831 20.8077L12.0728 13.9532C14.2246 15.0035 16.8942 14.6349 18.6821 12.847C20.9348 10.5944 20.9348 6.94211 18.6821 4.68948V4.68948ZM17.845 7.37675C17.3341 7.88764 16.5057 7.88764 15.9948 7.37675C15.4839 6.86586 15.4839 6.03751 15.9948 5.52662C16.5057 5.01573 17.3341 5.01573 17.845 5.52662C18.3558 6.03751 18.3558 6.86586 17.845 7.37675Z" fill="#FFB636"/>
</svg>
