<svg width="16" height="16" viewBox="0 0 16 16" fill="none" xmlns="http://www.w3.org/2000/svg">
<path d="M11.5997 5.30044C11.5997 5.12242 11.5469 4.94839 11.448 4.80036C11.3491 4.65234 11.2085 4.53697 11.044 4.46884C10.8795 4.40071 10.6986 4.38289 10.524 4.41762C10.3493 4.45235 10.189 4.53808 10.0631 4.66396C9.93719 4.78985 9.85147 4.95023 9.81673 5.12484C9.782 5.29944 9.79983 5.48043 9.86796 5.6449C9.93608 5.80938 10.0515 5.94996 10.1995 6.04886C10.3475 6.14777 10.5215 6.20056 10.6996 6.20056C10.9383 6.20056 11.1672 6.10573 11.336 5.93692C11.5048 5.76812 11.5997 5.53917 11.5997 5.30044ZM8.7733 13.4735L13.826 8.42685C13.8816 8.37078 13.9256 8.30428 13.9554 8.23117C13.9853 8.15806 14.0004 8.07977 14 8.0008L14 2.60009C14 2.44094 13.9368 2.28831 13.8242 2.17577C13.7117 2.06323 13.5591 2.00001 13.3999 2.00001L7.9992 2.00001C7.92023 1.99955 7.84194 2.01469 7.76883 2.04455C7.69572 2.07442 7.62922 2.11842 7.57315 2.17403L2.52649 7.2267C2.18936 7.56424 2 8.0218 2 8.49886C2 8.97593 2.18936 9.43348 2.52649 9.77103L6.19897 13.4735C6.53651 13.8106 6.99407 14 7.47113 14C7.9482 14 8.40576 13.8106 8.7433 13.4735L8.7733 13.4735ZM7.08108 12.6274L3.3786 8.91892C3.26683 8.80649 3.2041 8.65439 3.2041 8.49586C3.2041 8.33733 3.26683 8.18524 3.3786 8.07281L8.24524 3.20017L12.7998 3.20017L12.7998 7.75477L7.92719 12.6274C7.87112 12.683 7.80462 12.727 7.73151 12.7569C7.6584 12.7867 7.58011 12.8019 7.50114 12.8014C7.34371 12.8008 7.19285 12.7383 7.08108 12.6274Z" fill="currentColor"/>
</svg>
