<svg  viewBox="0 0 16 16" fill="none" xmlns="http://www.w3.org/2000/svg">
<path d="M8 4C8.79113 4 9.56449 4.23461 10.2223 4.67413C10.8801 5.11366 11.3928 5.73836 11.6955 6.46927C11.9983 7.20017 12.0775 8.00444 11.9231 8.78036C11.7688 9.55628 11.3878 10.269 10.8284 10.8284C10.269 11.3878 9.55628 11.7688 8.78036 11.9231C8.00444 12.0775 7.20018 11.9983 6.46927 11.6955C5.73837 11.3928 5.11365 10.8801 4.67412 10.2223C4.2346 9.56449 4.00001 8.79112 4.00001 8C4.00001 6.93913 4.42143 5.92173 5.17157 5.17158C5.92172 4.42144 6.93914 4 8 4ZM8 3C7.0111 3 6.0444 3.29324 5.22215 3.84265C4.3999 4.39206 3.75904 5.17296 3.38061 6.08659C3.00217 7.00022 2.90315 8.00556 3.09608 8.97546C3.289 9.94536 3.76521 10.8363 4.46447 11.5355C5.16373 12.2348 6.05465 12.711 7.02456 12.9039C7.99446 13.0969 8.99979 12.9978 9.91342 12.6194C10.827 12.241 11.6079 11.6001 12.1573 10.7779C12.7068 9.95561 13 8.9889 13 8C13 6.67392 12.4732 5.40216 11.5355 4.46448C10.5978 3.5268 9.32609 3 8 3Z" fill="currentColor"/>
<path d="M14.3926 15H11.611C11.4896 15.0007 11.3708 14.9651 11.2699 14.8976C11.169 14.8302 11.0906 14.734 11.0448 14.6216C10.999 14.5092 10.988 14.3856 11.0132 14.2668C11.0383 14.1481 11.0985 14.0396 11.1859 13.9554L13.9554 11.1859C14.0396 11.0985 14.1481 11.0383 14.2668 11.0132C14.3856 10.988 14.5092 10.999 14.6216 11.0448C14.734 11.0906 14.8302 11.169 14.8976 11.2699C14.9651 11.3708 15.0007 11.4896 15 11.611V14.3926C14.9969 14.5527 14.9319 14.7054 14.8187 14.8187C14.7054 14.9319 14.5528 14.9969 14.3926 15Z" fill="currentColor"/>
<path d="M1.00012 4.40117V1.60735C0.998508 1.52817 1.0127 1.44947 1.04189 1.37585C1.07108 1.30223 1.11466 1.23517 1.17009 1.1786C1.22552 1.12204 1.29169 1.07712 1.3647 1.04645C1.43772 1.01578 1.51612 0.999984 1.59531 1H4.4012C4.52007 1.00167 4.63583 1.03819 4.73414 1.10504C4.83245 1.17188 4.90899 1.26612 4.95426 1.37605C4.99952 1.48599 5.01153 1.60678 4.98879 1.72347C4.96605 1.84016 4.90956 1.94761 4.82633 2.03251L2.03259 4.82633C1.9477 4.90956 1.84025 4.96604 1.72357 4.98878C1.60688 5.01153 1.48609 4.99952 1.37616 4.95425C1.26623 4.90899 1.172 4.83245 1.10516 4.73413C1.03831 4.63582 1.00179 4.52005 1.00012 4.40117Z" fill="currentColor"/>
</svg>
