<svg width="15" height="14" viewBox="0 0 15 14" fill="none" xmlns="http://www.w3.org/2000/svg">
<path d="M4.54175 5.25H2.04175C1.76561 5.25 1.54175 5.47386 1.54175 5.75V8.25C1.54175 8.52614 1.76561 8.75 2.04175 8.75H4.54175C4.81789 8.75 5.04175 8.52614 5.04175 8.25V5.75C5.04175 5.47386 4.81789 5.25 4.54175 5.25Z" fill="#6A7692"/>
<path d="M13.3542 1.75H10.7292C10.4876 1.75 10.2917 1.94588 10.2917 2.1875V4.8125C10.2917 5.05412 10.4876 5.25 10.7292 5.25H13.3542C13.5959 5.25 13.7917 5.05412 13.7917 4.8125V2.1875C13.7917 1.94588 13.5959 1.75 13.3542 1.75Z" fill="#6A7692"/>
<path d="M13.3542 8.75H10.7292C10.4876 8.75 10.2917 8.94588 10.2917 9.1875V11.8125C10.2917 12.0541 10.4876 12.25 10.7292 12.25H13.3542C13.5959 12.25 13.7917 12.0541 13.7917 11.8125V9.1875C13.7917 8.94588 13.5959 8.75 13.3542 8.75Z" fill="#6A7692"/>
<path d="M5.04175 7H7.66675" stroke="#6A7692" stroke-linecap="round" stroke-linejoin="round"/>
<path d="M10.7292 10.5H9.41675C9.06865 10.5 8.73481 10.3611 8.48867 10.115C8.24253 9.86886 8.10425 9.53557 8.10425 9.18747V4.81247C8.10425 4.46438 8.24253 4.13112 8.48867 3.88497C8.73481 3.63883 9.06865 3.5 9.41675 3.5H10.7292" stroke="#6A7692" stroke-linecap="round" stroke-linejoin="round"/>
</svg>
