<svg viewBox="0 0 24 24" fill="none" xmlns="http://www.w3.org/2000/svg">
<path d="M8.81762 15.1811L15.1816 8.81714" stroke="currentColor" stroke-linecap="round" stroke-linejoin="round"/>
<path d="M13.5904 16.7728L10.9388 19.4245C10.0948 20.2682 8.95027 20.7421 7.75693 20.742C6.56359 20.7419 5.41915 20.2678 4.57534 19.4239C3.73152 18.5801 3.25742 17.4357 3.25732 16.2423C3.25721 15.049 3.73112 13.9045 4.57479 13.0605L7.22644 10.4089" stroke="currentColor" stroke-linecap="round" stroke-linejoin="round"/>
<path d="M16.7728 13.5904L19.4245 10.9388C20.2682 10.0948 20.7421 8.95028 20.742 7.75694C20.7419 6.5636 20.2678 5.41916 19.4239 4.57534C18.5801 3.73152 17.4357 3.25743 16.2423 3.25732C15.049 3.25722 13.9045 3.73112 13.0605 4.5748L10.4089 7.22645" stroke="currentColor" stroke-linecap="round" stroke-linejoin="round"/>
</svg>
