<svg viewBox="0 0 16 16" fill="none" xmlns="http://www.w3.org/2000/svg">
<path d="M2.10759 13.8924C2.45903 14.2443 2.87655 14.5234 3.33615 14.7134C3.79576 14.9035 4.2884 15.0009 4.78576 15C5.28323 15.0009 5.77597 14.9035 6.2357 14.7134C6.69542 14.5233 7.11308 14.2443 7.46468 13.8924C7.46468 13.8924 8.65798 12.6985 9.60721 11.7492C10.5564 10.8 9.4 9.81396 8.53594 10.678C7.67189 11.5421 6.39341 12.8212 6.39341 12.8212C5.96648 13.2462 5.38857 13.4848 4.78614 13.4848C4.1837 13.4848 3.6058 13.2462 3.17886 12.8212C2.75346 12.3945 2.51459 11.8165 2.51459 11.214C2.51459 10.6115 2.75346 10.0335 3.17886 9.6068C3.17886 9.6068 4.45778 8.32874 5.32215 7.46437C6.18652 6.6 5.2 5.44404 4.25088 6.39316C3.30177 7.34227 2.10759 8.53559 2.10759 8.53559C1.39832 9.24654 1 10.2098 1 11.214C1 12.2182 1.39832 13.1815 2.10759 13.8924ZM13.893 7.46437C14.6019 6.75322 15 5.79006 15 4.78596C15 3.78185 14.6019 2.81869 13.893 2.10754C13.182 1.3983 12.2188 1 11.2145 1C10.2102 1 9.24693 1.3983 8.53594 2.10754C8.53594 2.10754 7.34269 3.30146 6.39341 4.25073C5.44414 5.2 6.6 6.18662 7.46468 5.32194C8.32936 4.45726 9.60721 3.17876 9.60721 3.17876C10.0341 2.75375 10.6121 2.51514 11.2145 2.51514C11.8169 2.51514 12.3948 2.75375 12.8218 3.17876C13.2472 3.60548 13.486 4.18343 13.486 4.78596C13.486 5.38848 13.2472 5.96643 12.8218 6.39316C12.8218 6.39316 11.5429 7.67117 10.6785 8.53559C9.81406 9.4 10.8 10.5565 11.7497 9.6068C12.6995 8.65706 13.893 7.46437 13.893 7.46437Z" fill="#6F7590"/>
<rect x="11.1397" y="3.80005" width="1.4" height="9.8" rx="0.7" transform="rotate(45 11.1397 3.80005)" fill="#6F7590"/>
</svg>
