<svg viewBox="0 0 16 16" fill="none" xmlns="http://www.w3.org/2000/svg">
<path fill-rule="evenodd" clip-rule="evenodd" d="M5.73446 6.74204C5.73427 6.48874 5.75162 5.68319 6.06853 4.96316C6.22277 4.61271 6.43528 4.31245 6.72422 4.09961C7.00525 3.8926 7.40373 3.73445 7.99617 3.73445C8.5886 3.73445 8.98775 3.89261 9.26965 4.09994C9.55946 4.31308 9.77281 4.6137 9.92787 4.96434C10.2464 5.68463 10.2654 6.49038 10.2656 6.74317C10.2656 6.8295 10.2657 6.91584 10.2657 7H5.73461C5.73458 6.91549 5.73453 6.82877 5.73446 6.74204ZM4.26572 7C4.26569 6.91584 4.26565 6.8295 4.26558 6.74317C4.26536 6.45244 4.27725 5.38669 4.7241 4.37143C4.95174 3.85424 5.30474 3.32085 5.85305 2.91695C6.40928 2.50723 7.11978 2.26556 7.99617 2.26556C8.87257 2.26556 9.58328 2.50723 10.1399 2.91663C10.6887 3.32022 11.0426 3.85324 11.2713 4.37025C11.7201 5.38525 11.7342 6.45081 11.7345 6.74204C11.7345 6.82877 11.7346 6.91549 11.7346 7H12.0208C12.5616 7 13 7.43843 13 7.97926V13.0207C13 13.5616 12.5616 14 12.0208 14H3.97928C3.43845 14 3.00002 13.5616 3.00002 13.0207V7.97926C3.00002 7.43843 3.43845 7 3.97928 7H4.26572Z" fill="currentColor"/>
</svg>
