<svg viewBox="0 0 16 16" fill="none" xmlns="http://www.w3.org/2000/svg">
<path fill-rule="evenodd" clip-rule="evenodd" d="M5 4.7276C5 4.25075 5.23654 3.55931 5.74772 2.9863C6.24602 2.42774 6.98897 2 7.99694 2C9.00839 2 9.75287 2.42809 10.2517 2.98655C10.7635 3.55946 11 4.2508 11 4.7276V6H5V4.7276ZM4 6V4.7276C4 3.97685 4.34679 3.05449 5.00151 2.3206C5.66911 1.57226 6.67464 1 7.99694 1C9.32188 1 10.3289 1.57191 10.9975 2.32035C11.6532 3.05434 12 3.9768 12 4.7276V6H12.8249C13.4739 6 14 6.52611 14 7.17511V12.8249C14 13.4739 13.4739 14 12.8249 14H3.17511C2.52611 14 2 13.4739 2 12.8249V7.17511C2 6.52611 2.52611 6 3.17511 6H4Z" fill="#64748B"/>
</svg>
