<svg width="16" height="16" viewBox="0 0 16 16" fill="none" xmlns="http://www.w3.org/2000/svg">
<rect x="1.5" y="2.5" width="13" height="11" rx="1.5" stroke="currentColor"/>
<line x1="14" y1="6.5" x2="2" y2="6.5" stroke="currentColor"/>
<line x1="8.04547" y1="13" x2="8.04547" y2="3" stroke="currentColor"/>
<line x1="2" y1="10" x2="14" y2="10" stroke="currentColor"/>
<rect width="7" height="7" transform="translate(0.549988 1)" fill="white"/>
<path fill-rule="evenodd" clip-rule="evenodd" d="M6.81007 3.10118C6.16412 1.80929 5.04012 1.125 3.88029 1.125C2.89931 1.125 1.94396 1.61452 1.28182 2.54717L1.21767 2.22646C1.17706 2.02337 0.979498 1.89167 0.776413 1.93228C0.573328 1.9729 0.441622 2.17046 0.482239 2.37354L0.71809 3.5528C0.758707 3.75588 0.956266 3.88759 1.15935 3.84697L2.33861 3.61112C2.54169 3.57051 2.6734 3.37295 2.63278 3.16986C2.59216 2.96678 2.39461 2.83507 2.19152 2.87569L1.93204 2.92758C2.46258 2.21153 3.18362 1.875 3.88029 1.875C4.7252 1.875 5.60594 2.36997 6.13925 3.43659C6.23187 3.62183 6.45712 3.69691 6.64236 3.60429C6.8276 3.51167 6.90269 3.28642 6.81007 3.10118Z" fill="currentColor"/>
<path fill-rule="evenodd" clip-rule="evenodd" d="M0.950534 5.4413C1.59648 6.7332 2.72048 7.41748 3.88031 7.41748C4.76994 7.41748 5.63849 7.01488 6.2864 6.24429L6.34281 6.52637C6.38343 6.72945 6.58099 6.86116 6.78407 6.82054C6.98716 6.77992 7.11886 6.58236 7.07825 6.37928L6.84282 5.20217C6.83082 5.14053 6.80348 5.08228 6.76279 5.03343C6.73807 5.00374 6.70843 4.97752 6.6743 4.95612C6.59588 4.90679 6.49915 4.88625 6.40113 4.90585L5.22188 5.1417C5.01879 5.18232 4.88709 5.37988 4.9277 5.58296C4.96832 5.78605 5.16588 5.91775 5.36897 5.87714L5.66414 5.8181C5.15426 6.3948 4.50741 6.66748 3.88031 6.66748C3.0354 6.66748 2.15466 6.17251 1.62135 5.10589C1.52873 4.92065 1.30348 4.84557 1.11824 4.93819C0.932997 5.03081 0.857913 5.25606 0.950534 5.4413Z" fill="currentColor"/>
</svg>
