<svg viewBox="0 0 16 16" fill="none" xmlns="http://www.w3.org/2000/svg">
<path d="M9.5 5L9.5 12.7324C9.5 12.8147 9.52032 12.8958 9.55916 12.9683C9.598 13.0409 9.65416 13.1028 9.72265 13.1484L10.4097 13.6064C10.4763 13.6509 10.5527 13.6787 10.6323 13.6874C10.712 13.6962 10.7926 13.6857 10.8673 13.6568C10.942 13.6279 11.0087 13.5815 11.0618 13.5214C11.1148 13.4613 11.1526 13.3894 11.1721 13.3117L12 10" stroke="currentColor" stroke-linecap="round" stroke-linejoin="round"/>
<path d="M12 9.99991C12.663 9.99991 13.2989 9.73652 13.7678 9.26767C14.2366 8.79883 14.5 8.16295 14.5 7.49991C14.5 6.83687 14.2366 6.20098 13.7678 5.73214C13.2989 5.2633 12.663 4.99991 12 4.99991H9.5C9.5 4.99991 6.09677 4.99991 2.82181 2.25318C2.74897 2.19188 2.66015 2.15265 2.56578 2.1401C2.47141 2.12756 2.37542 2.14222 2.28909 2.18237C2.20277 2.22251 2.12971 2.28647 2.0785 2.36672C2.02728 2.44698 2.00005 2.54018 2 2.63538L2 12.3644C2.00005 12.4596 2.02728 12.5528 2.0785 12.6331C2.12971 12.7133 2.20277 12.7773 2.28909 12.8174C2.37542 12.8576 2.47141 12.8723 2.56578 12.8597C2.66015 12.8472 2.74897 12.8079 2.82181 12.7466C6.09677 9.99991 9.5 9.99991 9.5 9.99991L12 9.99991Z" stroke="currentColor" stroke-linecap="round" stroke-linejoin="round"/>
</svg>
