<svg width="24" height="24" viewBox="0 0 24 24" fill="none" xmlns="http://www.w3.org/2000/svg">
<path d="M16.4444 16.5H16.9444V16V15.1601C16.9444 15.0067 17.0688 14.8824 17.2222 14.8824C17.3756 14.8824 17.5 15.0067 17.5 15.1601V16C17.5 16.3201 17.381 16.6208 17.1789 16.8374C16.9778 17.0528 16.7128 17.1667 16.4444 17.1667H8.66667C8.21308 17.1667 7.77558 17.3241 7.41977 17.6105L5.3132 19.3033C4.98599 19.5663 4.5 19.3333 4.5 18.9136V7.66667C4.5 7.34654 4.61901 7.04588 4.82114 6.82931C5.02218 6.61391 5.28717 6.5 5.55556 6.5L7.93015 6.5C8.14131 6.5 8.3125 6.67119 8.3125 6.88235C8.3125 7.03937 8.18521 7.16667 8.02819 7.16667H5.55556H5.05556V7.66667V17.6667V18.7097L5.86869 18.0565L7.52847 16.7231L7.52959 16.7222C7.71165 16.5751 7.92864 16.4994 8.14723 16.5H8.14867H16.4444ZM15.9444 16H8.14867L7.73333 18C8.00245 17.7833 8.32989 17.6667 8.66667 17.6667H16.4444C16.857 17.6667 17.2527 17.4911 17.5444 17.1785C17.8361 16.8659 18 16.442 18 16V15.1601C18 14.7306 17.6518 14.3824 17.2222 14.3824C16.7927 14.3824 16.4444 14.7306 16.4444 15.1601V15.5V16H15.9444Z" stroke="#6F7590"/>
<rect x="10" y="3" width="10" height="10" rx="5" fill="#E04F1A"/>
<path d="M13.25 9.75L16.7501 6.25" stroke="white" stroke-linecap="round" stroke-linejoin="round"/>
<path d="M13.25 6.25L16.75 9.75" stroke="white" stroke-linecap="round" stroke-linejoin="round"/>
</svg>
