<svg width="24" height="24" viewBox="0 0 24 24" fill="none" xmlns="http://www.w3.org/2000/svg">
<path d="M17.7222 16.3333H18.2222V15.8333V10.2461C18.2222 10.0313 18.3963 9.85718 18.6111 9.85718C18.8259 9.85718 19 10.0313 19 10.2461V15.8333C19 16.2111 18.8585 16.5678 18.6152 16.8263C18.3729 17.0837 18.051 17.2222 17.7222 17.2222H8.83333C8.33275 17.2222 7.84902 17.3944 7.4547 17.7093L4.8116 19.8155C4.48407 20.0765 4 19.8433 4 19.4245V6.38889C4 6.01108 4.14154 5.65439 4.3848 5.39593C4.62709 5.13849 4.94901 5 5.27778 5L12.4017 5C12.6472 5 12.8462 5.19898 12.8462 5.44444C12.8462 5.6899 12.6472 5.88889 12.4017 5.88889H5.27778H4.77778V6.38889V17.7222V18.7598L5.58932 18.1133L7.48621 16.6022L7.48734 16.6013C7.70772 16.4247 7.97208 16.3326 8.2399 16.3333H8.24133H17.7222Z" stroke="#6F7590"/>
<circle cx="17.5" cy="5.5" r="3" fill="#5277D7"/>
</svg>
