<svg width="16" height="16" viewBox="0 0 16 16" fill="none" xmlns="http://www.w3.org/2000/svg">
<path d="M5.57867 3.19336L3.75467 2.5847C3.55422 2.51794 3.34078 2.49976 3.13194 2.53167C2.92309 2.56359 2.72482 2.64467 2.55346 2.76824C2.3821 2.89181 2.24256 3.05434 2.14633 3.24242C2.0501 3.4305 1.99995 3.63876 2 3.85003V11.7054C1.99993 11.9853 2.08799 12.2582 2.25168 12.4853C2.41537 12.7124 2.64639 12.8822 2.912 12.9707L5.57867 13.8594C5.85217 13.9505 6.14783 13.9505 6.42133 13.8594L9.57867 12.8074C9.85217 12.7163 10.1478 12.7163 10.4213 12.8074L12.2453 13.4154C12.4458 13.4821 12.6593 13.5003 12.8682 13.4684C13.0771 13.4364 13.2754 13.3553 13.4468 13.2316C13.6182 13.108 13.7577 12.9454 13.8539 12.7572C13.9501 12.569 14.0002 12.3607 14 12.1494V4.2947C14.0001 4.01483 13.9122 3.74202 13.7486 3.51492C13.585 3.28782 13.3541 3.11794 13.0887 3.02936L10.422 2.1407C10.1483 2.04945 9.85237 2.04945 9.57867 2.1407L6.42067 3.1927C6.14716 3.28379 5.8515 3.28379 5.578 3.1927L5.57867 3.19336Z" stroke="currentColor" stroke-linecap="round" stroke-linejoin="round"/>
<path d="M6 3.3335V14.0002" stroke="currentColor" stroke-linejoin="round"/>
<path d="M10 2V12.6667" stroke="currentColor" stroke-linejoin="round"/>
</svg>
