<svg viewBox="0 0 120 122" fill="none" xmlns="http://www.w3.org/2000/svg">
<path d="M5.63277 17.9753C7.12357 17.4884 7.9393 15.8793 7.45475 14.3813C6.97019 12.8832 5.36885 12.0635 3.87805 12.5504C2.38724 13.0373 1.57152 14.6465 2.05607 16.1445C2.54063 17.6426 4.14197 18.4622 5.63277 17.9753Z" fill="#E2EBFF"/>
<path d="M11.8286 8.66918C12.8423 8.33809 13.397 7.24388 13.0675 6.22521C12.738 5.20654 11.6491 4.64914 10.6354 4.98024C9.62161 5.31134 9.06691 6.40554 9.39641 7.42421C9.7259 8.44289 10.8148 9.00028 11.8286 8.66918Z" fill="#E2EBFF"/>
<path d="M104.878 18.4594C106.637 16.8442 106.76 14.1019 105.153 12.3344C103.545 10.5669 100.816 10.4434 99.0574 12.0587C97.2985 13.6739 97.1756 16.4162 98.783 18.1837C100.39 19.9512 103.119 20.0746 104.878 18.4594Z" fill="#E2EBFF"/>
<path d="M118.659 10.555C119.4 9.87494 119.451 8.7203 118.775 7.97607C118.098 7.23185 116.949 7.17987 116.208 7.85998C115.468 8.54008 115.416 9.69473 116.093 10.439C116.769 11.1832 117.918 11.2352 118.659 10.555Z" fill="#E2EBFF"/>
<path d="M10.6196 111.898C11.3602 111.218 11.412 110.063 10.7351 109.319C10.0583 108.575 8.90927 108.523 8.16865 109.203C7.42803 109.883 7.3763 111.038 8.05312 111.782C8.72993 112.526 9.87899 112.578 10.6196 111.898Z" fill="#E2EBFF"/>
<path d="M56.4277 117.93C87.5919 117.93 112.855 92.5438 112.855 61.2282C112.855 29.9125 87.5919 4.52612 56.4277 4.52612C25.2636 4.52612 0 29.9125 0 61.2282C0 92.5438 25.2636 117.93 56.4277 117.93Z" fill="#F3F3F3"/>
<path d="M21.6854 54.0406L14.3055 22.5521C13.7378 20.1562 15.2138 17.8745 17.4845 17.304L66.1917 5.66699L93.7811 24.4916L111.039 93.7434C111.606 96.1393 110.13 98.421 107.86 98.9915L40.646 114.964C38.2617 115.534 35.991 114.051 35.4233 111.769L21.1177 51.6447" fill="#C7D9FF"/>
<path d="M106.724 51.8723L80.7245 118.272C79.8162 120.554 77.3184 121.58 75.0476 120.668L11.1265 94.4274C8.85576 93.5147 7.83393 91.0047 8.74222 88.723L43.1438 3.84104C44.0521 1.55927 46.5499 0.532473 48.8207 1.44518L95.2572 20.498L106.724 51.8723Z" fill="#C7D9FF"/>
<path d="M100.025 105.495C100.025 107.89 98.0952 109.83 95.711 109.83H26.6807C24.2964 109.83 22.3663 107.89 22.3663 105.495V13.7674C22.3663 11.3715 24.2964 9.43201 26.6807 9.43201H76.7503L99.2306 34.1892L99.6848 75.7175L100.025 105.495Z" fill="white"/>
<path d="M21.6854 54.0406L14.3055 22.5521C13.7378 20.1562 15.2138 17.8745 17.4845 17.304L66.1918 5.66699L93.7812 24.4916L111.039 93.7434C111.606 96.1393 110.13 98.421 107.86 98.9915L40.646 114.964C38.2617 115.534 35.991 114.051 35.4233 111.769L21.1177 51.6447" fill="#D5DDEA"/>
<path d="M106.724 51.8723L80.7245 118.272C79.8162 120.554 77.3184 121.58 75.0476 120.668L11.1265 94.4274C8.85576 93.5147 7.83393 91.0047 8.74222 88.723L43.1438 3.84104C44.0521 1.55927 46.5499 0.532473 48.8207 1.44518L95.2572 20.498L106.724 51.8723Z" fill="#D5DDEA"/>
<path d="M92.6454 26.7734L87.7634 38.6387C86.7415 41.1486 88.104 44.229 90.6018 45.2558L106.724 51.8729" stroke="#182052" stroke-miterlimit="10" stroke-linecap="round" stroke-linejoin="round"/>
<path d="M100.025 105.495C100.025 107.89 98.0952 109.83 95.711 109.83H26.6807C24.2964 109.83 22.3663 107.89 22.3663 105.495V13.7674C22.3663 11.3715 24.2964 9.43201 26.6807 9.43201H76.7503L99.2306 34.1892L99.6848 75.7175L100.025 105.495Z" fill="white"/>
<path d="M87.3095 83.5895H45.8686C45.1874 83.5895 44.6197 83.0191 44.6197 82.3346C44.6197 81.65 45.1874 81.0796 45.8686 81.0796H87.3095C87.9907 81.0796 88.5584 81.65 88.5584 82.3346C88.4449 83.0191 87.9907 83.5895 87.3095 83.5895Z" fill="#C7D9FF"/>
<path d="M40.7595 83.5895H33.4931C32.8119 83.5895 32.2442 83.0191 32.2442 82.3346C32.2442 81.65 32.8119 81.0796 33.4931 81.0796H40.7595C41.4407 81.0796 42.0084 81.65 42.0084 82.3346C42.0084 83.0191 41.4407 83.5895 40.7595 83.5895Z" fill="#C7D9FF"/>
<path d="M87.1959 72.2947H68.6894C68.0082 72.2947 67.4405 71.7243 67.4405 71.0398C67.4405 70.3552 68.0082 69.7848 68.6894 69.7848H87.1959C87.8771 69.7848 88.4448 70.3552 88.4448 71.0398C88.3312 71.8384 87.8771 72.2947 87.1959 72.2947Z" fill="#C7D9FF"/>
<path d="M60.8552 72.2947H33.8334C33.1522 72.2947 32.5845 71.7243 32.5845 71.0398C32.5845 70.3552 33.1522 69.7848 33.8334 69.7848H60.8552C61.5364 69.7848 62.1041 70.3552 62.1041 71.0398C62.1041 71.8384 61.5364 72.2947 60.8552 72.2947Z" fill="#C7D9FF"/>
<path d="M87.5365 61.1141H80.3837C79.7025 61.1141 79.1348 60.5436 79.1348 59.8591C79.1348 59.1746 79.7025 58.6041 80.3837 58.6041H87.5365C88.2178 58.6041 88.7854 59.1746 88.7854 59.8591C88.7854 60.5436 88.2178 61.1141 87.5365 61.1141Z" fill="#C7D9FF"/>
<path d="M73.6855 61.1141H34.1747C33.4935 61.1141 32.9258 60.5436 32.9258 59.8591C32.9258 59.1746 33.4935 58.6041 34.1747 58.6041H73.6855C74.3667 58.6041 74.9344 59.1746 74.9344 59.8591C74.9344 60.5436 74.3667 61.1141 73.6855 61.1141Z" fill="#C7D9FF"/>
<path d="M55.9738 95.9111H53.476C52.7948 95.9111 52.2271 95.3406 52.2271 94.6561C52.2271 93.9716 52.7948 93.4011 53.476 93.4011H55.9738C56.655 93.4011 57.2227 93.9716 57.2227 94.6561C57.1092 95.3406 56.5415 95.9111 55.9738 95.9111Z" fill="#C7D9FF"/>
<path d="M48.9345 95.9111H34.1747C33.4935 95.9111 32.9258 95.3406 32.9258 94.6561C32.9258 93.9716 33.4935 93.4011 34.1747 93.4011H48.821C49.5022 93.4011 50.0699 93.9716 50.0699 94.6561C50.1834 95.3406 49.6157 95.9111 48.9345 95.9111Z" fill="#C7D9FF"/>
<path d="M87.8775 49.9334H62.4453C61.764 49.9334 61.1964 49.363 61.1964 48.6784C61.1964 47.9939 61.764 47.4235 62.4453 47.4235H87.8775C88.5587 47.4235 89.1264 47.9939 89.1264 48.6784C89.1264 49.363 88.5587 49.9334 87.8775 49.9334Z" fill="#C7D9FF"/>
<path d="M54.2705 49.9334H34.5151C33.8339 49.9334 33.2662 49.363 33.2662 48.6784C33.2662 47.9939 33.8339 47.4235 34.5151 47.4235H54.1569C54.8381 47.4235 55.4058 47.9939 55.4058 48.6784C55.4058 49.363 54.9517 49.9334 54.2705 49.9334Z" fill="#C7D9FF"/>
<path d="M68.1222 24.6057H34.9695C34.0612 24.6057 33.3799 23.9212 33.3799 23.0085C33.3799 22.0958 34.0612 21.4113 34.9695 21.4113H68.1222C69.0305 21.4113 69.7117 22.0958 69.7117 23.0085C69.7117 23.8071 68.9169 24.6057 68.1222 24.6057Z" fill="#C7D9FF"/>
<path d="M47.572 32.5919H34.9695C34.0612 32.5919 33.3799 31.9074 33.3799 30.9947C33.3799 30.082 34.0612 29.3975 34.9695 29.3975H47.6856C48.5939 29.3975 49.2751 30.082 49.2751 30.9947C49.1615 31.7933 48.4803 32.5919 47.572 32.5919Z" fill="#C7D9FF"/>
<path d="M76.751 9.43201V29.0552C76.751 31.7934 79.1353 34.0751 81.8602 34.0751H99.2313" fill="#D5DDEA"/>
<path d="M76.751 19.5858V29.0552C76.751 31.7933 79.1353 34.0751 81.8602 34.0751H99.2313" stroke="#182052" stroke-miterlimit="10" stroke-linecap="round" stroke-linejoin="round"/>
<path d="M22.0265 55.752L21.1182 51.6448" stroke="#182052" stroke-miterlimit="10" stroke-linecap="round" stroke-linejoin="round"/>
<path d="M53.5894 111.998L40.5327 115.078C38.6026 115.534 36.6725 114.622 35.7642 112.91" stroke="#182052" stroke-miterlimit="10" stroke-linecap="round" stroke-linejoin="round"/>
<path d="M99.3448 47.0812L107.5 79.5907" stroke="#182052" stroke-miterlimit="10" stroke-linecap="round" stroke-linejoin="round"/>
<path d="M61.7637 6.69379L66.1916 5.66699L71.6414 9.31783" stroke="#182052" stroke-miterlimit="10" stroke-linecap="round" stroke-linejoin="round"/>
<path d="M21.6854 54.0406L14.3055 22.5522C13.7378 20.1563 15.2138 17.8745 17.4845 17.3041" stroke="#182052" stroke-miterlimit="10" stroke-linecap="round" stroke-linejoin="round"/>
<path d="M14.3055 95.797L11.1265 94.428C8.85573 93.5152 7.8339 91.0053 8.74219 88.7235L22.3666 55.0674" stroke="#182052" stroke-miterlimit="10" stroke-linecap="round" stroke-linejoin="round"/>
<path d="M84.0167 109.83L80.7242 118.272C79.8159 120.554 77.3181 121.581 75.0473 120.668L48.5933 109.83" stroke="#182052" stroke-miterlimit="10" stroke-linecap="round" stroke-linejoin="round"/>
<path d="M81.8599 14.9082L95.1437 20.3845L106.724 51.8729L102.978 61.4564" stroke="#182052" stroke-miterlimit="10" stroke-linecap="round" stroke-linejoin="round"/>
<path d="M40.8732 9.31786L43.144 3.72752C44.0523 1.44574 46.5501 0.418947 48.8208 1.33166L67.6679 9.08968" stroke="#182052" stroke-miterlimit="10" stroke-linecap="round" stroke-linejoin="round"/>
<path d="M40.8727 9.31787H76.7503L99.2306 34.0751L99.6847 75.6033L100.025 105.495C100.025 107.89 98.0952 109.83 95.7109 109.83H26.6806C24.2964 109.83 22.3662 107.89 22.3662 105.495V13.7673C22.3662 11.3715 24.2964 9.43196 26.6806 9.43196H29.8597" stroke="#182052" stroke-miterlimit="10" stroke-linecap="round" stroke-linejoin="round"/>
<path d="M113.991 96.1393C113.991 98.8774 113.537 101.387 112.515 103.783C110.244 109.716 105.362 114.279 99.3448 116.333C97.3011 117.018 95.1439 117.36 92.8732 117.36C81.1789 117.36 71.7554 107.89 71.7554 96.1393C71.7554 84.3882 81.1789 74.9188 92.8732 74.9188C104.567 74.9188 113.991 84.5023 113.991 96.1393Z" fill="url(#paint0_linear_166:61735)"/>
<path d="M77.6595 109.944C73.9128 106.065 71.8691 100.817 71.8691 94.9984C71.8691 86.5558 76.7512 79.3682 83.7905 75.9456" stroke="#182052" stroke-miterlimit="10" stroke-linecap="round" stroke-linejoin="round"/>
<path d="M93.2141 73.778C104.681 73.892 113.991 83.3614 113.991 94.9984C113.991 97.7366 113.537 100.247 112.515 102.642C110.245 108.575 105.362 113.139 99.345 115.192C97.3014 115.877 95.1442 116.219 92.8735 116.219C89.6944 116.219 86.6289 115.534 83.9041 114.165" stroke="#182052" stroke-miterlimit="10" stroke-linecap="round" stroke-linejoin="round"/>
<path d="M89.4673 74.1201C89.5808 74.1201 89.5808 74.1201 89.6944 74.1201" stroke="#182052" stroke-miterlimit="10" stroke-linecap="round" stroke-linejoin="round"/>
<path d="M97.1879 92.1462V88.3813C97.1879 86.3277 95.4848 84.6163 93.4412 84.6163C92.4193 84.6163 91.511 85.0727 90.7163 85.7572C90.0351 86.4418 89.5809 87.3545 89.5809 88.4953V92.2603C88.5591 92.9448 87.7643 93.7434 87.0831 94.8843C86.5154 95.9111 86.1748 97.1661 86.1748 98.4211C86.1748 102.414 89.3538 105.609 93.3276 105.609C97.3014 105.609 100.48 102.414 100.48 98.4211C100.594 95.6829 99.2315 93.4012 97.1879 92.1462ZM94.2359 99.1056V101.045C94.2359 101.273 94.0088 101.501 93.7818 101.501H92.987C92.7599 101.501 92.5329 101.273 92.5329 101.045V99.7901V99.1056C91.8516 98.7633 91.511 97.9647 91.6246 97.1661C91.7381 96.4815 92.3058 95.9111 92.987 95.797C94.1224 95.5688 95.1442 96.4816 95.1442 97.5083C95.1442 98.1929 94.8036 98.7633 94.2359 99.1056ZM95.5983 91.3476C94.9171 91.1194 94.2359 91.0053 93.4412 91.0053C92.7599 91.0053 92.0787 91.1194 91.3975 91.3476V88.3813C91.3975 87.8108 91.6246 87.2404 91.9652 86.8981C92.3058 86.5558 92.8735 86.3277 93.4412 86.3277C94.5765 86.3277 95.4848 87.2404 95.4848 88.3813V91.3476H95.5983Z" fill="white"/>
<defs>
<linearGradient id="paint0_linear_166:61735" x1="74.2273" y1="86.0332" x2="111.71" y2="107.044" gradientUnits="userSpaceOnUse">
<stop stop-color="#83A6FF"/>
<stop offset="0.994956" stop-color="#5277D7"/>
</linearGradient>
</defs>
</svg>
