<svg width="141" height="126" viewBox="0 0 141 126" fill="none" xmlns="http://www.w3.org/2000/svg"><path d="M17.1534 28.2673c1.3585-.446 2.1018-1.92 1.6603-3.2923-.4416-1.3723-1.9008-2.1232-3.2592-1.6771-1.3585.446-2.1018 1.92-1.6603 3.2923.4415 1.3723 1.9007 2.1232 3.2592 1.6771zM22.7999 19.7432c.9238-.3033 1.4293-1.3057 1.129-2.2388-.3002-.9332-1.2925-1.4438-2.2162-1.1405-.9238.3033-1.4293 1.3057-1.129 2.2388.3002.9332 1.2925 1.4438 2.2162 1.1405zM127.662 37.1159c1.602-1.4796 1.714-3.9917.25-5.6108-1.465-1.6191-3.952-1.7322-5.555-.2526-1.603 1.4797-1.715 3.9917-.25 5.6108 1.465 1.6192 3.952 1.7322 5.555.2526zM127.959 19.3114c.675-.623.722-1.6807.106-2.3624-.617-.6817-1.664-.7293-2.339-.1063s-.722 1.6807-.105 2.3624c.616.6817 1.663.7294 2.338.1063zM68.8134 114c28.3979 0 51.4186-23.2549 51.4186-51.9416 0-28.6866-23.0207-51.9417-51.4186-51.9417-28.3978 0-51.4189 23.2551-51.4189 51.9417C17.3945 90.7451 40.4156 114 68.8134 114z" fill="#EAEEF9"/><g filter="url(#filter0_d_2294:142947)"><path d="M23.6293 35.3875C22.5936 36.2979 22 37.6102 22 38.9891v50.0343c0 2.0918 1.9657 3.8198 4.3453 3.8198h85.5607c2.379 0 4.345-1.728 4.345-3.8198V37.0017c0-2.2737-2.069-4.0017-4.552-4.0017H29.9614c-2.3307 0-4.5816.8487-6.3321 2.3875z" fill="#fff"/></g><path d="M65.1414 58.8774l-16.8638-.1045c-.7242 0-1.2415-.6271-1.2415-1.2541 0-.7316.6208-1.2542 1.2415-1.2542l16.8638.1046c.7242 0 1.2415.627 1.2415 1.2541 0 .627-.5173 1.2541-1.2415 1.2541zM105.179 58.8774l-19.4502-.1045c-.7242 0-1.2415-.6271-1.2415-1.2541 0-.7316.6208-1.2542 1.2415-1.2542l19.3472.1046c.724 0 1.241.627 1.241 1.2541.104.627-.414 1.2541-1.138 1.2541z" fill="#E3EAF2"/><path d="M92.2464 83.4375l-19.4502-.1045c-.7242 0-1.2415-.6271-1.2415-1.2542 0-.7315.6207-1.2541 1.2415-1.2541l19.4502.1045c.7242 0 1.2415.6271 1.2415 1.2541 0 .7316-.6207 1.2542-1.2415 1.2542z" fill="url(#paint0_linear_2294:142947)"/><path d="M80.2461 58.7729l-9.4147-.1045c-.7243 0-1.2416-.6271-1.2416-1.2541 0-.7316.6208-1.2541 1.2416-1.2541l9.4147.1045c.7242 0 1.2415.627 1.2415 1.2541.1034.7316-.5173 1.2541-1.2415 1.2541zM41.5521 58.6684h-6.9317c-.7242 0-1.2415-.6271-1.2415-1.2541 0-.7316.5173-1.2541 1.2415-1.2541h6.9317c.7242 0 1.2415.627 1.2415 1.2541 0 .7316-.5173 1.2541-1.2415 1.2541z" fill="#C0D6FF"/><path d="M68.4508 67.0288l-10.139-.1045c-.7242 0-1.2415-.6271-1.2415-1.2542 0-.7315.6208-1.2541 1.2415-1.2541l10.139.1045c.7242 0 1.2415.6271 1.2415 1.2542.1034.627-.5173 1.2541-1.2415 1.2541z" fill="url(#paint1_linear_2294:142947)"/><path d="M99.9021 67.2378l-25.7612-.3135c-.7242 0-1.2415-.6271-1.2415-1.2542 0-.7315.6208-1.2541 1.2415-1.2541l25.7612.3136c.7239 0 1.2419.627 1.2419 1.2541 0 .627-.621 1.2541-1.2419 1.2541zM51.5876 66.9243H34.6204c-.7242 0-1.2415-.6271-1.2415-1.2542 0-.7315.6208-1.2541 1.2415-1.2541h16.9672c.7242 0 1.2415.6271 1.2415 1.2541 0 .6271-.5173 1.2542-1.2415 1.2542z" fill="#E3EAF2"/><path d="M81.7969 75.1806l-23.4851-.1045c-.7242 0-1.2415-.627-1.2415-1.2541 0-.7316.6208-1.2541 1.2415-1.2541l23.5886.1045c.7242 0 1.2415.627 1.2415 1.2541 0 .7316-.6208 1.2541-1.345 1.2541z" fill="#C0D6FF"/><path d="M51.5876 75.0761H34.6204c-.7242 0-1.2415-.627-1.2415-1.2541 0-.7316.6208-1.2541 1.2415-1.2541h16.9672c.7242 0 1.2415.627 1.2415 1.2541s-.5173 1.2541-1.2415 1.2541zM66.2783 83.3325L53.346 83.228c-.7242 0-1.2415-.6271-1.2415-1.2541 0-.7316.6207-1.2542 1.2415-1.2542l12.9323.1045c.7242 0 1.2415.6271 1.2415 1.2542 0 .7315-.5173 1.2541-1.2415 1.2541z" fill="#E3EAF2"/><path d="M45.0697 83.228H34.6204c-.7242 0-1.2415-.6271-1.2415-1.2541 0-.7316.6208-1.2542 1.2415-1.2542h10.4493c.7242 0 1.2415.6271 1.2415 1.2542.1035.7315-.5173 1.2541-1.2415 1.2541z" fill="url(#paint2_linear_2294:142947)"/><path d="M82.2133 46.2314l-47.5909-.209c-.7242 0-1.2415-.627-1.2415-1.2541 0-.7316.6207-1.2541 1.2415-1.2541l47.5909.209c.7242 0 1.2415.627 1.2415 1.2541 0 .7316-.5173 1.2541-1.2415 1.2541z" fill="#6F7590"/><path d="M3.79338 47.5522c.20692.209.31038.418.31038.7316-1.03459 3.0308-1.34496 3.1353 0 3.6578.10346 0 .20691.2091.10345.3136-.31037.8361-.41383 1.4631-.72421 1.3586-4.86255-1.7767.10346-5.121-2.37954-6.0616-.103462 0-.10346-.1045-.10346-.209l.51729-1.5677c0-.1045.10346-.1045.20692-.1045 1.2415.4181 1.34496-.5225 1.75879-1.6722.5173-1.6721 1.86226-2.1947 3.41414-1.6721.31037.1045.62075.209.51729.418-.51729 1.5677-.41384 1.4632-1.03459 1.2541-1.55188-.5225-1.13804 3.6579-2.58646 3.5534z" fill="#BDCDF4"/><path d="M137.359 47.8652c-.104 0-.104.1045 0 0 .207.209.31.418.31.7316-1.034 3.0308-1.345 3.1353 0 3.6578.104 0 .207.2091.104.3136-.311.8361-.414 1.4631-.725 1.3586-4.862-1.7767.104-5.121-2.379-6.0616-.104 0-.104-.1045-.104-.209l.518-1.5677c0-.1045.103-.1045.207-.1045 1.241.418 1.345-.5225 1.758-1.6722.518-1.6721 1.863-2.1947 3.415-1.6721.31.1045.62.209.517.418-.517 1.5677-.414 1.4632-1.035 1.2541-1.655-.418-1.138 3.6579-2.586 3.5534z" fill="url(#paint3_linear_2294:142947)"/><path d="M76.9391 2.71727c-.1035-.10451-.1035-.10451 0 0-.2069.20903-.4139.41805-.6208.41805-3.1037-.52256-3.3107-.83609-3.621.52255 0 .10451-.1035.20902-.3104.20902-.9311-.20902-1.4484-.10451-1.4484-.52255.9311-5.22553 5.0695-.73158 5.4833-3.23983C76.4218-6e-7 76.5252 0 76.6287 0l1.5519.313531c.1034 0 .1034.104511.1034.209022-.2069 1.254127.6208 1.254127 1.9657 1.463147 1.6554.31353 2.4831 1.46315 2.1727 3.13532-.1035.31353-.1035.62706-.3104.62706-1.5519-.31353-1.5519-.10451-1.345-.83608.207-1.88119-3.8279-.73158-3.8279-2.19473z" fill="url(#paint4_linear_2294:142947)"/><path d="M45.3293 9.90795c-.7242.73155-.8277 1.98575-.1035 2.71725.4139.5226 1.1381.7316 1.8623.5226.3104.418.3104.9406.1035 1.3586l-1.1381 1.6722c-.1034.1045-.2069.3135-.2069.418l-1.138-1.2541c.3103-1.0451-.207-2.0902-1.2415-2.4037-1.0346-.3136-2.0692.209-2.3796 1.2541s.2069 2.0902 1.2415 2.4037c.3104.1045.7242.1045 1.0346 0l3.0003 3.2399c-.3104 1.0451.2069 2.0902 1.2415 2.4037 1.0346.3135 2.0692-.209 2.3795-1.2541 0-.1045 0-.1045.1035-.2091v-.5225c-.1035-1.0451-1.0346-1.8812-2.1726-1.6722h-.2069c-.3104-.418-.4139-.9406-.1035-1.3586l1.138-1.6722c.7242-1.1496.6208-2.6127-.2069-3.6578 0-.1046 0-.2091.1035-.2091v-.5225c-.1035-1.0451-1.0346-1.7767-2.0692-1.67219-.6207 0-.9311.10451-1.2415.41804zm-2.8968 4.38945c.3103-.209.6207-.209.9311 0 .2069.3135.2069.6271 0 .9406-.3104.209-.6208.209-.9311 0-.3104-.209-.3104-.6271 0-.9406zM48.64 20.15c.1034.1045.1034.209.1034.3135 0 .3135-.3103.6271-.7242.6271-.3103 0-.6207-.3136-.6207-.7316 0-.1045.1034-.3135.1034-.418.1035-.2091.3104-.2091.5173-.2091.3104.1046.5173.2091.6208.4181zm-2.5865-9.3015c.2069-.3135.6208-.3135.9311-.1045.1035 0 .1035.1045.1035.2091 0 .1045 0 .1045.1035.209v.3135c-.1035.1045-.207.209-.3104.3135-.3104.2091-.7242 0-.8277-.3135-.1034-.1045-.1034-.418 0-.6271zM95.0914 15.9691l-1.5518.836c-1.5519-1.5676-3.9315-1.5676-5.4833 0-.8277.8361-1.2416 2.0902-1.0346 3.3444l-1.6554.7315c-.3103.1046-.4138.5226-.2069.7316l.6208 1.2541c.1034.3136.5173.4181.7242.2091l1.5519-.8361c1.5518 1.5676 3.9314 1.5676 5.4833 0 .8276-.8361 1.2415-2.0902 1.0345-3.3444l1.5519-.836c.3104-.1045.4139-.5226.2069-.7316l-.6207-1.2541c0-.1045-.4138-.2091-.6208-.1045zm-3.4141 5.33c-.9311.5225-2.0692.1045-2.5865-.8361-.5173-.9406-.1034-2.0902.8277-2.6128.9311-.5225 2.0692-.1045 2.5865.8361.4138.9406.1034 2.0902-.8277 2.6128zM14.9665 84.6412l-1.6554-3.0308c-.6207-1.1496-1.9657-1.5676-3.1037-.9406l-.31042.1045-.31037-.5225c-.10346-.209-.31038-.209-.5173-.1045-.10346 0-.10345.1045-.20691.209l-.82767 2.0902c-.10346.209 0 .418.20692.5225h.10346l2.17259.4181c.207 0 .4139-.1045.4139-.3135v-.2091l-.3104-.5225.3104-.209c.3103-.2091.8276-.1045.9311.3135l1.6553 3.0308c-.3103.5226-.3103 1.1496 0 1.6722.4139.8361 1.345 1.0451 2.1727.627.3103-.209.5173-.418.7242-.7315.1034-.1045.1034-.3136.1034-.4181.1035-.9406-.5173-1.7767-1.4484-1.8812 0-.1045-.1034-.1045-.1034-.1045zm-.207 2.0902c-.1034 0-.1034 0 0 0-.3103-.209-.4138-.5225-.2069-.8361.1035-.209.3104-.3135.5173-.3135.1035 0 .3104.1045.4138.209.207.2091.207.5226 0 .7316-.3103.3135-.5172.3135-.7242.209z" fill="#CED7E2"/><path d="M5.86177 81.9236c-.72421.418-1.03458 1.4631-.62075 2.1947.31038.5225.82767.8361 1.44842.8361l2.89684 5.2255c.20692.418.62072.5226 1.03462.3135.4138-.209.5173-.627.3103-1.0451l-2.8968-5.2255c.31038-.5226.31038-1.1496 0-1.6722-.41383-.7315-1.44842-1.0451-2.17263-.627zm1.03459 1.8812c-.31038.1045-.62075.1045-.72421-.2091-.10346-.3135-.10346-.627.20691-.7315.31038-.1045.62076-.1045.72422.209s-.00001.627-.20692.7316zM129.235 67.9111l.103-.2091c.311-.627.311-1.2541 0-1.8811l-.931-1.9858c-.103-.1045-.103-.3135 0-.418l.311-.7316.517.3136c.207.1045.414 0 .517-.2091v-.209l-.414-2.2992c0-.209-.207-.3135-.414-.3135h-.103l-2.069.9406c-.207.1045-.311.3135-.207.5225 0 .1045.103.1045.207.209l.517.3136-.31.7315c-.104.1045-.207.2091-.311.2091l-2.172.3135c-.621.1045-1.242.5225-1.449 1.0451l-.103.209c-.931 0-1.655.7316-1.655 1.6722 0 .9406.724 1.6722 1.655 1.6722s1.655-.7316 1.655-1.6722c0-.3135-.103-.6271-.31-.8361l.103-.209c.104-.1045.207-.209.311-.209l1.862-.3136c.207 0 .414.1045.517.3136l.828 1.7766c.103.1045.103.3136 0 .4181l-.104.209c-.931 0-1.655.8361-1.551 1.6722 0 .9406.827 1.6721 1.655 1.5676.931 0 1.655-.8361 1.552-1.6721.103-.3136 0-.6271-.207-.9406zm-6.518-1.1497c-.31-.1045-.414-.5225-.207-.7315.104-.3136.517-.4181.724-.209.311.1045.414.5225.207.7315-.103.209-.517.3136-.724.209zm4.863 2.6128c-.311-.1045-.414-.5225-.207-.7316.103-.3135.517-.418.724-.209.207.209.414.5226.207.7316-.104.209-.414.3135-.724.209zM61.1497 106.346c-.6208.105-1.138.523-1.345 1.15-1.6553.313-3.0003-.941-3.3106-1.568.6207-.731.5173-1.776-.207-2.403-.7242-.628-1.7588-.523-2.3795.209-.6208.731-.5173 1.776.2069 2.403.2069.105.4138.314.6208.314l.7242 3.867c-.7242.627-.8277 1.672-.2069 2.403.6207.732 1.6553.837 2.3795.209.1035 0 .1035-.104.2069-.104.1035-.105.2069-.209.3104-.418.4138-.836.1035-1.881-.8277-2.299-.1034 0-.1034-.105-.2069-.105l-.3104-1.463c.9312.627 2.0692.836 3.2073.732h.1034c.6208.731 1.6553.836 2.3796.209.1034 0 .1034-.105.1034-.105.1035-.104.2069-.209.3104-.418.4138-.836.1035-1.881-.7242-2.299-.3104-.314-.7242-.418-1.0346-.314zm-6.0006-2.194c.3104-.105.6207.104.7242.522.1035.314-.1035.627-.5173.732-.3104.104-.6207-.105-.7242-.523 0-.313.2069-.627.5173-.731zm1.6553 7.942c-.2069.209-.6207.105-.8276-.104-.2069-.209-.1035-.627.1034-.836 0 0 .1035-.105.2069-.105.1035-.104.3104 0 .4139 0 .3104.209.4138.523.2069.836.1035.105 0 .105-.1035.209zm4.6557-3.448c-.3104 0-.5173-.314-.5173-.628 0-.209.2069-.418.4138-.522h.4138c.3104.104.4139.522.3104.836-.2069.209-.4138.314-.6207.314z" fill="#CED7E2"/><defs><linearGradient id="paint0_linear_2294:142947" x1="71.5609" y1="82.1323" x2="93.4986" y2="82.1323" gradientUnits="userSpaceOnUse"><stop stop-color="#83A6FF"/><stop offset="1" stop-color="#5277D7"/></linearGradient><linearGradient id="paint1_linear_2294:142947" x1="57.0739" y1="65.7236" x2="69.7097" y2="65.7236" gradientUnits="userSpaceOnUse"><stop stop-color="#83A6FF"/><stop offset="1" stop-color="#5277D7"/></linearGradient><linearGradient id="paint2_linear_2294:142947" x1="33.3826" y1="81.9751" x2="46.3289" y2="81.9751" gradientUnits="userSpaceOnUse"><stop stop-color="#83A6FF"/><stop offset="1" stop-color="#5277D7"/></linearGradient><linearGradient id="paint3_linear_2294:142947" x1="134.567" y1="48.1973" x2="141.003" y2="48.1973" gradientUnits="userSpaceOnUse"><stop stop-color="#83A6FF"/><stop offset="1" stop-color="#5277D7"/></linearGradient><linearGradient id="paint4_linear_2294:142947" x1="70.9418" y1="2.87679" x2="82.4923" y2="2.87679" gradientUnits="userSpaceOnUse"><stop stop-color="#83A6FF"/><stop offset="1" stop-color="#5277D7"/></linearGradient><filter id="filter0_d_2294:142947" x="0" y="22" width="138.251" height="103.843" filterUnits="userSpaceOnUse" color-interpolation-filters="sRGB"><feFlood flood-opacity="0" result="BackgroundImageFix"/><feColorMatrix in="SourceAlpha" values="0 0 0 0 0 0 0 0 0 0 0 0 0 0 0 0 0 0 127 0" result="hardAlpha"/><feOffset dy="11"/><feGaussianBlur stdDeviation="11"/><feColorMatrix values="0 0 0 0 0.397708 0 0 0 0 0.47749 0 0 0 0 0.575 0 0 0 0.18 0"/><feBlend in2="BackgroundImageFix" result="effect1_dropShadow_2294:142947"/><feBlend in="SourceGraphic" in2="effect1_dropShadow_2294:142947" result="shape"/></filter></defs></svg>