<svg  viewBox="0 0 134 145" fill="none" xmlns="http://www.w3.org/2000/svg">
<path d="M66.9725 134.137C95.127 134.137 117.951 111.253 117.951 83.0236C117.951 54.7947 95.127 31.9106 66.9725 31.9106C38.8179 31.9106 15.9941 54.7947 15.9941 83.0236C15.9941 111.253 38.8179 134.137 66.9725 134.137Z" fill="#EAEEF9"/>
<path d="M58.6632 114.802C44.6108 111.1 34.1484 98.2442 34.1484 82.9206C34.1484 82.5093 34.1484 82.0979 34.1484 81.6865" stroke="#738EFF" stroke-width="3" stroke-miterlimit="10" stroke-linecap="round" stroke-linejoin="round"/>
<path d="M57.3311 109.454L59.9979 115.213L54.2539 117.99" stroke="#738EFF" stroke-width="3" stroke-miterlimit="10" stroke-linecap="round" stroke-linejoin="round"/>
<path d="M84.7787 96.3666L85.3143 91.8146C85.4546 90.6224 86.5492 89.7623 87.7469 89.9032L112.789 92.8497L122.616 106.423L118.84 141.8C118.7 142.992 117.605 143.852 116.407 143.711L81.8934 139.65C80.6957 139.509 79.8306 138.419 79.9709 137.227L84.0071 102.924" fill="white"/>
<path d="M84.7787 96.3666L85.3143 91.8146C85.4546 90.6224 86.5492 89.7623 87.7469 89.9032L112.789 92.8497L122.616 106.423L118.84 141.8C118.7 142.992 117.605 143.852 116.407 143.711L81.8934 139.65C80.6957 139.509 79.8306 138.419 79.9709 137.227L84.0071 102.924" stroke="#6F7590" stroke-miterlimit="10" stroke-linecap="round" stroke-linejoin="round"/>
<path d="M112.723 93.2866L112.097 102.586C111.892 103.879 112.887 104.917 114.061 105.029L121.477 105.776" fill="#D5DDEA"/>
<path d="M112.017 99.4075L111.634 102.659C111.475 104.014 112.538 105.293 113.899 105.453L122.61 106.478" stroke="#6F7590" stroke-miterlimit="10" stroke-linecap="round" stroke-linejoin="round"/>
<path d="M128.884 47.6416C131.171 47.6416 133.024 45.7906 133.024 43.5074C133.024 41.2242 131.171 39.3733 128.884 39.3733C126.598 39.3733 124.744 41.2242 124.744 43.5074C124.744 45.7906 126.598 47.6416 128.884 47.6416Z" fill="#EAEEF9"/>
<path d="M27.1075 5.43966C28.6118 5.43966 29.8312 4.22195 29.8312 2.71983C29.8312 1.21771 28.6118 0 27.1075 0C25.6032 0 24.3838 1.21771 24.3838 2.71983C24.3838 4.22195 25.6032 5.43966 27.1075 5.43966Z" fill="#EAEEF9"/>
<path d="M30.0494 18.4949C31.0723 18.4949 31.9015 17.6668 31.9015 16.6454C31.9015 15.6239 31.0723 14.7959 30.0494 14.7959C29.0265 14.7959 28.1973 15.6239 28.1973 16.6454C28.1973 17.6668 29.0265 18.4949 30.0494 18.4949Z" fill="url(#paint0_linear_5149_125783)"/>
<path d="M116.573 40.7878C117.536 40.7878 118.316 40.0084 118.316 39.0471C118.316 38.0857 117.536 37.3064 116.573 37.3064C115.611 37.3064 114.83 38.0857 114.83 39.0471C114.83 40.0084 115.611 40.7878 116.573 40.7878Z" fill="#EAEEF9"/>
<path d="M102.022 92.5829C102.984 92.5829 103.765 91.8036 103.765 90.8423C103.765 89.8809 102.984 89.1016 102.022 89.1016C101.059 89.1016 100.278 89.8809 100.278 90.8423C100.278 91.8036 101.059 92.5829 102.022 92.5829Z" fill="url(#paint1_linear_5149_125783)"/>
<path d="M54.9981 14.9045C55.9608 14.9045 56.7413 14.1251 56.7413 13.1638C56.7413 12.2024 55.9608 11.4231 54.9981 11.4231C54.0353 11.4231 53.2549 12.2024 53.2549 13.1638C53.2549 14.1251 54.0353 14.9045 54.9981 14.9045Z" fill="url(#paint2_linear_5149_125783)"/>
<path d="M113.285 105.777C112.478 107.935 110.999 109.824 108.983 110.903C101.723 114.679 93.7916 107.531 96.0769 99.843H98.3623C95.6736 108.61 106.025 112.791 110.327 106.991C111.402 105.643 111.134 105.643 116.377 88.7833C117.721 84.3324 113.419 82.0395 110.327 83.658C108.31 84.737 108.579 85.2765 104.009 99.843C103.874 100.113 103.874 100.382 103.874 100.382C103.605 101.596 104.546 102.675 105.622 102.54C106.832 102.54 106.966 100.922 107.369 99.843C109.386 93.369 109.789 92.1551 109.789 92.0203C110.327 90.8064 112.343 91.211 111.806 92.9644C108.714 103.619 108.714 103.619 107.235 104.294C103.874 106.047 100.648 102.136 101.723 99.843C106.428 84.6021 106.294 83.1185 109.117 81.7698C113.553 79.4769 118.259 82.1744 118.796 86.4904C118.931 87.8391 119.2 87.4345 113.285 105.777Z" fill="url(#paint3_linear_5149_125783)"/>
<path d="M49.8879 34.0834L49.9103 29.2048C49.9161 27.927 50.9711 26.8864 52.2547 26.8923L79.0931 27.0151L91.1104 40.1962L91.3455 78.0655C91.3397 79.3433 90.2847 80.3839 89.0011 80.378L52.0107 80.2088C50.7271 80.2029 49.6817 79.1527 49.6876 77.8749L49.8558 41.1109" fill="white"/>
<path d="M49.8879 34.0834L49.9103 29.2048C49.9161 27.927 50.9711 26.8864 52.2547 26.8923L79.0931 27.0151L91.1104 40.1962L91.3455 78.0655C91.3397 79.3433 90.2847 80.3839 89.0011 80.378L52.0107 80.2088C50.7271 80.2029 49.6817 79.1527 49.6876 77.8749L49.8558 41.1109" stroke="#6F7590" stroke-miterlimit="10" stroke-linecap="round" stroke-linejoin="round"/>
<path d="M79.0767 27.4848L79.5255 37.3953C79.4637 38.7874 80.6398 39.7668 81.8947 39.7444L89.828 39.6485" fill="#D5DDEA"/>
<path d="M84.5847 63.6311L62.4138 63.5296C62.1221 63.5283 61.89 63.2369 61.8916 62.8884C61.8932 62.5399 62.1279 62.2506 62.4196 62.2519L84.5905 62.3534C84.8823 62.3547 85.1143 62.6462 85.1127 62.9946C85.1111 63.3431 84.8764 63.6324 84.5847 63.6311Z" fill="#E6E6EB"/>
<path d="M59.6715 63.5173L55.7624 63.4994C55.4707 63.498 55.2386 63.2066 55.2402 62.8581C55.2418 62.5096 55.4765 62.2203 55.7683 62.2216L59.6773 62.2395C59.9691 62.2409 60.2011 62.5323 60.1995 62.8808C60.1979 63.2293 59.9632 63.5186 59.6715 63.5173Z" fill="#E6E6EB"/>
<path d="M84.5482 58.9847L74.6296 58.9393C74.3379 58.938 74.1058 58.6465 74.1074 58.298C74.109 57.9496 74.3437 57.6602 74.6355 57.6616L84.554 57.707C84.8457 57.7083 85.0778 57.9998 85.0762 58.3482C85.0746 58.6967 84.8399 58.986 84.5482 58.9847Z" fill="#E6E6EB"/>
<path d="M70.4281 58.9201L55.9587 58.8539C55.667 58.8525 55.4349 58.5611 55.4365 58.2126C55.4381 57.8641 55.6728 57.5748 55.9646 57.5761L70.434 57.6423C70.7257 57.6437 70.9578 57.9351 70.9562 58.2836C70.9546 58.6321 70.7199 58.9214 70.4281 58.9201Z" fill="#E6E6EB"/>
<path d="M81.0527 44.9713L85.0201 44.9895C85.3119 44.9908 85.5466 44.7015 85.5482 44.353C85.5498 44.0045 85.3758 43.7714 85.0257 43.7698L81.0583 43.7517C80.7666 43.7503 80.5319 44.0397 80.5303 44.3881C80.5287 44.7366 80.761 44.97 81.0527 44.9713Z" fill="#E6E6EB"/>
<path d="M84.745 54.2812L80.8943 54.2635C80.6025 54.2622 80.3705 53.9707 80.3721 53.6223C80.3737 53.2738 80.6084 52.9845 80.9001 52.9858L84.7508 53.0034C85.0426 53.0048 85.2746 53.2962 85.273 53.6447C85.3295 54.0515 85.0367 54.2825 84.745 54.2812Z" fill="#E6E6EB"/>
<path d="M77.3345 54.2471L67.0075 54.1998C66.7158 54.1985 66.4838 53.907 66.4854 53.5585C66.487 53.2101 66.7217 52.9207 67.0134 52.9221L77.3987 52.9696C77.6904 52.9709 77.9225 53.2624 77.9209 53.6109C77.919 54.0174 77.6846 54.2487 77.3345 54.2471Z" fill="#E6E6EB"/>
<path d="M67.7401 72.789L66.3982 72.7828C66.1064 72.7815 65.8744 72.49 65.876 72.1416C65.8776 71.7931 66.1123 71.5038 66.404 71.5051L67.7459 71.5112C68.0377 71.5126 68.2697 71.804 68.2681 72.1525C68.2665 72.501 68.0318 72.7903 67.7401 72.789Z" fill="#E6E6EB"/>
<path d="M64.0061 72.772L56.1296 72.7359C55.8379 72.7346 55.6058 72.4432 55.6074 72.0947C55.609 71.7462 55.8437 71.4569 56.1355 71.4582L64.012 71.4943C64.3037 71.4956 64.5357 71.7871 64.5341 72.1355C64.5325 72.484 64.2978 72.7733 64.0061 72.772Z" fill="#E6E6EB"/>
<path d="M84.9412 49.6357L77.1814 49.6002C76.8896 49.5989 76.6576 49.3074 76.6592 48.9589C76.6608 48.6105 76.8955 48.3211 77.1872 48.3225L85.0054 48.3582C85.2971 48.3596 85.5291 48.651 85.5276 48.9995C85.526 49.348 85.2913 49.6373 84.9412 49.6357Z" fill="#E6E6EB"/>
<path d="M66.9912 44.9071L77.4932 44.9552C77.7849 44.9565 78.0196 44.6672 78.0212 44.3187C78.0228 43.9702 77.7905 43.7369 77.4988 43.7355L66.9968 43.6875C66.7051 43.6861 66.4704 43.9755 66.4688 44.3239C66.4672 44.6724 66.6995 44.9058 66.9912 44.9071Z" fill="#E6E6EB"/>
<path d="M73.9132 49.5851L66.9118 49.5531C66.6201 49.5518 66.3881 49.2603 66.3897 48.9118C66.3912 48.5633 66.626 48.274 66.9177 48.2754L73.919 48.3074C74.2107 48.3087 74.4428 48.6002 74.4412 48.9487C74.4979 49.2974 74.2632 49.5867 73.9132 49.5851Z" fill="#E6E6EB"/>
<path d="M74.3897 34.9511L56.6529 34.87C56.2445 34.8681 55.8961 34.518 55.8979 34.1115C55.8998 33.7049 56.2514 33.358 56.6598 33.3599L74.3966 33.4411C74.805 33.4429 75.1535 33.793 75.1516 34.1996C75.1497 34.6061 74.7981 34.953 74.3897 34.9511Z" fill="#E6E6EB"/>
<path d="M63.4587 39.141L56.6324 39.1097C56.224 39.1078 55.8755 38.7578 55.8774 38.3512C55.8793 37.9447 56.2309 37.5978 56.6393 37.5997L63.4073 37.6306C63.8157 37.6325 64.1642 37.9826 64.1623 38.3891C64.1605 38.7957 63.8088 39.1426 63.4587 39.141Z" fill="#E6E6EB"/>
<path d="M79.0615 34.0432L79.0456 37.528C79.0389 38.9799 80.3169 40.2055 81.7755 40.2121L91.1107 40.2548" stroke="#6F7590" stroke-miterlimit="10" stroke-linecap="round" stroke-linejoin="round"/>
<path d="M4.52 56.488L2.18841 52.2026C1.57775 51.0802 2.00064 49.66 3.12815 49.0465L26.7035 36.2199L43.5855 41.9779L62.0418 75.0461C62.6525 76.1685 62.2296 77.5887 61.1021 78.2022L28.6091 95.8806C27.4816 96.494 26.0594 96.0776 25.4488 94.9552L7.87859 62.6611" fill="white"/>
<path d="M4.52 56.488L2.18841 52.2026C1.57775 51.0802 2.00064 49.66 3.12815 49.0465L26.7035 36.2199L43.5855 41.9779L62.0418 75.0461C62.6525 76.1685 62.2296 77.5887 61.1021 78.2022L28.6091 95.8806C27.4816 96.494 26.0594 96.0776 25.4488 94.9552L7.87859 62.6611" stroke="#6F7590" stroke-miterlimit="10" stroke-linecap="round" stroke-linejoin="round"/>
<path d="M26.9158 36.6392L32.0852 45.1066C32.7019 46.3562 34.2044 46.6476 35.2933 46.0231L42.1983 42.1158" fill="#D5DDEA"/>
<path d="M49.1615 65.6569L29.6862 76.2528C29.4299 76.3922 29.0861 76.2486 28.9196 75.9425C28.753 75.6364 28.8193 75.2698 29.0755 75.1304L48.5508 64.5345C48.8071 64.3951 49.1508 64.5386 49.3174 64.8447C49.4839 65.1508 49.4177 65.5175 49.1615 65.6569Z" fill="#E6E6EB"/>
<path d="M27.2772 77.563L23.8434 79.4312C23.5871 79.5707 23.2434 79.4271 23.0768 79.121C22.9103 78.8149 22.9765 78.4483 23.2327 78.3089L26.6665 76.4406C26.9228 76.3012 27.2666 76.4448 27.4331 76.7509C27.5997 77.057 27.5334 77.4236 27.2772 77.563Z" fill="#E6E6EB"/>
<path d="M46.89 61.6033L38.1774 66.3436C37.9211 66.483 37.5773 66.3395 37.4108 66.0334C37.2443 65.7273 37.3105 65.3606 37.5667 65.2212L46.2794 60.4809C46.5356 60.3415 46.8794 60.4851 47.0459 60.7912C47.2125 61.0973 47.1463 61.4639 46.89 61.6033Z" fill="#E6E6EB"/>
<path d="M34.4872 68.351L21.777 75.2662C21.5207 75.4056 21.1769 75.2621 21.0104 74.956C20.8439 74.6499 20.9101 74.2832 21.1663 74.1438L33.8765 67.2286C34.1328 67.0892 34.4766 67.2327 34.6431 67.5388C34.8096 67.8449 34.7434 68.2116 34.4872 68.351Z" fill="#E6E6EB"/>
<path d="M37.0744 51.0089L40.5595 49.1128C40.8157 48.9734 40.8819 48.6067 40.7154 48.3006C40.5489 47.9945 40.2841 47.8741 39.9766 48.0414L36.4915 49.9375C36.2353 50.0769 36.1691 50.4436 36.3356 50.7497C36.5021 51.0558 36.8182 51.1483 37.0744 51.0089Z" fill="#E6E6EB"/>
<path d="M44.7953 57.3873L41.4127 59.2276C41.1565 59.367 40.8127 59.2235 40.6461 58.9174C40.4796 58.6113 40.5458 58.2447 40.8021 58.1052L44.1846 56.2649C44.4409 56.1255 44.7847 56.269 44.9512 56.5751C45.1968 56.9044 45.0515 57.2479 44.7953 57.3873Z" fill="#E6E6EB"/>
<path d="M38.2859 60.9284L29.2145 65.8639C28.9582 66.0033 28.6144 65.8597 28.4479 65.5536C28.2814 65.2475 28.3476 64.8809 28.6038 64.7415L37.7265 59.7781C37.9827 59.6387 38.3265 59.7823 38.4931 60.0884C38.6874 60.4455 38.5934 60.7611 38.2859 60.9284Z" fill="#E6E6EB"/>
<path d="M38.8142 81.7992L37.6354 82.4405C37.3791 82.5799 37.0353 82.4364 36.8688 82.1303C36.7023 81.8242 36.7685 81.4576 37.0247 81.3181L38.2035 80.6768C38.4598 80.5374 38.8035 80.6809 38.9701 80.987C39.1366 81.2931 39.0704 81.6598 38.8142 81.7992Z" fill="#E6E6EB"/>
<path d="M35.5347 83.5837L28.6159 87.348C28.3596 87.4874 28.0158 87.3439 27.8493 87.0378C27.6827 86.7316 27.7489 86.365 28.0052 86.2256L34.9241 82.4613C35.1803 82.3219 35.5241 82.4654 35.6906 82.7715C35.8572 83.0776 35.791 83.4442 35.5347 83.5837Z" fill="#E6E6EB"/>
<path d="M42.7281 53.2222L35.9118 56.9308C35.6555 57.0702 35.3117 56.9266 35.1452 56.6205C34.9786 56.3144 35.0448 55.9478 35.3011 55.8084L42.1687 52.0719C42.425 51.9325 42.7687 52.0761 42.9353 52.3822C43.1018 52.6883 43.0356 53.0549 42.7281 53.2222Z" fill="#E6E6EB"/>
<path d="M24.7219 57.7298L33.947 52.7107C34.2033 52.5713 34.2695 52.2047 34.103 51.8986C33.9364 51.5925 33.6204 51.4999 33.3641 51.6394L24.139 56.6585C23.8827 56.7979 23.8165 57.1645 23.9831 57.4706C24.1496 57.7767 24.4656 57.8693 24.7219 57.7298Z" fill="#E6E6EB"/>
<path d="M33.0423 58.4919L26.8922 61.838C26.636 61.9774 26.2922 61.8338 26.1256 61.5277C25.9591 61.2216 26.0253 60.855 26.2816 60.7156L32.4317 57.3695C32.6879 57.2301 33.0317 57.3737 33.1982 57.6798C33.416 57.958 33.3498 58.3246 33.0423 58.4919Z" fill="#E6E6EB"/>
<path d="M26.4057 45.4404L10.8254 53.9171C10.4667 54.1123 9.99264 53.9735 9.79834 53.6164C9.60404 53.2592 9.745 52.7858 10.1038 52.5906L25.684 44.1139C26.0427 43.9187 26.5168 44.0575 26.7111 44.4147C26.9054 44.7718 26.7644 45.2452 26.4057 45.4404Z" fill="#E6E6EB"/>
<path d="M18.8481 54.3793L12.8518 57.6417C12.4931 57.8369 12.019 57.6981 11.8247 57.341C11.6304 56.9838 11.7714 56.5104 12.1301 56.3152L18.0752 53.0807C18.434 52.8855 18.908 53.0243 19.1023 53.3814C19.2966 53.7386 19.1557 54.212 18.8481 54.3793Z" fill="#E6E6EB"/>
<path d="M30.0625 42.3936L31.7279 45.4546C32.4218 46.73 34.1323 47.188 35.4135 46.4909L43.6137 42.0294" stroke="#6F7590" stroke-miterlimit="10" stroke-linecap="round" stroke-linejoin="round"/>
<defs>
<linearGradient id="paint0_linear_5149_125783" x1="28.2664" y1="16.6875" x2="31.8666" y2="16.6875" gradientUnits="userSpaceOnUse">
<stop stop-color="#FF66A9"/>
<stop offset="1" stop-color="#F53689"/>
</linearGradient>
<linearGradient id="paint1_linear_5149_125783" x1="100.283" y1="90.7961" x2="103.665" y2="90.7961" gradientUnits="userSpaceOnUse">
<stop stop-color="#FF66A9"/>
<stop offset="1" stop-color="#F53689"/>
</linearGradient>
<linearGradient id="paint2_linear_5149_125783" x1="53.2888" y1="13.1945" x2="56.6708" y2="13.1945" gradientUnits="userSpaceOnUse">
<stop stop-color="#83A6FF"/>
<stop offset="1" stop-color="#5A78FF"/>
</linearGradient>
<linearGradient id="paint3_linear_5149_125783" x1="107.248" y1="81.1868" x2="107.248" y2="109.82" gradientUnits="userSpaceOnUse">
<stop stop-color="#FF66A9"/>
<stop offset="1" stop-color="#F53689"/>
</linearGradient>
</defs>
</svg>
