<svg viewBox="0 0 214 177" fill="none" xmlns="http://www.w3.org/2000/svg">
<path d="M119.175 152.759C153.682 152.759 181.655 124.712 181.655 90.1142C181.655 55.5166 153.682 27.4697 119.175 27.4697C84.6687 27.4697 56.6956 55.5166 56.6956 90.1142C56.6956 124.712 84.6687 152.759 119.175 152.759Z" fill="#EAEEF9"/>
<path d="M103.766 165.426C106.568 165.426 108.84 163.157 108.84 160.359C108.84 157.56 106.568 155.292 103.766 155.292C100.963 155.292 98.6917 157.56 98.6917 160.359C98.6917 163.157 100.963 165.426 103.766 165.426Z" fill="#EAEEF9"/>
<path d="M161.606 14.6669C163.45 14.6669 164.944 13.1745 164.944 11.3334C164.944 9.49244 163.45 8 161.606 8C159.762 8 158.268 9.49244 158.268 11.3334C158.268 13.1745 159.762 14.6669 161.606 14.6669Z" fill="#EAEEF9"/>
<path d="M165.212 30.6672C166.465 30.6672 167.482 29.6523 167.482 28.4004C167.482 27.1485 166.465 26.1337 165.212 26.1337C163.958 26.1337 162.942 27.1485 162.942 28.4004C162.942 29.6523 163.958 30.6672 165.212 30.6672Z" fill="url(#paint0_linear_294_56756)"/>
<path d="M88.677 157.026C89.8569 157.026 90.8135 156.07 90.8135 154.892C90.8135 153.714 89.8569 152.759 88.677 152.759C87.4971 152.759 86.5405 153.714 86.5405 154.892C86.5405 156.07 87.4971 157.026 88.677 157.026Z" fill="#EAEEF9"/>
<path d="M79.5481 147.897C80.728 147.897 81.6845 146.941 81.6845 145.763C81.6845 144.585 80.728 143.63 79.5481 143.63C78.3681 143.63 77.4116 144.585 77.4116 145.763C77.4116 146.941 78.3681 147.897 79.5481 147.897Z" fill="url(#paint1_linear_294_56756)"/>
<path d="M195.789 26.2671C196.969 26.2671 197.926 25.312 197.926 24.1337C197.926 22.9555 196.969 22.0003 195.789 22.0003C194.609 22.0003 193.653 22.9555 193.653 24.1337C193.653 25.312 194.609 26.2671 195.789 26.2671Z" fill="url(#paint2_linear_294_56756)"/>
<path d="M151.423 47.4542L153.588 40.3752C154.155 38.5212 156.089 37.4538 157.886 38.0032L195.451 49.4912L206.531 73.7066L190.299 128.828C189.732 130.682 187.798 131.749 186.002 131.2L134.227 115.366C132.43 114.817 131.424 112.85 131.991 110.996L148.305 57.6513" fill="white"/>
<path d="M151.423 47.4542L153.588 40.3752C154.155 38.5212 156.089 37.4538 157.886 38.0032L195.451 49.4912L206.531 73.7066L190.299 128.828C189.732 130.682 187.798 131.749 186.002 131.2L134.227 115.366C132.43 114.817 131.424 112.85 131.991 110.996L148.305 57.6513" stroke="#6F7590" stroke-miterlimit="10" stroke-linecap="round" stroke-linejoin="round"/>
<path d="M195.222 50.1669L191.517 64.7555C190.822 66.7521 192.042 68.6707 193.811 69.167L204.973 72.3707" fill="#D5DDEA"/>
<path d="M187.135 105.006L156.103 95.5161C155.695 95.3912 155.497 94.8699 155.652 94.3643C155.806 93.8587 156.262 93.5372 156.67 93.6621L187.702 103.152C188.111 103.277 188.309 103.798 188.154 104.304C187.999 104.81 187.544 105.131 187.135 105.006Z" fill="#E6E6EB"/>
<path d="M152.265 94.3429L146.793 92.6696C146.385 92.5448 146.187 92.0235 146.342 91.5179C146.497 91.0122 146.952 90.6908 147.36 90.8156L152.832 92.4889C153.24 92.6137 153.438 93.135 153.283 93.6406C153.129 94.1463 152.673 94.4678 152.265 94.3429Z" fill="#E6E6EB"/>
<path d="M189.115 98.2397L175.233 93.9942C174.824 93.8693 174.626 93.348 174.781 92.8424C174.936 92.3367 175.391 92.0153 175.8 92.1401L189.682 96.3857C190.091 96.5106 190.288 97.0318 190.134 97.5375C189.979 98.0431 189.524 98.3646 189.115 98.2397Z" fill="#E6E6EB"/>
<path d="M169.352 92.196L149.1 86.0025C148.692 85.8777 148.494 85.3564 148.648 84.8507C148.803 84.3451 149.259 84.0236 149.667 84.1485L169.919 90.342C170.328 90.4669 170.526 90.9881 170.371 91.4938C170.216 91.9994 169.761 92.3209 169.352 92.196Z" fill="#E6E6EB"/>
<path d="M190.345 76.4053L195.898 78.1036C196.306 78.2284 196.762 77.907 196.916 77.4013C197.071 76.8957 196.929 76.4837 196.439 76.3338L190.886 74.6356C190.478 74.5107 190.022 74.8322 189.867 75.3378C189.713 75.8435 189.936 76.2805 190.345 76.4053Z" fill="#E6E6EB"/>
<path d="M191.448 91.4887L186.058 89.8404C185.65 89.7155 185.452 89.1943 185.607 88.6886C185.761 88.183 186.217 87.8615 186.625 87.9864L192.015 89.6347C192.423 89.7595 192.621 90.2808 192.466 90.7864C192.368 91.4013 191.856 91.6136 191.448 91.4887Z" fill="#E6E6EB"/>
<path d="M181.076 88.317L166.622 83.8967C166.214 83.7718 166.016 83.2505 166.17 82.7449C166.325 82.2393 166.781 81.9178 167.189 82.0427L181.725 86.488C182.133 86.6129 182.331 87.1341 182.177 87.6398C181.996 88.2297 181.566 88.4669 181.076 88.317Z" fill="#E6E6EB"/>
<path d="M159.519 111.214L157.64 110.64C157.232 110.515 157.034 109.994 157.189 109.488C157.344 108.982 157.799 108.661 158.207 108.786L160.086 109.36C160.494 109.485 160.692 110.006 160.537 110.512C160.383 111.017 159.927 111.339 159.519 111.214Z" fill="#E6E6EB"/>
<path d="M154.292 109.615L143.267 106.243C142.859 106.118 142.661 105.597 142.816 105.092C142.97 104.586 143.426 104.264 143.834 104.389L154.859 107.761C155.267 107.886 155.465 108.407 155.31 108.913C155.156 109.418 154.7 109.74 154.292 109.615Z" fill="#E6E6EB"/>
<path d="M193.754 84.8213L182.893 81.4998C182.485 81.375 182.287 80.8537 182.442 80.3481C182.596 79.8424 183.052 79.5209 183.46 79.6458L194.403 82.9923C194.811 83.1172 195.009 83.6384 194.854 84.1441C194.7 84.6497 194.244 84.9712 193.754 84.8213Z" fill="#E6E6EB"/>
<path d="M170.66 70.3869L185.36 74.8822C185.768 75.0071 186.224 74.6856 186.378 74.18C186.533 73.6743 186.309 73.2373 185.901 73.1125L171.202 68.6172C170.793 68.4923 170.338 68.8138 170.183 69.3194C170.028 69.8251 170.252 70.2621 170.66 70.3869Z" fill="#E6E6EB"/>
<path d="M178.319 80.1018L168.52 77.1049C168.111 76.9801 167.914 76.4588 168.068 75.9532C168.223 75.4475 168.678 75.1261 169.087 75.2509L178.886 78.2478C179.295 78.3727 179.493 78.8939 179.338 79.3996C179.265 79.9302 178.809 80.2516 178.319 80.1018Z" fill="#E6E6EB"/>
<path d="M185.386 59.039L160.56 51.447C159.989 51.2722 159.653 50.6167 159.834 50.0268C160.014 49.4368 160.659 49.081 161.23 49.2559L186.056 56.8479C186.628 57.0227 186.963 57.6782 186.783 58.2681C186.602 58.858 185.958 59.2138 185.386 59.039Z" fill="#E6E6EB"/>
<path d="M168.234 60.5209L158.679 57.5989C158.107 57.4241 157.772 56.7686 157.953 56.1787C158.133 55.5888 158.778 55.233 159.349 55.4078L168.822 58.3048C169.394 58.4796 169.729 59.1351 169.549 59.725C169.368 60.3149 168.724 60.6707 168.234 60.5209Z" fill="#E6E6EB"/>
<path d="M192.332 59.689L190.786 64.7454C190.141 66.8523 191.397 69.1714 193.438 69.7958L206.504 73.7916" stroke="#6F7590" stroke-miterlimit="10" stroke-linecap="round" stroke-linejoin="round"/>
<g filter="url(#filter0_d_294_56756)">
<path d="M143.313 104.202L85.0289 101.394C83.6952 101.33 82.6795 100.213 82.7437 98.8812L86.8179 14.3097C86.8821 12.9779 88.0004 11.9638 89.3342 12.0281L147.485 14.8295C148.819 14.8938 149.835 16.0106 149.771 17.3425L145.69 102.047C145.632 103.246 144.514 104.26 143.313 104.202Z" fill="white"/>
</g>
<g filter="url(#filter1_d_294_56756)">
<path d="M147.479 14.9572C148.813 15.0215 149.829 16.1368 149.765 17.4667L145.69 102.049C145.632 103.246 144.514 104.259 143.314 104.201L85.029 101.393C83.6953 101.329 82.6796 100.214 82.7436 98.8837L86.812 14.4339C86.8761 13.104 87.9943 12.0915 89.3281 12.1557L138.706 14.4339" stroke="#64748B" stroke-linecap="round"/>
</g>
<path d="M143.525 60.9604L96.7105 58.7051L96.4475 64.1656L143.262 66.4209L143.525 60.9604Z" fill="#E6EDF5"/>
<path d="M123.829 61.8806L111.025 61.2637L110.948 62.8619L123.752 63.4788L123.829 61.8806Z" fill="#CED7E2"/>
<path d="M136.013 63.5691L136.041 62.9697L139.577 63.1401L139.548 63.7394L136.013 63.5691Z" fill="#CED7E2" stroke="#CDD6E1"/>
<path d="M142.967 72.5473L96.1524 70.292L95.8893 75.7526L142.704 78.0079L142.967 72.5473Z" fill="#E6EDF5"/>
<path d="M119.397 73.4142L110.461 72.9837L110.384 74.5819L119.32 75.0124L119.397 73.4142Z" fill="#CED7E2"/>
<path d="M132.114 75.1286L132.142 74.5292L139.013 74.8602L138.984 75.4596L132.114 75.1286Z" fill="#CED7E2" stroke="#CDD6E1"/>
<path d="M142.402 84.268L95.5879 82.0127L95.3248 87.4732L142.139 89.7285L142.402 84.268Z" fill="#E6EDF5"/>
<path d="M124.707 85.2839L109.902 84.5706L109.825 86.1688L124.63 86.8821L124.707 85.2839Z" fill="#CED7E2"/>
<path d="M136.89 86.9721L136.919 86.3728L138.455 86.4467L138.426 87.0461L136.89 86.9721Z" fill="#CED7E2" stroke="#CDD6E1"/>
<path d="M142.077 21.6441L127.539 20.9438L127.406 20.9373L127.272 20.9309L112.334 20.2113L112.201 20.2049L112.068 20.1984L98.0634 19.5238C96.4629 19.4467 95.1983 20.7207 95.1213 22.3189L93.8959 47.7569C93.8189 49.3551 95.0884 50.7512 96.5556 50.8219L140.569 52.9422C142.17 53.0193 143.434 51.7453 143.511 50.1471L144.737 24.7091C144.814 23.1109 143.544 21.7148 142.077 21.6441ZM112.05 42.7578L112.326 37.0309L125.797 37.6799L125.521 43.4068L112.05 42.7578ZM125.438 45.1382L125.187 50.3323L111.717 49.6834L111.967 44.4892L125.438 45.1382ZM126.15 30.3548L125.874 36.0817L112.403 35.4327L112.679 29.7059L126.15 30.3548ZM112.769 27.8413L113.045 22.1144L126.516 22.7634L126.233 28.6234L112.763 27.9745L112.769 27.8413ZM142.419 36.7453L127.614 36.0321L127.89 30.3052L142.695 31.0184L142.419 36.7453ZM110.542 35.2096L96.138 34.5157L96.4139 28.7888L110.818 29.4827L110.542 35.2096ZM96.0545 36.2471L110.459 36.941L110.183 42.6679L95.7787 41.9739L96.0545 36.2471ZM127.531 37.7634L142.335 38.4767L142.06 44.2035L127.255 43.4903L127.531 37.7634ZM143.003 24.6256L142.778 29.287L127.974 28.5738L128.249 22.8469L141.987 23.5087C142.521 23.5344 143.035 23.9597 143.003 24.6256ZM97.9735 21.3883L111.311 22.0309L111.029 27.8909L96.4908 27.1906L96.7154 22.5292C96.7539 21.7301 97.3067 21.3562 97.9735 21.3883ZM95.4963 47.834L95.6952 43.7053L110.1 44.3993L109.849 49.5934L96.512 48.9509C95.9721 49.0584 95.4643 48.4999 95.4963 47.834ZM140.652 51.2109L126.915 50.549L127.165 45.3549L141.97 46.0681L141.771 50.1968C141.745 50.7295 141.186 51.2366 140.652 51.2109Z" fill="#E3EAF2"/>
<g filter="url(#filter2_d_294_56756)">
<path d="M112.916 117.017L59.0648 139.49C57.8326 140.005 56.4359 139.432 55.9224 138.201L23.2615 59.9399C22.748 58.7094 23.323 57.3135 24.5553 56.7993L78.2829 34.377C79.5151 33.8628 80.9118 34.4358 81.4253 35.6663L114.086 113.927C114.6 115.158 114.025 116.554 112.916 117.017Z" fill="white"/>
</g>
<g filter="url(#filter3_d_294_56756)">
<path d="M42.8517 49.0803L78.283 34.3768C79.5153 33.8625 80.9119 34.4355 81.4255 35.6661L114.086 113.927C114.6 115.158 114.025 116.553 112.916 117.016L59.065 139.49C57.8327 140.004 56.436 139.431 55.9225 138.201L23.2616 59.9397C22.7481 58.7091 23.3231 57.3133 24.5554 56.799L37.3797 51.447" stroke="#64748B" stroke-linecap="round"/>
</g>
<path d="M98.5481 95.4162L55.5414 113.364C55.1717 113.519 54.6479 113.304 54.4939 112.934L54.3912 112.688C54.2371 112.319 54.4527 111.796 54.8224 111.642L97.8291 93.6934C98.1988 93.5392 98.7226 93.754 98.8766 94.1232L98.9793 94.3693C99.1334 94.7385 99.041 95.2105 98.5481 95.4162Z" fill="#E3EAF2"/>
<path d="M100.756 100.707L57.7494 118.655C57.3797 118.81 56.856 118.595 56.7019 118.226L56.5992 117.979C56.4452 117.61 56.6608 117.087 57.0305 116.933L100.037 98.9845C100.407 98.8302 100.931 99.0451 101.085 99.4142L101.187 99.6603C101.341 100.029 101.249 100.501 100.756 100.707Z" fill="#E3EAF2"/>
<path d="M71.12 119.144L60.0294 123.772C59.5365 123.978 59.0128 123.763 58.8074 123.271C58.6019 122.778 58.8176 122.255 59.3105 122.049L70.401 117.421C70.8939 117.215 71.4177 117.43 71.6231 117.922C71.8285 118.414 71.6129 118.938 71.12 119.144Z" fill="#E3EAF2"/>
<path d="M64.2898 102.778L53.1993 107.407C52.7064 107.612 52.1826 107.397 51.9772 106.905C51.7718 106.413 51.9874 105.89 52.4803 105.684L63.5709 101.055C64.0638 100.85 64.5876 101.065 64.793 101.557C64.9984 102.049 64.7828 102.572 64.2898 102.778Z" fill="#CED7E2"/>
<path d="M76.6714 49.9312C75.9321 50.2397 75.3468 50.9175 75.1106 51.7384L68.7026 52.6789C68.4048 52.6587 68.0865 52.936 67.9428 53.285L62.3365 66.8944C61.9155 66.9256 61.4944 66.9568 61.1248 67.1111C60.7551 67.2654 60.4367 67.5427 60.1184 67.82L49.6435 63.5225C49.664 63.225 49.5613 62.9789 49.4072 62.6098C48.8424 61.2562 47.3225 60.7346 46.0902 61.2489C44.8579 61.7631 44.211 63.3335 44.7246 64.564C44.8273 64.8101 44.9813 65.1792 45.2073 65.3739L41.6854 73.9234C41.3876 73.9032 41.0179 74.0575 40.7714 74.1603C39.4159 74.726 38.8923 76.2449 39.4058 77.4754C39.9194 78.706 41.4906 79.3506 42.7229 78.8363C43.9552 78.322 44.602 76.7517 44.0885 75.5212C43.9344 75.1521 43.7085 74.9574 43.4312 74.6397L46.9531 66.0902C47.3741 66.0589 47.6719 66.0791 48.0416 65.9249C48.4113 65.7706 48.7296 65.4932 48.9247 65.2673L59.3997 69.5648C59.3791 69.8624 59.4818 70.1085 59.5845 70.3546C60.1494 71.7081 61.6693 72.2297 62.9016 71.7154C64.2571 71.1498 64.7808 69.6309 64.2672 68.4003C64.1645 68.1542 64.0618 67.9081 63.8359 67.7135L69.2984 54.453L75.1621 53.5952C75.7475 54.6513 77.1441 55.2243 78.3764 54.71C79.7319 54.1443 80.2556 52.6254 79.7421 51.3949C79.4236 49.9385 77.9037 49.4169 76.6714 49.9312ZM42.3839 77.6774C41.7678 77.9346 41.0695 77.6481 40.8127 77.0328C40.5559 76.4175 40.8434 75.7196 41.4596 75.4625C42.0757 75.2053 42.774 75.4919 43.0308 76.1071C43.2362 76.5993 43.0001 77.4203 42.3839 77.6774ZM47.6513 64.6429C47.0352 64.9 46.3368 64.6135 46.0801 63.9983C45.8233 63.383 46.1108 62.6851 46.7269 62.428C47.3431 62.1708 48.0414 62.4573 48.2982 63.0726C48.555 63.6879 48.3907 64.3343 47.6513 64.6429ZM62.6859 70.5051C62.0697 70.7623 61.3714 70.4758 61.1146 69.8605C60.8579 69.2452 61.1454 68.5473 61.7615 68.2902C62.3777 68.0331 63.076 68.3195 63.3328 68.9348C63.7127 69.4986 63.4252 70.1966 62.6859 70.5051ZM78.1093 53.3766C77.4932 53.6338 76.7949 53.3473 76.5381 52.732C76.2813 52.1168 76.5688 51.4188 77.185 51.1617C77.8011 50.9046 78.4995 51.1911 78.7562 51.8063C79.013 52.4216 78.7255 53.1195 78.1093 53.3766Z" fill="url(#paint3_linear_294_56756)"/>
<path d="M52.141 97.5901L49.6765 98.6186C49.43 98.7215 49.0809 98.5782 48.9782 98.3321L43.9455 86.273C43.8428 86.0269 43.9865 85.678 44.233 85.5751L46.6976 84.5466C46.944 84.4437 47.2932 84.587 47.3959 84.8331L52.4285 96.8922C52.5313 97.1383 52.3875 97.4872 52.141 97.5901Z" fill="url(#paint4_linear_294_56756)"/>
<path d="M53.6196 96.9732L50.7854 98.156C50.5389 98.2589 50.3643 98.1872 50.2616 97.9411L47.9507 92.4038C47.848 92.1577 47.9199 91.9832 48.1663 91.8804L51.0006 90.6975C51.2471 90.5947 51.4216 90.6663 51.5243 90.9124L53.8353 96.4497C53.938 96.6959 53.7429 96.9218 53.6196 96.9732Z" fill="url(#paint5_linear_294_56756)"/>
<path d="M58.549 94.9161L56.0845 95.9446C55.838 96.0475 55.4888 95.9042 55.3861 95.6581L51.8941 87.2906C51.7914 87.0445 51.9351 86.6955 52.1816 86.5927L54.6462 85.5641C54.8926 85.4613 55.2418 85.6045 55.3445 85.8506L58.8365 94.2181C58.9392 94.4643 58.7955 94.8132 58.549 94.9161Z" fill="url(#paint6_linear_294_56756)"/>
<path d="M64.9569 92.2416L62.4923 93.2701C62.2459 93.373 61.8967 93.2297 61.794 92.9836L59.5858 87.6924C59.4831 87.4463 59.6268 87.0973 59.8733 86.9945L62.3379 85.9659C62.5843 85.8631 62.9335 86.0063 63.0362 86.2524L65.2444 91.5437C65.3471 91.7898 65.2034 92.1387 64.9569 92.2416Z" fill="url(#paint7_linear_294_56756)"/>
<path d="M71.3646 89.5672L68.9 90.5957C68.6535 90.6986 68.3044 90.5553 68.2017 90.3092L64.042 80.342C63.9393 80.0959 64.0831 79.7469 64.3295 79.6441L66.7941 78.6155C67.0405 78.5127 67.3897 78.6559 67.4924 78.902L71.6521 88.8692C71.7548 89.1153 71.7342 89.4129 71.3646 89.5672Z" fill="url(#paint8_linear_294_56756)"/>
<path d="M77.8956 86.8419L75.4311 87.8705C75.1846 87.9733 74.8354 87.8301 74.7327 87.584L72.2164 81.5544C72.1137 81.3083 72.2575 80.9594 72.5039 80.8565L74.9685 79.828C75.2149 79.7251 75.5641 79.8684 75.6668 80.1145L78.1831 86.144C78.2858 86.3901 78.1421 86.7391 77.8956 86.8419Z" fill="url(#paint9_linear_294_56756)"/>
<path d="M84.3038 84.1678L81.8392 85.1963C81.5927 85.2992 81.2436 85.1559 81.1409 84.9098L77.6488 76.5423C77.5461 76.2962 77.6899 75.9472 77.9363 75.8444L80.4009 74.8158C80.6473 74.713 80.9965 74.8562 81.0992 75.1023L84.5913 83.4699C84.694 83.716 84.5502 84.0649 84.3038 84.1678Z" fill="url(#paint10_linear_294_56756)"/>
<path d="M90.7116 81.4933L88.247 82.5219C88.0006 82.6247 87.6514 82.4815 87.5487 82.2353L85.3405 76.9441C85.2378 76.698 85.3816 76.349 85.628 76.2462L88.0926 75.2177C88.339 75.1148 88.6882 75.258 88.7909 75.5042L90.9991 80.7954C91.1018 81.0415 90.9581 81.3905 90.7116 81.4933Z" fill="url(#paint11_linear_294_56756)"/>
<path d="M60.0276 94.2988L57.0702 95.5331C56.9469 95.5845 56.7724 95.5129 56.721 95.3898L55.3345 92.0674C55.2831 91.9444 55.355 91.7699 55.4782 91.7185L58.4357 90.4842C58.5589 90.4328 58.7335 90.5044 58.7849 90.6275L60.1714 93.9499C60.2228 94.0729 60.1509 94.2474 60.0276 94.2988Z" fill="url(#paint12_linear_294_56756)"/>
<path d="M66.5588 91.5733L63.4781 92.859C63.3549 92.9104 63.1803 92.8388 63.1289 92.7157L62.4613 91.1161C62.41 90.993 62.4819 90.8185 62.6051 90.7671L65.6858 89.4814C65.809 89.43 65.9836 89.5016 66.035 89.6247L66.7026 91.2244C66.6307 91.3988 66.682 91.5219 66.5588 91.5733Z" fill="url(#paint13_linear_294_56756)"/>
<path d="M72.9667 88.8989L70.0092 90.1332C69.886 90.1846 69.7114 90.113 69.66 89.9899L68.6843 87.652C68.6329 87.5289 68.7048 87.3544 68.8281 87.303L71.7855 86.0687C71.9088 86.0173 72.0833 86.0889 72.1347 86.212L73.1104 88.55C73.1618 88.673 73.2131 88.7961 72.9667 88.8989Z" fill="url(#paint14_linear_294_56756)"/>
<path d="M79.3745 86.2248L76.5402 87.4077C76.417 87.4591 76.2424 87.3875 76.1911 87.2644L74.3937 82.9576C74.3424 82.8345 74.4142 82.6601 74.5374 82.6086L77.3717 81.4258C77.4949 81.3744 77.6695 81.446 77.7209 81.5691L79.5182 85.8759C79.6928 85.9475 79.621 86.122 79.3745 86.2248Z" fill="url(#paint15_linear_294_56756)"/>
<path d="M86.1521 83.3963L82.9482 84.7334C82.825 84.7848 82.825 84.7848 82.7736 84.6617L82.4655 83.9234C82.4141 83.8004 82.4141 83.8004 82.5374 83.749L85.7413 82.4119C85.8645 82.3604 85.8645 82.3604 85.9159 82.4835L86.1726 83.0987C86.224 83.2218 86.2753 83.3448 86.1521 83.3963Z" fill="url(#paint16_linear_294_56756)"/>
<path d="M92.5602 80.7228L89.3562 82.0599C89.3562 82.0599 89.233 82.1114 89.1816 81.9881L89.0273 81.6185C89.0273 81.6185 88.9759 81.4952 89.0991 81.4438L92.303 80.1067C92.303 80.1067 92.4263 80.0553 92.4777 80.1785L92.5602 80.7228C92.632 80.5482 92.5602 80.7228 92.5602 80.7228Z" fill="url(#paint17_linear_294_56756)"/>
<g filter="url(#filter4_d_294_56756)">
<path d="M141.542 146.3C141.428 146.644 141.429 146.988 141.315 147.446C139.266 155.119 133.347 160.732 126.063 162.564C123.104 163.366 119.917 163.366 116.73 162.794C105.348 160.388 98.0638 149.164 100.454 137.825C102.844 126.372 113.885 119.042 125.266 121.447C129.25 122.249 133.006 124.31 135.851 127.174C140.859 132.099 143.022 139.314 141.542 146.3Z" fill="url(#paint18_linear_294_56756)"/>
</g>
<path d="M140.6 147.395C138.597 155.311 132.809 161.1 125.686 162.99L114 150.585L123.8 152.49L114.7 143.39H121.7L122.4 135.699L132.2 143.39L129.359 135.699L140.6 147.395Z" fill="url(#paint19_linear_294_56756)"/>
<circle cx="121" cy="141.99" r="10.7" stroke="#E0E8FF"/>
<rect x="120.3" y="134.99" width="2.8" height="9.1" rx="1.4" fill="#E0E8FF"/>
<rect x="123.1" y="141.29" width="2.8" height="9.1" rx="1.4" transform="rotate(90 123.1 141.29)" fill="#E0E8FF"/>
<defs>
<filter id="filter0_d_294_56756" x="60.7408" y="1.02516" width="111.033" height="136.179" filterUnits="userSpaceOnUse" color-interpolation-filters="sRGB">
<feFlood flood-opacity="0" result="BackgroundImageFix"/>
<feColorMatrix in="SourceAlpha" type="matrix" values="0 0 0 0 0 0 0 0 0 0 0 0 0 0 0 0 0 0 127 0" result="hardAlpha"/>
<feOffset dy="11"/>
<feGaussianBlur stdDeviation="11"/>
<feColorMatrix type="matrix" values="0 0 0 0 0.397708 0 0 0 0 0.47749 0 0 0 0 0.575 0 0 0 0.18 0"/>
<feBlend mode="normal" in2="BackgroundImageFix" result="effect1_dropShadow_294_56756"/>
<feBlend mode="normal" in="SourceGraphic" in2="effect1_dropShadow_294_56756" result="shape"/>
</filter>
<filter id="filter1_d_294_56756" x="60.2407" y="0.65284" width="112.027" height="137.051" filterUnits="userSpaceOnUse" color-interpolation-filters="sRGB">
<feFlood flood-opacity="0" result="BackgroundImageFix"/>
<feColorMatrix in="SourceAlpha" type="matrix" values="0 0 0 0 0 0 0 0 0 0 0 0 0 0 0 0 0 0 127 0" result="hardAlpha"/>
<feOffset dy="11"/>
<feGaussianBlur stdDeviation="11"/>
<feColorMatrix type="matrix" values="0 0 0 0 0.397708 0 0 0 0 0.47749 0 0 0 0 0.575 0 0 0 0.18 0"/>
<feBlend mode="normal" in2="BackgroundImageFix" result="effect1_dropShadow_294_56756"/>
<feBlend mode="normal" in="SourceGraphic" in2="effect1_dropShadow_294_56756" result="shape"/>
</filter>
<filter id="filter2_d_294_56756" x="1.07373" y="23.1885" width="135.202" height="149.49" filterUnits="userSpaceOnUse" color-interpolation-filters="sRGB">
<feFlood flood-opacity="0" result="BackgroundImageFix"/>
<feColorMatrix in="SourceAlpha" type="matrix" values="0 0 0 0 0 0 0 0 0 0 0 0 0 0 0 0 0 0 127 0" result="hardAlpha"/>
<feOffset dy="11"/>
<feGaussianBlur stdDeviation="11"/>
<feColorMatrix type="matrix" values="0 0 0 0 0.397708 0 0 0 0 0.47749 0 0 0 0 0.575 0 0 0 0.18 0"/>
<feBlend mode="normal" in2="BackgroundImageFix" result="effect1_dropShadow_294_56756"/>
<feBlend mode="normal" in="SourceGraphic" in2="effect1_dropShadow_294_56756" result="shape"/>
</filter>
<filter id="filter3_d_294_56756" x="0.5737" y="22.6881" width="136.202" height="150.49" filterUnits="userSpaceOnUse" color-interpolation-filters="sRGB">
<feFlood flood-opacity="0" result="BackgroundImageFix"/>
<feColorMatrix in="SourceAlpha" type="matrix" values="0 0 0 0 0 0 0 0 0 0 0 0 0 0 0 0 0 0 127 0" result="hardAlpha"/>
<feOffset dy="11"/>
<feGaussianBlur stdDeviation="11"/>
<feColorMatrix type="matrix" values="0 0 0 0 0.397708 0 0 0 0 0.47749 0 0 0 0 0.575 0 0 0 0.18 0"/>
<feBlend mode="normal" in2="BackgroundImageFix" result="effect1_dropShadow_294_56756"/>
<feBlend mode="normal" in="SourceGraphic" in2="effect1_dropShadow_294_56756" result="shape"/>
</filter>
<filter id="filter4_d_294_56756" x="92" y="117.99" width="58" height="58.2078" filterUnits="userSpaceOnUse" color-interpolation-filters="sRGB">
<feFlood flood-opacity="0" result="BackgroundImageFix"/>
<feColorMatrix in="SourceAlpha" type="matrix" values="0 0 0 0 0 0 0 0 0 0 0 0 0 0 0 0 0 0 127 0" result="hardAlpha"/>
<feOffset dy="5"/>
<feGaussianBlur stdDeviation="4"/>
<feColorMatrix type="matrix" values="0 0 0 0 0.1125 0 0 0 0 0.295916 0 0 0 0 1 0 0 0 0.22 0"/>
<feBlend mode="normal" in2="BackgroundImageFix" result="effect1_dropShadow_294_56756"/>
<feBlend mode="normal" in="SourceGraphic" in2="effect1_dropShadow_294_56756" result="shape"/>
</filter>
<linearGradient id="paint0_linear_294_56756" x1="163.026" y1="28.452" x2="167.439" y2="28.452" gradientUnits="userSpaceOnUse">
<stop stop-color="#FF66A9"/>
<stop offset="1" stop-color="#F53689"/>
</linearGradient>
<linearGradient id="paint1_linear_294_56756" x1="77.4175" y1="145.707" x2="81.5626" y2="145.707" gradientUnits="userSpaceOnUse">
<stop stop-color="#FF66A9"/>
<stop offset="1" stop-color="#F53689"/>
</linearGradient>
<linearGradient id="paint2_linear_294_56756" x1="193.694" y1="24.1713" x2="197.84" y2="24.1713" gradientUnits="userSpaceOnUse">
<stop stop-color="#83A6FF"/>
<stop offset="1" stop-color="#5A78FF"/>
</linearGradient>
<linearGradient id="paint3_linear_294_56756" x1="37.7758" y1="73.4712" x2="81.6272" y2="55.1707" gradientUnits="userSpaceOnUse">
<stop stop-color="#FF66A9"/>
<stop offset="1" stop-color="#F53689"/>
</linearGradient>
<linearGradient id="paint4_linear_294_56756" x1="46.405" y1="92.335" x2="49.8787" y2="90.8853" gradientUnits="userSpaceOnUse">
<stop stop-color="#83A6FF"/>
<stop offset="1" stop-color="#5A78FF"/>
</linearGradient>
<linearGradient id="paint5_linear_294_56756" x1="49.1586" y1="95.1299" x2="52.6323" y2="93.6802" gradientUnits="userSpaceOnUse">
<stop stop-color="#FF66A9"/>
<stop offset="1" stop-color="#F53689"/>
</linearGradient>
<linearGradient id="paint6_linear_294_56756" x1="53.6091" y1="91.4908" x2="57.0829" y2="90.041" gradientUnits="userSpaceOnUse">
<stop stop-color="#83A6FF"/>
<stop offset="1" stop-color="#5A78FF"/>
</linearGradient>
<linearGradient id="paint7_linear_294_56756" x1="60.6806" y1="90.3286" x2="64.1543" y2="88.8789" gradientUnits="userSpaceOnUse">
<stop stop-color="#83A6FF"/>
<stop offset="1" stop-color="#5A78FF"/>
</linearGradient>
<linearGradient id="paint8_linear_294_56756" x1="66.1266" y1="85.2722" x2="69.6003" y2="83.8225" gradientUnits="userSpaceOnUse">
<stop stop-color="#83A6FF"/>
<stop offset="1" stop-color="#5A78FF"/>
</linearGradient>
<linearGradient id="paint9_linear_294_56756" x1="73.3898" y1="84.57" x2="76.8635" y2="83.1204" gradientUnits="userSpaceOnUse">
<stop stop-color="#83A6FF"/>
<stop offset="1" stop-color="#5A78FF"/>
</linearGradient>
<linearGradient id="paint10_linear_294_56756" x1="79.3512" y1="80.7477" x2="82.8249" y2="79.2981" gradientUnits="userSpaceOnUse">
<stop stop-color="#83A6FF"/>
<stop offset="1" stop-color="#5A78FF"/>
</linearGradient>
<linearGradient id="paint11_linear_294_56756" x1="86.4226" y1="79.5856" x2="89.8964" y2="78.1359" gradientUnits="userSpaceOnUse">
<stop stop-color="#83A6FF"/>
<stop offset="1" stop-color="#5A78FF"/>
</linearGradient>
<linearGradient id="paint12_linear_294_56756" x1="56.0376" y1="93.6944" x2="59.5113" y2="92.2448" gradientUnits="userSpaceOnUse">
<stop stop-color="#FF66A9"/>
<stop offset="1" stop-color="#F53689"/>
</linearGradient>
<linearGradient id="paint13_linear_294_56756" x1="62.8244" y1="91.9447" x2="66.2982" y2="90.495" gradientUnits="userSpaceOnUse">
<stop stop-color="#FF66A9"/>
<stop offset="1" stop-color="#F53689"/>
</linearGradient>
<linearGradient id="paint14_linear_294_56756" x1="69.1816" y1="88.7903" x2="72.6554" y2="87.3405" gradientUnits="userSpaceOnUse">
<stop stop-color="#FF66A9"/>
<stop offset="1" stop-color="#F53689"/>
</linearGradient>
<linearGradient id="paint15_linear_294_56756" x1="75.2086" y1="85.0323" x2="78.6823" y2="83.5826" gradientUnits="userSpaceOnUse">
<stop stop-color="#FF66A9"/>
<stop offset="1" stop-color="#F53689"/>
</linearGradient>
<linearGradient id="paint16_linear_294_56756" x1="82.6515" y1="84.2914" x2="86.1251" y2="82.8417" gradientUnits="userSpaceOnUse">
<stop stop-color="#FF66A9"/>
<stop offset="1" stop-color="#F53689"/>
</linearGradient>
<linearGradient id="paint17_linear_294_56756" x1="89.0509" y1="81.8015" x2="92.5246" y2="80.3518" gradientUnits="userSpaceOnUse">
<stop stop-color="#FF66A9"/>
<stop offset="1" stop-color="#F53689"/>
</linearGradient>
<linearGradient id="paint18_linear_294_56756" x1="102.458" y1="132.043" x2="139.734" y2="152.936" gradientUnits="userSpaceOnUse">
<stop stop-color="#83A6FF"/>
<stop offset="0.994956" stop-color="#5277D7"/>
</linearGradient>
<linearGradient id="paint19_linear_294_56756" x1="122.863" y1="144.33" x2="132.091" y2="153.023" gradientUnits="userSpaceOnUse">
<stop stop-color="#4F6AFF"/>
<stop offset="1" stop-color="#657EFF" stop-opacity="0"/>
</linearGradient>
</defs>
</svg>
