<svg  viewBox="0 0 142 117" fill="none" xmlns="http://www.w3.org/2000/svg">
<path d="M71.5121 108.893C101.522 108.893 125.851 84.5634 125.851 54.4464C125.851 24.3294 101.522 0 71.5121 0C41.5022 0 17.1729 24.3294 17.1729 54.4464C17.1729 84.5634 41.5022 108.893 71.5121 108.893Z" fill="#EAEEF9"/>
<path d="M132.068 32.0462C134.495 32.0462 136.462 30.0788 136.462 27.6519C136.462 25.225 134.495 23.2576 132.068 23.2576C129.641 23.2576 127.674 25.225 127.674 27.6519C127.674 30.0788 129.641 32.0462 132.068 32.0462Z" fill="#EAEEF9"/>
<path d="M138.498 14.7905C140.155 14.7905 141.499 13.447 141.499 11.7896C141.499 10.1322 140.155 8.78857 138.498 8.78857C136.841 8.78857 135.497 10.1322 135.497 11.7896C135.497 13.447 136.841 14.7905 138.498 14.7905Z" fill="#EAEEF9"/>
<path d="M13.4219 35.1543C15.0793 35.1543 16.4229 33.8107 16.4229 32.1533C16.4229 30.4959 15.0793 29.1523 13.4219 29.1523C11.7645 29.1523 10.4209 30.4959 10.4209 32.1533C10.4209 33.8107 11.7645 35.1543 13.4219 35.1543Z" fill="#EAEEF9"/>
<path d="M18.9951 100.426C22.0732 100.426 24.5684 97.9306 24.5684 94.8525C24.5684 91.7745 22.0732 89.2793 18.9951 89.2793C15.9171 89.2793 13.4219 91.7745 13.4219 94.8525C13.4219 97.9306 15.9171 100.426 18.9951 100.426Z" fill="#EAEEF9"/>
<g filter="url(#filter0_d_5149_125570)">
<path d="M121.887 32.6893H28.9634C26.927 32.6893 25.3193 31.0816 25.3193 29.0452V8.14552C25.3193 6.10913 26.927 4.50146 28.9634 4.50146H121.78C123.816 4.50146 125.424 6.10913 125.424 8.14552V29.0452C125.531 31.0816 123.816 32.6893 121.887 32.6893Z" fill="white"/>
</g>
<path d="M121.887 32.6893C123.816 32.6893 125.531 31.0816 125.424 29.0452V8.14552C125.424 6.10913 123.816 4.50146 121.78 4.50146H28.9634C26.927 4.50146 25.3193 6.10913 25.3193 8.14552V29.0452C25.3193 31.0816 26.927 32.6893 28.9634 32.6893H84.1544M113.816 32.6893H92.6028" stroke="#6F7590"/>
<path d="M53.8291 16.1836H33.251C32.7151 16.1836 32.3936 15.7549 32.3936 15.3262V12.6467C32.3936 12.1108 32.8223 11.7893 33.251 11.7893H53.8291C54.365 11.7893 54.6866 12.218 54.6866 12.6467V15.3262C54.6866 15.8621 54.365 16.1836 53.8291 16.1836Z" fill="#C0D6FF"/>
<path d="M78.2657 25.294H33.251C32.7151 25.294 32.3936 24.8652 32.3936 24.4365V21.7571C32.3936 21.2212 32.8223 20.8997 33.251 20.8997H78.2657C78.8016 20.8997 79.1231 21.3284 79.1231 21.7571V24.4365C79.1231 24.9724 78.6944 25.294 78.2657 25.294Z" fill="#C0D6FF"/>
<g filter="url(#filter1_d_5149_125570)">
<path d="M121.887 102.998H28.9634C26.927 102.998 25.3193 101.39 25.3193 99.354V78.4543C25.3193 76.418 26.927 74.8103 28.9634 74.8103H121.78C123.816 74.8103 125.424 76.418 125.424 78.4543V99.354C125.531 101.39 123.816 102.998 121.887 102.998Z" fill="white"/>
</g>
<path d="M54.9813 75.1424L28.6155 75.1424C26.6848 75.1424 25.2173 76.3429 25.3246 78.4381V99.7362C25.3246 101.831 26.9336 103.486 28.9716 103.486L121.863 103.486C123.901 103.486 125.51 101.831 125.51 99.7362V78.4381C125.51 76.3429 123.901 75.1424 121.863 75.1424H66.1868" stroke="#6F7590"/>
<path d="M53.8291 86.6001H33.251C32.7151 86.6001 32.3936 86.1714 32.3936 85.7427V83.0632C32.3936 82.5273 32.8223 82.2058 33.251 82.2058H53.8291C54.365 82.2058 54.6866 82.6345 54.6866 83.0632V85.7427C54.6866 86.1714 54.365 86.6001 53.8291 86.6001Z" fill="#C0D6FF"/>
<path d="M78.2657 95.7102H33.251C32.7151 95.7102 32.3936 95.2815 32.3936 94.8528V92.1733C32.3936 91.6375 32.8223 91.3159 33.251 91.3159H78.2657C78.8016 91.3159 79.1231 91.7446 79.1231 92.1733V94.8528C79.1231 95.2815 78.6944 95.7102 78.2657 95.7102Z" fill="#C0D6FF"/>
<g filter="url(#filter2_d_5149_125570)">
<path d="M106.131 67.8436H13.3149C11.2786 67.8436 9.6709 66.2359 9.6709 64.1995V43.2998C9.6709 41.2634 11.2786 39.6558 13.3149 39.6558H106.131C108.167 39.6558 109.775 41.2634 109.775 43.2998V64.1995C109.882 66.2359 108.167 67.8436 106.131 67.8436Z" fill="white"/>
</g>
<path d="M38.1807 51.3381H17.6025C17.0667 51.3381 16.7451 50.9094 16.7451 50.4807V47.8013C16.7451 47.2654 17.1738 46.9438 17.6025 46.9438H38.1807C38.7166 46.9438 39.0381 47.3726 39.0381 47.8013V50.4807C39.0381 51.0166 38.7166 51.3381 38.1807 51.3381Z" fill="#C0D6FF"/>
<path d="M62.6173 60.5552H17.6025C17.0667 60.5552 16.7451 60.1265 16.7451 59.6978V57.0183C16.7451 56.4824 17.1738 56.1609 17.6025 56.1609H62.5101C63.046 56.1609 63.3675 56.5896 63.3675 57.0183V59.6978C63.4747 60.1265 63.046 60.5552 62.6173 60.5552Z" fill="#C0D6FF"/>
<path d="M106.394 67.8915C108.325 67.8915 109.792 66.6911 109.685 64.5958V43.2977C109.685 41.2025 108.076 39.5483 106.038 39.5483H13.147C11.109 39.5483 9.5 41.2025 9.5 43.2977V64.5958C9.5 66.6911 11.109 67.8915 13.147 67.8915H68.823M97.8253 67.8915H80.0284" stroke="#6F7590"/>
<defs>
<filter id="filter0_d_5149_125570" x="16.3193" y="0.501465" width="118.109" height="46.1877" filterUnits="userSpaceOnUse" color-interpolation-filters="sRGB">
<feFlood flood-opacity="0" result="BackgroundImageFix"/>
<feColorMatrix in="SourceAlpha" type="matrix" values="0 0 0 0 0 0 0 0 0 0 0 0 0 0 0 0 0 0 127 0" result="hardAlpha"/>
<feOffset dy="5"/>
<feGaussianBlur stdDeviation="4.5"/>
<feColorMatrix type="matrix" values="0 0 0 0 0.397708 0 0 0 0 0.47749 0 0 0 0 0.575 0 0 0 0.17 0"/>
<feBlend mode="normal" in2="BackgroundImageFix" result="effect1_dropShadow_5149_125570"/>
<feBlend mode="normal" in="SourceGraphic" in2="effect1_dropShadow_5149_125570" result="shape"/>
</filter>
<filter id="filter1_d_5149_125570" x="16.3193" y="70.8103" width="118.109" height="46.1877" filterUnits="userSpaceOnUse" color-interpolation-filters="sRGB">
<feFlood flood-opacity="0" result="BackgroundImageFix"/>
<feColorMatrix in="SourceAlpha" type="matrix" values="0 0 0 0 0 0 0 0 0 0 0 0 0 0 0 0 0 0 127 0" result="hardAlpha"/>
<feOffset dy="5"/>
<feGaussianBlur stdDeviation="4.5"/>
<feColorMatrix type="matrix" values="0 0 0 0 0.397708 0 0 0 0 0.47749 0 0 0 0 0.575 0 0 0 0.17 0"/>
<feBlend mode="normal" in2="BackgroundImageFix" result="effect1_dropShadow_5149_125570"/>
<feBlend mode="normal" in="SourceGraphic" in2="effect1_dropShadow_5149_125570" result="shape"/>
</filter>
<filter id="filter2_d_5149_125570" x="0.670898" y="35.6558" width="118.109" height="46.1877" filterUnits="userSpaceOnUse" color-interpolation-filters="sRGB">
<feFlood flood-opacity="0" result="BackgroundImageFix"/>
<feColorMatrix in="SourceAlpha" type="matrix" values="0 0 0 0 0 0 0 0 0 0 0 0 0 0 0 0 0 0 127 0" result="hardAlpha"/>
<feOffset dy="5"/>
<feGaussianBlur stdDeviation="4.5"/>
<feColorMatrix type="matrix" values="0 0 0 0 0.397708 0 0 0 0 0.47749 0 0 0 0 0.575 0 0 0 0.17 0"/>
<feBlend mode="normal" in2="BackgroundImageFix" result="effect1_dropShadow_5149_125570"/>
<feBlend mode="normal" in="SourceGraphic" in2="effect1_dropShadow_5149_125570" result="shape"/>
</filter>
</defs>
</svg>
