<svg  viewBox="0 0 121 126" fill="none" xmlns="http://www.w3.org/2000/svg">
<path d="M58.8579 101.993C85.5791 101.993 107.241 80.3294 107.241 53.6062C107.241 26.883 85.5791 5.21948 58.8579 5.21948C32.1368 5.21948 10.475 26.883 10.475 53.6062C10.475 80.3294 32.1368 101.993 58.8579 101.993Z" fill="#EAEEF9"/>
<g filter="url(#filter0_d_175:26054)">
<path d="M31.5027 41.6169H84.9478C86.9921 41.6169 88.7444 43.272 88.7444 45.4139V79.0996C88.7444 81.1441 87.0895 82.8966 84.9478 82.8966H31.5027C29.4583 82.8966 27.706 81.2415 27.706 79.0996V45.4139C27.706 43.3694 29.4583 41.6169 31.5027 41.6169Z" fill="#CED7E2"/>
</g>
<path d="M115.161 41.5174C116.669 40.139 116.774 37.7989 115.396 36.2906C114.018 34.7823 111.678 34.6769 110.17 36.0553C108.662 37.4336 108.556 39.7738 109.934 41.2821C111.313 42.7904 113.653 42.8957 115.161 41.5174Z" fill="#EAEEF9"/>
<path d="M115.434 25.0691C116.069 24.4887 116.114 23.5034 115.533 22.8683C114.953 22.2332 113.968 22.1889 113.333 22.7692C112.698 23.3496 112.653 24.3349 113.234 24.97C113.814 25.6051 114.799 25.6494 115.434 25.0691Z" fill="#EAEEF9"/>
<path d="M76.1381 2.3035C76.5746 1.9045 76.6051 1.2271 76.2062 0.790486C75.8072 0.35387 75.1299 0.323374 74.6933 0.722374C74.2567 1.12137 74.2262 1.79877 74.6252 2.23539C75.0241 2.672 75.7015 2.7025 76.1381 2.3035Z" fill="#EAEEF9"/>
<path d="M108.133 23.8791L94.7962 47.5368C94.3095 48.3156 93.3359 48.6078 92.5571 48.121L69.7774 34.8803C68.9986 34.3935 68.7064 33.4201 69.1932 32.6412L86.7161 2.46038C87.2029 1.68152 88.1764 1.38936 88.9552 1.87614L105.505 11.5145L108.133 23.8791Z" fill="#F2F6FA"/>
<path d="M105.407 11.4172L101.611 17.8429C101.124 18.8165 101.416 19.8876 102.292 20.4718L108.036 23.7818" fill="#CED7E2"/>
<path d="M89.7341 17.6485C90.1235 17.5511 90.5128 17.551 90.8048 17.551C91.1942 17.551 91.5838 17.551 91.9732 17.551C92.3626 17.6484 92.8492 17.7456 93.2386 17.8429C93.7253 18.0376 94.1148 18.2324 94.5042 18.4271C95.0883 18.7192 95.575 19.1088 95.9644 19.5956C96.3538 19.9851 96.646 20.4718 96.8407 21.056C97.0354 21.5428 97.0354 22.1265 97.0354 22.6133C96.938 23.1975 96.7432 23.7818 96.4512 24.2686C96.1591 24.7554 95.8671 25.1446 95.4777 25.5341C95.0883 25.8261 94.7963 26.021 94.3095 26.2158C93.9201 26.4105 93.5308 26.5076 93.1414 26.5076L92.0704 26.6051C91.7784 26.6051 91.4863 26.7026 91.0969 26.8C90.8049 26.8974 90.6102 26.9946 90.4155 27.1893L89.3446 28.5522L87.5925 27.5787L88.3711 25.8264C88.4684 25.5343 88.7606 25.242 88.9553 25.0473C89.2473 24.8526 89.5393 24.7553 89.8313 24.6579C90.2207 24.5606 90.5129 24.5609 90.9023 24.4635C91.2917 24.4635 91.681 24.366 92.0704 24.2686C92.4598 24.1712 92.752 24.074 93.1414 23.8793C93.5308 23.6846 93.7255 23.3926 93.9202 23.0031C94.0176 22.8084 94.1147 22.5161 94.2121 22.224C94.2121 21.9319 94.2122 21.7375 94.1149 21.5428C94.0175 21.2507 93.92 21.0558 93.7253 20.8611C93.5306 20.6664 93.336 20.4716 93.0439 20.2768C92.7519 20.0821 92.3626 19.8874 91.9732 19.7901C91.6812 19.6927 91.389 19.6926 91.0969 19.6926C90.8049 19.6926 90.6102 19.6926 90.4155 19.6926C90.3182 19.6926 90.1236 19.693 90.0262 19.5956C89.8315 19.4983 89.6367 19.2061 89.6367 19.0114L89.7341 17.6485ZM84.5745 30.8887C84.6719 30.694 84.8666 30.4997 85.0613 30.305C85.256 30.2076 85.4508 30.0126 85.6455 30.0126C86.1322 29.9152 86.6189 29.9154 87.0083 30.2075C87.203 30.3049 87.3978 30.4996 87.5925 30.6943C87.6898 30.889 87.787 31.0838 87.8843 31.2785C88.1764 32.2521 87.5925 33.2255 86.619 33.5176C86.1322 33.6149 85.6453 33.5174 85.2559 33.3227C85.0612 33.2253 84.8667 33.0306 84.672 32.8359C84.5746 32.6412 84.3799 32.4468 84.3799 32.2521C84.2825 32.0574 84.2825 31.7651 84.3799 31.5704C84.3799 31.2783 84.4772 31.0834 84.5745 30.8887Z" fill="#CED7E2"/>
<path d="M22.5628 13.5591L37.8467 29.4282C38.3334 30.0124 38.3334 30.7912 37.7493 31.3754L22.1733 46.0765C21.5892 46.5633 20.8104 46.5632 20.2263 45.979L0.853733 25.4369C0.366984 24.8528 0.367079 24.0739 0.951178 23.4898L12.2436 12.8774L22.5628 13.5591Z" fill="#F2F6FA"/>
<path d="M12.2437 12.7805L16.4298 17.1616C17.0139 17.7458 17.9874 17.7458 18.6689 17.1616L22.5629 13.4617" fill="#CED7E2"/>
<path d="M13.4115 26.4105C13.4115 26.1184 13.5091 25.826 13.6064 25.5339C13.7038 25.2418 13.8009 24.9499 13.8983 24.6578C13.9956 24.3657 14.1903 24.0737 14.385 23.7817C14.5797 23.4896 14.8718 23.1976 15.1639 22.9055C15.5533 22.5161 15.9427 22.2241 16.4295 22.0294C16.8189 21.8347 17.3057 21.7371 17.6951 21.7371C18.0845 21.7371 18.5713 21.8346 18.9607 21.932C19.3501 22.1267 19.7394 22.4186 20.1288 22.7106C20.4209 23.0027 20.7129 23.3922 20.8102 23.7817C20.9076 24.0737 21.005 24.4633 21.1023 24.8527C21.1023 25.1448 21.1023 25.5342 21.1023 25.8263C21.005 26.1183 21.005 26.4103 20.9077 26.7024C20.9077 26.9945 20.8102 27.189 20.8102 27.4811C20.8102 27.6758 20.8102 27.8706 21.0049 28.0653L21.7837 29.2338L20.6156 30.3048L19.4474 29.2338C19.2527 29.0391 19.058 28.8442 18.9607 28.5521C18.8633 28.26 18.8632 28.0655 18.8632 27.7734C18.8632 27.4813 18.9607 27.1894 18.9607 26.8973C19.058 26.6052 19.0579 26.3128 19.0579 26.0207C19.0579 25.7286 19.058 25.4366 18.9607 25.1446C18.8633 24.8525 18.6686 24.5605 18.4739 24.2685C18.3766 24.0737 18.1819 23.9765 17.9872 23.8791C17.7925 23.7818 17.5977 23.7817 17.403 23.7817C17.2083 23.7817 17.0135 23.8792 16.8188 23.9766C16.6241 24.0739 16.4295 24.1712 16.2348 24.3659C16.0401 24.5606 15.8453 24.8524 15.6506 25.0471C15.5533 25.2418 15.4559 25.4367 15.3585 25.7288C15.2612 25.9235 15.2613 26.1182 15.2613 26.2156C15.2613 26.313 15.164 26.4101 15.0667 26.5075C14.9693 26.7022 14.6772 26.7023 14.4825 26.6049L13.4115 26.4105ZM22.5626 33.42C22.4652 33.3226 22.3678 33.1279 22.2705 32.9332C22.1731 32.7385 22.173 32.5437 22.173 32.3489C22.173 31.9595 22.3677 31.5705 22.6598 31.2784C22.7571 31.181 22.9518 31.0834 23.1465 30.986C23.3412 30.8887 23.536 30.8886 23.7307 30.8886C24.3148 30.8886 24.8988 31.278 25.0935 31.8622C25.1909 32.0569 25.191 32.2517 25.191 32.4464C25.191 32.6411 25.0935 32.8359 25.0935 33.0306C24.9962 33.2253 24.8989 33.3227 24.7042 33.5174C24.6069 33.6148 24.4122 33.8093 24.2175 33.8093C23.8281 33.9067 23.4386 33.9067 23.1465 33.8093C22.8545 33.7119 22.6599 33.6147 22.5626 33.42Z" fill="#CED7E2"/>
<path d="M62.2817 38.5804L56.3433 59.7067C56.1486 60.3882 55.3698 60.8749 54.6884 60.5828L34.1475 54.5469C33.466 54.3522 32.9794 53.5731 33.2714 52.8916L41.2541 25.729C41.4488 25.0475 42.2275 24.5608 42.909 24.8528L57.8035 29.2339L62.2817 38.5804Z" fill="#F2F6FA"/>
<path d="M57.8037 29.3313L56.0514 35.1728C55.8567 35.9516 56.3435 36.8278 57.1223 37.1199L62.2819 38.6772" fill="#CED7E2"/>
<path d="M46.6083 37.217C46.9004 37.1197 47.1923 37.0225 47.4844 36.9251C47.7764 36.8278 48.0685 36.7302 48.4579 36.7302C48.8473 36.7302 49.1394 36.7302 49.5288 36.7302C49.9182 36.7302 50.3076 36.8278 50.697 36.9251C51.1837 37.0225 51.6706 37.3148 52.06 37.6068C52.4494 37.8989 52.7415 38.191 53.0335 38.5804C53.2282 38.9698 53.4229 39.359 53.5203 39.7484C53.6176 40.2352 53.5202 40.7219 53.4228 41.1113C53.3255 41.5007 53.1307 41.8904 52.8386 42.2798C52.6439 42.5719 52.3521 42.8638 52.06 43.0585C51.768 43.2532 51.4758 43.4479 51.1837 43.5453L50.3077 43.8376C50.113 43.935 49.821 44.0321 49.6263 44.1295C49.4316 44.2269 49.2367 44.4216 49.2367 44.6163L48.6528 45.8822L47.0951 45.3954L47.3872 43.8376C47.3872 43.5455 47.5818 43.3506 47.7765 43.1559C47.9712 42.9612 48.1658 42.7665 48.4579 42.6691C48.7499 42.5718 49.042 42.4746 49.2367 42.3772C49.5288 42.2799 49.821 42.1826 50.113 41.9879C50.4051 41.8906 50.5996 41.6958 50.8916 41.5011C51.0863 41.3064 51.281 41.014 51.3784 40.6245C51.4757 40.4298 51.4758 40.2355 51.4758 40.0408C51.4758 39.846 51.3785 39.6512 51.2812 39.4565C51.1838 39.2618 50.9891 39.1644 50.7944 38.9697C50.5997 38.8724 50.4051 38.7747 50.113 38.6774C49.821 38.58 49.5289 38.5804 49.1395 38.5804C48.9448 38.5804 48.6526 38.58 48.4579 38.6774C48.2632 38.6774 48.0685 38.7748 47.9711 38.7748C47.8738 38.7748 47.7765 38.8722 47.5818 38.7748C47.3871 38.7748 47.1925 38.5802 47.1925 38.3855L46.6083 37.217ZM45.1481 48.7055C45.2454 48.5108 45.2455 48.3161 45.4402 48.2187C45.5375 48.024 45.7321 47.9267 45.8295 47.8294C46.2189 47.6347 46.6084 47.6346 46.9004 47.7319C47.0951 47.8293 47.2898 47.9264 47.3872 48.0238C47.4845 48.1212 47.6791 48.3158 47.7765 48.4131C48.1659 49.0946 47.874 49.9709 47.1925 50.3603C46.8031 50.555 46.4136 50.5551 46.1216 50.4577C45.9269 50.3604 45.7322 50.3606 45.6348 50.1659C45.4401 50.0685 45.3429 49.8739 45.2455 49.7765C45.1482 49.5818 45.148 49.4844 45.0506 49.2897C45.0506 49.095 45.0507 48.9002 45.1481 48.7055Z" fill="#CED7E2"/>
<path d="M110.469 74.6784L91.0527 85.1755C90.4242 85.5119 89.5365 85.2945 89.2811 84.6031L79.5718 65.6948C79.2457 65.0714 79.4772 64.1798 80.1724 63.9131L105.374 50.6656C106.002 50.3292 106.89 50.5463 107.146 51.2377L114.183 64.9512L110.469 74.6784Z" fill="#F2F6FA"/>
<path d="M114.081 65.0185L108.643 67.8409C107.944 68.245 107.642 69.2043 107.964 69.965L110.37 74.7415" fill="#CED7E2"/>
<path d="M100.654 62.4514C100.924 62.5923 101.195 62.7334 101.466 62.8743C101.736 63.0152 102.007 63.156 102.274 63.4344C102.541 63.7128 102.741 63.9215 103.007 64.1999C103.274 64.4784 103.47 64.8249 103.666 65.1713C103.929 65.5872 104.051 66.1387 104.106 66.6208C104.161 67.103 104.149 67.5155 104.067 67.996C103.918 68.4068 103.769 68.8178 103.553 69.159C103.267 69.5682 102.847 69.838 102.498 70.04C102.149 70.2421 101.733 70.3747 101.251 70.4376C100.906 70.5021 100.494 70.4969 100.153 70.4239C99.8113 70.3509 99.4701 70.278 99.1995 70.1371L98.3875 69.7141C98.1835 69.6428 97.9127 69.5022 97.7087 69.4309C97.5047 69.3596 97.2302 69.3562 97.089 69.4921L95.7712 69.9571L95.0571 68.5038L96.3868 67.626C96.5986 67.4223 96.873 67.426 97.1476 67.4294C97.4222 67.4327 97.6967 67.4361 97.9674 67.577C98.238 67.7179 98.509 67.8586 98.7129 67.9299C98.9836 68.0708 99.2541 68.2117 99.5954 68.2847C99.8661 68.4256 100.141 68.429 100.482 68.502C100.757 68.5054 101.102 68.441 101.451 68.2389C101.8 68.0369 102.153 67.6972 102.165 67.2847C102.239 67.0793 102.176 66.8722 102.184 66.5971C102.121 66.39 102.058 66.1829 101.929 65.9062C101.799 65.6294 101.599 65.4205 101.403 65.0742C101.27 64.935 101.07 64.7263 100.866 64.655C100.732 64.5158 100.528 64.4445 100.462 64.3749C100.395 64.3053 100.258 64.3037 100.195 64.0966C100.062 63.9574 100.069 63.6823 100.21 63.5465L100.654 62.4514ZM91.3934 69.353C91.6013 69.2868 91.7425 69.151 91.9465 69.2223C92.1543 69.156 92.3587 69.2272 92.496 69.2289C92.9039 69.3715 93.1703 69.65 93.2998 69.9268C93.3626 70.1339 93.4255 70.3409 93.4216 70.4784C93.4177 70.6159 93.4101 70.891 93.4062 71.0285C93.3278 71.3714 92.9746 71.7109 92.6961 71.8451C92.4882 71.9113 92.2803 71.9775 92.143 71.9758C92.0058 71.9741 91.7313 71.9707 91.594 71.969C91.1861 71.8264 90.9192 71.548 90.7897 71.2713C90.7269 71.0641 90.664 70.8572 90.6679 70.7196C90.6051 70.5125 90.6799 70.3069 90.6839 70.1694C90.7584 69.964 90.8996 69.8282 90.9035 69.6907C91.0447 69.5548 91.2522 69.4888 91.3934 69.353Z" fill="#CED7E2"/>
<path d="M61.9892 12.2938L61.405 12.1963C61.113 12.1963 60.9184 12.0016 60.8211 11.7096C60.7237 11.5148 60.7235 11.3201 60.6262 11.2228C60.5288 11.028 60.5289 10.7358 60.7236 10.5411L61.0157 10.0543C61.2104 9.76221 61.2103 9.37288 60.9183 9.17816L59.9448 8.20459C59.6527 7.91251 59.2634 7.91242 59.0687 8.10713L58.582 8.39949C58.3873 8.59421 58.0952 8.59383 57.8031 8.49647C57.6084 8.39911 57.4137 8.30204 57.3164 8.30204C57.0243 8.20468 56.927 8.00987 56.8296 7.7178L56.7322 7.13356C56.6348 6.74413 56.3428 6.54932 56.0508 6.54932H54.688C54.2986 6.54932 54.0066 6.84148 54.0066 7.13356L53.9091 7.7178C53.9091 8.00987 53.7144 8.20468 53.4224 8.30204C53.2277 8.3994 53.033 8.39911 52.9356 8.49647C52.7409 8.59383 52.4489 8.59421 52.2542 8.39949L51.7675 8.10713C51.4754 7.91242 51.0859 7.91251 50.8912 8.20459L49.9177 9.17816C49.6256 9.47023 49.6258 9.85957 49.8205 10.0543L50.1126 10.5411C50.3073 10.7358 50.3071 11.028 50.2098 11.2228C50.1124 11.4175 50.0151 11.6122 50.0151 11.7096C49.9178 12.0016 49.723 12.099 49.4309 12.1963L48.847 12.2938C48.4576 12.3912 48.2628 12.6829 48.2628 12.975V14.3379C48.2628 14.7274 48.5549 15.0196 48.847 15.0196L49.4309 15.1171C49.723 15.1171 49.9178 15.3118 50.0151 15.6039C50.1125 15.7986 50.1124 15.9933 50.2098 16.0906C50.3071 16.2854 50.3073 16.5772 50.1126 16.8693L49.8205 17.3561C49.6258 17.6482 49.6256 18.0376 49.9177 18.3297L50.8912 19.3033C51.1832 19.5953 51.5728 19.5954 51.7675 19.4007L52.2542 19.1088C52.4489 18.9141 52.7409 18.914 52.9356 19.0114C53.1303 19.1087 53.325 19.2058 53.4224 19.2058C53.7144 19.3032 53.8118 19.498 53.9091 19.79L54.0066 20.3743C54.1039 20.7637 54.3959 20.9585 54.688 20.9585H56.0508C56.4402 20.9585 56.7322 20.6664 56.7322 20.3743L56.8296 19.79C56.8296 19.498 57.0243 19.3032 57.3164 19.2058C57.5111 19.1084 57.7058 19.1087 57.8031 19.0114C57.9978 18.914 58.2899 18.9141 58.582 19.1088L59.0687 19.4007C59.3608 19.5954 59.7501 19.5953 59.9448 19.3033L60.9183 18.3297C61.2103 18.0376 61.2104 17.6482 61.0157 17.3561L60.7236 16.8693C60.5289 16.6746 60.5288 16.3827 60.6262 16.0906C60.7235 15.8959 60.8211 15.7012 60.8211 15.6039C60.9184 15.3118 61.113 15.2144 61.405 15.1171L61.9892 15.0196C62.3786 14.9223 62.5732 14.63 62.5732 14.3379V12.975C62.5732 12.5856 62.3786 12.2938 61.9892 12.2938ZM55.564 15.9932C54.2011 15.9932 53.1303 14.9223 53.1303 13.5593C53.1303 12.1962 54.2011 11.1253 55.564 11.1253C56.9269 11.1253 57.9978 12.1962 57.9978 13.5593C57.9004 14.9223 56.8296 15.9932 55.564 15.9932Z" fill="url(#paint0_linear_175:26054)"/>
<path d="M14.1905 64.964L13.8012 64.867C13.6065 64.867 13.509 64.672 13.4117 64.5746C13.4117 64.4773 13.3144 64.2827 13.217 64.1853C13.1197 63.9906 13.1198 63.7959 13.3145 63.6985L13.5091 63.4066C13.6065 63.2119 13.6065 62.9197 13.5091 62.7249L12.8277 62.0432C12.633 61.8485 12.341 61.8485 12.1463 62.0432L11.8542 62.2382C11.6595 62.3355 11.4648 62.3355 11.3675 62.2382C11.2701 62.1408 11.0753 62.1406 10.9779 62.0432C10.7832 61.9459 10.6861 61.8486 10.6861 61.6539L10.5886 61.2646C10.5886 61.0699 10.3939 60.8752 10.1019 60.8752H9.22581C8.93376 60.8752 8.73906 61.0699 8.73906 61.2646L8.64162 61.6539C8.64162 61.8486 8.44687 61.9459 8.34952 62.0432C8.25217 62.0432 8.05757 62.1408 7.96022 62.2382C7.76552 62.3355 7.57082 62.3355 7.47347 62.2382L7.18137 62.0432C6.98667 61.8485 6.69467 61.9459 6.49997 62.0432L5.81857 62.7249C5.62387 62.9197 5.62387 63.2119 5.81857 63.4066L6.01322 63.6985C6.11057 63.8932 6.11057 63.9906 6.01322 64.1853C5.91587 64.2827 5.91592 64.4773 5.81857 64.5746C5.72122 64.7694 5.62372 64.867 5.42902 64.867L5.03972 64.964C4.84502 64.964 4.65018 65.1587 4.65018 65.4508V66.3274C4.65018 66.6194 4.84502 66.8142 5.03972 66.8142L5.42902 66.9111C5.62372 66.9111 5.72122 67.1061 5.81857 67.2035C5.81857 67.3008 5.91587 67.4955 6.01322 67.5928C6.11057 67.7875 6.11057 67.9823 6.01322 68.0796L5.81857 68.3715C5.72122 68.5662 5.72122 68.8585 5.81857 69.0532L6.49997 69.7349C6.69467 69.9296 6.98667 69.9296 7.18137 69.7349L7.47347 69.54C7.57082 69.4426 7.76552 69.4425 7.96022 69.4425C8.05757 69.5399 8.25217 69.5401 8.34952 69.6374C8.54422 69.7348 8.64162 69.832 8.64162 70.0268L8.73906 70.4161C8.73906 70.6108 8.93376 70.8054 9.22581 70.8054H10.1019C10.3939 70.8054 10.5886 70.6108 10.5886 70.4161L10.6861 70.0268C10.6861 69.832 10.8806 69.7348 10.9779 69.6374C11.0753 69.6374 11.2701 69.5399 11.3675 69.4425C11.5622 69.3452 11.7569 69.3453 11.8542 69.54L12.1463 69.7349C12.341 69.8322 12.633 69.8322 12.8277 69.7349L13.5091 69.0532C13.7038 68.8585 13.7038 68.5662 13.5091 68.3715L13.3145 68.0796C13.2171 67.8849 13.217 67.6902 13.217 67.5928C13.3144 67.4955 13.3143 67.3008 13.4117 67.2035C13.509 67.0088 13.6065 66.9111 13.8012 66.9111L14.1905 66.8142C14.3852 66.8142 14.5801 66.6194 14.5801 66.3274V65.4508C14.6774 65.1587 14.4826 64.964 14.1905 64.964ZM9.71256 67.5928C8.83641 67.5928 8.05742 66.8138 8.05742 65.9376C8.05742 65.0613 8.83641 64.2828 9.71256 64.2828C10.5887 64.2828 11.3675 65.0613 11.3675 65.9376C11.3675 66.8138 10.6861 67.5928 9.71256 67.5928Z" fill="url(#paint1_linear_175:26054)"/>
<path d="M89.7345 63.3092V79.9574C89.7345 82.0993 87.9822 83.8517 85.8405 83.8517H30.9351C28.7934 83.8517 27.0411 82.0993 27.0411 79.9574V61.9463" stroke="#1676EE" stroke-width="3" stroke-linecap="round" stroke-linejoin="round"/>
<g filter="url(#filter1_d_175:26054)">
<path d="M87.6203 52.6489H68.7834C66.9894 52.6489 65.1955 53.2934 63.8092 54.4209L58.8349 58.4477C57.4487 59.5752 55.6548 60.2197 53.8608 60.2197H32.4145C30.2943 60.2197 28.5003 61.9108 28.5003 64.0853C28.5003 64.2463 28.5004 64.4881 28.5819 64.6492L32.4959 85.2662C32.8221 87.1991 34.453 88.6489 36.4101 88.6489H82.0752C84.0323 88.6489 85.6632 87.2797 85.9894 85.3468L91.4529 57.1591C91.7791 55.0651 90.3928 53.0517 88.1911 52.7295C88.028 52.649 87.7834 52.6489 87.6203 52.6489Z" fill="white"/>
</g>
<g filter="url(#filter2_d_175:26054)">
<path d="M92.8495 48.8999H70.3616C68.2199 48.8999 66.0784 49.679 64.4234 51.042L58.485 55.9098C56.83 57.2728 54.6885 58.0519 52.5468 58.0519H26.9437C24.4126 58.0519 22.2708 60.0962 22.2708 62.7249C22.2708 62.9196 22.2709 63.2118 22.3683 63.4066L27.0409 88.3297C27.4303 90.6663 29.3773 92.4189 31.7137 92.4189H86.2297C88.5661 92.4189 90.5131 90.7638 90.9025 88.4272L97.4249 54.352C97.8143 51.8207 96.1594 49.3868 93.5309 48.9974C93.3362 48.9 93.0442 48.8999 92.8495 48.8999Z" fill="white"/>
</g>
<path d="M49.2365 74.7971C50.5806 74.7971 51.6702 73.7074 51.6702 72.3631C51.6702 71.0189 50.5806 69.9292 49.2365 69.9292C47.8924 69.9292 46.8027 71.0189 46.8027 72.3631C46.8027 73.7074 47.8924 74.7971 49.2365 74.7971Z" fill="#1C3754"/>
<path d="M68.3172 74.6997C69.6613 74.6997 70.7509 73.61 70.7509 72.2657C70.7509 70.9215 69.6613 69.8318 68.3172 69.8318C66.9731 69.8318 65.8834 70.9215 65.8834 72.2657C65.8834 73.61 66.9731 74.6997 68.3172 74.6997Z" fill="#1C3754"/>
<path d="M64.0337 78.7887H62.7683C61.6975 76.5495 58.9716 75.6733 56.8299 76.8416C55.9537 77.231 55.2723 78.0098 54.8829 78.7887H53.6173C54.6881 75.868 57.9982 74.4077 60.8213 75.4786C62.2816 76.0628 63.4496 77.231 64.0337 78.7887Z" fill="#1C3754"/>
<g filter="url(#filter3_d_175:26054)">
<path d="M102.695 90.3842C102.403 91.6499 102.014 92.8182 101.527 93.9865C101.43 94.2785 101.332 94.4733 101.138 94.7653C99.4827 97.9781 96.8543 100.607 93.6417 102.165C93.2523 102.359 92.8629 102.554 92.5709 102.651C89.4557 103.917 85.9511 104.404 82.4465 103.625C73.1982 101.678 67.2599 92.6235 69.2069 83.3745C71.1539 74.1255 80.2074 68.1867 89.4557 70.1339C92.7656 70.8154 95.6861 72.4704 98.1198 74.807C102.208 78.7987 103.961 84.7375 102.695 90.3842Z" fill="url(#paint2_linear_175:26054)"/>
</g>
<path d="M101.514 93.9766C101.416 94.2687 101.319 94.4632 101.222 94.7553C99.5668 97.9681 96.9381 100.597 93.7256 102.155C93.3362 102.349 92.9469 102.544 92.6549 102.641L80.6808 90.6665L83.6013 90.7635L86.7164 90.861L88.9555 89.3032C88.9555 89.3032 90.7078 86.2853 90.6104 86.0905C90.5131 85.8958 88.5662 82.8779 88.5662 82.8779L90.7079 83.2673L101.514 93.9766Z" fill="url(#paint3_linear_175:26054)"/>
<path d="M93.0443 92.3212L90.5133 89.7898C92.4603 86.869 91.6815 82.9747 88.761 81.0276C85.8405 79.0804 81.9465 79.8596 79.9995 82.7803C78.0525 85.701 78.8313 89.5953 81.7518 91.5425C83.8935 92.9055 86.6192 92.9055 88.6635 91.5425L91.1947 94.0739C91.6815 94.5607 92.4603 94.5607 92.9471 94.0739C93.4338 93.5871 93.531 92.808 93.0443 92.3212ZM82.5304 89.0111C81.0702 87.5507 81.0702 85.1168 82.5304 83.6564C83.9907 82.1961 86.4244 82.1961 87.8847 83.6564C89.3449 85.1168 89.3449 87.5507 87.8847 89.0111C86.4244 90.4715 83.9907 90.4715 82.5304 89.0111Z" fill="url(#paint4_linear_175:26054)"/>
<defs>
<filter id="filter0_d_175:26054" x="5.70602" y="30.6169" width="105.038" height="85.2795" filterUnits="userSpaceOnUse" color-interpolation-filters="sRGB">
<feFlood flood-opacity="0" result="BackgroundImageFix"/>
<feColorMatrix in="SourceAlpha" type="matrix" values="0 0 0 0 0 0 0 0 0 0 0 0 0 0 0 0 0 0 127 0" result="hardAlpha"/>
<feOffset dy="11"/>
<feGaussianBlur stdDeviation="11"/>
<feColorMatrix type="matrix" values="0 0 0 0 0.397708 0 0 0 0 0.47749 0 0 0 0 0.575 0 0 0 0.18 0"/>
<feBlend mode="normal" in2="BackgroundImageFix" result="effect1_dropShadow_175:26054"/>
<feBlend mode="normal" in="SourceGraphic" in2="effect1_dropShadow_175:26054" result="shape"/>
</filter>
<filter id="filter1_d_175:26054" x="23.5003" y="42.6489" width="73" height="46" filterUnits="userSpaceOnUse" color-interpolation-filters="sRGB">
<feFlood flood-opacity="0" result="BackgroundImageFix"/>
<feColorMatrix in="SourceAlpha" type="matrix" values="0 0 0 0 0 0 0 0 0 0 0 0 0 0 0 0 0 0 127 0" result="hardAlpha"/>
<feOffset dy="-5"/>
<feGaussianBlur stdDeviation="2.5"/>
<feColorMatrix type="matrix" values="0 0 0 0 0.397708 0 0 0 0 0.47749 0 0 0 0 0.575 0 0 0 0.18 0"/>
<feBlend mode="normal" in2="BackgroundImageFix" result="effect1_dropShadow_175:26054"/>
<feBlend mode="normal" in="SourceGraphic" in2="effect1_dropShadow_175:26054" result="shape"/>
</filter>
<filter id="filter2_d_175:26054" x="0.270844" y="37.8999" width="119.211" height="87.519" filterUnits="userSpaceOnUse" color-interpolation-filters="sRGB">
<feFlood flood-opacity="0" result="BackgroundImageFix"/>
<feColorMatrix in="SourceAlpha" type="matrix" values="0 0 0 0 0 0 0 0 0 0 0 0 0 0 0 0 0 0 127 0" result="hardAlpha"/>
<feOffset dy="11"/>
<feGaussianBlur stdDeviation="11"/>
<feColorMatrix type="matrix" values="0 0 0 0 0.397708 0 0 0 0 0.47749 0 0 0 0 0.575 0 0 0 0.18 0"/>
<feBlend mode="normal" in2="BackgroundImageFix" result="effect1_dropShadow_175:26054"/>
<feBlend mode="normal" in="SourceGraphic" in2="effect1_dropShadow_175:26054" result="shape"/>
</filter>
<filter id="filter3_d_175:26054" x="60.8372" y="66.7642" width="50.2626" height="50.2358" filterUnits="userSpaceOnUse" color-interpolation-filters="sRGB">
<feFlood flood-opacity="0" result="BackgroundImageFix"/>
<feColorMatrix in="SourceAlpha" type="matrix" values="0 0 0 0 0 0 0 0 0 0 0 0 0 0 0 0 0 0 127 0" result="hardAlpha"/>
<feOffset dy="5"/>
<feGaussianBlur stdDeviation="4"/>
<feColorMatrix type="matrix" values="0 0 0 0 0.1125 0 0 0 0 0.295916 0 0 0 0 1 0 0 0 0.22 0"/>
<feBlend mode="normal" in2="BackgroundImageFix" result="effect1_dropShadow_175:26054"/>
<feBlend mode="normal" in="SourceGraphic" in2="effect1_dropShadow_175:26054" result="shape"/>
</filter>
<linearGradient id="paint0_linear_175:26054" x1="48.432" y1="13.6125" x2="62.6069" y2="13.6125" gradientUnits="userSpaceOnUse">
<stop stop-color="#FF66A9"/>
<stop offset="1" stop-color="#F53689"/>
</linearGradient>
<linearGradient id="paint1_linear_175:26054" x1="4.83427" y1="65.8809" x2="14.6438" y2="65.8809" gradientUnits="userSpaceOnUse">
<stop stop-color="#FF66A9"/>
<stop offset="1" stop-color="#F53689"/>
</linearGradient>
<linearGradient id="paint2_linear_175:26054" x1="68.8516" y1="86.8819" x2="103.097" y2="86.8819" gradientUnits="userSpaceOnUse">
<stop stop-color="#83A6FF"/>
<stop offset="1" stop-color="#5A78FF"/>
</linearGradient>
<linearGradient id="paint3_linear_175:26054" x1="88.5281" y1="89.7891" x2="94.4874" y2="95.7479" gradientUnits="userSpaceOnUse">
<stop stop-color="#4F6AFF"/>
<stop offset="1" stop-color="#657EFF" stop-opacity="0"/>
</linearGradient>
<linearGradient id="paint4_linear_175:26054" x1="91.5089" y1="92.5866" x2="83.0822" y2="84.1607" gradientUnits="userSpaceOnUse">
<stop offset="0.0113208" stop-color="#C2D1FF"/>
<stop offset="1" stop-color="white"/>
</linearGradient>
</defs>
</svg>
