<svg  viewBox="0 0 128 131" fill="none" xmlns="http://www.w3.org/2000/svg">
<path d="M64.1179 113C93.6896 113 117.671 89.1031 117.671 59.5942C117.671 30.0853 93.6896 6.18848 64.1179 6.18848C34.5463 6.18848 10.5645 30.0853 10.5645 59.5942C10.5645 89.1031 34.5463 113 64.1179 113Z" fill="#EAEEF9"/>
<path d="M105.139 52.6238V85.3009C105.139 92.0898 99.6397 97.6114 92.7877 97.6114H35.6279C28.8661 97.6114 23.3665 92.1803 23.2764 85.3914C23.2764 85.3009 23.2764 85.3009 23.2764 85.2104V52.6238C23.2764 52.5333 23.2764 52.5333 23.2764 52.4428C23.2764 52.2618 23.2764 52.0807 23.3665 51.8997C23.4567 51.6281 23.5468 51.4471 23.637 51.1756L38.9638 21.7571C39.5047 20.5804 40.6767 19.9468 41.9389 19.9468H86.3866C87.6488 19.9468 88.7306 20.5804 89.3617 21.7571L104.689 51.1756C104.779 51.3566 104.869 51.6281 104.959 51.8997C105.139 52.0807 105.139 52.3523 105.139 52.6238Z" fill="#C0D6FF"/>
<g filter="url(#filter0_d_2268:138495)">
<path d="M105.139 52.6245V88.6508C105.139 93.6293 101.172 97.6121 96.1236 97.6121H32.2921C27.3335 97.6121 23.2764 93.6293 23.2764 88.6508V52.4435C23.2764 52.2625 23.2764 52.0814 23.3665 51.9004H43.9224C46.9878 51.9004 49.5122 54.3444 49.5122 57.5125C49.5122 59.0513 50.1433 60.4996 51.135 61.4953C52.2169 62.5815 53.4791 63.1247 55.1019 63.1247H73.4039C76.4692 63.1247 78.9936 60.6807 78.9936 57.5125C78.9936 55.9737 79.6247 54.5254 80.6165 53.5297C81.6984 52.4435 82.9606 51.9004 84.4932 51.9004H104.959C105.139 52.0814 105.139 52.353 105.139 52.6245Z" fill="url(#paint0_linear_2268:138495)"/>
</g>
<path d="M116.304 34.068C118.345 34.068 120 32.4064 120 30.3568C120 28.3071 118.345 26.6455 116.304 26.6455C114.262 26.6455 112.607 28.3071 112.607 30.3568C112.607 32.4064 114.262 34.068 116.304 34.068Z" fill="#F4F6FD"/>
<path d="M112.606 22.029C114.001 22.029 115.131 20.8942 115.131 19.4945C115.131 18.0947 114.001 16.96 112.606 16.96C111.212 16.96 110.082 18.0947 110.082 19.4945C110.082 20.8942 111.212 22.029 112.606 22.029Z" fill="#F4F6FD"/>
<path d="M10.3682 30.3571C11.7623 30.3571 12.8926 29.2224 12.8926 27.8226C12.8926 26.4228 11.7623 25.2881 10.3682 25.2881C8.97397 25.2881 7.84375 26.4228 7.84375 27.8226C7.84375 29.2224 8.97397 30.3571 10.3682 30.3571Z" fill="#F4F6FD"/>
<path d="M4.68818 86.1161C7.2774 86.1161 9.37637 84.0087 9.37637 81.4091C9.37637 78.8095 7.2774 76.7021 4.68818 76.7021C2.09897 76.7021 0 78.8095 0 81.4091C0 84.0087 2.09897 86.1161 4.68818 86.1161Z" fill="#F4F6FD"/>
<path d="M86.7655 9.05713C87.9421 21.9534 88.5304 24.9068 85.8664 36.5861C85.0001 39.1826 84.1338 42.0265 82.2773 44.0048C79.6783 47.096 74.9754 48.4561 71.1387 47.4669C67.1783 46.4777 63.9605 43.0156 63.2179 38.8117C62.5991 36.2151 63.4655 33.124 65.6932 31.5166C68.0447 30.0329 71.3863 30.4038 73.3664 32.2585C75.5942 34.1132 76.4605 36.957 76.3367 39.6772C76.213 42.3974 75.2229 45.1176 73.8615 47.4669C70.784 53.2434 69.517 53.2222 63.218 62.7095" stroke="#5277D7" stroke-width="2" stroke-miterlimit="10" stroke-dasharray="4 4"/>
<path d="M93.6666 4.25338C93.1962 5.97666 91.3145 6.60331 89.4328 5.50668C87.3942 4.5667 85.9829 3.78339 86.2966 2.21677C86.767 0.650147 88.6487 0.493484 90.844 0.336822C93.5098 0.0234978 93.9803 2.53009 93.6666 4.25338Z" fill="#C1E0FD"/>
<path d="M78.4551 5.82016C79.2391 7.23012 81.4345 8.17009 83.0026 6.76013C84.7275 5.19351 86.1388 4.09688 85.3547 2.53025C84.5707 1.12029 83.3162 1.59028 80.6504 1.9036C78.4551 2.37359 77.5142 4.25354 78.4551 5.82016Z" fill="#C1E0FD"/>
<path d="M85.3544 0.0239918C86.452 -0.13267 87.5497 0.493979 87.8633 1.43395C88.0201 1.74728 88.177 2.21726 88.177 2.53059C88.4906 4.72386 87.7065 6.60381 86.452 6.76047C85.0408 7.07379 83.6295 5.50717 83.4727 3.47056C83.4727 2.84391 83.4727 2.53059 83.4727 2.0606C83.6295 0.963966 84.2567 0.180654 85.3544 0.0239918C85.3544 0.0239918 85.5112 0.0239918 85.3544 0.0239918Z" fill="#5277D7"/>
<path d="M53.921 76.1223C55.0634 76.1223 55.9895 75.1925 55.9895 74.0455C55.9895 72.8985 55.0634 71.9688 53.921 71.9688C52.7786 71.9688 51.8525 72.8985 51.8525 74.0455C51.8525 75.1925 52.7786 76.1223 53.921 76.1223Z" fill="#6F7590"/>
<path d="M74.4943 76.1223C75.6366 76.1223 76.5627 75.1925 76.5627 74.0455C76.5627 72.8985 75.6366 71.9688 74.4943 71.9688C73.3519 71.9688 72.4258 72.8985 72.4258 74.0455C72.4258 75.1925 73.3519 76.1223 74.4943 76.1223Z" fill="#6F7590"/>
<path d="M67.5632 89.7576H61.0783C60.072 89.7576 59.2334 88.9167 59.2334 87.9076C59.2334 86.8985 60.072 86.0576 61.0783 86.0576H67.5073C68.5136 86.0576 69.3522 86.8985 69.3522 87.9076C69.4081 88.9167 68.5695 89.7576 67.5632 89.7576Z" fill="#6F7590"/>
<defs>
<filter id="filter0_d_2268:138495" x="1.27637" y="40.9004" width="125.863" height="89.7119" filterUnits="userSpaceOnUse" color-interpolation-filters="sRGB">
<feFlood flood-opacity="0" result="BackgroundImageFix"/>
<feColorMatrix in="SourceAlpha" type="matrix" values="0 0 0 0 0 0 0 0 0 0 0 0 0 0 0 0 0 0 127 0" result="hardAlpha"/>
<feOffset dy="11"/>
<feGaussianBlur stdDeviation="11"/>
<feColorMatrix type="matrix" values="0 0 0 0 0.397708 0 0 0 0 0.47749 0 0 0 0 0.575 0 0 0 0.27 0"/>
<feBlend mode="normal" in2="BackgroundImageFix" result="effect1_dropShadow_2268:138495"/>
<feBlend mode="normal" in="SourceGraphic" in2="effect1_dropShadow_2268:138495" result="shape"/>
</filter>
<linearGradient id="paint0_linear_2268:138495" x1="64.1812" y1="50.843" x2="64.1812" y2="98.1049" gradientUnits="userSpaceOnUse">
<stop stop-color="#FAFAFA"/>
<stop offset="0.9964" stop-color="#F4F6FD"/>
</linearGradient>
</defs>
</svg>
