<svg  viewBox="0 0 131 135" fill="none" xmlns="http://www.w3.org/2000/svg">
<path d="M65.1179 114C94.6896 114 118.671 90.1032 118.671 60.5942C118.671 31.0853 94.6896 7.18848 65.1179 7.18848C35.5463 7.18848 11.5645 31.0853 11.5645 60.5942C11.5645 90.1032 35.5463 114 65.1179 114Z" fill="#EAEEF9"/>
<path d="M109 56.3039V89.511C109 96.3848 103.112 102 95.9043 102H35.0957C27.888 102 22.1015 96.4816 22 89.6078C22 89.511 22 89.511 22 89.4142V56.3039C22 56.2071 22 56.2071 22 56.1103C22 55.9167 22 55.723 22.1015 55.5294C22.203 55.239 22.3046 55.0453 22.4061 54.7549L38.7503 24.8395C39.3594 23.6777 40.5776 23 41.8973 23H89.2042C90.5239 23 91.7421 23.6777 92.3512 24.8395L108.695 54.7549C108.797 54.9485 108.898 55.239 109 55.5294C108.898 55.723 109 56.0135 109 56.3039Z" fill="#E2EBFF"/>
<path d="M109 56.3039V89.511C109 96.3848 103.112 102 95.9043 102H35.0957C27.888 102 22.1015 96.4816 22 89.6078C22 89.511 22 89.511 22 89.4142V56.3039C22 56.2071 22 56.2071 22 56.1103C22 55.9167 22 55.723 22.1015 55.5294C22.203 55.239 22.3046 55.0453 22.4061 54.7549L38.7503 24.8395C39.3594 23.6777 40.5776 23 41.8973 23H89.2042C90.5239 23 91.7421 23.6777 92.3512 24.8395L108.695 54.7549C108.797 54.9485 108.898 55.239 109 55.5294C108.898 55.723 109 56.0135 109 56.3039Z" stroke="#6F7590" stroke-miterlimit="10" stroke-linecap="round" stroke-linejoin="round"/>
<g filter="url(#filter0_d_2268:138496)">
<path d="M107.832 53.3052H108.639C108.74 53.6069 108.74 53.9087 108.74 54.2105V92.2322C108.74 97.4628 104.504 101.687 99.2605 101.687H31.7983C26.5546 101.687 22.3193 97.4628 22.3193 92.2322V54.0093C22.3193 53.8081 22.3193 53.6069 22.4202 53.4058H44C47.2269 53.4058 49.9496 56.021 49.9496 59.3404C49.9496 60.9498 50.6555 62.4586 51.6639 63.565C52.7731 64.6715 54.1849 65.275 55.8992 65.275H75.2605C78.4874 65.275 81.2101 62.6597 81.2101 59.3404C81.2101 57.731 81.916 56.2222 82.9244 55.1157C84.0336 54.0093 85.4454 53.4058 87.0588 53.4058H104.807" fill="url(#paint0_linear_2268:138496)"/>
</g>
<path d="M108.639 53.5064C108.74 53.7075 108.74 54.0093 108.74 54.2105V92.2322C108.74 97.4628 104.504 101.687 99.2605 101.687H31.7983C26.5546 101.687 22.3193 97.4628 22.3193 92.2322V54.0093C22.3193 53.8081 22.3193 53.6069 22.4202 53.4058H37.8487" stroke="#6F7590" stroke-miterlimit="10" stroke-linecap="round" stroke-linejoin="round"/>
<path d="M42.8906 53.3052H43.899C47.1259 53.3052 49.8486 55.9204 49.8486 59.2398C49.8486 60.8492 50.5545 62.358 51.5629 63.4644C52.6721 64.5709 54.0839 65.1744 55.7982 65.1744H75.1595C78.3864 65.1744 81.1091 62.5592 81.1091 59.2398C81.1091 57.6304 81.815 56.1216 82.8234 55.0152C83.9326 53.9087 85.3444 53.3052 86.9579 53.3052H103.597" stroke="#6F7590" stroke-miterlimit="10" stroke-linecap="round" stroke-linejoin="round"/>
<path d="M87.7655 10.0571C88.9421 22.9534 89.5304 25.9068 86.8664 37.5861C86.0001 40.1826 85.1338 43.0265 83.2773 45.0048C80.6783 48.096 75.9754 49.4561 72.1387 48.4669C68.1783 47.4777 64.9605 44.0156 64.2179 39.8117C63.5991 37.2151 64.4655 34.124 66.6932 32.5166C69.0447 31.0329 72.3863 31.4038 74.3664 33.2585C76.5942 35.1132 77.4605 37.957 77.3367 40.6772C77.213 43.3974 76.2229 46.1176 74.8615 48.4669C71.784 54.2434 70.517 54.2222 64.218 63.7095" stroke="#5277D7" stroke-width="2" stroke-miterlimit="10" stroke-dasharray="4 4"/>
<path d="M117.304 35.068C119.345 35.068 121 33.4064 121 31.3568C121 29.3071 119.345 27.6455 117.304 27.6455C115.262 27.6455 113.607 29.3071 113.607 31.3568C113.607 33.4064 115.262 35.068 117.304 35.068Z" fill="#F4F6FD"/>
<path d="M113.606 23.0285C115.001 23.0285 116.131 21.8938 116.131 20.494C116.131 19.0942 115.001 17.9595 113.606 17.9595C112.212 17.9595 111.082 19.0942 111.082 20.494C111.082 21.8938 112.212 23.0285 113.606 23.0285Z" fill="#F4F6FD"/>
<path d="M11.3682 31.3566C12.7623 31.3566 13.8926 30.2219 13.8926 28.8221C13.8926 27.4223 12.7623 26.2876 11.3682 26.2876C9.97397 26.2876 8.84375 27.4223 8.84375 28.8221C8.84375 30.2219 9.97397 31.3566 11.3682 31.3566Z" fill="#F4F6FD"/>
<path d="M5.68818 87.1161C8.2774 87.1161 10.3764 85.0087 10.3764 82.4091C10.3764 79.8095 8.2774 77.7021 5.68818 77.7021C3.09897 77.7021 1 79.8095 1 82.4091C1 85.0087 3.09897 87.1161 5.68818 87.1161Z" fill="#F4F6FD"/>
<path d="M94.6666 4.25338C94.1962 5.97666 92.3145 6.60331 90.4328 5.50668C88.3942 4.5667 86.9829 3.78339 87.2966 2.21677C87.767 0.650147 89.6487 0.493484 91.844 0.336822C94.5098 0.0234978 94.9803 2.53009 94.6666 4.25338Z" fill="#C1E0FD"/>
<path d="M79.4551 5.82016C80.2391 7.23012 82.4345 8.17009 84.0026 6.76013C85.7275 5.19351 87.1388 4.09688 86.3547 2.53025C85.5707 1.12029 84.3162 1.59028 81.6504 1.9036C79.4551 2.37359 78.5142 4.25354 79.4551 5.82016Z" fill="#C1E0FD"/>
<path d="M86.3544 0.0239918C87.452 -0.13267 88.5497 0.493979 88.8633 1.43395C89.0201 1.74728 89.177 2.21726 89.177 2.53059C89.4906 4.72386 88.7065 6.60381 87.452 6.76047C86.0408 7.07379 84.6295 5.50717 84.4727 3.47056C84.4727 2.84391 84.4727 2.53059 84.4727 2.0606C84.6295 0.963966 85.2567 0.180654 86.3544 0.0239918C86.5112 0.0239918 86.3544 0.0239918 86.3544 0.0239918Z" fill="#5277D7"/>
<path d="M54.921 77.1223C56.0634 77.1223 56.9895 76.1925 56.9895 75.0455C56.9895 73.8985 56.0634 72.9688 54.921 72.9688C53.7786 72.9688 52.8525 73.8985 52.8525 75.0455C52.8525 76.1925 53.7786 77.1223 54.921 77.1223Z" fill="#6F7590"/>
<path d="M75.4943 77.1223C76.6366 77.1223 77.5627 76.1925 77.5627 75.0455C77.5627 73.8985 76.6366 72.9688 75.4943 72.9688C74.3519 72.9688 73.4258 73.8985 73.4258 75.0455C73.4258 76.1925 74.3519 77.1223 75.4943 77.1223Z" fill="#6F7590"/>
<path d="M68.5632 90.7576H62.0783C61.072 90.7576 60.2334 89.9167 60.2334 88.9076C60.2334 87.8985 61.072 87.0576 62.0783 87.0576H68.5073C69.5136 87.0576 70.3522 87.8985 70.3522 88.9076C70.4081 89.9167 69.5695 90.7576 68.5632 90.7576Z" fill="#6F7590"/>
<defs>
<filter id="filter0_d_2268:138496" x="0.319336" y="42.3052" width="130.42" height="92.3823" filterUnits="userSpaceOnUse" color-interpolation-filters="sRGB">
<feFlood flood-opacity="0" result="BackgroundImageFix"/>
<feColorMatrix in="SourceAlpha" type="matrix" values="0 0 0 0 0 0 0 0 0 0 0 0 0 0 0 0 0 0 127 0" result="hardAlpha"/>
<feOffset dy="11"/>
<feGaussianBlur stdDeviation="11"/>
<feColorMatrix type="matrix" values="0 0 0 0 0.397708 0 0 0 0 0.47749 0 0 0 0 0.575 0 0 0 0.27 0"/>
<feBlend mode="normal" in2="BackgroundImageFix" result="effect1_dropShadow_2268:138496"/>
<feBlend mode="normal" in="SourceGraphic" in2="effect1_dropShadow_2268:138496" result="shape"/>
</filter>
<linearGradient id="paint0_linear_2268:138496" x1="65.5013" y1="52.186" x2="65.5013" y2="102.209" gradientUnits="userSpaceOnUse">
<stop stop-color="#FAFAFA"/>
<stop offset="0.9964" stop-color="#F4F6FD"/>
</linearGradient>
</defs>
</svg>
