<svg width="124" height="120" viewBox="0 0 124 120" fill="none" xmlns="http://www.w3.org/2000/svg">
<path d="M61.629 107.999C84.6875 107.999 103.38 89.2761 103.38 66.1796C103.38 43.0832 84.6875 24.3599 61.629 24.3599C38.5705 24.3599 19.8779 43.0832 19.8779 66.1796C19.8779 89.2761 38.5705 107.999 61.629 107.999Z" fill="#EAEEF9"/>
<path d="M30.8839 39.0854H90.2763C92.6284 39.0854 94.4766 40.9366 94.4766 43.2927V80.9052C94.4766 83.2613 92.6284 85.1125 90.2763 85.1125H30.8839C28.5317 85.1125 26.6836 83.2613 26.6836 80.9052V43.2927C26.6836 40.9366 28.6157 39.0854 30.8839 39.0854Z" fill="#C0D6FF"/>
<path d="M94.3575 47.2938V80.8933C94.3575 83.2394 92.5304 85.0828 90.205 85.0828H31.4045C29.0791 85.0828 27.252 83.2394 27.252 80.8933V43.4395C27.252 41.0934 29.0791 39.25 31.4045 39.25H90.1219C91.949 39.25 93.444 40.4231 94.0253 42.015" stroke="#6F7590" stroke-miterlimit="10" stroke-linecap="round" stroke-linejoin="round"/>
<path d="M118.193 56.8709C119.494 55.6796 119.585 53.6571 118.396 52.3535C117.206 51.0499 115.187 50.9588 113.886 52.1501C112.584 53.3414 112.493 55.3639 113.683 56.6675C114.872 57.9711 116.891 58.0622 118.193 56.8709Z" fill="#EAEEF9"/>
<path d="M37.5026 28.5447C38.6056 28.1856 39.2092 26.9988 38.8507 25.8939C38.4922 24.7891 37.3073 24.1845 36.2043 24.5436C35.1012 24.9027 34.4977 26.0895 34.8562 27.1944C35.2147 28.2992 36.3995 28.9038 37.5026 28.5447Z" fill="#EAEEF9"/>
<path d="M95.6654 63.2193V81.731C95.6654 84.0871 93.7333 86.1067 91.2972 86.1067H30.2247C27.8726 86.1067 25.8564 84.1712 25.8564 81.731V61.6206" stroke="#84A2FF" stroke-width="3" stroke-linecap="round" stroke-linejoin="round"/>
<path d="M99.1092 47.146H74.0754C71.6392 47.146 69.2871 47.9877 67.439 49.5023L60.8864 54.8874C59.0383 56.402 56.6862 57.2433 54.25 57.2433H25.7718C22.9156 57.2433 20.5635 59.5995 20.5635 62.4604C20.5635 62.7129 20.5636 62.9652 20.6476 63.2177L25.8559 90.9853C26.2759 93.5938 28.4601 95.529 31.0642 95.529H91.7167C94.3208 95.529 96.505 93.678 96.925 91.0696L104.234 53.1203C104.738 50.2594 102.806 47.6509 99.9493 47.146C99.6973 47.146 99.3613 47.146 99.1092 47.146Z" fill="white"/>
<path d="M100.035 74.9992L104.235 53.1216C104.739 50.2607 102.807 47.6522 99.9505 47.1473C99.6985 47.0631 99.3624 47.0635 99.1104 47.0635H74.0765C71.6404 47.0635 69.2883 47.9048 67.4401 49.4194L60.8876 54.8045C59.0395 56.3191 56.6874 57.1608 54.2512 57.1608H38.458" stroke="#6F7590" stroke-miterlimit="10" stroke-linecap="round" stroke-linejoin="round"/>
<path d="M29.384 57.2441H25.8558C22.9996 57.2441 20.6475 59.6003 20.6475 62.4613C20.6475 62.7137 20.6473 62.966 20.7313 63.2185L25.9397 90.9861C26.3597 93.5946 28.544 95.5299 31.1482 95.5299H91.8006C94.4048 95.5299 96.5889 93.6788 97.009 91.0704L98.8571 81.5622" stroke="#6F7590" stroke-miterlimit="10" stroke-linecap="round" stroke-linejoin="round"/>
<g filter="url(#filter0_d_2272:142688)">
<path d="M109.854 93.7037C109.518 95.1342 109.014 96.5646 108.426 97.8268C106.829 100.856 104.393 103.296 101.369 104.811C98.2608 106.41 94.5646 106.999 90.7843 106.241C82.0477 104.39 76.4192 95.8915 78.2674 87.1404C80.1155 78.3894 88.6001 72.7517 97.3368 74.6029C100.445 75.2761 103.217 76.7907 105.485 78.9784C109.35 82.8491 110.946 88.4026 109.854 93.7037Z" fill="url(#paint0_linear_2272:142688)"/>
</g>
<path d="M99.1731 88.9825H95.4767V85.2802C95.4767 84.5229 94.8887 83.8496 94.0486 83.8496C93.2926 83.8496 92.6206 84.4388 92.6206 85.2802V88.9825H88.9242C88.1681 88.9825 87.4961 89.5717 87.4961 90.4131C87.4961 91.2546 88.0841 91.8433 88.9242 91.8433H92.6206V95.546C92.6206 96.3033 93.2086 96.9762 94.0486 96.9762C94.8047 96.9762 95.4767 96.3875 95.4767 95.546V91.8433H99.1731C99.9291 91.8433 100.601 91.2546 100.601 90.4131C100.601 89.5717 99.9291 88.9825 99.1731 88.9825Z" fill="white"/>
<path d="M14.1795 75.6848C14.1204 74.5736 13.1707 73.7195 12.0582 73.7771C10.9457 73.8348 10.0917 74.7824 10.1508 75.8937C10.2099 77.0049 11.1597 77.859 12.2722 77.8014C13.3846 77.7437 14.2386 76.7961 14.1795 75.6848Z" fill="#E2EBFF"/>
<path d="M8.95776 69.731C8.91758 68.9753 8.27175 68.3945 7.51526 68.4337C6.75876 68.473 6.17808 69.1173 6.21826 69.873C6.25844 70.6286 6.90427 71.2094 7.66077 71.1702C8.41726 71.131 8.99795 70.4866 8.95776 69.731Z" fill="#F34D77"/>
<path d="M50.6393 75.9232C52.124 75.9232 53.3275 74.7176 53.3275 73.2305C53.3275 71.7434 52.124 70.5381 50.6393 70.5381C49.1547 70.5381 47.9512 71.7434 47.9512 73.2305C47.9512 74.7176 49.1547 75.9232 50.6393 75.9232Z" fill="#6F7590"/>
<path d="M71.8083 75.8398C73.2929 75.8398 74.4964 74.6345 74.4964 73.1474C74.4964 71.6603 73.2929 70.4546 71.8083 70.4546C70.3236 70.4546 69.1201 71.6603 69.1201 73.1474C69.1201 74.6345 70.3236 75.8398 71.8083 75.8398Z" fill="#6F7590"/>
<path d="M65.9358 79.5513C65.9358 80.4205 64.1676 81.1317 61.9962 81.1317C59.8092 81.1317 58.041 80.4205 58.041 79.5513H65.9358Z" fill="#6F7590"/>
<path d="M55.9937 10.5616V48.6779C55.9937 49.479 55.3295 50.1465 54.5325 50.1465H2.46118C1.66417 50.1465 1 49.479 1 48.6779V10.5616C1 9.76052 1.66417 9.09298 2.46118 9.09298H54.5325C55.3295 9.02623 55.9937 9.69377 55.9937 10.5616Z" fill="white"/>
<path d="M5.1843 11.8965V50.1463H2.46118C1.66417 50.1463 1 49.4788 1 48.6778V11.8965H5.1843Z" fill="#F4F6FD"/>
<path d="M55.9937 10.5616V12.4307H1V10.5616C1 9.76052 1.66417 9.09298 2.46118 9.09298H54.5325C55.3295 9.02623 55.9937 9.69377 55.9937 10.5616Z" fill="url(#paint1_linear_2272:142688)"/>
<path d="M42.8469 8.90234H54.802C55.599 8.90234 56.2632 9.56988 56.2632 10.3709V48.4873C56.2632 49.2883 55.599 49.9559 54.802 49.9559H2.73072C1.93371 49.9559 1.26953 49.2883 1.26953 48.4873V10.3709C1.26953 9.56988 1.93371 8.90234 2.73072 8.90234H37.2678" stroke="#6F7590" stroke-miterlimit="10" stroke-linecap="round" stroke-linejoin="round"/>
<path d="M2.66023 11.2955C2.917 11.2955 3.12516 11.0865 3.12516 10.8287C3.12516 10.5708 2.917 10.3618 2.66023 10.3618C2.40347 10.3618 2.19531 10.5708 2.19531 10.8287C2.19531 11.0865 2.40347 11.2955 2.66023 11.2955Z" fill="white"/>
<path d="M3.98934 11.295C4.24611 11.295 4.45426 11.086 4.45426 10.8282C4.45426 10.5703 4.24611 10.3613 3.98934 10.3613C3.73257 10.3613 3.52441 10.5703 3.52441 10.8282C3.52441 11.086 3.73257 11.295 3.98934 11.295Z" fill="white"/>
<path d="M5.31844 11.295C5.57521 11.295 5.78336 11.086 5.78336 10.8282C5.78336 10.5703 5.57521 10.3613 5.31844 10.3613C5.06167 10.3613 4.85352 10.5703 4.85352 10.8282C4.85352 11.086 5.06167 11.295 5.31844 11.295Z" fill="white"/>
<path d="M3.12515 15.7669H2.72664C2.46097 15.7669 2.26172 15.5668 2.26172 15.3C2.26172 15.0333 2.52739 14.8999 2.72664 14.8999H3.12515C3.39082 14.8999 3.59007 15.1 3.59007 15.3667C3.59007 15.6335 3.39082 15.7669 3.12515 15.7669Z" fill="#C0D6FF"/>
<path d="M3.12515 17.9034H2.72664C2.46097 17.9034 2.26172 17.7033 2.26172 17.4366C2.26172 17.1698 2.46097 16.9697 2.72664 16.9697H3.12515C3.39082 16.9697 3.59007 17.1698 3.59007 17.4366C3.59007 17.7033 3.39082 17.9034 3.12515 17.9034Z" fill="#C0D6FF"/>
<path d="M3.12515 20.0391H2.72664C2.46097 20.0391 2.26172 19.8391 2.26172 19.5723C2.26172 19.3055 2.46097 19.1055 2.72664 19.1055H3.12515C3.39082 19.1055 3.59007 19.3055 3.59007 19.5723C3.59007 19.8391 3.39082 20.0391 3.12515 20.0391Z" fill="#C0D6FF"/>
<path d="M3.12515 22.1759H2.72664C2.46097 22.1759 2.26172 21.9758 2.26172 21.709C2.26172 21.4423 2.46097 21.2422 2.72664 21.2422H3.12515C3.39082 21.2422 3.59007 21.4423 3.59007 21.709C3.59007 21.9758 3.39082 22.1759 3.12515 22.1759Z" fill="#C0D6FF"/>
<path d="M3.12515 24.3121H2.72664C2.46097 24.3121 2.26172 24.112 2.26172 23.8453C2.26172 23.5785 2.46097 23.3784 2.72664 23.3784H3.12515C3.39082 23.3784 3.59007 23.5785 3.59007 23.8453C3.59007 24.112 3.39082 24.3121 3.12515 24.3121Z" fill="#C0D6FF"/>
<path d="M3.12515 26.4475H2.72664C2.46097 26.4475 2.26172 26.2475 2.26172 25.9807C2.26172 25.7139 2.52739 25.5806 2.72664 25.5806H3.12515C3.39082 25.5806 3.59007 25.7806 3.59007 26.0474C3.59007 26.3142 3.39082 26.4475 3.12515 26.4475Z" fill="#C0D6FF"/>
<path d="M3.12515 28.5836H2.72664C2.46097 28.5836 2.26172 28.3835 2.26172 28.1167C2.26172 27.85 2.46097 27.6499 2.72664 27.6499H3.12515C3.39082 27.6499 3.59007 27.85 3.59007 28.1167C3.59007 28.3835 3.39082 28.5836 3.12515 28.5836Z" fill="#C0D6FF"/>
<path d="M3.12515 30.7198H2.72664C2.46097 30.7198 2.26172 30.5197 2.26172 30.253C2.26172 29.9862 2.46097 29.7861 2.72664 29.7861H3.12515C3.39082 29.7861 3.59007 29.9862 3.59007 30.253C3.59007 30.5197 3.39082 30.7198 3.12515 30.7198Z" fill="#C0D6FF"/>
<path d="M3.12515 32.856H2.72664C2.46097 32.856 2.26172 32.656 2.26172 32.3892C2.26172 32.1224 2.46097 31.9224 2.72664 31.9224H3.12515C3.39082 31.9224 3.59007 32.1224 3.59007 32.3892C3.59007 32.656 3.39082 32.856 3.12515 32.856Z" fill="#C0D6FF"/>
<path d="M3.12515 34.9254H2.72664C2.46097 34.9254 2.26172 34.7253 2.26172 34.4585C2.26172 34.1918 2.46097 33.9917 2.72664 33.9917H3.12515C3.39082 33.9917 3.59007 34.1918 3.59007 34.4585C3.59007 34.7253 3.39082 34.9254 3.12515 34.9254Z" fill="#C0D6FF"/>
<path d="M3.12515 37.0616H2.72664C2.46097 37.0616 2.26172 36.8615 2.26172 36.5948C2.26172 36.328 2.46097 36.1279 2.72664 36.1279H3.12515C3.39082 36.1279 3.59007 36.328 3.59007 36.5948C3.59007 36.8615 3.39082 37.0616 3.12515 37.0616Z" fill="#C0D6FF"/>
<path d="M3.12515 39.1978H2.72664C2.46097 39.1978 2.26172 38.9978 2.26172 38.731C2.26172 38.4642 2.46097 38.2642 2.72664 38.2642H3.12515C3.39082 38.2642 3.59007 38.4642 3.59007 38.731C3.59007 38.9978 3.39082 39.1978 3.12515 39.1978Z" fill="#C0D6FF"/>
<path d="M3.12515 41.3336H2.72664C2.46097 41.3336 2.26172 41.1335 2.26172 40.8667C2.26172 40.6 2.46097 40.3999 2.72664 40.3999H3.12515C3.39082 40.3999 3.59007 40.6 3.59007 40.8667C3.59007 41.1335 3.39082 41.3336 3.12515 41.3336Z" fill="#C0D6FF"/>
<path d="M3.12515 43.4703H2.72664C2.46097 43.4703 2.26172 43.2702 2.26172 43.0035C2.26172 42.7367 2.46097 42.5366 2.72664 42.5366H3.12515C3.39082 42.5366 3.59007 42.7367 3.59007 43.0035C3.59007 43.2702 3.39082 43.4703 3.12515 43.4703Z" fill="#C0D6FF"/>
<path d="M3.12515 45.6065H2.72664C2.46097 45.6065 2.26172 45.4065 2.26172 45.1397C2.26172 44.8729 2.46097 44.6729 2.72664 44.6729H3.12515C3.39082 44.6729 3.59007 44.8729 3.59007 45.1397C3.59007 45.4065 3.39082 45.6065 3.12515 45.6065Z" fill="#C0D6FF"/>
<path d="M3.12515 47.7428H2.72664C2.46097 47.7428 2.26172 47.5427 2.26172 47.2759C2.26172 47.0092 2.46097 46.8091 2.72664 46.8091H3.12515C3.39082 46.8091 3.59007 47.0092 3.59007 47.2759C3.59007 47.5427 3.39082 47.7428 3.12515 47.7428Z" fill="#C0D6FF"/>
<path d="M17.2049 18.4596H6.97664C6.71097 18.4596 6.51172 18.2595 6.51172 17.9927C6.51172 17.7259 6.71097 17.5259 6.97664 17.5259H17.2049C17.4706 17.5259 17.6699 17.7259 17.6699 17.9927C17.6699 18.2595 17.4042 18.4596 17.2049 18.4596Z" fill="#C0D6FF"/>
<path d="M15.0796 20.5958H6.97664C6.71097 20.5958 6.51172 20.3957 6.51172 20.1289C6.51172 19.8622 6.71097 19.6621 6.97664 19.6621H15.0796C15.3452 19.6621 15.5445 19.8622 15.5445 20.1289C15.4781 20.3957 15.2788 20.5958 15.0796 20.5958Z" fill="#C0D6FF"/>
<path d="M36.7984 20.5958H16.6739C16.4082 20.5958 16.209 20.3957 16.209 20.1289C16.209 19.8622 16.4082 19.6621 16.6739 19.6621H36.7984C37.0641 19.6621 37.2633 19.8622 37.2633 20.1289C37.2633 20.3957 37.0641 20.5958 36.7984 20.5958Z" fill="#C0D6FF"/>
<path d="M45.4991 20.5958H39.6544C39.3887 20.5958 39.1895 20.3957 39.1895 20.1289C39.1895 19.8622 39.3887 19.6621 39.6544 19.6621H45.4991C45.7648 19.6621 45.964 19.8622 45.964 20.1289C45.964 20.3957 45.7648 20.5958 45.4991 20.5958Z" fill="#EAEEF9"/>
<g filter="url(#filter1_d_2272:142688)">
<path d="M50.3461 20.5958H48.3536C48.0879 20.5958 47.8887 20.3957 47.8887 20.1289C47.8887 19.8622 48.0879 19.6621 48.3536 19.6621H50.3461C50.6118 19.6621 50.811 19.8622 50.811 20.1289C50.811 20.3957 50.6118 20.5958 50.3461 20.5958Z" fill="url(#paint2_linear_2272:142688)"/>
</g>
<path d="M20.2596 22.732H10.0313C9.76566 22.732 9.56641 22.5319 9.56641 22.2652C9.56641 21.9984 9.76566 21.7983 10.0313 21.7983H20.2596C20.5253 21.7983 20.7245 21.9984 20.7245 22.2652C20.6581 22.5319 20.4589 22.732 20.2596 22.732Z" fill="#EA67A4"/>
<path d="M20.2596 31.2096H10.0313C9.76566 31.2096 9.56641 31.0095 9.56641 30.7427C9.56641 30.476 9.76566 30.2759 10.0313 30.2759H20.2596C20.5253 30.2759 20.7245 30.476 20.7245 30.7427C20.6581 31.0095 20.4589 31.2096 20.2596 31.2096Z" fill="#EA67A4"/>
<path d="M17.5365 33.3458H10.0313C9.76566 33.3458 9.56641 33.1457 9.56641 32.8789C9.56641 32.6122 9.76566 32.4121 10.0313 32.4121H17.5365C17.8022 32.4121 18.0014 32.6122 18.0014 32.8789C18.0014 33.1457 17.8022 33.3458 17.5365 33.3458Z" fill="#C0D6FF"/>
<path d="M37.3957 33.3458H19.5958C19.3301 33.3458 19.1309 33.1457 19.1309 32.8789C19.1309 32.6122 19.3301 32.4121 19.5958 32.4121H37.3957C37.6613 32.4121 37.8606 32.6122 37.8606 32.8789C37.8606 33.1457 37.5949 33.3458 37.3957 33.3458Z" fill="#C0D6FF"/>
<path d="M23.115 24.8682H13.5509C13.2852 24.8682 13.0859 24.6682 13.0859 24.4014C13.0859 24.1346 13.2852 23.9346 13.5509 23.9346H23.115C23.3806 23.9346 23.5799 24.1346 23.5799 24.4014C23.5799 24.6682 23.3806 24.8682 23.115 24.8682Z" fill="#C0D6FF"/>
<g filter="url(#filter2_d_2272:142688)">
<path d="M28.4949 24.8682H24.5763C24.3106 24.8682 24.1113 24.6682 24.1113 24.4014C24.1113 24.1346 24.3106 23.9346 24.5763 23.9346H28.4949C28.7605 23.9346 28.9598 24.1346 28.9598 24.4014C28.9598 24.6682 28.7605 24.8682 28.4949 24.8682Z" fill="url(#paint3_linear_2272:142688)"/>
</g>
<path d="M39.9186 26.9376H13.5509C13.2852 26.9376 13.0859 26.7375 13.0859 26.4707C13.0859 26.204 13.2852 26.0039 13.5509 26.0039H39.9186C40.1843 26.0039 40.3835 26.204 40.3835 26.4707C40.3835 26.7375 40.1843 26.9376 39.9186 26.9376Z" fill="#C0D6FF"/>
<g filter="url(#filter3_d_2272:142688)">
<path d="M44.6353 26.9376H42.1778C41.9121 26.9376 41.7129 26.7375 41.7129 26.4707C41.7129 26.204 41.9121 26.0039 42.1778 26.0039H44.6353C44.9009 26.0039 45.1002 26.204 45.1002 26.4707C45.0338 26.7375 44.9009 26.9376 44.6353 26.9376Z" fill="url(#paint4_linear_2272:142688)"/>
</g>
<path d="M31.6828 29.0738H13.5509C13.2852 29.0738 13.0859 28.8737 13.0859 28.607C13.0859 28.3402 13.2852 28.1401 13.5509 28.1401H31.6828C31.9485 28.1401 32.1477 28.3402 32.1477 28.607C32.1477 28.8737 31.9485 29.0738 31.6828 29.0738Z" fill="#C0D6FF"/>
<path d="M23.7791 35.4151H13.5509C13.2852 35.4151 13.0859 35.215 13.0859 34.9483C13.0859 34.6815 13.2852 34.4814 13.5509 34.4814H23.7791C24.0448 34.4814 24.2441 34.6815 24.2441 34.9483C24.2441 35.215 24.0448 35.4151 23.7791 35.4151Z" fill="#C0D6FF"/>
<path d="M120.731 2.65922V40.7756C120.731 41.5766 120.067 42.2442 119.27 42.2442H67.1985C66.4015 42.2442 65.7373 41.5766 65.7373 40.7756V2.65922C65.7373 1.85818 66.4015 1.19064 67.1985 1.19064H119.27C120.067 1.12388 120.731 1.79142 120.731 2.65922Z" fill="white"/>
<path d="M69.9216 3.99414V42.244H67.1985C66.4015 42.244 65.7373 41.5765 65.7373 40.7754V3.99414H69.9216Z" fill="#F4F6FD"/>
<path d="M120.731 2.65922V4.52832H65.7373V2.65922C65.7373 1.85818 66.4015 1.19064 67.1985 1.19064H119.27C120.067 1.12388 120.731 1.79142 120.731 2.65922Z" fill="url(#paint5_linear_2272:142688)"/>
<path d="M107.584 1H119.539C120.336 1 121 1.66754 121 2.46858V40.5849C121 41.386 120.336 42.0535 119.539 42.0535H67.468C66.671 42.0535 66.0068 41.386 66.0068 40.5849V2.46858C66.0068 1.66754 66.671 1 67.468 1H102.005" stroke="#6F7590" stroke-miterlimit="10" stroke-linecap="round" stroke-linejoin="round"/>
<path d="M67.3975 3.39315C67.6543 3.39315 67.8625 3.18413 67.8625 2.92631C67.8625 2.66848 67.6543 2.45947 67.3975 2.45947C67.1408 2.45947 66.9326 2.66848 66.9326 2.92631C66.9326 3.18413 67.1408 3.39315 67.3975 3.39315Z" fill="white"/>
<path d="M68.7276 3.39266C68.9844 3.39266 69.1925 3.18365 69.1925 2.92582C69.1925 2.66799 68.9844 2.45898 68.7276 2.45898C68.4708 2.45898 68.2627 2.66799 68.2627 2.92582C68.2627 3.18365 68.4708 3.39266 68.7276 3.39266Z" fill="white"/>
<path d="M70.0567 3.39266C70.3135 3.39266 70.5216 3.18365 70.5216 2.92582C70.5216 2.66799 70.3135 2.45898 70.0567 2.45898C69.7999 2.45898 69.5918 2.66799 69.5918 2.92582C69.5918 3.18365 69.7999 3.39266 70.0567 3.39266Z" fill="white"/>
<path d="M67.8625 7.86454H67.4639C67.1983 7.86454 66.999 7.66447 66.999 7.3977C66.999 7.13094 67.2647 6.99756 67.4639 6.99756H67.8625C68.1281 6.99756 68.3274 7.19763 68.3274 7.4644C68.3274 7.73116 68.1281 7.86454 67.8625 7.86454Z" fill="#C0D6FF"/>
<path d="M67.8625 10.0011H67.4639C67.1983 10.0011 66.999 9.80098 66.999 9.53422C66.999 9.26746 67.1983 9.06738 67.4639 9.06738H67.8625C68.1281 9.06738 68.3274 9.26746 68.3274 9.53422C68.3274 9.80098 68.1281 10.0011 67.8625 10.0011Z" fill="#C0D6FF"/>
<path d="M67.8625 12.1368H67.4639C67.1983 12.1368 66.999 11.9367 66.999 11.67C66.999 11.4032 67.1983 11.2031 67.4639 11.2031H67.8625C68.1281 11.2031 68.3274 11.4032 68.3274 11.67C68.3274 11.9367 68.1281 12.1368 67.8625 12.1368Z" fill="#C0D6FF"/>
<path d="M67.8625 14.273H67.4639C67.1983 14.273 66.999 14.073 66.999 13.8062C66.999 13.5394 67.1983 13.3394 67.4639 13.3394H67.8625C68.1281 13.3394 68.3274 13.5394 68.3274 13.8062C68.3274 14.073 68.1281 14.273 67.8625 14.273Z" fill="#C0D6FF"/>
<path d="M67.8625 16.4093H67.4639C67.1983 16.4093 66.999 16.2092 66.999 15.9424C66.999 15.6757 67.1983 15.4756 67.4639 15.4756H67.8625C68.1281 15.4756 68.3274 15.6757 68.3274 15.9424C68.3274 16.2092 68.1281 16.4093 67.8625 16.4093Z" fill="#C0D6FF"/>
<path d="M67.8625 18.5452H67.4639C67.1983 18.5452 66.999 18.3451 66.999 18.0784C66.999 17.8116 67.2647 17.6782 67.4639 17.6782H67.8625C68.1281 17.6782 68.3274 17.8783 68.3274 18.1451C68.3274 18.4118 68.1281 18.5452 67.8625 18.5452Z" fill="#C0D6FF"/>
<path d="M67.8625 20.6812H67.4639C67.1983 20.6812 66.999 20.4812 66.999 20.2144C66.999 19.9476 67.1983 19.7476 67.4639 19.7476H67.8625C68.1281 19.7476 68.3274 19.9476 68.3274 20.2144C68.3274 20.4812 68.1281 20.6812 67.8625 20.6812Z" fill="#C0D6FF"/>
<path d="M67.8625 22.818H67.4639C67.1983 22.818 66.999 22.6179 66.999 22.3511C66.999 22.0844 67.1983 21.8843 67.4639 21.8843H67.8625C68.1281 21.8843 68.3274 22.0844 68.3274 22.3511C68.3274 22.6179 68.1281 22.818 67.8625 22.818Z" fill="#C0D6FF"/>
<path d="M67.8625 24.9537H67.4639C67.1983 24.9537 66.999 24.7536 66.999 24.4869C66.999 24.2201 67.1983 24.02 67.4639 24.02H67.8625C68.1281 24.02 68.3274 24.2201 68.3274 24.4869C68.3274 24.7536 68.1281 24.9537 67.8625 24.9537Z" fill="#C0D6FF"/>
<path d="M67.8625 27.023H67.4639C67.1983 27.023 66.999 26.823 66.999 26.5562C66.999 26.2894 67.1983 26.0894 67.4639 26.0894H67.8625C68.1281 26.0894 68.3274 26.2894 68.3274 26.5562C68.3274 26.823 68.1281 27.023 67.8625 27.023Z" fill="#C0D6FF"/>
<path d="M67.8625 29.1593H67.4639C67.1983 29.1593 66.999 28.9592 66.999 28.6924C66.999 28.4257 67.1983 28.2256 67.4639 28.2256H67.8625C68.1281 28.2256 68.3274 28.4257 68.3274 28.6924C68.3274 28.9592 68.1281 29.1593 67.8625 29.1593Z" fill="#C0D6FF"/>
<path d="M67.8625 31.2955H67.4639C67.1983 31.2955 66.999 31.0954 66.999 30.8287C66.999 30.5619 67.1983 30.3618 67.4639 30.3618H67.8625C68.1281 30.3618 68.3274 30.5619 68.3274 30.8287C68.3274 31.0954 68.1281 31.2955 67.8625 31.2955Z" fill="#C0D6FF"/>
<path d="M67.8625 33.4312H67.4639C67.1983 33.4312 66.999 33.2312 66.999 32.9644C66.999 32.6976 67.1983 32.4976 67.4639 32.4976H67.8625C68.1281 32.4976 68.3274 32.6976 68.3274 32.9644C68.3274 33.2312 68.1281 33.4312 67.8625 33.4312Z" fill="#C0D6FF"/>
<path d="M67.8625 35.5675H67.4639C67.1983 35.5675 66.999 35.3674 66.999 35.1006C66.999 34.8339 67.1983 34.6338 67.4639 34.6338H67.8625C68.1281 34.6338 68.3274 34.8339 68.3274 35.1006C68.3274 35.3674 68.1281 35.5675 67.8625 35.5675Z" fill="#C0D6FF"/>
<path d="M67.8625 37.7037H67.4639C67.1983 37.7037 66.999 37.5036 66.999 37.2369C66.999 36.9701 67.1983 36.77 67.4639 36.77H67.8625C68.1281 36.77 68.3274 36.9701 68.3274 37.2369C68.3274 37.5036 68.1281 37.7037 67.8625 37.7037Z" fill="#C0D6FF"/>
<path d="M67.8625 39.8399H67.4639C67.1983 39.8399 66.999 39.6398 66.999 39.3731C66.999 39.1063 67.1983 38.9062 67.4639 38.9062H67.8625C68.1281 38.9062 68.3274 39.1063 68.3274 39.3731C68.3274 39.6398 68.1281 39.8399 67.8625 39.8399Z" fill="#C0D6FF"/>
<path d="M81.9442 10.5572H71.7159C71.4502 10.5572 71.251 10.3571 71.251 10.0904C71.251 9.82361 71.4502 9.62354 71.7159 9.62354H81.9442C82.2099 9.62354 82.4091 9.82361 82.4091 10.0904C82.4091 10.3571 82.1434 10.5572 81.9442 10.5572Z" fill="#C0D6FF"/>
<path d="M79.8188 12.6934H71.7159C71.4502 12.6934 71.251 12.4934 71.251 12.2266C71.251 11.9598 71.4502 11.7598 71.7159 11.7598H79.8188C80.0845 11.7598 80.2837 11.9598 80.2837 12.2266C80.2173 12.4934 80.0181 12.6934 79.8188 12.6934Z" fill="#C0D6FF"/>
<path d="M101.538 12.6934H81.4132C81.1475 12.6934 80.9482 12.4934 80.9482 12.2266C80.9482 11.9598 81.1475 11.7598 81.4132 11.7598H101.538C101.803 11.7598 102.003 11.9598 102.003 12.2266C102.003 12.4934 101.803 12.6934 101.538 12.6934Z" fill="#C0D6FF"/>
<path d="M110.238 12.6934H104.394C104.128 12.6934 103.929 12.4934 103.929 12.2266C103.929 11.9598 104.128 11.7598 104.394 11.7598H110.238C110.504 11.7598 110.703 11.9598 110.703 12.2266C110.703 12.4934 110.504 12.6934 110.238 12.6934Z" fill="#EAEEF9"/>
<g filter="url(#filter4_d_2272:142688)">
<path d="M115.085 12.6934H113.093C112.827 12.6934 112.628 12.4934 112.628 12.2266C112.628 11.9598 112.827 11.7598 113.093 11.7598H115.085C115.351 11.7598 115.55 11.9598 115.55 12.2266C115.55 12.4934 115.351 12.6934 115.085 12.6934Z" fill="url(#paint6_linear_2272:142688)"/>
</g>
<path d="M84.9989 14.8292H74.7706C74.5049 14.8292 74.3057 14.6291 74.3057 14.3623C74.3057 14.0956 74.5049 13.8955 74.7706 13.8955H84.9989C85.2645 13.8955 85.4638 14.0956 85.4638 14.3623C85.3974 14.6291 85.1981 14.8292 84.9989 14.8292Z" fill="#EA67A4"/>
<path d="M84.9989 23.3072H74.7706C74.5049 23.3072 74.3057 23.1071 74.3057 22.8404C74.3057 22.5736 74.5049 22.3735 74.7706 22.3735H84.9989C85.2645 22.3735 85.4638 22.5736 85.4638 22.8404C85.3974 23.1071 85.1981 23.3072 84.9989 23.3072Z" fill="#EA67A4"/>
<path d="M82.2758 25.4434H74.7706C74.5049 25.4434 74.3057 25.2434 74.3057 24.9766C74.3057 24.7098 74.5049 24.5098 74.7706 24.5098H82.2758C82.5414 24.5098 82.7407 24.7098 82.7407 24.9766C82.7407 25.2434 82.5414 25.4434 82.2758 25.4434Z" fill="#C0D6FF"/>
<path d="M102.135 25.4434H84.335C84.0694 25.4434 83.8701 25.2434 83.8701 24.9766C83.8701 24.7098 84.0694 24.5098 84.335 24.5098H102.135C102.401 24.5098 102.6 24.7098 102.6 24.9766C102.6 25.2434 102.334 25.4434 102.135 25.4434Z" fill="#C0D6FF"/>
<path d="M87.8542 16.9654H78.2901C78.0244 16.9654 77.8252 16.7653 77.8252 16.4986C77.8252 16.2318 78.0244 16.0317 78.2901 16.0317H87.8542C88.1199 16.0317 88.3192 16.2318 88.3192 16.4986C88.3192 16.7653 88.1199 16.9654 87.8542 16.9654Z" fill="#C0D6FF"/>
<g filter="url(#filter5_d_2272:142688)">
<path d="M93.2341 16.9654H89.3155C89.0498 16.9654 88.8506 16.7653 88.8506 16.4986C88.8506 16.2318 89.0498 16.0317 89.3155 16.0317H93.2341C93.4998 16.0317 93.6991 16.2318 93.6991 16.4986C93.6991 16.7653 93.4998 16.9654 93.2341 16.9654Z" fill="url(#paint7_linear_2272:142688)"/>
</g>
<path d="M104.658 19.0347H78.2901C78.0244 19.0347 77.8252 18.8347 77.8252 18.5679C77.8252 18.3011 78.0244 18.1011 78.2901 18.1011H104.658C104.924 18.1011 105.123 18.3011 105.123 18.5679C105.123 18.8347 104.924 19.0347 104.658 19.0347Z" fill="#C0D6FF"/>
<g filter="url(#filter6_d_2272:142688)">
<path d="M109.375 19.0347H106.917C106.651 19.0347 106.452 18.8347 106.452 18.5679C106.452 18.3011 106.651 18.1011 106.917 18.1011H109.375C109.64 18.1011 109.839 18.3011 109.839 18.5679C109.773 18.8347 109.64 19.0347 109.375 19.0347Z" fill="url(#paint8_linear_2272:142688)"/>
</g>
<path d="M96.4221 21.1715H78.2901C78.0244 21.1715 77.8252 20.9714 77.8252 20.7046C77.8252 20.4379 78.0244 20.2378 78.2901 20.2378H96.4221C96.6877 20.2378 96.887 20.4379 96.887 20.7046C96.887 20.9714 96.6877 21.1715 96.4221 21.1715Z" fill="#C0D6FF"/>
<path d="M88.5184 27.5128H78.2901C78.0244 27.5128 77.8252 27.3127 77.8252 27.0459C77.8252 26.7792 78.0244 26.5791 78.2901 26.5791H88.5184C88.7841 26.5791 88.9833 26.7792 88.9833 27.0459C88.9833 27.3127 88.7841 27.5128 88.5184 27.5128Z" fill="#C0D6FF"/>
<defs>
<filter id="filter0_d_2272:142688" x="69.916" y="71.251" width="48.2744" height="48.3179" filterUnits="userSpaceOnUse" color-interpolation-filters="sRGB">
<feFlood flood-opacity="0" result="BackgroundImageFix"/>
<feColorMatrix in="SourceAlpha" type="matrix" values="0 0 0 0 0 0 0 0 0 0 0 0 0 0 0 0 0 0 127 0" result="hardAlpha"/>
<feOffset dy="5"/>
<feGaussianBlur stdDeviation="4"/>
<feColorMatrix type="matrix" values="0 0 0 0 0.1125 0 0 0 0 0.295916 0 0 0 0 1 0 0 0 0.22 0"/>
<feBlend mode="normal" in2="BackgroundImageFix" result="effect1_dropShadow_2272:142688"/>
<feBlend mode="normal" in="SourceGraphic" in2="effect1_dropShadow_2272:142688" result="shape"/>
</filter>
<filter id="filter1_d_2272:142688" x="39.8887" y="16.6621" width="18.9229" height="16.9336" filterUnits="userSpaceOnUse" color-interpolation-filters="sRGB">
<feFlood flood-opacity="0" result="BackgroundImageFix"/>
<feColorMatrix in="SourceAlpha" type="matrix" values="0 0 0 0 0 0 0 0 0 0 0 0 0 0 0 0 0 0 127 0" result="hardAlpha"/>
<feOffset dy="5"/>
<feGaussianBlur stdDeviation="4"/>
<feColorMatrix type="matrix" values="0 0 0 0 0.1125 0 0 0 0 0.295916 0 0 0 0 1 0 0 0 0.22 0"/>
<feBlend mode="normal" in2="BackgroundImageFix" result="effect1_dropShadow_2272:142688"/>
<feBlend mode="normal" in="SourceGraphic" in2="effect1_dropShadow_2272:142688" result="shape"/>
</filter>
<filter id="filter2_d_2272:142688" x="16.1113" y="20.9346" width="20.8486" height="16.9336" filterUnits="userSpaceOnUse" color-interpolation-filters="sRGB">
<feFlood flood-opacity="0" result="BackgroundImageFix"/>
<feColorMatrix in="SourceAlpha" type="matrix" values="0 0 0 0 0 0 0 0 0 0 0 0 0 0 0 0 0 0 127 0" result="hardAlpha"/>
<feOffset dy="5"/>
<feGaussianBlur stdDeviation="4"/>
<feColorMatrix type="matrix" values="0 0 0 0 0.1125 0 0 0 0 0.295916 0 0 0 0 1 0 0 0 0.22 0"/>
<feBlend mode="normal" in2="BackgroundImageFix" result="effect1_dropShadow_2272:142688"/>
<feBlend mode="normal" in="SourceGraphic" in2="effect1_dropShadow_2272:142688" result="shape"/>
</filter>
<filter id="filter3_d_2272:142688" x="33.7129" y="23.0039" width="19.3877" height="16.9336" filterUnits="userSpaceOnUse" color-interpolation-filters="sRGB">
<feFlood flood-opacity="0" result="BackgroundImageFix"/>
<feColorMatrix in="SourceAlpha" type="matrix" values="0 0 0 0 0 0 0 0 0 0 0 0 0 0 0 0 0 0 127 0" result="hardAlpha"/>
<feOffset dy="5"/>
<feGaussianBlur stdDeviation="4"/>
<feColorMatrix type="matrix" values="0 0 0 0 0.1125 0 0 0 0 0.295916 0 0 0 0 1 0 0 0 0.22 0"/>
<feBlend mode="normal" in2="BackgroundImageFix" result="effect1_dropShadow_2272:142688"/>
<feBlend mode="normal" in="SourceGraphic" in2="effect1_dropShadow_2272:142688" result="shape"/>
</filter>
<filter id="filter4_d_2272:142688" x="104.628" y="8.75977" width="18.9229" height="16.9336" filterUnits="userSpaceOnUse" color-interpolation-filters="sRGB">
<feFlood flood-opacity="0" result="BackgroundImageFix"/>
<feColorMatrix in="SourceAlpha" type="matrix" values="0 0 0 0 0 0 0 0 0 0 0 0 0 0 0 0 0 0 127 0" result="hardAlpha"/>
<feOffset dy="5"/>
<feGaussianBlur stdDeviation="4"/>
<feColorMatrix type="matrix" values="0 0 0 0 0.1125 0 0 0 0 0.295916 0 0 0 0 1 0 0 0 0.22 0"/>
<feBlend mode="normal" in2="BackgroundImageFix" result="effect1_dropShadow_2272:142688"/>
<feBlend mode="normal" in="SourceGraphic" in2="effect1_dropShadow_2272:142688" result="shape"/>
</filter>
<filter id="filter5_d_2272:142688" x="80.8506" y="13.0317" width="20.8486" height="16.9336" filterUnits="userSpaceOnUse" color-interpolation-filters="sRGB">
<feFlood flood-opacity="0" result="BackgroundImageFix"/>
<feColorMatrix in="SourceAlpha" type="matrix" values="0 0 0 0 0 0 0 0 0 0 0 0 0 0 0 0 0 0 127 0" result="hardAlpha"/>
<feOffset dy="5"/>
<feGaussianBlur stdDeviation="4"/>
<feColorMatrix type="matrix" values="0 0 0 0 0.1125 0 0 0 0 0.295916 0 0 0 0 1 0 0 0 0.22 0"/>
<feBlend mode="normal" in2="BackgroundImageFix" result="effect1_dropShadow_2272:142688"/>
<feBlend mode="normal" in="SourceGraphic" in2="effect1_dropShadow_2272:142688" result="shape"/>
</filter>
<filter id="filter6_d_2272:142688" x="98.4521" y="15.1011" width="19.3877" height="16.9336" filterUnits="userSpaceOnUse" color-interpolation-filters="sRGB">
<feFlood flood-opacity="0" result="BackgroundImageFix"/>
<feColorMatrix in="SourceAlpha" type="matrix" values="0 0 0 0 0 0 0 0 0 0 0 0 0 0 0 0 0 0 127 0" result="hardAlpha"/>
<feOffset dy="5"/>
<feGaussianBlur stdDeviation="4"/>
<feColorMatrix type="matrix" values="0 0 0 0 0.1125 0 0 0 0 0.295916 0 0 0 0 1 0 0 0 0.22 0"/>
<feBlend mode="normal" in2="BackgroundImageFix" result="effect1_dropShadow_2272:142688"/>
<feBlend mode="normal" in="SourceGraphic" in2="effect1_dropShadow_2272:142688" result="shape"/>
</filter>
<linearGradient id="paint0_linear_2272:142688" x1="77.9252" y1="90.4253" x2="110.206" y2="90.4253" gradientUnits="userSpaceOnUse">
<stop stop-color="#83A6FF"/>
<stop offset="1" stop-color="#5277D7"/>
</linearGradient>
<linearGradient id="paint1_linear_2272:142688" x1="0.995091" y1="10.7774" x2="55.9785" y2="10.7774" gradientUnits="userSpaceOnUse">
<stop stop-color="#6F88FF"/>
<stop offset="1" stop-color="#6E88FF" stop-opacity="0"/>
</linearGradient>
<linearGradient id="paint2_linear_2272:142688" x1="47.8895" y1="20.1294" x2="50.8125" y2="20.1294" gradientUnits="userSpaceOnUse">
<stop stop-color="#83A6FF"/>
<stop offset="1" stop-color="#5277D7"/>
</linearGradient>
<linearGradient id="paint3_linear_2272:142688" x1="24.1127" y1="24.4019" x2="28.9622" y2="24.4019" gradientUnits="userSpaceOnUse">
<stop stop-color="#83A6FF"/>
<stop offset="1" stop-color="#5277D7"/>
</linearGradient>
<linearGradient id="paint4_linear_2272:142688" x1="41.7139" y1="26.4712" x2="45.1018" y2="26.4712" gradientUnits="userSpaceOnUse">
<stop stop-color="#83A6FF"/>
<stop offset="1" stop-color="#5277D7"/>
</linearGradient>
<linearGradient id="paint5_linear_2272:142688" x1="65.7324" y1="2.87503" x2="120.716" y2="2.87503" gradientUnits="userSpaceOnUse">
<stop stop-color="#BDCDF4"/>
<stop offset="1" stop-color="#6E88FF" stop-opacity="0"/>
</linearGradient>
<linearGradient id="paint6_linear_2272:142688" x1="112.629" y1="12.227" x2="115.552" y2="12.227" gradientUnits="userSpaceOnUse">
<stop stop-color="#83A6FF"/>
<stop offset="1" stop-color="#5277D7"/>
</linearGradient>
<linearGradient id="paint7_linear_2272:142688" x1="88.852" y1="16.499" x2="93.7014" y2="16.499" gradientUnits="userSpaceOnUse">
<stop stop-color="#83A6FF"/>
<stop offset="1" stop-color="#5277D7"/>
</linearGradient>
<linearGradient id="paint8_linear_2272:142688" x1="106.453" y1="18.5684" x2="109.841" y2="18.5684" gradientUnits="userSpaceOnUse">
<stop stop-color="#83A6FF"/>
<stop offset="1" stop-color="#5277D7"/>
</linearGradient>
</defs>
</svg>
