<svg width="120" height="122" fill="none" xmlns="http://www.w3.org/2000/svg"><path d="M5.633 17.975a2.855 2.855 0 0 0 1.822-3.594 2.835 2.835 0 0 0-3.577-1.831 2.855 2.855 0 0 0-1.822 3.594 2.836 2.836 0 0 0 3.577 1.83Zm6.196-9.305a1.941 1.941 0 0 0 1.239-2.444 1.928 1.928 0 0 0-2.433-1.245 1.941 1.941 0 0 0-1.239 2.444A1.928 1.928 0 0 0 11.83 8.67Zm93.049 9.79a4.35 4.35 0 0 0 .275-6.126 4.3 4.3 0 0 0-6.096-.275 4.35 4.35 0 0 0-.274 6.125 4.3 4.3 0 0 0 6.095.275Zm13.781-7.905c.741-.68.792-1.834.116-2.579a1.811 1.811 0 0 0-2.567-.116 1.832 1.832 0 0 0-.115 2.58 1.81 1.81 0 0 0 2.566.115ZM10.62 111.898c.74-.68.792-1.835.115-2.579a1.81 1.81 0 0 0-2.566-.116 1.832 1.832 0 0 0-.116 2.579 1.81 1.81 0 0 0 2.567.116Z" fill="#E2EBFF"/><path d="M56.428 117.93c31.164 0 56.427-25.386 56.427-56.702 0-31.315-25.263-56.702-56.427-56.702C25.264 4.526 0 29.913 0 61.228c0 31.316 25.264 56.702 56.428 56.702Z" fill="#EAEEF9"/><path d="m21.685 54.04-7.38-31.488a4.352 4.352 0 0 1 3.18-5.248L66.192 5.667l27.59 18.825 17.257 69.251a4.353 4.353 0 0 1-3.179 5.249l-67.214 15.972c-2.384.57-4.655-.913-5.223-3.195L21.118 51.645" fill="#C7D9FF"/><path d="m106.724 51.872-26 66.4c-.908 2.281-3.406 3.308-5.676 2.396l-63.922-26.24c-2.27-.914-3.292-3.424-2.384-5.705L43.144 3.84c.908-2.282 3.406-3.309 5.677-2.396l46.436 19.053 11.467 31.374Z" fill="#C7D9FF"/><path d="M100.025 105.494c0 2.396-1.93 4.336-4.314 4.336h-69.03c-2.385 0-4.315-1.94-4.315-4.336V13.767c0-2.396 1.93-4.335 4.315-4.335h50.07l22.48 24.757.454 41.528.34 29.777Z" fill="#fff"/><path d="m21.685 54.04-7.38-31.488a4.352 4.352 0 0 1 3.18-5.248L66.192 5.667l27.59 18.825 17.257 69.251a4.353 4.353 0 0 1-3.179 5.249l-67.214 15.972c-2.384.57-4.655-.913-5.223-3.195L21.118 51.645" fill="#D5DDEA"/><path d="m106.724 51.872-26 66.4c-.908 2.281-3.406 3.308-5.676 2.396l-63.922-26.24c-2.27-.914-3.292-3.424-2.384-5.705L43.144 3.84c.908-2.282 3.406-3.309 5.677-2.396l46.436 19.053 11.467 31.374Z" fill="#D5DDEA"/><path d="M92.645 26.773 87.763 38.64c-1.022 2.51.341 5.59 2.839 6.617l16.122 6.617" stroke="#6F7590" stroke-miterlimit="10" stroke-linecap="round" stroke-linejoin="round"/><path d="M100.025 105.494c0 2.396-1.93 4.336-4.314 4.336h-69.03c-2.385 0-4.315-1.94-4.315-4.336V13.767c0-2.396 1.93-4.335 4.315-4.335h50.07l22.48 24.757.454 41.528.34 29.777Z" fill="#fff"/><path d="M76.751 9.432v19.623c0 2.738 2.384 5.02 5.11 5.02h17.37" fill="#D5DDEA"/><path d="M76.751 19.586v9.47c0 2.737 2.384 5.02 5.11 5.02h17.37" stroke="#6F7590" stroke-miterlimit="10" stroke-linecap="round" stroke-linejoin="round"/><path d="M88.87 81H28.13c-.565 0-1.13-.375-1.13-1 0-.5.424-1 1.13-1h60.74c.565 0 1.13.375 1.13 1 0 .5-.565 1-1.13 1ZM75.121 56H27.88c-.44 0-.879-.375-.879-1 0-.5.33-1 .879-1h47.242c.44 0 .88.375.88 1 0 .5-.44 1-.88 1ZM88.87 87H28.13c-.565 0-1.13-.375-1.13-1 0-.5.424-1 1.13-1h60.74c.565 0 1.13.375 1.13 1s-.565 1-1.13 1ZM68.247 62H27.753c-.376 0-.753-.375-.753-1 0-.5.283-1 .753-1h40.494c.376 0 .753.375.753 1s-.377 1-.753 1Zm-15.713 6H27.466c-.233 0-.466-.375-.466-1 0-.5.175-1 .466-1h25.068c.233 0 .466.375.466 1s-.233 1-.466 1Zm21.499-40.7h-15.57a.847.847 0 0 1-.86-.86c0-.43.322-.859.86-.859h15.57c.43 0 .859.322.859.86-.108.429-.43.858-.86.858Zm-25.127 4.621c-.108-5.91-4.94-10.744-10.953-10.744h-.107C31.832 21.177 27 26.119 27 32.136c0 6.017 4.94 10.96 10.953 10.96 3.329 0 6.228-1.505 8.268-3.761 1.719-1.934 2.685-4.405 2.685-7.199v-.215Zm-10.953 7.521c-4.08 0-7.41-3.33-7.41-7.413s3.33-7.414 7.41-7.414h.107a7.383 7.383 0 0 1 7.41 7.199v.215c0 1.826-.645 3.545-1.826 4.835-1.503 1.611-3.436 2.578-5.691 2.578Z" fill="#C0D6FF"/><path d="M48.906 31.921h-3.543a7.383 7.383 0 0 0-7.41-7.199h-.107v-3.545h.108c6.013 0 10.845 4.727 10.952 10.744Z" fill="url(#noSelectedAsset__a)"/><path d="M48.907 32.028c0 2.794-.967 5.265-2.685 7.2l-2.684-2.257c1.18-1.29 1.825-3.009 1.825-4.835v-.215h3.544v.107Z" fill="url(#noSelectedAsset__b)"/><path d="M54.705 27.623a1.182 1.182 0 1 0-.001-2.364 1.182 1.182 0 0 0 0 2.364Z" fill="url(#noSelectedAsset__c)"/><path d="M74.033 32.242h-15.57a.847.847 0 0 1-.86-.858c0-.43.322-.86.86-.86h15.57c.43 0 .859.323.859.86-.108.429-.43.858-.86.858Z" fill="#C0D6FF"/><path d="M54.705 32.566a1.182 1.182 0 1 0-.001-2.363 1.182 1.182 0 0 0 0 2.363Z" fill="url(#noSelectedAsset__d)"/><path d="M74.033 37.185h-15.57a.847.847 0 0 1-.86-.86c0-.429.322-.858.86-.858h15.57c.43 0 .859.322.859.859-.108.43-.43.859-.86.859Z" fill="#C0D6FF"/><path d="M54.705 37.507a1.182 1.182 0 1 0-.001-2.363 1.182 1.182 0 0 0 0 2.363Z" fill="url(#noSelectedAsset__e)"/><path d="m22.026 55.752-.908-4.108" stroke="#182052" stroke-miterlimit="10" stroke-linecap="round" stroke-linejoin="round"/><path d="m53.59 111.998-13.057 3.08a4.265 4.265 0 0 1-4.769-2.167m63.581-65.83 8.155 32.51M61.764 6.694l4.428-1.027 5.45 3.65M21.685 54.04l-7.38-31.488a4.352 4.352 0 0 1 3.18-5.248m-3.179 78.493-3.18-1.369c-2.27-.913-3.292-3.423-2.384-5.704l13.625-33.657m61.65 54.763-3.293 8.443c-.908 2.281-3.406 3.308-5.677 2.395L48.593 109.83M81.86 14.908l13.284 5.476 11.58 31.489-3.746 9.583" stroke="#6F7590" stroke-miterlimit="10" stroke-linecap="round" stroke-linejoin="round"/><path d="m40.873 9.318 2.271-5.59c.908-2.282 3.406-3.31 5.677-2.396L67.668 9.09m-26.795.228H76.75l22.48 24.758.455 41.528.34 29.891c0 2.396-1.93 4.335-4.314 4.335H26.68c-2.385 0-4.315-1.939-4.315-4.335V13.768c0-2.396 1.93-4.336 4.315-4.336h3.179" stroke="#6F7590" stroke-miterlimit="10" stroke-linecap="round" stroke-linejoin="round"/><path d="M113.991 96.14c0 2.738-.454 5.248-1.476 7.643-2.271 5.933-7.153 10.497-13.17 12.55-2.044.685-4.201 1.027-6.472 1.027-11.694 0-21.118-9.469-21.118-21.22 0-11.752 9.424-21.221 21.118-21.221 11.694 0 21.118 9.583 21.118 21.22Z" fill="url(#noSelectedAsset__f)"/><path d="M77.66 109.945c-3.747-3.879-5.79-9.127-5.79-14.946 0-8.442 4.881-15.63 11.92-19.053m9.424-2.168c11.467.114 20.777 9.584 20.777 21.22 0 2.739-.454 5.249-1.476 7.645-2.27 5.932-7.153 10.496-13.17 12.549-2.044.685-4.2 1.027-6.471 1.027-3.18 0-6.245-.684-8.97-2.053m5.563-40.046h.227" stroke="#6F7590" stroke-miterlimit="10" stroke-linecap="round" stroke-linejoin="round"/><path d="M93 105c1.722 0 2.105-1.241 1.977-2.697v-8.739C94.913 92.701 94.02 92 92.999 92c-1.02 0-1.913.701-1.977 1.564v8.739c-.128 1.51.255 2.697 1.977 2.697Zm0-15c1.11 0 2-.889 2-2s-.89-2-2-2c-1.112 0-2 .889-2 2s.888 2 2 2Z" fill="#fff"/><defs><linearGradient id="noSelectedAsset__a" x1="37.849" y1="26.554" x2="48.912" y2="26.554" gradientUnits="userSpaceOnUse"><stop stop-color="#83A6FF"/><stop offset="1" stop-color="#5277D7"/></linearGradient><linearGradient id="noSelectedAsset__b" x1="43.539" y1="35.578" x2="48.909" y2="35.578" gradientUnits="userSpaceOnUse"><stop stop-color="#83A6FF"/><stop offset="1" stop-color="#5277D7"/></linearGradient><linearGradient id="noSelectedAsset__c" x1="53.524" y1="26.442" x2="55.887" y2="26.442" gradientUnits="userSpaceOnUse"><stop stop-color="#83A6FF"/><stop offset="1" stop-color="#5277D7"/></linearGradient><linearGradient id="noSelectedAsset__d" x1="53.524" y1="31.385" x2="55.887" y2="31.385" gradientUnits="userSpaceOnUse"><stop stop-color="#83A6FF"/><stop offset="1" stop-color="#5277D7"/></linearGradient><linearGradient id="noSelectedAsset__e" x1="53.524" y1="36.327" x2="55.887" y2="36.327" gradientUnits="userSpaceOnUse"><stop stop-color="#83A6FF"/><stop offset="1" stop-color="#5277D7"/></linearGradient><linearGradient id="noSelectedAsset__f" x1="74.227" y1="86.033" x2="111.71" y2="107.044" gradientUnits="userSpaceOnUse"><stop stop-color="#83A6FF"/><stop offset=".995" stop-color="#5277D7"/></linearGradient></defs></svg>