<svg viewBox="0 0 16 16" fill="none" xmlns="http://www.w3.org/2000/svg">
<path d="M8.00033 14.6666C7.61514 14.6666 7.26811 14.5033 7.02471 14.2421C6.64817 13.838 7.11471 13.3333 7.66699 13.3333H8.33366C8.88594 13.3333 9.35248 13.838 8.97594 14.2421C8.73254 14.5033 8.38551 14.6666 8.00033 14.6666ZM13.3337 11.8425C13.3337 12.2976 12.9647 12.6666 12.5096 12.6666H3.49104C3.03593 12.6666 2.66699 12.2976 2.66699 11.8425C2.66699 11.5304 2.84334 11.2451 3.12251 11.1055L3.44754 10.943C3.78632 10.7736 4.00033 10.4273 4.00033 10.0486V6.99992C4.00033 4.98006 4.72589 3.58159 6.05949 2.98998C6.40323 2.83748 6.66699 2.52114 6.66699 2.14509C6.66699 1.69673 7.03047 1.33325 7.47883 1.33325H8.52195C8.97024 1.33325 9.33366 1.69666 9.33366 2.14496C9.33366 2.52105 9.59753 2.8374 9.94136 2.98982C11.2748 3.58093 12.0003 4.97899 12.0003 6.99992V10.0486C12.0003 10.4273 12.2143 10.7736 12.5531 10.943L12.8781 11.1055C13.1573 11.2451 13.3337 11.5304 13.3337 11.8425ZM8.00033 3.83325C7.18677 3.78072 6.40218 4.14477 5.91699 4.79992C5.50202 5.45629 5.29842 6.22417 5.33366 6.99992V10.3333C5.33366 10.8855 5.78137 11.3333 6.33366 11.3333H9.66699C10.2193 11.3333 10.667 10.8855 10.667 10.3333V6.99992C10.7022 6.22418 10.4986 5.45631 10.0837 4.79992C9.59847 4.14477 8.81388 3.78072 8.00033 3.83325Z" fill="#D9950D"/>
</svg>
