<svg viewBox="0 0 24 24" fill="none" xmlns="http://www.w3.org/2000/svg">
<rect width="24" height="24" fill="white"/>
<path d="M12 21.9995C11.2429 21.9995 10.5841 21.5788 10.2445 20.9585C9.97928 20.474 10.4477 19.9995 11 19.9995H13C13.5523 19.9995 14.0207 20.474 13.7555 20.9585C13.4159 21.5788 12.7571 21.9995 12 21.9995ZM20 17.9995C20 18.5518 19.5523 18.9995 19 18.9995H5C4.44772 18.9995 4 18.5518 4 17.9995V17.6175C4 17.2388 4.214 16.8925 4.55279 16.7231L5.44721 16.2759C5.786 16.1065 6 15.7603 6 15.3815V10.4995C6 7.39077 7.1458 5.26333 9.24698 4.41769C9.67669 4.24475 10 3.85255 10 3.38934V2.99699C10 2.4461 10.4466 1.99951 10.9975 1.99951C11.8208 1.99951 12.3424 2.99594 12.1448 3.79523C12.048 4.1868 11.9988 4.59112 12 4.99951C12 5.23222 12.016 5.46463 12.048 5.69509C12.052 5.72429 12.0295 5.75051 12 5.75051C10.7799 5.67148 9.60301 6.21717 8.875 7.19951C8.25255 8.18407 7.94714 9.33589 8 10.4995V15.9995C8 16.5518 8.44772 16.9995 9 16.9995H15C15.5523 16.9995 16 16.5518 16 15.9995V10.4995C16 10.1986 16.2731 9.96031 16.5729 9.98574C16.845 10.0088 17.1185 10.0098 17.3907 9.98857C17.7063 9.964 18 10.19 18 10.5065V15.3815C18 15.7602 18.214 16.1065 18.5528 16.2759L19.4472 16.7231C19.786 16.8925 20 17.2388 20 17.6175V17.9995ZM17 7.99951C16.3958 8.00024 15.8055 7.8179 15.307 7.47651C14.1288 6.67109 13.6811 5.14712 14.2365 3.83242C14.7919 2.51771 16.1966 1.77629 17.5954 2.05955C18.9942 2.3428 19.9998 3.57231 20 4.99951C20 6.65637 18.6569 7.99951 17 7.99951Z" fill="#6F7590"/>
<circle cx="17" cy="4.99951" r="3" fill="#5277D7"/>
</svg>
