<svg viewBox="0 0 24 24" fill="none" xmlns="http://www.w3.org/2000/svg">
<path d="M12 22C11.2429 22 10.5841 21.5793 10.2445 20.959C9.97928 20.4745 10.4477 20 11 20H13C13.5523 20 14.0207 20.4745 13.7555 20.959C13.4159 21.5793 12.7571 22 12 22ZM20 18C20 18.5523 19.5523 19 19 19H5C4.44772 19 4 18.5523 4 18V17.618C4 17.2393 4.214 16.893 4.55279 16.7236L5.44721 16.2764C5.786 16.107 6 15.7607 6 15.382V10.5C6 7.39125 7.1458 5.26382 9.24698 4.41818C9.67669 4.24524 10 3.85303 10 3.38983V3C10 2.44772 10.4477 2 11 2H13C13.5523 2 14 2.44772 14 3V3.38953C14 3.85287 14.3235 4.24515 14.7534 4.41803C16.8543 5.26289 18 7.38964 18 10.5V15.382C18 15.7607 18.214 16.107 18.5528 16.2764L19.4472 16.7236C19.786 16.893 20 17.2393 20 17.618V18ZM12 5.75C10.7797 5.6712 9.60278 6.21728 8.875 7.2C8.25255 8.18456 7.94714 9.33638 8 10.5V16C8 16.5523 8.44772 17 9 17H15C15.5523 17 16 16.5523 16 16V10.5C16.0528 9.33639 15.7474 8.18458 15.125 7.2C14.3972 6.21728 13.2203 5.6712 12 5.75Z" fill="#6F7590"/>
</svg>
