<svg  viewBox="0 0 16 16" fill="none" xmlns="http://www.w3.org/2000/svg">
<path d="M13.5 9.5V7.40312C13.5 6.49484 13.1909 5.6136 12.6235 4.90434L12.0553 4.19411C11.6862 3.73279 11.2672 3.31377 10.8059 2.94472L10.0957 2.37652C9.3864 1.80912 8.50516 1.5 7.59688 1.5H4.5C3.39543 1.5 2.5 2.39543 2.5 3.5V12.5C2.5 13.6046 3.39543 14.5 4.5 14.5H8" stroke="#64748B" stroke-linecap="round"/>
<path d="M8.5 2V3.5C8.5 4.29565 8.81607 5.05871 9.37868 5.62132C9.94129 6.18393 10.7044 6.5 11.5 6.5H13" stroke="#64748B" stroke-linecap="round" stroke-linejoin="round"/>
<line x1="5.5" y1="9.5" x2="8.5" y2="9.5" stroke="#64748B" stroke-linecap="round"/>
<line x1="5.5" y1="11.5" x2="6.5" y2="11.5" stroke="#64748B" stroke-linecap="round"/>
<path fill-rule="evenodd" clip-rule="evenodd" d="M11.5314 14.842C11.3426 15.0434 11.0262 15.0536 10.8247 14.8648L8.15803 12.3648C8.0572 12.2702 8 12.1382 8 12C8 11.8618 8.0572 11.7298 8.15803 11.6352L10.8247 9.13523C11.0262 8.94636 11.3426 8.95657 11.5314 9.15803C11.7203 9.35948 11.7101 9.6759 11.5086 9.86477L9.76439 11.5H14.5C14.7761 11.5 15 11.7239 15 12C15 12.2761 14.7761 12.5 14.5 12.5H9.76439L11.5086 14.1352C11.7101 14.3241 11.7203 14.6405 11.5314 14.842Z" fill="#64748B"/>
</svg>
