<svg  viewBox="0 0 16 16" fill="none" xmlns="http://www.w3.org/2000/svg">
<path d="M14.5 9V6.5C14.5 5.39543 13.6046 4.5 12.5 4.5H3.5C2.39543 4.5 1.5 5.39543 1.5 6.5V11.5C1.5 12.6046 2.39543 13.5 3.5 13.5H8" stroke="#64748B" stroke-linecap="round"/>
<path d="M5.5 4C5.5 3.33696 5.76339 2.70107 6.23223 2.23223C6.70107 1.76339 7.33696 1.5 8 1.5C8.66304 1.5 9.29893 1.76339 9.76777 2.23223C10.2366 2.70107 10.5 3.33696 10.5 4" stroke="#64748B" stroke-linecap="round" stroke-linejoin="round"/>
<path fill-rule="evenodd" clip-rule="evenodd" d="M12.5314 14.842C12.3426 15.0434 12.0262 15.0536 11.8247 14.8648L9.15803 12.3648C9.0572 12.2702 9 12.1382 9 12C9 11.8618 9.0572 11.7298 9.15803 11.6352L11.8247 9.13523C12.0262 8.94636 12.3426 8.95657 12.5314 9.15803C12.7203 9.35948 12.7101 9.6759 12.5086 9.86477L10.7644 11.5H15.5C15.7761 11.5 16 11.7239 16 12C16 12.2761 15.7761 12.5 15.5 12.5H10.7644L12.5086 14.1352C12.7101 14.3241 12.7203 14.6405 12.5314 14.842Z" fill="#64748B"/>
</svg>
