<svg viewBox="0 0 16 16" fill="none" xmlns="http://www.w3.org/2000/svg">
<g clip-path="url(#clip0)">
<path fill-rule="evenodd" clip-rule="evenodd" d="M10 3H8C7.05443 3 6.39534 3.00054 5.87945 3.03574C5.37254 3.07033 5.07733 3.135 4.85195 3.22836C4.11687 3.53284 3.53284 4.11687 3.22836 4.85195C3.135 5.07733 3.07033 5.37254 3.03574 5.87945C3.00054 6.39534 3 7.05443 3 8V10C3 11.6569 4.34315 13 6 13C6.5354 13 7.05677 12.9399 7.55771 12.8261V10.423C7.55771 9.44794 8.18879 8.62024 9.06479 8.32608C9.15985 8.69113 9.3595 9.03431 9.66375 9.30751L11.8253 11.2485C11.8653 11.2844 11.9066 11.3178 11.9492 11.3487C10.4848 12.9764 8.36192 14 6 14C3.79086 14 2 12.2091 2 10V8C2 6.13623 2 5.20435 2.30448 4.46927C2.71046 3.48915 3.48915 2.71046 4.46927 2.30448C5.20435 2 6.13623 2 8 2H10C11.5535 2 12.9002 2.88566 13.5627 4.17961C13.1769 3.97331 12.7218 3.94473 12.3167 4.09386C11.7665 3.42589 10.933 3 10 3Z" fill="#3E4359"/>
<path d="M4.49997 5.5C4.49997 5.22386 4.68652 5 4.91664 5H9.0833C9.31342 5 9.49997 5.22386 9.49997 5.5C9.49997 5.77614 9.31342 6 9.0833 6H4.91664C4.68652 6 4.49997 5.77614 4.49997 5.5Z" fill="#3E4359"/>
<path d="M4.50003 7.5C4.50003 7.22386 4.72389 7 5.00003 7H8.00003C8.27617 7 8.50003 7.22386 8.50003 7.5C8.50003 7.77614 8.27617 8 8.00003 8H5.00003C4.72389 8 4.50003 7.77614 4.50003 7.5Z" fill="#3E4359"/>
<path d="M4.49997 9.5C4.49997 9.22386 4.72383 9 4.99997 9H5.99997C6.27611 9 6.49997 9.22386 6.49997 9.5C6.49997 9.77614 6.27611 10 5.99997 10H4.99997C4.72383 10 4.49997 9.77614 4.49997 9.5Z" fill="#3E4359"/>
<path d="M11.1326 7L12.6922 5.59565C12.924 5.38693 12.9237 5.02335 12.6916 4.81495C12.4921 4.6358 12.1897 4.6358 11.9902 4.81495L9.8286 6.75595C9.3861 7.1533 9.3861 7.8467 9.8286 8.24405L11.9902 10.1851C12.1897 10.3642 12.4921 10.3642 12.6916 10.1851C12.9237 9.97665 12.924 9.61306 12.6922 9.40435L11.1326 8L15.5 8C15.7761 8 16 7.77614 16 7.5C16 7.22386 15.7761 7 15.5 7L11.1326 7Z" fill="#3E4359"/>
</g>
<defs>
<clipPath id="clip0">
<rect width="16" height="16" fill="white"/>
</clipPath>
</defs>
</svg>
