<svg width="16" height="16" viewBox="0 0 16 16" fill="none" xmlns="http://www.w3.org/2000/svg">
<path d="M9 8C9 10.1401 7.2651 11.875 5.125 11.875C2.9849 11.875 1.25 10.1401 1.25 8C1.25 5.8599 2.9849 4.125 5.125 4.125C7.2651 4.125 9 5.8599 9 8Z" fill="#BDCDF4" stroke="#5277D7" stroke-linecap="round" stroke-linejoin="round"/>
<path d="M14.75 8C14.75 10.1401 13.0151 11.875 10.875 11.875C8.7349 11.875 7 10.1401 7 8C7 5.8599 8.7349 4.125 10.875 4.125C13.0151 4.125 14.75 5.8599 14.75 8Z" fill="#BDCDF4" stroke="#5277D7" stroke-linecap="round" stroke-linejoin="round"/>
<mask id="path-3-inside-1_4735_235020" fill="white">
<path fill-rule="evenodd" clip-rule="evenodd" d="M8 4.70215C7.0808 5.50417 6.5 6.68424 6.5 7.99996C6.5 9.31568 7.0808 10.4957 8 11.2978C8.9192 10.4957 9.5 9.31568 9.5 7.99996C9.5 6.68424 8.9192 5.50417 8 4.70215Z"/>
</mask>
<path fill-rule="evenodd" clip-rule="evenodd" d="M8 4.70215C7.0808 5.50417 6.5 6.68424 6.5 7.99996C6.5 9.31568 7.0808 10.4957 8 11.2978C8.9192 10.4957 9.5 9.31568 9.5 7.99996C9.5 6.68424 8.9192 5.50417 8 4.70215Z" fill="#BDCDF4"/>
<path d="M8 4.70215L8.65744 3.94865C8.28076 3.61998 7.71924 3.61998 7.34256 3.94865L8 4.70215ZM8 11.2978L7.34256 12.0513C7.71924 12.3799 8.28076 12.3799 8.65744 12.0513L8 11.2978ZM7.34256 3.94865C6.21496 4.9325 5.5 6.38332 5.5 7.99996H7.5C7.5 6.98515 7.94664 6.07584 8.65744 5.45565L7.34256 3.94865ZM5.5 7.99996C5.5 9.61659 6.21496 11.0674 7.34256 12.0513L8.65744 10.5443C7.94664 9.92408 7.5 9.01476 7.5 7.99996H5.5ZM8.65744 12.0513C9.78504 11.0674 10.5 9.61659 10.5 7.99996H8.5C8.5 9.01476 8.05336 9.92408 7.34256 10.5443L8.65744 12.0513ZM10.5 7.99996C10.5 6.38332 9.78504 4.9325 8.65744 3.94865L7.34256 5.45565C8.05336 6.07584 8.5 6.98515 8.5 7.99996H10.5Z" fill="#5277D7" mask="url(#path-3-inside-1_4735_235020)"/>
</svg>
