<svg viewBox="0 0 16 16" fill="none" xmlns="http://www.w3.org/2000/svg">
<path d="M14 11.0812V4.91874C13.9995 4.82972 13.9756 4.74241 13.9306 4.6656C13.8856 4.58878 13.8212 4.52519 13.7437 4.48124L8.24375 1.38749C8.16964 1.3447 8.08557 1.32217 8 1.32217C7.91443 1.32217 7.83036 1.3447 7.75625 1.38749L2.25625 4.48124C2.17884 4.52519 2.1144 4.58878 2.06941 4.6656C2.02442 4.74241 2.00048 4.82972 2 4.91874V11.0812C2.00048 11.1703 2.02442 11.2576 2.06941 11.3344C2.1144 11.4112 2.17884 11.4748 2.25625 11.5187L7.75625 14.6125C7.83036 14.6553 7.91443 14.6778 8 14.6778C8.08557 14.6778 8.16964 14.6553 8.24375 14.6125L13.7437 11.5187C13.8212 11.4748 13.8856 11.4112 13.9306 11.3344C13.9756 11.2576 13.9995 11.1703 14 11.0812V11.0812Z" stroke="#6A7692" stroke-linecap="round" stroke-linejoin="round"/>
<path d="M11.0625 9.53125V6.28125L5 2.9375" stroke="#6A7692" stroke-linecap="round" stroke-linejoin="round"/>
<path d="M13.9313 4.66251L8.05635 8.00001L2.06885 4.66251" stroke="#6A7692" stroke-linecap="round" stroke-linejoin="round"/>
<path d="M8.05625 8L8 14.675" stroke="#6A7692" stroke-linecap="round" stroke-linejoin="round"/>
</svg>
