<svg width="16" height="16" viewBox="0 0 16 16" fill="none" xmlns="http://www.w3.org/2000/svg">
<path d="M14 7.96479L8.32667 13.6381C7.63165 14.3331 6.68899 14.7236 5.70608 14.7236C4.72317 14.7236 3.78051 14.3331 3.08549 13.6381C2.39046 12.9431 2 12.0004 2 11.0175C2 10.0346 2.39046 9.09195 3.08549 8.39692L8.75881 2.7236C9.22216 2.26025 9.8506 1.99994 10.5059 1.99994C11.1611 1.99994 11.7896 2.26025 12.2529 2.7236C12.7163 3.18695 12.9766 3.81538 12.9766 4.47066C12.9766 5.12593 12.7163 5.75437 12.2529 6.21772L6.57344 11.891C6.34176 12.1227 6.02754 12.2529 5.69991 12.2529C5.37227 12.2529 5.05805 12.1227 4.82638 11.891C4.5947 11.6594 4.46455 11.3452 4.46455 11.0175C4.46455 10.6899 4.5947 10.3757 4.82638 10.144L10.0676 4.90897" stroke="#6A7692" stroke-linecap="round" stroke-linejoin="round"/>
</svg>
