<svg width="10" height="12" viewBox="0 0 10 12" fill="none" xmlns="http://www.w3.org/2000/svg">
<path fill-rule="evenodd" clip-rule="evenodd" d="M0.258454 9.23184C-0.0861513 9.58382 -0.0861513 10.1568 0.258454 10.509C0.602815 10.8614 1.16291 10.8614 1.50493 10.509L1.75383 10.2568L2.79176 11.3181C2.96924 11.5 3.25371 11.5 3.43144 11.3181L4.97823 9.73611C5.15598 9.55463 5.15598 9.26358 4.97823 9.0818L3.94052 8.0205L5.78916 6.12733C6.18474 6.33638 6.63563 6.4544 7.11131 6.4544C8.70676 6.4544 10 5.13189 10 3.49993C10 1.86817 8.70676 0.54541 7.11131 0.54541C5.51575 0.54541 4.22264 1.86817 4.22264 3.49993C4.22264 3.98644 4.3381 4.44764 4.54247 4.85223L0.258454 9.23184ZM6.00025 3.49993C6.00025 2.87268 6.49806 2.36353 7.11128 2.36353C7.72458 2.36353 8.22229 2.87268 8.22229 3.49993C8.22229 4.12718 7.72458 4.63625 7.11128 4.63625C6.49809 4.63625 6.00025 4.12715 6.00025 3.49993Z" fill="#3CA5BC"/>
</svg>
