<svg width="16" height="16" viewBox="0 0 16 16" fill="none" xmlns="http://www.w3.org/2000/svg">
<path d="M5.90922 13.5H2.98703C2.85786 13.5 2.73398 13.4487 2.64265 13.3574C2.55131 13.266 2.5 13.1421 2.5 13.013V10.2925C2.5 10.2286 2.5126 10.1652 2.53707 10.1061C2.56155 10.047 2.59742 9.99335 2.64265 9.94813L9.94813 2.64265C10.0395 2.55131 10.1633 2.5 10.2925 2.5C10.4217 2.5 10.5456 2.55131 10.6369 2.64265L13.3574 5.3631C13.4487 5.45444 13.5 5.57832 13.5 5.70749C13.5 5.83666 13.4487 5.96054 13.3574 6.05187L5.90922 13.5Z" stroke="currentColor" stroke-linecap="round" stroke-linejoin="round"/>
<path d="M8.6 4.25L11.8 7.3" stroke="currentColor" stroke-linecap="round" stroke-linejoin="round"/>
</svg>
