<svg width="16" height="16" viewBox="0 0 16 16" fill="none" xmlns="http://www.w3.org/2000/svg">
<g clip-path="url(#clip0)">
<path fill-rule="evenodd" clip-rule="evenodd" d="M13.4784 7.20978L11.216 7.20979L9.34305 9.08272C9.88074 10.4548 9.68577 12.0477 8.75814 13.2597C8.56586 13.5109 8.19936 13.5091 7.97566 13.2854L2.71013 8.01987C2.48644 7.79617 2.48459 7.42967 2.73581 7.23739C3.94781 6.30976 5.54069 6.11479 6.9128 6.65247L8.78573 4.77955L8.78573 2.51707C8.78573 2.00675 9.40273 1.75118 9.76358 2.11203L13.8835 6.23193C14.2443 6.59278 13.9888 7.20978 13.4784 7.20978ZM4.93785 10.2476L2.50138 12.6841C2.42967 12.7558 2.37828 12.8452 2.35247 12.9433L2.22751 13.4181C2.17169 13.6303 2.36526 13.8238 2.57738 13.768L3.0522 13.6431C3.15028 13.6172 3.23975 13.5659 3.31146 13.4941L5.74793 11.0577L4.93785 10.2476Z" fill="#FBC26E"/>
</g>
<defs>
<clipPath id="clip0">
<rect width="16" height="16" fill="white"/>
</clipPath>
</defs>
</svg>
