<svg width="16" height="16" viewBox="0 0 16 16" fill="none" xmlns="http://www.w3.org/2000/svg">
<path fill-rule="evenodd" clip-rule="evenodd" d="M4.6958 2.53027C3.86737 2.53027 3.1958 3.20184 3.1958 4.03027V11.9704C3.1958 12.7988 3.86737 13.4704 4.6958 13.4704H7.03558C7.31173 13.4704 7.53558 13.6943 7.53558 13.9704C7.53558 14.2466 7.31173 14.4704 7.03558 14.4704H4.6958C3.31509 14.4704 2.1958 13.3511 2.1958 11.9704V4.03027C2.1958 2.64956 3.31509 1.53027 4.6958 1.53027H7.61419C8.59952 1.53027 9.55762 1.85368 10.3414 2.45083L10.9722 2.93142C11.4709 3.3114 11.926 3.74538 12.3293 4.22546L12.7498 4.72611C13.4308 5.53683 13.8042 6.5617 13.8042 7.62048V8.00035C13.8042 8.27649 13.5803 8.50035 13.3042 8.50035C13.028 8.50035 12.8042 8.27649 12.8042 8.00035V7.62048C12.8042 7.45305 12.7922 7.28671 12.7686 7.12264H11.3754C10.4831 7.12264 9.62275 6.7853 8.98474 6.17767C8.3459 5.56925 7.98217 4.7387 7.98217 3.86722V2.54967C7.86038 2.53679 7.73756 2.53027 7.61419 2.53027H4.6958ZM11.9841 5.3693C12.1782 5.60035 12.3402 5.85376 12.4675 6.12264H11.3754C10.733 6.12264 10.1215 5.87938 9.6744 5.45353C9.22808 5.02846 8.98217 4.45731 8.98217 3.86722V2.80869C9.24882 2.92191 9.50201 3.06849 9.73534 3.24626L10.3661 3.72685C10.8062 4.06212 11.2078 4.44505 11.5636 4.86865L11.9841 5.3693ZM8.07417 13.0198C7.00953 11.8957 7.00593 10.2339 7.04821 9.60639C7.0589 9.44777 7.17373 9.31147 7.34197 9.24042L10.1594 8.05053C10.3178 7.98364 10.5042 7.98364 10.6626 8.05053L13.48 9.24042C13.6482 9.31147 13.7631 9.44777 13.7737 9.60639C13.816 10.2339 13.8124 11.8957 12.7478 13.0198C11.4125 14.4297 10.411 14.4297 10.411 14.4297C10.411 14.4297 9.40948 14.4297 8.07417 13.0198ZM12.3772 10.1632C12.5488 10.2963 12.5602 10.5218 12.4026 10.6668L10.4407 12.4714C10.363 12.543 10.2539 12.5846 10.139 12.5867C10.024 12.5887 9.91295 12.551 9.83162 12.4824L8.71056 11.5354C8.54579 11.3963 8.54579 11.1706 8.71056 11.0314C8.87533 10.8923 9.14248 10.8923 9.30725 11.0314L10.117 11.7154L11.7811 10.1847C11.9387 10.0397 12.2056 10.0301 12.3772 10.1632Z" fill="#6F7590"/>
</svg>
