<svg viewBox="0 0 24 24" fill="none" xmlns="http://www.w3.org/2000/svg">
<path fill-rule="evenodd" clip-rule="evenodd" d="M6 3.5C5.30965 3.5 4.75 4.05965 4.75 4.75V19.3214C4.75 20.0118 5.30964 20.5714 6 20.5714H10.75C11.1642 20.5714 11.5 20.9072 11.5 21.3214C11.5 21.7356 11.1642 22.0714 10.75 22.0714H6C4.48122 22.0714 3.25 20.8402 3.25 19.3214V4.75C3.25 3.23122 4.48122 2 6 2H12.3998C13.4399 2 14.4512 2.34137 15.2785 2.9717L17.2483 4.47249C17.7617 4.86364 18.2302 5.31039 18.6453 5.80459L20.1371 7.58049C20.8559 8.43624 21.25 9.51805 21.25 10.6356V12.0357C21.25 12.4499 20.9142 12.7857 20.5 12.7857C20.0858 12.7857 19.75 12.4499 19.75 12.0357V10.6429H17.5C16.1191 10.6429 14.7878 10.1208 13.8008 9.1807C12.8125 8.23946 12.25 6.95483 12.25 5.60714V3.5H6ZM18.9885 8.54527C19.144 8.73038 19.2773 8.93095 19.3869 9.14286H17.5C16.494 9.14286 15.536 8.76189 14.8353 8.0945C14.1357 7.42828 13.75 6.53274 13.75 5.60714V3.79373C13.9683 3.89345 14.1762 4.01763 14.3695 4.16485L16.3392 5.66564C16.7646 5.98973 17.1528 6.3599 17.4968 6.76937L18.9885 8.54527ZM12.3654 19.8428C10.7095 18.0945 10.7039 15.5097 10.7696 14.5337C10.7863 14.287 10.9649 14.075 11.2265 13.9645L15.6087 12.1137C15.855 12.0097 16.145 12.0097 16.3913 12.1137L20.7735 13.9645C21.0351 14.075 21.2137 14.287 21.2304 14.5337C21.2961 15.5097 21.2905 18.0945 19.6346 19.8428C17.5577 22.0357 16 22.0357 16 22.0357C16 22.0357 14.4423 22.0357 12.3654 19.8428ZM19.0582 15.3998C19.3252 15.6068 19.3429 15.9575 19.0977 16.183L16.0463 18.9899C15.9253 19.1012 15.7558 19.1659 15.5769 19.1691C15.398 19.1723 15.2254 19.1137 15.0989 19.0069L13.3552 17.5341C13.0989 17.3176 13.0989 16.9666 13.3552 16.7502C13.6115 16.5337 14.027 16.5337 14.2833 16.7502L15.5427 17.814L18.131 15.4331C18.3761 15.2077 18.7913 15.1927 19.0582 15.3998Z" fill="currentColor"/>
</svg>
