<svg viewBox="0 0 32 32" fill="none" xmlns="http://www.w3.org/2000/svg">
    <rect width="32" height="32" rx="4" fill="#F4F6FD" />
    <path fill-rule="evenodd" clip-rule="evenodd"
        d="M12.6958 10.5303C11.8674 10.5303 11.1958 11.2018 11.1958 12.0303V19.9704C11.1958 20.7988 11.8674 21.4704 12.6958 21.4704H15.0356C15.3118 21.4704 15.5356 21.6943 15.5356 21.9704C15.5356 22.2466 15.3118 22.4704 15.0356 22.4704H12.6958C11.3151 22.4704 10.1958 21.3511 10.1958 19.9704V12.0303C10.1958 10.6496 11.3151 9.53027 12.6958 9.53027H15.6142C16.5995 9.53027 17.5576 9.85368 18.3414 10.4508L18.9722 10.9314C19.4709 11.3114 19.926 11.7454 20.3293 12.2255L20.7499 12.7261C21.4309 13.5368 21.8042 14.5617 21.8042 15.6205V16.0003C21.8042 16.2765 21.5803 16.5003 21.3042 16.5003C21.028 16.5003 20.8042 16.2765 20.8042 16.0003V15.6205C20.8042 15.2801 20.7546 14.9441 20.6589 14.6226H19.3754C18.6081 14.6226 17.8722 14.3323 17.3296 13.8156C16.787 13.2989 16.4822 12.598 16.4822 11.8672V10.6396C16.2003 10.5674 15.9088 10.5303 15.6142 10.5303H12.6958ZM19.9842 13.3693C20.2425 13.6768 20.4439 14.024 20.5825 14.3945L16.7096 10.7061C17.0768 10.8271 17.4238 11.0089 17.7354 11.2463L18.3661 11.7269C18.8062 12.0621 19.2078 12.4451 19.5636 12.8687L19.9842 13.3693ZM16.0742 21.0198C15.0096 19.8957 15.006 18.2339 15.0482 17.6064C15.0589 17.4478 15.1738 17.3115 15.342 17.2404L18.1594 16.0505C18.3178 15.9836 18.5042 15.9836 18.6626 16.0505L21.48 17.2404C21.6482 17.3115 21.7631 17.4478 21.7738 17.6064C21.8161 18.2339 21.8124 19.8957 20.7478 21.0198C19.4125 22.4297 18.411 22.4297 18.411 22.4297C18.411 22.4297 17.4095 22.4297 16.0742 21.0198ZM20.3772 18.1632C20.5489 18.2963 20.5602 18.5218 20.4026 18.6668L18.4408 20.4714C18.363 20.543 18.254 20.5846 18.139 20.5867C18.024 20.5887 17.913 20.551 17.8317 20.4824L16.7106 19.5354C16.5458 19.3963 16.5458 19.1706 16.7106 19.0314C16.8754 18.8923 17.1425 18.8923 17.3073 19.0314L18.117 19.7154L19.7811 18.1847C19.9387 18.0397 20.2056 18.0301 20.3772 18.1632Z"
        fill="#5277D7" />
</svg>