<svg width="16" height="17" viewBox="0 0 16 17" fill="none" xmlns="http://www.w3.org/2000/svg">
<path fill-rule="evenodd" clip-rule="evenodd" d="M1.16713 7.24834C2.49293 5.69003 5.32846 2.77722 8.0002 2.77722C10.6719 2.77722 13.5075 5.69003 14.8333 7.24834C15.3082 7.80659 15.3082 8.60505 14.8333 9.1633C13.5075 10.7216 10.6719 13.6344 8.0002 13.6344C5.32846 13.6344 2.49293 10.7216 1.16713 9.1633C0.692174 8.60505 0.692174 7.80659 1.16713 7.24834ZM9.56848 8.20583C9.56848 9.07195 8.86634 9.77409 8.00022 9.77409C7.13409 9.77409 6.43196 9.07195 6.43196 8.20583C6.43196 7.3397 7.13409 6.63757 8.00022 6.63757C8.86634 6.63757 9.56848 7.3397 9.56848 8.20583ZM11.2574 8.20583C11.2574 10.0047 9.7991 11.463 8.00022 11.463C6.20134 11.463 4.74306 10.0047 4.74306 8.20583C4.74306 6.40695 6.20134 4.94867 8.00022 4.94867C9.7991 4.94867 11.2574 6.40695 11.2574 8.20583Z" fill="currentColor"/>
</svg>
