<svg viewBox="0 0 16 16" fill="none" xmlns="http://www.w3.org/2000/svg">
<path fill-rule="evenodd" clip-rule="evenodd" d="M2.18305 11.9501C1.76186 12.3803 1.76186 13.0805 2.18305 13.511C2.60393 13.9417 3.2885 13.9417 3.70651 13.511L4.01073 13.2028L5.2793 14.5C5.49623 14.7222 5.84391 14.7222 6.06114 14.5L7.95166 12.5664C8.16891 12.3446 8.16891 11.9889 7.95166 11.7667L6.68335 10.4696L8.9428 8.15569C9.42628 8.41119 9.97738 8.55544 10.5588 8.55544C12.5088 8.55544 14.0894 6.93904 14.0894 4.94442C14.0894 2.95005 12.5088 1.33334 10.5588 1.33334C8.60863 1.33334 7.02816 2.95005 7.02816 4.94442C7.02816 5.53905 7.16928 6.10273 7.41906 6.59723L2.18305 11.9501ZM9.2008 4.94442C9.2008 4.17779 9.80923 3.55549 10.5587 3.55549C11.3083 3.55549 11.9166 4.17779 11.9166 4.94442C11.9166 5.71106 11.3083 6.33326 10.5587 6.33326C9.80926 6.33326 9.2008 5.71103 9.2008 4.94442Z" fill="currentColor"/>
</svg>
