<svg width="16" height="16" viewBox="0 0 16 16" fill="none" xmlns="http://www.w3.org/2000/svg">
<path fill-rule="evenodd" clip-rule="evenodd" d="M2.18253 11.9501C1.76134 12.3803 1.76134 13.0805 2.18253 13.511C2.60341 13.9417 3.28798 13.9417 3.70599 13.511L4.01021 13.2028L5.27878 14.5C5.49571 14.7222 5.84339 14.7222 6.06062 14.5L7.95114 12.5664C8.16839 12.3446 8.16839 11.9889 7.95114 11.7667L6.68283 10.4696L8.94228 8.15569C9.42576 8.41119 9.97686 8.55544 10.5582 8.55544C12.5082 8.55544 14.0889 6.93904 14.0889 4.94442C14.0889 2.95005 12.5082 1.33334 10.5582 1.33334C8.60811 1.33334 7.02764 2.95005 7.02764 4.94442C7.02764 5.53905 7.16876 6.10273 7.41854 6.59723L2.18253 11.9501ZM9.20028 4.94442C9.20028 4.17779 9.80871 3.55549 10.5582 3.55549C11.3078 3.55549 11.9161 4.17779 11.9161 4.94442C11.9161 5.71106 11.3078 6.33326 10.5582 6.33326C9.80874 6.33326 9.20028 5.71103 9.20028 4.94442Z" fill="#EBB907"/>
</svg>
