<svg width="17" height="16" viewBox="0 0 17 16" fill="none" xmlns="http://www.w3.org/2000/svg">
<path fill-rule="evenodd" clip-rule="evenodd" d="M5.09924 4.7276C5.09924 4.25075 5.33578 3.55931 5.84697 2.9863C6.34527 2.42774 7.08821 2 8.09618 2C9.10763 2 9.85211 2.42809 10.351 2.98655C10.8627 3.55946 11.0992 4.2508 11.0992 4.7276V6H5.09924V4.7276ZM4.09924 6V4.7276C4.09924 3.97685 4.44604 3.05449 5.10075 2.3206C5.76835 1.57226 6.77388 1 8.09618 1C9.42112 1 10.4282 1.57191 11.0968 2.32035C11.7524 3.05434 12.0992 3.9768 12.0992 4.7276V6H12.9241C13.5731 6 14.0992 6.52611 14.0992 7.17511V12.8249C14.0992 13.4739 13.5731 14 12.9241 14H3.27435C2.62536 14 2.09924 13.4739 2.09924 12.8249V7.17511C2.09924 6.52611 2.62536 6 3.27435 6H4.09924Z" fill="#3E4359"/>
</svg>
