<svg width="16" height="16" viewBox="0 0 16 16" fill="none" xmlns="http://www.w3.org/2000/svg">
<path d="M5.49951 2H3.49951C2.94723 2 2.49951 2.44772 2.49951 3V11.5C2.49951 12.0523 2.94723 12.5 3.49951 12.5H11.4995C12.0518 12.5 12.4995 12.0523 12.4995 11.5V5C12.4995 4.44772 12.0518 4 11.4995 4H7.49951C6.94723 4 6.49951 3.55228 6.49951 3C6.49951 2.44772 6.0518 2 5.49951 2Z" fill="white" stroke="#5277D7"/>
<path d="M13.3266 6H2.61167C2.01741 6 1.55428 6.51516 1.61731 7.10607L2.20398 12.6061C2.2582 13.1144 2.68711 13.5 3.19833 13.5H12.4466C12.9379 13.5 13.3564 13.1431 13.4341 12.658L14.3141 7.15799C14.4113 6.55041 13.9419 6 13.3266 6Z" fill="white" stroke="#5277D7"/>
<circle cx="12" cy="12" r="4" fill="#5277D7"/>
<path fill-rule="evenodd" clip-rule="evenodd" d="M10.9651 11.1337C10.965 11.0083 10.9672 10.6223 11.1111 10.276C11.1811 10.1074 11.2785 9.96412 11.4112 9.8631C11.5397 9.76526 11.7233 9.69001 12 9.69001C12.2767 9.69001 12.4603 9.76526 12.5888 9.86309C12.7215 9.96409 12.8188 10.1073 12.8888 10.276C13.0327 10.6223 13.0349 11.0082 13.035 11.1342L13.035 11.1859H10.9651L10.9651 11.1337ZM10.275 11.1859L10.275 11.1342L10.275 11.1307C10.2749 10.995 10.2745 10.4913 10.4739 10.0113C10.5763 9.76462 10.7378 9.50855 10.9932 9.31408C11.2528 9.11642 11.5867 9 12 9C12.4133 9 12.7472 9.11642 13.0068 9.31409C13.2622 9.50858 13.4236 9.76466 13.5261 10.0113C13.7247 10.4895 13.7249 10.9916 13.725 11.1287L13.725 11.1337L13.725 11.1859H13.8402C14.0942 11.1859 14.3002 11.3919 14.3002 11.6459V13.946C14.3002 14.2 14.0942 14.406 13.8402 14.406H10.1601C9.90603 14.406 9.70007 14.2 9.70007 13.946V11.6459C9.70007 11.3919 9.90603 11.1859 10.1601 11.1859H10.275Z" fill="white"/>
</svg>
