<svg  viewBox="0 0 24 24" fill="none" xmlns="http://www.w3.org/2000/svg">
    <path
        d="M12.889 19.5H4.5a2 2 0 0 1-2-2v-12a2 2 0 0 1 2-2h13a2 2 0 0 1 2 2v7"
        stroke="#5277D7"
    />
    <path
        d="M18 19.25a2.25 2.25 0 1 0 0-4.5 2.25 2.25 0 0 0 0 4.5Z"
        stroke="#5277D7"
        stroke-linecap="round"
        stroke-linejoin="round"
    />
    <mask
        id="properties-1-selected__a"
        maskUnits="userSpaceOnUse"
        x="12.294"
        y="11.294"
        width="12"
        height="12"
        fill="#000"
    >
        <path fill="#fff" d="M12.294 11.294h12v12h-12z" />
        <path
            fill-rule="evenodd"
            clip-rule="evenodd"
            d="M20.948 14.389a5.715 5.715 0 0 0-.337-.337l-.183-1.28a4.79 4.79 0 0 0-1.153-.478l-1.036.778a2.728 2.728 0 0 0-.478 0l-1.036-.778c-.403.109-.791.27-1.153.478l-.183 1.28a7.65 7.65 0 0 0-.337.337l-1.28.183c-.21.362-.37.75-.478 1.153l.778 1.036a5.1 5.1 0 0 0 0 .478l-.778 1.036c.109.403.27.791.478 1.153l1.28.183c.109.116.221.228.337.337l.183 1.28c.362.21.75.37 1.153.478l1.036-.778c.159.014.319.014.478 0l1.036.778c.403-.109.791-.27 1.153-.478l.183-1.28c.117-.107.337-.337.337-.337l1.28-.183c.21-.362.37-.75.478-1.153l-.778-1.036c.014-.16 0-.478 0-.478l.778-1.036a4.836 4.836 0 0 0-.478-1.153l-1.28-.183ZM16.25 17a1.75 1.75 0 1 1 3.5 0 1.75 1.75 0 0 1-3.5 0ZM18 14.25a2.75 2.75 0 1 0 0 5.5 2.75 2.75 0 0 0 0-5.5Z"
        />
    </mask>
    <path
        fill-rule="evenodd"
        clip-rule="evenodd"
        d="M20.948 14.389a5.715 5.715 0 0 0-.337-.337l-.183-1.28a4.79 4.79 0 0 0-1.153-.478l-1.036.778a2.728 2.728 0 0 0-.478 0l-1.036-.778c-.403.109-.791.27-1.153.478l-.183 1.28a7.65 7.65 0 0 0-.337.337l-1.28.183c-.21.362-.37.75-.478 1.153l.778 1.036a5.1 5.1 0 0 0 0 .478l-.778 1.036c.109.403.27.791.478 1.153l1.28.183c.109.116.221.228.337.337l.183 1.28c.362.21.75.37 1.153.478l1.036-.778c.159.014.319.014.478 0l1.036.778c.403-.109.791-.27 1.153-.478l.183-1.28c.117-.107.337-.337.337-.337l1.28-.183c.21-.362.37-.75.478-1.153l-.778-1.036c.014-.16 0-.478 0-.478l.778-1.036a4.836 4.836 0 0 0-.478-1.153l-1.28-.183ZM16.25 17a1.75 1.75 0 1 1 3.5 0 1.75 1.75 0 0 1-3.5 0ZM18 14.25a2.75 2.75 0 1 0 0 5.5 2.75 2.75 0 0 0 0-5.5Z"
        fill="#F4F6FD"
    />
    <path
        d="m20.61 14.052-.989.14a1 1 0 0 0 .313.595l.677-.736Zm.338.337-.736.677a1 1 0 0 0 .595.313l.141-.99Zm-.52-1.617.99-.142a1 1 0 0 0-.49-.724l-.5.866Zm-1.153-.478.26-.966a1 1 0 0 0-.86.166l.6.8Zm-1.036.778-.088.996a1 1 0 0 0 .689-.197l-.6-.8Zm-.478 0-.6.8a1 1 0 0 0 .688.196l-.088-.996Zm-1.036-.778.6-.8a1 1 0 0 0-.86-.166l.26.966Zm-1.153.478-.5-.867a1 1 0 0 0-.49.725l.99.142Zm-.183 1.28.687.726a1 1 0 0 0 .303-.585l-.99-.141Zm-.337.337.141.99a1 1 0 0 0 .585-.303l-.726-.687Zm-1.28.183-.142-.99a1 1 0 0 0-.724.49l.866.5Zm-.478 1.153-.966-.26a1 1 0 0 0 .166.86l.8-.6Zm.778 1.036.996.088a1 1 0 0 0-.197-.689l-.8.6Zm0 .478.8.6a1 1 0 0 0 .199-.644l-1 .044Zm-.778 1.036-.8-.6a1 1 0 0 0-.166.86l.966-.26Zm.478 1.153-.867.5a1 1 0 0 0 .726.49l.14-.99Zm1.28.183.726-.687a1 1 0 0 0-.585-.303l-.141.99Zm.337.337.99-.141a1 1 0 0 0-.303-.585l-.687.726Zm.183 1.28-.99.141a1 1 0 0 0 .49.725l.5-.866Zm1.153.478-.26.966a1 1 0 0 0 .86-.166l-.6-.8Zm1.036-.778.088-.996a1 1 0 0 0-.689.197l.6.8Zm.478 0 .6-.8a1 1 0 0 0-.688-.196l.088.996Zm1.036.778-.6.8a1 1 0 0 0 .86.166l-.26-.966Zm1.153-.478.5.867a1 1 0 0 0 .49-.726l-.99-.14Zm.183-1.28-.677-.736a1 1 0 0 0-.313.595l.99.141Zm.337-.337-.141-.99a1 1 0 0 0-.58.298l.721.692Zm1.28-.183.141.99a1 1 0 0 0 .725-.49l-.866-.5Zm.478-1.153.966.26a1 1 0 0 0-.166-.86l-.8.6Zm-.778-1.036-.996-.088a1 1 0 0 0 .197.689l.8-.601Zm0-.478-.8-.6a1 1 0 0 0-.199.644l1-.044Zm.778-1.036.8.6a1 1 0 0 0 .166-.86l-.966.26Zm-.478-1.153.867-.5a1 1 0 0 0-.726-.49l-.14.99Zm-2.295.215c.1.091.192.184.28.279l1.472-1.354a6.737 6.737 0 0 0-.397-.396l-1.355 1.471Zm-.495-1.874.183 1.28 1.98-.283-.183-1.28-1.98.283Zm-.422.346c.319.086.626.213.912.379l1-1.732a5.79 5.79 0 0 0-1.394-.578l-.518 1.931Zm-.176.612 1.036-.778-1.202-1.599-1.035.778 1.2 1.6Zm-.991.197c.1-.009.201-.009.302 0l.176-1.992a3.722 3.722 0 0 0-.654 0l.176 1.992Zm-1.725-.975 1.036.778 1.201-1.599-1.035-.778-1.202 1.6Zm-.053.545c.287-.165.595-.293.915-.379l-.522-1.93a5.836 5.836 0 0 0-1.391.576l.998 1.733Zm.308.555.183-1.28-1.98-.283-.183 1.28 1.98.283Zm-.601.883c.097-.102.196-.201.298-.298l-1.374-1.453c-.13.122-.255.248-.377.377l1.453 1.374Zm-1.865.486 1.28-.183-.283-1.98-1.28.183.283 1.98Zm.346.422c.086-.319.213-.626.379-.912l-1.732-1a5.789 5.789 0 0 0-.578 1.394l1.931.518Zm.612.176-.778-1.036-1.599 1.202.778 1.035 1.6-1.2Zm-.8 1.079 1-.044v-.002a7.602 7.602 0 0 1-.004-.326l.001-.018-1.992-.176c-.013.138-.011.306-.01.404l.004.144.002.044v.018l1-.044Zm.022 1.636.778-1.035-1.599-1.202-.778 1.036 1.6 1.201Zm.546.054a3.84 3.84 0 0 1-.38-.915l-1.93.522c.13.486.325.954.576 1.391l1.734-.998Zm.554-.308-1.28-.183-.283 1.98 1.28.183.283-1.98Zm.883.6a7.557 7.557 0 0 1-.298-.297l-1.453 1.374c.122.13.248.255.377.377l1.374-1.453Zm.486 1.866-.183-1.28-1.98.283.183 1.28 1.98-.283Zm.422-.347a3.786 3.786 0 0 1-.912-.378l-1 1.732a5.79 5.79 0 0 0 1.394.578l.518-1.932Zm.176-.611-1.036.778 1.202 1.599 1.035-.778-1.2-1.6Zm.991-.197a1.73 1.73 0 0 1-.302 0l-.176 1.992c.218.02.437.02.654 0l-.176-1.992Zm1.725.975-1.036-.779-1.201 1.6 1.035.778 1.202-1.6Zm.053-.546a3.837 3.837 0 0 1-.915.38l.522 1.93a5.836 5.836 0 0 0 1.391-.576l-.998-1.733Zm-.308-.554-.183 1.28 1.98.282.183-1.28-1.98-.282Zm1.327-.196-.721-.692-.002.002-.007.006-.024.026a17.246 17.246 0 0 1-.26.26l1.354 1.471a7.849 7.849 0 0 0 .343-.34l.028-.03.008-.008.002-.002h.001l-.722-.693Zm1.139-1.173-1.28.183.283 1.98 1.28-.183-.283-1.98Zm-.346-.422a3.773 3.773 0 0 1-.379.912l1.732 1c.253-.437.447-.906.578-1.394l-1.931-.518Zm-.612-.176.778 1.035 1.599-1.2-.778-1.037-1.6 1.202Zm.8-1.08-1 .045v.001a7.602 7.602 0 0 1 .004.326l-.001.02 1.992.175c.012-.139.011-.306.01-.405a8.232 8.232 0 0 0-.005-.143l-.001-.044v-.018l-1 .044Zm-.022-1.636-.778 1.036 1.599 1.201.778-1.035-1.6-1.202Zm-.546-.053c.166.287.293.595.38.915l1.93-.522a5.838 5.838 0 0 0-.576-1.391l-1.733.998Zm-.554.308 1.28.183.282-1.98-1.28-.183-.282 1.98ZM18 14.25A2.75 2.75 0 0 0 15.25 17h2a.75.75 0 0 1 .75-.75v-2ZM20.75 17A2.75 2.75 0 0 0 18 14.25v2a.75.75 0 0 1 .75.75h2ZM18 19.75A2.75 2.75 0 0 0 20.75 17h-2a.75.75 0 0 1-.75.75v2ZM15.25 17A2.75 2.75 0 0 0 18 19.75v-2a.75.75 0 0 1-.75-.75h-2Zm1 0c0-.966.784-1.75 1.75-1.75v-2A3.75 3.75 0 0 0 14.25 17h2ZM18 18.75A1.75 1.75 0 0 1 16.25 17h-2A3.75 3.75 0 0 0 18 20.75v-2ZM19.75 17A1.75 1.75 0 0 1 18 18.75v2A3.75 3.75 0 0 0 21.75 17h-2ZM18 15.25c.966 0 1.75.784 1.75 1.75h2A3.75 3.75 0 0 0 18 13.25v2Z"
        fill="#5277D7"
        mask="url(#properties-1-selected__a)"
    />
    <path stroke="#5277D7" d="M3 7.5h17" />
    <path stroke="#5277D7" stroke-linecap="round" d="M5.5 10.5h8m-8 3h5" />
</svg>
