<svg width="16" height="16" viewBox="0 0 16 16" fill="none" xmlns="http://www.w3.org/2000/svg">
<path d="M5.49951 2H3.49951C2.94723 2 2.49951 2.44772 2.49951 3V11.5C2.49951 12.0523 2.94723 12.5 3.49951 12.5H11.4995C12.0518 12.5 12.4995 12.0523 12.4995 11.5V5C12.4995 4.44772 12.0518 4 11.4995 4H7.49951C6.94723 4 6.49951 3.55228 6.49951 3C6.49951 2.44772 6.0518 2 5.49951 2Z" fill="white" stroke="#5277D7"/>
<path d="M13.3266 6H2.61167C2.01741 6 1.55428 6.51516 1.61731 7.10607L2.20398 12.6061C2.2582 13.1144 2.68711 13.5 3.19833 13.5H12.4466C12.9379 13.5 13.3564 13.1431 13.4341 12.658L14.3141 7.15799C14.4113 6.55041 13.9419 6 13.3266 6Z" fill="white" stroke="#5277D7"/>
<circle cx="12" cy="12" r="4" fill="#5277D7"/>
<path fill-rule="evenodd" clip-rule="evenodd" d="M11.3973 9.32233C11.6764 9.32233 11.7112 9.28524 11.7112 8.98815C11.7112 8.80434 11.676 8.66075 11.6328 8.66911C11.1219 8.76792 11.0834 8.79465 11.0834 9.05164C11.0834 9.27811 11.1347 9.32233 11.3973 9.32233ZM13.6539 9.2878C13.6958 9.17128 13.5818 9.07325 13.2615 8.95061C12.7238 8.74462 12.4985 8.64577 12.4047 8.72503C12.3283 8.78961 12.339 8.97246 12.339 9.31197C12.339 9.9486 12.3219 9.99438 12.022 10.1596C11.7363 10.3168 11.6889 10.3171 11.5436 10.1624C11.455 10.068 11.2475 9.9907 11.0826 9.9907C10.8223 9.9907 10.7784 10.0374 10.75 10.3455C10.7215 10.6536 10.6175 10.7645 9.9586 11.1891C9.29427 11.6172 9.2 11.7184 9.2 12.004C9.2 12.3191 9.21684 12.33 9.70141 12.33C10.1537 12.33 10.2458 12.3767 10.6431 12.8077C11.0696 13.2703 11.0834 13.3081 11.0834 14.0122C11.0834 14.6631 11.1141 14.7702 11.3769 15.0384C11.7017 15.3697 12.0619 15.4152 12.7972 15.218C13.2075 15.1081 13.2704 15.0404 13.5769 14.3787C13.8941 13.6938 13.9024 13.6431 13.7497 13.3287C13.6293 13.0808 13.5155 12.9984 13.2936 12.9984C12.8601 12.9984 12.339 12.4315 12.339 11.96C12.339 11.1865 13.18 10.7592 13.9105 11.1615C14.2079 11.3251 14.2203 11.321 14.3747 11.003L14.5333 10.6763L14.0768 10.4906C13.6554 10.3193 13.5952 10.3189 13.2936 10.485L12.9668 10.6648V10.2944C12.9668 9.88209 13.1222 9.65652 13.4063 9.65652C13.5099 9.65652 13.5947 9.61051 13.5947 9.55426C13.5947 9.498 13.6213 9.37803 13.6539 9.2878Z" fill="white"/>
</svg>
