<svg width="166" height="149" viewBox="0 0 166 149" fill="none" xmlns="http://www.w3.org/2000/svg">
<circle cx="61.6421" cy="90.4248" r="57.6421" fill="#E9F0FF"/>
<path d="M100.925 22.1858C101.624 22.373 102.086 22.0454 102.37 21.395C102.703 20.4823 103.164 20.0773 104.718 19.6572C106.338 19.1995 107.408 18.3302 107.829 16.7586C108.451 14.4371 106.964 12.3433 104.181 11.5975C102.065 11.0305 100.231 11.464 99.2199 12.6903C98.9202 13.0283 98.7259 13.3836 98.6075 13.8253C98.4231 14.5135 98.7287 15.0578 99.4374 15.2477C100.002 15.399 100.451 15.2441 100.848 14.6678C101.455 13.7184 102.366 13.3571 103.506 13.6626C104.77 14.0012 105.434 15.0158 105.134 16.1354C104.869 17.1215 104.287 17.5709 102.806 18C101.319 18.416 100.456 19.0877 100.115 20.3614L100.063 20.5565C99.8617 21.3064 100.145 21.9767 100.925 22.1858ZM99.7512 26.6493C100.583 26.8723 101.414 26.4013 101.631 25.5898C101.849 24.7783 101.362 23.9653 100.53 23.7424C99.6981 23.5194 98.8598 23.9774 98.6424 24.7889C98.4249 25.6003 98.9192 26.4264 99.7512 26.6493Z" fill="#3C71DF"/>
<path d="M11.8887 68.7956C11.776 69.187 11.782 69.6031 11.9057 69.9911C12.0295 70.3792 12.2656 70.7219 12.5841 70.9758C12.9026 71.2297 13.2892 71.3834 13.6951 71.4176C14.101 71.4518 14.5079 71.3648 14.8644 71.1677C15.2208 70.9706 15.5109 70.6723 15.6978 70.3103C15.8847 69.9484 15.96 69.5392 15.9144 69.1345C15.8687 68.7297 15.7041 68.3476 15.4412 68.0364C15.1784 67.7252 14.8292 67.499 14.4378 67.3862C13.9128 67.2352 13.3494 67.2988 12.8714 67.5631C12.3934 67.8274 12.0399 68.2707 11.8887 68.7956Z" fill="#3C71DF"/>
<path d="M16.4963 64.4999C16.4911 64.5851 16.4762 64.6695 16.4516 64.7512C16.4078 64.9036 16.3343 65.0459 16.2352 65.1698C16.1362 65.2937 16.0137 65.3967 15.8746 65.4731C15.7364 65.55 15.5843 65.5987 15.427 65.6162C15.2698 65.6337 15.1107 65.6196 14.9589 65.5749C14.4613 65.4314 13.9402 65.3874 13.4255 65.4455C12.9108 65.5036 12.4127 65.6625 11.9595 65.9134C11.5063 66.1642 11.1071 66.5019 10.7846 66.9072C10.4621 67.3125 10.2226 67.7774 10.08 68.2753C10.0361 68.4274 9.96261 68.5694 9.86382 68.6931C9.76503 68.8168 9.64284 68.9198 9.50422 68.9963C9.22428 69.1508 8.89444 69.1877 8.58726 69.099C8.28008 69.0103 8.02072 68.8032 7.86624 68.5233C7.71176 68.2433 7.67481 67.9135 7.76352 67.6063C7.99192 66.8037 8.37753 66.0544 8.89795 65.4021C9.41837 64.7498 10.0632 64.2074 10.795 63.8064C11.3436 63.502 11.9335 63.2793 12.5464 63.1453L16.4963 64.4999Z" fill="#3C71DF"/>
<path d="M7.34507 61.366L10.219 62.3512C10.1574 62.3783 10.0975 62.4089 10.0396 62.4429C9.12847 62.9427 8.32565 63.6185 7.67762 64.4309C7.0296 65.2433 6.54925 66.1763 6.26441 67.1757C6.22149 67.3285 6.14877 67.4714 6.05042 67.596C5.95208 67.7207 5.83005 67.8247 5.69137 67.902C5.55269 67.9793 5.40009 68.0284 5.24235 68.0465C5.08462 68.0646 4.92486 68.0513 4.77227 68.0074C4.61968 67.9636 4.47728 67.8899 4.35325 67.7908C4.22923 67.6917 4.12603 67.569 4.04959 67.4298C3.97316 67.2907 3.925 67.1378 3.90789 66.9799C3.89078 66.8221 3.90505 66.6624 3.94989 66.5101C4.52447 64.4865 5.71028 62.6898 7.34507 61.366Z" fill="#3C71DF"/>
<path d="M17.5477 60.9372C17.4587 61.2439 17.252 61.503 16.9727 61.6579C16.6934 61.8129 16.3642 61.8511 16.0569 61.7643C15.4994 61.6024 14.9258 61.5023 14.3465 61.4658L9.75537 59.8961C11.9532 58.9326 14.42 58.7727 16.7238 59.4445C17.0307 59.5336 17.2897 59.7408 17.4442 60.0206C17.5986 60.3004 17.6358 60.63 17.5477 60.9372Z" fill="#3C71DF"/>
<path d="M3.11889 59.9219L5.63695 60.781C4.1204 62.23 3.01791 64.0573 2.44323 66.0745C2.39942 66.227 2.32589 66.3692 2.22687 66.4931C2.12785 66.617 2.00529 66.7201 1.86626 66.7964C1.72863 66.8739 1.57691 66.9231 1.41999 66.9412C1.26307 66.9593 1.10412 66.9458 0.952465 66.9017C0.80022 66.8582 0.658036 66.7852 0.534049 66.6868C0.410062 66.5883 0.306708 66.4664 0.229903 66.3279C0.153099 66.1895 0.104354 66.0373 0.086455 65.88C0.0685562 65.7227 0.0818554 65.5634 0.125594 65.4112C0.703503 63.3819 1.72601 61.5068 3.11889 59.9219Z" fill="#3C71DF"/>
<path d="M18.6489 57.1161C18.5596 57.4229 18.3524 57.6819 18.0726 57.8363C17.7929 57.9907 17.4633 58.0279 17.1561 57.9398C15.6562 57.504 14.0848 57.3699 12.5327 57.5453C10.9807 57.7207 9.47881 58.2021 8.114 58.9617C7.97631 59.0389 7.84237 59.1142 7.71367 59.1998L4.89001 58.2315C6.67929 56.7921 8.78832 55.8038 11.0394 55.3499C13.2905 54.8959 15.6177 54.9897 17.825 55.6233C18.1319 55.7125 18.391 55.9197 18.5454 56.1995C18.6998 56.4793 18.737 56.8089 18.6489 57.1161Z" fill="#3C71DF"/>
<path d="M0.351426 60.0874L0.351405 60.0875C0.157329 60.6546 0.459703 61.2716 1.02678 61.4657L16.5987 66.795C17.1658 66.9891 17.7828 66.6867 17.9769 66.1196L17.9769 66.1196C18.171 65.5525 17.8686 64.9355 17.3015 64.7414L1.72961 59.412C1.16253 59.218 0.545502 59.5203 0.351426 60.0874Z" fill="#3C71DF"/>
<path d="M119.778 60.2782C119.778 60.2782 146.423 58.548 148.499 32.2491C146.077 30.5189 142.616 20.1379 148.499 19.0998C154.382 18.0617 158.534 19.0998 158.534 19.0998C158.534 19.0998 169.261 27.4046 155.766 33.6332C155.42 37.0937 155.074 67.8909 127.391 81.3864C99.7078 94.8819 119.778 60.2782 119.778 60.2782Z" fill="#4F8BFE"/>
<path d="M162.377 3.11972L154.085 1.6089C152.81 1.37659 151.589 2.22178 151.356 3.49668L148.369 19.892C148.137 21.1669 148.982 22.3887 150.257 22.621L158.548 24.1319C159.823 24.3642 161.045 23.519 161.277 22.2441L164.264 5.84877C164.497 4.57387 163.652 3.35203 162.377 3.11972Z" fill="#9DBFFF" stroke="#3C71DF" stroke-width="3"/>
<path d="M133.177 79.3654C133.177 94.0235 126.685 107.173 116.415 116.101C107.574 123.774 96.2574 127.992 84.5514 127.976C67.2634 127.976 52.0932 118.966 43.4699 105.373C38.8178 98.0191 36.2241 89.5514 35.9594 80.8533C35.6947 72.1552 37.7687 63.5454 41.965 55.9219C46.1613 48.2983 52.3263 41.9404 59.8169 37.5112C67.3074 33.0819 75.8493 30.7437 84.5514 30.7402C107.099 30.7402 126.076 46.0905 131.557 66.9218C132.64 70.9808 133.184 75.1645 133.177 79.3654Z" fill="#9DBFFF"/>
<path d="M116.414 116.101C107.574 123.774 96.2572 127.992 84.5513 127.977C67.2633 127.977 52.0931 118.966 43.4698 105.373C51.055 99.1587 55.3319 99.8227 58.1833 100.889C61.2977 102.065 63.0278 107.339 72.0248 102.148C81.0219 96.9579 88.2885 109.415 91.7489 111.491C105.59 110.495 112.802 113.443 116.414 116.101Z" fill="#4F8BFE"/>
<path d="M131.557 66.9217C111.003 71.7939 112.456 60.0979 110.435 53.011C108.359 45.7443 105.279 40.7791 94.1713 58.2019C77.6003 84.1932 79.1772 64.013 79.7485 49.2051C79.4993 46.4368 78.9457 45.3992 72.371 46.2153C65.7963 47.0315 64.0661 41.9383 58.5295 45.3987C56.2318 46.8382 53.1037 46.1876 50.2384 44.928C54.7422 40.4207 60.0917 36.8471 65.9801 34.4124C71.8684 31.9777 78.1796 30.7298 84.5514 30.7403C107.099 30.7401 126.076 46.0903 131.557 66.9217Z" fill="#4F8BFE"/>
<path d="M112.634 95.6422C112.634 95.6422 111.552 93.1096 113.883 91.2755C116.214 89.4413 118.498 90.442 118.498 90.442" stroke="#3C71DF" stroke-width="3" stroke-linecap="round"/>
<circle cx="106.042" cy="88.0881" r="2.33684" fill="#3C71DF"/>
<circle cx="112.274" cy="82.6354" r="2.33684" fill="#3C71DF"/>
</svg>
