<svg width="167" height="148" viewBox="0 0 167 148" fill="none" xmlns="http://www.w3.org/2000/svg">
<circle cx="81" cy="74" r="74" fill="#E9F0FF"/>
<path d="M165.665 44.5191L156.364 115.606C156.268 116.331 155.888 116.988 155.309 117.434C154.73 117.88 153.997 118.078 153.272 117.986L87.4613 109.144L92.096 99.418L91.1382 97.2119L87.8965 90.5309L96.3571 78.3929L88.9481 63.4347L97.8885 49.7313L95.9287 38.5678L101.189 33.0649L163.293 41.4206C164.018 41.5179 164.675 41.8987 165.12 42.4795C165.564 43.0604 165.76 43.7938 165.665 44.5191Z" fill="#699CFF"/>
<mask id="mask0_8922_503634" style="mask-type:alpha" maskUnits="userSpaceOnUse" x="87" y="33" width="79" height="86">
<path d="M165.665 44.5191L156.364 115.606C156.268 116.331 155.888 116.988 155.309 117.434C154.73 117.88 153.997 118.078 153.272 117.986L87.4613 109.144L92.096 99.418L91.1382 97.2119L87.8965 90.5309L96.3571 78.3929L88.9481 63.4347L97.8885 49.7313L95.9287 38.5678L101.189 33.0649L163.293 41.4206C164.018 41.5179 164.675 41.8987 165.12 42.4795C165.564 43.0604 165.76 43.7938 165.665 44.5191Z" fill="#699CFF"/>
</mask>
<g mask="url(#mask0_8922_503634)">
<rect x="73.7739" y="74.6719" width="16.6667" height="4.16667" rx="0.694444" transform="rotate(7.47528 73.7739 74.6719)" fill="#F9FBFF"/>
<rect x="93.0532" y="77.2014" width="5.55556" height="4.16667" rx="0.694444" transform="rotate(7.47528 93.0532 77.2014)" fill="#9DBEFF"/>
<rect x="81.4226" y="45.4182" width="11.1111" height="4.16667" rx="0.694444" transform="rotate(7.47528 81.4226 45.4182)" fill="#F9FBFF"/>
<rect x="101.316" y="78.2856" width="11.1111" height="4.16667" rx="0.694444" transform="rotate(7.47528 101.316 78.2856)" fill="#F9FBFF"/>
<rect x="95.1936" y="47.2253" width="11.1111" height="4.16667" rx="0.694444" transform="rotate(7.47528 95.1936 47.2253)" fill="#CFDFFF"/>
<rect x="72.2566" y="51.2195" width="23.6111" height="4.16667" rx="0.694444" transform="rotate(7.47528 72.2566 51.2195)" fill="#9DBEFF"/>
<rect x="72.3196" y="81.4849" width="23.6111" height="4.16667" rx="0.694444" transform="rotate(7.47528 72.3196 81.4849)" fill="#9DBEFF"/>
<rect x="67.5603" y="87.8643" width="20.8333" height="4.16667" rx="0.694444" transform="rotate(7.47528 67.5603 87.8643)" fill="#F9FBFF"/>
<rect x="80.9929" y="59.3696" width="9.72222" height="4.16667" rx="0.694444" transform="rotate(7.47528 80.9929 59.3696)" fill="#9DBEFF"/>
<rect x="90.9709" y="90.936" width="9.72222" height="4.16667" rx="0.694444" transform="rotate(7.47528 90.9709 90.936)" fill="#CFDFFF"/>
<rect x="93.3865" y="60.9958" width="9.72222" height="4.16667" rx="0.694444" transform="rotate(7.47528 93.3865 60.9958)" fill="#F9FBFF"/>
<rect x="105.78" y="62.6221" width="9.72222" height="4.16667" rx="0.694444" transform="rotate(7.47528 105.78 62.6221)" fill="#CFDFFF"/>
<rect x="74.5808" y="65.5327" width="15.2778" height="4.16667" rx="0.694444" transform="rotate(7.47528 74.5808 65.5327)" fill="#F9FBFF"/>
</g>
<path d="M83.354 34.7822C83.0288 34.4277 82.8538 33.9609 82.8658 33.48C82.8778 32.9991 83.0759 32.5416 83.4183 32.2038L96.0646 19.2259C96.8202 18.4507 98.0477 18.4323 98.7651 19.1856L99.7651 20.2355C100.482 20.9885 100.401 22.2104 99.5857 22.9229L85.9394 34.8508C85.5826 35.1746 85.1146 35.3482 84.6329 35.3354C84.1513 35.3226 83.6932 35.1244 83.354 34.7822Z" fill="#5088F4"/>
<path d="M75.8849 30.3313C75.7442 30.2664 75.6175 30.1745 75.5123 30.0607C75.4071 29.9468 75.3253 29.8134 75.2717 29.668C75.218 29.5226 75.1935 29.368 75.1996 29.2131C75.2057 29.0582 75.2423 28.9061 75.3072 28.7653L80.0455 17.9606C80.1783 17.6517 80.4284 17.4082 80.7407 17.2836C81.053 17.1589 81.402 17.1633 81.7111 17.2957L82.5829 17.6901C82.7314 17.7589 82.8641 17.8578 82.9725 17.9805C83.0808 18.1031 83.1626 18.2469 83.2126 18.4028C83.2627 18.5587 83.2798 18.7232 83.2631 18.886C83.2463 19.0489 83.1959 19.2065 83.1152 19.3489L77.5054 29.7597C77.3565 30.0412 77.1071 30.2563 76.8069 30.3622C76.5066 30.4681 76.1774 30.4571 75.8849 30.3313Z" fill="#5088F4"/>
<path d="M68.02 32.081C67.026 32.2557 66.0718 31.4102 65.8571 30.1644L62.0436 8.04354C61.8158 6.7221 62.5047 5.46634 63.559 5.28101L65.0286 5.02289C66.0829 4.8377 67.0785 5.79754 67.218 7.13432L69.562 29.5134C69.6945 30.7738 69.014 31.9064 68.02 32.081Z" fill="#5088F4"/>
<path d="M69.6127 98.3923L70.8901 99.7158L71.2701 110.697L22.907 123.808C22.5574 123.903 22.1924 123.928 21.8329 123.882C21.4735 123.836 21.1266 123.72 20.8121 123.54C20.4977 123.36 20.2217 123.12 20.0001 122.833C19.7785 122.546 19.6156 122.219 19.5206 121.869L0.757098 52.6677C0.661549 52.3183 0.635989 51.9536 0.681886 51.5943C0.727782 51.2351 0.84423 50.8884 1.02454 50.5743C1.20484 50.2602 1.44545 49.9849 1.73253 49.7641C2.01961 49.5433 2.3475 49.3814 2.69735 49.2878L54.1477 35.3335L52.4319 43.2875C52.4319 43.2875 57.0459 50.7357 57.9226 51.9358L55.2504 68.4751L67.1123 78.7418L64.5336 93.1042L69.6127 98.3923Z" fill="#699CFF"/>
<mask id="mask1_8922_503634" style="mask-type:alpha" maskUnits="userSpaceOnUse" x="0" y="35" width="72" height="89">
<path d="M69.6127 98.3923L70.8901 99.7158L71.2701 110.697L22.907 123.808C22.5574 123.903 22.1924 123.928 21.8329 123.882C21.4735 123.836 21.1266 123.72 20.8121 123.54C20.4977 123.36 20.2217 123.12 20.0001 122.833C19.7785 122.546 19.6156 122.219 19.5206 121.869L0.757098 52.6677C0.661549 52.3183 0.635989 51.9536 0.681886 51.5943C0.727782 51.2351 0.84423 50.8884 1.02454 50.5743C1.20484 50.2602 1.44545 49.9849 1.73253 49.7641C2.01961 49.5433 2.3475 49.3814 2.69735 49.2878L54.1477 35.3335L52.4319 43.2875C52.4319 43.2875 57.0459 50.7357 57.9226 51.9358L55.2504 68.4751L67.1123 78.7418L64.5336 93.1042L69.6127 98.3923Z" fill="#699CFF"/>
</mask>
<g mask="url(#mask1_8922_503634)">
<rect x="13.731" y="58.5864" width="16.6667" height="4.16667" rx="0.694444" transform="rotate(-15 13.731 58.5864)" fill="#F9FBFF"/>
<rect x="44.6777" y="81.3525" width="16.6667" height="4.16667" rx="0.694444" transform="rotate(-15 44.6777 81.3525)" fill="#F9FBFF"/>
<rect x="32.5129" y="53.5537" width="5.55556" height="4.16667" rx="0.694444" transform="rotate(-15 32.5129 53.5537)" fill="#9DBEFF"/>
<rect x="63.4597" y="76.3201" width="5.55556" height="4.16667" rx="0.694444" transform="rotate(-15 63.4597 76.3201)" fill="#9DBEFF"/>
<rect x="40.5623" y="51.397" width="11.1111" height="4.16667" rx="0.694444" transform="rotate(-15 40.5623 51.397)" fill="#F9FBFF"/>
<rect x="53.978" y="47.8022" width="11.1111" height="4.16667" rx="0.694444" transform="rotate(-15 53.978 47.8022)" fill="#CFDFFF"/>
<rect x="20.8945" y="63.8562" width="11.1111" height="4.16667" rx="0.694444" transform="rotate(-15 20.8945 63.8562)" fill="#F9FBFF"/>
<rect x="32.5227" y="91.7988" width="11.1111" height="4.16667" rx="0.694444" transform="rotate(-15 32.5227 91.7988)" fill="#F9FBFF"/>
<rect x="34.3103" y="60.2615" width="23.6111" height="4.16667" rx="0.694444" transform="rotate(-15 34.3103 60.2615)" fill="#9DBEFF"/>
<rect x="45.9385" y="88.2041" width="23.6111" height="4.16667" rx="0.694444" transform="rotate(-15 45.9385 88.2041)" fill="#9DBEFF"/>
<rect x="22.6919" y="70.564" width="20.8333" height="4.16667" rx="0.694444" transform="rotate(-15 22.6919 70.564)" fill="#F9FBFF"/>
<rect x="43.9795" y="95.9182" width="20.8333" height="4.16667" rx="0.694444" transform="rotate(-15 43.9795 95.9182)" fill="#F9FBFF"/>
<rect x="45.4985" y="64.4529" width="9.72222" height="4.16667" rx="0.694444" transform="rotate(-15 45.4985 64.4529)" fill="#9DBEFF"/>
<rect x="66.7861" y="89.8071" width="9.72222" height="4.16667" rx="0.694444" transform="rotate(-15 66.7861 89.8071)" fill="#CFDFFF"/>
<rect x="57.5725" y="61.2178" width="9.72222" height="4.16667" rx="0.694444" transform="rotate(-15 57.5725 61.2178)" fill="#F9FBFF"/>
<rect x="69.6467" y="57.9824" width="9.72222" height="4.16667" rx="0.694444" transform="rotate(-15 69.6467 57.9824)" fill="#CFDFFF"/>
<rect x="29.8555" y="75.8342" width="9.72222" height="4.16667" rx="0.694444" transform="rotate(-15 29.8555 75.8342)" fill="#9DBEFF"/>
<rect x="41.9297" y="72.5991" width="15.2778" height="4.16667" rx="0.694444" transform="rotate(-15 41.9297 72.5991)" fill="#F9FBFF"/>
</g>
</svg>
