<svg width="16" height="16" viewBox="0 0 16 16" fill="none" xmlns="http://www.w3.org/2000/svg">
<path d="M8 3H3C2.44772 3 2 3.44772 2 4V12C2 12.5523 2.44772 13 3 13H13C13.5523 13 14 12.5523 14 12V9.32781" stroke="currentColor" stroke-linecap="round"/>
<path d="M4 6L6 8L4 10" stroke="currentColor" stroke-linecap="round" stroke-linejoin="round"/>
<path d="M6 11H12" stroke="currentColor" stroke-linecap="round" stroke-linejoin="round"/>
<path fill-rule="evenodd" clip-rule="evenodd" d="M12 8C13.6569 8 15 6.65685 15 5C15 3.34315 13.6569 2 12 2C10.3431 2 9 3.34315 9 5C9 6.65685 10.3431 8 12 8ZM12 7C13.1046 7 14 6.10457 14 5C14 3.89543 13.1046 3 12 3C10.8954 3 10 3.89543 10 5C10 6.10457 10.8954 7 12 7Z" fill="currentColor"/>
</svg>
