<svg width="237" height="148" viewBox="0 0 237 148" fill="none" xmlns="http://www.w3.org/2000/svg">
<circle cx="120.361" cy="74" r="74" fill="#E9F0FF"/>
<path d="M176.21 55.5983C177.649 56.1329 179.221 56.1685 180.717 55.8251C186.985 54.3865 208.537 50.5772 204.792 67.2778C203.976 70.5912 191.354 89.1475 209.329 95.9213C210.647 96.4239 212.04 96.6983 213.449 96.7326C218.984 96.8466 229.951 95.54 234.541 90.8674C240.086 85.2229 234.028 87.8997 234.028 87.8997C234.028 87.8997 212.948 97.0989 205.502 87.3391C204.673 86.2532 204.146 84.676 203.995 83.3182C203.732 80.9641 204.778 77.8532 206.151 75.1452C208.009 71.48 216.932 54.9925 197.56 50.1894C193.097 49.1267 186.616 48.1721 178.259 51.6907C173.384 53.743 174.464 54.9494 176.21 55.5983Z" fill="#80A9FF"/>
<path d="M180.524 49.4432L174.913 51.5432C172.976 52.2681 171.994 54.4258 172.719 56.3627L172.997 57.1058C173.722 59.0427 175.879 60.0252 177.816 59.3003L183.427 57.2004C185.364 56.4755 186.346 54.3177 185.622 52.3808L185.343 51.6377C184.618 49.7008 182.461 48.7184 180.524 49.4432Z" fill="#3C71DF"/>
<path d="M146.083 55.5196L127.579 62.4451C126.61 62.8075 126.119 63.8864 126.481 64.8548L126.554 65.0496C126.917 66.018 127.996 66.5092 128.964 66.1468L147.468 59.2213C148.437 58.8589 148.928 57.78 148.566 56.8116L148.493 56.6168C148.13 55.6484 147.051 55.1571 146.083 55.5196Z" fill="#ACC6FF"/>
<path d="M151.247 69.3181L132.743 76.2436C131.775 76.6061 131.283 77.685 131.646 78.6534L131.719 78.8482C132.081 79.8166 133.16 80.3079 134.128 79.9454L152.633 73.0199C153.601 72.6574 154.093 71.5785 153.73 70.6101L153.657 70.4153C153.295 69.4469 152.216 68.9557 151.247 69.3181Z" fill="#ACC6FF"/>
<path d="M168.332 46.1028L153.334 51.7158C151.397 52.4407 150.415 54.5985 151.14 56.5353L156.26 70.2165C156.985 72.1534 159.143 73.1359 161.08 72.411L176.077 66.798C178.014 66.0731 178.996 63.9153 178.271 61.9785L173.151 48.2973C172.426 46.3604 170.268 45.3779 168.332 46.1028Z" fill="#6597FF"/>
<path d="M154.884 49.6919L139.886 55.3049C137.949 56.0298 136.967 58.1876 137.692 60.1244L143.8 76.4466C144.525 78.3835 146.683 79.366 148.62 78.6411L163.617 73.0282C165.554 72.3033 166.537 70.1455 165.812 68.2086L159.703 51.8864C158.978 49.9495 156.82 48.967 154.884 49.6919Z" fill="#6597FF"/>
<path d="M157.231 46.3795L157.114 46.4236C155.822 46.9068 155.167 48.3453 155.651 49.6366L164.208 72.5022C164.692 73.7935 166.13 74.4485 167.421 73.9652L167.539 73.9212C168.83 73.4379 169.485 71.9994 169.002 70.7082L160.444 47.8425C159.961 46.5513 158.522 45.8963 157.231 46.3795Z" fill="#3C71DF"/>
<path d="M4.30696 60.9991C4.30696 60.9991 34.4269 52.5346 30.0539 72.036C29.2945 75.1217 18.363 91.0098 31.3841 98.6381C34.1801 100.276 37.4067 101.002 40.6469 100.985C46.4563 100.955 55.6661 99.8364 59.8035 95.6251C65.3485 89.9805 59.2907 92.6573 59.2907 92.6573C59.2907 92.6573 41.9924 99.7728 33.093 94.1008C30.0543 92.1641 28.6769 88.4143 29.5021 84.9065C29.9239 83.1641 30.5661 81.4826 31.4133 79.9027C33.3488 76.2777 42.1942 59.75 22.8223 54.947C18.3597 53.8843 11.8783 52.9296 3.52098 56.4483C-4.8363 59.967 4.30696 60.9991 4.30696 60.9991Z" fill="#80A9FF"/>
<path d="M63.8537 88.2933L58.2428 90.3933C56.306 91.1182 55.3235 93.276 56.0484 95.2128L56.3265 95.956C57.0514 97.8928 59.2092 98.8753 61.1461 98.1504L66.7569 96.0505C68.6938 95.3256 69.6763 93.1678 68.9514 91.2309L68.6732 90.4878C67.9483 88.5509 65.7906 87.5684 63.8537 88.2933Z" fill="#3C71DF"/>
<path d="M73.3333 79.0618L65.0177 82.174C63.0809 82.8989 62.0984 85.0567 62.8233 86.9936L66.833 97.7073C67.5579 99.6442 69.7157 100.627 71.6525 99.9018L79.9681 96.7895C81.905 96.0646 82.8875 93.9068 82.1626 91.97L78.1529 81.2563C77.428 79.3194 75.2702 78.3369 73.3333 79.0618Z" fill="#6597FF"/>
<path d="M87.1769 70.8133L74.776 75.4545C72.8392 76.1794 71.8567 78.3372 72.5816 80.2741L78.6904 96.5963C79.4153 98.5332 81.573 99.5157 83.5099 98.7908L95.9108 94.1496C97.8476 93.4247 98.8301 91.2669 98.1052 89.33L91.9965 73.0078C91.2716 71.0709 89.1138 70.0884 87.1769 70.8133Z" fill="#6597FF"/>
<path d="M89.8038 67.433L89.6861 67.477C88.3949 67.9603 87.7399 69.3988 88.2232 70.69L96.7809 93.5557C97.2642 94.8469 98.7027 95.5019 99.994 95.0187L100.112 94.9746C101.403 94.4914 102.058 93.0529 101.575 91.7616L93.0168 68.896C92.5335 67.6047 91.095 66.9497 89.8038 67.433Z" fill="#3C71DF"/>
<path d="M121.47 52.8657C121.023 52.8161 120.613 52.5953 120.326 52.2495C120.039 51.9038 119.898 51.4602 119.931 51.0122L120.856 34.1116C120.912 33.1021 121.764 32.3351 122.732 32.4243L124.08 32.5491C125.047 32.6384 125.74 33.5477 125.604 34.5501L123.331 51.3258C123.278 51.7727 123.056 52.1822 122.709 52.469C122.363 52.7558 121.919 52.8979 121.47 52.8657Z" fill="#5088F4"/>
<path d="M113.48 54.323C113.341 54.3638 113.196 54.3769 113.052 54.3614C112.908 54.3459 112.768 54.3023 112.641 54.2329C112.514 54.1635 112.402 54.0698 112.311 53.9571C112.22 53.8444 112.153 53.7149 112.112 53.5759L108.808 43.0629C108.712 42.7639 108.738 42.439 108.881 42.1595C109.024 41.88 109.272 41.6687 109.571 41.572L110.427 41.3138C110.574 41.271 110.728 41.259 110.879 41.2788C111.031 41.2985 111.177 41.3494 111.308 41.4283C111.439 41.5073 111.552 41.6125 111.64 41.7374C111.728 41.8623 111.79 42.0041 111.82 42.1539L114.269 52.9251C114.338 53.2147 114.294 53.5193 114.148 53.7783C114.002 54.0374 113.763 54.2318 113.48 54.323Z" fill="#5088F4"/>
<path d="M109.022 60.3855C108.43 61.119 107.239 61.1103 106.322 60.3656L90.0497 47.1446C89.0778 46.3548 88.7909 45.0476 89.419 44.27L90.2944 43.1855C90.9225 42.4076 92.2125 42.4713 93.1323 43.3258L108.53 57.6315C109.397 58.4371 109.614 59.6519 109.022 60.3855Z" fill="#5088F4"/>
<path d="M116.544 94.5343C116.963 94.6963 117.303 95.0146 117.492 95.4221C117.681 95.8297 117.705 96.2947 117.558 96.7194L112.347 112.823C112.036 113.785 111.016 114.308 110.103 113.975L108.831 113.51C107.919 113.177 107.481 112.121 107.868 111.186L114.351 95.5479C114.515 95.1289 114.835 94.7897 115.244 94.6009C115.652 94.412 116.118 94.3882 116.544 94.5343Z" fill="#5088F4"/>
<path d="M124.64 95.1657C124.785 95.1617 124.929 95.1863 125.064 95.238C125.2 95.2897 125.323 95.3675 125.429 95.467C125.534 95.5665 125.618 95.6858 125.677 95.818C125.736 95.9502 125.769 96.0927 125.773 96.2374L126.282 107.246C126.299 107.559 126.19 107.867 125.981 108.1C125.771 108.334 125.477 108.475 125.163 108.492L124.27 108.523C124.117 108.527 123.965 108.5 123.824 108.442C123.682 108.384 123.554 108.297 123.448 108.188C123.341 108.078 123.259 107.947 123.205 107.804C123.152 107.661 123.129 107.508 123.137 107.355L123.521 96.3158C123.529 96.0185 123.648 95.7351 123.856 95.522C124.063 95.3088 124.343 95.1817 124.64 95.1657Z" fill="#5088F4"/>
<path d="M130.5 90.4429C131.259 89.8848 132.408 90.1973 133.104 91.1513L145.461 108.089C146.199 109.101 146.142 110.438 145.336 111.03L144.213 111.855C143.407 112.446 142.176 112.055 141.505 110.994L130.271 93.2306C129.639 92.2308 129.74 91.0008 130.5 90.4429Z" fill="#5088F4"/>
</svg>
