<svg width="16" height="16" viewBox="0 0 16 16" fill="none" xmlns="http://www.w3.org/2000/svg">
<path d="M8 3H3C2.44772 3 2 3.44772 2 4V12C2 12.5523 2.44772 13 3 13H13C13.5523 13 14 12.5523 14 12V9.32781" stroke="currentColor" stroke-linecap="round"/>
<path d="M10 2.5C9.72386 2.5 9.5 2.72386 9.5 3C9.5 3.27614 9.72386 3.5 10 3.5V2.5ZM14 3.5C14.2761 3.5 14.5 3.27614 14.5 3C14.5 2.72386 14.2761 2.5 14 2.5V3.5ZM10 3.5H14V2.5H10V3.5Z" fill="currentColor"/>
<path d="M10 4.5C9.72386 4.5 9.5 4.72386 9.5 5C9.5 5.27614 9.72386 5.5 10 5.5V4.5ZM14 5.5C14.2761 5.5 14.5 5.27614 14.5 5C14.5 4.72386 14.2761 4.5 14 4.5V5.5ZM10 5.5H14V4.5H10V5.5Z" fill="currentColor"/>
<path d="M10 6.5C9.72386 6.5 9.5 6.72386 9.5 7C9.5 7.27614 9.72386 7.5 10 7.5V6.5ZM14 7.5C14.2761 7.5 14.5 7.27614 14.5 7C14.5 6.72386 14.2761 6.5 14 6.5V7.5ZM10 7.5H14V6.5H10V7.5Z" fill="currentColor"/>
<path d="M4 6L6 8L4 10" stroke="currentColor" stroke-linecap="round" stroke-linejoin="round"/>
<path d="M6 11H12" stroke="currentColor" stroke-linecap="round" stroke-linejoin="round"/>
</svg>
