<svg width="16" height="16" viewBox="0 0 16 16" fill="none" xmlns="http://www.w3.org/2000/svg">
<path d="M8 3H3C2.44772 3 2 3.44772 2 4V12C2 12.5523 2.44772 13 3 13H13C13.5523 13 14 12.5523 14 12V9.32781" stroke="#6A7692" stroke-linecap="round"/>
<path d="M4 6L6 8L4 10" stroke="#6A7692" stroke-linecap="round" stroke-linejoin="round"/>
<path d="M6 11H12" stroke="#6A7692" stroke-linecap="round" stroke-linejoin="round"/>
<path fill-rule="evenodd" clip-rule="evenodd" d="M15 5C15 6.65685 13.6569 8 12 8C10.3431 8 9 6.65685 9 5C9 3.34315 10.3431 2 12 2C13.6569 2 15 3.34315 15 5ZM13.3536 3.64645C13.5488 3.84171 13.5488 4.15829 13.3536 4.35355L12.7071 5L13.3536 5.64645C13.5488 5.84171 13.5488 6.15829 13.3536 6.35355C13.1583 6.54882 12.8417 6.54882 12.6464 6.35355L12 5.70711L11.3536 6.35355C11.1583 6.54882 10.8417 6.54882 10.6464 6.35355C10.4512 6.15829 10.4512 5.84171 10.6464 5.64645L11.2929 5L10.6464 4.35355C10.4512 4.15829 10.4512 3.84171 10.6464 3.64645C10.8417 3.45118 11.1583 3.45118 11.3536 3.64645L12 4.29289L12.6464 3.64645C12.8417 3.45118 13.1583 3.45118 13.3536 3.64645Z" fill="#A50505"/>
</svg>
