<svg width="144" height="124" fill="none" xmlns="http://www.w3.org/2000/svg"><path d="M71.129 109c28.924 0 52.374-23.408 52.374-52.386 0-28.977-23.553-52.385-52.374-52.385-28.925 0-52.375 23.408-52.375 52.386 0 28.977 23.45 52.385 52.375 52.385Zm48.966-86.726a4.231 4.231 0 0 0 4.235-4.228 4.231 4.231 0 0 0-4.235-4.228 4.232 4.232 0 0 0-4.236 4.228 4.232 4.232 0 0 0 4.236 4.228Zm6.198-16.499a2.89 2.89 0 0 0 2.892-2.888A2.89 2.89 0 0 0 126.293 0a2.89 2.89 0 0 0-2.893 2.887 2.89 2.89 0 0 0 2.893 2.888ZM21.543 22.171a2.89 2.89 0 0 0 2.892-2.887 2.89 2.89 0 0 0-2.892-2.887 2.89 2.89 0 0 0-2.893 2.887 2.89 2.89 0 0 0 2.893 2.887ZM9.372 84.589c2.966 0 5.371-2.4 5.371-5.362a5.367 5.367 0 0 0-5.371-5.363A5.367 5.367 0 0 0 4 79.227a5.367 5.367 0 0 0 5.372 5.362Z" fill="#EAEEF9"/><path d="M143.998 95.2c-.075 2.546-2.325 4.492-4.875 4.492h-33.002c-1.2 0-2.175.899-2.25 2.022-.075 1.273.9 2.246 2.175 2.246h8.401c.525 0 .975.449.975.973s-.45.974-.975.974H64.944c-2.55 0-4.725-1.947-4.875-4.493a4.655 4.655 0 0 1 4.65-4.791h7.275c1.05-.15 1.95-1.049 1.95-2.172a2.175 2.175 0 0 0-2.175-2.171H49.418c-3.75 0-6.975-2.77-7.2-6.514-.3-4.043 2.925-7.413 6.975-7.413h65.854c3.825 0 6.975 3.145 6.975 6.964 0 1.647-.6 3.144-1.5 4.342.45.225.825.45 1.2.749h17.851c2.4.075 4.5 2.171 4.425 4.792Z" fill="#C0D6FF"/><g filter="url(#queryError__a)"><path d="m94.907 30.227-19.726 3.818-33.077 6.44-14.55 2.844c-2.626.524-4.426 2.92-4.201 5.616l2.85 31.82c.225 2.621 2.475 4.718 5.1 4.718l68.63.823-5.026-56.08Z" fill="url(#queryError__b)"/></g><path d="m75.93 33.97-33.076 6.44c-.375 1.797-.525 3.594-.3 5.466.9 10.107 9.825 17.52 19.876 16.621 10.05-.898 17.476-9.808 16.576-19.841-.3-3.22-1.35-6.14-3.075-8.685Z" fill="url(#queryError__c)"/><g filter="url(#queryError__d)"><path d="m77 34-49.447 9.33c-2.625.523-4.425 2.92-4.2 5.615l2.85 31.82c.225 2.621 2.475 4.718 5.1 4.718l67.523.81a1 1 0 0 0 1.008-1.09l-4.828-53.868a1 1 0 0 0-1.19-.892L88.5 31.5m-3.456.637-4.932.954" stroke="#6F7590" stroke-linecap="round"/></g><g filter="url(#queryError__e)"><path d="m103.081 32.474 4.576 50.24c0 .374-.225.748-.6.823l-5.476 1.198-4.875-53.16 5.625.15c.375 0 .675.374.75.749Z" fill="url(#queryError__f)"/></g><g filter="url(#queryError__g)"><path d="m106 66.5-1.775-21.466-1.144-12.56c-.075-.375-.375-.75-.75-.75l-5.625-.149 4.875 53.16 5.476-1.198c.375-.075.6-.45.6-.824l-.572-6.28-.572-6.28" stroke="#6F7590"/></g><g filter="url(#queryError__h)"><path d="m90.557 28.28 5.55 60.797c.075.45.525.75.9.525l5.4-2.097c.675-.3 1.125-1.048 1.05-1.797l-5.025-55.63c-.075-.749-.6-1.348-1.35-1.573l-5.7-.973c-.45-.075-.825.3-.825.749Z" fill="url(#queryError__i)"/></g><g filter="url(#queryError__j)"><path d="m93.332 58.68 2.775 30.398c.075.449.525.748.9.524l5.4-2.097c.675-.3 1.125-1.048 1.05-1.797l-5.025-55.63c-.075-.749-.6-1.348-1.35-1.573l-5.7-.973c-.45-.075-.825.3-.825.749l.693 7.6M91.382 40l1.95 16" stroke="#6F7590"/></g><defs><filter id="queryError__a" x="1.334" y="19.227" width="120.598" height="100.08" filterUnits="userSpaceOnUse" color-interpolation-filters="sRGB"><feFlood flood-opacity="0" result="BackgroundImageFix"/><feColorMatrix in="SourceAlpha" values="0 0 0 0 0 0 0 0 0 0 0 0 0 0 0 0 0 0 127 0" result="hardAlpha"/><feOffset dy="11"/><feGaussianBlur stdDeviation="11"/><feColorMatrix values="0 0 0 0 0.397708 0 0 0 0 0.47749 0 0 0 0 0.575 0 0 0 0.27 0"/><feBlend in2="BackgroundImageFix" result="effect1_dropShadow_2825_165299"/><feBlend in="SourceGraphic" in2="effect1_dropShadow_2825_165299" result="shape"/></filter><filter id="queryError__d" x=".834" y="18.924" width="121.504" height="100.869" filterUnits="userSpaceOnUse" color-interpolation-filters="sRGB"><feFlood flood-opacity="0" result="BackgroundImageFix"/><feColorMatrix in="SourceAlpha" values="0 0 0 0 0 0 0 0 0 0 0 0 0 0 0 0 0 0 127 0" result="hardAlpha"/><feOffset dy="11"/><feGaussianBlur stdDeviation="11"/><feColorMatrix values="0 0 0 0 0.397708 0 0 0 0 0.47749 0 0 0 0 0.575 0 0 0 0.27 0"/><feBlend in2="BackgroundImageFix" result="effect1_dropShadow_2825_165299"/><feBlend in="SourceGraphic" in2="effect1_dropShadow_2825_165299" result="shape"/></filter><filter id="queryError__e" x="74.706" y="20.575" width="54.951" height="97.16" filterUnits="userSpaceOnUse" color-interpolation-filters="sRGB"><feFlood flood-opacity="0" result="BackgroundImageFix"/><feColorMatrix in="SourceAlpha" values="0 0 0 0 0 0 0 0 0 0 0 0 0 0 0 0 0 0 127 0" result="hardAlpha"/><feOffset dy="11"/><feGaussianBlur stdDeviation="11"/><feColorMatrix values="0 0 0 0 0.397708 0 0 0 0 0.47749 0 0 0 0 0.575 0 0 0 0.27 0"/><feBlend in2="BackgroundImageFix" result="effect1_dropShadow_2825_165299"/><feBlend in="SourceGraphic" in2="effect1_dropShadow_2825_165299" result="shape"/></filter><filter id="queryError__g" x="74.157" y="20.061" width="56" height="98.284" filterUnits="userSpaceOnUse" color-interpolation-filters="sRGB"><feFlood flood-opacity="0" result="BackgroundImageFix"/><feColorMatrix in="SourceAlpha" values="0 0 0 0 0 0 0 0 0 0 0 0 0 0 0 0 0 0 127 0" result="hardAlpha"/><feOffset dy="11"/><feGaussianBlur stdDeviation="11"/><feColorMatrix values="0 0 0 0 0.397708 0 0 0 0 0.47749 0 0 0 0 0.575 0 0 0 0.27 0"/><feBlend in2="BackgroundImageFix" result="effect1_dropShadow_2825_165299"/><feBlend in="SourceGraphic" in2="effect1_dropShadow_2825_165299" result="shape"/></filter><filter id="queryError__h" x="68.557" y="16.523" width="56.909" height="106.155" filterUnits="userSpaceOnUse" color-interpolation-filters="sRGB"><feFlood flood-opacity="0" result="BackgroundImageFix"/><feColorMatrix in="SourceAlpha" values="0 0 0 0 0 0 0 0 0 0 0 0 0 0 0 0 0 0 127 0" result="hardAlpha"/><feOffset dy="11"/><feGaussianBlur stdDeviation="11"/><feColorMatrix values="0 0 0 0 0.397708 0 0 0 0 0.47749 0 0 0 0 0.575 0 0 0 0.27 0"/><feBlend in2="BackgroundImageFix" result="effect1_dropShadow_2825_165299"/><feBlend in="SourceGraphic" in2="effect1_dropShadow_2825_165299" result="shape"/></filter><filter id="queryError__j" x="68.057" y="16.021" width="57.909" height="107.156" filterUnits="userSpaceOnUse" color-interpolation-filters="sRGB"><feFlood flood-opacity="0" result="BackgroundImageFix"/><feColorMatrix in="SourceAlpha" values="0 0 0 0 0 0 0 0 0 0 0 0 0 0 0 0 0 0 127 0" result="hardAlpha"/><feOffset dy="11"/><feGaussianBlur stdDeviation="11"/><feColorMatrix values="0 0 0 0 0.397708 0 0 0 0 0.47749 0 0 0 0 0.575 0 0 0 0.27 0"/><feBlend in2="BackgroundImageFix" result="effect1_dropShadow_2825_165299"/><feBlend in="SourceGraphic" in2="effect1_dropShadow_2825_165299" result="shape"/></filter><linearGradient id="queryError__b" x1="61.608" y1="28.929" x2="61.608" y2="86.911" gradientUnits="userSpaceOnUse"><stop stop-color="#FDFEFF"/><stop offset=".996" stop-color="#ECF0F5"/></linearGradient><linearGradient id="queryError__c" x1="42.459" y1="48.285" x2="79.098" y2="48.285" gradientUnits="userSpaceOnUse"><stop stop-color="#BDCDF4"/><stop offset="1" stop-color="#BDCDF4"/></linearGradient><linearGradient id="queryError__f" x1="102.178" y1="30.346" x2="102.178" y2="85.308" gradientUnits="userSpaceOnUse"><stop stop-color="#FDFEFF"/><stop offset=".996" stop-color="#ECF0F5"/></linearGradient><linearGradient id="queryError__i" x1="97.007" y1="26.085" x2="97.007" y2="90.348" gradientUnits="userSpaceOnUse"><stop stop-color="#FDFEFF"/><stop offset=".996" stop-color="#ECF0F5"/></linearGradient></defs></svg>