<svg width="16" height="16" fill="none" xmlns="http://www.w3.org/2000/svg"><path d="M8 14.5a6.5 6.5 0 1 0 0-13 6.5 6.5 0 0 0 0 13Z" stroke="#6F7590" stroke-linecap="round" stroke-linejoin="round"/><path d="M8 11.75a.5.5 0 1 0 0-1 .5.5 0 0 0 0 1Z" fill="#6F7590"/><path d="M8 9.55V8.44a2.04 2.04 0 0 0 1.111-.329c.329-.213.585-.517.737-.872a1.91 1.91 0 0 0 .114-1.124 1.929 1.929 0 0 0-.548-.995 2.018 2.018 0 0 0-1.024-.533 2.053 2.053 0 0 0-1.155.111 1.989 1.989 0 0 0-.898.716c-.22.32-.337.696-.337 1.08" stroke="#6F7590" stroke-linecap="round" stroke-linejoin="round"/></svg>