<svg width="16" height="16" viewBox="0 0 16 16" fill="none" xmlns="http://www.w3.org/2000/svg">
<path d="M2.75 7.5H6C6.13261 7.5 6.25979 7.55268 6.35355 7.64645C6.44732 7.74021 6.5 7.86739 6.5 8V12C6.5 12.1326 6.44732 12.2598 6.35355 12.3536C6.25979 12.4473 6.13261 12.5 6 12.5H3C2.86739 12.5 2.74377 12.4473 2.65 12.3536C2.55623 12.2598 2.5 12.1326 2.5 12V5.5C2.5 4.83696 2.76116 4.20107 3.23 3.73223C3.69884 3.26339 4.33696 3 5 3" stroke="#6F7590" stroke-linecap="round" stroke-linejoin="round"/>
<path d="M9.75 7.5H13C13.1326 7.5 13.2598 7.55268 13.3536 7.64645C13.4473 7.74021 13.5 7.86739 13.5 8V12C13.5 12.1326 13.4473 12.2598 13.3536 12.3536C13.2598 12.4473 13.1326 12.5 13 12.5H10C9.86739 12.5 9.74377 12.4473 9.65 12.3536C9.55623 12.2598 9.5 12.1326 9.5 12V5.5C9.5 4.83696 9.76116 4.20107 10.23 3.73223C10.6988 3.26339 11.337 3 12 3" stroke="#6F7590" stroke-linecap="round" stroke-linejoin="round"/>
</svg>
