<svg width="16" height="16" viewBox="0 0 16 16" fill="none" xmlns="http://www.w3.org/2000/svg">
<path d="M5.5 2.5H3.5C2.94772 2.5 2.5 2.94772 2.5 3.5V5.5" stroke="currentColor" stroke-linecap="round" stroke-linejoin="round"/>
<path d="M13.5 5.5L13.5 3.5C13.5 2.94772 13.0523 2.5 12.5 2.5L10.5 2.5" stroke="currentColor" stroke-linecap="round" stroke-linejoin="round"/>
<path d="M10.5 13.5L12.5 13.5C13.0523 13.5 13.5 13.0523 13.5 12.5L13.5 10.5" stroke="currentColor" stroke-linecap="round" stroke-linejoin="round"/>
<path d="M2.5 10.5L2.5 12.5C2.5 13.0523 2.94772 13.5 3.5 13.5L5.5 13.5" stroke="currentColor" stroke-linecap="round" stroke-linejoin="round"/>
<path fill-rule="evenodd" clip-rule="evenodd" d="M8.5 4.5C8.5 4.22386 8.27614 4 8 4C7.72386 4 7.5 4.22386 7.5 4.5V6.06301C6.7972 6.2439 6.2439 6.7972 6.06301 7.5H4.5C4.22386 7.5 4 7.72386 4 8C4 8.27614 4.22386 8.5 4.5 8.5H6.06301C6.2439 9.2028 6.7972 9.7561 7.5 9.93699V11.5C7.5 11.7761 7.72386 12 8 12C8.27614 12 8.5 11.7761 8.5 11.5V9.93699C9.2028 9.7561 9.7561 9.2028 9.93699 8.5H11.5C11.7761 8.5 12 8.27614 12 8C12 7.72386 11.7761 7.5 11.5 7.5H9.93699C9.7561 6.7972 9.2028 6.2439 8.5 6.06301V4.5ZM8 9C8.55228 9 9 8.55228 9 8C9 7.44772 8.55228 7 8 7C7.44772 7 7 7.44772 7 8C7 8.55228 7.44772 9 8 9Z" fill="currentColor"/>
</svg>
