<svg viewBox="0 0 24 24" fill="none" xmlns="http://www.w3.org/2000/svg"><path d="M14.5 16.5v-6a2 2 0 0 0-2-2h-8a2 2 0 0 0-2 2v8a2 2 0 0 0 2 2h6" stroke="#5277D7" stroke-linecap="round"/><path stroke="#5277D7" d="M3 12.5h11m-5-6h11"/><circle cx="14.5" cy="20.5" r="2" fill="#F4F6FD" stroke="#5277D7"/><circle cx="20.5" cy="13.5" r="2" fill="#F4F6FD" stroke="#5277D7"/><path d="M8.5 8.5v-4a2 2 0 0 1 2-2h8a2 2 0 0 1 2 2v5m-5.5 4h1.5m4 2.5v2.5a2 2 0 0 1-2 2H17" stroke="#5277D7" stroke-linecap="round"/></svg>