<svg  viewBox="0 0 20 18" fill="none" xmlns="http://www.w3.org/2000/svg">
<path d="M4.35279 5.29044L5.8475 4.85003C5.96529 4.81536 6.08901 4.80336 6.21162 4.81472C6.33422 4.82607 6.4533 4.86056 6.56206 4.9162C6.67081 4.97185 6.76711 5.04757 6.84547 5.13903C6.92382 5.2305 6.98268 5.33592 7.0187 5.44928C7.05472 5.56264 7.06719 5.68172 7.05539 5.79972C7.04359 5.91772 7.00776 6.03233 6.94995 6.137C6.89213 6.24167 6.81346 6.33435 6.71842 6.40976C6.62338 6.48517 6.51385 6.54183 6.39606 6.57649L2.80932 7.63241C2.69148 7.66708 2.56769 7.67906 2.44503 7.66766C2.32237 7.65626 2.20325 7.6217 2.09447 7.56597C1.9857 7.51023 1.88941 7.4344 1.8111 7.34282C1.7328 7.25124 1.67402 7.14571 1.63812 7.03225L0.541001 3.58023C0.504982 3.46686 0.492515 3.34778 0.504312 3.22979C0.516109 3.11179 0.55194 2.99718 0.609757 2.89251C0.726525 2.68112 0.925762 2.52303 1.16364 2.45302C1.40152 2.383 1.65855 2.40681 1.87819 2.51919C1.98695 2.57483 2.08325 2.65055 2.1616 2.74202C2.23996 2.83348 2.29882 2.93891 2.33484 3.05227L2.74743 4.35276C5.00544 1.00542 9.48488 -0.434051 13.4617 1.13448C14.651 1.60365 15.719 2.31795 16.5906 3.22713C17.4622 4.13631 18.1162 5.21828 18.5066 6.3969C18.5466 6.51043 18.5627 6.63051 18.554 6.7501C18.5452 6.8697 18.5118 6.98642 18.4557 7.09345C18.3996 7.20049 18.3219 7.29568 18.2271 7.37348C18.1323 7.45128 18.0224 7.51013 17.9037 7.54658C17.785 7.58304 17.66 7.59637 17.5359 7.58579C17.4118 7.57522 17.2912 7.54096 17.181 7.48502C17.0708 7.42907 16.9733 7.35255 16.8942 7.25994C16.8151 7.16732 16.756 7.06047 16.7203 6.94561C16.3241 5.74834 15.5842 4.68333 14.5859 3.87353C13.5877 3.06374 12.3718 2.5422 11.0787 2.36913C9.78557 2.19605 8.46798 2.37851 7.27802 2.89543C6.08807 3.41234 5.07428 4.24264 4.35373 5.29044H4.35279ZM15.9119 12.6864L14.2475 13.0862C14.127 13.118 14.0011 13.1263 13.8772 13.1106C13.7533 13.0949 13.6339 13.0555 13.526 12.9948C13.4182 12.934 13.324 12.8532 13.2491 12.7569C13.1741 12.6607 13.1199 12.551 13.0897 12.4343C13.0594 12.3176 13.0537 12.1962 13.0729 12.0774C13.0921 11.9585 13.1357 11.8446 13.2013 11.7422C13.2669 11.6398 13.3531 11.5511 13.4548 11.4812C13.5565 11.4113 13.6717 11.3617 13.7937 11.3353L17.2097 10.515C17.3877 10.4335 17.5879 10.4082 17.7817 10.4428C17.9685 10.4664 18.1435 10.5436 18.284 10.6643C18.4245 10.7851 18.5239 10.9437 18.5694 11.1196L19.4771 14.6213C19.5309 14.8513 19.489 15.0924 19.3605 15.293C19.2319 15.4937 19.0269 15.638 18.7893 15.6951C18.5516 15.7521 18.3002 15.7174 18.0888 15.5984C17.8774 15.4794 17.7227 15.2854 17.658 15.0581L17.3485 13.865C16.4457 15.1155 15.2091 16.1084 13.7691 16.7393C12.3291 17.3701 10.739 17.6155 9.16622 17.4496C7.59347 17.2837 6.09634 16.7126 4.83253 15.7965C3.56872 14.8803 2.58503 13.6531 1.98507 12.2441L1.74127 11.672C1.64701 11.4504 1.64805 11.2019 1.74416 10.9812C1.84026 10.7604 2.02356 10.5854 2.25373 10.4947C2.4839 10.4039 2.74208 10.4049 2.97148 10.4974C3.20089 10.5899 3.38272 10.7663 3.47697 10.9879L3.72078 11.5591C4.19877 12.6817 4.98621 13.6573 5.99811 14.3806C7.01001 15.104 8.20795 15.5477 9.46266 15.6638C10.7174 15.7799 11.9812 15.564 13.1178 15.0395C14.2543 14.5149 15.2205 13.7016 15.9119 12.6873V12.6864Z" fill="currentColor"/>
</svg>
