<svg viewBox="0 0 32 32" fill="none" xmlns="http://www.w3.org/2000/svg">
<rect width="32" height="32" rx="4" fill="#F4F6FD"/>
<path d="M21 9.5H11C10.7239 9.5 10.5 9.72386 10.5 10V20C10.5 20.2761 10.7239 20.5 11 20.5H21C21.2761 20.5 21.5 20.2761 21.5 20V10C21.5 9.72386 21.2761 9.5 21 9.5Z" stroke="#5277D7" stroke-linecap="round" stroke-linejoin="round"/>
<path d="M21.5 16.9999L18.8536 14.3535C18.7598 14.2597 18.6326 14.207 18.5 14.207C18.3674 14.207 18.2402 14.2597 18.1464 14.3535L15.3536 17.1464C15.2598 17.2401 15.1326 17.2928 15 17.2928C14.8674 17.2928 14.7402 17.2401 14.6464 17.1464L13.3536 15.8535C13.2598 15.7597 13.1326 15.707 13 15.707C12.8674 15.707 12.7402 15.7597 12.6464 15.8535L10.5 17.9999" stroke="#5277D7" stroke-linecap="round" stroke-linejoin="round"/>
<path d="M14.25 13.25C14.5261 13.25 14.75 13.0261 14.75 12.75C14.75 12.4739 14.5261 12.25 14.25 12.25C13.9739 12.25 13.75 12.4739 13.75 12.75C13.75 13.0261 13.9739 13.25 14.25 13.25Z" fill="#5277D7"/>
</svg>
