<svg  viewBox="0 0 141 126" fill="none" xmlns="http://www.w3.org/2000/svg">
<path d="M17.1534 28.2673C18.5119 27.8213 19.2552 26.3473 18.8137 24.975C18.3721 23.6027 16.9129 22.8518 15.5545 23.2979C14.196 23.7439 13.4527 25.2179 13.8942 26.5902C14.3357 27.9625 15.7949 28.7134 17.1534 28.2673Z" fill="#EAEEF9"/>
<path d="M22.7999 19.7432C23.7237 19.4399 24.2292 18.4375 23.9289 17.5044C23.6287 16.5712 22.6364 16.0606 21.7127 16.3639C20.7889 16.6672 20.2834 17.6696 20.5837 18.6027C20.8839 19.5359 21.8762 20.0465 22.7999 19.7432Z" fill="#EAEEF9"/>
<path d="M127.662 37.1159C129.264 35.6363 129.376 33.1242 127.912 31.5051C126.447 29.886 123.96 29.7729 122.357 31.2525C120.754 32.7322 120.642 35.2442 122.107 36.8633C123.572 38.4825 126.059 38.5955 127.662 37.1159Z" fill="#EAEEF9"/>
<path d="M127.959 19.3114C128.634 18.6884 128.681 17.6307 128.065 16.949C127.448 16.2673 126.401 16.2197 125.726 16.8427C125.051 17.4657 125.004 18.5234 125.621 19.2051C126.237 19.8868 127.284 19.9345 127.959 19.3114Z" fill="#EAEEF9"/>
<path d="M68.8134 114C97.2113 114 120.232 90.7451 120.232 62.0584C120.232 33.3718 97.2113 10.1167 68.8134 10.1167C40.4156 10.1167 17.3945 33.3718 17.3945 62.0584C17.3945 90.7451 40.4156 114 68.8134 114Z" fill="#EAEEF9"/>
<g filter="url(#filter0_d_2302:1285067)">
<mask id="path-6-inside-1_2302:1285067" fill="white">
<path d="M92.2854 93H112.62C115.019 93 117 91.2675 117 89.1702V42.6657V40.8419V36.8298C117 34.7325 115.019 33 112.62 33H112.412H26.3798C23.9813 33 22 34.7325 22 36.8298V42.6657V89.1702C22 91.2675 23.9813 93 26.3798 93H81.9616"/>
</mask>
<path d="M92.2854 93H112.62C115.019 93 117 91.2675 117 89.1702V42.6657V40.8419V36.8298C117 34.7325 115.019 33 112.62 33H112.412H26.3798C23.9813 33 22 34.7325 22 36.8298V42.6657V89.1702C22 91.2675 23.9813 93 26.3798 93H81.9616" fill="white"/>
<path d="M92.2854 94H112.62V92H92.2854V94ZM112.62 94C115.441 94 118 91.9416 118 89.1702H116C116 90.5934 114.597 92 112.62 92V94ZM118 89.1702V42.6657H116V89.1702H118ZM118 42.6657V40.8419H116V42.6657H118ZM118 40.8419V36.8298H116V40.8419H118ZM118 36.8298C118 34.0584 115.441 32 112.62 32V34C114.597 34 116 35.4066 116 36.8298H118ZM112.62 32H112.412V34H112.62V32ZM112.412 32H26.3798V34H112.412V32ZM26.3798 32C23.5593 32 21 34.0584 21 36.8298H23C23 35.4066 24.4034 34 26.3798 34V32ZM21 36.8298V42.6657H23V36.8298H21ZM21 42.6657V89.1702H23V42.6657H21ZM21 89.1702C21 91.9416 23.5593 94 26.3798 94V92C24.4034 92 23 90.5934 23 89.1702H21ZM26.3798 94H81.9616V92H26.3798V94Z" fill="#6F7590" mask="url(#path-6-inside-1_2302:1285067)"/>
</g>
<path d="M65.1414 58.8774L48.2776 58.7729C47.5534 58.7729 47.0361 58.1458 47.0361 57.5188C47.0361 56.7872 47.6569 56.2646 48.2776 56.2646L65.1414 56.3692C65.8656 56.3692 66.3829 56.9962 66.3829 57.6233C66.3829 58.2503 65.8656 58.8774 65.1414 58.8774Z" fill="#E3EAF2"/>
<path d="M105.179 58.8774L85.7288 58.7729C85.0046 58.7729 84.4873 58.1458 84.4873 57.5188C84.4873 56.7872 85.1081 56.2646 85.7288 56.2646L105.076 56.3692C105.8 56.3692 106.317 56.9962 106.317 57.6233C106.421 58.2503 105.903 58.8774 105.179 58.8774Z" fill="#E3EAF2"/>
<path d="M92.2464 83.4375L72.7962 83.333C72.072 83.333 71.5547 82.7059 71.5547 82.0788C71.5547 81.3473 72.1754 80.8247 72.7962 80.8247L92.2464 80.9292C92.9706 80.9292 93.4879 81.5563 93.4879 82.1833C93.4879 82.9149 92.8672 83.4375 92.2464 83.4375Z" fill="url(#paint0_linear_2302:1285067)"/>
<path d="M80.2461 58.7729L70.8314 58.6684C70.1071 58.6684 69.5898 58.0413 69.5898 57.4143C69.5898 56.6827 70.2106 56.1602 70.8314 56.1602L80.2461 56.2647C80.9703 56.2647 81.4876 56.8917 81.4876 57.5188C81.591 58.2504 80.9703 58.7729 80.2461 58.7729Z" fill="#C0D6FF"/>
<path d="M41.5521 58.6684H34.6204C33.8962 58.6684 33.3789 58.0413 33.3789 57.4143C33.3789 56.6827 33.8962 56.1602 34.6204 56.1602H41.5521C42.2763 56.1602 42.7936 56.7872 42.7936 57.4143C42.7936 58.1459 42.2763 58.6684 41.5521 58.6684Z" fill="#C0D6FF"/>
<path d="M68.4508 67.0288L58.3118 66.9243C57.5876 66.9243 57.0703 66.2972 57.0703 65.6701C57.0703 64.9386 57.6911 64.416 58.3118 64.416L68.4508 64.5205C69.175 64.5205 69.6923 65.1476 69.6923 65.7747C69.7957 66.4017 69.175 67.0288 68.4508 67.0288Z" fill="url(#paint1_linear_2302:1285067)"/>
<path d="M99.9021 67.2378L74.1409 66.9243C73.4167 66.9243 72.8994 66.2972 72.8994 65.6701C72.8994 64.9386 73.5202 64.416 74.1409 64.416L99.9021 64.7296C100.626 64.7296 101.144 65.3566 101.144 65.9837C101.144 66.6107 100.523 67.2378 99.9021 67.2378Z" fill="#E3EAF2"/>
<path d="M51.5876 66.9243H34.6204C33.8962 66.9243 33.3789 66.2972 33.3789 65.6701C33.3789 64.9386 33.9997 64.416 34.6204 64.416H51.5876C52.3118 64.416 52.8291 65.0431 52.8291 65.6701C52.8291 66.2972 52.3118 66.9243 51.5876 66.9243Z" fill="#E3EAF2"/>
<path d="M81.7969 75.1806L58.3118 75.0761C57.5876 75.0761 57.0703 74.4491 57.0703 73.822C57.0703 73.0904 57.6911 72.5679 58.3118 72.5679L81.9004 72.6724C82.6246 72.6724 83.1419 73.2994 83.1419 73.9265C83.1419 74.6581 82.5211 75.1806 81.7969 75.1806Z" fill="#C0D6FF"/>
<path d="M51.5876 75.0761H34.6204C33.8962 75.0761 33.3789 74.4491 33.3789 73.822C33.3789 73.0904 33.9997 72.5679 34.6204 72.5679H51.5876C52.3118 72.5679 52.8291 73.1949 52.8291 73.822C52.8291 74.4491 52.3118 75.0761 51.5876 75.0761Z" fill="#E3EAF2"/>
<path d="M66.2783 83.3325L53.346 83.228C52.6218 83.228 52.1045 82.6009 52.1045 81.9739C52.1045 81.2423 52.7252 80.7197 53.346 80.7197L66.2783 80.8242C67.0025 80.8242 67.5198 81.4513 67.5198 82.0784C67.5198 82.8099 67.0025 83.3325 66.2783 83.3325Z" fill="#E3EAF2"/>
<path d="M45.0697 83.228H34.6204C33.8962 83.228 33.3789 82.6009 33.3789 81.9739C33.3789 81.2423 33.9997 80.7197 34.6204 80.7197H45.0697C45.7939 80.7197 46.3112 81.3468 46.3112 81.9739C46.4147 82.7054 45.7939 83.228 45.0697 83.228Z" fill="url(#paint2_linear_2302:1285067)"/>
<path d="M82.2133 46.2314L34.6224 46.0224C33.8982 46.0224 33.3809 45.3954 33.3809 44.7683C33.3809 44.0367 34.0016 43.5142 34.6224 43.5142L82.2133 43.7232C82.9375 43.7232 83.4548 44.3502 83.4548 44.9773C83.4548 45.7089 82.9375 46.2314 82.2133 46.2314Z" fill="#6F7590"/>
<path d="M3.79338 47.5522C4.0003 47.7612 4.10376 47.9702 4.10376 48.2838C3.06917 51.3146 2.7588 51.4191 4.10376 51.9416C4.20722 51.9416 4.31067 52.1507 4.20721 52.2552C3.89684 53.0913 3.79338 53.7183 3.483 53.6138C-1.37955 51.8371 3.58646 48.4928 1.10346 47.5522C0.999998 47.5522 1 47.4477 1 47.3432L1.51729 45.7755C1.51729 45.671 1.62075 45.671 1.72421 45.671C2.96571 46.0891 3.06917 45.1485 3.483 43.9988C4.0003 42.3267 5.34526 41.8041 6.89714 42.3267C7.20751 42.4312 7.51789 42.5357 7.41443 42.7447C6.89714 44.3124 7.00059 44.2079 6.37984 43.9988C4.82796 43.4763 5.2418 47.6567 3.79338 47.5522Z" fill="#BDCDF4"/>
<path d="M137.359 47.8652C137.255 47.8652 137.255 47.9697 137.359 47.8652C137.566 48.0742 137.669 48.2832 137.669 48.5968C136.635 51.6276 136.324 51.7321 137.669 52.2546C137.773 52.2546 137.876 52.4637 137.773 52.5682C137.462 53.4043 137.359 54.0313 137.048 53.9268C132.186 52.1501 137.152 48.8058 134.669 47.8652C134.565 47.8652 134.565 47.7607 134.565 47.6562L135.083 46.0885C135.083 45.984 135.186 45.984 135.29 45.984C136.531 46.402 136.635 45.4615 137.048 44.3118C137.566 42.6397 138.911 42.1171 140.463 42.6397C140.773 42.7442 141.083 42.8487 140.98 43.0577C140.463 44.6254 140.566 44.5209 139.945 44.3118C138.29 43.8938 138.807 47.9697 137.359 47.8652Z" fill="url(#paint3_linear_2302:1285067)"/>
<path d="M76.9391 2.71727C76.8356 2.61276 76.8356 2.61276 76.9391 2.71727C76.7322 2.9263 76.5252 3.13532 76.3183 3.13532C73.2146 2.61276 73.0076 2.29923 72.6973 3.65787C72.6973 3.76238 72.5938 3.86689 72.3869 3.86689C71.4558 3.65787 70.9385 3.76238 70.9385 3.34434C71.8696 -1.88119 76.008 2.61276 76.4218 0.10451C76.4218 -5.99572e-07 76.5252 0 76.6287 0L78.1806 0.313531C78.284 0.313531 78.284 0.418042 78.284 0.522553C78.0771 1.77668 78.9048 1.77668 80.2497 1.9857C81.9051 2.29923 82.7328 3.44885 82.4224 5.12102C82.3189 5.43455 82.3189 5.74808 82.112 5.74808C80.5601 5.43455 80.5601 5.64357 80.767 4.912C80.974 3.03081 76.9391 4.18042 76.9391 2.71727Z" fill="url(#paint4_linear_2302:1285067)"/>
<path d="M45.3293 9.90795C44.6051 10.6395 44.5016 11.8937 45.2258 12.6252C45.6397 13.1478 46.3639 13.3568 47.0881 13.1478C47.3985 13.5658 47.3985 14.0884 47.1916 14.5064L46.0535 16.1786C45.9501 16.2831 45.8466 16.4921 45.8466 16.5966L44.7086 15.3425C45.0189 14.2974 44.5016 13.2523 43.4671 12.9388C42.4325 12.6252 41.3979 13.1478 41.0875 14.1929C40.7771 15.238 41.2944 16.2831 42.329 16.5966C42.6394 16.7011 43.0532 16.7011 43.3636 16.5966L46.3639 19.8365C46.0535 20.8816 46.5708 21.9267 47.6054 22.2402C48.64 22.5537 49.6746 22.0312 49.9849 20.9861C49.9849 20.8816 49.9849 20.8816 50.0884 20.777C50.0884 20.568 50.0884 20.359 50.0884 20.2545C49.9849 19.2094 49.0538 18.3733 47.9158 18.5823C47.8123 18.5823 47.8123 18.5823 47.7089 18.5823C47.3985 18.1643 47.295 17.6417 47.6054 17.2237L48.7434 15.5515C49.4676 14.4019 49.3642 12.9388 48.5365 11.8937C48.5365 11.7891 48.5365 11.6846 48.64 11.6846C48.64 11.4756 48.64 11.2666 48.64 11.1621C48.5365 10.117 47.6054 9.3854 46.5708 9.48991C45.9501 9.48991 45.6397 9.59442 45.3293 9.90795ZM42.4325 14.2974C42.7428 14.0884 43.0532 14.0884 43.3636 14.2974C43.5705 14.6109 43.5705 14.9245 43.3636 15.238C43.0532 15.447 42.7428 15.447 42.4325 15.238C42.1221 15.029 42.1221 14.6109 42.4325 14.2974ZM48.64 20.15C48.7434 20.2545 48.7434 20.359 48.7434 20.4635C48.7434 20.777 48.4331 21.0906 48.0192 21.0906C47.7089 21.0906 47.3985 20.777 47.3985 20.359C47.3985 20.2545 47.5019 20.0455 47.5019 19.941C47.6054 19.7319 47.8123 19.7319 48.0192 19.7319C48.3296 19.8365 48.5365 19.941 48.64 20.15ZM46.0535 10.8485C46.2604 10.535 46.6743 10.535 46.9846 10.744C47.0881 10.744 47.0881 10.8485 47.0881 10.9531C47.0881 11.0576 47.0881 11.0576 47.1916 11.1621C47.1916 11.2666 47.1916 11.2666 47.1916 11.3711C47.1916 11.4756 47.1916 11.4756 47.1916 11.4756C47.0881 11.5801 46.9846 11.6846 46.8812 11.7891C46.5708 11.9982 46.157 11.7891 46.0535 11.4756C45.9501 11.3711 45.9501 11.0576 46.0535 10.8485Z" fill="#CED7E2"/>
<path d="M95.0914 15.9691L93.5396 16.8051C91.9877 15.2375 89.6081 15.2375 88.0563 16.8051C87.2286 17.6412 86.8147 18.8953 87.0217 20.1495L85.3663 20.881C85.056 20.9856 84.9525 21.4036 85.1594 21.6126L85.7802 22.8667C85.8836 23.1803 86.2975 23.2848 86.5044 23.0758L88.0563 22.2397C89.6081 23.8073 91.9877 23.8073 93.5396 22.2397C94.3672 21.4036 94.7811 20.1495 94.5741 18.8953L96.126 18.0593C96.4364 17.9548 96.5399 17.5367 96.3329 17.3277L95.7122 16.0736C95.7122 15.9691 95.2984 15.8645 95.0914 15.9691ZM91.6773 21.2991C90.7462 21.8216 89.6081 21.4036 89.0908 20.463C88.5735 19.5224 88.9874 18.3728 89.9185 17.8502C90.8496 17.3277 91.9877 17.7457 92.505 18.6863C92.9188 19.6269 92.6084 20.7765 91.6773 21.2991Z" fill="#CED7E2"/>
<path d="M14.9665 84.6412L13.3111 81.6104C12.6904 80.4608 11.3454 80.0427 10.2074 80.6698L9.89698 80.7743L9.58661 80.2518C9.48315 80.0428 9.27623 80.0428 9.06931 80.1473C8.96585 80.1473 8.96586 80.2518 8.8624 80.3563L8.03473 82.4465C7.93127 82.6555 8.03473 82.8645 8.24165 82.969C8.24165 82.969 8.24165 82.969 8.34511 82.969L10.5177 83.3871C10.7247 83.3871 10.9316 83.2826 10.9316 83.0736C10.9316 82.969 10.9316 82.8645 10.9316 82.8645L10.6212 82.342L10.9316 82.133C11.2419 81.9239 11.7592 82.0285 11.8627 82.4465L13.518 85.4773C13.2077 85.9999 13.2077 86.6269 13.518 87.1495C13.9319 87.9856 14.863 88.1946 15.6907 87.7765C16.001 87.5675 16.208 87.3585 16.4149 87.045C16.5183 86.9405 16.5183 86.7314 16.5183 86.6269C16.6218 85.6863 16.001 84.8502 15.0699 84.7457C15.0699 84.6412 14.9665 84.6412 14.9665 84.6412ZM14.7595 86.7314C14.6561 86.7314 14.6561 86.7314 14.7595 86.7314C14.4492 86.5224 14.3457 86.2089 14.5526 85.8953C14.6561 85.6863 14.863 85.5818 15.0699 85.5818C15.1734 85.5818 15.3803 85.6863 15.4838 85.7908C15.6907 85.9999 15.6907 86.3134 15.4838 86.5224C15.1734 86.8359 14.9665 86.8359 14.7595 86.7314Z" fill="#CED7E2"/>
<path d="M5.86177 81.9236C5.13756 82.3416 4.82719 83.3867 5.24102 84.1183C5.5514 84.6408 6.06869 84.9544 6.68944 84.9544L9.58628 90.1799C9.7932 90.5979 10.207 90.7025 10.6209 90.4934C11.0347 90.2844 11.1382 89.8664 10.9312 89.4483L8.0344 84.2228C8.34478 83.7002 8.34478 83.0732 8.0344 82.5506C7.62057 81.8191 6.58598 81.5055 5.86177 81.9236ZM6.89636 83.8048C6.58598 83.9093 6.27561 83.9093 6.17215 83.5957C6.06869 83.2822 6.06869 82.9687 6.37906 82.8642C6.68944 82.7597 6.99982 82.7597 7.10328 83.0732C7.20674 83.3867 7.10327 83.7002 6.89636 83.8048Z" fill="#CED7E2"/>
<path d="M129.235 67.9111L129.338 67.702C129.649 67.075 129.649 66.4479 129.338 65.8209L128.407 63.8351C128.304 63.7306 128.304 63.5216 128.407 63.4171L128.718 62.6855L129.235 62.9991C129.442 63.1036 129.649 62.9991 129.752 62.79C129.752 62.6855 129.752 62.581 129.752 62.581L129.338 60.2818C129.338 60.0728 129.131 59.9683 128.924 59.9683H128.821L126.752 60.9089C126.545 61.0134 126.441 61.2224 126.545 61.4314C126.545 61.5359 126.648 61.5359 126.752 61.6404L127.269 61.954L126.959 62.6855C126.855 62.79 126.752 62.8946 126.648 62.8946L124.476 63.2081C123.855 63.3126 123.234 63.7306 123.027 64.2532L122.924 64.4622C121.993 64.4622 121.269 65.1938 121.269 66.1344C121.269 67.075 121.993 67.8066 122.924 67.8066C123.855 67.8066 124.579 67.075 124.579 66.1344C124.579 65.8209 124.476 65.5073 124.269 65.2983L124.372 65.0893C124.476 64.9848 124.579 64.8803 124.683 64.8803L126.545 64.5667C126.752 64.5667 126.959 64.6712 127.062 64.8803L127.89 66.6569C127.993 66.7614 127.993 66.9705 127.89 67.075L127.786 67.284C126.855 67.284 126.131 68.1201 126.235 68.9562C126.235 69.8968 127.062 70.6283 127.89 70.5238C128.821 70.5238 129.545 69.6877 129.442 68.8517C129.545 68.5381 129.442 68.2246 129.235 67.9111ZM122.717 66.7614C122.407 66.6569 122.303 66.2389 122.51 66.0299C122.614 65.7163 123.027 65.6118 123.234 65.8209C123.545 65.9254 123.648 66.3434 123.441 66.5524C123.338 66.7614 122.924 66.866 122.717 66.7614ZM127.58 69.3742C127.269 69.2697 127.166 68.8517 127.373 68.6426C127.476 68.3291 127.89 68.2246 128.097 68.4336C128.304 68.6426 128.511 68.9562 128.304 69.1652C128.2 69.3742 127.89 69.4787 127.58 69.3742Z" fill="#CED7E2"/>
<path d="M61.1497 106.346C60.5289 106.451 60.0117 106.869 59.8047 107.496C58.1494 107.809 56.8044 106.555 56.4941 105.928C57.1148 105.197 57.0114 104.152 56.2871 103.525C55.5629 102.897 54.5283 103.002 53.9076 103.734C53.2868 104.465 53.3903 105.51 54.1145 106.137C54.3214 106.242 54.5283 106.451 54.7353 106.451L55.4595 110.318C54.7353 110.945 54.6318 111.99 55.2526 112.721C55.8733 113.453 56.9079 113.558 57.6321 112.93C57.7356 112.93 57.7356 112.826 57.839 112.826C57.9425 112.721 58.0459 112.617 58.1494 112.408C58.5632 111.572 58.2529 110.527 57.3217 110.109C57.2183 110.109 57.2183 110.004 57.1148 110.004L56.8044 108.541C57.7356 109.168 58.8736 109.377 60.0117 109.273H60.1151C60.7359 110.004 61.7704 110.109 62.4947 109.482C62.5981 109.482 62.5981 109.377 62.5981 109.377C62.7016 109.273 62.805 109.168 62.9085 108.959C63.3223 108.123 63.012 107.078 62.1843 106.66C61.8739 106.346 61.4601 106.242 61.1497 106.346ZM55.1491 104.152C55.4595 104.047 55.7698 104.256 55.8733 104.674C55.9768 104.988 55.7698 105.301 55.356 105.406C55.0456 105.51 54.7353 105.301 54.6318 104.883C54.6318 104.57 54.8387 104.256 55.1491 104.152ZM56.8044 112.094C56.5975 112.303 56.1837 112.199 55.9768 111.99C55.7699 111.781 55.8733 111.363 56.0802 111.154C56.0802 111.154 56.1837 111.049 56.2871 111.049C56.3906 110.945 56.5975 111.049 56.701 111.049C57.0114 111.258 57.1148 111.572 56.9079 111.885C57.0114 111.99 56.9079 111.99 56.8044 112.094ZM61.4601 108.646C61.1497 108.646 60.9428 108.332 60.9428 108.018C60.9428 107.809 61.1497 107.6 61.3566 107.496C61.4601 107.496 61.667 107.496 61.7704 107.496C62.0808 107.6 62.1843 108.018 62.0808 108.332C61.8739 108.541 61.667 108.646 61.4601 108.646Z" fill="#CED7E2"/>
<defs>
<filter id="filter0_d_2302:1285067" x="0" y="22" width="139" height="104" filterUnits="userSpaceOnUse" color-interpolation-filters="sRGB">
<feFlood flood-opacity="0" result="BackgroundImageFix"/>
<feColorMatrix in="SourceAlpha" type="matrix" values="0 0 0 0 0 0 0 0 0 0 0 0 0 0 0 0 0 0 127 0" result="hardAlpha"/>
<feOffset dy="11"/>
<feGaussianBlur stdDeviation="11"/>
<feColorMatrix type="matrix" values="0 0 0 0 0.397708 0 0 0 0 0.47749 0 0 0 0 0.575 0 0 0 0.18 0"/>
<feBlend mode="normal" in2="BackgroundImageFix" result="effect1_dropShadow_2302:1285067"/>
<feBlend mode="normal" in="SourceGraphic" in2="effect1_dropShadow_2302:1285067" result="shape"/>
</filter>
<linearGradient id="paint0_linear_2302:1285067" x1="71.5609" y1="82.1323" x2="93.4986" y2="82.1323" gradientUnits="userSpaceOnUse">
<stop stop-color="#83A6FF"/>
<stop offset="1" stop-color="#5277D7"/>
</linearGradient>
<linearGradient id="paint1_linear_2302:1285067" x1="57.0739" y1="65.7236" x2="69.7097" y2="65.7236" gradientUnits="userSpaceOnUse">
<stop stop-color="#83A6FF"/>
<stop offset="1" stop-color="#5277D7"/>
</linearGradient>
<linearGradient id="paint2_linear_2302:1285067" x1="33.3826" y1="81.9751" x2="46.3289" y2="81.9751" gradientUnits="userSpaceOnUse">
<stop stop-color="#83A6FF"/>
<stop offset="1" stop-color="#5277D7"/>
</linearGradient>
<linearGradient id="paint3_linear_2302:1285067" x1="134.567" y1="48.1973" x2="141.003" y2="48.1973" gradientUnits="userSpaceOnUse">
<stop stop-color="#83A6FF"/>
<stop offset="1" stop-color="#5277D7"/>
</linearGradient>
<linearGradient id="paint4_linear_2302:1285067" x1="70.9418" y1="2.87679" x2="82.4923" y2="2.87679" gradientUnits="userSpaceOnUse">
<stop stop-color="#83A6FF"/>
<stop offset="1" stop-color="#5277D7"/>
</linearGradient>
</defs>
</svg>
