<svg width="16" height="16" viewBox="0 0 16 16" fill="none" xmlns="http://www.w3.org/2000/svg">
<mask id="path-1-inside-1_1398_1782" fill="white">
<path fill-rule="evenodd" clip-rule="evenodd" d="M13.9473 5.77639C12.6222 3.12621 10.3351 1.75 8.00011 1.75C6.02793 1.75 4.08984 2.7318 2.73676 4.63379L2.49039 3.40195C2.43623 3.13117 2.17282 2.95556 1.90204 3.00971C1.63126 3.06387 1.45565 3.32728 1.50981 3.59806L2.00913 6.09467C2.02412 6.17212 2.05728 6.24559 2.10637 6.30836C2.14501 6.35777 2.19352 6.40055 2.25081 6.43343C2.30944 6.46719 2.37502 6.48919 2.44384 6.49696C2.45445 6.49816 2.46506 6.49902 2.47566 6.49953C2.51846 6.5016 2.56109 6.49812 2.6025 6.48943L5.09815 5.9903C5.36893 5.93614 5.54454 5.67273 5.49039 5.40195C5.43623 5.13117 5.17282 4.95556 4.90204 5.00971L3.49707 5.29071C4.68246 3.57545 6.35883 2.75 8.00011 2.75C9.91516 2.75 11.878 3.87379 13.0529 6.22361C13.1764 6.4706 13.4767 6.57071 13.7237 6.44721C13.9707 6.32372 14.0708 6.02338 13.9473 5.77639ZM7.99989 14.5C5.66494 14.5 3.37777 13.1238 2.05268 10.4736C1.92918 10.2266 2.02929 9.92628 2.27628 9.80279C2.52327 9.67929 2.82361 9.7794 2.9471 10.0264C4.12201 12.3762 6.08484 13.5 7.99989 13.5C9.64117 13.5 11.3175 12.6746 12.5029 10.9593L11.098 11.2403C10.8272 11.2944 10.5638 11.1188 10.5096 10.8481C10.4555 10.5773 10.6311 10.3139 10.9018 10.2597L13.3975 9.76058C13.4413 9.75137 13.4865 9.74801 13.5318 9.75089C13.5487 9.75196 13.5655 9.75389 13.5823 9.75671C13.6416 9.76662 13.698 9.78712 13.7492 9.81657C13.8065 9.84945 13.855 9.89223 13.8936 9.94164C13.9384 9.99869 13.9713 10.0663 13.988 10.1416C13.989 10.1462 13.99 10.1507 13.9909 10.1553L14.4902 12.6519C14.5443 12.9227 14.3687 13.1861 14.098 13.2403C13.8272 13.2944 13.5638 13.1188 13.5096 12.8481L13.2632 11.6162C11.9102 13.5182 9.97207 14.5 7.99989 14.5Z"/>
</mask>
<path fill-rule="evenodd" clip-rule="evenodd" d="M13.9473 5.77639C12.6222 3.12621 10.3351 1.75 8.00011 1.75C6.02793 1.75 4.08984 2.7318 2.73676 4.63379L2.49039 3.40195C2.43623 3.13117 2.17282 2.95556 1.90204 3.00971C1.63126 3.06387 1.45565 3.32728 1.50981 3.59806L2.00913 6.09467C2.02412 6.17212 2.05728 6.24559 2.10637 6.30836C2.14501 6.35777 2.19352 6.40055 2.25081 6.43343C2.30944 6.46719 2.37502 6.48919 2.44384 6.49696C2.45445 6.49816 2.46506 6.49902 2.47566 6.49953C2.51846 6.5016 2.56109 6.49812 2.6025 6.48943L5.09815 5.9903C5.36893 5.93614 5.54454 5.67273 5.49039 5.40195C5.43623 5.13117 5.17282 4.95556 4.90204 5.00971L3.49707 5.29071C4.68246 3.57545 6.35883 2.75 8.00011 2.75C9.91516 2.75 11.878 3.87379 13.0529 6.22361C13.1764 6.4706 13.4767 6.57071 13.7237 6.44721C13.9707 6.32372 14.0708 6.02338 13.9473 5.77639ZM7.99989 14.5C5.66494 14.5 3.37777 13.1238 2.05268 10.4736C1.92918 10.2266 2.02929 9.92628 2.27628 9.80279C2.52327 9.67929 2.82361 9.7794 2.9471 10.0264C4.12201 12.3762 6.08484 13.5 7.99989 13.5C9.64117 13.5 11.3175 12.6746 12.5029 10.9593L11.098 11.2403C10.8272 11.2944 10.5638 11.1188 10.5096 10.8481C10.4555 10.5773 10.6311 10.3139 10.9018 10.2597L13.3975 9.76058C13.4413 9.75137 13.4865 9.74801 13.5318 9.75089C13.5487 9.75196 13.5655 9.75389 13.5823 9.75671C13.6416 9.76662 13.698 9.78712 13.7492 9.81657C13.8065 9.84945 13.855 9.89223 13.8936 9.94164C13.9384 9.99869 13.9713 10.0663 13.988 10.1416C13.989 10.1462 13.99 10.1507 13.9909 10.1553L14.4902 12.6519C14.5443 12.9227 14.3687 13.1861 14.098 13.2403C13.8272 13.2944 13.5638 13.1188 13.5096 12.8481L13.2632 11.6162C11.9102 13.5182 9.97207 14.5 7.99989 14.5Z" fill="currentColor"/>
<path d="M13.9473 5.77639L13.0529 6.22361L13.0529 6.22361L13.9473 5.77639ZM2.73676 4.63379L1.75618 4.82991C1.83442 5.22111 2.13769 5.52838 2.52784 5.61173C2.91798 5.69507 3.32034 5.53855 3.5516 5.21347L2.73676 4.63379ZM2.49039 3.40195L3.47097 3.20583V3.20583L2.49039 3.40195ZM1.90204 3.00971L1.70592 2.02913L1.70592 2.02913L1.90204 3.00971ZM1.50981 3.59806L0.529225 3.79418L0.529225 3.79418L1.50981 3.59806ZM2.00913 6.09467L2.99092 5.90463L2.98971 5.89855L2.00913 6.09467ZM2.10637 6.30836L2.89409 5.69233L2.89409 5.69233L2.10637 6.30836ZM2.25081 6.43343L2.74973 5.56679L2.74861 5.56614L2.25081 6.43343ZM2.44384 6.49696L2.55626 5.5033L2.55609 5.50328L2.44384 6.49696ZM2.47566 6.49953L2.52401 5.5007L2.524 5.5007L2.47566 6.49953ZM2.6025 6.48943L2.40638 5.5088L2.39708 5.51075L2.6025 6.48943ZM5.09815 5.9903L5.29427 6.97088L5.29427 6.97088L5.09815 5.9903ZM4.90204 5.00971L5.09815 5.9903H5.09815L4.90204 5.00971ZM3.49707 5.29071L2.67441 4.72218C2.44273 5.05742 2.43765 5.49971 2.66157 5.84018C2.88548 6.18066 3.2936 6.35121 3.69319 6.27129L3.49707 5.29071ZM8.00011 2.75V1.75V1.75V2.75ZM13.0529 6.22361L13.9473 5.77639L13.9473 5.77639L13.0529 6.22361ZM2.27628 9.80279L2.7235 10.6972L2.7235 10.6972L2.27628 9.80279ZM2.9471 10.0264L2.05268 10.4736L2.05268 10.4736L2.9471 10.0264ZM12.5029 10.9593L13.3256 11.5278C13.5573 11.1926 13.5623 10.7503 13.3384 10.4098C13.1145 10.0693 12.7064 9.89879 12.3068 9.97871L12.5029 10.9593ZM11.098 11.2403L11.2941 12.2209L11.2941 12.2209L11.098 11.2403ZM10.5096 10.8481L9.52903 11.0442L9.52903 11.0442L10.5096 10.8481ZM10.9018 10.2597L10.7057 9.27912V9.27912L10.9018 10.2597ZM13.3975 9.76058L13.5936 10.7412L13.6029 10.7392L13.3975 9.76058ZM13.5318 9.75089L13.4684 10.7489L13.4684 10.7489L13.5318 9.75089ZM13.5823 9.75671L13.4171 10.743L13.4173 10.743L13.5823 9.75671ZM13.7492 9.81657L13.2503 10.6832L13.2514 10.6839L13.7492 9.81657ZM13.8936 9.94164L13.1059 10.5577L13.1068 10.5588L13.8936 9.94164ZM13.988 10.1416L13.0117 10.358L13.0119 10.359L13.988 10.1416ZM13.9909 10.1553L13.0091 10.3455L13.0103 10.3514L13.9909 10.1553ZM14.4902 12.6519L15.4708 12.4558L15.4708 12.4558L14.4902 12.6519ZM14.098 13.2403L14.2941 14.2209L14.2941 14.2209L14.098 13.2403ZM13.5096 12.8481L12.529 13.0442L13.5096 12.8481ZM13.2632 11.6162L14.2438 11.4201C14.1656 11.0289 13.8623 10.7216 13.4722 10.6383C13.082 10.5549 12.6797 10.7114 12.4484 11.0365L13.2632 11.6162ZM8.00011 2.75C9.91478 2.75 11.8778 3.87342 13.0529 6.22361L14.8418 5.32918C13.3667 2.379 10.7553 0.75 8.00011 0.75V2.75ZM3.5516 5.21347C4.73157 3.55481 6.37578 2.75 8.00011 2.75V0.75C5.68008 0.75 3.4481 1.90879 1.92191 4.05411L3.5516 5.21347ZM1.50981 3.59806L1.75618 4.82991L3.71734 4.43768L3.47097 3.20583L1.50981 3.59806ZM2.09815 3.9903C1.82737 4.04445 1.56396 3.86884 1.50981 3.59806L3.47097 3.20583C3.3085 2.39349 2.51826 1.86667 1.70592 2.02913L2.09815 3.9903ZM2.49039 3.40195C2.54454 3.67273 2.36893 3.93614 2.09815 3.9903L1.70592 2.02913C0.893583 2.1916 0.366758 2.98184 0.529225 3.79418L2.49039 3.40195ZM2.98971 5.89855L2.49039 3.40195L0.529225 3.79418L1.02855 6.29078L2.98971 5.89855ZM2.89409 5.69233C2.94348 5.75548 2.97614 5.82833 2.99091 5.90464L1.02735 6.2847C1.0721 6.51591 1.17108 6.7357 1.31865 6.92439L2.89409 5.69233ZM2.74861 5.56614C2.80547 5.59878 2.85479 5.64208 2.89409 5.69233L1.31865 6.92439C1.43523 7.07346 1.58156 7.20232 1.753 7.30072L2.74861 5.56614ZM2.55609 5.50328C2.62617 5.5112 2.69189 5.53349 2.74973 5.56679L1.75188 7.30008C1.92699 7.40089 2.12387 7.46718 2.33159 7.49064L2.55609 5.50328ZM2.524 5.5007C2.53476 5.50122 2.54552 5.50209 2.55626 5.5033L2.33142 7.49062C2.36338 7.49424 2.39536 7.49681 2.42733 7.49836L2.524 5.5007ZM2.39708 5.51075C2.43807 5.50215 2.48071 5.4986 2.52401 5.5007L2.42731 7.49836C2.55621 7.5046 2.6841 7.49409 2.80792 7.4681L2.39708 5.51075ZM4.90204 5.00971L2.40638 5.50885L2.79862 7.47001L5.29427 6.97088L4.90204 5.00971ZM4.50981 5.59806C4.45565 5.32728 4.63126 5.06387 4.90204 5.00972L5.29427 6.97088C6.10661 6.80841 6.63344 6.01817 6.47097 5.20583L4.50981 5.59806ZM5.09815 5.9903C4.82737 6.04445 4.56396 5.86884 4.50981 5.59806L6.47097 5.20583C6.3085 4.39349 5.51826 3.86667 4.70592 4.02913L5.09815 5.9903ZM3.69319 6.27129L5.09815 5.9903L4.70592 4.02913L3.30096 4.31013L3.69319 6.27129ZM8.00011 1.75C6.00703 1.75 4.03283 2.75653 2.67441 4.72218L4.31974 5.85923C5.33208 4.39437 6.71063 3.75 8.00011 3.75V1.75ZM13.9473 5.77639C12.622 3.12577 10.3346 1.75 8.00011 1.75V3.75C9.49571 3.75 11.134 4.62181 12.1585 6.67082L13.9473 5.77639ZM13.2765 5.55279C13.5235 5.42929 13.8238 5.5294 13.9473 5.77639L12.1585 6.67082C12.529 7.41179 13.43 7.71212 14.1709 7.34164L13.2765 5.55279ZM13.0529 6.22361C12.9294 5.97662 13.0295 5.67628 13.2765 5.55279L14.1709 7.34164C14.9119 6.97116 15.2122 6.07015 14.8417 5.32918L13.0529 6.22361ZM1.15825 10.9208C2.63334 13.871 5.24466 15.5 7.99989 15.5V13.5C6.08522 13.5 4.1222 12.3766 2.9471 10.0264L1.15825 10.9208ZM1.82907 8.90836C1.0881 9.27884 0.787767 10.1799 1.15825 10.9208L2.9471 10.0264C3.0706 10.2734 2.97049 10.5737 2.7235 10.6972L1.82907 8.90836ZM3.84153 9.57918C3.47105 8.83821 2.57004 8.53788 1.82907 8.90836L2.7235 10.6972C2.47651 10.8207 2.17617 10.7206 2.05268 10.4736L3.84153 9.57918ZM7.99989 12.5C6.50429 12.5 4.86604 11.6282 3.84153 9.57918L2.05268 10.4736C3.37799 13.1242 5.66539 14.5 7.99989 14.5V12.5ZM11.6803 10.3908C10.6679 11.8556 9.28937 12.5 7.99989 12.5V14.5C9.99297 14.5 11.9672 13.4935 13.3256 11.5278L11.6803 10.3908ZM12.3068 9.97871L10.9018 10.2597L11.2941 12.2209L12.699 11.9399L12.3068 9.97871ZM10.9018 10.2597C11.1726 10.2056 11.436 10.3812 11.4902 10.6519L9.52903 11.0442C9.6915 11.8565 10.4817 12.3833 11.2941 12.2209L10.9018 10.2597ZM11.4902 10.6519C11.5443 10.9227 11.3687 11.1861 11.098 11.2403L10.7057 9.27912C9.89339 9.44159 9.36657 10.2318 9.52903 11.0442L11.4902 10.6519ZM11.098 11.2403L13.5936 10.7412L13.2014 8.78L10.7057 9.27912L11.098 11.2403ZM13.5953 8.75291C13.4588 8.74422 13.3231 8.75439 13.192 8.78191L13.6029 10.7392C13.5595 10.7484 13.5143 10.7518 13.4684 10.7489L13.5953 8.75291ZM13.7475 8.77045C13.6968 8.76196 13.646 8.75613 13.5953 8.7529L13.4684 10.7489C13.4513 10.7478 13.4342 10.7458 13.4171 10.743L13.7475 8.77045ZM13.4173 10.743C13.3572 10.7329 13.3008 10.7123 13.2503 10.6832L14.2481 8.94992C14.0953 8.86195 13.926 8.80031 13.7474 8.77042L13.4173 10.743ZM14.6814 9.32561C14.5648 9.17653 14.4184 9.04768 14.247 8.94928L13.2514 10.6839C13.1945 10.6512 13.1452 10.6079 13.1059 10.5577L14.6814 9.32561ZM13.1068 10.5588C13.0613 10.5008 13.0281 10.4321 13.0117 10.358L14.9643 9.92527C14.9145 9.70059 14.8155 9.49657 14.6804 9.32443L13.1068 10.5588ZM14.9726 9.96504C14.97 9.95169 14.9672 9.93807 14.9641 9.92421L13.0119 10.359C13.0109 10.3542 13.0099 10.3497 13.0091 10.3455L14.9726 9.96504ZM13.0103 10.3514L13.5096 12.8481L15.4708 12.4558L14.9714 9.95917L13.0103 10.3514ZM13.5096 12.8481C13.4555 12.5773 13.6311 12.3139 13.9018 12.2597L14.2941 14.2209C15.1064 14.0584 15.6332 13.2682 15.4708 12.4558L13.5096 12.8481ZM13.9018 12.2597C14.1726 12.2056 14.436 12.3812 14.4902 12.6519L12.529 13.0442C12.6915 13.8565 13.4817 14.3833 14.2941 14.2209L13.9018 12.2597ZM14.4902 12.6519L14.2438 11.4201L12.2827 11.8123L12.529 13.0442L14.4902 12.6519ZM7.99989 15.5C10.3199 15.5 12.5519 14.3412 14.0781 12.1959L12.4484 11.0365C11.2684 12.6952 9.62422 13.5 7.99989 13.5V15.5Z" fill="currentColor" mask="url(#path-1-inside-1_1398_1782)"/>
</svg>
