<svg width="16" height="16" fill="none" xmlns="http://www.w3.org/2000/svg">
<path d="M13.053 6.224a.5.5 0 1 0 .894-.448l-.894.448Zm-11-.448a.5.5 0 1 0 .894.448l-.894-.448Zm11.894 0C12.622 3.126 10.335 1.75 8 1.75S3.378 3.126 2.053 5.776l.894.448C4.122 3.874 6.085 2.75 8 2.75s3.878 1.124 5.053 3.474l.894-.448Z" fill="#64748B"/>
<path d="M5 5.5 2.5 6 2 3.5" stroke="#64748B" stroke-linecap="round" stroke-linejoin="round"/>
<path d="M2.947 10.026a.5.5 0 1 0-.894.448l.894-.448Zm11 .448a.5.5 0 1 0-.894-.448l.894.448Zm-11.894 0C3.378 13.124 5.665 14.5 8 14.5s4.622-1.376 5.947-4.026l-.894-.448C11.878 12.376 9.915 13.5 8 13.5s-3.878-1.124-5.053-3.474l-.894.448Z" fill="#64748B"/>
<path d="m11 10.75 2.5-.5.5 2.5" stroke="#64748B" stroke-linecap="round" stroke-linejoin="round"/>
</svg>