<svg width="16" height="16" fill="none" xmlns="http://www.w3.org/2000/svg"><path fill-rule="evenodd" clip-rule="evenodd" d="M13.947 5.776C12.622 3.126 10.335 1.75 8 1.75c-1.972 0-3.91.982-5.263 2.884L2.49 3.402a.5.5 0 0 0-.98.196l.5 2.497a.502.502 0 0 0 .593.394l2.495-.499a.5.5 0 0 0-.196-.98l-1.405.28C4.682 3.576 6.36 2.75 8 2.75c1.915 0 3.878 1.124 5.053 3.474a.5.5 0 1 0 .894-.448ZM8 14.5c-2.335 0-4.622-1.376-5.947-4.026a.5.5 0 1 1 .894-.448C4.122 12.376 6.085 13.5 8 13.5c1.641 0 3.318-.825 4.503-2.54l-1.405.28a.5.5 0 0 1-.196-.98l2.496-.5a.499.499 0 0 1 .59.382l.003.013.5 2.497a.5.5 0 0 1-.981.196l-.247-1.232C11.91 13.518 9.973 14.5 8 14.5Z" fill="#64748B"/></svg>