<svg width="16" height="16" viewBox="0 0 16 16" fill="none" xmlns="http://www.w3.org/2000/svg">
<path d="M13.0528 6.22361C13.1763 6.47059 13.4766 6.57071 13.7236 6.44721C13.9706 6.32372 14.0707 6.02338 13.9472 5.77639L13.0528 6.22361ZM2.05279 5.7764C1.92929 6.02338 2.0294 6.32372 2.27639 6.44722C2.52338 6.57071 2.82372 6.4706 2.94721 6.22361L2.05279 5.7764ZM13.9472 5.77639C12.6221 3.12621 10.3349 1.75 8 1.75C5.66505 1.75 3.37788 3.12621 2.05279 5.7764L2.94721 6.22361C4.12212 3.87379 6.08495 2.75 8 2.75C9.91505 2.75 11.8779 3.87379 13.0528 6.22361L13.9472 5.77639Z" fill="#64748B"/>
<path d="M5 5.5L2.5 6L2 3.5" stroke="#64748B" stroke-linecap="round" stroke-linejoin="round"/>
<path d="M2.94721 10.0264C2.82372 9.77941 2.52338 9.67929 2.27639 9.80279C2.0294 9.92628 1.92929 10.2266 2.05279 10.4736L2.94721 10.0264ZM13.9472 10.4736C14.0707 10.2266 13.9706 9.92628 13.7236 9.80278C13.4766 9.67929 13.1763 9.7794 13.0528 10.0264L13.9472 10.4736ZM2.05279 10.4736C3.37788 13.1238 5.66505 14.5 8 14.5C10.3349 14.5 12.6221 13.1238 13.9472 10.4736L13.0528 10.0264C11.8779 12.3762 9.91505 13.5 8 13.5C6.08495 13.5 4.12212 12.3762 2.94721 10.0264L2.05279 10.4736Z" fill="#64748B"/>
<path d="M11 10.75L13.5 10.25L14 12.75" stroke="#64748B" stroke-linecap="round" stroke-linejoin="round"/>
</svg>
