<svg width="16" height="16" viewBox="0 0 16 16" fill="none" xmlns="http://www.w3.org/2000/svg">
<path fill-rule="evenodd" clip-rule="evenodd" d="M13.0556 11.5337C12.3362 12.0007 11.4903 12.25 10.625 12.25C9.67292 12.25 8.75283 11.9485 7.99999 11.4C8.62626 10.9437 9.11628 10.3316 9.41697 9.62641C9.7481 8.84982 9.83474 7.99529 9.66593 7.17087C9.49712 6.34645 9.08045 5.58917 8.46859 4.9948C8.32162 4.85202 8.16496 4.72019 8 4.6C8.29145 4.38766 8.61059 4.21039 8.95076 4.07351C9.75019 3.75184 10.6299 3.66768 11.4785 3.83166C12.3272 3.99565 13.1067 4.40042 13.7186 4.9948C14.3304 5.58917 14.7471 6.34645 14.9159 7.17087C15.0847 7.99529 14.9981 8.84982 14.667 9.62641C14.3358 10.403 13.7751 11.0668 13.0556 11.5337ZM7.51637 5.00948C7.66712 4.8616 7.82878 4.72475 8 4.6C7.47823 4.21986 6.87333 3.95626 6.22852 3.83166C5.37985 3.66768 4.50019 3.75184 3.70076 4.07351C2.90133 4.39519 2.21805 4.93992 1.73732 5.63883C1.25659 6.33774 1 7.15943 1 8C1 9.12717 1.46094 10.2082 2.28141 11.0052C3.10188 11.8022 4.21468 12.25 5.375 12.25C6.24029 12.25 7.08615 12.0007 7.80562 11.5337C7.87177 11.4908 7.93657 11.4462 7.99999 11.4C7.83532 11.28 7.67866 11.1482 7.53141 11.0052C7.52638 11.0003 7.52138 10.9954 7.51638 10.9905C7.69756 10.8681 7.86844 10.7296 8.02665 10.5759C8.72991 9.89272 9.125 8.96615 9.125 8C9.125 7.27951 8.90506 6.5752 8.49301 5.97614C8.23121 5.59553 7.89933 5.26826 7.51637 5.00948ZM7.51637 5.00948C7.32066 5.20146 7.14332 5.41202 6.98732 5.63883C6.50659 6.33774 6.25 7.15943 6.25 8C6.25 9.12027 6.70531 10.1949 7.51638 10.9905C6.89218 11.4123 6.14582 11.6429 5.375 11.6429C4.63332 11.6429 3.90829 11.4292 3.29161 11.0289C2.67493 10.6286 2.19428 10.0597 1.91045 9.39406C1.62662 8.72842 1.55236 7.99596 1.69705 7.28931C1.84175 6.58267 2.1989 5.93358 2.72335 5.42411C3.2478 4.91465 3.91598 4.5677 4.64341 4.42714C5.37084 4.28658 6.12484 4.35872 6.81006 4.63444C7.05993 4.73498 7.29656 4.86095 7.51637 5.00948Z" fill="currentColor"/>
</svg>
