<svg  viewBox="0 0 24 24" fill="none" xmlns="http://www.w3.org/2000/svg">
<g clip-path="url(#clip0_345:5697)">
<rect width="24" height="24" fill="white"/>
<path d="M18.5 9.50012V4.5C18.5 3.39543 17.6046 2.5 16.5 2.5H4.50012C3.39555 2.5 2.50012 3.39543 2.50012 4.5V19.5002C2.50012 20.6048 3.39555 21.5002 4.50012 21.5002H16.5C17.6046 21.5002 18.5 20.6048 18.5 19.5002V19.0001" stroke="#64748B" stroke-linecap="round" stroke-linejoin="round"/>
<path d="M5.5 5.5H15.5" stroke="#64748B" stroke-linecap="round"/>
<path d="M5.5 8.5H11.5" stroke="#64748B" stroke-linecap="round"/>
<path d="M5.5 8.5H11.5" stroke="#64748B" stroke-linecap="round"/>
<path d="M5.5 11.5H13.5" stroke="#64748B" stroke-linecap="round"/>
<path d="M5.5 14.4985H11.5" stroke="#64748B" stroke-linecap="round"/>
<g clip-path="url(#clip1_345:5697)">
<path d="M19.1067 17.633H17.8934C17.7368 17.633 17.6012 17.524 17.5677 17.371L17.4321 16.743C17.2511 16.6637 17.0795 16.5645 16.9204 16.4473L16.3081 16.6423C16.1587 16.6899 15.9964 16.6271 15.9181 16.4913L15.3101 15.441C15.2326 15.3051 15.2593 15.1338 15.3744 15.028L15.8494 14.5946C15.8278 14.3983 15.8278 14.2003 15.8494 14.004L15.3744 13.5716C15.2591 13.4658 15.2324 13.2942 15.3101 13.1583L15.9167 12.1073C15.995 11.9715 16.1574 11.9087 16.3067 11.9563L16.9191 12.1513C17.0004 12.091 17.0851 12.0354 17.1727 11.9846C17.2568 11.9372 17.3434 11.8943 17.4321 11.856L17.5681 11.2286C17.6014 11.0756 17.7368 10.9665 17.8934 10.9663H19.1067C19.2633 10.9665 19.3987 11.0756 19.4321 11.2286L19.5694 11.8563C19.663 11.8975 19.7541 11.944 19.8424 11.9956C19.9248 12.0432 20.0045 12.0954 20.0811 12.152L20.6937 11.957C20.843 11.9095 21.0051 11.9724 21.0834 12.108L21.6901 13.159C21.7675 13.2948 21.7408 13.4661 21.6257 13.572L21.1507 14.0053C21.1723 14.2016 21.1723 14.3997 21.1507 14.596L21.6257 15.0293C21.7408 15.1351 21.7675 15.3065 21.6901 15.4423L21.0834 16.4933C21.0051 16.6289 20.843 16.6918 20.6937 16.6443L20.0811 16.4493C20.0035 16.5064 19.923 16.5593 19.8397 16.6076C19.7523 16.6583 19.6622 16.704 19.5697 16.7446L19.4321 17.371C19.3986 17.5239 19.2632 17.6328 19.1067 17.633ZM18.4987 12.9663C17.7623 12.9663 17.1654 13.5633 17.1654 14.2996C17.1654 15.036 17.7623 15.633 18.4987 15.633C19.2351 15.633 19.8321 15.036 19.8321 14.2996C19.8321 13.5633 19.2351 12.9663 18.4987 12.9663Z" fill="#64748B"/>
</g>
</g>
<defs>
<clipPath id="clip0_345:5697">
<rect width="24" height="24" fill="white"/>
</clipPath>
<clipPath id="clip1_345:5697">
<rect width="8" height="8" fill="white" transform="translate(14.5001 10.2998)"/>
</clipPath>
</defs>
</svg>
