<svg width="16" height="17" viewBox="0 0 16 17" fill="none" xmlns="http://www.w3.org/2000/svg">
<circle cx="8" cy="8.5" r="6" fill="white"/>
<path d="M9.96376 3.10462C10.2232 3.19907 10.5102 3.06528 10.6046 2.80579C10.6991 2.5463 10.5653 2.25938 10.3058 2.16493L9.96376 3.10462ZM14.736 8.18736L14.7126 7.68791L13.7137 7.73466L13.7371 8.23411L14.736 8.18736ZM13.3954 10.4638C12.3108 13.4436 9.01603 14.9799 6.03624 13.8954L5.69422 14.8351C9.19299 16.1085 13.0616 14.3046 14.3351 10.8058L13.3954 10.4638ZM6.03624 13.8954C3.05645 12.8108 1.52006 9.51604 2.60462 6.53625L1.66492 6.19423C0.391476 9.69299 2.19545 13.5616 5.69422 14.8351L6.03624 13.8954ZM2.60462 6.53625C3.68917 3.55646 6.98397 2.02007 9.96376 3.10462L10.3058 2.16493C6.80701 0.891483 2.93837 2.69546 1.66492 6.19423L2.60462 6.53625ZM13.7371 8.23411C13.7716 8.97046 13.6639 9.72615 13.3954 10.4638L14.3351 10.8058C14.6496 9.94158 14.7766 9.05359 14.736 8.18736L13.7371 8.23411Z" fill="#FEF7E4"/>
<path d="M13.7416 8.49946C13.7416 8.7756 13.9655 8.99946 14.2416 8.99946C14.5177 8.99946 14.7416 8.7756 14.7416 8.49946H13.7416ZM10.5976 14.7223L11.0589 14.5295L10.6734 13.6069L10.212 13.7996L10.5976 14.7223ZM7.99995 14.2411C4.82892 14.2411 2.2583 11.6705 2.2583 8.49946H1.2583C1.2583 12.2228 4.27664 15.2411 7.99995 15.2411V14.2411ZM2.2583 8.49946C2.2583 5.32844 4.82892 2.75781 7.99995 2.75781V1.75781C4.27664 1.75781 1.2583 4.77615 1.2583 8.49946H2.2583ZM7.99995 2.75781C11.171 2.75781 13.7416 5.32844 13.7416 8.49946H14.7416C14.7416 4.77615 11.7233 1.75781 7.99995 1.75781V2.75781ZM10.212 13.7996C9.53187 14.0839 8.78491 14.2411 7.99995 14.2411V15.2411C8.91961 15.2411 9.79747 15.0567 10.5976 14.7223L10.212 13.7996Z" fill="#F7B43D"/>
<path d="M10.8807 8.49892L6.55957 5.61816V11.3797L10.8807 8.49892Z" fill="#FEF7E4" stroke="#F7B43D" stroke-linecap="round" stroke-linejoin="round"/>
</svg>
