<svg id="eh1tIGH7TVY1" xmlns="http://www.w3.org/2000/svg" xmlns:xlink="http://www.w3.org/1999/xlink" viewBox="0 0 16 16" shape-rendering="geometricPrecision" text-rendering="geometricPrecision"><svg:style type="text/css"><![CDATA[#eh1tIGH7TVY4_tr {animation: eh1tIGH7TVY4_tr__tr 3000ms linear infinite normal forwards}@keyframes eh1tIGH7TVY4_tr__tr { 0% {transform: translate(8px,8.000002px) rotate(0deg)} 50% {transform: translate(8px,8.000002px) rotate(360deg)} 100% {transform: translate(8px,8.000002px) rotate(720deg)}}]]></svg:style type="text/css"><circle r="7" transform="translate(8 8)" fill="transparent"/><circle r="6.5" transform="translate(8 8)" fill="none" stroke="#fef7e4"/><g id="eh1tIGH7TVY4_tr" transform="translate(8,8.000002) rotate(0)"><path d="M14,8c0,.276142.223858.5.5.5s.5-.223858.5-.5h-1Zm-3.303,6.461l.462-.192-.386-.923-.461.193.385.922ZM8,14c-3.313708,0-6-2.686292-6-6h-1c0,3.865993,3.134007,7,7,7v-1ZM2,8C2,4.686292,4.686292,2,8,2v-1C4.134007,1,1,4.134007,1,8h1ZM8,2c3.313708,0,6,2.686292,6,6h1c0-3.865993-3.134007-7-7-7v1Zm2.312,11.539c-.732441.30556-1.518378.462272-2.312.461v1c.92585.000981,1.842645-.182242,2.697-.539l-.385-.922Z" transform="translate(-8,-8.000002)" fill="#f7b43d"/></g><path d="M10.88,7.999L6.56,5.119v5.76L10.88,8Z" fill="#fef7e4" stroke="#f7b43d" stroke-linecap="round" stroke-linejoin="round"/></svg>