<svg width="16" height="16" fill="none" xmlns="http://www.w3.org/2000/svg">
    <mask id="bucket__a" fill="#fff">
        <path
            fill-rule="evenodd"
            clip-rule="evenodd"
            d="M14 3H2l1.5 10.5c0 .828 2.015 1.5 4.5 1.5s4.5-.672 4.5-1.5L14 3Z"
        />
    </mask>
    <path
        fill-rule="evenodd"
        clip-rule="evenodd"
        d="M14 3H2l1.5 10.5c0 .828 2.015 1.5 4.5 1.5s4.5-.672 4.5-1.5L14 3Z"
        fill="#fff"
    />
    <path
        d="M2 3V2H.847l.163 1.141L2 3Zm12 0 .99.141L15.153 2H14v1ZM3.5 13.5h1v-.071l-.01-.07-.99.141Zm9 0-.99-.141-.01.07v.071h1ZM2 4h12V2H2v2Zm2.49 9.359-1.5-10.5-1.98.282 1.5 10.5 1.98-.282ZM8 14c-1.165 0-2.178-.159-2.866-.388-.349-.116-.559-.233-.661-.313-.114-.09.027-.03.027.201h-2c0 .645.393 1.1.735 1.37.353.277.801.484 1.267.64.941.313 2.178.49 3.498.49v-2Zm3.5-.5c0-.23.141-.291.027-.201-.102.08-.312.197-.661.313-.688.23-1.7.388-2.866.388v2c1.32 0 2.557-.177 3.498-.49.466-.156.914-.363 1.267-.64.342-.27.735-.725.735-1.37h-2Zm1.51-10.641-1.5 10.5 1.98.282 1.5-10.5-1.98-.282Z"
        fill="currentColor"
        mask="url(#bucket__a)"
    />
    <path
        d="M13.5 3c0 .057-.034.191-.281.386-.241.19-.62.383-1.134.554-1.023.34-2.467.56-4.085.56-1.618 0-3.062-.22-4.085-.56-.513-.171-.893-.364-1.134-.554C2.534 3.19 2.5 3.057 2.5 3c0-.057.034-.191.281-.386.241-.19.62-.383 1.134-.554C4.938 1.72 6.382 1.5 8 1.5c1.618 0 3.062.22 4.085.56.513.171.893.364 1.134.554.247.195.281.329.281.386Z"
        fill="#fff"
        stroke="currentColor"
    />
</svg>
