<svg width="9" height="12" viewBox="0 0 9 12" fill="none" xmlns="http://www.w3.org/2000/svg">
    <path
        d="M1.52344 11.7158H7.10156C7.85742 11.7158 8.22656 11.3408 8.22656 10.5205V6.21973C8.22656 5.48145 7.92188 5.10059 7.29492 5.03613V3.55957C7.29492 1.35059 5.84766 0.28418 4.3125 0.28418C2.77734 0.28418 1.33008 1.35059 1.33008 3.55957V5.06543C0.755859 5.15332 0.398438 5.52832 0.398438 6.21973V10.5205C0.398438 11.3408 0.767578 11.7158 1.52344 11.7158ZM2.27344 3.43652C2.27344 1.96582 3.2168 1.18652 4.3125 1.18652C5.4082 1.18652 6.35156 1.96582 6.35156 3.43652V5.03027L2.27344 5.03613V3.43652Z"
        fill="#9E9E9E" />
</svg>