<svg width="124" height="120" viewBox="0 0 124 120" fill="none" xmlns="http://www.w3.org/2000/svg"><path d="M61.629 107.999c23.0585 0 41.751-18.7229 41.751-41.8194 0-23.0964-18.6925-41.8197-41.751-41.8197S19.8779 43.0832 19.8779 66.1796c0 23.0965 18.6926 41.8194 41.7511 41.8194z" fill="#EAEEF9"/><path d="M30.8839 39.0854h59.3924c2.3521 0 4.2003 1.8512 4.2003 4.2073v37.6125c0 2.3561-1.8482 4.2073-4.2003 4.2073H30.8839c-2.3522 0-4.2003-1.8512-4.2003-4.2073V43.2927c0-2.3561 1.9321-4.2073 4.2003-4.2073z" fill="#C0D6FF"/><path d="M94.3575 47.2938v33.5995c0 2.3461-1.8271 4.1895-4.1525 4.1895H31.4045c-2.3254 0-4.1525-1.8434-4.1525-4.1895V43.4395c0-2.3461 1.8271-4.1895 4.1525-4.1895h58.7174c1.8271 0 3.3221 1.1731 3.9034 2.765" stroke="#6F7590" stroke-miterlimit="10" stroke-linecap="round" stroke-linejoin="round"/><path d="M118.193 56.8709c1.301-1.1913 1.392-3.2138.203-4.5174-1.19-1.3036-3.209-1.3947-4.51-.2034-1.302 1.1913-1.393 3.2138-.203 4.5174 1.189 1.3036 3.208 1.3947 4.51.2034zM37.5026 28.5447c1.103-.3591 1.7066-1.5459 1.3481-2.6508-.3585-1.1048-1.5434-1.7094-2.6464-1.3503-1.1031.3591-1.7066 1.5459-1.3481 2.6508.3585 1.1048 1.5433 1.7094 2.6464 1.3503z" fill="#EAEEF9"/><path d="M95.6654 63.2193V81.731c0 2.3561-1.9321 4.3757-4.3682 4.3757H30.2247c-2.3521 0-4.3683-1.9355-4.3683-4.3757V61.6206" stroke="#84A2FF" stroke-width="3" stroke-linecap="round" stroke-linejoin="round"/><path d="M99.1092 47.146H74.0754c-2.4362 0-4.7883.8417-6.6364 2.3563l-6.5526 5.3851c-1.8481 1.5146-4.2002 2.3559-6.6364 2.3559H25.7718c-2.8562 0-5.2083 2.3562-5.2083 5.2171 0 .2525.0001.5048.0841.7573l5.2083 27.7676c.42 2.6085 2.6042 4.5437 5.2083 4.5437h60.6525c2.6041 0 4.7883-1.851 5.2083-4.4594l7.309-37.9493c.504-2.8609-1.428-5.4694-4.2847-5.9743h-.8401z" fill="#fff"/><path d="M100.035 74.9992l4.2-21.8776c.504-2.8609-1.428-5.4694-4.2845-5.9743-.252-.0842-.5881-.0838-.8401-.0838H74.0765c-2.4361 0-4.7882.8413-6.6364 2.3559l-6.5525 5.3851c-1.8481 1.5146-4.2002 2.3563-6.6364 2.3563H38.458M29.384 57.2441h-3.5282c-2.8562 0-5.2083 2.3562-5.2083 5.2172 0 .2524-.0002.5047.0838.7572l5.2084 27.7676c.42 2.6085 2.6043 4.5438 5.2085 4.5438h60.6524c2.6042 0 4.7883-1.8511 5.2084-4.4595l1.8481-9.5082" stroke="#6F7590" stroke-miterlimit="10" stroke-linecap="round" stroke-linejoin="round"/><g filter="url(#filter0_d_2272:142688)"><path d="M109.854 93.7037c-.336 1.4305-.84 2.8609-1.428 4.1231-1.597 3.0292-4.033 5.4692-7.057 6.9842-3.1082 1.599-6.8044 2.188-10.5847 1.43-8.7366-1.851-14.3651-10.3495-12.5169-19.1006 1.8481-8.751 10.3327-14.3887 19.0694-12.5375 3.1082.6732 5.8802 2.1878 8.1482 4.3755 3.865 3.8707 5.461 9.4242 4.369 14.7253z" fill="url(#paint0_linear_2272:142688)"/></g><path d="M99.1731 88.9825h-3.6964v-3.7023c0-.7573-.588-1.4306-1.4281-1.4306-.756 0-1.428.5892-1.428 1.4306v3.7023h-3.6964c-.7561 0-1.4281.5892-1.4281 1.4306 0 .8415.588 1.4302 1.4281 1.4302h3.6964v3.7027c0 .7573.588 1.4302 1.428 1.4302.7561 0 1.4281-.5887 1.4281-1.4302v-3.7027h3.6964c.756 0 1.4279-.5887 1.4279-1.4302 0-.8414-.6719-1.4306-1.4279-1.4306z" fill="#fff"/><path d="M14.1795 75.6848c-.0591-1.1112-1.0088-1.9653-2.1213-1.9077-1.1125.0577-1.9665 1.0053-1.9074 2.1166.0591 1.1112 1.0089 1.9653 2.1214 1.9077 1.1124-.0577 1.9664-1.0053 1.9073-2.1166z" fill="#E2EBFF"/><path d="M8.95776 69.731c-.04018-.7557-.68601-1.3365-1.4425-1.2973-.7565.0393-1.33718.6836-1.297 1.4393.04018.7556.68601 1.3364 1.44251 1.2972.75649-.0392 1.33718-.6836 1.29699-1.4392z" fill="#F34D77"/><path d="M50.6393 75.9232c1.4847 0 2.6882-1.2056 2.6882-2.6927 0-1.4871-1.2035-2.6924-2.6882-2.6924-1.4846 0-2.6881 1.2053-2.6881 2.6924s1.2035 2.6927 2.6881 2.6927zM71.8083 75.8398c1.4846 0 2.6881-1.2053 2.6881-2.6924s-1.2035-2.6928-2.6881-2.6928c-1.4847 0-2.6882 1.2057-2.6882 2.6928s1.2035 2.6924 2.6882 2.6924zM65.9358 79.5513c0 .8692-1.7682 1.5804-3.9396 1.5804-2.187 0-3.9552-.7112-3.9552-1.5804h7.8948z" fill="#6F7590"/><path d="M55.9937 10.5616v38.1163c0 .8011-.6642 1.4686-1.4612 1.4686H2.46118C1.66417 50.1465 1 49.479 1 48.6779V10.5616c0-.80108.66417-1.46862 1.46118-1.46862H54.5325c.797-.06675 1.4612.60079 1.4612 1.46862z" fill="#fff"/><path d="M5.1843 11.8965v38.2498H2.46118C1.66417 50.1463 1 49.4788 1 48.6778V11.8965h4.1843z" fill="#F4F6FD"/><path d="M55.9937 10.5616v1.8691H1v-1.8691c0-.80108.66417-1.46862 1.46118-1.46862H54.5325c.797-.06675 1.4612.60079 1.4612 1.46862z" fill="url(#paint1_linear_2272:142688)"/><path d="M42.8469 8.90234H54.802c.797 0 1.4612.66754 1.4612 1.46856v38.1164c0 .801-.6642 1.4686-1.4612 1.4686H2.73072c-.79701 0-1.46119-.6676-1.46119-1.4686V10.3709c0-.80102.66418-1.46856 1.46119-1.46856H37.2678" stroke="#6F7590" stroke-miterlimit="10" stroke-linecap="round" stroke-linejoin="round"/><path d="M2.66023 11.2955c.25677 0 .46493-.209.46493-.4668 0-.2579-.20816-.4669-.46493-.4669-.25676 0-.46492.209-.46492.4669 0 .2578.20816.4668.46492.4668zM3.98934 11.295c.25677 0 .46492-.209.46492-.4668 0-.2579-.20815-.4669-.46492-.4669s-.46493.209-.46493.4669c0 .2578.20816.4668.46493.4668zM5.31844 11.295c.25677 0 .46492-.209.46492-.4668 0-.2579-.20815-.4669-.46492-.4669s-.46492.209-.46492.4669c0 .2578.20815.4668.46492.4668z" fill="#fff"/><path d="M3.12515 15.7669h-.39851c-.26567 0-.46492-.2001-.46492-.4669 0-.2667.26567-.4001.46492-.4001h.39851c.26567 0 .46492.2001.46492.4668 0 .2668-.19925.4002-.46492.4002zM3.12515 17.9034h-.39851c-.26567 0-.46492-.2001-.46492-.4668 0-.2668.19925-.4669.46492-.4669h.39851c.26567 0 .46492.2001.46492.4669 0 .2667-.19925.4668-.46492.4668zM3.12515 20.0391h-.39851c-.26567 0-.46492-.2-.46492-.4668s.19925-.4668.46492-.4668h.39851c.26567 0 .46492.2.46492.4668s-.19925.4668-.46492.4668zM3.12515 22.1759h-.39851c-.26567 0-.46492-.2001-.46492-.4669 0-.2667.19925-.4668.46492-.4668h.39851c.26567 0 .46492.2001.46492.4668 0 .2668-.19925.4669-.46492.4669zM3.12515 24.3121h-.39851c-.26567 0-.46492-.2001-.46492-.4668 0-.2668.19925-.4669.46492-.4669h.39851c.26567 0 .46492.2001.46492.4669 0 .2667-.19925.4668-.46492.4668zM3.12515 26.4475h-.39851c-.26567 0-.46492-.2-.46492-.4668s.26567-.4001.46492-.4001h.39851c.26567 0 .46492.2.46492.4668s-.19925.4001-.46492.4001zM3.12515 28.5836h-.39851c-.26567 0-.46492-.2001-.46492-.4669 0-.2667.19925-.4668.46492-.4668h.39851c.26567 0 .46492.2001.46492.4668 0 .2668-.19925.4669-.46492.4669zM3.12515 30.7198h-.39851c-.26567 0-.46492-.2001-.46492-.4668 0-.2668.19925-.4669.46492-.4669h.39851c.26567 0 .46492.2001.46492.4669 0 .2667-.19925.4668-.46492.4668zM3.12515 32.856h-.39851c-.26567 0-.46492-.2-.46492-.4668s.19925-.4668.46492-.4668h.39851c.26567 0 .46492.2.46492.4668s-.19925.4668-.46492.4668zM3.12515 34.9254h-.39851c-.26567 0-.46492-.2001-.46492-.4669 0-.2667.19925-.4668.46492-.4668h.39851c.26567 0 .46492.2001.46492.4668 0 .2668-.19925.4669-.46492.4669zM3.12515 37.0616h-.39851c-.26567 0-.46492-.2001-.46492-.4668 0-.2668.19925-.4669.46492-.4669h.39851c.26567 0 .46492.2001.46492.4669 0 .2667-.19925.4668-.46492.4668zM3.12515 39.1978h-.39851c-.26567 0-.46492-.2-.46492-.4668s.19925-.4668.46492-.4668h.39851c.26567 0 .46492.2.46492.4668s-.19925.4668-.46492.4668zM3.12515 41.3336h-.39851c-.26567 0-.46492-.2001-.46492-.4669 0-.2667.19925-.4668.46492-.4668h.39851c.26567 0 .46492.2001.46492.4668 0 .2668-.19925.4669-.46492.4669zM3.12515 43.4703h-.39851c-.26567 0-.46492-.2001-.46492-.4668 0-.2668.19925-.4669.46492-.4669h.39851c.26567 0 .46492.2001.46492.4669 0 .2667-.19925.4668-.46492.4668zM3.12515 45.6065h-.39851c-.26567 0-.46492-.2-.46492-.4668s.19925-.4668.46492-.4668h.39851c.26567 0 .46492.2.46492.4668s-.19925.4668-.46492.4668zM3.12515 47.7428h-.39851c-.26567 0-.46492-.2001-.46492-.4669 0-.2667.19925-.4668.46492-.4668h.39851c.26567 0 .46492.2001.46492.4668 0 .2668-.19925.4669-.46492.4669zM17.2049 18.4596H6.97664c-.26567 0-.46492-.2001-.46492-.4669s.19925-.4668.46492-.4668H17.2049c.2657 0 .465.2.465.4668s-.2657.4669-.465.4669zM15.0796 20.5958H6.97664c-.26567 0-.46492-.2001-.46492-.4669 0-.2667.19925-.4668.46492-.4668h8.10296c.2656 0 .4649.2001.4649.4668-.0664.2668-.2657.4669-.4649.4669zM36.7984 20.5958H16.6739c-.2657 0-.4649-.2001-.4649-.4669 0-.2667.1992-.4668.4649-.4668h20.1245c.2657 0 .4649.2001.4649.4668 0 .2668-.1992.4669-.4649.4669z" fill="#C0D6FF"/><path d="M45.4991 20.5958h-5.8447c-.2657 0-.4649-.2001-.4649-.4669 0-.2667.1992-.4668.4649-.4668h5.8447c.2657 0 .4649.2001.4649.4668 0 .2668-.1992.4669-.4649.4669z" fill="#EAEEF9"/><g filter="url(#filter1_d_2272:142688)"><path d="M50.3461 20.5958h-1.9925c-.2657 0-.4649-.2001-.4649-.4669 0-.2667.1992-.4668.4649-.4668h1.9925c.2657 0 .4649.2001.4649.4668 0 .2668-.1992.4669-.4649.4669z" fill="url(#paint2_linear_2272:142688)"/></g><path d="M20.2596 22.732H10.0313c-.26564 0-.46489-.2001-.46489-.4668 0-.2668.19925-.4669.46489-.4669h10.2283c.2657 0 .4649.2001.4649.4669-.0664.2667-.2656.4668-.4649.4668zM20.2596 31.2096H10.0313c-.26564 0-.46489-.2001-.46489-.4669 0-.2667.19925-.4668.46489-.4668h10.2283c.2657 0 .4649.2001.4649.4668-.0664.2668-.2656.4669-.4649.4669z" fill="#EA67A4"/><path d="M17.5365 33.3458h-7.5052c-.26564 0-.46489-.2001-.46489-.4669 0-.2667.19925-.4668.46489-.4668h7.5052c.2657 0 .4649.2001.4649.4668 0 .2668-.1992.4669-.4649.4669zM37.3957 33.3458H19.5958c-.2657 0-.4649-.2001-.4649-.4669 0-.2667.1992-.4668.4649-.4668h17.7999c.2656 0 .4649.2001.4649.4668 0 .2668-.2657.4669-.4649.4669zM23.115 24.8682h-9.5641c-.2657 0-.465-.2-.465-.4668s.1993-.4668.465-.4668h9.5641c.2656 0 .4649.2.4649.4668s-.1993.4668-.4649.4668z" fill="#C0D6FF"/><g filter="url(#filter2_d_2272:142688)"><path d="M28.4949 24.8682h-3.9186c-.2657 0-.465-.2-.465-.4668s.1993-.4668.465-.4668h3.9186c.2656 0 .4649.2.4649.4668s-.1993.4668-.4649.4668z" fill="url(#paint3_linear_2272:142688)"/></g><path d="M39.9186 26.9376H13.5509c-.2657 0-.465-.2001-.465-.4669 0-.2667.1993-.4668.465-.4668h26.3677c.2657 0 .4649.2001.4649.4668 0 .2668-.1992.4669-.4649.4669z" fill="#C0D6FF"/><g filter="url(#filter3_d_2272:142688)"><path d="M44.6353 26.9376h-2.4575c-.2657 0-.4649-.2001-.4649-.4669 0-.2667.1992-.4668.4649-.4668h2.4575c.2656 0 .4649.2001.4649.4668-.0664.2668-.1993.4669-.4649.4669z" fill="url(#paint4_linear_2272:142688)"/></g><path d="M31.6828 29.0738H13.5509c-.2657 0-.465-.2001-.465-.4668 0-.2668.1993-.4669.465-.4669h18.1319c.2657 0 .4649.2001.4649.4669 0 .2667-.1992.4668-.4649.4668zM23.7791 35.4151H13.5509c-.2657 0-.465-.2001-.465-.4668 0-.2668.1993-.4669.465-.4669h10.2282c.2657 0 .465.2001.465.4669 0 .2667-.1993.4668-.465.4668z" fill="#C0D6FF"/><path d="M120.731 2.65922V40.7756c0 .801-.664 1.4686-1.461 1.4686H67.1985c-.797 0-1.4612-.6676-1.4612-1.4686V2.65922c0-.80104.6642-1.46858 1.4612-1.46858H119.27c.797-.06676 1.461.60078 1.461 1.46858z" fill="#fff"/><path d="M69.9216 3.99414V42.244h-2.7231c-.797 0-1.4612-.6675-1.4612-1.4686V3.99414h4.1843z" fill="#F4F6FD"/><path d="M120.731 2.65922v1.8691H65.7373v-1.8691c0-.80104.6642-1.46858 1.4612-1.46858H119.27c.797-.06676 1.461.60078 1.461 1.46858z" fill="url(#paint5_linear_2272:142688)"/><path d="M107.584 1h11.955c.797 0 1.461.66754 1.461 1.46858V40.5849c0 .8011-.664 1.4686-1.461 1.4686H67.468c-.797 0-1.4612-.6675-1.4612-1.4686V2.46858C66.0068 1.66754 66.671 1 67.468 1h34.537" stroke="#6F7590" stroke-miterlimit="10" stroke-linecap="round" stroke-linejoin="round"/><path d="M67.3975 3.39315c.2568 0 .465-.20902.465-.46684 0-.25783-.2082-.46684-.465-.46684-.2567 0-.4649.20901-.4649.46684 0 .25782.2082.46684.4649.46684zM68.7276 3.39266c.2568 0 .4649-.20901.4649-.46684s-.2081-.46684-.4649-.46684-.4649.20901-.4649.46684.2081.46684.4649.46684zM70.0567 3.39266c.2568 0 .4649-.20901.4649-.46684s-.2081-.46684-.4649-.46684-.4649.20901-.4649.46684.2081.46684.4649.46684z" fill="#fff"/><path d="M67.8625 7.86454h-.3986c-.2656 0-.4649-.20007-.4649-.46684 0-.26676.2657-.40014.4649-.40014h.3986c.2656 0 .4649.20007.4649.46684 0 .26676-.1993.40014-.4649.40014zM67.8625 10.0011h-.3986c-.2656 0-.4649-.20012-.4649-.46688s.1993-.46684.4649-.46684h.3986c.2656 0 .4649.20008.4649.46684s-.1993.46688-.4649.46688zM67.8625 12.1368h-.3986c-.2656 0-.4649-.2001-.4649-.4668 0-.2668.1993-.4669.4649-.4669h.3986c.2656 0 .4649.2001.4649.4669 0 .2667-.1993.4668-.4649.4668zM67.8625 14.273h-.3986c-.2656 0-.4649-.2-.4649-.4668s.1993-.4668.4649-.4668h.3986c.2656 0 .4649.2.4649.4668s-.1993.4668-.4649.4668zM67.8625 16.4093h-.3986c-.2656 0-.4649-.2001-.4649-.4669 0-.2667.1993-.4668.4649-.4668h.3986c.2656 0 .4649.2001.4649.4668 0 .2668-.1993.4669-.4649.4669zM67.8625 18.5452h-.3986c-.2656 0-.4649-.2001-.4649-.4668 0-.2668.2657-.4002.4649-.4002h.3986c.2656 0 .4649.2001.4649.4669 0 .2667-.1993.4001-.4649.4001zM67.8625 20.6812h-.3986c-.2656 0-.4649-.2-.4649-.4668s.1993-.4668.4649-.4668h.3986c.2656 0 .4649.2.4649.4668s-.1993.4668-.4649.4668zM67.8625 22.818h-.3986c-.2656 0-.4649-.2001-.4649-.4669 0-.2667.1993-.4668.4649-.4668h.3986c.2656 0 .4649.2001.4649.4668 0 .2668-.1993.4669-.4649.4669zM67.8625 24.9537h-.3986c-.2656 0-.4649-.2001-.4649-.4668 0-.2668.1993-.4669.4649-.4669h.3986c.2656 0 .4649.2001.4649.4669 0 .2667-.1993.4668-.4649.4668zM67.8625 27.023h-.3986c-.2656 0-.4649-.2-.4649-.4668s.1993-.4668.4649-.4668h.3986c.2656 0 .4649.2.4649.4668s-.1993.4668-.4649.4668zM67.8625 29.1593h-.3986c-.2656 0-.4649-.2001-.4649-.4669 0-.2667.1993-.4668.4649-.4668h.3986c.2656 0 .4649.2001.4649.4668 0 .2668-.1993.4669-.4649.4669zM67.8625 31.2955h-.3986c-.2656 0-.4649-.2001-.4649-.4668 0-.2668.1993-.4669.4649-.4669h.3986c.2656 0 .4649.2001.4649.4669 0 .2667-.1993.4668-.4649.4668zM67.8625 33.4312h-.3986c-.2656 0-.4649-.2-.4649-.4668s.1993-.4668.4649-.4668h.3986c.2656 0 .4649.2.4649.4668s-.1993.4668-.4649.4668zM67.8625 35.5675h-.3986c-.2656 0-.4649-.2001-.4649-.4669 0-.2667.1993-.4668.4649-.4668h.3986c.2656 0 .4649.2001.4649.4668 0 .2668-.1993.4669-.4649.4669zM67.8625 37.7037h-.3986c-.2656 0-.4649-.2001-.4649-.4668 0-.2668.1993-.4669.4649-.4669h.3986c.2656 0 .4649.2001.4649.4669 0 .2667-.1993.4668-.4649.4668zM67.8625 39.8399h-.3986c-.2656 0-.4649-.2001-.4649-.4668 0-.2668.1993-.4669.4649-.4669h.3986c.2656 0 .4649.2001.4649.4669 0 .2667-.1993.4668-.4649.4668zM81.9442 10.5572H71.7159c-.2657 0-.4649-.2001-.4649-.4668 0-.26679.1992-.46686.4649-.46686h10.2283c.2657 0 .4649.20007.4649.46686 0 .2667-.2657.4668-.4649.4668zM79.8188 12.6934h-8.1029c-.2657 0-.4649-.2-.4649-.4668s.1992-.4668.4649-.4668h8.1029c.2657 0 .4649.2.4649.4668-.0664.2668-.2656.4668-.4649.4668zM101.538 12.6934H81.4132c-.2657 0-.465-.2-.465-.4668s.1993-.4668.465-.4668h20.1248c.265 0 .465.2.465.4668s-.2.4668-.465.4668z" fill="#C0D6FF"/><path d="M110.238 12.6934h-5.844c-.266 0-.465-.2-.465-.4668s.199-.4668.465-.4668h5.844c.266 0 .465.2.465.4668s-.199.4668-.465.4668z" fill="#EAEEF9"/><g filter="url(#filter4_d_2272:142688)"><path d="M115.085 12.6934h-1.992c-.266 0-.465-.2-.465-.4668s.199-.4668.465-.4668h1.992c.266 0 .465.2.465.4668s-.199.4668-.465.4668z" fill="url(#paint6_linear_2272:142688)"/></g><path d="M84.9989 14.8292H74.7706c-.2657 0-.4649-.2001-.4649-.4669 0-.2667.1992-.4668.4649-.4668h10.2283c.2656 0 .4649.2001.4649.4668-.0664.2668-.2657.4669-.4649.4669zM84.9989 23.3072H74.7706c-.2657 0-.4649-.2001-.4649-.4668 0-.2668.1992-.4669.4649-.4669h10.2283c.2656 0 .4649.2001.4649.4669-.0664.2667-.2657.4668-.4649.4668z" fill="#EA67A4"/><path d="M82.2758 25.4434h-7.5052c-.2657 0-.4649-.2-.4649-.4668s.1992-.4668.4649-.4668h7.5052c.2656 0 .4649.2.4649.4668s-.1993.4668-.4649.4668zM102.135 25.4434h-17.8c-.2656 0-.4649-.2-.4649-.4668s.1993-.4668.4649-.4668h17.8c.266 0 .465.2.465.4668s-.266.4668-.465.4668zM87.8542 16.9654h-9.5641c-.2657 0-.4649-.2001-.4649-.4668 0-.2668.1992-.4669.4649-.4669h9.5641c.2657 0 .465.2001.465.4669 0 .2667-.1993.4668-.465.4668z" fill="#C0D6FF"/><g filter="url(#filter5_d_2272:142688)"><path d="M93.2341 16.9654h-3.9186c-.2657 0-.4649-.2001-.4649-.4668 0-.2668.1992-.4669.4649-.4669h3.9186c.2657 0 .465.2001.465.4669 0 .2667-.1993.4668-.465.4668z" fill="url(#paint7_linear_2272:142688)"/></g><path d="M104.658 19.0347H78.2901c-.2657 0-.4649-.2-.4649-.4668s.1992-.4668.4649-.4668h26.3679c.266 0 .465.2.465.4668s-.199.4668-.465.4668z" fill="#C0D6FF"/><g filter="url(#filter6_d_2272:142688)"><path d="M109.375 19.0347h-2.458c-.266 0-.465-.2-.465-.4668s.199-.4668.465-.4668h2.458c.265 0 .464.2.464.4668-.066.2668-.199.4668-.464.4668z" fill="url(#paint8_linear_2272:142688)"/></g><path d="M96.4221 21.1715h-18.132c-.2657 0-.4649-.2001-.4649-.4669 0-.2667.1992-.4668.4649-.4668h18.132c.2657 0 .4649.2001.4649.4668 0 .2668-.1992.4669-.4649.4669zM88.5184 27.5128H78.2901c-.2657 0-.4649-.2001-.4649-.4669 0-.2667.1992-.4668.4649-.4668h10.2283c.2657 0 .4649.2001.4649.4668 0 .2668-.1992.4669-.4649.4669z" fill="#C0D6FF"/><defs><linearGradient id="paint0_linear_2272:142688" x1="77.9252" y1="90.4253" x2="110.206" y2="90.4253" gradientUnits="userSpaceOnUse"><stop stop-color="#83A6FF"/><stop offset="1" stop-color="#5277D7"/></linearGradient><linearGradient id="paint1_linear_2272:142688" x1=".995091" y1="10.7774" x2="55.9785" y2="10.7774" gradientUnits="userSpaceOnUse"><stop stop-color="#6F88FF"/><stop offset="1" stop-color="#6E88FF" stop-opacity="0"/></linearGradient><linearGradient id="paint2_linear_2272:142688" x1="47.8895" y1="20.1294" x2="50.8125" y2="20.1294" gradientUnits="userSpaceOnUse"><stop stop-color="#83A6FF"/><stop offset="1" stop-color="#5277D7"/></linearGradient><linearGradient id="paint3_linear_2272:142688" x1="24.1127" y1="24.4019" x2="28.9622" y2="24.4019" gradientUnits="userSpaceOnUse"><stop stop-color="#83A6FF"/><stop offset="1" stop-color="#5277D7"/></linearGradient><linearGradient id="paint4_linear_2272:142688" x1="41.7139" y1="26.4712" x2="45.1018" y2="26.4712" gradientUnits="userSpaceOnUse"><stop stop-color="#83A6FF"/><stop offset="1" stop-color="#5277D7"/></linearGradient><linearGradient id="paint5_linear_2272:142688" x1="65.7324" y1="2.87503" x2="120.716" y2="2.87503" gradientUnits="userSpaceOnUse"><stop stop-color="#BDCDF4"/><stop offset="1" stop-color="#6E88FF" stop-opacity="0"/></linearGradient><linearGradient id="paint6_linear_2272:142688" x1="112.629" y1="12.227" x2="115.552" y2="12.227" gradientUnits="userSpaceOnUse"><stop stop-color="#83A6FF"/><stop offset="1" stop-color="#5277D7"/></linearGradient><linearGradient id="paint7_linear_2272:142688" x1="88.852" y1="16.499" x2="93.7014" y2="16.499" gradientUnits="userSpaceOnUse"><stop stop-color="#83A6FF"/><stop offset="1" stop-color="#5277D7"/></linearGradient><linearGradient id="paint8_linear_2272:142688" x1="106.453" y1="18.5684" x2="109.841" y2="18.5684" gradientUnits="userSpaceOnUse"><stop stop-color="#83A6FF"/><stop offset="1" stop-color="#5277D7"/></linearGradient><filter id="filter0_d_2272:142688" x="69.916" y="71.251" width="48.2744" height="48.3179" filterUnits="userSpaceOnUse" color-interpolation-filters="sRGB"><feFlood flood-opacity="0" result="BackgroundImageFix"/><feColorMatrix in="SourceAlpha" values="0 0 0 0 0 0 0 0 0 0 0 0 0 0 0 0 0 0 127 0" result="hardAlpha"/><feOffset dy="5"/><feGaussianBlur stdDeviation="4"/><feColorMatrix values="0 0 0 0 0.1125 0 0 0 0 0.295916 0 0 0 0 1 0 0 0 0.22 0"/><feBlend in2="BackgroundImageFix" result="effect1_dropShadow_2272:142688"/><feBlend in="SourceGraphic" in2="effect1_dropShadow_2272:142688" result="shape"/></filter><filter id="filter1_d_2272:142688" x="39.8887" y="16.6621" width="18.9229" height="16.9336" filterUnits="userSpaceOnUse" color-interpolation-filters="sRGB"><feFlood flood-opacity="0" result="BackgroundImageFix"/><feColorMatrix in="SourceAlpha" values="0 0 0 0 0 0 0 0 0 0 0 0 0 0 0 0 0 0 127 0" result="hardAlpha"/><feOffset dy="5"/><feGaussianBlur stdDeviation="4"/><feColorMatrix values="0 0 0 0 0.1125 0 0 0 0 0.295916 0 0 0 0 1 0 0 0 0.22 0"/><feBlend in2="BackgroundImageFix" result="effect1_dropShadow_2272:142688"/><feBlend in="SourceGraphic" in2="effect1_dropShadow_2272:142688" result="shape"/></filter><filter id="filter2_d_2272:142688" x="16.1113" y="20.9346" width="20.8486" height="16.9336" filterUnits="userSpaceOnUse" color-interpolation-filters="sRGB"><feFlood flood-opacity="0" result="BackgroundImageFix"/><feColorMatrix in="SourceAlpha" values="0 0 0 0 0 0 0 0 0 0 0 0 0 0 0 0 0 0 127 0" result="hardAlpha"/><feOffset dy="5"/><feGaussianBlur stdDeviation="4"/><feColorMatrix values="0 0 0 0 0.1125 0 0 0 0 0.295916 0 0 0 0 1 0 0 0 0.22 0"/><feBlend in2="BackgroundImageFix" result="effect1_dropShadow_2272:142688"/><feBlend in="SourceGraphic" in2="effect1_dropShadow_2272:142688" result="shape"/></filter><filter id="filter3_d_2272:142688" x="33.7129" y="23.0039" width="19.3877" height="16.9336" filterUnits="userSpaceOnUse" color-interpolation-filters="sRGB"><feFlood flood-opacity="0" result="BackgroundImageFix"/><feColorMatrix in="SourceAlpha" values="0 0 0 0 0 0 0 0 0 0 0 0 0 0 0 0 0 0 127 0" result="hardAlpha"/><feOffset dy="5"/><feGaussianBlur stdDeviation="4"/><feColorMatrix values="0 0 0 0 0.1125 0 0 0 0 0.295916 0 0 0 0 1 0 0 0 0.22 0"/><feBlend in2="BackgroundImageFix" result="effect1_dropShadow_2272:142688"/><feBlend in="SourceGraphic" in2="effect1_dropShadow_2272:142688" result="shape"/></filter><filter id="filter4_d_2272:142688" x="104.628" y="8.75977" width="18.9229" height="16.9336" filterUnits="userSpaceOnUse" color-interpolation-filters="sRGB"><feFlood flood-opacity="0" result="BackgroundImageFix"/><feColorMatrix in="SourceAlpha" values="0 0 0 0 0 0 0 0 0 0 0 0 0 0 0 0 0 0 127 0" result="hardAlpha"/><feOffset dy="5"/><feGaussianBlur stdDeviation="4"/><feColorMatrix values="0 0 0 0 0.1125 0 0 0 0 0.295916 0 0 0 0 1 0 0 0 0.22 0"/><feBlend in2="BackgroundImageFix" result="effect1_dropShadow_2272:142688"/><feBlend in="SourceGraphic" in2="effect1_dropShadow_2272:142688" result="shape"/></filter><filter id="filter5_d_2272:142688" x="80.8506" y="13.0317" width="20.8486" height="16.9336" filterUnits="userSpaceOnUse" color-interpolation-filters="sRGB"><feFlood flood-opacity="0" result="BackgroundImageFix"/><feColorMatrix in="SourceAlpha" values="0 0 0 0 0 0 0 0 0 0 0 0 0 0 0 0 0 0 127 0" result="hardAlpha"/><feOffset dy="5"/><feGaussianBlur stdDeviation="4"/><feColorMatrix values="0 0 0 0 0.1125 0 0 0 0 0.295916 0 0 0 0 1 0 0 0 0.22 0"/><feBlend in2="BackgroundImageFix" result="effect1_dropShadow_2272:142688"/><feBlend in="SourceGraphic" in2="effect1_dropShadow_2272:142688" result="shape"/></filter><filter id="filter6_d_2272:142688" x="98.4521" y="15.1011" width="19.3877" height="16.9336" filterUnits="userSpaceOnUse" color-interpolation-filters="sRGB"><feFlood flood-opacity="0" result="BackgroundImageFix"/><feColorMatrix in="SourceAlpha" values="0 0 0 0 0 0 0 0 0 0 0 0 0 0 0 0 0 0 127 0" result="hardAlpha"/><feOffset dy="5"/><feGaussianBlur stdDeviation="4"/><feColorMatrix values="0 0 0 0 0.1125 0 0 0 0 0.295916 0 0 0 0 1 0 0 0 0.22 0"/><feBlend in2="BackgroundImageFix" result="effect1_dropShadow_2272:142688"/><feBlend in="SourceGraphic" in2="effect1_dropShadow_2272:142688" result="shape"/></filter></defs></svg>