<svg width="124" height="120" viewBox="0 0 124 120" fill="none" xmlns="http://www.w3.org/2000/svg">
<path d="M61.628 107.999C84.6865 107.999 103.379 89.2761 103.379 66.1796C103.379 43.0832 84.6865 24.3599 61.628 24.3599C38.5695 24.3599 19.877 43.0832 19.877 66.1796C19.877 89.2761 38.5695 107.999 61.628 107.999Z" fill="#EAEEF9"/>
<path d="M30.8839 39.0854H90.2763C92.6284 39.0854 94.4766 40.9366 94.4766 43.2927V80.9052C94.4766 83.2613 92.6284 85.1125 90.2763 85.1125H30.8839C28.5317 85.1125 26.6836 83.2613 26.6836 80.9052V43.2927C26.6836 40.9366 28.6157 39.0854 30.8839 39.0854Z" fill="#C0D6FF"/>
<path d="M94.3575 47.2938V80.8933C94.3575 83.2394 92.5304 85.0828 90.205 85.0828H31.4045C29.0791 85.0828 27.252 83.2394 27.252 80.8933V43.4395C27.252 41.0934 29.0791 39.25 31.4045 39.25H90.1219C91.949 39.25 93.444 40.4231 94.0253 42.015" stroke="#6F7590" stroke-miterlimit="10" stroke-linecap="round" stroke-linejoin="round"/>
<path d="M118.193 56.8709C119.494 55.6796 119.585 53.6571 118.396 52.3535C117.206 51.0499 115.187 50.9588 113.886 52.1501C112.584 53.3414 112.493 55.3639 113.683 56.6675C114.872 57.9711 116.891 58.0622 118.193 56.8709Z" fill="#EAEEF9"/>
<path d="M37.5026 28.5447C38.6056 28.1856 39.2092 26.9988 38.8507 25.8939C38.4922 24.7891 37.3073 24.1845 36.2043 24.5436C35.1012 24.9027 34.4977 26.0895 34.8562 27.1944C35.2147 28.2992 36.3995 28.9038 37.5026 28.5447Z" fill="#EAEEF9"/>
<path d="M95.6645 63.2193V81.731C95.6645 84.0871 93.7324 86.1067 91.2962 86.1067H30.2237C27.8716 86.1067 25.8555 84.1712 25.8555 81.731V61.6206" stroke="#84A2FF" stroke-width="3" stroke-linecap="round" stroke-linejoin="round"/>
<path d="M99.1083 47.146H74.0744C71.6382 47.146 69.2861 47.9877 67.438 49.5023L60.8855 54.8874C59.0373 56.402 56.6852 57.2433 54.2491 57.2433H25.7708C22.9146 57.2433 20.5625 59.5995 20.5625 62.4604C20.5625 62.7129 20.5626 62.9652 20.6466 63.2177L25.8549 90.9853C26.275 93.5938 28.4591 95.529 31.0633 95.529H91.7157C94.3199 95.529 96.504 93.678 96.924 91.0696L104.233 53.1203C104.737 50.2594 102.805 47.6509 99.9483 47.146C99.6963 47.146 99.3603 47.146 99.1083 47.146Z" fill="white"/>
<path d="M100.034 74.9992L104.234 53.1216C104.738 50.2607 102.806 47.6522 99.9495 47.1473C99.6975 47.0631 99.3615 47.0635 99.1094 47.0635H74.0756C71.6394 47.0635 69.2873 47.9048 67.4392 49.4194L60.8866 54.8045C59.0385 56.3191 56.6864 57.1608 54.2502 57.1608H38.457" stroke="#6F7590" stroke-miterlimit="10" stroke-linecap="round" stroke-linejoin="round"/>
<path d="M29.383 57.2441H25.8548C22.9986 57.2441 20.6465 59.6003 20.6465 62.4613C20.6465 62.7137 20.6464 62.966 20.7304 63.2185L25.9387 90.9861C26.3587 93.5946 28.5431 95.5299 31.1473 95.5299H91.7997C94.4039 95.5299 96.588 93.6788 97.008 91.0704L98.8561 81.5622" stroke="#6F7590" stroke-miterlimit="10" stroke-linecap="round" stroke-linejoin="round"/>
<g filter="url(#filter0_d_2272:142683)">
<path d="M109.854 93.7037C109.518 95.1342 109.014 96.5646 108.426 97.8268C106.829 100.856 104.393 103.296 101.369 104.811C98.2608 106.41 94.5646 106.999 90.7843 106.241C82.0477 104.39 76.4192 95.8915 78.2674 87.1404C80.1155 78.3894 88.6001 72.7517 97.3368 74.6029C100.445 75.2761 103.217 76.7907 105.485 78.9784C109.35 82.8491 110.946 88.4026 109.854 93.7037Z" fill="url(#paint0_linear_2272:142683)"/>
</g>
<path d="M99.1731 88.9825H95.4767V85.2802C95.4767 84.5229 94.8887 83.8496 94.0486 83.8496C93.2926 83.8496 92.6206 84.4388 92.6206 85.2802V88.9825H88.9242C88.1681 88.9825 87.4961 89.5717 87.4961 90.4131C87.4961 91.2546 88.0841 91.8433 88.9242 91.8433H92.6206V95.546C92.6206 96.3033 93.2086 96.9762 94.0486 96.9762C94.8047 96.9762 95.4767 96.3875 95.4767 95.546V91.8433H99.1731C99.9291 91.8433 100.601 91.2546 100.601 90.4131C100.601 89.5717 99.9291 88.9825 99.1731 88.9825Z" fill="white"/>
<path d="M14.1795 75.6848C14.1204 74.5736 13.1707 73.7195 12.0582 73.7771C10.9457 73.8348 10.0917 74.7824 10.1508 75.8937C10.2099 77.0049 11.1597 77.859 12.2722 77.8014C13.3846 77.7437 14.2386 76.7961 14.1795 75.6848Z" fill="#E2EBFF"/>
<path d="M8.95776 69.731C8.91758 68.9753 8.27175 68.3945 7.51526 68.4337C6.75876 68.473 6.17808 69.1173 6.21826 69.873C6.25844 70.6286 6.90427 71.2094 7.66077 71.1702C8.41726 71.131 8.99795 70.4866 8.95776 69.731Z" fill="#F34D77"/>
<path d="M50.6393 75.9232C52.124 75.9232 53.3275 74.7176 53.3275 73.2305C53.3275 71.7434 52.124 70.5381 50.6393 70.5381C49.1547 70.5381 47.9512 71.7434 47.9512 73.2305C47.9512 74.7176 49.1547 75.9232 50.6393 75.9232Z" fill="#6F7590"/>
<path d="M71.8092 75.8398C73.2939 75.8398 74.4974 74.6345 74.4974 73.1474C74.4974 71.6603 73.2939 70.4546 71.8092 70.4546C70.3246 70.4546 69.1211 71.6603 69.1211 73.1474C69.1211 74.6345 70.3246 75.8398 71.8092 75.8398Z" fill="#6F7590"/>
<path d="M65.9358 79.5513C65.9358 80.4205 64.1676 81.1317 61.9962 81.1317C59.8092 81.1317 58.041 80.4205 58.041 79.5513H65.9358Z" fill="#6F7590"/>
<path d="M55.9937 10.5616V48.6779C55.9937 49.479 55.3295 50.1465 54.5325 50.1465H2.46118C1.66417 50.1465 1 49.479 1 48.6779V10.5616C1 9.76052 1.66417 9.09298 2.46118 9.09298H54.5325C55.3295 9.02623 55.9937 9.69377 55.9937 10.5616Z" fill="white"/>
<path d="M5.1843 11.8965V50.1463H2.46118C1.66417 50.1463 1 49.4788 1 48.6778V11.8965H5.1843Z" fill="#F4F6FD"/>
<path d="M55.9937 10.5616V12.4307H1V10.5616C1 9.76052 1.66417 9.09298 2.46118 9.09298H54.5325C55.3295 9.02623 55.9937 9.69377 55.9937 10.5616Z" fill="url(#paint1_linear_2272:142683)"/>
<path d="M42.8469 8.90234H54.802C55.599 8.90234 56.2632 9.56988 56.2632 10.3709V48.4873C56.2632 49.2883 55.599 49.9559 54.802 49.9559H2.73072C1.93371 49.9559 1.26953 49.2883 1.26953 48.4873V10.3709C1.26953 9.56988 1.93371 8.90234 2.73072 8.90234H37.2678" stroke="#6F7590" stroke-miterlimit="10" stroke-linecap="round" stroke-linejoin="round"/>
<path d="M2.66023 11.2955C2.917 11.2955 3.12516 11.0865 3.12516 10.8287C3.12516 10.5708 2.917 10.3618 2.66023 10.3618C2.40347 10.3618 2.19531 10.5708 2.19531 10.8287C2.19531 11.0865 2.40347 11.2955 2.66023 11.2955Z" fill="white"/>
<path d="M3.98836 11.295C4.24513 11.295 4.45328 11.086 4.45328 10.8282C4.45328 10.5703 4.24513 10.3613 3.98836 10.3613C3.73159 10.3613 3.52344 10.5703 3.52344 10.8282C3.52344 11.086 3.73159 11.295 3.98836 11.295Z" fill="white"/>
<path d="M5.31844 11.295C5.57521 11.295 5.78336 11.086 5.78336 10.8282C5.78336 10.5703 5.57521 10.3613 5.31844 10.3613C5.06167 10.3613 4.85352 10.5703 4.85352 10.8282C4.85352 11.086 5.06167 11.295 5.31844 11.295Z" fill="white"/>
<path d="M3.12515 15.7669H2.72664C2.46097 15.7669 2.26172 15.5668 2.26172 15.3C2.26172 15.0333 2.52739 14.8999 2.72664 14.8999H3.12515C3.39082 14.8999 3.59007 15.1 3.59007 15.3667C3.59007 15.6335 3.39082 15.7669 3.12515 15.7669Z" fill="#C0D6FF"/>
<path d="M3.12515 17.9039H2.72664C2.46097 17.9039 2.26172 17.7038 2.26172 17.4371C2.26172 17.1703 2.46097 16.9702 2.72664 16.9702H3.12515C3.39082 16.9702 3.59007 17.1703 3.59007 17.4371C3.59007 17.7038 3.39082 17.9039 3.12515 17.9039Z" fill="#C0D6FF"/>
<path d="M3.12515 20.0396H2.72664C2.46097 20.0396 2.26172 19.8396 2.26172 19.5728C2.26172 19.306 2.46097 19.106 2.72664 19.106H3.12515C3.39082 19.106 3.59007 19.306 3.59007 19.5728C3.59007 19.8396 3.39082 20.0396 3.12515 20.0396Z" fill="#C0D6FF"/>
<path d="M3.12515 22.1759H2.72664C2.46097 22.1759 2.26172 21.9758 2.26172 21.709C2.26172 21.4423 2.46097 21.2422 2.72664 21.2422H3.12515C3.39082 21.2422 3.59007 21.4423 3.59007 21.709C3.59007 21.9758 3.39082 22.1759 3.12515 22.1759Z" fill="#C0D6FF"/>
<path d="M3.12515 24.3121H2.72664C2.46097 24.3121 2.26172 24.112 2.26172 23.8453C2.26172 23.5785 2.46097 23.3784 2.72664 23.3784H3.12515C3.39082 23.3784 3.59007 23.5785 3.59007 23.8453C3.59007 24.112 3.39082 24.3121 3.12515 24.3121Z" fill="#C0D6FF"/>
<path d="M3.12515 26.4475H2.72664C2.46097 26.4475 2.26172 26.2475 2.26172 25.9807C2.26172 25.7139 2.52739 25.5806 2.72664 25.5806H3.12515C3.39082 25.5806 3.59007 25.7806 3.59007 26.0474C3.59007 26.3142 3.39082 26.4475 3.12515 26.4475Z" fill="#C0D6FF"/>
<path d="M3.12515 28.5836H2.72664C2.46097 28.5836 2.26172 28.3835 2.26172 28.1167C2.26172 27.85 2.46097 27.6499 2.72664 27.6499H3.12515C3.39082 27.6499 3.59007 27.85 3.59007 28.1167C3.59007 28.3835 3.39082 28.5836 3.12515 28.5836Z" fill="#C0D6FF"/>
<path d="M3.12515 30.7198H2.72664C2.46097 30.7198 2.26172 30.5197 2.26172 30.253C2.26172 29.9862 2.46097 29.7861 2.72664 29.7861H3.12515C3.39082 29.7861 3.59007 29.9862 3.59007 30.253C3.59007 30.5197 3.39082 30.7198 3.12515 30.7198Z" fill="#C0D6FF"/>
<path d="M3.12515 32.8565H2.72664C2.46097 32.8565 2.26172 32.6565 2.26172 32.3897C2.26172 32.1229 2.46097 31.9229 2.72664 31.9229H3.12515C3.39082 31.9229 3.59007 32.1229 3.59007 32.3897C3.59007 32.6565 3.39082 32.8565 3.12515 32.8565Z" fill="#C0D6FF"/>
<path d="M3.12515 34.9259H2.72664C2.46097 34.9259 2.26172 34.7258 2.26172 34.459C2.26172 34.1923 2.46097 33.9922 2.72664 33.9922H3.12515C3.39082 33.9922 3.59007 34.1923 3.59007 34.459C3.59007 34.7258 3.39082 34.9259 3.12515 34.9259Z" fill="#C0D6FF"/>
<path d="M3.12515 37.0621H2.72664C2.46097 37.0621 2.26172 36.862 2.26172 36.5953C2.26172 36.3285 2.46097 36.1284 2.72664 36.1284H3.12515C3.39082 36.1284 3.59007 36.3285 3.59007 36.5953C3.59007 36.862 3.39082 37.0621 3.12515 37.0621Z" fill="#C0D6FF"/>
<path d="M3.12515 39.1983H2.72664C2.46097 39.1983 2.26172 38.9982 2.26172 38.7315C2.26172 38.4647 2.46097 38.2646 2.72664 38.2646H3.12515C3.39082 38.2646 3.59007 38.4647 3.59007 38.7315C3.59007 38.9982 3.39082 39.1983 3.12515 39.1983Z" fill="#C0D6FF"/>
<path d="M3.12515 41.3341H2.72664C2.46097 41.3341 2.26172 41.134 2.26172 40.8672C2.26172 40.6005 2.46097 40.4004 2.72664 40.4004H3.12515C3.39082 40.4004 3.59007 40.6005 3.59007 40.8672C3.59007 41.134 3.39082 41.3341 3.12515 41.3341Z" fill="#C0D6FF"/>
<path d="M3.12515 43.4703H2.72664C2.46097 43.4703 2.26172 43.2702 2.26172 43.0035C2.26172 42.7367 2.46097 42.5366 2.72664 42.5366H3.12515C3.39082 42.5366 3.59007 42.7367 3.59007 43.0035C3.59007 43.2702 3.39082 43.4703 3.12515 43.4703Z" fill="#C0D6FF"/>
<path d="M3.12515 45.6065H2.72664C2.46097 45.6065 2.26172 45.4065 2.26172 45.1397C2.26172 44.8729 2.46097 44.6729 2.72664 44.6729H3.12515C3.39082 44.6729 3.59007 44.8729 3.59007 45.1397C3.59007 45.4065 3.39082 45.6065 3.12515 45.6065Z" fill="#C0D6FF"/>
<path d="M3.12515 47.7428H2.72664C2.46097 47.7428 2.26172 47.5427 2.26172 47.2759C2.26172 47.0092 2.46097 46.8091 2.72664 46.8091H3.12515C3.39082 46.8091 3.59007 47.0092 3.59007 47.2759C3.59007 47.5427 3.39082 47.7428 3.12515 47.7428Z" fill="#C0D6FF"/>
<path d="M17.2049 29.4596H6.97664C6.71097 29.4596 6.51172 29.2595 6.51172 28.9927C6.51172 28.7259 6.71097 28.5259 6.97664 28.5259H17.2049C17.4706 28.5259 17.6699 28.7259 17.6699 28.9927C17.6699 29.2595 17.4042 29.4596 17.2049 29.4596Z" fill="#C0D6FF"/>
<path d="M15.0796 31.5958H6.97664C6.71097 31.5958 6.51172 31.3957 6.51172 31.1289C6.51172 30.8622 6.71097 30.6621 6.97664 30.6621H15.0796C15.3452 30.6621 15.5445 30.8622 15.5445 31.1289C15.4781 31.3957 15.2788 31.5958 15.0796 31.5958Z" fill="#C0D6FF"/>
<path d="M36.7984 31.5958H16.6739C16.4082 31.5958 16.209 31.3957 16.209 31.1289C16.209 30.8622 16.4082 30.6621 16.6739 30.6621H36.7984C37.0641 30.6621 37.2633 30.8622 37.2633 31.1289C37.2633 31.3957 37.0641 31.5958 36.7984 31.5958Z" fill="#C0D6FF"/>
<path d="M45.4991 31.5958H39.6544C39.3887 31.5958 39.1895 31.3957 39.1895 31.1289C39.1895 30.8622 39.3887 30.6621 39.6544 30.6621H45.4991C45.7648 30.6621 45.964 30.8622 45.964 31.1289C45.964 31.3957 45.7648 31.5958 45.4991 31.5958Z" fill="#EAEEF9"/>
<g filter="url(#filter1_d_2272:142683)">
<path d="M50.3461 31.5958H48.3536C48.0879 31.5958 47.8887 31.3957 47.8887 31.1289C47.8887 30.8622 48.0879 30.6621 48.3536 30.6621H50.3461C50.6118 30.6621 50.811 30.8622 50.811 31.1289C50.811 31.3957 50.6118 31.5958 50.3461 31.5958Z" fill="url(#paint2_linear_2272:142683)"/>
</g>
<path d="M20.2596 33.732H10.0313C9.76566 33.732 9.56641 33.5319 9.56641 33.2652C9.56641 32.9984 9.76566 32.7983 10.0313 32.7983H20.2596C20.5253 32.7983 20.7245 32.9984 20.7245 33.2652C20.6581 33.5319 20.4589 33.732 20.2596 33.732Z" fill="#EA67A4"/>
<path d="M20.2596 42.2096H10.0313C9.76566 42.2096 9.56641 42.0095 9.56641 41.7427C9.56641 41.476 9.76566 41.2759 10.0313 41.2759H20.2596C20.5253 41.2759 20.7245 41.476 20.7245 41.7427C20.6581 42.0095 20.4589 42.2096 20.2596 42.2096Z" fill="#EA67A4"/>
<path d="M23.115 35.8682H13.5509C13.2852 35.8682 13.0859 35.6682 13.0859 35.4014C13.0859 35.1346 13.2852 34.9346 13.5509 34.9346H23.115C23.3806 34.9346 23.5799 35.1346 23.5799 35.4014C23.5799 35.6682 23.3806 35.8682 23.115 35.8682Z" fill="#C0D6FF"/>
<g filter="url(#filter2_d_2272:142683)">
<path d="M28.4949 35.8682H24.5763C24.3106 35.8682 24.1113 35.6682 24.1113 35.4014C24.1113 35.1346 24.3106 34.9346 24.5763 34.9346H28.4949C28.7605 34.9346 28.9598 35.1346 28.9598 35.4014C28.9598 35.6682 28.7605 35.8682 28.4949 35.8682Z" fill="url(#paint3_linear_2272:142683)"/>
</g>
<path d="M39.9186 37.9376H13.5509C13.2852 37.9376 13.0859 37.7375 13.0859 37.4707C13.0859 37.204 13.2852 37.0039 13.5509 37.0039H39.9186C40.1843 37.0039 40.3835 37.204 40.3835 37.4707C40.3835 37.7375 40.1843 37.9376 39.9186 37.9376Z" fill="#C0D6FF"/>
<g filter="url(#filter3_d_2272:142683)">
<path d="M44.6353 37.9376H42.1778C41.9121 37.9376 41.7129 37.7375 41.7129 37.4707C41.7129 37.204 41.9121 37.0039 42.1778 37.0039H44.6353C44.9009 37.0039 45.1002 37.204 45.1002 37.4707C45.0338 37.7375 44.9009 37.9376 44.6353 37.9376Z" fill="url(#paint4_linear_2272:142683)"/>
</g>
<path d="M31.6828 40.0738H13.5509C13.2852 40.0738 13.0859 39.8737 13.0859 39.607C13.0859 39.3402 13.2852 39.1401 13.5509 39.1401H31.6828C31.9485 39.1401 32.1477 39.3402 32.1477 39.607C32.1477 39.8737 31.9485 40.0738 31.6828 40.0738Z" fill="#C0D6FF"/>
<path d="M19 20.6773C19 22.5086 18.1684 24.1734 16.9209 25.3388C15.8398 26.3377 14.3428 26.9204 12.7627 26.9204C11.1826 26.9204 9.68563 26.3377 8.60449 25.3388C7.27387 24.1734 6.52539 22.5086 6.52539 20.6773C6.52539 17.2643 9.35297 14.4341 12.7627 14.4341C16.1724 14.4341 19 17.2643 19 20.6773Z" fill="#7C93FF"/>
<path d="M16.9199 25.338C15.8388 26.3369 14.3418 26.9196 12.7617 26.9196C11.1816 26.9196 9.68465 26.3369 8.60352 25.338C9.1025 25.1715 9.68465 24.9218 10.4331 24.5888C10.5995 24.5056 10.7658 24.3391 10.8489 24.1726C10.9321 24.0893 10.9321 23.9229 10.9321 23.8396V22.258L10.8489 22.1748C10.6826 22.0083 10.5995 21.7586 10.5995 21.5088L10.4331 21.4256C10.0173 21.5088 10.1005 21.0926 9.93414 20.2602C9.93414 19.9272 9.93414 19.844 10.1005 19.7607L10.2668 19.5943C9.51832 17.8462 9.85098 16.764 10.6826 16.3478C10.4331 15.7651 10.4331 15.5986 10.4331 15.5986C10.4331 15.5986 12.0964 15.8484 12.5954 15.7651C13.3439 15.5986 14.425 15.7651 14.8408 16.764C15.5061 17.0138 15.7556 17.43 15.8388 17.9294C15.922 18.6786 15.5061 19.511 15.423 19.7607C15.5061 19.844 15.5893 19.9272 15.5061 20.177C15.423 20.9261 15.423 21.4256 15.0071 21.3424L14.6745 22.0915C14.6745 22.1748 14.6745 22.1748 14.6745 22.258C14.6745 22.3413 14.6745 22.591 14.6745 23.9229C14.6745 24.0893 14.7577 24.2558 14.7577 24.3391C14.8408 24.5056 15.0071 24.5888 15.0903 24.672C15.8388 24.9218 16.4209 25.1715 16.9199 25.338Z" fill="white"/>
<path d="M15.4491 19.844C15.4491 19.6707 15.3625 19.4108 15.2759 19.2375V19.1509C14.9297 18.4578 14.2372 18.1978 13.5448 18.1978C11.8136 18.1112 11.6405 18.4578 11.0346 17.9379C11.2077 18.1978 11.2077 18.631 10.948 19.1509C10.7749 19.4974 10.4287 19.6707 10.0824 19.7574C9.30339 17.9379 9.64963 16.8116 10.5152 16.3784C10.2555 15.7719 10.2555 15.5986 10.2555 15.5986C10.2555 15.5986 11.9867 15.8586 12.5061 15.7719C13.2851 15.5986 14.4104 15.7719 14.8432 16.8116C15.5356 17.0715 15.7953 17.5047 15.8819 18.0246C15.9684 18.631 15.5356 19.4974 15.4491 19.844Z" fill="#BDCDF4"/>
<path d="M14.7603 24.3401V24.6731H10.8516V24.2568C10.9347 24.1736 10.9347 24.0071 10.9347 23.9239V22.3423L10.8516 22.259V22.1758C10.9347 22.3423 11.0179 22.4255 11.1842 22.592L12.4317 23.4244C12.6812 23.6741 13.097 23.6741 13.4296 23.4244L14.5939 22.4255L14.6771 22.3423C14.6771 22.4255 14.6771 22.6752 14.6771 24.0071C14.5939 24.0904 14.6771 24.1736 14.7603 24.3401Z" fill="url(#paint5_linear_2272:142683)"/>
<path d="M120.73 2.65922V40.7756C120.73 41.5766 120.066 42.2442 119.269 42.2442H67.1975C66.4005 42.2442 65.7363 41.5766 65.7363 40.7756V2.65922C65.7363 1.85818 66.4005 1.19064 67.1975 1.19064H119.269C120.066 1.12388 120.73 1.79142 120.73 2.65922Z" fill="white"/>
<path d="M69.9206 3.99414V42.244H67.1975C66.4005 42.244 65.7363 41.5765 65.7363 40.7754V3.99414H69.9206Z" fill="#F4F6FD"/>
<path d="M120.73 2.65922V4.52832H65.7363V2.65922C65.7363 1.85818 66.4005 1.19064 67.1975 1.19064H119.269C120.066 1.12388 120.73 1.79142 120.73 2.65922Z" fill="url(#paint6_linear_2272:142683)"/>
<path d="M107.583 1H119.538C120.335 1 121 1.66754 121 2.46858V40.5849C121 41.386 120.335 42.0535 119.538 42.0535H67.467C66.67 42.0535 66.0059 41.386 66.0059 40.5849V2.46858C66.0059 1.66754 66.67 1 67.467 1H102.004" stroke="#6F7590" stroke-miterlimit="10" stroke-linecap="round" stroke-linejoin="round"/>
<path d="M67.3966 3.39315C67.6533 3.39315 67.8615 3.18413 67.8615 2.92631C67.8615 2.66848 67.6533 2.45947 67.3966 2.45947C67.1398 2.45947 66.9316 2.66848 66.9316 2.92631C66.9316 3.18413 67.1398 3.39315 67.3966 3.39315Z" fill="white"/>
<path d="M68.7266 3.39266C68.9834 3.39266 69.1916 3.18365 69.1916 2.92582C69.1916 2.66799 68.9834 2.45898 68.7266 2.45898C68.4699 2.45898 68.2617 2.66799 68.2617 2.92582C68.2617 3.18365 68.4699 3.39266 68.7266 3.39266Z" fill="white"/>
<path d="M70.0548 3.39266C70.3115 3.39266 70.5197 3.18365 70.5197 2.92582C70.5197 2.66799 70.3115 2.45898 70.0548 2.45898C69.798 2.45898 69.5898 2.66799 69.5898 2.92582C69.5898 3.18365 69.798 3.39266 70.0548 3.39266Z" fill="white"/>
<path d="M67.8615 7.86454H67.463C67.1973 7.86454 66.998 7.66447 66.998 7.3977C66.998 7.13094 67.2637 6.99756 67.463 6.99756H67.8615C68.1271 6.99756 68.3264 7.19763 68.3264 7.4644C68.3264 7.73116 68.1271 7.86454 67.8615 7.86454Z" fill="#C0D6FF"/>
<path d="M67.8615 10.0015H67.463C67.1973 10.0015 66.998 9.80147 66.998 9.53471C66.998 9.26794 67.1973 9.06787 67.463 9.06787H67.8615C68.1271 9.06787 68.3264 9.26794 68.3264 9.53471C68.3264 9.80147 68.1271 10.0015 67.8615 10.0015Z" fill="#C0D6FF"/>
<path d="M67.8615 12.1373H67.463C67.1973 12.1373 66.998 11.9372 66.998 11.6705C66.998 11.4037 67.1973 11.2036 67.463 11.2036H67.8615C68.1271 11.2036 68.3264 11.4037 68.3264 11.6705C68.3264 11.9372 68.1271 12.1373 67.8615 12.1373Z" fill="#C0D6FF"/>
<path d="M67.8615 14.2735H67.463C67.1973 14.2735 66.998 14.0734 66.998 13.8067C66.998 13.5399 67.1973 13.3398 67.463 13.3398H67.8615C68.1271 13.3398 68.3264 13.5399 68.3264 13.8067C68.3264 14.0734 68.1271 14.2735 67.8615 14.2735Z" fill="#C0D6FF"/>
<path d="M67.8615 16.4097H67.463C67.1973 16.4097 66.998 16.2097 66.998 15.9429C66.998 15.6761 67.1973 15.4761 67.463 15.4761H67.8615C68.1271 15.4761 68.3264 15.6761 68.3264 15.9429C68.3264 16.2097 68.1271 16.4097 67.8615 16.4097Z" fill="#C0D6FF"/>
<path d="M67.8615 18.5452H67.463C67.1973 18.5452 66.998 18.3451 66.998 18.0784C66.998 17.8116 67.2637 17.6782 67.463 17.6782H67.8615C68.1271 17.6782 68.3264 17.8783 68.3264 18.1451C68.3264 18.4118 68.1271 18.5452 67.8615 18.5452Z" fill="#C0D6FF"/>
<path d="M67.8615 20.6812H67.463C67.1973 20.6812 66.998 20.4812 66.998 20.2144C66.998 19.9476 67.1973 19.7476 67.463 19.7476H67.8615C68.1271 19.7476 68.3264 19.9476 68.3264 20.2144C68.3264 20.4812 68.1271 20.6812 67.8615 20.6812Z" fill="#C0D6FF"/>
<path d="M67.8615 22.818H67.463C67.1973 22.818 66.998 22.6179 66.998 22.3511C66.998 22.0844 67.1973 21.8843 67.463 21.8843H67.8615C68.1271 21.8843 68.3264 22.0844 68.3264 22.3511C68.3264 22.6179 68.1271 22.818 67.8615 22.818Z" fill="#C0D6FF"/>
<path d="M67.8615 24.9537H67.463C67.1973 24.9537 66.998 24.7536 66.998 24.4869C66.998 24.2201 67.1973 24.02 67.463 24.02H67.8615C68.1271 24.02 68.3264 24.2201 68.3264 24.4869C68.3264 24.7536 68.1271 24.9537 67.8615 24.9537Z" fill="#C0D6FF"/>
<path d="M67.8615 27.023H67.463C67.1973 27.023 66.998 26.823 66.998 26.5562C66.998 26.2894 67.1973 26.0894 67.463 26.0894H67.8615C68.1271 26.0894 68.3264 26.2894 68.3264 26.5562C68.3264 26.823 68.1271 27.023 67.8615 27.023Z" fill="#C0D6FF"/>
<path d="M67.8615 29.1593H67.463C67.1973 29.1593 66.998 28.9592 66.998 28.6924C66.998 28.4257 67.1973 28.2256 67.463 28.2256H67.8615C68.1271 28.2256 68.3264 28.4257 68.3264 28.6924C68.3264 28.9592 68.1271 29.1593 67.8615 29.1593Z" fill="#C0D6FF"/>
<path d="M67.8615 31.296H67.463C67.1973 31.296 66.998 31.0959 66.998 30.8291C66.998 30.5624 67.1973 30.3623 67.463 30.3623H67.8615C68.1271 30.3623 68.3264 30.5624 68.3264 30.8291C68.3264 31.0959 68.1271 31.296 67.8615 31.296Z" fill="#C0D6FF"/>
<path d="M67.8615 33.4317H67.463C67.1973 33.4317 66.998 33.2317 66.998 32.9649C66.998 32.6981 67.1973 32.498 67.463 32.498H67.8615C68.1271 32.498 68.3264 32.6981 68.3264 32.9649C68.3264 33.2317 68.1271 33.4317 67.8615 33.4317Z" fill="#C0D6FF"/>
<path d="M67.8615 35.568H67.463C67.1973 35.568 66.998 35.3679 66.998 35.1011C66.998 34.8343 67.1973 34.6343 67.463 34.6343H67.8615C68.1271 34.6343 68.3264 34.8343 68.3264 35.1011C68.3264 35.3679 68.1271 35.568 67.8615 35.568Z" fill="#C0D6FF"/>
<path d="M67.8615 37.7042H67.463C67.1973 37.7042 66.998 37.5041 66.998 37.2373C66.998 36.9706 67.1973 36.7705 67.463 36.7705H67.8615C68.1271 36.7705 68.3264 36.9706 68.3264 37.2373C68.3264 37.5041 68.1271 37.7042 67.8615 37.7042Z" fill="#C0D6FF"/>
<path d="M67.8615 39.8404H67.463C67.1973 39.8404 66.998 39.6403 66.998 39.3736C66.998 39.1068 67.1973 38.9067 67.463 38.9067H67.8615C68.1271 38.9067 68.3264 39.1068 68.3264 39.3736C68.3264 39.6403 68.1271 39.8404 67.8615 39.8404Z" fill="#C0D6FF"/>
<path d="M81.9432 22.5572H71.7149C71.4493 22.5572 71.25 22.3571 71.25 22.0904C71.25 21.8236 71.4493 21.6235 71.7149 21.6235H81.9432C82.2089 21.6235 82.4081 21.8236 82.4081 22.0904C82.4081 22.3571 82.1425 22.5572 81.9432 22.5572Z" fill="#C0D6FF"/>
<path d="M79.8179 24.6934H71.7149C71.4493 24.6934 71.25 24.4934 71.25 24.2266C71.25 23.9598 71.4493 23.7598 71.7149 23.7598H79.8179C80.0835 23.7598 80.2828 23.9598 80.2828 24.2266C80.2164 24.4934 80.0171 24.6934 79.8179 24.6934Z" fill="#C0D6FF"/>
<path d="M101.537 24.6934H81.4122C81.1465 24.6934 80.9473 24.4934 80.9473 24.2266C80.9473 23.9598 81.1465 23.7598 81.4122 23.7598H101.537C101.802 23.7598 102.002 23.9598 102.002 24.2266C102.002 24.4934 101.802 24.6934 101.537 24.6934Z" fill="#C0D6FF"/>
<path d="M110.237 24.6934H104.393C104.127 24.6934 103.928 24.4934 103.928 24.2266C103.928 23.9598 104.127 23.7598 104.393 23.7598H110.237C110.503 23.7598 110.702 23.9598 110.702 24.2266C110.702 24.4934 110.503 24.6934 110.237 24.6934Z" fill="#EAEEF9"/>
<g filter="url(#filter4_d_2272:142683)">
<path d="M115.084 24.6934H113.092C112.826 24.6934 112.627 24.4934 112.627 24.2266C112.627 23.9598 112.826 23.7598 113.092 23.7598H115.084C115.35 23.7598 115.549 23.9598 115.549 24.2266C115.549 24.4934 115.35 24.6934 115.084 24.6934Z" fill="url(#paint7_linear_2272:142683)"/>
</g>
<path d="M84.9979 26.8292H74.7696C74.5039 26.8292 74.3047 26.6291 74.3047 26.3623C74.3047 26.0956 74.5039 25.8955 74.7696 25.8955H84.9979C85.2636 25.8955 85.4628 26.0956 85.4628 26.3623C85.3964 26.6291 85.1971 26.8292 84.9979 26.8292Z" fill="#EA67A4"/>
<path d="M84.9979 35.3072H74.7696C74.5039 35.3072 74.3047 35.1071 74.3047 34.8404C74.3047 34.5736 74.5039 34.3735 74.7696 34.3735H84.9979C85.2636 34.3735 85.4628 34.5736 85.4628 34.8404C85.3964 35.1071 85.1972 35.3072 84.9979 35.3072Z" fill="#EA67A4"/>
<path d="M87.8533 28.9654H78.2891C78.0235 28.9654 77.8242 28.7653 77.8242 28.4986C77.8242 28.2318 78.0235 28.0317 78.2891 28.0317H87.8533C88.1189 28.0317 88.3182 28.2318 88.3182 28.4986C88.3182 28.7653 88.1189 28.9654 87.8533 28.9654Z" fill="#C0D6FF"/>
<g filter="url(#filter5_d_2272:142683)">
<path d="M93.2332 28.9654H89.3145C89.0489 28.9654 88.8496 28.7653 88.8496 28.4986C88.8496 28.2318 89.0489 28.0317 89.3145 28.0317H93.2332C93.4988 28.0317 93.6981 28.2318 93.6981 28.4986C93.6981 28.7653 93.4988 28.9654 93.2332 28.9654Z" fill="url(#paint8_linear_2272:142683)"/>
</g>
<path d="M104.657 31.0347H78.2891C78.0235 31.0347 77.8242 30.8347 77.8242 30.5679C77.8242 30.3011 78.0235 30.1011 78.2891 30.1011H104.657C104.923 30.1011 105.122 30.3011 105.122 30.5679C105.122 30.8347 104.923 31.0347 104.657 31.0347Z" fill="#C0D6FF"/>
<g filter="url(#filter6_d_2272:142683)">
<path d="M109.374 31.0347H106.916C106.65 31.0347 106.451 30.8347 106.451 30.5679C106.451 30.3011 106.65 30.1011 106.916 30.1011H109.374C109.639 30.1011 109.838 30.3011 109.838 30.5679C109.772 30.8347 109.639 31.0347 109.374 31.0347Z" fill="url(#paint9_linear_2272:142683)"/>
</g>
<path d="M96.4211 33.1715H78.2891C78.0235 33.1715 77.8242 32.9714 77.8242 32.7046C77.8242 32.4379 78.0235 32.2378 78.2891 32.2378H96.4211C96.6868 32.2378 96.886 32.4379 96.886 32.7046C96.886 32.9714 96.6868 33.1715 96.4211 33.1715Z" fill="#C0D6FF"/>
<path d="M84 12.8637C84 14.6366 83.2409 16.2407 82.06 17.4227C81.9757 17.5071 81.9757 17.5071 81.8913 17.5915C80.7948 18.6046 79.2766 19.1956 77.674 19.1956C76.0714 19.1956 74.6375 18.6046 73.541 17.676C73.541 17.676 73.541 17.676 73.4567 17.676C72.1071 16.494 71.2637 14.8055 71.2637 12.8637C71.2637 9.40222 74.1315 6.53174 77.5897 6.53174C81.1322 6.53174 84 9.40222 84 12.8637Z" fill="#BDCCF7"/>
<path d="M82.0336 17.5503C81.777 16.9509 81.3493 16.4372 80.6651 16.0948C80.3229 15.9235 80.0663 15.8379 79.6386 15.8379H79.382C78.7833 15.8379 78.6977 15.7523 78.6977 15.7523V14.7249C79.382 14.2112 79.8952 13.5263 80.0663 12.7557C80.494 12.6701 80.7506 12.3277 80.6651 11.8996C80.6651 11.7284 80.494 11.5571 80.494 11.3859C80.494 11.3003 80.494 11.2147 80.494 11.129C80.494 11.0434 80.494 11.0434 80.494 10.9578C80.494 10.8722 80.494 10.8722 80.494 10.7866C80.494 10.4441 80.4085 10.1873 80.1518 9.8448C79.6386 8.90302 78.6122 8.30371 77.5002 8.30371C77.2436 8.30371 77.0726 8.30371 76.816 8.38933C76.3883 8.47494 76.0461 8.64618 75.704 8.90302C75.6185 8.98864 75.6185 8.98864 75.5329 9.07425C75.5329 9.07425 75.5329 9.07426 75.4474 9.15987C75.1052 9.50234 74.8486 9.93042 74.6776 10.3585C74.5065 10.7866 74.5065 11.3003 74.5065 11.814C74.5065 11.814 74.5065 11.814 74.5065 11.8996C74.5065 11.9852 74.5065 11.9852 74.5065 12.0708C74.5065 12.0708 74.5065 12.1564 74.421 12.1564C74.592 11.9852 74.5065 12.2421 74.592 12.4133C74.7631 12.8414 75.0197 12.7557 75.3619 13.0126C75.3619 13.0126 75.3619 13.0126 75.2763 13.0126L74.9342 13.0982C73.0524 13.6975 72.8813 15.6667 74.7631 16.0948C74.592 16.1804 74.5065 16.266 74.421 16.266C73.9077 16.6941 73.5656 17.2078 73.3945 17.7215C74.5065 18.6633 75.9606 19.2626 77.5858 19.2626C79.211 19.2626 80.7506 18.6633 81.8626 17.6359C81.9481 17.7215 82.0336 17.6359 82.0336 17.5503C82.1192 17.5503 82.1192 17.5503 82.0336 17.5503ZM76.7304 15.4955C76.6449 15.4098 76.5594 15.3242 76.5594 15.3242C76.4738 15.2386 76.3883 15.2386 76.3027 15.153C76.3027 15.153 76.2172 15.153 76.2172 15.0674C75.9606 14.8962 75.704 14.7249 75.6185 14.4681C75.6185 14.3825 75.704 14.2112 75.8751 14.04C75.9606 14.1256 76.0461 14.2112 76.1317 14.3825C76.2172 14.4681 76.3027 14.5537 76.3883 14.6393C76.4738 14.6393 76.5594 14.7249 76.5594 14.8105C76.5594 14.8105 76.5593 14.8105 76.6449 14.8105C76.6449 14.8105 76.6449 14.8105 76.7304 14.8105V15.4955V15.4955Z" fill="white"/>
<path d="M79.4856 15.7879C79.4012 16.1253 79.2325 16.3783 79.2325 16.3783L76.0273 15.8723L76.196 15.0288C76.196 15.0288 76.2804 15.0288 76.2804 15.1131C76.3647 15.1975 76.4491 15.1975 76.5334 15.2818C76.6178 15.2818 76.6178 15.3662 76.7021 15.4505V14.8601C76.7021 14.8601 76.7021 14.8601 76.6178 14.8601C77.1238 15.1131 77.7986 15.2818 78.7264 14.6914V15.7036C78.8108 15.7036 78.8951 15.7879 79.4856 15.7879Z" fill="url(#paint10_linear_2272:142683)"/>
<path d="M78.8204 11.0798C79.4221 11.0798 80.0238 10.9937 80.5396 10.8216C80.5396 10.8216 80.5396 10.7356 80.6256 10.6495C80.5396 10.3914 80.4537 10.0472 80.2817 9.70307C79.766 8.7566 78.7344 8.1543 77.6169 8.1543C77.359 8.1543 77.1117 8.1727 76.7667 8.25875C76.3077 8.39917 76.0946 8.52258 75.9859 8.58854C75.9859 8.58854 75.7346 8.75766 75.5538 8.92868C75.373 9.09971 74.9521 9.70307 74.7802 10.1333C74.6082 10.6495 74.4695 11.0883 74.5555 11.6046C74.6415 11.6046 74.7802 11.51 74.8661 11.51C75.5538 11.1658 76.0696 10.7356 76.3275 10.0472C77.0152 10.6495 77.8748 10.9937 78.8204 11.0798Z" fill="#6F7590"/>
<path d="M75.9004 14.1299C75.9847 14.2142 76.0691 14.2986 76.1534 14.3829C76.0691 14.2986 75.9847 14.2142 75.9004 14.1299Z" fill="#3973F4"/>
<path d="M77.0856 17.253C76.8325 17.5907 76.4108 17.5907 75.9891 17.5907C76.4108 17.1686 76.1578 15.9022 74.8082 16.0711C72.8683 15.7334 73.1213 13.7071 74.9769 13.1162L75.3143 13.0317C75.3143 13.0317 75.3143 13.0317 75.3987 13.1162C75.5673 13.5383 75.736 13.7916 75.9891 14.1293C75.23 14.8047 76.3265 14.9735 76.8325 15.4801C77.1699 15.6489 77.5073 16.7465 77.0856 17.253Z" fill="#6F7590"/>
<defs>
<filter id="filter0_d_2272:142683" x="69.916" y="71.251" width="48.2734" height="48.3179" filterUnits="userSpaceOnUse" color-interpolation-filters="sRGB">
<feFlood flood-opacity="0" result="BackgroundImageFix"/>
<feColorMatrix in="SourceAlpha" type="matrix" values="0 0 0 0 0 0 0 0 0 0 0 0 0 0 0 0 0 0 127 0" result="hardAlpha"/>
<feOffset dy="5"/>
<feGaussianBlur stdDeviation="4"/>
<feColorMatrix type="matrix" values="0 0 0 0 0.1125 0 0 0 0 0.295916 0 0 0 0 1 0 0 0 0.22 0"/>
<feBlend mode="normal" in2="BackgroundImageFix" result="effect1_dropShadow_2272:142683"/>
<feBlend mode="normal" in="SourceGraphic" in2="effect1_dropShadow_2272:142683" result="shape"/>
</filter>
<filter id="filter1_d_2272:142683" x="39.8887" y="27.6621" width="18.9219" height="16.9336" filterUnits="userSpaceOnUse" color-interpolation-filters="sRGB">
<feFlood flood-opacity="0" result="BackgroundImageFix"/>
<feColorMatrix in="SourceAlpha" type="matrix" values="0 0 0 0 0 0 0 0 0 0 0 0 0 0 0 0 0 0 127 0" result="hardAlpha"/>
<feOffset dy="5"/>
<feGaussianBlur stdDeviation="4"/>
<feColorMatrix type="matrix" values="0 0 0 0 0.1125 0 0 0 0 0.295916 0 0 0 0 1 0 0 0 0.22 0"/>
<feBlend mode="normal" in2="BackgroundImageFix" result="effect1_dropShadow_2272:142683"/>
<feBlend mode="normal" in="SourceGraphic" in2="effect1_dropShadow_2272:142683" result="shape"/>
</filter>
<filter id="filter2_d_2272:142683" x="16.1113" y="31.9346" width="20.8477" height="16.9336" filterUnits="userSpaceOnUse" color-interpolation-filters="sRGB">
<feFlood flood-opacity="0" result="BackgroundImageFix"/>
<feColorMatrix in="SourceAlpha" type="matrix" values="0 0 0 0 0 0 0 0 0 0 0 0 0 0 0 0 0 0 127 0" result="hardAlpha"/>
<feOffset dy="5"/>
<feGaussianBlur stdDeviation="4"/>
<feColorMatrix type="matrix" values="0 0 0 0 0.1125 0 0 0 0 0.295916 0 0 0 0 1 0 0 0 0.22 0"/>
<feBlend mode="normal" in2="BackgroundImageFix" result="effect1_dropShadow_2272:142683"/>
<feBlend mode="normal" in="SourceGraphic" in2="effect1_dropShadow_2272:142683" result="shape"/>
</filter>
<filter id="filter3_d_2272:142683" x="33.7129" y="34.0039" width="19.3867" height="16.9336" filterUnits="userSpaceOnUse" color-interpolation-filters="sRGB">
<feFlood flood-opacity="0" result="BackgroundImageFix"/>
<feColorMatrix in="SourceAlpha" type="matrix" values="0 0 0 0 0 0 0 0 0 0 0 0 0 0 0 0 0 0 127 0" result="hardAlpha"/>
<feOffset dy="5"/>
<feGaussianBlur stdDeviation="4"/>
<feColorMatrix type="matrix" values="0 0 0 0 0.1125 0 0 0 0 0.295916 0 0 0 0 1 0 0 0 0.22 0"/>
<feBlend mode="normal" in2="BackgroundImageFix" result="effect1_dropShadow_2272:142683"/>
<feBlend mode="normal" in="SourceGraphic" in2="effect1_dropShadow_2272:142683" result="shape"/>
</filter>
<filter id="filter4_d_2272:142683" x="104.627" y="20.7598" width="18.9219" height="16.9336" filterUnits="userSpaceOnUse" color-interpolation-filters="sRGB">
<feFlood flood-opacity="0" result="BackgroundImageFix"/>
<feColorMatrix in="SourceAlpha" type="matrix" values="0 0 0 0 0 0 0 0 0 0 0 0 0 0 0 0 0 0 127 0" result="hardAlpha"/>
<feOffset dy="5"/>
<feGaussianBlur stdDeviation="4"/>
<feColorMatrix type="matrix" values="0 0 0 0 0.1125 0 0 0 0 0.295916 0 0 0 0 1 0 0 0 0.22 0"/>
<feBlend mode="normal" in2="BackgroundImageFix" result="effect1_dropShadow_2272:142683"/>
<feBlend mode="normal" in="SourceGraphic" in2="effect1_dropShadow_2272:142683" result="shape"/>
</filter>
<filter id="filter5_d_2272:142683" x="80.8496" y="25.0317" width="20.8477" height="16.9336" filterUnits="userSpaceOnUse" color-interpolation-filters="sRGB">
<feFlood flood-opacity="0" result="BackgroundImageFix"/>
<feColorMatrix in="SourceAlpha" type="matrix" values="0 0 0 0 0 0 0 0 0 0 0 0 0 0 0 0 0 0 127 0" result="hardAlpha"/>
<feOffset dy="5"/>
<feGaussianBlur stdDeviation="4"/>
<feColorMatrix type="matrix" values="0 0 0 0 0.1125 0 0 0 0 0.295916 0 0 0 0 1 0 0 0 0.22 0"/>
<feBlend mode="normal" in2="BackgroundImageFix" result="effect1_dropShadow_2272:142683"/>
<feBlend mode="normal" in="SourceGraphic" in2="effect1_dropShadow_2272:142683" result="shape"/>
</filter>
<filter id="filter6_d_2272:142683" x="98.4512" y="27.1011" width="19.3867" height="16.9336" filterUnits="userSpaceOnUse" color-interpolation-filters="sRGB">
<feFlood flood-opacity="0" result="BackgroundImageFix"/>
<feColorMatrix in="SourceAlpha" type="matrix" values="0 0 0 0 0 0 0 0 0 0 0 0 0 0 0 0 0 0 127 0" result="hardAlpha"/>
<feOffset dy="5"/>
<feGaussianBlur stdDeviation="4"/>
<feColorMatrix type="matrix" values="0 0 0 0 0.1125 0 0 0 0 0.295916 0 0 0 0 1 0 0 0 0.22 0"/>
<feBlend mode="normal" in2="BackgroundImageFix" result="effect1_dropShadow_2272:142683"/>
<feBlend mode="normal" in="SourceGraphic" in2="effect1_dropShadow_2272:142683" result="shape"/>
</filter>
<linearGradient id="paint0_linear_2272:142683" x1="77.9252" y1="90.4253" x2="110.206" y2="90.4253" gradientUnits="userSpaceOnUse">
<stop stop-color="#83A6FF"/>
<stop offset="1" stop-color="#5277D7"/>
</linearGradient>
<linearGradient id="paint1_linear_2272:142683" x1="0.995091" y1="10.7774" x2="55.9785" y2="10.7774" gradientUnits="userSpaceOnUse">
<stop stop-color="#6F88FF"/>
<stop offset="1" stop-color="#6E88FF" stop-opacity="0"/>
</linearGradient>
<linearGradient id="paint2_linear_2272:142683" x1="47.8895" y1="31.1294" x2="50.8125" y2="31.1294" gradientUnits="userSpaceOnUse">
<stop stop-color="#83A6FF"/>
<stop offset="1" stop-color="#5277D7"/>
</linearGradient>
<linearGradient id="paint3_linear_2272:142683" x1="24.1127" y1="35.4019" x2="28.9622" y2="35.4019" gradientUnits="userSpaceOnUse">
<stop stop-color="#83A6FF"/>
<stop offset="1" stop-color="#5277D7"/>
</linearGradient>
<linearGradient id="paint4_linear_2272:142683" x1="41.7139" y1="37.4712" x2="45.1018" y2="37.4712" gradientUnits="userSpaceOnUse">
<stop stop-color="#83A6FF"/>
<stop offset="1" stop-color="#5277D7"/>
</linearGradient>
<linearGradient id="paint5_linear_2272:142683" x1="12.8071" y1="24.6883" x2="12.8071" y2="23.3125" gradientUnits="userSpaceOnUse">
<stop stop-color="white"/>
<stop offset="1" stop-color="#E2E5EC"/>
</linearGradient>
<linearGradient id="paint6_linear_2272:142683" x1="65.7314" y1="2.87503" x2="120.715" y2="2.87503" gradientUnits="userSpaceOnUse">
<stop stop-color="#BDCDF4"/>
<stop offset="1" stop-color="#6E88FF" stop-opacity="0"/>
</linearGradient>
<linearGradient id="paint7_linear_2272:142683" x1="112.628" y1="24.227" x2="115.551" y2="24.227" gradientUnits="userSpaceOnUse">
<stop stop-color="#83A6FF"/>
<stop offset="1" stop-color="#5277D7"/>
</linearGradient>
<linearGradient id="paint8_linear_2272:142683" x1="88.851" y1="28.499" x2="93.7004" y2="28.499" gradientUnits="userSpaceOnUse">
<stop stop-color="#83A6FF"/>
<stop offset="1" stop-color="#5277D7"/>
</linearGradient>
<linearGradient id="paint9_linear_2272:142683" x1="106.452" y1="30.5684" x2="109.84" y2="30.5684" gradientUnits="userSpaceOnUse">
<stop stop-color="#83A6FF"/>
<stop offset="1" stop-color="#5277D7"/>
</linearGradient>
<linearGradient id="paint10_linear_2272:142683" x1="77.7575" y1="16.3886" x2="77.7575" y2="15.4593" gradientUnits="userSpaceOnUse">
<stop stop-color="white"/>
<stop offset="1" stop-color="#E2E5EC"/>
</linearGradient>
</defs>
</svg>
