<svg width="124" height="120" fill="none" xmlns="http://www.w3.org/2000/svg"><path d="M61.629 107.999c23.059 0 41.751-18.723 41.751-41.82 0-23.096-18.692-41.82-41.751-41.82-23.058 0-41.751 18.724-41.751 41.82 0 23.097 18.693 41.82 41.751 41.82Z" fill="#EAEEF9"/><path d="M30.884 39.086h59.392c2.352 0 4.2 1.851 4.2 4.207v37.613c0 2.356-1.848 4.207-4.2 4.207H30.884c-2.352 0-4.2-1.851-4.2-4.207V43.293c0-2.356 1.932-4.207 4.2-4.207Z" fill="#C0D6FF"/><path d="M94.358 47.294v33.6c0 2.345-1.828 4.189-4.153 4.189h-58.8c-2.326 0-4.153-1.844-4.153-4.19V43.44c0-2.347 1.827-4.19 4.152-4.19h58.718c1.827 0 3.322 1.173 3.903 2.765" stroke="#6F7590" stroke-miterlimit="10" stroke-linecap="round" stroke-linejoin="round"/><path d="M118.193 56.87a3.202 3.202 0 0 0 .203-4.517 3.189 3.189 0 0 0-4.51-.203 3.2 3.2 0 0 0-.203 4.517 3.189 3.189 0 0 0 4.51.203Zm-80.69-28.326a2.104 2.104 0 0 0-1.299-4 2.104 2.104 0 0 0 1.299 4Z" fill="#EAEEF9"/><path d="M95.666 63.22v18.51c0 2.357-1.932 4.376-4.369 4.376H30.225c-2.352 0-4.368-1.935-4.368-4.376V61.62" stroke="#84A2FF" stroke-width="3" stroke-linecap="round" stroke-linejoin="round"/><path d="M99.11 47.147H74.075a10.48 10.48 0 0 0-6.637 2.356l-6.552 5.385a10.483 10.483 0 0 1-6.637 2.356H25.772c-2.856 0-5.208 2.356-5.208 5.217 0 .252 0 .505.084.757l5.208 27.768c.42 2.608 2.604 4.543 5.208 4.543h60.653c2.604 0 4.788-1.85 5.208-4.459l7.309-37.95c.504-2.86-1.428-5.469-4.284-5.973h-.84Z" fill="#fff"/><path d="m100.035 75 4.2-21.878c.504-2.861-1.428-5.47-4.284-5.975-.252-.084-.588-.084-.84-.084H74.077c-2.436 0-4.789.842-6.637 2.356l-6.552 5.386a10.483 10.483 0 0 1-6.637 2.356H38.458m-9.074.083h-3.528c-2.856 0-5.208 2.356-5.208 5.217 0 .253 0 .505.084.758l5.208 27.767c.42 2.609 2.604 4.544 5.208 4.544h60.653c2.604 0 4.788-1.851 5.208-4.46l1.848-9.508" stroke="#6F7590" stroke-miterlimit="10" stroke-linecap="round" stroke-linejoin="round"/><g filter="url(#saved-queries-all__a)"><path d="M109.854 93.704c-.336 1.43-.84 2.86-1.428 4.123-1.597 3.029-4.033 5.469-7.057 6.984-3.108 1.599-6.804 2.188-10.585 1.43-8.736-1.851-14.365-10.35-12.517-19.1 1.849-8.752 10.333-14.39 19.07-12.538 3.108.673 5.88 2.188 8.148 4.375 3.865 3.871 5.461 9.425 4.369 14.726Z" fill="url(#saved-queries-all__b)"/></g><path d="M99.173 88.983h-3.696V85.28c0-.757-.588-1.43-1.428-1.43-.756 0-1.428.589-1.428 1.43v3.703h-3.697c-.756 0-1.428.589-1.428 1.43 0 .842.588 1.43 1.428 1.43h3.697v3.703c0 .757.588 1.43 1.428 1.43.756 0 1.428-.588 1.428-1.43v-3.703h3.696c.756 0 1.428-.588 1.428-1.43 0-.841-.672-1.43-1.428-1.43Z" fill="#fff"/><path d="M14.18 75.685a2.02 2.02 0 0 0-2.122-1.907 2.013 2.013 0 0 0-1.907 2.116 2.02 2.02 0 0 0 2.121 1.908 2.013 2.013 0 0 0 1.908-2.117Z" fill="#E2EBFF"/><path d="M8.958 69.731a1.373 1.373 0 0 0-1.443-1.297 1.369 1.369 0 0 0-1.297 1.439c.04.756.686 1.336 1.443 1.297a1.369 1.369 0 0 0 1.297-1.439Z" fill="#F34D77"/><path d="M50.64 75.924a2.69 2.69 0 0 0 2.688-2.693 2.69 2.69 0 0 0-2.689-2.692 2.69 2.69 0 0 0-2.688 2.692 2.69 2.69 0 0 0 2.688 2.693Zm21.169-.084a2.69 2.69 0 0 0 2.688-2.692 2.69 2.69 0 0 0-2.688-2.693 2.69 2.69 0 0 0-2.688 2.693 2.69 2.69 0 0 0 2.688 2.692Zm-5.873 3.712c0 .869-1.768 1.58-3.94 1.58-2.187 0-3.955-.711-3.955-1.58h7.895Z" fill="#6F7590"/><path d="M55.994 10.561v38.116c0 .801-.664 1.469-1.462 1.469H2.462A1.478 1.478 0 0 1 1 48.677V10.561c0-.801.664-1.469 1.461-1.469h52.072c.797-.066 1.46.601 1.46 1.47Z" fill="#fff"/><path d="M5.184 11.896v38.25H2.461A1.478 1.478 0 0 1 1 48.678V11.896h4.184Z" fill="#F4F6FD"/><path d="M55.994 10.561v1.87H1v-1.87c0-.801.664-1.469 1.461-1.469h52.072c.797-.066 1.46.601 1.46 1.47Z" fill="url(#saved-queries-all__c)"/><path d="M42.847 8.902h11.955c.797 0 1.461.668 1.461 1.469v38.116c0 .801-.664 1.469-1.461 1.469H2.731a1.478 1.478 0 0 1-1.461-1.469V10.371c0-.801.664-1.469 1.46-1.469h34.538" stroke="#6F7590" stroke-miterlimit="10" stroke-linecap="round" stroke-linejoin="round"/><path d="M2.66 11.295a.466.466 0 1 0-.002-.932.466.466 0 0 0 .002.932Zm1.33 0a.466.466 0 1 0-.003-.932.466.466 0 0 0 .002.932Zm1.328 0a.466.466 0 1 0-.002-.932.466.466 0 0 0 .002.932Z" fill="#fff"/><path d="M3.125 15.767h-.398a.455.455 0 0 1-.465-.466c0-.267.265-.4.465-.4h.398c.266 0 .465.2.465.466 0 .267-.2.4-.465.4Zm0 2.137h-.398a.455.455 0 0 1-.465-.466c0-.267.199-.467.465-.467h.398c.266 0 .465.2.465.466 0 .267-.2.467-.465.467Zm0 2.136h-.398a.455.455 0 0 1-.465-.467c0-.267.199-.467.465-.467h.398c.266 0 .465.2.465.467s-.2.467-.465.467Zm0 2.136h-.398a.455.455 0 0 1-.465-.467c0-.267.199-.467.465-.467h.398c.266 0 .465.2.465.467s-.2.467-.465.467Zm0 2.137h-.398a.455.455 0 0 1-.465-.467c0-.267.199-.467.465-.467h.398c.266 0 .465.2.465.467s-.2.467-.465.467Zm0 2.135h-.398a.455.455 0 0 1-.465-.467c0-.267.265-.4.465-.4h.398c.266 0 .465.2.465.467s-.2.4-.465.4Zm0 2.136h-.398a.455.455 0 0 1-.465-.467c0-.267.199-.467.465-.467h.398c.266 0 .465.2.465.467s-.2.467-.465.467Zm0 2.136h-.398a.455.455 0 0 1-.465-.467c0-.267.199-.467.465-.467h.398c.266 0 .465.2.465.467s-.2.467-.465.467Zm0 2.136h-.398a.455.455 0 0 1-.465-.466c0-.267.199-.467.465-.467h.398c.266 0 .465.2.465.467s-.2.466-.465.466Zm0 2.07h-.398a.455.455 0 0 1-.465-.467c0-.267.199-.467.465-.467h.398c.266 0 .465.2.465.467s-.2.467-.465.467Zm0 2.137h-.398a.455.455 0 0 1-.465-.467c0-.267.199-.467.465-.467h.398c.266 0 .465.2.465.467s-.2.467-.465.467Zm0 2.135h-.398a.455.455 0 0 1-.465-.467c0-.266.199-.466.465-.466h.398c.266 0 .465.2.465.466 0 .267-.2.467-.465.467Zm0 2.136h-.398a.455.455 0 0 1-.465-.467c0-.267.199-.467.465-.467h.398c.266 0 .465.2.465.467s-.2.467-.465.467Zm0 2.136h-.398a.455.455 0 0 1-.465-.466c0-.267.199-.467.465-.467h.398c.266 0 .465.2.465.467s-.2.467-.465.467Zm0 2.136h-.398a.455.455 0 0 1-.465-.466c0-.267.199-.467.465-.467h.398c.266 0 .465.2.465.467s-.2.466-.465.466Zm0 2.137h-.398a.455.455 0 0 1-.465-.467c0-.266.199-.466.465-.466h.398c.266 0 .465.2.465.466 0 .267-.2.467-.465.467Zm14.08-29.283H6.977a.455.455 0 0 1-.465-.467c0-.267.199-.467.465-.467h10.228c.266 0 .465.2.465.467s-.266.467-.465.467Zm-2.125 2.137H6.977a.455.455 0 0 1-.465-.467c0-.267.199-.467.465-.467h8.103c.265 0 .464.2.464.467-.066.267-.265.467-.464.467Zm21.718 0H16.674a.455.455 0 0 1-.465-.467c0-.267.2-.467.465-.467h20.124c.266 0 .465.2.465.467s-.199.467-.465.467Z" fill="#C0D6FF"/><path d="M45.5 20.597h-5.846a.455.455 0 0 1-.465-.467c0-.267.2-.467.465-.467H45.5c.266 0 .465.2.465.467s-.2.467-.465.467Z" fill="#EAEEF9"/><g filter="url(#saved-queries-all__d)"><path d="M50.346 20.597h-1.992a.455.455 0 0 1-.465-.467c0-.267.199-.467.465-.467h1.992c.266 0 .465.2.465.467s-.2.467-.465.467Z" fill="url(#saved-queries-all__e)"/></g><path d="M20.26 22.733H10.03a.455.455 0 0 1-.465-.467c0-.267.2-.467.465-.467h10.23c.265 0 .464.2.464.467-.066.266-.265.467-.464.467Zm0 8.477H10.03a.455.455 0 0 1-.465-.467c0-.267.2-.467.465-.467h10.23c.265 0 .464.2.464.467-.066.267-.265.467-.464.467Z" fill="#EA67A4"/><path d="M17.537 33.347H10.03a.455.455 0 0 1-.465-.467c0-.267.2-.467.465-.467h7.505c.266 0 .465.2.465.467s-.199.467-.465.467Zm19.859 0h-17.8a.455.455 0 0 1-.465-.467c0-.267.2-.467.465-.467h17.8c.265 0 .465.2.465.467s-.266.467-.465.467Zm-14.281-8.479h-9.564a.455.455 0 0 1-.465-.467c0-.266.2-.466.465-.466h9.564c.266 0 .465.2.465.466 0 .267-.2.467-.465.467Z" fill="#C0D6FF"/><g filter="url(#saved-queries-all__f)"><path d="M28.495 24.868h-3.919a.455.455 0 0 1-.465-.467c0-.266.2-.466.465-.466h3.919c.265 0 .465.2.465.466 0 .267-.2.467-.465.467Z" fill="url(#saved-queries-all__g)"/></g><path d="M39.919 26.938H13.55a.455.455 0 0 1-.465-.467c0-.267.2-.467.465-.467h26.368c.265 0 .465.2.465.467s-.2.467-.465.467Z" fill="#C0D6FF"/><g filter="url(#saved-queries-all__h)"><path d="M44.635 26.938h-2.457a.455.455 0 0 1-.465-.467c0-.267.2-.467.465-.467h2.457c.266 0 .465.2.465.467-.066.267-.2.467-.465.467Z" fill="url(#saved-queries-all__i)"/></g><path d="M31.683 29.074H13.55a.455.455 0 0 1-.465-.466c0-.267.2-.467.465-.467h18.132c.265 0 .465.2.465.467 0 .266-.2.466-.465.466Zm-7.903 6.342H13.55a.455.455 0 0 1-.464-.467c0-.267.2-.467.465-.467h10.228c.266 0 .465.2.465.467s-.2.467-.465.467Z" fill="#C0D6FF"/><path d="M120.731 2.659v38.116c0 .801-.664 1.469-1.461 1.469H67.198a1.478 1.478 0 0 1-1.46-1.469V2.66c0-.801.663-1.469 1.46-1.469h52.072c.797-.067 1.461.6 1.461 1.469Z" fill="#fff"/><path d="M69.922 3.994v38.25h-2.724a1.478 1.478 0 0 1-1.46-1.469V3.995h4.184Z" fill="#F4F6FD"/><path d="M120.731 2.659v1.869H65.737v-1.87c0-.8.665-1.468 1.462-1.468h52.071c.797-.067 1.461.6 1.461 1.469Z" fill="url(#saved-queries-all__j)"/><path d="M107.584 1h11.956c.797 0 1.461.668 1.461 1.469v38.116c0 .801-.664 1.468-1.461 1.468H67.468a1.478 1.478 0 0 1-1.46-1.468V2.469c0-.801.663-1.469 1.46-1.469h34.537" stroke="#6F7590" stroke-miterlimit="10" stroke-linecap="round" stroke-linejoin="round"/><path d="M67.397 3.393a.466.466 0 1 0-.001-.932.466.466 0 0 0 .001.932Zm1.33 0a.466.466 0 1 0-.002-.932.466.466 0 0 0 .002.932Zm1.329 0a.466.466 0 1 0-.002-.932.466.466 0 0 0 .002.932Z" fill="#fff"/><path d="M67.862 7.865h-.398a.455.455 0 0 1-.465-.467c0-.267.266-.4.465-.4h.398c.266 0 .465.2.465.467s-.199.4-.465.4Zm0 2.136h-.398a.455.455 0 0 1-.465-.467c0-.267.2-.467.465-.467h.398c.266 0 .465.2.465.467s-.199.467-.465.467Zm0 2.136h-.398a.455.455 0 0 1-.465-.467c0-.267.2-.467.465-.467h.398c.266 0 .465.2.465.467s-.199.467-.465.467Zm0 2.137h-.398a.455.455 0 0 1-.465-.467c0-.267.2-.467.465-.467h.398c.266 0 .465.2.465.467a.455.455 0 0 1-.465.466Zm0 2.136h-.398a.455.455 0 0 1-.465-.468c0-.266.2-.466.465-.466h.398c.266 0 .465.2.465.466a.455.455 0 0 1-.465.467Zm0 2.135h-.398a.455.455 0 0 1-.465-.467c0-.267.266-.4.465-.4h.398c.266 0 .465.2.465.467 0 .266-.199.4-.465.4Zm0 2.137h-.398a.455.455 0 0 1-.465-.467c0-.267.2-.467.465-.467h.398c.266 0 .465.2.465.467s-.199.467-.465.467Zm0 2.136h-.398a.455.455 0 0 1-.465-.466c0-.267.2-.467.465-.467h.398c.266 0 .465.2.465.467a.455.455 0 0 1-.465.466Zm0 2.135h-.398a.455.455 0 0 1-.465-.467c0-.266.2-.466.465-.466h.398c.266 0 .465.2.465.466a.455.455 0 0 1-.465.467Zm0 2.07h-.398a.455.455 0 0 1-.465-.466c0-.267.2-.467.465-.467h.398c.266 0 .465.2.465.467a.455.455 0 0 1-.465.466Zm0 2.137h-.398a.455.455 0 0 1-.465-.468c0-.266.2-.466.465-.466h.398c.266 0 .465.2.465.466a.455.455 0 0 1-.465.467Zm0 2.135h-.398a.455.455 0 0 1-.465-.467c0-.267.2-.467.465-.467h.398c.266 0 .465.2.465.467s-.199.467-.465.467Zm0 2.137h-.398a.455.455 0 0 1-.465-.467c0-.267.2-.467.465-.467h.398c.266 0 .465.2.465.467s-.199.467-.465.467Zm0 2.136h-.398a.455.455 0 0 1-.465-.467c0-.267.2-.467.465-.467h.398c.266 0 .465.2.465.467a.455.455 0 0 1-.465.467Zm0 2.135h-.398a.455.455 0 0 1-.465-.467c0-.266.2-.466.465-.466h.398c.266 0 .465.2.465.466a.455.455 0 0 1-.465.467Zm0 2.137h-.398a.455.455 0 0 1-.465-.467c0-.267.2-.467.465-.467h.398c.266 0 .465.2.465.467s-.199.467-.465.467Zm14.082-29.283H71.716a.455.455 0 0 1-.465-.467c0-.267.2-.467.465-.467h10.228c.266 0 .465.2.465.467s-.266.467-.465.467Zm-2.125 2.136h-8.103a.455.455 0 0 1-.465-.466c0-.267.2-.467.465-.467h8.103c.266 0 .465.2.465.467-.067.266-.266.466-.465.466Zm21.719 0H81.413a.455.455 0 0 1-.465-.466c0-.267.2-.467.465-.467h20.125c.265 0 .465.2.465.467 0 .266-.2.466-.465.466Z" fill="#C0D6FF"/><path d="M110.238 12.693h-5.844a.455.455 0 0 1-.465-.466c0-.267.199-.467.465-.467h5.844c.266 0 .465.2.465.467a.455.455 0 0 1-.465.466Z" fill="#EAEEF9"/><g filter="url(#saved-queries-all__k)"><path d="M115.085 12.693h-1.992a.455.455 0 0 1-.465-.466c0-.267.199-.467.465-.467h1.992c.266 0 .465.2.465.467a.455.455 0 0 1-.465.466Z" fill="url(#saved-queries-all__l)"/></g><path d="M84.999 14.83H74.77a.455.455 0 0 1-.465-.468c0-.266.199-.466.465-.466h10.228c.266 0 .465.2.465.466-.067.267-.266.467-.465.467Zm0 8.477H74.77a.455.455 0 0 1-.465-.467c0-.267.199-.467.465-.467h10.228c.266 0 .465.2.465.467-.067.267-.266.467-.465.467Z" fill="#EA67A4"/><path d="M82.276 25.442H74.77a.455.455 0 0 1-.465-.466c0-.267.199-.467.465-.467h7.505c.265 0 .465.2.465.467 0 .266-.2.466-.465.466Zm19.859 0h-17.8a.455.455 0 0 1-.465-.466c0-.267.2-.467.465-.467h17.8c.266 0 .465.2.465.467 0 .266-.266.466-.465.466Zm-14.281-8.477H78.29a.455.455 0 0 1-.465-.467c0-.267.2-.467.465-.467h9.564c.266 0 .465.2.465.467s-.2.467-.465.467Z" fill="#C0D6FF"/><g filter="url(#saved-queries-all__m)"><path d="M93.234 16.965h-3.918a.455.455 0 0 1-.465-.467c0-.267.199-.467.465-.467h3.918c.266 0 .465.2.465.467s-.2.467-.465.467Z" fill="url(#saved-queries-all__n)"/></g><path d="M104.658 19.034H78.29a.455.455 0 0 1-.465-.467c0-.266.2-.466.465-.466h26.368c.266 0 .465.2.465.466a.455.455 0 0 1-.465.467Z" fill="#C0D6FF"/><g filter="url(#saved-queries-all__o)"><path d="M109.375 19.034h-2.458a.455.455 0 0 1-.465-.467c0-.266.199-.466.465-.466h2.458c.265 0 .464.2.464.466-.066.267-.199.467-.464.467Z" fill="url(#saved-queries-all__p)"/></g><path d="M96.422 21.171H78.29a.455.455 0 0 1-.465-.467c0-.267.2-.467.465-.467h18.132c.266 0 .465.2.465.467s-.2.467-.465.467Zm-7.904 6.341H78.29a.455.455 0 0 1-.465-.467c0-.267.2-.467.465-.467h10.228c.266 0 .465.2.465.467s-.199.467-.465.467Z" fill="#C0D6FF"/><defs><linearGradient id="saved-queries-all__b" x1="77.925" y1="90.425" x2="110.206" y2="90.425" gradientUnits="userSpaceOnUse"><stop stop-color="#83A6FF"/><stop offset="1" stop-color="#5277D7"/></linearGradient><linearGradient id="saved-queries-all__c" x1=".995" y1="10.777" x2="55.978" y2="10.777" gradientUnits="userSpaceOnUse"><stop stop-color="#6F88FF"/><stop offset="1" stop-color="#6E88FF" stop-opacity="0"/></linearGradient><linearGradient id="saved-queries-all__e" x1="47.889" y1="20.13" x2="50.813" y2="20.13" gradientUnits="userSpaceOnUse"><stop stop-color="#83A6FF"/><stop offset="1" stop-color="#5277D7"/></linearGradient><linearGradient id="saved-queries-all__g" x1="24.113" y1="24.402" x2="28.962" y2="24.402" gradientUnits="userSpaceOnUse"><stop stop-color="#83A6FF"/><stop offset="1" stop-color="#5277D7"/></linearGradient><linearGradient id="saved-queries-all__i" x1="41.714" y1="26.471" x2="45.102" y2="26.471" gradientUnits="userSpaceOnUse"><stop stop-color="#83A6FF"/><stop offset="1" stop-color="#5277D7"/></linearGradient><linearGradient id="saved-queries-all__j" x1="65.732" y1="2.875" x2="120.716" y2="2.875" gradientUnits="userSpaceOnUse"><stop stop-color="#BDCDF4"/><stop offset="1" stop-color="#6E88FF" stop-opacity="0"/></linearGradient><linearGradient id="saved-queries-all__l" x1="112.629" y1="12.227" x2="115.552" y2="12.227" gradientUnits="userSpaceOnUse"><stop stop-color="#83A6FF"/><stop offset="1" stop-color="#5277D7"/></linearGradient><linearGradient id="saved-queries-all__n" x1="88.852" y1="16.498" x2="93.701" y2="16.498" gradientUnits="userSpaceOnUse"><stop stop-color="#83A6FF"/><stop offset="1" stop-color="#5277D7"/></linearGradient><linearGradient id="saved-queries-all__p" x1="106.453" y1="18.568" x2="109.841" y2="18.568" gradientUnits="userSpaceOnUse"><stop stop-color="#83A6FF"/><stop offset="1" stop-color="#5277D7"/></linearGradient><filter id="saved-queries-all__a" x="69.916" y="71.251" width="48.274" height="48.317" filterUnits="userSpaceOnUse" color-interpolation-filters="sRGB"><feFlood flood-opacity="0" result="BackgroundImageFix"/><feColorMatrix in="SourceAlpha" values="0 0 0 0 0 0 0 0 0 0 0 0 0 0 0 0 0 0 127 0" result="hardAlpha"/><feOffset dy="5"/><feGaussianBlur stdDeviation="4"/><feColorMatrix values="0 0 0 0 0.1125 0 0 0 0 0.295916 0 0 0 0 1 0 0 0 0.22 0"/><feBlend in2="BackgroundImageFix" result="effect1_dropShadow_2825_166110"/><feBlend in="SourceGraphic" in2="effect1_dropShadow_2825_166110" result="shape"/></filter><filter id="saved-queries-all__d" x="39.889" y="16.663" width="18.922" height="16.934" filterUnits="userSpaceOnUse" color-interpolation-filters="sRGB"><feFlood flood-opacity="0" result="BackgroundImageFix"/><feColorMatrix in="SourceAlpha" values="0 0 0 0 0 0 0 0 0 0 0 0 0 0 0 0 0 0 127 0" result="hardAlpha"/><feOffset dy="5"/><feGaussianBlur stdDeviation="4"/><feColorMatrix values="0 0 0 0 0.1125 0 0 0 0 0.295916 0 0 0 0 1 0 0 0 0.22 0"/><feBlend in2="BackgroundImageFix" result="effect1_dropShadow_2825_166110"/><feBlend in="SourceGraphic" in2="effect1_dropShadow_2825_166110" result="shape"/></filter><filter id="saved-queries-all__f" x="16.111" y="20.935" width="20.848" height="16.934" filterUnits="userSpaceOnUse" color-interpolation-filters="sRGB"><feFlood flood-opacity="0" result="BackgroundImageFix"/><feColorMatrix in="SourceAlpha" values="0 0 0 0 0 0 0 0 0 0 0 0 0 0 0 0 0 0 127 0" result="hardAlpha"/><feOffset dy="5"/><feGaussianBlur stdDeviation="4"/><feColorMatrix values="0 0 0 0 0.1125 0 0 0 0 0.295916 0 0 0 0 1 0 0 0 0.22 0"/><feBlend in2="BackgroundImageFix" result="effect1_dropShadow_2825_166110"/><feBlend in="SourceGraphic" in2="effect1_dropShadow_2825_166110" result="shape"/></filter><filter id="saved-queries-all__h" x="33.713" y="23.004" width="19.387" height="16.934" filterUnits="userSpaceOnUse" color-interpolation-filters="sRGB"><feFlood flood-opacity="0" result="BackgroundImageFix"/><feColorMatrix in="SourceAlpha" values="0 0 0 0 0 0 0 0 0 0 0 0 0 0 0 0 0 0 127 0" result="hardAlpha"/><feOffset dy="5"/><feGaussianBlur stdDeviation="4"/><feColorMatrix values="0 0 0 0 0.1125 0 0 0 0 0.295916 0 0 0 0 1 0 0 0 0.22 0"/><feBlend in2="BackgroundImageFix" result="effect1_dropShadow_2825_166110"/><feBlend in="SourceGraphic" in2="effect1_dropShadow_2825_166110" result="shape"/></filter><filter id="saved-queries-all__k" x="104.628" y="8.76" width="18.922" height="16.934" filterUnits="userSpaceOnUse" color-interpolation-filters="sRGB"><feFlood flood-opacity="0" result="BackgroundImageFix"/><feColorMatrix in="SourceAlpha" values="0 0 0 0 0 0 0 0 0 0 0 0 0 0 0 0 0 0 127 0" result="hardAlpha"/><feOffset dy="5"/><feGaussianBlur stdDeviation="4"/><feColorMatrix values="0 0 0 0 0.1125 0 0 0 0 0.295916 0 0 0 0 1 0 0 0 0.22 0"/><feBlend in2="BackgroundImageFix" result="effect1_dropShadow_2825_166110"/><feBlend in="SourceGraphic" in2="effect1_dropShadow_2825_166110" result="shape"/></filter><filter id="saved-queries-all__m" x="80.851" y="13.031" width="20.849" height="16.934" filterUnits="userSpaceOnUse" color-interpolation-filters="sRGB"><feFlood flood-opacity="0" result="BackgroundImageFix"/><feColorMatrix in="SourceAlpha" values="0 0 0 0 0 0 0 0 0 0 0 0 0 0 0 0 0 0 127 0" result="hardAlpha"/><feOffset dy="5"/><feGaussianBlur stdDeviation="4"/><feColorMatrix values="0 0 0 0 0.1125 0 0 0 0 0.295916 0 0 0 0 1 0 0 0 0.22 0"/><feBlend in2="BackgroundImageFix" result="effect1_dropShadow_2825_166110"/><feBlend in="SourceGraphic" in2="effect1_dropShadow_2825_166110" result="shape"/></filter><filter id="saved-queries-all__o" x="98.452" y="15.101" width="19.387" height="16.934" filterUnits="userSpaceOnUse" color-interpolation-filters="sRGB"><feFlood flood-opacity="0" result="BackgroundImageFix"/><feColorMatrix in="SourceAlpha" values="0 0 0 0 0 0 0 0 0 0 0 0 0 0 0 0 0 0 127 0" result="hardAlpha"/><feOffset dy="5"/><feGaussianBlur stdDeviation="4"/><feColorMatrix values="0 0 0 0 0.1125 0 0 0 0 0.295916 0 0 0 0 1 0 0 0 0.22 0"/><feBlend in2="BackgroundImageFix" result="effect1_dropShadow_2825_166110"/><feBlend in="SourceGraphic" in2="effect1_dropShadow_2825_166110" result="shape"/></filter></defs></svg>