<svg width="124" height="120" viewBox="0 0 124 120" fill="none" xmlns="http://www.w3.org/2000/svg"><path d="M61.628 107.999c23.0585 0 41.751-18.7229 41.751-41.8194 0-23.0964-18.6925-41.8197-41.751-41.8197S19.877 43.0832 19.877 66.1796c0 23.0965 18.6925 41.8194 41.751 41.8194z" fill="#EAEEF9"/><path d="M30.8839 39.0854h59.3924c2.3521 0 4.2003 1.8512 4.2003 4.2073v37.6125c0 2.3561-1.8482 4.2073-4.2003 4.2073H30.8839c-2.3522 0-4.2003-1.8512-4.2003-4.2073V43.2927c0-2.3561 1.9321-4.2073 4.2003-4.2073z" fill="#C0D6FF"/><path d="M94.3575 47.2938v33.5995c0 2.3461-1.8271 4.1895-4.1525 4.1895H31.4045c-2.3254 0-4.1525-1.8434-4.1525-4.1895V43.4395c0-2.3461 1.8271-4.1895 4.1525-4.1895h58.7174c1.8271 0 3.3221 1.1731 3.9034 2.765" stroke="#6F7590" stroke-miterlimit="10" stroke-linecap="round" stroke-linejoin="round"/><path d="M118.193 56.8709c1.301-1.1913 1.392-3.2138.203-4.5174-1.19-1.3036-3.209-1.3947-4.51-.2034-1.302 1.1913-1.393 3.2138-.203 4.5174 1.189 1.3036 3.208 1.3947 4.51.2034zM37.5026 28.5447c1.103-.3591 1.7066-1.5459 1.3481-2.6508-.3585-1.1048-1.5434-1.7094-2.6464-1.3503-1.1031.3591-1.7066 1.5459-1.3481 2.6508.3585 1.1048 1.5433 1.7094 2.6464 1.3503z" fill="#EAEEF9"/><path d="M95.6645 63.2193V81.731c0 2.3561-1.9321 4.3757-4.3683 4.3757H30.2237c-2.3521 0-4.3682-1.9355-4.3682-4.3757V61.6206" stroke="#84A2FF" stroke-width="3" stroke-linecap="round" stroke-linejoin="round"/><path d="M99.1083 47.146H74.0744c-2.4362 0-4.7883.8417-6.6364 2.3563l-6.5525 5.3851c-1.8482 1.5146-4.2003 2.3559-6.6364 2.3559H25.7708c-2.8562 0-5.2083 2.3562-5.2083 5.2171 0 .2525.0001.5048.0841.7573l5.2083 27.7676c.4201 2.6085 2.6042 4.5437 5.2084 4.5437h60.6524c2.6042 0 4.7883-1.851 5.2083-4.4594l7.309-37.9493c.504-2.8609-1.428-5.4694-4.2847-5.9743h-.84z" fill="#fff"/><path d="M100.034 74.9992l4.2-21.8776c.504-2.8609-1.428-5.4694-4.2845-5.9743-.252-.0842-.588-.0838-.8401-.0838H74.0756c-2.4362 0-4.7883.8413-6.6364 2.3559l-6.5526 5.3851c-1.8481 1.5146-4.2002 2.3563-6.6364 2.3563H38.457M29.383 57.2441h-3.5282c-2.8562 0-5.2083 2.3562-5.2083 5.2172 0 .2524-.0001.5047.0839.7572l5.2083 27.7676c.42 2.6085 2.6044 4.5438 5.2086 4.5438h60.6524c2.6042 0 4.7883-1.8511 5.2083-4.4595l1.8481-9.5082" stroke="#6F7590" stroke-miterlimit="10" stroke-linecap="round" stroke-linejoin="round"/><g filter="url(#filter0_d_2272:142683)"><path d="M109.854 93.7037c-.336 1.4305-.84 2.8609-1.428 4.1231-1.597 3.0292-4.033 5.4692-7.057 6.9842-3.1082 1.599-6.8044 2.188-10.5847 1.43-8.7366-1.851-14.3651-10.3495-12.5169-19.1006 1.8481-8.751 10.3327-14.3887 19.0694-12.5375 3.1082.6732 5.8802 2.1878 8.1482 4.3755 3.865 3.8707 5.461 9.4242 4.369 14.7253z" fill="url(#paint0_linear_2272:142683)"/></g><path d="M99.1731 88.9825h-3.6964v-3.7023c0-.7573-.588-1.4306-1.4281-1.4306-.756 0-1.428.5892-1.428 1.4306v3.7023h-3.6964c-.7561 0-1.4281.5892-1.4281 1.4306 0 .8415.588 1.4302 1.4281 1.4302h3.6964v3.7027c0 .7573.588 1.4302 1.428 1.4302.7561 0 1.4281-.5887 1.4281-1.4302v-3.7027h3.6964c.756 0 1.4279-.5887 1.4279-1.4302 0-.8414-.6719-1.4306-1.4279-1.4306z" fill="#fff"/><path d="M14.1795 75.6848c-.0591-1.1112-1.0088-1.9653-2.1213-1.9077-1.1125.0577-1.9665 1.0053-1.9074 2.1166.0591 1.1112 1.0089 1.9653 2.1214 1.9077 1.1124-.0577 1.9664-1.0053 1.9073-2.1166z" fill="#E2EBFF"/><path d="M8.95776 69.731c-.04018-.7557-.68601-1.3365-1.4425-1.2973-.7565.0393-1.33718.6836-1.297 1.4393.04018.7556.68601 1.3364 1.44251 1.2972.75649-.0392 1.33718-.6836 1.29699-1.4392z" fill="#F34D77"/><path d="M50.6393 75.9232c1.4847 0 2.6882-1.2056 2.6882-2.6927 0-1.4871-1.2035-2.6924-2.6882-2.6924-1.4846 0-2.6881 1.2053-2.6881 2.6924s1.2035 2.6927 2.6881 2.6927zM71.8092 75.8398c1.4847 0 2.6882-1.2053 2.6882-2.6924s-1.2035-2.6928-2.6882-2.6928c-1.4846 0-2.6881 1.2057-2.6881 2.6928s1.2035 2.6924 2.6881 2.6924zM65.9358 79.5513c0 .8692-1.7682 1.5804-3.9396 1.5804-2.187 0-3.9552-.7112-3.9552-1.5804h7.8948z" fill="#6F7590"/><path d="M55.9937 10.5616v38.1163c0 .8011-.6642 1.4686-1.4612 1.4686H2.46118C1.66417 50.1465 1 49.479 1 48.6779V10.5616c0-.80108.66417-1.46862 1.46118-1.46862H54.5325c.797-.06675 1.4612.60079 1.4612 1.46862z" fill="#fff"/><path d="M5.1843 11.8965v38.2498H2.46118C1.66417 50.1463 1 49.4788 1 48.6778V11.8965h4.1843z" fill="#F4F6FD"/><path d="M55.9937 10.5616v1.8691H1v-1.8691c0-.80108.66417-1.46862 1.46118-1.46862H54.5325c.797-.06675 1.4612.60079 1.4612 1.46862z" fill="url(#paint1_linear_2272:142683)"/><path d="M42.8469 8.90234H54.802c.797 0 1.4612.66754 1.4612 1.46856v38.1164c0 .801-.6642 1.4686-1.4612 1.4686H2.73072c-.79701 0-1.46119-.6676-1.46119-1.4686V10.3709c0-.80102.66418-1.46856 1.46119-1.46856H37.2678" stroke="#6F7590" stroke-miterlimit="10" stroke-linecap="round" stroke-linejoin="round"/><path d="M2.66023 11.2955c.25677 0 .46493-.209.46493-.4668 0-.2579-.20816-.4669-.46493-.4669-.25676 0-.46492.209-.46492.4669 0 .2578.20816.4668.46492.4668zM3.98836 11.295c.25677 0 .46492-.209.46492-.4668 0-.2579-.20815-.4669-.46492-.4669s-.46492.209-.46492.4669c0 .2578.20815.4668.46492.4668zM5.31844 11.295c.25677 0 .46492-.209.46492-.4668 0-.2579-.20815-.4669-.46492-.4669s-.46492.209-.46492.4669c0 .2578.20815.4668.46492.4668z" fill="#fff"/><path d="M3.12515 15.7669h-.39851c-.26567 0-.46492-.2001-.46492-.4669 0-.2667.26567-.4001.46492-.4001h.39851c.26567 0 .46492.2001.46492.4668 0 .2668-.19925.4002-.46492.4002zM3.12515 17.9039h-.39851c-.26567 0-.46492-.2001-.46492-.4668 0-.2668.19925-.4669.46492-.4669h.39851c.26567 0 .46492.2001.46492.4669 0 .2667-.19925.4668-.46492.4668zM3.12515 20.0396h-.39851c-.26567 0-.46492-.2-.46492-.4668s.19925-.4668.46492-.4668h.39851c.26567 0 .46492.2.46492.4668s-.19925.4668-.46492.4668zM3.12515 22.1759h-.39851c-.26567 0-.46492-.2001-.46492-.4669 0-.2667.19925-.4668.46492-.4668h.39851c.26567 0 .46492.2001.46492.4668 0 .2668-.19925.4669-.46492.4669zM3.12515 24.3121h-.39851c-.26567 0-.46492-.2001-.46492-.4668 0-.2668.19925-.4669.46492-.4669h.39851c.26567 0 .46492.2001.46492.4669 0 .2667-.19925.4668-.46492.4668zM3.12515 26.4475h-.39851c-.26567 0-.46492-.2-.46492-.4668s.26567-.4001.46492-.4001h.39851c.26567 0 .46492.2.46492.4668s-.19925.4001-.46492.4001zM3.12515 28.5836h-.39851c-.26567 0-.46492-.2001-.46492-.4669 0-.2667.19925-.4668.46492-.4668h.39851c.26567 0 .46492.2001.46492.4668 0 .2668-.19925.4669-.46492.4669zM3.12515 30.7198h-.39851c-.26567 0-.46492-.2001-.46492-.4668 0-.2668.19925-.4669.46492-.4669h.39851c.26567 0 .46492.2001.46492.4669 0 .2667-.19925.4668-.46492.4668zM3.12515 32.8565h-.39851c-.26567 0-.46492-.2-.46492-.4668s.19925-.4668.46492-.4668h.39851c.26567 0 .46492.2.46492.4668s-.19925.4668-.46492.4668zM3.12515 34.9259h-.39851c-.26567 0-.46492-.2001-.46492-.4669 0-.2667.19925-.4668.46492-.4668h.39851c.26567 0 .46492.2001.46492.4668 0 .2668-.19925.4669-.46492.4669zM3.12515 37.0621h-.39851c-.26567 0-.46492-.2001-.46492-.4668 0-.2668.19925-.4669.46492-.4669h.39851c.26567 0 .46492.2001.46492.4669 0 .2667-.19925.4668-.46492.4668zM3.12515 39.1983h-.39851c-.26567 0-.46492-.2001-.46492-.4668 0-.2668.19925-.4669.46492-.4669h.39851c.26567 0 .46492.2001.46492.4669 0 .2667-.19925.4668-.46492.4668zM3.12515 41.3341h-.39851c-.26567 0-.46492-.2001-.46492-.4669 0-.2667.19925-.4668.46492-.4668h.39851c.26567 0 .46492.2001.46492.4668 0 .2668-.19925.4669-.46492.4669zM3.12515 43.4703h-.39851c-.26567 0-.46492-.2001-.46492-.4668 0-.2668.19925-.4669.46492-.4669h.39851c.26567 0 .46492.2001.46492.4669 0 .2667-.19925.4668-.46492.4668zM3.12515 45.6065h-.39851c-.26567 0-.46492-.2-.46492-.4668s.19925-.4668.46492-.4668h.39851c.26567 0 .46492.2.46492.4668s-.19925.4668-.46492.4668zM3.12515 47.7428h-.39851c-.26567 0-.46492-.2001-.46492-.4669 0-.2667.19925-.4668.46492-.4668h.39851c.26567 0 .46492.2001.46492.4668 0 .2668-.19925.4669-.46492.4669zM17.2049 29.4596H6.97664c-.26567 0-.46492-.2001-.46492-.4669s.19925-.4668.46492-.4668H17.2049c.2657 0 .465.2.465.4668s-.2657.4669-.465.4669zM15.0796 31.5958H6.97664c-.26567 0-.46492-.2001-.46492-.4669 0-.2667.19925-.4668.46492-.4668h8.10296c.2656 0 .4649.2001.4649.4668-.0664.2668-.2657.4669-.4649.4669zM36.7984 31.5958H16.6739c-.2657 0-.4649-.2001-.4649-.4669 0-.2667.1992-.4668.4649-.4668h20.1245c.2657 0 .4649.2001.4649.4668 0 .2668-.1992.4669-.4649.4669z" fill="#C0D6FF"/><path d="M45.4991 31.5958h-5.8447c-.2657 0-.4649-.2001-.4649-.4669 0-.2667.1992-.4668.4649-.4668h5.8447c.2657 0 .4649.2001.4649.4668 0 .2668-.1992.4669-.4649.4669z" fill="#EAEEF9"/><g filter="url(#filter1_d_2272:142683)"><path d="M50.3461 31.5958h-1.9925c-.2657 0-.4649-.2001-.4649-.4669 0-.2667.1992-.4668.4649-.4668h1.9925c.2657 0 .4649.2001.4649.4668 0 .2668-.1992.4669-.4649.4669z" fill="url(#paint2_linear_2272:142683)"/></g><path d="M20.2596 33.732H10.0313c-.26564 0-.46489-.2001-.46489-.4668 0-.2668.19925-.4669.46489-.4669h10.2283c.2657 0 .4649.2001.4649.4669-.0664.2667-.2656.4668-.4649.4668zM20.2596 42.2096H10.0313c-.26564 0-.46489-.2001-.46489-.4669 0-.2667.19925-.4668.46489-.4668h10.2283c.2657 0 .4649.2001.4649.4668-.0664.2668-.2656.4669-.4649.4669z" fill="#EA67A4"/><path d="M23.115 35.8682h-9.5641c-.2657 0-.465-.2-.465-.4668s.1993-.4668.465-.4668h9.5641c.2656 0 .4649.2.4649.4668s-.1993.4668-.4649.4668z" fill="#C0D6FF"/><g filter="url(#filter2_d_2272:142683)"><path d="M28.4949 35.8682h-3.9186c-.2657 0-.465-.2-.465-.4668s.1993-.4668.465-.4668h3.9186c.2656 0 .4649.2.4649.4668s-.1993.4668-.4649.4668z" fill="url(#paint3_linear_2272:142683)"/></g><path d="M39.9186 37.9376H13.5509c-.2657 0-.465-.2001-.465-.4669 0-.2667.1993-.4668.465-.4668h26.3677c.2657 0 .4649.2001.4649.4668 0 .2668-.1992.4669-.4649.4669z" fill="#C0D6FF"/><g filter="url(#filter3_d_2272:142683)"><path d="M44.6353 37.9376h-2.4575c-.2657 0-.4649-.2001-.4649-.4669 0-.2667.1992-.4668.4649-.4668h2.4575c.2656 0 .4649.2001.4649.4668-.0664.2668-.1993.4669-.4649.4669z" fill="url(#paint4_linear_2272:142683)"/></g><path d="M31.6828 40.0738H13.5509c-.2657 0-.465-.2001-.465-.4668 0-.2668.1993-.4669.465-.4669h18.1319c.2657 0 .4649.2001.4649.4669 0 .2667-.1992.4668-.4649.4668z" fill="#C0D6FF"/><path d="M19 20.6773c0 1.8313-.8316 3.4961-2.0791 4.6615-1.0811.9989-2.5781 1.5816-4.1582 1.5816-1.5801 0-3.07707-.5827-4.15821-1.5816-1.33062-1.1654-2.0791-2.8302-2.0791-4.6615 0-3.413 2.82758-6.2432 6.23731-6.2432 3.4097 0 6.2373 2.8302 6.2373 6.2432z" fill="#7C93FF"/><path d="M16.9199 25.338c-1.0811.9989-2.5781 1.5816-4.1582 1.5816-1.5801 0-3.07705-.5827-4.15818-1.5816.49898-.1665 1.08113-.4162 1.82958-.7492.1664-.0832.3327-.2497.4158-.4162.0832-.0833.0832-.2497.0832-.333V22.258l-.0832-.0832c-.1663-.1665-.2494-.4162-.2494-.666l-.1664-.0832c-.4158.0832-.3326-.333-.49896-1.1654 0-.333 0-.4162.16636-.4995l.1663-.1664c-.74848-1.7481-.41582-2.8303.4158-3.2465-.2495-.5827-.2495-.7492-.2495-.7492s1.6633.2498 2.1623.1665c.7485-.1665 1.8296 0 2.2454.9989.6653.2498.9148.666.998 1.1654.0832.7492-.3327 1.5816-.4158 1.8313.0831.0833.1663.1665.0831.4163-.0831.7491-.0831 1.2486-.499 1.1654l-.3326.7491V23.9229c0 .1664.0832.3329.0832.4162.0831.1665.2494.2497.3326.3329.7485.2498 1.3306.4995 1.8296.666z" fill="#fff"/><path d="M15.4491 19.844c0-.1733-.0866-.4332-.1732-.6065v-.0866c-.3462-.6931-1.0387-.9531-1.7311-.9531-1.7312-.0866-1.9043.26-2.5102-.2599.1731.2599.1731.6931-.0866 1.213-.1731.3465-.5193.5198-.8656.6065-.77901-1.8195-.43277-2.9458.4328-3.379-.2597-.6065-.2597-.7798-.2597-.7798s1.7312.26 2.2506.1733c.779-.1733 1.9043 0 2.3371 1.0397.6924.2599.9521.6931 1.0387 1.213.0865.6064-.3463 1.4728-.4328 1.8194z" fill="#BDCDF4"/><path d="M14.7603 24.3401v.333h-3.9087v-.4163c.0831-.0832.0831-.2497.0831-.3329v-1.5816l-.0831-.0833v-.0832c.0831.1665.1663.2497.3326.4162l1.2475.8324c.2495.2497.6653.2497.9979 0l1.1643-.9989.0832-.0832v1.6648c-.0832.0833 0 .1665.0832.333z" fill="url(#paint5_linear_2272:142683)"/><path d="M120.73 2.65922V40.7756c0 .801-.664 1.4686-1.461 1.4686H67.1975c-.797 0-1.4612-.6676-1.4612-1.4686V2.65922c0-.80104.6642-1.46858 1.4612-1.46858h52.0715c.797-.06676 1.461.60078 1.461 1.46858z" fill="#fff"/><path d="M69.9206 3.99414V42.244h-2.7231c-.797 0-1.4612-.6675-1.4612-1.4686V3.99414h4.1843z" fill="#F4F6FD"/><path d="M120.73 2.65922v1.8691H65.7363v-1.8691c0-.80104.6642-1.46858 1.4612-1.46858h52.0715c.797-.06676 1.461.60078 1.461 1.46858z" fill="url(#paint6_linear_2272:142683)"/><path d="M107.583 1h11.955c.797 0 1.462.66754 1.462 1.46858V40.5849c0 .8011-.665 1.4686-1.462 1.4686H67.467c-.797 0-1.4611-.6675-1.4611-1.4686V2.46858C66.0059 1.66754 66.67 1 67.467 1h34.537" stroke="#6F7590" stroke-miterlimit="10" stroke-linecap="round" stroke-linejoin="round"/><path d="M67.3966 3.39315c.2567 0 .4649-.20902.4649-.46684 0-.25783-.2082-.46684-.4649-.46684-.2568 0-.465.20901-.465.46684 0 .25782.2082.46684.465.46684zM68.7266 3.39266c.2568 0 .465-.20901.465-.46684s-.2082-.46684-.465-.46684c-.2567 0-.4649.20901-.4649.46684s.2082.46684.4649.46684zM70.0548 3.39266c.2567 0 .4649-.20901.4649-.46684s-.2082-.46684-.4649-.46684c-.2568 0-.465.20901-.465.46684s.2082.46684.465.46684z" fill="#fff"/><path d="M67.8615 7.86454h-.3985c-.2657 0-.465-.20007-.465-.46684 0-.26676.2657-.40014.465-.40014h.3985c.2656 0 .4649.20007.4649.46684 0 .26676-.1993.40014-.4649.40014zM67.8615 10.0015h-.3985c-.2657 0-.465-.20003-.465-.46679 0-.26677.1993-.46684.465-.46684h.3985c.2656 0 .4649.20007.4649.46684 0 .26676-.1993.46679-.4649.46679zM67.8615 12.1373h-.3985c-.2657 0-.465-.2001-.465-.4668 0-.2668.1993-.4669.465-.4669h.3985c.2656 0 .4649.2001.4649.4669 0 .2667-.1993.4668-.4649.4668zM67.8615 14.2735h-.3985c-.2657 0-.465-.2001-.465-.4668 0-.2668.1993-.4669.465-.4669h.3985c.2656 0 .4649.2001.4649.4669 0 .2667-.1993.4668-.4649.4668zM67.8615 16.4097h-.3985c-.2657 0-.465-.2-.465-.4668s.1993-.4668.465-.4668h.3985c.2656 0 .4649.2.4649.4668s-.1993.4668-.4649.4668zM67.8615 18.5452h-.3985c-.2657 0-.465-.2001-.465-.4668 0-.2668.2657-.4002.465-.4002h.3985c.2656 0 .4649.2001.4649.4669 0 .2667-.1993.4001-.4649.4001zM67.8615 20.6812h-.3985c-.2657 0-.465-.2-.465-.4668s.1993-.4668.465-.4668h.3985c.2656 0 .4649.2.4649.4668s-.1993.4668-.4649.4668zM67.8615 22.818h-.3985c-.2657 0-.465-.2001-.465-.4669 0-.2667.1993-.4668.465-.4668h.3985c.2656 0 .4649.2001.4649.4668 0 .2668-.1993.4669-.4649.4669zM67.8615 24.9537h-.3985c-.2657 0-.465-.2001-.465-.4668 0-.2668.1993-.4669.465-.4669h.3985c.2656 0 .4649.2001.4649.4669 0 .2667-.1993.4668-.4649.4668zM67.8615 27.023h-.3985c-.2657 0-.465-.2-.465-.4668s.1993-.4668.465-.4668h.3985c.2656 0 .4649.2.4649.4668s-.1993.4668-.4649.4668zM67.8615 29.1593h-.3985c-.2657 0-.465-.2001-.465-.4669 0-.2667.1993-.4668.465-.4668h.3985c.2656 0 .4649.2001.4649.4668 0 .2668-.1993.4669-.4649.4669zM67.8615 31.296h-.3985c-.2657 0-.465-.2001-.465-.4669 0-.2667.1993-.4668.465-.4668h.3985c.2656 0 .4649.2001.4649.4668 0 .2668-.1993.4669-.4649.4669zM67.8615 33.4317h-.3985c-.2657 0-.465-.2-.465-.4668s.1993-.4669.465-.4669h.3985c.2656 0 .4649.2001.4649.4669s-.1993.4668-.4649.4668zM67.8615 35.568h-.3985c-.2657 0-.465-.2001-.465-.4669s.1993-.4668.465-.4668h.3985c.2656 0 .4649.2.4649.4668s-.1993.4669-.4649.4669zM67.8615 37.7042h-.3985c-.2657 0-.465-.2001-.465-.4669 0-.2667.1993-.4668.465-.4668h.3985c.2656 0 .4649.2001.4649.4668 0 .2668-.1993.4669-.4649.4669zM67.8615 39.8404h-.3985c-.2657 0-.465-.2001-.465-.4668 0-.2668.1993-.4669.465-.4669h.3985c.2656 0 .4649.2001.4649.4669 0 .2667-.1993.4668-.4649.4668zM81.9432 22.5572H71.7149c-.2656 0-.4649-.2001-.4649-.4668 0-.2668.1993-.4669.4649-.4669h10.2283c.2657 0 .4649.2001.4649.4669 0 .2667-.2656.4668-.4649.4668zM79.8179 24.6934h-8.103c-.2656 0-.4649-.2-.4649-.4668s.1993-.4668.4649-.4668h8.103c.2656 0 .4649.2.4649.4668-.0664.2668-.2657.4668-.4649.4668zM101.537 24.6934H81.4122c-.2657 0-.4649-.2-.4649-.4668s.1992-.4668.4649-.4668h20.1248c.265 0 .465.2.465.4668s-.2.4668-.465.4668z" fill="#C0D6FF"/><path d="M110.237 24.6934h-5.844c-.266 0-.465-.2-.465-.4668s.199-.4668.465-.4668h5.844c.266 0 .465.2.465.4668s-.199.4668-.465.4668z" fill="#EAEEF9"/><g filter="url(#filter4_d_2272:142683)"><path d="M115.084 24.6934h-1.992c-.266 0-.465-.2-.465-.4668s.199-.4668.465-.4668h1.992c.266 0 .465.2.465.4668s-.199.4668-.465.4668z" fill="url(#paint7_linear_2272:142683)"/></g><path d="M84.9979 26.8292H74.7696c-.2657 0-.4649-.2001-.4649-.4669 0-.2667.1992-.4668.4649-.4668h10.2283c.2657 0 .4649.2001.4649.4668-.0664.2668-.2657.4669-.4649.4669zM84.9979 35.3072H74.7696c-.2657 0-.4649-.2001-.4649-.4668 0-.2668.1992-.4669.4649-.4669h10.2283c.2657 0 .4649.2001.4649.4669-.0664.2667-.2656.4668-.4649.4668z" fill="#EA67A4"/><path d="M87.8533 28.9654h-9.5642c-.2656 0-.4649-.2001-.4649-.4668 0-.2668.1993-.4669.4649-.4669h9.5642c.2656 0 .4649.2001.4649.4669 0 .2667-.1993.4668-.4649.4668z" fill="#C0D6FF"/><g filter="url(#filter5_d_2272:142683)"><path d="M93.2332 28.9654h-3.9187c-.2656 0-.4649-.2001-.4649-.4668 0-.2668.1993-.4669.4649-.4669h3.9187c.2656 0 .4649.2001.4649.4669 0 .2667-.1993.4668-.4649.4668z" fill="url(#paint8_linear_2272:142683)"/></g><path d="M104.657 31.0347H78.2891c-.2656 0-.4649-.2-.4649-.4668s.1993-.4668.4649-.4668h26.3679c.266 0 .465.2.465.4668s-.199.4668-.465.4668z" fill="#C0D6FF"/><g filter="url(#filter6_d_2272:142683)"><path d="M109.374 31.0347h-2.458c-.266 0-.465-.2-.465-.4668s.199-.4668.465-.4668h2.458c.265 0 .464.2.464.4668-.066.2668-.199.4668-.464.4668z" fill="url(#paint9_linear_2272:142683)"/></g><path d="M96.4211 33.1715h-18.132c-.2656 0-.4649-.2001-.4649-.4669 0-.2667.1993-.4668.4649-.4668h18.132c.2657 0 .4649.2001.4649.4668 0 .2668-.1992.4669-.4649.4669z" fill="#C0D6FF"/><path d="M84 12.8637c0 1.7729-.7591 3.377-1.94 4.559-.0843.0844-.0843.0844-.1687.1688-1.0965 1.0131-2.6147 1.6041-4.2173 1.6041-1.6026 0-3.0365-.591-4.133-1.5196h-.0843c-1.3496-1.182-2.193-2.8705-2.193-4.8123 0-3.46148 2.8678-6.33196 6.326-6.33196C81.1322 6.53174 84 9.40222 84 12.8637z" fill="#BDCCF7"/><path d="M82.0336 17.5503c-.2566-.5994-.6843-1.1131-1.3685-1.4555-.3422-.1713-.5988-.2569-1.0265-.2569h-.2566c-.5987 0-.6843-.0856-.6843-.0856v-1.0274c.6843-.5137 1.1975-1.1986 1.3686-1.9692.4277-.0856.6843-.428.5988-.8561 0-.1712-.1711-.3425-.1711-.5137v-.2569-.1712-.1712c0-.3425-.0855-.5993-.3422-.9418-.5132-.94178-1.5396-1.54109-2.6516-1.54109-.2566 0-.4276 0-.6842.08562-.4277.08561-.7699.25685-1.112.51369-.0855.08562-.0855.08562-.1711.17123 0 0 0 .00001-.0855.08562-.3422.34247-.5988.77055-.7698 1.19863-.1711.4281-.1711.9418-.1711 1.4555v.2568s0 .0856-.0855.0856c.171-.1712.0855.0857.171.2569.1711.4281.4277.3424.7699.5993h-.0856l-.3421.0856c-1.8818.5993-2.0529 2.5685-.1711 2.9966-.1711.0856-.2566.1712-.3421.1712-.5133.4281-.8554.9418-1.0265 1.4555 1.112.9418 2.5661 1.5411 4.1913 1.5411s3.1648-.5993 4.2768-1.6267c.0855.0856.171 0 .171-.0856.0856 0 .0856 0 0 0zm-5.3032-2.0548c-.0855-.0857-.171-.1713-.171-.1713-.0856-.0856-.1711-.0856-.2567-.1712 0 0-.0855 0-.0855-.0856-.2566-.1712-.5132-.3425-.5987-.5993 0-.0856.0855-.2569.2566-.4281.0855.0856.171.1712.2566.3425.0855.0856.171.1712.2566.2568.0855 0 .1711.0856.1711.1712h.171v.685z" fill="#fff"/><path d="M79.4856 15.7879c-.0844.3374-.2531.5904-.2531.5904l-3.2052-.506.1687-.8435s.0844 0 .0844.0843c.0843.0844.1687.0844.253.1687.0844 0 .0844.0844.1687.1687v-.5904h-.0843c.506.253 1.1808.4217 2.1086-.1687v1.0122c.0844 0 .1687.0843.7592.0843z" fill="url(#paint10_linear_2272:142683)"/><path d="M78.8204 11.0798c.6017 0 1.2034-.0861 1.7192-.2582 0 0 0-.086.086-.1721-.086-.2581-.1719-.6023-.3439-.94643-.5157-.94647-1.5473-1.54877-2.6648-1.54877-.2579 0-.5052.0184-.8502.10445-.459.14042-.6721.26383-.7808.32979 0 0-.2513.16912-.4321.34014-.1808.17103-.6017.77439-.7736 1.20462-.172.5162-.3107.955-.2247 1.4713.086 0 .2247-.0946.3106-.0946.6877-.3442 1.2035-.7744 1.4614-1.4628.6877.6023 1.5473.9465 2.4929 1.0326z" fill="#6F7590"/><path d="M75.9004 14.1299l.253.253-.253-.253z" fill="#3973F4"/><path d="M77.0856 17.253c-.2531.3377-.6748.3377-1.0965.3377.4217-.4221.1687-1.6885-1.1809-1.5196-1.9399-.3377-1.6869-2.364.1687-2.9549l.3374-.0845.0844.0845c.1686.4221.3373.6754.5904 1.0131-.7591.6754.3374.8442.8434 1.3508.3374.1688.6748 1.2664.2531 1.7729z" fill="#6F7590"/><defs><linearGradient id="paint0_linear_2272:142683" x1="77.9252" y1="90.4253" x2="110.206" y2="90.4253" gradientUnits="userSpaceOnUse"><stop stop-color="#83A6FF"/><stop offset="1" stop-color="#5277D7"/></linearGradient><linearGradient id="paint1_linear_2272:142683" x1=".995091" y1="10.7774" x2="55.9785" y2="10.7774" gradientUnits="userSpaceOnUse"><stop stop-color="#6F88FF"/><stop offset="1" stop-color="#6E88FF" stop-opacity="0"/></linearGradient><linearGradient id="paint2_linear_2272:142683" x1="47.8895" y1="31.1294" x2="50.8125" y2="31.1294" gradientUnits="userSpaceOnUse"><stop stop-color="#83A6FF"/><stop offset="1" stop-color="#5277D7"/></linearGradient><linearGradient id="paint3_linear_2272:142683" x1="24.1127" y1="35.4019" x2="28.9622" y2="35.4019" gradientUnits="userSpaceOnUse"><stop stop-color="#83A6FF"/><stop offset="1" stop-color="#5277D7"/></linearGradient><linearGradient id="paint4_linear_2272:142683" x1="41.7139" y1="37.4712" x2="45.1018" y2="37.4712" gradientUnits="userSpaceOnUse"><stop stop-color="#83A6FF"/><stop offset="1" stop-color="#5277D7"/></linearGradient><linearGradient id="paint5_linear_2272:142683" x1="12.8071" y1="24.6883" x2="12.8071" y2="23.3125" gradientUnits="userSpaceOnUse"><stop stop-color="#fff"/><stop offset="1" stop-color="#E2E5EC"/></linearGradient><linearGradient id="paint6_linear_2272:142683" x1="65.7314" y1="2.87503" x2="120.715" y2="2.87503" gradientUnits="userSpaceOnUse"><stop stop-color="#BDCDF4"/><stop offset="1" stop-color="#6E88FF" stop-opacity="0"/></linearGradient><linearGradient id="paint7_linear_2272:142683" x1="112.628" y1="24.227" x2="115.551" y2="24.227" gradientUnits="userSpaceOnUse"><stop stop-color="#83A6FF"/><stop offset="1" stop-color="#5277D7"/></linearGradient><linearGradient id="paint8_linear_2272:142683" x1="88.851" y1="28.499" x2="93.7004" y2="28.499" gradientUnits="userSpaceOnUse"><stop stop-color="#83A6FF"/><stop offset="1" stop-color="#5277D7"/></linearGradient><linearGradient id="paint9_linear_2272:142683" x1="106.452" y1="30.5684" x2="109.84" y2="30.5684" gradientUnits="userSpaceOnUse"><stop stop-color="#83A6FF"/><stop offset="1" stop-color="#5277D7"/></linearGradient><linearGradient id="paint10_linear_2272:142683" x1="77.7575" y1="16.3886" x2="77.7575" y2="15.4593" gradientUnits="userSpaceOnUse"><stop stop-color="#fff"/><stop offset="1" stop-color="#E2E5EC"/></linearGradient><filter id="filter0_d_2272:142683" x="69.916" y="71.251" width="48.2734" height="48.3179" filterUnits="userSpaceOnUse" color-interpolation-filters="sRGB"><feFlood flood-opacity="0" result="BackgroundImageFix"/><feColorMatrix in="SourceAlpha" values="0 0 0 0 0 0 0 0 0 0 0 0 0 0 0 0 0 0 127 0" result="hardAlpha"/><feOffset dy="5"/><feGaussianBlur stdDeviation="4"/><feColorMatrix values="0 0 0 0 0.1125 0 0 0 0 0.295916 0 0 0 0 1 0 0 0 0.22 0"/><feBlend in2="BackgroundImageFix" result="effect1_dropShadow_2272:142683"/><feBlend in="SourceGraphic" in2="effect1_dropShadow_2272:142683" result="shape"/></filter><filter id="filter1_d_2272:142683" x="39.8887" y="27.6621" width="18.9219" height="16.9336" filterUnits="userSpaceOnUse" color-interpolation-filters="sRGB"><feFlood flood-opacity="0" result="BackgroundImageFix"/><feColorMatrix in="SourceAlpha" values="0 0 0 0 0 0 0 0 0 0 0 0 0 0 0 0 0 0 127 0" result="hardAlpha"/><feOffset dy="5"/><feGaussianBlur stdDeviation="4"/><feColorMatrix values="0 0 0 0 0.1125 0 0 0 0 0.295916 0 0 0 0 1 0 0 0 0.22 0"/><feBlend in2="BackgroundImageFix" result="effect1_dropShadow_2272:142683"/><feBlend in="SourceGraphic" in2="effect1_dropShadow_2272:142683" result="shape"/></filter><filter id="filter2_d_2272:142683" x="16.1113" y="31.9346" width="20.8477" height="16.9336" filterUnits="userSpaceOnUse" color-interpolation-filters="sRGB"><feFlood flood-opacity="0" result="BackgroundImageFix"/><feColorMatrix in="SourceAlpha" values="0 0 0 0 0 0 0 0 0 0 0 0 0 0 0 0 0 0 127 0" result="hardAlpha"/><feOffset dy="5"/><feGaussianBlur stdDeviation="4"/><feColorMatrix values="0 0 0 0 0.1125 0 0 0 0 0.295916 0 0 0 0 1 0 0 0 0.22 0"/><feBlend in2="BackgroundImageFix" result="effect1_dropShadow_2272:142683"/><feBlend in="SourceGraphic" in2="effect1_dropShadow_2272:142683" result="shape"/></filter><filter id="filter3_d_2272:142683" x="33.7129" y="34.0039" width="19.3867" height="16.9336" filterUnits="userSpaceOnUse" color-interpolation-filters="sRGB"><feFlood flood-opacity="0" result="BackgroundImageFix"/><feColorMatrix in="SourceAlpha" values="0 0 0 0 0 0 0 0 0 0 0 0 0 0 0 0 0 0 127 0" result="hardAlpha"/><feOffset dy="5"/><feGaussianBlur stdDeviation="4"/><feColorMatrix values="0 0 0 0 0.1125 0 0 0 0 0.295916 0 0 0 0 1 0 0 0 0.22 0"/><feBlend in2="BackgroundImageFix" result="effect1_dropShadow_2272:142683"/><feBlend in="SourceGraphic" in2="effect1_dropShadow_2272:142683" result="shape"/></filter><filter id="filter4_d_2272:142683" x="104.627" y="20.7598" width="18.9219" height="16.9336" filterUnits="userSpaceOnUse" color-interpolation-filters="sRGB"><feFlood flood-opacity="0" result="BackgroundImageFix"/><feColorMatrix in="SourceAlpha" values="0 0 0 0 0 0 0 0 0 0 0 0 0 0 0 0 0 0 127 0" result="hardAlpha"/><feOffset dy="5"/><feGaussianBlur stdDeviation="4"/><feColorMatrix values="0 0 0 0 0.1125 0 0 0 0 0.295916 0 0 0 0 1 0 0 0 0.22 0"/><feBlend in2="BackgroundImageFix" result="effect1_dropShadow_2272:142683"/><feBlend in="SourceGraphic" in2="effect1_dropShadow_2272:142683" result="shape"/></filter><filter id="filter5_d_2272:142683" x="80.8496" y="25.0317" width="20.8477" height="16.9336" filterUnits="userSpaceOnUse" color-interpolation-filters="sRGB"><feFlood flood-opacity="0" result="BackgroundImageFix"/><feColorMatrix in="SourceAlpha" values="0 0 0 0 0 0 0 0 0 0 0 0 0 0 0 0 0 0 127 0" result="hardAlpha"/><feOffset dy="5"/><feGaussianBlur stdDeviation="4"/><feColorMatrix values="0 0 0 0 0.1125 0 0 0 0 0.295916 0 0 0 0 1 0 0 0 0.22 0"/><feBlend in2="BackgroundImageFix" result="effect1_dropShadow_2272:142683"/><feBlend in="SourceGraphic" in2="effect1_dropShadow_2272:142683" result="shape"/></filter><filter id="filter6_d_2272:142683" x="98.4512" y="27.1011" width="19.3867" height="16.9336" filterUnits="userSpaceOnUse" color-interpolation-filters="sRGB"><feFlood flood-opacity="0" result="BackgroundImageFix"/><feColorMatrix in="SourceAlpha" values="0 0 0 0 0 0 0 0 0 0 0 0 0 0 0 0 0 0 127 0" result="hardAlpha"/><feOffset dy="5"/><feGaussianBlur stdDeviation="4"/><feColorMatrix values="0 0 0 0 0.1125 0 0 0 0 0.295916 0 0 0 0 1 0 0 0 0.22 0"/><feBlend in2="BackgroundImageFix" result="effect1_dropShadow_2272:142683"/><feBlend in="SourceGraphic" in2="effect1_dropShadow_2272:142683" result="shape"/></filter></defs></svg>