<svg width="16" height="16" viewBox="0 0 16 16" fill="none" xmlns="http://www.w3.org/2000/svg">
<path d="M2.62583 6.49656C2.98023 5.18242 3.77061 4.02606 4.86761 3.21675C5.96461 2.40744 7.30325 1.99311 8.66443 2.04157C10.0256 2.09004 11.3287 2.59844 12.3604 3.48355C13.3922 4.36866 14.0914 5.57806 14.3437 6.9138C14.5961 8.24954 14.3865 9.63251 13.7494 10.8363C13.1123 12.0402 12.0853 12.9936 10.8366 13.5405C9.58788 14.0874 8.19139 14.1955 6.87567 13.8469C5.55996 13.4984 4.40295 12.714 3.59404 11.622M2.62583 6.49656L1.33333 4.33317M2.62583 6.49656L4.96802 6.00182" stroke="#64748B" stroke-linecap="round" stroke-linejoin="round"/>
<path d="M8.30009 5.39974V8.39975L10.3001 10.3997" stroke="#64748B" stroke-linecap="round" stroke-linejoin="round"/>
</svg>
