<svg width="16" height="16" viewBox="0 0 16 16" fill="none" xmlns="http://www.w3.org/2000/svg">
<g clip-path="url(#clip0_2129_2557)">
<path fill-rule="evenodd" clip-rule="evenodd" d="M3 2H13C13.5523 2 14 2.44772 14 3C14 3.55228 13.5523 4 13 4H3C2.44772 4 2 3.55228 2 3C2 2.44772 2.44772 2 3 2ZM1 3C1 1.89543 1.89543 1 3 1H13C14.1046 1 15 1.89543 15 3C15 4.10457 14.1046 5 13 5H3C1.89543 5 1 4.10457 1 3ZM9 7H13C13.5523 7 14 7.44772 14 8C14 8.55228 13.5523 9 13 9H9C8.44772 9 8 8.55228 8 8C8 7.44772 8.44772 7 9 7ZM9 10C8.06808 10 7.28503 9.36261 7.06301 8.5H3.625C3.27982 8.5 3 8.27614 3 8C3 7.72386 3.27982 7.5 3.625 7.5H7.06301C7.28503 6.63739 8.06808 6 9 6H13C14.1046 6 15 6.89543 15 8C15 9.10457 14.1046 10 13 10H9ZM9 12H13C13.5523 12 14 12.4477 14 13C14 13.5523 13.5523 14 13 14H9C8.44772 14 8 13.5523 8 13C8 12.4477 8.44772 12 9 12ZM7 13C7 11.8954 7.89543 11 9 11H13C14.1046 11 15 11.8954 15 13C15 14.1046 14.1046 15 13 15H9C7.89543 15 7 14.1046 7 13Z" fill="#5277D7"/>
<path d="M3.5 4.5V11C3.5 12.1046 4.39543 13 5.5 13H7.5" stroke="#5277D7"/>
<circle cx="13" cy="13" r="3.5" fill="#00A680" stroke="white"/>
</g>
<defs>
<clipPath id="clip0_2129_2557">
<rect width="16" height="16" fill="white"/>
</clipPath>
</defs>
</svg>
