<svg  viewBox="0 0 16 16" fill="none" xmlns="http://www.w3.org/2000/svg">
<path d="M7.1914 5.14203V8.04143H8.6914V5.14203H7.1914ZM7.1914 8.04143V10.9408H8.6914V8.04143H7.1914ZM7.9414 8.79143H11.9118V7.29143H7.9414V8.79143ZM12.1618 9.04143V10.9408H13.6618V9.04143H12.1618ZM7.9414 7.29143H3.97099V8.79143H7.9414V7.29143ZM2.22099 9.04143V10.9408H3.72099V9.04143H2.22099ZM3.97099 7.29143C3.00449 7.29143 2.22099 8.07494 2.22099 9.04143H3.72099C3.72099 8.90336 3.83292 8.79143 3.97099 8.79143V7.29143ZM11.9118 8.79143C12.0499 8.79143 12.1618 8.90336 12.1618 9.04143H13.6618C13.6618 8.07494 12.8783 7.29143 11.9118 7.29143V8.79143Z" fill="#5277D7"/>
<rect x="0.899986" y="10.858" width="4.14201" height="4.14201" rx="1" fill="#5277D7" fill-opacity="0.35"/>
<rect x="5.87039" y="10.858" width="4.14201" height="4.14201" rx="1" fill="#5277D7" fill-opacity="0.35"/>
<rect x="10.8408" y="10.858" width="4.14201" height="4.14201" rx="1" fill="#5277D7" fill-opacity="0.35"/>
<rect x="5.8708" y="1" width="4.14201" height="4.14201" rx="1" fill="#5277D7" fill-opacity="0.35"/>
</svg>
