<svg width="16" height="16" viewBox="0 0 16 16" fill="none" xmlns="http://www.w3.org/2000/svg">
<path fill-rule="evenodd" clip-rule="evenodd" d="M3.00024 2.00003H13.0002C13.5525 2.00003 14.0002 2.44775 14.0002 3.00003C14.0002 3.55232 13.5525 4.00003 13.0002 4.00003H3.00024C2.44796 4.00003 2.00024 3.55232 2.00024 3.00003C2.00024 2.44775 2.44796 2.00003 3.00024 2.00003ZM1.00024 3.00003C1.00024 1.89546 1.89567 1.00003 3.00024 1.00003H13.0002C14.1048 1.00003 15.0002 1.89546 15.0002 3.00003C15.0002 4.1046 14.1048 5.00003 13.0002 5.00003H3.00024C1.89567 5.00003 1.00024 4.1046 1.00024 3.00003ZM9.00024 7.00003H13.0002C13.5525 7.00003 14.0002 7.44775 14.0002 8.00003C14.0002 8.55232 13.5525 9.00003 13.0002 9.00003H9.00024C8.44796 9.00003 8.00024 8.55232 8.00024 8.00003C8.00024 7.44775 8.44796 7.00003 9.00024 7.00003ZM9.00024 10C8.06832 10 7.28527 9.36264 7.06325 8.50003H3.62524C3.28007 8.50003 3.00024 8.27617 3.00024 8.00003C3.00024 7.72389 3.28007 7.50003 3.62524 7.50003H7.06325C7.28527 6.63742 8.06832 6.00003 9.00024 6.00003H13.0002C14.1048 6.00003 15.0002 6.89546 15.0002 8.00003C15.0002 9.1046 14.1048 10 13.0002 10H9.00024ZM9.00024 12H13.0002C13.5525 12 14.0002 12.4477 14.0002 13C14.0002 13.5523 13.5525 14 13.0002 14H9.00024C8.44796 14 8.00024 13.5523 8.00024 13C8.00024 12.4477 8.44796 12 9.00024 12ZM7.00024 13C7.00024 11.8955 7.89567 11 9.00024 11H13.0002C14.1048 11 15.0002 11.8955 15.0002 13C15.0002 14.1046 14.1048 15 13.0002 15H9.00024C7.89567 15 7.00024 14.1046 7.00024 13Z" fill="#5277D7"/>
<path d="M3.50024 4.50003V11C3.50024 12.1046 4.39567 13 5.50024 13H7.50024" stroke="#5277D7"/>
</svg>
