<svg  viewBox="0 0 16 16" fill="none" xmlns="http://www.w3.org/2000/svg">
<path d="M8.15 9.3V9.8H8.65H9.3C9.33978 9.8 9.37793 9.8158 9.40607 9.84393C9.4342 9.87206 9.45 9.91022 9.45 9.95C9.45 9.98978 9.4342 10.0279 9.40607 10.0561C9.37794 10.0842 9.33978 10.1 9.3 10.1H6.7C6.66022 10.1 6.62206 10.0842 6.59393 10.0561C6.5658 10.0279 6.55 9.98978 6.55 9.95C6.55 9.91022 6.5658 9.87206 6.59393 9.84393C6.62207 9.8158 6.66022 9.8 6.7 9.8H7.35H7.85V9.3V2.15C7.85 2.11022 7.8658 2.07206 7.89393 2.04393C7.92206 2.0158 7.96022 2 8 2C8.03978 2 8.07794 2.0158 8.10607 2.04393C8.1342 2.07206 8.15 2.11022 8.15 2.15V9.3ZM12.7 6.7V7.2H13.2H13.85C13.8898 7.2 13.9279 7.2158 13.9561 7.24393C13.9842 7.27206 14 7.31022 14 7.35C14 7.38978 13.9842 7.42794 13.9561 7.45607C13.9279 7.4842 13.8898 7.5 13.85 7.5H11.25C11.2102 7.5 11.1721 7.4842 11.1439 7.45607C11.1158 7.42794 11.1 7.38978 11.1 7.35C11.1 7.31022 11.1158 7.27206 11.1439 7.24393C11.1721 7.2158 11.2102 7.2 11.25 7.2H11.9H12.4V6.7V2.15C12.4 2.11022 12.4158 2.07206 12.4439 2.04393C12.4721 2.0158 12.5102 2 12.55 2C12.5898 2 12.6279 2.0158 12.6561 2.04393C12.6842 2.07206 12.7 2.11022 12.7 2.15V6.7ZM3.6 4.1V4.6H4.1H4.75C4.78978 4.6 4.82793 4.6158 4.85607 4.64393C4.8842 4.67207 4.9 4.71022 4.9 4.75C4.9 4.78978 4.8842 4.82793 4.85607 4.85607C4.82793 4.8842 4.78978 4.9 4.75 4.9H2.15C2.11022 4.9 2.07206 4.8842 2.04393 4.85607C2.0158 4.82793 2 4.78978 2 4.75C2 4.71022 2.0158 4.67206 2.04393 4.64393C2.07206 4.6158 2.11022 4.6 2.15 4.6H2.8H3.3V4.1V2.15C3.3 2.11022 3.3158 2.07206 3.34393 2.04393C3.37206 2.0158 3.41022 2 3.45 2C3.48978 2 3.52794 2.0158 3.55607 2.04393C3.5842 2.07206 3.6 2.11022 3.6 2.15V4.1ZM3.34393 7.24393C3.37206 7.2158 3.41022 7.2 3.45 7.2C3.48978 7.2 3.52794 7.2158 3.55607 7.24393C3.5842 7.27206 3.6 7.31022 3.6 7.35V13.85C3.6 13.8898 3.5842 13.9279 3.55607 13.9561C3.52794 13.9842 3.48978 14 3.45 14C3.41022 14 3.37206 13.9842 3.34393 13.9561C3.3158 13.9279 3.3 13.8898 3.3 13.85V7.35C3.3 7.31022 3.3158 7.27206 3.34393 7.24393ZM7.89393 12.4439C7.92206 12.4158 7.96022 12.4 8 12.4C8.03978 12.4 8.07794 12.4158 8.10607 12.4439C8.1342 12.4721 8.15 12.5102 8.15 12.55V13.85C8.15 13.8898 8.1342 13.9279 8.10607 13.9561C8.07794 13.9842 8.03978 14 8 14C7.96022 14 7.92206 13.9842 7.89393 13.9561C7.8658 13.9279 7.85 13.8898 7.85 13.85V12.55C7.85 12.5102 7.8658 12.4721 7.89393 12.4439ZM12.4439 9.84393C12.4721 9.8158 12.5102 9.8 12.55 9.8C12.5898 9.8 12.6279 9.8158 12.6561 9.84393C12.6842 9.87206 12.7 9.91022 12.7 9.95V13.85C12.7 13.8898 12.6842 13.9279 12.6561 13.9561C12.6279 13.9842 12.5898 14 12.55 14C12.5102 14 12.4721 13.9842 12.4439 13.9561C12.4158 13.9279 12.4 13.8898 12.4 13.85V9.95C12.4 9.91022 12.4158 9.87206 12.4439 9.84393Z" stroke="currentColor"/>
</svg>
