<svg width="16" height="16" viewBox="0 0 16 16" fill="none" xmlns="http://www.w3.org/2000/svg">
<path d="M8 10C9.10457 10 10 9.10457 10 8C10 6.89543 9.10457 6 8 6C6.89543 6 6 6.89543 6 8C6 9.10457 6.89543 10 8 10Z" stroke="currentColor" stroke-linecap="round" stroke-linejoin="round"/>
<path d="M12.0035 5.13194C12.14 5.34236 12.2612 5.56326 12.3662 5.79276L13.8628 6.66517C14.0451 7.54432 14.0457 8.4543 13.8646 9.33373L12.3672 10.2066C12.2619 10.4359 12.1403 10.6566 12.0035 10.8668L12.0323 12.6641C11.3984 13.2694 10.6482 13.725 9.83233 14L8.36368 13.0747C8.12189 13.0936 7.87909 13.0934 7.63733 13.0741L6.16949 13.9989C5.35326 13.7251 4.60245 13.2707 3.96768 12.6663L3.99651 10.8681C3.86003 10.6576 3.73879 10.4367 3.63383 10.2072L2.13719 9.33483C1.95489 8.45568 1.95427 7.5457 2.13535 6.66627L3.63283 5.79338C3.73814 5.56406 3.8597 5.34336 3.9965 5.13316L3.96769 3.33595C4.60162 2.7306 5.35181 2.27504 6.16766 2L7.63632 2.92532C7.8781 2.90642 8.1209 2.90662 8.36266 2.92592L9.8305 2.00112C10.6467 2.27492 11.3975 2.72934 12.0323 3.33373L12.0035 5.13194Z" stroke="currentColor" stroke-linecap="round" stroke-linejoin="round"/>
</svg>
