<svg viewBox="0 0 16 16" fill="none" xmlns="http://www.w3.org/2000/svg">
<path fill-rule="evenodd" clip-rule="evenodd" d="M2.06681 4.69789C1.99165 6.01853 1.99806 9.51575 3.89053 11.8813C6.26413 14.8483 8.04434 14.8484 8.04437 14.8484C8.0444 14.8484 9.82461 14.8483 12.1982 11.8813C14.0907 9.51575 14.0971 6.01853 14.0219 4.69789C14.0029 4.36408 13.7988 4.07724 13.4998 3.92771L8.49159 1.42363C8.21006 1.28286 7.87869 1.28286 7.59716 1.42363L2.58899 3.92771C2.28993 4.07724 2.08581 4.36408 2.06681 4.69789ZM11.5846 6.92943C11.8648 6.62433 11.8446 6.14989 11.5395 5.86973C11.2344 5.58957 10.7599 5.60979 10.4798 5.91489L7.52178 9.13621L6.08242 7.69685C5.78953 7.40396 5.31466 7.40396 5.02176 7.69685C4.72887 7.98975 4.72887 8.46462 5.02176 8.75751L7.01453 10.7503C7.1591 10.8949 7.35643 10.9741 7.56083 10.9698C7.76524 10.9654 7.95901 10.8778 8.09729 10.7272L11.5846 6.92943Z" fill="currentColor"/>
</svg>
