<svg viewBox="0 0 16 16" fill="none" xmlns="http://www.w3.org/2000/svg">
    <path
        d="M2.06683 4.69789L2.56602 4.7263L2.06683 4.69789ZM3.89054 11.8813L3.50011 12.1937L3.89054 11.8813ZM12.1982 11.8813L12.5887 12.1937L12.1982 11.8813ZM14.0219 4.69789L14.5211 4.66948V4.66948L14.0219 4.69789ZM13.4998 3.92771L13.7234 3.4805V3.4805L13.4998 3.92771ZM8.4916 1.42363L8.71521 0.976413L8.4916 1.42363ZM7.59717 1.42363L7.37357 0.976413V0.976413L7.59717 1.42363ZM2.589 3.92771L2.81261 4.37493H2.81261L2.589 3.92771ZM1.56763 4.66948C1.52877 5.3523 1.51071 6.59735 1.748 7.9822C1.98462 9.3631 2.48143 10.9203 3.50011 12.1937L4.28098 11.569C3.40719 10.4768 2.95456 9.10259 2.73364 7.81331C2.5134 6.528 2.52972 5.36412 2.56602 4.7263L1.56763 4.66948ZM3.50011 12.1937C5.96126 15.2701 7.8811 15.3484 8.04439 15.3484V14.3484C8.20762 14.3484 6.56703 14.4266 4.28098 11.569L3.50011 12.1937ZM8.04439 15.3484C8.20767 15.3484 10.1275 15.2701 12.5887 12.1937L11.8078 11.569C9.52174 14.4266 7.88116 14.3484 8.04439 14.3484V15.3484ZM12.5887 12.1937C13.6074 10.9203 14.1042 9.36309 14.3408 7.9822C14.5781 6.59735 14.56 5.3523 14.5211 4.66948L13.5228 4.7263C13.5591 5.36412 13.5754 6.528 13.3551 7.81331C13.1342 9.10259 12.6816 10.4768 11.8078 11.569L12.5887 12.1937ZM13.7234 3.4805L8.71521 0.976413L8.26799 1.87084L13.2762 4.37493L13.7234 3.4805ZM7.37357 0.976413L2.3654 3.4805L2.81261 4.37493L7.82078 1.87084L7.37357 0.976413ZM2.56602 4.7263C2.57397 4.58653 2.65979 4.45134 2.81261 4.37493L2.3654 3.4805C1.92011 3.70314 1.59768 4.14163 1.56763 4.66948L2.56602 4.7263ZM8.71521 0.976413C8.29292 0.765268 7.79586 0.765268 7.37357 0.976413L7.82078 1.87084C7.96154 1.80046 8.12723 1.80046 8.26799 1.87084L8.71521 0.976413ZM14.5211 4.66948C14.4911 4.14163 14.1687 3.70314 13.7234 3.4805L13.2762 4.37493C13.429 4.45134 13.5148 4.58653 13.5228 4.72631L14.5211 4.66948ZM8.04439 15.3484C8.04439 15.3484 8.04439 15.3484 8.04439 15.3484C8.04439 14.8484 8.04439 14.3484 8.04439 14.3484H8.04439C8.04439 14.3484 8.04439 14.3484 8.04439 14.3484C8.04439 14.3484 8.04439 14.8484 8.04439 15.3484C8.04439 15.3484 8.04439 15.3484 8.04439 15.3484V14.3484C8.04439 14.3484 8.04439 14.3484 8.04439 14.3484C8.04439 14.8484 8.04439 15.3484 8.04439 15.3484C8.04439 15.3484 8.04439 15.3484 8.04439 15.3484H8.04439C8.04439 15.3484 8.04439 14.8484 8.04439 14.3484C8.04439 14.3484 8.04439 14.3484 8.04439 14.3484V15.3484Z"
        fill="currentColor" />
    <path
        d="M5.90566 7.87365C5.7104 7.67839 5.39382 7.67839 5.19856 7.87365C5.00329 8.06891 5.00329 8.3855 5.19856 8.58076L5.90566 7.87365ZM7.54488 10.22L7.19133 10.5735C7.28771 10.6699 7.41925 10.7228 7.55552 10.7199C7.6918 10.717 7.82098 10.6586 7.91316 10.5582L7.54488 10.22ZM11.4005 6.76036C11.5873 6.55696 11.5738 6.24067 11.3704 6.05389C11.167 5.86712 10.8507 5.8806 10.6639 6.084L11.4005 6.76036ZM5.19856 8.58076L7.19133 10.5735L7.89843 9.86642L5.90566 7.87365L5.19856 8.58076ZM7.91316 10.5582L11.4005 6.76036L10.6639 6.084L7.17659 9.88179L7.91316 10.5582Z"
        fill="currentColor" />
</svg>