<svg width="16" height="16" viewBox="0 0 16 16" fill="none" xmlns="http://www.w3.org/2000/svg">
<path d="M2.02244 4.61421L2.52163 4.64263L2.02244 4.61421ZM3.84616 11.7977L3.45572 12.11V12.11L3.84616 11.7977ZM12.1538 11.7977L12.5443 12.11L12.1538 11.7977ZM13.9776 4.61421L14.4768 4.5858V4.5858L13.9776 4.61421ZM13.4554 3.84403L13.679 3.39682V3.39682L13.4554 3.84403ZM8.44721 1.33995L8.67082 0.892734L8.44721 1.33995ZM7.55279 1.33995L7.32918 0.892734L7.55279 1.33995ZM2.54462 3.84403L2.76822 4.29125H2.76822L2.54462 3.84403ZM1.52325 4.5858C1.48438 5.26862 1.46632 6.51367 1.70362 7.89852C1.94023 9.27942 2.43704 10.8367 3.45572 12.11L4.23659 11.4853C3.3628 10.3931 2.91017 9.01891 2.68925 7.72964C2.46902 6.44433 2.48533 5.28044 2.52163 4.64263L1.52325 4.5858ZM3.45572 12.11C5.91688 15.1865 7.83671 15.2647 8 15.2647V14.2647C8.16323 14.2647 6.52265 14.3429 4.23659 11.4853L3.45572 12.11ZM8 15.2647C8.16329 15.2647 10.0831 15.1865 12.5443 12.11L11.7634 11.4853C9.47736 14.3429 7.83677 14.2647 8 14.2647V15.2647ZM12.5443 12.11C13.563 10.8367 14.0598 9.27942 14.2964 7.89852C14.5337 6.51367 14.5156 5.26862 14.4768 4.5858L13.4784 4.64263C13.5147 5.28044 13.531 6.44433 13.3107 7.72964C13.0898 9.01891 12.6372 10.3931 11.7634 11.4853L12.5443 12.11ZM13.679 3.39682L8.67082 0.892734L8.22361 1.78716L13.2318 4.29125L13.679 3.39682ZM7.32918 0.892734L2.32101 3.39682L2.76822 4.29125L7.77639 1.78716L7.32918 0.892734ZM2.52163 4.64263C2.52959 4.50285 2.6154 4.36766 2.76822 4.29125L2.32101 3.39682C1.87573 3.61946 1.55329 4.05795 1.52325 4.5858L2.52163 4.64263ZM8.67082 0.892734C8.24853 0.681589 7.75147 0.681589 7.32918 0.892734L7.77639 1.78716C7.91716 1.71678 8.08284 1.71678 8.22361 1.78716L8.67082 0.892734ZM14.4768 4.5858C14.4467 4.05795 14.1243 3.61946 13.679 3.39682L13.2318 4.29125C13.3846 4.36766 13.4704 4.50285 13.4784 4.64263L14.4768 4.5858ZM8 15.2647C8 15.2647 8 15.2647 8 15.2647C8 14.7647 8 14.2647 8 14.2647H8C8 14.2647 8 14.2647 8 14.2647C8 14.2647 8 14.7647 8 15.2647C8 15.2647 8 15.2647 8 15.2647V14.2647C8 14.2647 8 14.2647 8 14.2647C8 14.7647 8 15.2647 8 15.2647C8 15.2647 8 15.2647 8 15.2647H8C8 15.2647 8 14.7647 8 14.2647C8 14.2647 8 14.2647 8 14.2647V15.2647Z" fill="#DC5252"/>
</svg>
