<svg viewBox="0 0 16 16" fill="none">
<path fill-rule="evenodd" clip-rule="evenodd" d="M2.06683 4.69789C1.99166 6.01853 1.99807 9.51575 3.89054 11.8813C6.26415 14.8483 8.04436 14.8484 8.04439 14.8484C8.04441 14.8484 9.82463 14.8483 12.1982 11.8813C14.0907 9.51575 14.0971 6.01853 14.0219 4.69789C14.0029 4.36408 13.7988 4.07724 13.4998 3.92771L8.4916 1.42363C8.21007 1.28286 7.8787 1.28286 7.59717 1.42363L2.589 3.92771C2.28995 4.07724 2.08583 4.36408 2.06683 4.69789ZM11.5847 6.92943C11.8648 6.62433 11.8446 6.14989 11.5395 5.86973C11.2344 5.58957 10.76 5.60979 10.4798 5.91489L7.5218 9.13621L6.08244 7.69685C5.78955 7.40396 5.31467 7.40396 5.02178 7.69685C4.72889 7.98975 4.72889 8.46462 5.02178 8.75751L7.01455 10.7503C7.15912 10.8949 7.35644 10.9741 7.56085 10.9698C7.76525 10.9654 7.95902 10.8778 8.09731 10.7272L11.5847 6.92943Z" fill="currentColor"/>
</svg>
