<svg width="24" height="24" viewBox="0 0 24 24" fill="none" xmlns="http://www.w3.org/2000/svg">
<path fill-rule="evenodd" clip-rule="evenodd" d="M12.477 3.69092C11.4457 3.25853 10.3265 3.05498 9.20307 3.0944C8.07959 3.13383 6.97865 3.41529 5.98278 3.9192C4.98681 4.42316 4.12047 5.13726 3.45086 6.0103C2.78112 6.8835 2.32602 7.89259 2.12241 8.9622C1.91879 10.0319 1.97254 11.1317 2.27921 12.1781C2.58585 13.2244 3.13667 14.1877 3.88743 14.9969C4.16917 15.3005 4.64372 15.3182 4.94735 15.0365C5.25099 14.7548 5.26874 14.2802 4.987 13.9766C4.39135 13.3346 3.95867 12.5752 3.71867 11.7562C3.4787 10.9375 3.43688 10.0784 3.59596 9.24269C3.75505 8.4069 4.11148 7.61368 4.64108 6.92319C5.17081 6.23252 5.86041 5.66221 6.66002 5.25761C7.45972 4.85296 8.34727 4.62536 9.25567 4.59348C10.0099 4.56702 10.7605 4.6761 11.4684 4.91297L14.7105 7.51571C14.953 7.93201 15.1394 8.3763 15.2648 8.83822C15.3535 9.16494 15.65 9.39173 15.9886 9.39173L17.0474 9.39173L14.7105 7.51571C14.7104 7.51555 14.7103 7.51538 14.7102 7.51522L17.0479 9.39173C17.8241 9.39232 18.5741 9.63926 19.1796 10.0878C19.7846 10.5361 20.209 11.1581 20.3942 11.8513C20.5793 12.5439 20.5174 13.2755 20.2163 13.9332C19.9148 14.5916 19.3881 15.1433 18.7116 15.4945C18.344 15.6854 18.2007 16.1381 18.3916 16.5058C18.5824 16.8734 19.0352 17.0167 19.4028 16.8258C20.3663 16.3255 21.135 15.5298 21.5801 14.5577C22.0257 13.5847 22.119 12.4954 21.8433 11.464C21.5679 10.4333 20.9418 9.52657 20.0725 8.88258C19.2039 8.23902 18.1398 7.89242 17.0484 7.89173H17.0479H16.5369C16.2314 7.05179 15.7648 6.27347 15.1609 5.59693C14.4265 4.77414 13.5083 4.12334 12.477 3.69092ZM14.7102 7.51522L11.4686 4.91305C11.6133 4.96147 11.7562 5.01522 11.897 5.07425C12.7265 5.42208 13.4593 5.94316 14.0418 6.59578C14.2972 6.88188 14.5208 7.19001 14.7102 7.51522ZM11.4686 4.91305L9.20307 3.0944L11.4684 4.91297C11.4685 4.913 11.4685 4.91302 11.4686 4.91305ZM16.5488 13.7092V13.7527C16.7288 13.992 16.8597 14.2697 16.9328 14.5675C17.0059 14.8653 17.0195 15.1764 16.9729 15.4804L16.3805 19.1099C16.2973 19.6199 16.0484 20.0812 15.6783 20.4111C15.3082 20.7411 14.8412 20.918 14.361 20.9102H9.01614C8.72226 20.9094 8.43206 20.8396 8.16581 20.7054C7.89956 20.5713 7.66367 20.3761 7.4746 20.1334C7.28455 19.89 7.14627 19.6046 7.06952 19.2973C6.99276 18.9901 6.97938 18.6684 7.03032 18.355L7.6227 14.7254C7.6921 14.2309 7.92091 13.7785 8.26893 13.4478C8.64155 13.097 9.12062 12.9059 9.61525 12.9107H14.9534C15.258 12.9054 15.5597 12.9745 15.8359 13.1128C16.1122 13.2511 16.3559 13.455 16.5488 13.7092ZM12.4156 16.366L14.7043 14.3625H9.91817L11.4866 16.2789C11.6011 16.4199 11.7617 16.5077 11.9349 16.524C12.108 16.5402 12.2803 16.4836 12.4156 16.366ZM14.794 19.2766C14.9174 19.1661 15.0002 19.0118 15.0275 18.8413L15.5794 15.4513L13.2638 17.4911C12.8586 17.8448 12.3424 18.0159 11.8229 17.9685C11.3035 17.9212 10.8212 17.6591 10.4769 17.2371L8.89497 15.3062L8.35644 18.5945C8.34014 18.6982 8.34494 18.8045 8.37051 18.9061C8.39608 19.0076 8.44181 19.1019 8.50454 19.1825C8.5671 19.2635 8.64527 19.3288 8.73362 19.374C8.82197 19.4191 8.91838 19.4429 9.01614 19.4438H14.3543C14.5147 19.4463 14.6706 19.387 14.794 19.2766Z" fill="currentColor"/>
</svg>
