<svg width="16" height="16" viewBox="0 0 16 16" fill="none" xmlns="http://www.w3.org/2000/svg">
<path fill-rule="evenodd" clip-rule="evenodd" d="M1.1417 5.20646C0.949094 5.40434 0.953375 5.7209 1.15126 5.9135C1.34914 6.1061 1.6657 6.10182 1.8583 5.90394L3.97367 3.73057V10.5C3.97367 10.7761 4.19753 11 4.47367 11C4.74981 11 4.97367 10.7761 4.97367 10.5V3.73057L7.08903 5.90394C7.28164 6.10182 7.59819 6.1061 7.79608 5.9135C7.99396 5.7209 7.99824 5.40434 7.80564 5.20646L4.83197 2.15126C4.73784 2.05455 4.60862 2 4.47367 2C4.33872 2 4.20949 2.05455 4.11537 2.15126L1.1417 5.20646ZM14.8579 10.7922C15.0505 10.5943 15.0462 10.2778 14.8483 10.0852C14.6504 9.89259 14.3339 9.89687 14.1413 10.0948L12.0259 12.2681V5.50001C12.0259 5.22386 11.802 5.00001 11.5259 5.00001C11.2498 5.00001 11.0259 5.22386 11.0259 5.50001V12.2681L8.91054 10.0948C8.71794 9.89687 8.40138 9.89259 8.2035 10.0852C8.00561 10.2778 8.00133 10.5943 8.19394 10.7922L11.1676 13.8474C11.2617 13.9441 11.391 13.9987 11.5259 13.9987C11.6609 13.9987 11.7901 13.9441 11.8842 13.8474L14.8579 10.7922Z" fill="currentColor"/>
</svg>
