<svg width="24" height="24" viewBox="0 0 24 24" fill="none" xmlns="http://www.w3.org/2000/svg">
<path fill-rule="evenodd" clip-rule="evenodd" d="M12.477 3.60913C11.4457 3.17675 10.3265 2.97319 9.20307 3.01262C8.07959 3.05204 6.97865 3.3335 5.98278 3.83741C4.98681 4.34137 4.12047 5.05547 3.45086 5.92851C2.78112 6.80172 2.32602 7.8108 2.12241 8.88041C1.91879 9.95012 1.97254 11.0499 2.27921 12.0963C2.58585 13.1426 3.13667 14.106 3.88743 14.9151C4.16917 15.2187 4.64372 15.2365 4.94735 14.9547C5.25099 14.673 5.26874 14.1984 4.987 13.8948C4.39135 13.2529 3.95867 12.4934 3.71867 11.6745C3.4787 10.8557 3.43688 9.99659 3.59596 9.1609C3.75505 8.32511 4.11148 7.5319 4.64108 6.8414C5.17081 6.15074 5.86041 5.58043 6.66002 5.17582C7.45972 4.77117 8.34727 4.54357 9.25567 4.51169C10.0099 4.48523 10.7605 4.59431 11.4684 4.83118L14.7105 7.43393C14.953 7.85023 15.1394 8.29452 15.2648 8.75643C15.3535 9.08315 15.65 9.30995 15.9886 9.30995L17.0474 9.30995L14.7105 7.43393C14.7104 7.43376 14.7103 7.4336 14.7102 7.43343L17.0479 9.30995C17.8241 9.31053 18.5741 9.55748 19.1796 10.0061C19.7846 10.4543 20.209 11.0763 20.3942 11.7695C20.5793 12.4621 20.5174 13.1938 20.2163 13.8514C19.9148 14.5098 19.3881 15.0615 18.7116 15.4127C18.344 15.6036 18.2007 16.0564 18.3916 16.424C18.5824 16.7916 19.0352 16.9349 19.4028 16.744C20.3663 16.2437 21.135 15.4481 21.5801 14.4759C22.0257 13.5029 22.119 12.4136 21.8433 11.3822C21.5679 10.3515 20.9418 9.44478 20.0725 8.80079C19.2039 8.15723 18.1398 7.81063 17.0484 7.80995H17.0479H16.5369C16.2314 6.97001 15.7648 6.19169 15.1609 5.51514C14.4265 4.69235 13.5083 4.04156 12.477 3.60913ZM14.7102 7.43343L11.4686 4.83126C11.6133 4.87968 11.7562 4.93343 11.897 4.99246C12.7265 5.34029 13.4593 5.86138 14.0418 6.51399C14.2972 6.80009 14.5208 7.10822 14.7102 7.43343ZM11.4686 4.83126L9.20307 3.01262L11.4684 4.83118C11.4685 4.83121 11.4685 4.83124 11.4686 4.83126ZM17.0453 16.0637C17.0453 18.7856 14.7866 20.9922 12.0003 20.9922C9.21397 20.9922 6.95523 18.7856 6.95523 16.0637C6.95523 13.3417 9.21397 11.1351 12.0003 11.1351C14.7866 11.1351 17.0453 13.3417 17.0453 16.0637ZM11.2401 12.7647C11.592 12.7647 11.636 12.719 11.636 12.3529C11.636 12.1265 11.5915 11.9495 11.537 11.9598C10.8927 12.0816 10.8442 12.1145 10.8442 12.4312C10.8442 12.7102 10.9088 12.7647 11.2401 12.7647ZM14.0862 12.7221C14.1391 12.5786 13.9952 12.4578 13.5913 12.3067L13.4093 12.2383C12.8608 12.0318 12.6178 11.9403 12.5107 12.0287C12.4254 12.0991 12.4261 12.2833 12.4275 12.614C12.4276 12.6575 12.4278 12.7034 12.4278 12.7519C12.4278 13.5363 12.4062 13.5927 12.0279 13.7963C11.6677 13.99 11.6079 13.9904 11.4246 13.7997C11.3128 13.6835 11.0511 13.5882 10.8431 13.5882C10.5148 13.5882 10.4595 13.6457 10.4236 14.0254C10.3877 14.405 10.2565 14.5416 9.42546 15.0648C8.58757 15.5923 8.46866 15.717 8.46866 16.0688C8.46866 16.4571 8.48991 16.4705 9.10107 16.4705C9.67158 16.4705 9.78772 16.528 10.2888 17.0591C10.8267 17.6291 10.8442 17.6756 10.8442 18.5432C10.8442 19.3452 10.8828 19.4772 11.2143 19.8076C11.624 20.2158 12.0782 20.2719 13.0057 20.029C13.5232 19.8935 13.6025 19.8101 13.989 18.9948C14.3892 18.1509 14.3996 18.0885 14.2071 17.701C14.0552 17.3956 13.9117 17.2941 13.6318 17.2941C13.085 17.2941 12.4278 16.5956 12.4278 16.0146C12.4278 15.0616 13.4885 14.5351 14.4099 15.0307C14.785 15.2324 14.8005 15.2273 14.9953 14.8354L15.1954 14.433L14.6196 14.2042C14.0881 13.9931 14.0121 13.9926 13.6318 14.1972L13.2196 14.4187V13.9624C13.2196 13.4544 13.4156 13.1764 13.7739 13.1764C13.9046 13.1764 14.0115 13.1198 14.0115 13.0504C14.0115 12.9811 14.0451 12.8333 14.0862 12.7221Z" fill="currentColor"/>
</svg>
