<svg width="16" height="16" viewBox="0 0 16 16" fill="none" xmlns="http://www.w3.org/2000/svg">
<path d="M7.90446 4.30918C7.9335 4.21521 8.0665 4.21521 8.09554 4.30918L8.88983 6.87954C8.9222 6.98429 9.01904 7.05573 9.12868 7.05573H11.7044C11.8 7.05573 11.8411 7.17713 11.7651 7.23519L9.66644 8.83841C9.58318 8.90201 9.54842 9.01078 9.57935 9.11088L10.3798 11.7011C10.4085 11.7941 10.3009 11.8692 10.2235 11.8101L8.15177 10.2274C8.06217 10.1589 7.93783 10.1589 7.84823 10.2274L5.77648 11.8101C5.69911 11.8692 5.59149 11.7941 5.62023 11.7011L6.42065 9.11088C6.45158 9.01078 6.41682 8.90201 6.33356 8.83841L4.23492 7.23519C4.15891 7.17713 4.19998 7.05573 4.29563 7.05573H6.87132C6.98096 7.05573 7.0778 6.98429 7.11017 6.87954L7.90446 4.30918Z" fill="currentColor"/>
<circle cx="8" cy="8" r="6.5" stroke="currentColor"/>
</svg>
