<svg  viewBox="0 0 16 16" fill="none" xmlns="http://www.w3.org/2000/svg">
<path d="M14.5 7.5H12.58C12.2948 7.5 12.0216 7.60353 11.82 7.8C11.6184 7.99647 11.5 8.26215 11.5 8.54V11.4524C11.5 11.7302 11.6184 11.9967 11.82 12.1932C12.0216 12.3896 12.2948 12.5 12.58 12.5H13.4248C13.71 12.5 13.9835 12.3896 14.1851 12.1932C14.3867 11.9967 14.5 11.7302 14.5 11.4524V7.5ZM14.5 7.5C14.5 6.67054 14.3315 6.13499 14.0042 5.36927C13.677 4.60355 13.1974 3.90852 12.5932 3.32423C11.989 2.73994 11.272 2.27795 10.4837 1.96489C9.69538 1.65183 8.85126 1.49389 8 1.50018C7.14874 1.49389 6.30462 1.65183 5.5163 1.96489C4.72797 2.27795 4.01103 2.73994 3.40681 3.32423C2.80258 3.90852 2.32301 4.60355 1.99575 5.36927C1.66849 6.13499 1.5 6.67054 1.5 7.5M1.5 7.5V11.4524C1.5 11.7302 1.61328 11.9967 1.81491 12.1932C2.01655 12.3896 2.29003 12.5 2.57518 12.5H3.42C3.70516 12.5 3.97836 12.3896 4.18 12.1932C4.38164 11.9967 4.5 11.7302 4.5 11.4524V8.54C4.5 8.26215 4.38164 7.99647 4.18 7.8C3.97836 7.60353 3.70516 7.5 3.42 7.5H2.57518H1.5Z" stroke="currentColor" stroke-linecap="round" stroke-linejoin="round"/>
<path d="M14.5 11V12.5C14.5 13.0304 14.3803 13.5391 14.0052 13.9142C13.6301 14.2893 13.1214 14.5 12.591 14.5H8.5" stroke="currentColor" stroke-linecap="round" stroke-linejoin="round"/>
</svg>
