<svg
    width="16"
    height="16"
    viewBox="0 0 16 16"
    fill="none"
    xmlns="http://www.w3.org/2000/svg"
>
    <rect x="1.5" y="2.5" width="13" height="11" rx="1.5" stroke="#3C71DF" />
    <line x1="14" y1="6.5" x2="2" y2="6.5" stroke="#3C71DF" />
    <line x1="8.04541" y1="13" x2="8.04541" y2="3" stroke="#3C71DF" />
    <line x1="2" y1="10" x2="14" y2="10" stroke="#3C71DF" />
    <path
        d="M10.2929 10.2929C10.6834 9.90237 11.3166 9.90237 11.7071 10.2929L12.75 11.3358L13.7929 10.2929C14.1834 9.90237 14.8166 9.90237 15.2071 10.2929C15.5976 10.6834 15.5976 11.3166 15.2071 11.7071L14.1642 12.75L15.2071 13.7929C15.5976 14.1834 15.5976 14.8166 15.2071 15.2071C14.8166 15.5976 14.1834 15.5976 13.7929 15.2071L12.75 14.1642L11.7071 15.2071C11.3166 15.5976 10.6834 15.5976 10.2929 15.2071C9.90237 14.8166 9.90237 14.1834 10.2929 13.7929M10.2929 10.2929L10.2929 13.7929M10.2929 10.2929C9.90237 10.6834 9.90237 11.3166 10.2929 11.7071L11.3358 12.75L10.2929 13.7929M10.2929 10.2929L10.2929 13.7929"
        fill="#CF592E"
        stroke="white"
        stroke-linecap="round"
    />
</svg>
