<svg width="16" height="17" viewBox="0 0 16 17" fill="none" xmlns="http://www.w3.org/2000/svg">
<path d="M8 2.50739H13.5C14.0523 2.50739 14.5 2.9551 14.5 3.50739V12.5074C14.5 13.0597 14.0523 13.5074 13.5 13.5074H2.5C1.94772 13.5074 1.5 13.0597 1.5 12.5074V8.50739" stroke="currentColor" stroke-linecap="round"/>
<path d="M14 6.50738L8 6.50739" stroke="currentColor"/>
<path d="M8.00008 13.0074C7.98232 8.90688 8.00008 2.50739 8.00008 2.50739" stroke="currentColor"/>
<line x1="2" y1="10.0074" x2="14" y2="10.0074" stroke="currentColor"/>
<path d="M3.74669 1.02615C4.53985 1.02615 5.30053 1.34123 5.86137 1.90208C6.42222 2.46293 6.73731 3.2236 6.7373 4.01676C6.7373 4.80992 6.42222 5.5706 5.86137 6.13145C5.30052 6.69229 4.53985 7.00738 3.74669 7.00738C3.39981 7.00821 3.05553 6.94746 2.72988 6.82794C2.67642 6.80916 2.62718 6.78002 2.585 6.74218C2.54282 6.70434 2.50853 6.65855 2.48408 6.60743C2.45963 6.55631 2.44551 6.50087 2.44253 6.44428C2.43955 6.38769 2.44776 6.33107 2.46671 6.27767C2.4853 6.22429 2.51452 6.17524 2.55258 6.13345C2.59065 6.09167 2.63678 6.05803 2.6882 6.03456C2.73962 6.01109 2.79526 5.99827 2.85176 5.99687C2.90827 5.99548 2.96447 6.00554 3.01698 6.02646C3.25096 6.11149 3.49774 6.15599 3.74669 6.15804C4.31459 6.15804 4.85923 5.93244 5.2608 5.53088C5.66237 5.12931 5.88797 4.58466 5.88797 4.01676C5.88797 3.44886 5.66237 2.90422 5.2608 2.50265C4.85924 2.10108 4.31459 1.87548 3.74669 1.87548C3.49774 1.87753 3.25096 1.92203 3.01698 2.00707C2.96447 2.02798 2.90827 2.03804 2.85176 2.03665C2.79526 2.03526 2.73962 2.02244 2.6882 1.99896C2.63678 1.97549 2.59065 1.94185 2.55258 1.90007C2.51452 1.85829 2.4853 1.80923 2.46671 1.75586C2.44776 1.70245 2.43955 1.64583 2.44253 1.58924C2.44551 1.53266 2.45963 1.47722 2.48408 1.4261C2.50853 1.37498 2.54283 1.32918 2.585 1.29134C2.62718 1.2535 2.67642 1.22436 2.72988 1.20558C3.05553 1.08607 3.39981 1.02531 3.74669 1.02615Z" fill="currentColor"/>
<path d="M3.22809 3.82542C3.33406 3.92426 3.33406 4.09221 3.22809 4.19105L1.45785 5.84224C1.35917 5.93429 1.20424 5.93208 1.11758 5.82863C0.691796 5.32034 0.455914 4.6764 0.455914 4.00823C0.455914 3.34006 0.691796 2.69613 1.11759 2.18783C1.20425 2.08438 1.35917 2.08217 1.45785 2.17422L3.22809 3.82542Z" fill="currentColor"/>
</svg>
