<svg  viewBox="0 0 24 24" fill="none" xmlns="http://www.w3.org/2000/svg">
<path fill-rule="evenodd" clip-rule="evenodd" d="M12 3.66667H15.3333C18.0948 3.66667 20.3333 5.90524 20.3333 8.66667C20.3333 9.95472 20.1246 11.194 19.7391 12.3526H14.9487C12.913 12.3526 11.2628 14.0028 11.2628 16.0384V20.0434C10.4279 20.2332 9.55899 20.3333 8.66667 20.3333C5.90524 20.3333 3.66667 18.0948 3.66667 15.3333V12C3.66667 10.4241 3.66757 9.32557 3.72623 8.46575C3.78388 7.62089 3.89167 7.12889 4.04727 6.75325C4.55474 5.52811 5.52811 4.55474 6.75325 4.04727C7.12889 3.89167 7.62089 3.78388 8.46575 3.72623C9.32557 3.66757 10.4241 3.66667 12 3.66667ZM2 12C2 8.89372 2 7.34058 2.50747 6.11544C3.1841 4.48192 4.48192 3.1841 6.11544 2.50747C7.34058 2 8.89372 2 12 2H15.3333C19.0152 2 22 4.98477 22 8.66667C22 16.0305 16.0305 22 8.66667 22C4.98477 22 2 19.0152 2 15.3333V12Z" fill="#535B62"/>
<path d="M6.16663 7.83333C6.16663 7.3731 6.53972 7 6.99996 7H15.3333C15.7935 7 16.1666 7.3731 16.1666 7.83333C16.1666 8.29357 15.7935 8.66667 15.3333 8.66667H6.99996C6.53972 8.66667 6.16663 8.29357 6.16663 7.83333Z" fill="#535B62"/>
<path d="M6.16672 11.1666C6.16672 10.7064 6.53981 10.3333 7.00005 10.3333H12.0001C12.4603 10.3333 12.8334 10.7064 12.8334 11.1666C12.8334 11.6269 12.4603 12 12.0001 12H7.00005C6.53981 12 6.16672 11.6269 6.16672 11.1666Z" fill="#535B62"/>
<path d="M6.16663 14.5C6.16663 14.0398 6.53972 13.6667 6.99996 13.6667H8.66663C9.12686 13.6667 9.49996 14.0398 9.49996 14.5C9.49996 14.9603 9.12686 15.3334 8.66663 15.3334H6.99996C6.53972 15.3334 6.16663 14.9603 6.16663 14.5Z" fill="#535B62"/>
</svg>
