<svg viewBox="0 0 16 16" fill="currentColor" xmlns="http://www.w3.org/2000/svg">
<path fill-rule="evenodd" clip-rule="evenodd" d="M8 3H10C11.6569 3 13 4.34315 13 6C13 6.77282 12.8748 7.51639 12.6435 8.21152H9.76922C8.54783 8.21152 7.55769 9.20165 7.55769 10.423V12.8261C7.05675 12.9399 6.5354 13 6 13C4.34315 13 3 11.6569 3 10V8C3 7.05443 3.00054 6.39534 3.03574 5.87945C3.07033 5.37254 3.135 5.07733 3.22836 4.85195C3.53284 4.11687 4.11687 3.53284 4.85195 3.22836C5.07733 3.135 5.37254 3.07033 5.87945 3.03574C6.39534 3.00054 7.05443 3 8 3ZM2 8C2 6.13623 2 5.20435 2.30448 4.46927C2.71046 3.48915 3.48915 2.71046 4.46927 2.30448C5.20435 2 6.13623 2 8 2H10C12.2091 2 14 3.79086 14 6C14 10.4183 10.4183 14 6 14C3.79086 14 2 12.2091 2 10V8Z" fill="currentColor"/>
<path d="M4.49997 5.5C4.49997 5.22386 4.72383 5 4.99997 5H9.99997C10.2761 5 10.5 5.22386 10.5 5.5C10.5 5.77614 10.2761 6 9.99997 6H4.99997C4.72383 6 4.49997 5.77614 4.49997 5.5Z" fill="currentColor"/>
<path d="M4.50003 7.5C4.50003 7.22386 4.72389 7 5.00003 7H8.00003C8.27617 7 8.50003 7.22386 8.50003 7.5C8.50003 7.77614 8.27617 8 8.00003 8H5.00003C4.72389 8 4.50003 7.77614 4.50003 7.5Z" fill="currentColor"/>
<path d="M4.49997 9.5C4.49997 9.22386 4.72383 9 4.99997 9H5.99997C6.27611 9 6.49997 9.22386 6.49997 9.5C6.49997 9.77614 6.27611 10 5.99997 10H4.99997C4.72383 10 4.49997 9.77614 4.49997 9.5Z" fill="currentColor"/>
<circle cx="12" cy="12" r="3.5" fill="#CF592E" stroke="white"/>
</svg>
