<svg  viewBox="0 0 16 16" fill="none" xmlns="http://www.w3.org/2000/svg">
<path d="M2.5 3.5C2.5 2.39543 3.39543 1.5 4.5 1.5H7.59688C8.50516 1.5 9.3864 1.80912 10.0957 2.37652L10.8059 2.94472C11.2672 3.31377 11.6862 3.73279 12.0553 4.19411L12.6235 4.90434C13.1909 5.6136 13.5 6.49484 13.5 7.40312V10.25V12.5C13.5 13.6046 12.6046 14.5 11.5 14.5H4.5C3.39543 14.5 2.5 13.6046 2.5 12.5V3.5Z" fill="#FAFAFA" stroke="#64748B"/>
<path d="M8.5 2V3.5C8.5 4.29565 8.81607 5.05871 9.37868 5.62132C9.94129 6.18393 10.7044 6.5 11.5 6.5H13" stroke="#64748B" stroke-linecap="round" stroke-linejoin="round"/>
<line x1="5.5" y1="9.5" x2="10.5" y2="9.5" stroke="#64748B" stroke-linecap="round"/>
<line x1="5.5" y1="11.5" x2="10.5" y2="11.5" stroke="#64748B" stroke-linecap="round"/>
</svg>
