<svg  viewBox="0 0 16 16" fill="none" xmlns="http://www.w3.org/2000/svg">
<path fill-rule="evenodd" clip-rule="evenodd" d="M4.5 2C3.67157 2 3 2.67157 3 3.5V12.5C3 13.3284 3.67157 14 4.5 14H11.5C12.3284 14 13 13.3284 13 12.5V7.40312C13 7.26786 12.9922 7.13327 12.9767 7H11.5C10.5717 7 9.6815 6.63125 9.02513 5.97487C8.36875 5.3185 8 4.42826 8 3.5V2.02329C7.86673 2.00784 7.73214 2 7.59688 2H4.5ZM9 2.29356V3.5C9 4.16304 9.26339 4.79893 9.73223 5.26777C10.2011 5.73661 10.837 6 11.5 6H12.7064C12.5844 5.72117 12.4258 5.45759 12.233 5.21669L11.6649 4.50645C11.3189 4.07397 10.926 3.68114 10.4935 3.33515L9.78331 2.76696C9.54241 2.57424 9.27883 2.41557 9 2.29356ZM2 3.5C2 2.11929 3.11929 1 4.5 1H7.59688C8.6187 1 9.61009 1.34776 10.408 1.98609L11.1182 2.55428C11.6084 2.9464 12.0536 3.39161 12.4457 3.88176L13.0139 4.592C13.6522 5.3899 14 6.3813 14 7.40312V12.5C14 13.8807 12.8807 15 11.5 15H4.5C3.11929 15 2 13.8807 2 12.5V3.5Z" fill="#64748B"/>
<line x1="5.5" y1="9.5" x2="10.5" y2="9.5" stroke="#64748B" stroke-linecap="round"/>
<line x1="5.5" y1="11.5" x2="10.5" y2="11.5" stroke="#64748B" stroke-linecap="round"/>
<path d="M9.79289 10.2928C10.1834 9.90225 10.8166 9.90225 11.2071 10.2928L12.25 11.3357L13.2929 10.2928C13.6834 9.90225 14.3166 9.90225 14.7071 10.2928C15.0976 10.6833 15.0976 11.3165 14.7071 11.707L13.6642 12.7499L14.7071 13.7928C15.0976 14.1833 15.0976 14.8165 14.7071 15.207C14.3166 15.5975 13.6834 15.5975 13.2929 15.207L12.25 14.1641L11.2071 15.207C10.8166 15.5975 10.1834 15.5975 9.79289 15.207C9.40237 14.8165 9.40237 14.1833 9.79289 13.7928M9.79289 10.2928L9.79289 13.7928M9.79289 10.2928C9.40237 10.6833 9.40237 11.3165 9.79289 11.707L10.8358 12.7499L9.79289 13.7928M9.79289 10.2928L9.79289 13.7928" fill="#CF592E" stroke="white" stroke-linecap="round"/>
</svg>
