<svg width="16" height="16" viewBox="0 0 16 16" fill="none" xmlns="http://www.w3.org/2000/svg">
<path d="M8 13.2341C8.11491 13.2341 8.22869 13.2115 8.33485 13.1675C8.44101 13.1236 8.53747 13.0591 8.61872 12.9778C8.69997 12.8966 8.76442 12.8001 8.80839 12.694C8.85237 12.5878 8.875 12.474 8.875 12.3591C8.875 12.2442 8.85237 12.1304 8.80839 12.0243C8.76442 11.9181 8.69997 11.8217 8.61872 11.7404C8.53747 11.6592 8.44101 11.5947 8.33485 11.5507C8.22869 11.5068 8.11491 11.4841 8 11.4841C7.88509 11.4841 7.77131 11.5068 7.66515 11.5507C7.55899 11.5947 7.46253 11.6592 7.38128 11.7404C7.30003 11.8217 7.23558 11.9181 7.19161 12.0243C7.14763 12.1304 7.125 12.2442 7.125 12.3591C7.125 12.474 7.14763 12.5878 7.19161 12.694C7.23558 12.8001 7.30003 12.8966 7.38128 12.9778C7.46253 13.0591 7.55899 13.1236 7.66515 13.1675C7.77131 13.2115 7.88509 13.2341 8 13.2341ZM8 8.85913C8.23206 8.85913 8.45462 8.76694 8.61872 8.60285C8.78281 8.43875 8.875 8.21619 8.875 7.98413C8.875 7.75207 8.78281 7.52951 8.61872 7.36541C8.45462 7.20132 8.23206 7.10913 8 7.10913C7.76794 7.10913 7.54538 7.20132 7.38128 7.36541C7.21719 7.52951 7.125 7.75207 7.125 7.98413C7.125 8.21619 7.21719 8.43875 7.38128 8.60285C7.54538 8.76694 7.76794 8.85913 8 8.85913ZM8 4.48413C8.23206 4.48413 8.45462 4.39194 8.61872 4.22785C8.78281 4.06375 8.875 3.84119 8.875 3.60913C8.875 3.37707 8.78281 3.15451 8.61872 2.99041C8.45462 2.82632 8.23206 2.73413 8 2.73413C7.76794 2.73413 7.54538 2.82632 7.38128 2.99041C7.21719 3.15451 7.125 3.37707 7.125 3.60913C7.125 3.84119 7.21719 4.06375 7.38128 4.22785C7.54538 4.39194 7.76794 4.48413 8 4.48413Z" fill="#6F7590"/>
</svg>
