<svg viewBox="0 0 16 16" fill="none" xmlns="http://www.w3.org/2000/svg">
<path d="M11.6111 15H4.38889C3.59114 15 2.94444 14.3732 2.94444 13.6V4.5H2C1.72386 4.5 1.5 4.27614 1.5 4V3.6C1.5 3.32386 1.72386 3.1 2 3.1H4.38889V2.4C4.38889 1.6268 5.03559 1 5.83333 1H10.1667C10.9644 1 11.6111 1.6268 11.6111 2.4V3.1H14C14.2761 3.1 14.5 3.32386 14.5 3.6V4C14.5 4.27614 14.2761 4.5 14 4.5H13.0556V13.6C13.0556 14.3732 12.4089 15 11.6111 15ZM4.38889 4.5V13.6H11.6111V4.5H4.38889ZM5.83333 2.4V3.1H10.1667V2.4H5.83333Z" fill="currentColor"/>
</svg>
