<svg viewBox="0 0 16 16" fill="none" xmlns="http://www.w3.org/2000/svg"><path fill-rule="evenodd" clip-rule="evenodd" d="M8.933 13.67c-.106 0-.19-.071-.19-.16l.001-.057a.812.812 0 0 1-.287-.067v.066h-.931v-.074a.864.864 0 0 1-.27.068.767.767 0 0 1 .002.064c0 .088-.085.16-.19.16-.106 0-.191-.072-.191-.16 0-.443-.614-.695-1.376-1.01-.186-.076-.38-.156-.578-.243v-.001c-1.159-.515-2.47-1.098-2.828-2.08-.199-.546-.086-1.143.346-1.824.581-.917.576-2.384.494-2.727a1.965 1.965 0 0 0-.453.21.222.222 0 0 1-.199.014c-.063-.028-.104-.083-.104-.143V2.788c0-.057.036-.11.094-.139a.221.221 0 0 1 .189-.002c2.46 1.147 1.928 4.157 1.391 5.85-.52 1.64.71 2.185.724 2.191a.1.1 0 0 1 .018.01c.456.252 1.587.274 2.632-.409.079-.035.183-.107.183-.317V3.99l-1.008.453a.218.218 0 0 1-.22-.024c-.06-.047-.077-.12-.043-.183l1.687-3.143A.196.196 0 0 1 8 1c.075 0 .143.037.174.094l1.688 3.143a.143.143 0 0 1-.044.183.218.218 0 0 1-.22.024L8.59 3.991v5.98c0 .21.105.283.183.318.825.68 2.176.66 2.632.409a.095.095 0 0 1 .019-.01c.05-.022 1.24-.56.723-2.19-.537-1.694-1.07-4.704 1.39-5.85a.222.222 0 0 1 .19.001.158.158 0 0 1 .093.139v2.918c0 .06-.04.115-.104.143a.221.221 0 0 1-.198-.014 1.965 1.965 0 0 0-.453-.21c-.082.343-.087 1.81.494 2.727.432.681.545 1.278.346 1.825-.357.982-1.67 1.565-2.828 2.08-.197.087-.392.167-.578.244-.762.314-1.376.566-1.376 1.009 0 .088-.085.16-.19.16Z" fill="currentColor"/><path fill-rule="evenodd" clip-rule="evenodd" d="M8.58 14.998H7.42a.828.828 0 0 1-.826-.827v-.658c0-.093.075-.168.168-.168h2.476c.093 0 .168.075.168.168v.658c0 .457-.37.827-.826.827Z" fill="currentColor"/></svg>