<svg width="17" height="16" viewBox="0 0 17 16" fill="none" xmlns="http://www.w3.org/2000/svg">
<path fill-rule="evenodd" clip-rule="evenodd" d="M7.98295 4.91371C7.37571 4.55042 6.6728 4.35714 5.95455 4.35714C4.9419 4.35714 3.97073 4.74094 3.25468 5.42411C2.53864 6.10728 2.13637 7.03385 2.13637 8C2.13637 8.72049 2.3603 9.4248 2.77985 10.0239C3.19939 10.6229 3.79571 11.0898 4.49339 11.3656C5.19107 11.6413 5.95878 11.7134 6.69944 11.5729C7.15707 11.486 7.59167 11.3204 7.98296 11.0863C7.95349 11.0597 7.92437 11.0326 7.89562 11.0052C7.27264 10.4108 6.84838 9.65355 6.6765 8.82913C6.50462 8.00471 6.59284 7.15018 6.92999 6.37359C7.17063 5.81932 7.53037 5.32252 7.98295 4.91371ZM8.50002 4.51222C7.75819 4.0194 6.87092 3.75 5.95455 3.75C5.07352 3.75 4.21228 3.99926 3.47973 4.46625C2.74719 4.93325 2.17624 5.59701 1.83908 6.37359C1.50193 7.15018 1.41372 8.00471 1.58559 8.82913C1.75747 9.65355 2.18173 10.4108 2.80471 11.0052C3.42769 11.5996 4.22141 12.0043 5.08551 12.1683C5.9496 12.3323 6.84527 12.2482 7.65923 11.9265C7.95671 11.8089 8.2384 11.6616 8.5 11.4878C9.0014 11.8209 9.57167 12.0536 10.1764 12.1683C11.0405 12.3323 11.9362 12.2482 12.7501 11.9265C13.5641 11.6048 14.2598 11.0601 14.7493 10.3612C15.2387 9.66226 15.5 8.84057 15.5 8C15.5 6.87283 15.0307 5.79183 14.1953 4.9948C13.3599 4.19777 12.2269 3.75 11.0455 3.75C10.1644 3.75 9.30319 3.99926 8.57064 4.46625C8.54693 4.48137 8.52339 4.49669 8.50002 4.51222ZM9.01705 11.0863C9.2573 10.8693 9.47267 10.6263 9.65837 10.3612C10.1478 9.66226 10.4091 8.84057 10.4091 8C10.4091 6.87283 9.93977 5.79183 9.10438 4.9948C9.07562 4.96735 9.0465 4.94032 9.01704 4.91371C9.62013 4.55292 10.3222 4.35714 11.0455 4.35714C11.8006 4.35714 12.5388 4.57079 13.1667 4.97107C13.7946 5.37136 14.284 5.94029 14.573 6.60594C14.862 7.27158 14.9376 8.00404 14.7903 8.71069C14.6429 9.41733 14.2793 10.0664 13.7453 10.5759C13.2113 11.0854 12.531 11.4323 11.7903 11.5729C11.0497 11.7134 10.282 11.6413 9.5843 11.3656C9.38649 11.2874 9.19684 11.1938 9.01705 11.0863Z" fill="#3E4359"/>
</svg>
