<svg width="12" height="13" viewBox="0 0 12 13" fill="none" xmlns="http://www.w3.org/2000/svg">
<path fill-rule="evenodd" clip-rule="evenodd" d="M4.73684 0.5C4.73684 0.776142 4.52477 1 4.26316 1L1.73684 1C1.52746 1 1.32666 1.0878 1.1786 1.24408C1.03054 1.40036 0.947368 1.61232 0.947368 1.83333L0.947368 11.1667C0.947368 11.3877 1.03054 11.5996 1.1786 11.7559C1.32665 11.9122 1.52746 12 1.73684 12H4.26316C4.52477 12 4.73684 12.2239 4.73684 12.5C4.73684 12.7761 4.52477 13 4.26316 13H1.73684C1.2762 13 0.83443 12.8068 0.508709 12.463C0.182988 12.1192 0 11.6529 0 11.1667V1.83333C0 1.3471 0.182988 0.880787 0.508709 0.536971C0.83443 0.193154 1.2762 0 1.73684 0H4.26316C4.52477 0 4.73684 0.223858 4.73684 0.5ZM7.26316 12.5C7.26316 12.2239 7.47523 12 7.73684 12H10.2632C10.4725 12 10.6733 11.9122 10.8214 11.7559C10.9695 11.5996 11.0526 11.3877 11.0526 11.1667V1.83333C11.0526 1.61232 10.9695 1.40036 10.8214 1.24408C10.6733 1.0878 10.4725 1 10.2632 1L7.73684 1C7.47523 1 7.26316 0.776142 7.26316 0.5C7.26316 0.223857 7.47523 0 7.73684 0H10.2632C10.7238 0 11.1656 0.193154 11.4913 0.536971C11.817 0.880787 12 1.3471 12 1.83333L12 11.1667C12 11.6529 11.817 12.1192 11.4913 12.463C11.1656 12.8068 10.7238 13 10.2632 13H7.73684C7.47523 13 7.26316 12.7761 7.26316 12.5ZM8.16809 8.80474C8.14007 8.87573 8.09902 8.94017 8.04729 8.99433C7.996 9.04894 7.93496 9.09228 7.86772 9.12186C7.80047 9.15144 7.72834 9.16667 7.65549 9.16667C7.58265 9.16667 7.51052 9.15144 7.44327 9.12186C7.37603 9.09228 7.31499 9.04894 7.26369 8.99433L6 7.65432L4.73631 8.99433C4.68501 9.04894 4.62397 9.09228 4.55673 9.12186C4.48948 9.15144 4.41735 9.16667 4.3445 9.16667C4.27166 9.16667 4.19953 9.15144 4.13228 9.12186C4.06504 9.09228 4.004 9.04894 3.9527 8.99433C3.90098 8.94017 3.85993 8.87573 3.83191 8.80474C3.8039 8.73374 3.78947 8.65759 3.78947 8.58068C3.78947 8.50376 3.8039 8.42761 3.83191 8.35662C3.85993 8.28562 3.90098 8.22118 3.9527 8.16702L5.22192 6.83284L3.9527 5.49865C3.84879 5.38894 3.79042 5.24015 3.79042 5.085C3.79042 4.92985 3.84879 4.78105 3.9527 4.67134C4.05662 4.56163 4.19755 4.5 4.3445 4.5C4.49146 4.5 4.63239 4.56163 4.73631 4.67134L6 6.01135L7.26369 4.67134C7.36761 4.56163 7.50854 4.5 7.65549 4.5C7.80245 4.5 7.94338 4.56163 8.04729 4.67134C8.15121 4.78105 8.20958 4.92985 8.20958 5.085C8.20958 5.24015 8.15121 5.38894 8.04729 5.49865L6.77808 6.83284L8.04729 8.16702C8.09902 8.22118 8.14007 8.28562 8.16809 8.35662C8.1961 8.42761 8.21053 8.50376 8.21053 8.58068C8.21053 8.65759 8.1961 8.73374 8.16809 8.80474Z" fill="#6F7590"/>
</svg>
