<svg width="16" height="16" viewBox="0 0 16 16" fill="none" xmlns="http://www.w3.org/2000/svg">
<path fill-rule="evenodd" clip-rule="evenodd" d="M4.86997 1.16367C4.68422 0.959338 4.368 0.94428 4.16367 1.13003C3.95934 1.31579 3.94428 1.63201 4.13003 1.83634L4.27882 2H3.5C2.11929 2 1 3.11929 1 4.5V9.5C1 10.8807 2.11929 12 3.5 12H5.5C5.77614 12 6 11.7761 6 11.5C6 11.2239 5.77614 11 5.5 11H3.5C2.67157 11 2 10.3284 2 9.5V4.5C2 3.67157 2.67157 3 3.5 3H5.18791L12.4606 11H8.70711L9.85355 9.85355C10.0488 9.65829 10.0488 9.34171 9.85355 9.14645C9.65829 8.95118 9.34171 8.95118 9.14645 9.14645L7.14645 11.1464C6.95118 11.3417 6.95118 11.6583 7.14645 11.8536L9.14645 13.8536C9.34171 14.0488 9.65829 14.0488 9.85355 13.8536C10.0488 13.6583 10.0488 13.3417 9.85355 13.1464L8.70711 12H12.5C12.7658 12 13.0219 11.9585 13.2622 11.8817L14.13 12.8363C14.3158 13.0407 14.632 13.0557 14.8363 12.87C15.0407 12.6842 15.0557 12.368 14.87 12.1637L4.86997 1.16367ZM13.9114 10.0092C13.9687 9.85021 14 9.67876 14 9.5V4.5C14 3.67157 13.3284 3 12.5 3H7.53937L6.63028 2H12.5C13.8807 2 15 3.11929 15 4.5V9.5C15 9.97769 14.866 10.4241 14.6336 10.8037L13.9114 10.0092Z" fill="#6A7692"/>
</svg>
