<svg viewBox="0 0 16 16" fill="none" xmlns="http://www.w3.org/2000/svg">
<path d="M13.4141 11.9312C13.1193 11.2331 12.6916 10.5989 12.1547 10.0641C11.6194 9.52767 10.9854 9.10001 10.2875 8.80469C10.2813 8.80156 10.275 8.8 10.2688 8.79688C11.2422 8.09375 11.875 6.94844 11.875 5.65625C11.875 3.51562 10.1406 1.78125 8 1.78125C5.85938 1.78125 4.125 3.51562 4.125 5.65625C4.125 6.94844 4.75781 8.09375 5.73125 8.79844C5.725 8.80156 5.71875 8.80312 5.7125 8.80625C5.0125 9.10156 4.38438 9.525 3.84531 10.0656C3.30892 10.6009 2.88126 11.235 2.58594 11.9328C2.29582 12.616 2.13935 13.3485 2.125 14.0906C2.12458 14.1073 2.12751 14.1239 2.1336 14.1394C2.1397 14.1549 2.14884 14.1691 2.16049 14.181C2.17214 14.193 2.18606 14.2025 2.20143 14.2089C2.21681 14.2154 2.23332 14.2188 2.25 14.2188H3.1875C3.25625 14.2188 3.31094 14.1641 3.3125 14.0969C3.34375 12.8906 3.82813 11.7609 4.68438 10.9047C5.57031 10.0188 6.74688 9.53125 8 9.53125C9.25313 9.53125 10.4297 10.0188 11.3156 10.9047C12.1719 11.7609 12.6563 12.8906 12.6875 14.0969C12.6891 14.1656 12.7438 14.2188 12.8125 14.2188H13.75C13.7667 14.2188 13.7832 14.2154 13.7986 14.2089C13.8139 14.2025 13.8279 14.193 13.8395 14.181C13.8512 14.1691 13.8603 14.1549 13.8664 14.1394C13.8725 14.1239 13.8754 14.1073 13.875 14.0906C13.8594 13.3438 13.7047 12.6172 13.4141 11.9312ZM8 8.34375C7.28281 8.34375 6.60781 8.06406 6.1 7.55625C5.59219 7.04844 5.3125 6.37344 5.3125 5.65625C5.3125 4.93906 5.59219 4.26406 6.1 3.75625C6.60781 3.24844 7.28281 2.96875 8 2.96875C8.71719 2.96875 9.39219 3.24844 9.9 3.75625C10.4078 4.26406 10.6875 4.93906 10.6875 5.65625C10.6875 6.37344 10.4078 7.04844 9.9 7.55625C9.39219 8.06406 8.71719 8.34375 8 8.34375Z" fill="currentColor"/>
</svg>
