<svg width="24" height="24" viewBox="0 0 24 24" fill="none" xmlns="http://www.w3.org/2000/svg">
<path fill-rule="evenodd" clip-rule="evenodd" d="M8.52123 6.81005C8.28023 7.0726 8.14484 7.4287 8.14484 7.8V9.9C8.14277 10.2986 8.0626 10.6922 7.90969 11.0543C7.75677 11.4165 7.53463 11.7389 7.25813 12C7.53463 12.2611 7.75677 12.5835 7.90969 12.9457C8.0626 13.3078 8.14277 13.7014 8.14484 14.1V16.2C8.14484 16.5713 8.28023 16.9274 8.52123 17.1899C8.76223 17.4525 9.0891 17.6 9.42992 17.6C9.60034 17.6 9.76377 17.6737 9.88427 17.805C10.0048 17.9363 10.0725 18.1143 10.0725 18.3C10.0725 18.4857 10.0048 18.6637 9.88427 18.795C9.76377 18.9263 9.60034 19 9.42992 19C8.74827 19 8.09454 18.705 7.61254 18.1799C7.13054 17.6548 6.85976 16.9426 6.85976 16.2V14.1C6.85976 13.7287 6.72436 13.3726 6.48336 13.1101C6.24236 12.8475 5.9155 12.7 5.57467 12.7C5.40426 12.7 5.24083 12.6263 5.12033 12.495C4.99983 12.3637 4.93213 12.1857 4.93213 12C4.93213 11.8143 4.99983 11.6363 5.12033 11.505C5.24083 11.3737 5.40426 11.3 5.57467 11.3C5.9155 11.3 6.24236 11.1525 6.48336 10.8899C6.72436 10.6274 6.85976 10.2713 6.85976 9.9V7.8C6.85976 7.05739 7.13054 6.3452 7.61254 5.8201C8.09454 5.295 8.74827 5 9.42992 5C9.60034 5 9.76377 5.07375 9.88427 5.20503C10.0048 5.3363 10.0725 5.51435 10.0725 5.7C10.0725 5.88565 10.0048 6.0637 9.88427 6.19497C9.76377 6.32625 9.60034 6.4 9.42992 6.4C9.0891 6.4 8.76223 6.5475 8.52123 6.81005ZM17.5168 10.8899C17.7578 11.1525 18.0847 11.3 18.4255 11.3C18.5959 11.3 18.7594 11.3737 18.8799 11.505C19.0004 11.6363 19.0681 11.8143 19.0681 12C19.0681 12.1857 19.0004 12.3637 18.8799 12.495C18.7594 12.6263 18.5959 12.7 18.4255 12.7C18.0847 12.7 17.7578 12.8475 17.5168 13.1101C17.2758 13.3726 17.1404 13.7287 17.1404 14.1V16.2C17.1404 16.9426 16.8696 17.6548 16.3876 18.1799C15.9056 18.705 15.2519 19 14.5703 19C14.3998 19 14.2364 18.9263 14.1159 18.795C13.9954 18.6637 13.9277 18.4857 13.9277 18.3C13.9277 18.1143 13.9954 17.9363 14.1159 17.805C14.2364 17.6737 14.3998 17.6 14.5703 17.6C14.9111 17.6 15.238 17.4525 15.479 17.1899C15.72 16.9274 15.8553 16.5713 15.8553 16.2V14.1C15.8574 13.7014 15.9376 13.3078 16.0905 12.9457C16.2434 12.5835 16.4656 12.2611 16.7421 12C16.4656 11.7389 16.2434 11.4165 16.0905 11.0543C15.9376 10.6922 15.8574 10.2986 15.8553 9.9V7.8C15.8553 7.4287 15.72 7.0726 15.479 6.81005C15.238 6.5475 14.9111 6.4 14.5703 6.4C14.3998 6.4 14.2364 6.32625 14.1159 6.19497C13.9954 6.0637 13.9277 5.88565 13.9277 5.7C13.9277 5.51435 13.9954 5.3363 14.1159 5.20503C14.2364 5.07375 14.3998 5 14.5703 5C15.2519 5 15.9056 5.295 16.3876 5.8201C16.8696 6.3452 17.1404 7.05739 17.1404 7.8V9.9C17.1404 10.2713 17.2758 10.6274 17.5168 10.8899ZM14.1331 13.9714C14.1055 14.0424 14.0651 14.1068 14.0143 14.161C13.9638 14.2156 13.9037 14.2589 13.8376 14.2885C13.7714 14.3181 13.7005 14.3333 13.6288 14.3333C13.5571 14.3333 13.4862 14.3181 13.42 14.2885C13.3539 14.2589 13.2938 14.2156 13.2433 14.161L12.0001 12.821L10.7568 14.161C10.7064 14.2156 10.6463 14.2589 10.5802 14.2885C10.514 14.3181 10.4431 14.3333 10.3714 14.3333C10.2997 14.3333 10.2288 14.3181 10.1626 14.2885C10.0964 14.2589 10.0364 14.2156 9.98592 14.161C9.93504 14.1068 9.89465 14.0424 9.86709 13.9714C9.83952 13.9004 9.82533 13.8242 9.82533 13.7473C9.82533 13.6704 9.83952 13.5943 9.86709 13.5233C9.89465 13.4523 9.93504 13.3878 9.98592 13.3337L11.2346 11.9995L9.98592 10.6653C9.88369 10.5556 9.82626 10.4068 9.82626 10.2516C9.82626 10.0965 9.88369 9.94769 9.98592 9.83799C10.0882 9.72828 10.2268 9.66664 10.3714 9.66664C10.516 9.66664 10.6546 9.72828 10.7568 9.83799L12.0001 11.178L13.2433 9.83799C13.3456 9.72828 13.4842 9.66664 13.6288 9.66664C13.7734 9.66664 13.912 9.72828 14.0143 9.83799C14.1165 9.94769 14.1739 10.0965 14.1739 10.2516C14.1739 10.4068 14.1165 10.5556 14.0143 10.6653L12.7656 11.9995L14.0143 13.3337C14.0651 13.3878 14.1055 13.4523 14.1331 13.5233C14.1607 13.5943 14.1748 13.6704 14.1748 13.7473C14.1748 13.8242 14.1607 13.9004 14.1331 13.9714Z" fill="#6F7590"/>
</svg>
