<svg width="14" height="14" viewBox="0 0 14 14" fill="none" xmlns="http://www.w3.org/2000/svg">
<path fill-rule="evenodd" clip-rule="evenodd" d="M0.33374 7.02342C0.33374 8.00723 0.964527 8.84371 1.84372 9.15049C1.66609 9.47257 1.565 9.8428 1.565 10.2366C1.565 11.4805 2.57337 12.4889 3.81725 12.4889C4.19383 12.4889 4.54882 12.3965 4.86078 12.2331C5.15673 13.1316 6.00284 13.7801 7.00044 13.7801C7.99803 13.7801 8.84414 13.1316 9.14009 12.2331C9.45205 12.3965 9.80703 12.4889 10.1836 12.4889C11.4275 12.4889 12.4359 11.4805 12.4359 10.2366C12.4359 9.84279 12.3348 9.47256 12.1571 9.15047C13.0363 8.84368 13.6671 8.00721 13.6671 7.02342C13.6671 6.03962 13.0363 5.20315 12.1571 4.89636C12.3348 4.57427 12.4359 4.20403 12.4359 3.81018C12.4359 2.5663 11.4275 1.55793 10.1836 1.55793C9.80703 1.55793 9.45205 1.65035 9.14009 1.81374C8.84414 0.915246 7.99803 0.266663 7.00044 0.266663C6.00284 0.266663 5.15673 0.91525 4.86078 1.81375C4.54882 1.65035 4.19383 1.55793 3.81725 1.55793C2.57337 1.55793 1.565 2.5663 1.565 3.81018C1.565 4.20402 1.66609 4.57425 1.84373 4.89634C0.964532 5.20311 0.33374 6.0396 0.33374 7.02342Z" fill="#5277D7"/>
<path d="M9.71229 6.06658L6.61137 9.05004C6.4121 9.24177 6.31246 9.33763 6.19033 9.33684C6.06821 9.33606 5.96981 9.23893 5.77302 9.04466L4.27741 7.56823C4.07474 7.36815 3.9734 7.26811 3.97299 7.14315C3.97259 7.01819 4.07328 6.9175 4.27467 6.71612L4.47359 6.51719C4.67379 6.31699 4.77389 6.21689 4.89828 6.21689C5.02267 6.21689 5.12277 6.31699 5.32297 6.51719L6.03729 7.23151C6.13739 7.33161 6.18744 7.38166 6.24963 7.38166C6.31182 7.38166 6.36187 7.33161 6.46197 7.23151L8.67779 5.01569C8.87799 4.81549 8.97809 4.71539 9.10248 4.71539C9.22687 4.71539 9.32697 4.81549 9.52717 5.01569L9.72056 5.20909C9.92433 5.41285 10.0262 5.51473 10.025 5.64081C10.0238 5.7669 9.91994 5.86679 9.71229 6.06658Z" fill="white"/>
</svg>
