<svg width="16" height="16" viewBox="0 0 16 16" fill="none" xmlns="http://www.w3.org/2000/svg">
<g clip-path="url(#clip0_1599_1886)">
<g clip-path="url(#clip1_1599_1886)">
<rect x="1.5" y="2.5" width="13" height="11" rx="1.5" stroke="#5277D7"/>
<line x1="14" y1="6.5" x2="2" y2="6.5" stroke="#5277D7"/>
<line x1="8.04547" y1="13" x2="8.04547" y2="3" stroke="#5277D7"/>
<line x1="2" y1="10" x2="14" y2="10" stroke="#5277D7"/>
<path d="M4.5 1C2.91806 1 1.23913 2.72468 0.454123 3.64736C0.172901 3.9779 0.1729 4.45067 0.454122 4.78121C1.23913 5.70389 2.91806 7.42857 4.5 7.42857C6.08194 7.42857 7.76087 5.70389 8.54588 4.78121C8.8271 4.45067 8.8271 3.9779 8.54588 3.64736C7.76087 2.72468 6.08194 1 4.5 1Z" fill="#5277D7" stroke="white" stroke-linejoin="round"/>
<circle cx="4.49998" cy="4.21428" r="1.42857" fill="#5277D7" stroke="white"/>
</g>
<circle cx="13" cy="12" r="3.5" fill="#FF9458" stroke="white"/>
</g>
<defs>
<clipPath id="clip0_1599_1886">
<rect width="16" height="16" fill="white"/>
</clipPath>
<clipPath id="clip1_1599_1886">
<rect width="16" height="16" fill="white"/>
</clipPath>
</defs>
</svg>
