<svg
    width="16"
    height="16"
    viewBox="0 0 16 16"
    fill="none"
    xmlns="http://www.w3.org/2000/svg"
>
    <g clip-path="url(#clip0_1599_1886)">
        <path
            d="M4.5 1C2.91806 1 1.23913 2.72468 0.454123 3.64736C0.172901 3.9779 0.1729 4.45067 0.454122 4.78121C1.23913 5.70389 2.91806 7.42857 4.5 7.42857C6.08194 7.42857 7.76087 5.70389 8.54588 4.78121C8.8271 4.45067 8.8271 3.9779 8.54588 3.64736C7.76087 2.72468 6.08194 1 4.5 1Z"
            fill="#3C71DF"
            stroke="white"
            stroke-linejoin="round"
        />
        <circle
            cx="4.5001"
            cy="4.21428"
            r="1.42857"
            fill="#3C71DF"
            stroke="white"
        />
        <path
            d="M2.5 8C2.5 7.72386 2.27614 7.5 2 7.5C1.72386 7.5 1.5 7.72386 1.5 8H2.5ZM9.5 2.5C9.22386 2.5 9 2.72386 9 3C9 3.27614 9.22386 3.5 9.5 3.5V2.5ZM13.5 4V12H14.5V4H13.5ZM13 12.5H3V13.5H13V12.5ZM2.5 12V8H1.5V12H2.5ZM13 2.5H9.5V3.5H13V2.5ZM3 12.5C2.72386 12.5 2.5 12.2761 2.5 12H1.5C1.5 12.8284 2.17157 13.5 3 13.5V12.5ZM13.5 12C13.5 12.2761 13.2761 12.5 13 12.5V13.5C13.8284 13.5 14.5 12.8284 14.5 12H13.5ZM14.5 4C14.5 3.17157 13.8284 2.5 13 2.5V3.5C13.2761 3.5 13.5 3.72386 13.5 4H14.5Z"
            fill="#3C71DF"
        />
        <path
            d="M8.04541 7L8.04541 6.5C7.9128 6.5 7.78562 6.55268 7.69186 6.64645C7.59809 6.74021 7.54541 6.86739 7.54541 7L8.04541 7ZM8.54541 13L8.54541 7L7.54541 7L7.54541 13L8.54541 13ZM8.04541 7.5L13.9999 7.5L13.9999 6.5L8.04541 6.5L8.04541 7.5Z"
            fill="#3C71DF"
        />
        <line x1="2" y1="10" x2="14" y2="10" stroke="#3C71DF" />
    </g>
    <path
        d="M10.2929 10.2929C10.6834 9.90237 11.3166 9.90237 11.7071 10.2929L12.75 11.3358L13.7929 10.2929C14.1834 9.90237 14.8166 9.90237 15.2071 10.2929C15.5976 10.6834 15.5976 11.3166 15.2071 11.7071L14.1642 12.75L15.2071 13.7929C15.5976 14.1834 15.5976 14.8166 15.2071 15.2071C14.8166 15.5976 14.1834 15.5976 13.7929 15.2071L12.75 14.1642L11.7071 15.2071C11.3166 15.5976 10.6834 15.5976 10.2929 15.2071C9.90237 14.8166 9.90237 14.1834 10.2929 13.7929M10.2929 10.2929L10.2929 13.7929M10.2929 10.2929C9.90237 10.6834 9.90237 11.3166 10.2929 11.7071L11.3358 12.75L10.2929 13.7929M10.2929 10.2929L10.2929 13.7929"
        fill="#CF592E"
        stroke="white"
        stroke-linecap="round"
    />
    <defs>
        <clipPath id="clip0_1599_1886">
            <rect width="16" height="16" fill="white" />
        </clipPath>
    </defs>
</svg>
