<svg xmlns="http://www.w3.org/2000/svg"  viewBox="0 0 20 20">
  <defs>
    <style>
      .cls-1, .cls-4 {
        fill: none;
      }

      .cls-2 {
        fill: #555962;
      }

      .cls-3 {
        fill: #555962;
      }

      .cls-4 {
        stroke: #555962;
        stroke-linecap: round;
        stroke-linejoin: round;
      }
    </style>
  </defs>
  <g id="Layer_2" data-name="Layer 2">
    <g id="Layer_1-2" data-name="Layer 1">
      <g id="DB">
        <rect id="Transparent_path" data-name="Transparent path" class="cls-1" width="20" height="20"/>
        <g>
          <path class="cls-2" d="M3.5,8.5V5A1.5,1.5,0,0,1,5,3.5H15A1.5,1.5,0,0,1,16.5,5V8.5Z"/>
          <path class="cls-3" d="M15,4a1,1,0,0,1,1,1V8H4V5A1,1,0,0,1,5,4H15m0-1H5A2,2,0,0,0,3,5V9H17V5a2,2,0,0,0-2-2Z"/>
        </g>
        <g>
          <path class="cls-2" d="M5,13.5A1.5,1.5,0,0,1,3.5,12V8.5h13V12A1.5,1.5,0,0,1,15,13.5Z"/>
          <path class="cls-3" d="M16,9v3a1,1,0,0,1-1,1H5a1,1,0,0,1-1-1V9H16m1-1H3v4a2,2,0,0,0,2,2H15a2,2,0,0,0,2-2V8Z"/>
        </g>
        <line class="cls-4" x1="10" y1="13.5" x2="10" y2="14.5"/>
        <line class="cls-4" x1="11.5" y1="16.5" x2="16.5" y2="16.5"/>
        <line class="cls-4" x1="3.5" y1="16.5" x2="8.5" y2="16.5"/>
        <circle class="cls-3" cx="15" cy="6" r="0.5"/>
        <circle class="cls-3" cx="13" cy="6" r="0.5"/>
        <circle class="cls-3" cx="15" cy="11" r="0.5"/>
        <circle class="cls-3" cx="13" cy="11" r="0.5"/>
        <line class="cls-4" x1="6" y1="6" x2="10" y2="6"/>
        <line class="cls-4" x1="6" y1="11" x2="10" y2="11"/>
        <g>
          <circle class="cls-2" cx="10" cy="16.5" r="1.5"/>
          <path class="cls-3" d="M10,15.5a1,1,0,1,1-1,1,1,1,0,0,1,1-1m0-1a2,2,0,1,0,2,2,2,2,0,0,0-2-2Z"/>
        </g>
      </g>
    </g>
  </g>
</svg>
