<svg xmlns="http://www.w3.org/2000/svg" width="20" height="20" viewBox="0 0 20 20">
  <defs>
    <style>
      .cls-1 {
        fill: none;
      }

      .cls-2 {
        fill: #fef7ec;
      }

      .cls-3 {
        fill: #f2a041;
      }

      .cls-4 {
        fill: #2251cc;
      }

      .cls-5 {
        fill: #70e6fd;
      }
    </style>
  </defs>
  <g id="Layer_2" data-name="Layer 2">
    <g id="Layer_1-2" data-name="Layer 1">
      <g id="Integration">
        <rect class="cls-1" width="20" height="20"/>
        <g id="Integration-2" data-name="Integration">
          <g>
            <path class="cls-2" d="M5.12,8.93a1.59,1.59,0,0,1-1.55-1,1.56,1.56,0,0,1,.16-1.29,1.53,1.53,0,0,1,1.05-.71.49.49,0,0,0,.37-.31A2.09,2.09,0,0,1,7.09,4.26a2.72,2.72,0,0,1,.39,0h.09a.51.51,0,0,0,.37-.15A2.07,2.07,0,0,1,9.46,3.5a2.19,2.19,0,0,1,1.17.35,2,2,0,0,1,.9,1.75.62.62,0,0,0,.24.49A1.53,1.53,0,0,1,12.38,8a1.59,1.59,0,0,1-1.49.93Z"/>
            <path class="cls-3" d="M9.46,4h0a1.72,1.72,0,0,1,.91.27A1.54,1.54,0,0,1,11,5.6a1,1,0,0,0,.48.91,1.07,1.07,0,0,1,.41,1.3,1.11,1.11,0,0,1-1,.62H5.12a1.1,1.1,0,0,1-1.07-.7,1,1,0,0,1,.81-1.36,1,1,0,0,0,.76-.61,1.57,1.57,0,0,1,1.47-1l.29,0a.62.62,0,0,0,.19,0A1,1,0,0,0,8.3,4.5,1.59,1.59,0,0,1,9.46,4m0-1a2.59,2.59,0,0,0-1.89.81,2.61,2.61,0,0,0-.48-.05,2.58,2.58,0,0,0-2.4,1.63A2,2,0,0,0,3.09,8a2.09,2.09,0,0,0,2,1.41h5.77a2.09,2.09,0,0,0,2-1.25A2,2,0,0,0,12,5.66V5.6A2.51,2.51,0,0,0,10.9,3.42,2.72,2.72,0,0,0,9.46,3Z"/>
          </g>
          <path class="cls-3" d="M15.5,10.5A.5.5,0,0,1,15,10V7a1.43,1.43,0,0,0-1.36-1.5H13.5a.5.5,0,0,1,0-1h.14A2.44,2.44,0,0,1,16,7v3A.5.5,0,0,1,15.5,10.5Z"/>
          <path class="cls-3" d="M13.5,5.5a.47.47,0,0,1-.35-.15.48.48,0,0,1,0-.7l1.5-1.5a.49.49,0,0,1,.7.7l-1.5,1.5A.47.47,0,0,1,13.5,5.5Z"/>
          <path class="cls-3" d="M10.5,15H7.36A2.44,2.44,0,0,1,5,12.5v-2a.5.5,0,0,1,1,0v2A1.43,1.43,0,0,0,7.36,14H10.5a.5.5,0,0,1,0,1Z"/>
          <path class="cls-3" d="M9,16.5a.47.47,0,0,1-.35-.15.48.48,0,0,1,0-.7l1.5-1.5a.49.49,0,0,1,.7.7l-1.5,1.5A.47.47,0,0,1,9,16.5Z"/>
          <g>
            <circle class="cls-4" cx="15" cy="14" r="1.5"/>
            <path class="cls-4" d="M15,13a1,1,0,1,1-1,1,1,1,0,0,1,1-1m0-1a2,2,0,1,0,2,2,2,2,0,0,0-2-2Z"/>
          </g>
          <circle class="cls-5" cx="15" cy="14" r="1"/>
        </g>
      </g>
    </g>
  </g>
</svg>
