<svg xmlns="http://www.w3.org/2000/svg"  viewBox="0 0 20 20">
  <defs>
    <style>
      .cls-1 {
        fill: none;
      }

      .cls-2 {
        fill: #fef7ec;
      }

      .cls-3 {
        fill: #f2a041;
      }
    </style>
  </defs>
  <g id="Layer_2" data-name="Layer 2">
    <g id="Layer_2-2" data-name="Layer 2">
      <g id="Source">
        <rect id="Transparent_path" data-name="Transparent path" class="cls-1" width="20" height="20"/>
        <g>
          <path class="cls-2" d="M5.51,14.51a2.74,2.74,0,0,1-2.67-1.84,2.7,2.7,0,0,1,.27-2.24A2.66,2.66,0,0,1,4.93,9.2a.49.49,0,0,0,.38-.3A3.49,3.49,0,0,1,8.58,6.68a3.8,3.8,0,0,1,.66.07h.1A.52.52,0,0,0,9.7,6.6a3.56,3.56,0,0,1,2.57-1.11,3.79,3.79,0,0,1,2,.58,3.41,3.41,0,0,1,1.53,3,.7.7,0,0,0,.24.53,2.67,2.67,0,0,1,1.06,3.31,2.74,2.74,0,0,1-2.58,1.63Z"/>
          <path class="cls-3" d="M12.27,6h0A3.25,3.25,0,0,1,14,6.5a2.9,2.9,0,0,1,1.3,2.58,1,1,0,0,0,.48.91,2.18,2.18,0,0,1,.86,2.7A2.24,2.24,0,0,1,14.5,14h-9a2.23,2.23,0,0,1-2.19-1.49A2.16,2.16,0,0,1,5,9.7a1,1,0,0,0,.75-.62,3,3,0,0,1,2.81-1.9,2.74,2.74,0,0,1,.56.06l.2,0a1,1,0,0,0,.72-.32,3.07,3.07,0,0,1,2.21-1m0-1A4,4,0,0,0,9.34,6.26a4,4,0,0,0-4.5,2.45,3.18,3.18,0,0,0-2.48,4.1A3.25,3.25,0,0,0,5.51,15h9a3.24,3.24,0,0,0,3.05-1.95,3.17,3.17,0,0,0-1.27-3.92V9.05a3.9,3.9,0,0,0-1.77-3.4A4.23,4.23,0,0,0,12.27,5Z"/>
        </g>
      </g>
    </g>
  </g>
</svg>
