<svg viewBox="0 0 30 20" fill="none" xmlns="http://www.w3.org/2000/svg">
<path d="M0 2C0 0.895431 0.895431 0 2 0H28C29.1046 0 30 0.895431 30 2V18C30 19.1046 29.1046 20 28 20H2C0.89543 20 0 19.1046 0 18V2Z" fill="#5277D7"/>
<path d="M7.59252 5.53601C4.88052 5.53601 3.10452 7.39601 3.10452 10.036C3.10452 12.676 4.97652 14.464 7.59252 14.464C8.84052 14.464 10.0285 13.984 10.7605 12.952L9.51252 12.064C9.03252 12.676 8.40852 13.096 7.60452 13.096C5.81652 13.096 4.68852 11.692 4.68852 9.94001C4.68852 8.24801 5.86452 6.90401 7.60452 6.90401C8.34852 6.90401 8.90052 7.21601 9.39252 7.74401L10.5685 6.88001C9.76452 5.96801 8.80452 5.53601 7.59252 5.53601Z" fill="white"/>
<path d="M20.3314 9.98801C20.3314 7.33601 18.5554 5.53601 15.8674 5.53601C12.9034 5.53601 11.3194 7.58801 11.3194 10.036C11.3194 12.664 13.1674 14.464 15.7834 14.464C18.3994 14.464 20.3314 12.652 20.3314 9.98801ZM12.9034 9.94001C12.9034 8.26001 14.0794 6.90401 15.8074 6.90401C17.5474 6.90401 18.7474 8.20001 18.7474 9.94001C18.7474 11.668 17.6554 13.096 15.8194 13.096C13.9954 13.096 12.9034 11.68 12.9034 9.94001Z" fill="white"/>
<path d="M21.7715 5.75201V14.248H26.8955V12.88H23.2835V5.75201H21.7715Z" fill="white"/>
</svg>
