<svg viewBox="0 0 30 20" fill="none" xmlns="http://www.w3.org/2000/svg">
<path d="M0 2C0 0.895431 0.895431 0 2 0H28C29.1046 0 30 0.895431 30 2V18C30 19.1046 29.1046 20 28 20H2C0.89543 20 0 19.1046 0 18V2Z" fill="#5277D7"/>
<path d="M7.30927 5.75201V14.248H10.5133C12.3613 14.248 14.9773 13.012 14.9773 10C14.9773 7.14401 12.8893 5.75201 10.6933 5.75201H7.30927ZM8.82127 12.88V7.12001H10.2133C12.0613 7.12001 13.3933 7.93601 13.3933 10C13.3933 12.064 11.8213 12.88 10.0093 12.88H8.82127Z" fill="white"/>
<path d="M16.4147 5.75201V14.248H19.5347C21.3827 14.248 22.6907 13.456 22.6907 11.824C22.6907 10.768 21.9467 9.90401 20.8547 9.77201V9.74801C21.8147 9.44801 22.3307 8.76401 22.3307 7.88801C22.3307 6.25601 20.8787 5.75201 19.7747 5.75201H16.4147ZM17.9267 9.20801V7.04801H19.2347C20.2667 7.04801 20.8187 7.39601 20.8187 8.14001C20.8187 8.78801 20.2667 9.20801 19.3547 9.20801H17.9267ZM17.9267 12.952V10.504H19.4507C20.6027 10.504 21.1787 10.84 21.1787 11.704C21.1787 12.544 20.5667 12.952 19.3667 12.952H17.9267Z" fill="white"/>
</svg>
