<svg xmlns="http://www.w3.org/2000/svg" viewBox="0 0 16 16.5">
  <defs>
    <style>
      .cls-1, .cls-4 {
        fill: none;
      }

      .cls-2 {
        fill: #c3efe6;
      }

      .cls-3 {
        fill: #5accae;
      }


      .cls-4 {
        stroke: #555962;
        stroke-linecap: round;
        stroke-linejoin: round;
      }
    </style>
  </defs>
  <g id="Layer_2" data-name="Layer 2">
    <g id="Layer_1-2" data-name="Layer 1">
      <g id="DB">
        <rect class="cls-1" width="16" height="16"/>
        <g>
          <path class="cls-2" d="M1.5,6.5V3A1.5,1.5,0,0,1,3,1.5H13A1.5,1.5,0,0,1,14.5,3V6.5Z"/>
          <path class="cls-3" d="M13,2a1,1,0,0,1,1,1V6H2V3A1,1,0,0,1,3,2H13m0-1H3A2,2,0,0,0,1,3V7H15V3a2,2,0,0,0-2-2Z"/>
        </g>
        <g>
          <path class="cls-2" d="M3,11.5A1.5,1.5,0,0,1,1.5,10V6.5h13V10A1.5,1.5,0,0,1,13,11.5Z"/>
          <path class="cls-3" d="M14,7v3a1,1,0,0,1-1,1H3a1,1,0,0,1-1-1V7H14m1-1H1v4a2,2,0,0,0,2,2H13a2,2,0,0,0,2-2V6Z"/>
        </g>
        <line class="cls-4" x1="8" y1="11.5" x2="8" y2="12.5"/>
        <line class="cls-4" x1="9.5" y1="14.5" x2="14.5" y2="14.5"/>
        <line class="cls-4" x1="1.5" y1="14.5" x2="6.5" y2="14.5"/>
        <circle class="cls-3" cx="13" cy="4" r="0.5"/>
        <circle class="cls-3" cx="11" cy="4" r="0.5"/>
        <circle class="cls-3" cx="13" cy="9" r="0.5"/>
        <circle class="cls-3" cx="11" cy="9" r="0.5"/>
        <line class="cls-4" x1="4" y1="4" x2="8" y2="4"/>
        <line class="cls-4" x1="4" y1="9" x2="8" y2="9"/>
        <g>
          <circle class="cls-2" cx="8" cy="14.5" r="1.5"/>
          <path class="cls-3" d="M8,13.5a1,1,0,1,1-1,1,1,1,0,0,1,1-1m0-1a2,2,0,1,0,2,2,2,2,0,0,0-2-2Z"/>
        </g>
      </g>
    </g>
  </g>
</svg>
