<svg id="Layer_1" data-name="Layer 1" xmlns="http://www.w3.org/2000/svg" width="16" height="16" viewBox="0 0 16 16"><defs><style>.cls-1{fill:none;}.cls-2{fill:#cfd1d3;}.cls-3{fill:#555962;}</style></defs><g id="DB"><rect id="Transparent_path" data-name="Transparent path" class="cls-1" width="16" height="16"/><g id="database"><path class="cls-2" d="M1.5,5.5V2A1.5,1.5,0,0,1,3,.5H13A1.5,1.5,0,0,1,14.5,2V5.5Z"/><path class="cls-3" d="M13,1a1,1,0,0,1,1,1V5H2V2A1,1,0,0,1,3,1H13m0-1H3A2,2,0,0,0,1,2V6H15V2a2,2,0,0,0-2-2Z"/><path class="cls-2" d="M3,10.5A1.5,1.5,0,0,1,1.5,9V5.5h13V9A1.5,1.5,0,0,1,13,10.5Z"/><path class="cls-3" d="M14,6V9a1,1,0,0,1-1,1H3A1,1,0,0,1,2,9V6H14m1-1H1V9a2,2,0,0,0,2,2H13a2,2,0,0,0,2-2V5Z"/><path class="cls-3" d="M8,13a.5.5,0,0,1-.5-.5V11a.5.5,0,0,1,1,0v1.5A.5.5,0,0,1,8,13Z"/><path class="cls-3" d="M14.5,14.5h-5a.5.5,0,0,1,0-1h5a.5.5,0,0,1,0,1Z"/><path class="cls-3" d="M6.5,14.5h-5a.5.5,0,0,1,0-1h5a.5.5,0,0,1,0,1Z"/><circle class="cls-3" cx="12.5" cy="2.5" r="0.5"/><circle class="cls-3" cx="10.5" cy="2.5" r="0.5"/><circle class="cls-3" cx="12.5" cy="7.5" r="0.5"/><circle class="cls-3" cx="10.5" cy="7.5" r="0.5"/><path class="cls-3" d="M7.5,3h-4a.5.5,0,0,1,0-1h4a.5.5,0,0,1,0,1Z"/><path class="cls-3" d="M7.5,8h-4a.5.5,0,0,1,0-1h4a.5.5,0,0,1,0,1Z"/><circle class="cls-2" cx="8" cy="14" r="1.5"/><path class="cls-3" d="M8,16a2,2,0,1,1,2-2A2,2,0,0,1,8,16Zm0-3a1,1,0,1,0,1,1A1,1,0,0,0,8,13Z"/></g></g></svg>