<svg id="Layer_1" data-name="Layer 1" xmlns="http://www.w3.org/2000/svg"  viewBox="0 0 16 16"><g id="DB"><rect id="Transparent_path" data-name="Transparent path" width="16" height="16" style="fill:none"/><path d="M13,1H3A1,1,0,0,0,2,2V5H14V2A1,1,0,0,0,13,1ZM7.5,3h-4a.5.5,0,0,1,0-1h4a.5.5,0,0,1,0,1Zm3,0a.5.5,0,1,1,.5-.5A.5.5,0,0,1,10.5,3Zm2,0a.5.5,0,1,1,.5-.5A.5.5,0,0,1,12.5,3Z" style="fill:#cfd1d3"/><path d="M2,6V9a1,1,0,0,0,1,1H13a1,1,0,0,0,1-1V6ZM7.5,8h-4a.5.5,0,0,1,0-1h4a.5.5,0,0,1,0,1Zm3,0a.5.5,0,1,1,.5-.5A.5.5,0,0,1,10.5,8Zm2,0a.5.5,0,1,1,.5-.5A.5.5,0,0,1,12.5,8Z" style="fill:#cfd1d3"/><circle cx="8" cy="14" r="1" style="fill:#cfd1d3"/><path d="M13,0H3A2,2,0,0,0,1,2V9a2,2,0,0,0,2,2H7.5v1.07A2,2,0,0,0,6.07,13.5H1.5a.5.5,0,0,0,0,1H6.07a2,2,0,0,0,3.86,0H14.5a.5.5,0,0,0,0-1H9.93A2,2,0,0,0,8.5,12.07V11H13a2,2,0,0,0,2-2V2A2,2,0,0,0,13,0ZM9,14a1,1,0,1,1-1-1A1,1,0,0,1,9,14Zm5-5a1,1,0,0,1-1,1H3A1,1,0,0,1,2,9V6H14Zm0-4H2V2A1,1,0,0,1,3,1H13a1,1,0,0,1,1,1Z" style="fill:#555962"/><circle cx="12.5" cy="2.5" r="0.5" style="fill:#555962"/><circle cx="10.5" cy="2.5" r="0.5" style="fill:#555962"/><circle cx="12.5" cy="7.5" r="0.5" style="fill:#555962"/><circle cx="10.5" cy="7.5" r="0.5" style="fill:#555962"/><path d="M7.5,3h-4a.5.5,0,0,1,0-1h4a.5.5,0,0,1,0,1Z" style="fill:#555962"/><path d="M7.5,8h-4a.5.5,0,0,1,0-1h4a.5.5,0,0,1,0,1Z" style="fill:#555962"/></g></svg>