<svg viewBox="0 0 30 20" fill="none" xmlns="http://www.w3.org/2000/svg">
<path d="M0 2C0 0.895431 0.895431 0 2 0H28C29.1046 0 30 0.895431 30 2V18C30 19.1046 29.1046 20 28 20H2C0.89543 20 0 19.1046 0 18V2Z" fill="#5277D7"/>
<path d="M7.5186 5.75201L3.8226 14.248H5.5146L6.2826 12.304H9.9666L10.7586 14.248H12.4866L8.8266 5.75201H7.5186ZM8.1306 7.55201L9.4386 11.008H6.7986L8.1306 7.55201Z" fill="white"/>
<path d="M16.2628 5.53601C14.4148 5.53601 13.1308 6.56801 13.1308 8.10401C13.1308 9.64001 14.1148 10.156 15.6388 10.624C16.7308 10.96 17.1628 11.296 17.1628 11.932C17.1628 12.616 16.4908 13.096 15.6748 13.096C14.9908 13.096 14.3668 12.772 13.9948 12.208L12.8548 13.312C13.5148 14.104 14.4988 14.464 15.6988 14.464C17.3668 14.464 18.7468 13.504 18.7468 11.752C18.7468 10 17.3908 9.56801 16.0348 9.14801C15.1948 8.88401 14.7148 8.57201 14.7148 7.99601C14.7148 7.33601 15.2548 6.90401 16.1068 6.90401C16.6948 6.90401 17.2588 7.10801 17.5948 7.57601L18.6988 6.41201C18.0988 5.84801 17.2348 5.53601 16.2628 5.53601Z" fill="white"/>
<path d="M19.4574 5.75201V7.12001H22.0614V14.248H23.5734V7.12001H26.1774V5.75201H19.4574Z" fill="white"/>
</svg>
