<svg xmlns="http://www.w3.org/2000/svg" viewBox="0 0 16 16"><g id="Layer_3" data-name="Layer 3"><g id="materializedview"><rect id="Transparent_path" data-name="Transparent path" width="16" height="16" style="fill:none"/><path d="M2,4V3A1,1,0,0,1,3,2H13a1,1,0,0,1,1,1V4A0,0,0,0,1,14,4H2.05A0,0,0,0,1,2,4Z" style="fill:#c3efe6"/><path d="M13,2a1,1,0,0,1,1,1V4H2V3A1,1,0,0,1,3,2H13m0-1H3A2,2,0,0,0,1,3V5H15V3a2,2,0,0,0-2-2Z" style="fill:#5accae"/><path d="M14.5,6a.5.5,0,0,0-.5.5V9H8.5V6.5a.5.5,0,0,0-1,0V9H2V6.5a.5.5,0,0,0-1,0v6A2.44,2.44,0,0,0,3.36,15H8a.5.5,0,0,0,.5-.5V10h6a.5.5,0,0,0,.5-.5v-3A.5.5,0,0,0,14.5,6Zm-7,8H3.36A1.43,1.43,0,0,1,2,12.5V10H7.5Z" style="fill:#5accae"/><path d="M10.93,12.61a1.68,1.68,0,0,1,3.15,0h0l-.4,0a.3.3,0,0,0-.34.26.31.31,0,0,0,.27.34l1,.12a.28.28,0,0,0,.29-.13l.57-.86a.31.31,0,0,0-.09-.42A.29.29,0,0,0,15,12l-.26.4h0a2.36,2.36,0,0,0-4.41,0,.32.32,0,0,0,.08.36.28.28,0,0,0,.11.08A.34.34,0,0,0,10.93,12.61Z" style="fill:#ffb119"/><path d="M14.71,14.44a.34.34,0,1,0-.63-.24,1.68,1.68,0,0,1-3.13,0l.4,0a.31.31,0,1,0,.07-.61l-1-.12a.31.31,0,0,0-.29.13l-.56.86a.32.32,0,0,0,0,.39l.05,0a.29.29,0,0,0,.42-.08l.26-.4a2.35,2.35,0,0,0,4.39-.05Z" style="fill:#ffb119"/></g></g></svg>