<svg viewBox="0 0 30 20" fill="none" xmlns="http://www.w3.org/2000/svg">
<path d="M0 2C0 0.895431 0.895431 0 2 0H28C29.1046 0 30 0.895431 30 2V18C30 19.1046 29.1046 20 28 20H2C0.89543 20 0 19.1046 0 18V2Z" fill="#5277D7"/>
<path d="M7.17997 5.64398C4.76797 5.64398 2.71597 7.41998 2.71597 9.92798C2.71597 12.628 4.68397 14.356 7.29997 14.356H12.292V13.132H9.85597V13.108C11.056 12.412 11.644 11.296 11.644 9.92798C11.644 7.46798 9.65197 5.64398 7.17997 5.64398ZM4.29997 9.96398C4.29997 8.31998 5.45197 7.01198 7.13197 7.01198C8.84797 7.01198 10.06 8.24798 10.06 9.96398C10.06 11.68 8.88397 12.988 7.16797 12.988C5.43997 12.988 4.29997 11.632 4.29997 9.96398Z" fill="white"/>
<path d="M13.3907 5.85998V14.356H14.9027V10.756H16.0067L17.9747 14.356H19.7987L17.5427 10.6C18.7427 10.432 19.5107 9.56798 19.5107 8.29598C19.5107 6.43598 18.0227 5.85998 16.3907 5.85998H13.3907ZM14.9027 9.45998V7.15598H16.2587C17.0507 7.15598 17.9267 7.31198 17.9267 8.28398C17.9267 9.33998 17.0147 9.45998 16.1507 9.45998H14.9027Z" fill="white"/>
<path d="M19.388 5.85998L22.58 10.72V14.356H24.092V10.72L27.284 5.85998H25.484L23.372 9.24398L21.284 5.85998H19.388Z" fill="white"/>
</svg>
