<svg id="Layer_1" data-name="Layer 1" xmlns="http://www.w3.org/2000/svg" viewBox="0 0 16 16"><g id="Schema"><rect id="Transparent_Path" data-name="Transparent Path" width="16" height="16" style="fill:none"/><g id="Schema-2" data-name="Schema"><path d="M1.5,8A.5.5,0,0,1,1,7.5v-2A2.44,2.44,0,0,1,3.36,3H3.5a.5.5,0,0,1,0,1H3.36A1.43,1.43,0,0,0,2,5.5v2A.5.5,0,0,1,1.5,8Z" style="fill:#c3efe6"/><path d="M14.5,8a.5.5,0,0,1-.5-.5v-2A1.43,1.43,0,0,0,12.64,4H12.5a.5.5,0,0,1,0-1h.14A2.44,2.44,0,0,1,15,5.5v2A.5.5,0,0,1,14.5,8Z" style="fill:#c3efe6"/><rect x="10" y="10" width="5" height="1" style="fill:#c3efe6"/><rect x="5" y="2" width="6" height="1" style="fill:#c3efe6"/><rect x="1" y="10" width="5" height="1" style="fill:#c3efe6"/><path d="M12,2a1,1,0,0,0-1-1H5A1,1,0,0,0,4,2V3.5H4V5.88A1.1,1.1,0,0,0,5.08,7h5.84A1.1,1.1,0,0,0,12,5.88V4h0ZM5,2h6V3H5Zm6,3.88C11,6,11,6,10.92,6H5.08S5,6,5,5.88V4h6Z" style="fill:#5accae"/><path d="M6,9H1a1,1,0,0,0-1,1v3.88A1.1,1.1,0,0,0,1.08,15H5.92A1.1,1.1,0,0,0,7,13.88V10A1,1,0,0,0,6,9ZM1,10H6v1H1Zm5,3.88C6,14,6,14,5.92,14H1.08S1,14,1,13.88V12H6Z" style="fill:#5accae"/><path d="M16,10a1,1,0,0,0-1-1H10a1,1,0,0,0-1,1v1.5H9v2.38A1.1,1.1,0,0,0,10.08,15h4.84A1.1,1.1,0,0,0,16,13.88V12h0Zm-6,0h5v1H10Zm5,3.88c0,.07-.05.12-.08.12H10.08S10,14,10,13.88V12h5Z" style="fill:#5accae"/></g></g></svg>