<svg viewBox="0 0 30 20" fill="none" xmlns="http://www.w3.org/2000/svg">
<path d="M0 2C0 0.895431 0.895431 0 2 0H28C29.1046 0 30 0.895431 30 2V18C30 19.1046 29.1046 20 28 20H2C0.89543 20 0 19.1046 0 18V2Z" fill="#5277D7"/>
<path d="M7.06926 5.53601C5.22125 5.53601 3.93725 6.56801 3.93725 8.10401C3.93725 9.64001 4.92125 10.156 6.44526 10.624C7.53725 10.96 7.96925 11.296 7.96925 11.932C7.96925 12.616 7.29726 13.096 6.48125 13.096C5.79725 13.096 5.17325 12.772 4.80125 12.208L3.66125 13.312C4.32125 14.104 5.30526 14.464 6.50525 14.464C8.17325 14.464 9.55325 13.504 9.55325 11.752C9.55325 10 8.19726 9.56801 6.84125 9.14801C6.00126 8.88401 5.52126 8.57201 5.52126 7.99601C5.52126 7.33601 6.06125 6.90401 6.91325 6.90401C7.50126 6.90401 8.06526 7.10801 8.40126 7.57601L9.50525 6.41201C8.90525 5.84801 8.04125 5.53601 7.06926 5.53601Z" fill="white"/>
<path d="M15.1599 5.53601C12.4479 5.53601 10.6719 7.39601 10.6719 10.036C10.6719 12.676 12.5439 14.464 15.1599 14.464C16.4079 14.464 17.5959 13.984 18.3279 12.952L17.0799 12.064C16.5999 12.676 15.9759 13.096 15.1719 13.096C13.3839 13.096 12.2559 11.692 12.2559 9.94001C12.2559 8.24801 13.4319 6.90401 15.1719 6.90401C15.9159 6.90401 16.4679 7.21601 16.9599 7.74401L18.1359 6.88001C17.3319 5.96801 16.3719 5.53601 15.1599 5.53601Z" fill="white"/>
<path d="M19.3427 5.75201V14.248H20.8547V10.504H24.8267V14.248H26.3387V5.75201H24.8267V9.13601H20.8547V5.75201H19.3427Z" fill="white"/>
</svg>
