<svg viewBox="0 0 16 16" fill="none" xmlns="http://www.w3.org/2000/svg">
<path d="M7.1914 5.142V8.0414H8.6914V5.142H7.1914ZM7.1914 8.0414V10.9408H8.6914V8.0414H7.1914ZM7.9414 8.7914H11.9118V7.2914H7.9414V8.7914ZM12.1618 9.0414V10.9408H13.6618V9.0414H12.1618ZM7.9414 7.2914H3.97099V8.7914H7.9414V7.2914ZM2.22099 9.0414V10.9408H3.72099V9.0414H2.22099ZM3.97099 7.2914C3.00449 7.2914 2.22099 8.07491 2.22099 9.0414H3.72099C3.72099 8.90333 3.83292 8.7914 3.97099 8.7914V7.2914ZM11.9118 8.7914C12.0499 8.7914 12.1618 8.90333 12.1618 9.0414H13.6618C13.6618 8.07491 12.8783 7.2914 11.9118 7.2914V8.7914Z" fill="#3E4359"/>
<rect x="0.899986" y="10.858" width="4.14201" height="4.14201" rx="1" fill="#A8AAB4"/>
<rect x="5.87039" y="10.858" width="4.14201" height="4.14201" rx="1" fill="#A8AAB4"/>
<rect x="10.8408" y="10.858" width="4.14201" height="4.14201" rx="1" fill="#A8AAB4"/>
<rect x="5.8708" y="1" width="4.14201" height="4.14201" rx="1" fill="#A8AAB4"/>
</svg>
