<svg xmlns="http://www.w3.org/2000/svg" viewBox="0 0 20 20">
  <defs>
    <style>
      .cls-1 {
        fill: none;
      }

      .cls-2 {
        fill: #c3efe6;
      }

      .cls-3 {
        fill: #5accae;
      }
    </style>
  </defs>
  <g id="Layer_2" data-name="Layer 2">
    <g id="Layer_1-2" data-name="Layer 1">
      <g id="Schema">
        <rect id="Transparent_Path" data-name="Transparent Path" class="cls-1" width="20" height="20"/>
        <g id="Schema-2" data-name="Schema">
          <path class="cls-2" d="M3.5,10A.5.5,0,0,1,3,9.5v-2A2.44,2.44,0,0,1,5.36,5H5.5a.5.5,0,0,1,0,1H5.36A1.43,1.43,0,0,0,4,7.5v2A.5.5,0,0,1,3.5,10Z"/>
          <g>
            <path class="cls-2" d="M6.5,5.5V4A.5.5,0,0,1,7,3.5h6a.5.5,0,0,1,.5.5V5.5Z"/>
            <path class="cls-3" d="M13,4V5H7V4h6m0-1H7A1,1,0,0,0,6,4V6h8V4a1,1,0,0,0-1-1Z"/>
          </g>
          <path class="cls-2" d="M16.5,10a.5.5,0,0,1-.5-.5v-2A1.43,1.43,0,0,0,14.64,6H14.5a.5.5,0,0,1,0-1h.14A2.44,2.44,0,0,1,17,7.5v2A.5.5,0,0,1,16.5,10Z"/>
          <path class="cls-3" d="M12.92,9H7.08A1.1,1.1,0,0,1,6,7.88V5.5a.5.5,0,0,1,1,0V7.88C7,8,7,8,7.08,8h5.84S13,8,13,7.88V5.5a.5.5,0,0,1,1,0V7.88A1.1,1.1,0,0,1,12.92,9Z"/>
          <g>
            <path class="cls-2" d="M2.5,13.5V12a.5.5,0,0,1,.5-.5H8a.5.5,0,0,1,.5.5v1.5Z"/>
            <path class="cls-3" d="M8,12v1H3V12H8m0-1H3a1,1,0,0,0-1,1v2H9V12a1,1,0,0,0-1-1Z"/>
          </g>
          <path class="cls-3" d="M7.92,17H3.08A1.1,1.1,0,0,1,2,15.87V13.5a.5.5,0,0,1,1,0v2.37C3,16,3,16,3.08,16H7.92S8,16,8,15.87V13.5a.5.5,0,0,1,1,0v2.37A1.1,1.1,0,0,1,7.92,17Z"/>
          <g>
            <path class="cls-2" d="M11.5,13.5V12a.5.5,0,0,1,.5-.5h5a.5.5,0,0,1,.5.5v1.5Z"/>
            <path class="cls-3" d="M17,12v1H12V12h5m0-1H12a1,1,0,0,0-1,1v2h7V12a1,1,0,0,0-1-1Z"/>
          </g>
          <path class="cls-3" d="M16.92,17H12.08A1.1,1.1,0,0,1,11,15.88V13.5a.5.5,0,0,1,1,0v2.38c0,.07,0,.12.08.12h4.84S17,16,17,15.88V13.5a.5.5,0,0,1,1,0v2.38A1.1,1.1,0,0,1,16.92,17Z"/>
        </g>
      </g>
    </g>
  </g>
</svg>
