<svg xmlns="http://www.w3.org/2000/svg" viewBox="0 0 16 16"><g id="Layer_3" data-name="Layer 3"><g id="tb_field"><rect id="Transparent_Path" data-name="Transparent Path" width="16" height="16" style="fill:none"/></g><g id="partitionedtable"><rect id="Transparent_path-2" data-name="Transparent path" width="16" height="16" style="fill:none"/><path d="M2,4V3A1,1,0,0,1,3,2H13a1,1,0,0,1,1,1V4A0,0,0,0,1,14,4H2.05A0,0,0,0,1,2,4Z" style="fill:#c3efe6"/><path d="M13,2a1,1,0,0,1,1,1V4H2V3A1,1,0,0,1,3,2H13m0-1H3A2,2,0,0,0,1,3V5H15V3a2,2,0,0,0-2-2Z" style="fill:#5accae"/><path d="M14.5,6a.5.5,0,0,0-.5.5V9H8.5V6.5a.5.5,0,0,0-1,0V9H2V6.5a.5.5,0,0,0-1,0v6A2.44,2.44,0,0,0,3.36,15H8a.5.5,0,0,0,.5-.5V10h6a.5.5,0,0,0,.5-.5v-3A.5.5,0,0,0,14.5,6Zm-7,8H3.36A1.43,1.43,0,0,1,2,12.5V10H7.5Z" style="fill:#5accae"/><path d="M12,14V12a2,2,0,1,0,2,2Z" style="fill:#ffefd0"/><path d="M15,13a2,2,0,0,0-2-2v2Z" style="fill:#ffb119"/></g></g></svg>