<svg viewBox="0 0 30 20" fill="none" xmlns="http://www.w3.org/2000/svg">
<path d="M0 2C0 0.895431 0.895431 0 2 0H28C29.1046 0 30 0.895431 30 2V18C30 19.1046 29.1046 20 28 20H2C0.89543 20 0 19.1046 0 18V2Z" fill="#5277D7"/>
<path d="M4.67007 5.75201V7.12001H7.27407V14.248H8.78607V7.12001H11.3901V5.75201H4.67007Z" fill="white"/>
<path d="M12.4247 5.75201V14.248H15.5447C17.3927 14.248 18.7007 13.456 18.7007 11.824C18.7007 10.768 17.9567 9.90401 16.8647 9.77201V9.74801C17.8247 9.44801 18.3407 8.76401 18.3407 7.88801C18.3407 6.25601 16.8887 5.75201 15.7847 5.75201H12.4247ZM13.9367 9.20801V7.04801H15.2447C16.2767 7.04801 16.8287 7.39601 16.8287 8.14001C16.8287 8.78801 16.2767 9.20801 15.3647 9.20801H13.9367ZM13.9367 12.952V10.504H15.4607C16.6127 10.504 17.1887 10.84 17.1887 11.704C17.1887 12.544 16.5767 12.952 15.3767 12.952H13.9367Z" fill="white"/>
<path d="M20.2059 5.75201V14.248H25.33V12.88H21.718V5.75201H20.2059Z" fill="white"/>
</svg>
