<svg width="29" height="22" viewBox="0 0 29 22" fill="none" xmlns="http://www.w3.org/2000/svg">
<rect y="0.5" width="29" height="21" rx="2" fill="#5277D7"/>
<path d="M4.084 7.004V8.372H6.688V15.5H8.2V8.372H10.804V7.004H4.084ZM11.8386 7.004V15.5H14.9586C16.8066 15.5 18.1146 14.708 18.1146 13.076C18.1146 12.02 17.3706 11.156 16.2786 11.024V11C17.2386 10.7 17.7546 10.016 17.7546 9.14C17.7546 7.508 16.3026 7.004 15.1986 7.004H11.8386ZM13.3506 10.46V8.3H14.6586C15.6906 8.3 16.2426 8.648 16.2426 9.392C16.2426 10.04 15.6906 10.46 14.7786 10.46H13.3506ZM13.3506 14.204V11.756H14.8746C16.0266 11.756 16.6026 12.092 16.6026 12.956C16.6026 13.796 15.9906 14.204 14.7906 14.204H13.3506ZM19.6199 7.004V15.5H24.7439V14.132H21.1319V7.004H19.6199Z" fill="white"/>
</svg>
