<svg viewBox="0 0 30 20" fill="none" xmlns="http://www.w3.org/2000/svg">
<path d="M0 2C0 0.895431 0.895431 0 2 0H28C29.1046 0 30 0.895431 30 2V18C30 19.1046 29.1046 20 28 20H2C0.89543 20 0 19.1046 0 18V2Z" fill="#5277D7"/>
<path d="M5.09406 5.75201L8.43006 14.248H9.73805L13.1701 5.75201H11.5381L9.15005 12.172L6.83406 5.75201H5.09406Z" fill="white"/>
<path d="M13.134 5.75201L15.642 14.248H17.034L19.002 7.78001H19.026L20.994 14.248H22.434L24.906 5.75201H23.37L21.702 11.872H21.678L19.806 5.75201H18.318L16.41 11.872H16.386L14.79 5.75201H13.134Z" fill="white"/>
</svg>
