<svg id="Layer_1" data-name="Layer 1" xmlns="http://www.w3.org/2000/svg"  viewBox="0 0 16 16"><g id="View"><rect id="Transparent_path" data-name="Transparent path" width="16" height="16" style="fill:none"/><path d="M2,4V3A1,1,0,0,1,3,2H13a1,1,0,0,1,1,1V4A0,0,0,0,1,14,4H2.05A0,0,0,0,1,2,4Z" style="fill:#c3efe6"/><path d="M13,2a1,1,0,0,1,1,1V4H2V3A1,1,0,0,1,3,2H13m0-1H3A2,2,0,0,0,1,3V5H15V3a2,2,0,0,0-2-2Z" style="fill:#5accae"/><path d="M14.5,6a.5.5,0,0,0-.5.5V9H8.5V6.5a.5.5,0,0,0-1,0V9H2V6.5a.5.5,0,0,0-1,0v6A2.44,2.44,0,0,0,3.36,15H8a.5.5,0,0,0,.5-.5V10H14a.5.5,0,0,0,1,0V6.5A.5.5,0,0,0,14.5,6Zm-7,8H3.36A1.43,1.43,0,0,1,2,12.5V10H7.5Z" style="fill:#5accae"/><path d="M12.5,15.25a3.69,3.69,0,0,1-2.71-1.61.28.28,0,0,1,0-.28,3.69,3.69,0,0,1,2.71-1.61,3.69,3.69,0,0,1,2.71,1.61.28.28,0,0,1,0,.28A3.69,3.69,0,0,1,12.5,15.25ZM10.31,13.5a3.07,3.07,0,0,0,2.19,1.25,3.07,3.07,0,0,0,2.19-1.25,3.07,3.07,0,0,0-2.19-1.25A3.07,3.07,0,0,0,10.31,13.5Z" style="fill:#5accae"/><path d="M14.66,13.46a3.68,3.68,0,0,0-1.39-1.06l-.19-.06-.15,0a3.23,3.23,0,0,0-.47-.05,3.11,3.11,0,0,0-2.14,1.24h0a3.11,3.11,0,0,0,2.14,1.24,3.39,3.39,0,0,0,.47-.05,3.32,3.32,0,0,0,1.73-1.17l0,0Zm-2.16,1a1,1,0,1,1,1-1A1,1,0,0,1,12.5,14.5Z" style="fill:#c3efe6"/><circle cx="12.5" cy="13.5" r="1" style="fill:#5accae"/></g></svg>