<svg viewBox="0 0 984 100" fill="none" xmlns="http://www.w3.org/2000/svg">
    <path
        d="M42.0477 47.995C41.6527 47.995 41.2614 47.9169 40.8958 47.7652C39.6845 47.2698 39.0856 46.0411 38.4516 44.7384C38.3734 44.5824 38.2978 44.4237 38.2169 44.2649L38.1548 44.2896C36.6333 44.8752 35.1873 45.428 33.8627 44.8834C33.4838 44.7294 33.1391 44.5003 32.8486 44.2094C32.5582 43.9185 32.3279 43.5718 32.1712 43.1894C31.9323 42.6147 31.8663 41.9812 31.9814 41.3685C32.0964 40.7558 32.3874 40.1912 32.8179 39.7458C33.2483 39.3004 33.7989 38.994 34.4005 38.8652C35.002 38.7363 35.6278 38.7907 36.199 39.0215C37.3239 39.484 37.8797 40.6005 38.4705 41.7828C38.5919 42.0291 38.7187 42.2809 38.8509 42.5299C40.4695 41.895 41.8724 41.3476 43.2293 41.9059C43.8967 42.1845 44.4481 42.6893 44.7896 43.3342C45.1312 43.9791 45.2417 44.7242 45.1023 45.4425C44.9629 46.1608 44.5823 46.8078 44.0253 47.2732C43.4683 47.7387 42.7694 47.9938 42.0477 47.995ZM39.5118 43.7669L39.6845 44.1199C40.224 45.2146 40.6853 46.1751 41.411 46.4707C41.8403 46.646 42.3207 46.6411 42.7464 46.4571C43.1722 46.2731 43.5084 45.9251 43.6812 45.4896C43.854 45.0541 43.8492 44.5668 43.6678 44.135C43.4864 43.7031 43.1433 43.362 42.7141 43.1867C41.8939 42.8638 40.8364 43.2414 39.5118 43.7669ZM34.3861 43.589C35.1954 43.9201 36.2907 43.5151 37.5613 43.028C37.4534 42.82 37.3509 42.6147 37.2511 42.4122C36.7601 41.4297 36.3365 40.5814 35.6918 40.3159C35.4813 40.2298 35.2561 40.187 35.0292 40.1898C34.8023 40.1926 34.5782 40.2411 34.3699 40.3323C33.946 40.5174 33.6113 40.8647 33.4385 41.2988C33.2657 41.7329 33.2689 42.2186 33.4472 42.6503C33.5346 42.8621 33.6626 43.0541 33.8238 43.2152C33.9849 43.3764 34.1761 43.5034 34.3861 43.589Z"
        fill="#E01A59" />
    <path
        d="M74.1478 69.9142C73.9913 69.9137 73.8396 69.8593 73.7175 69.7598C73.5955 69.6604 73.5103 69.5218 73.4761 69.3669L72.486 64.6434C72.46 64.5225 72.4662 64.3969 72.504 64.2793C72.5418 64.1617 72.6099 64.0565 72.7012 63.9745C72.7924 63.8925 72.9036 63.8367 73.0232 63.8129C73.1429 63.789 73.2666 63.7979 73.3817 63.8388L77.752 65.3658C77.8645 65.4045 77.9652 65.4722 78.0441 65.5622C78.1231 65.6522 78.1776 65.7615 78.2023 65.8793C78.2271 65.9972 78.2212 66.1195 78.1853 66.2343C78.1494 66.3492 78.0847 66.4526 77.9975 66.5344L74.6173 69.7336C74.4885 69.8512 74.3211 69.9156 74.1478 69.9142ZM74.0858 65.5547L74.5687 67.8644L76.2224 66.3018L74.0858 65.5547Z"
        fill="#89D3DF" />
    <path
        d="M20.3465 100C19.2099 100.003 18.0991 99.6569 17.1605 99.0069C16.4887 98.5663 15.272 97.0502 16.0436 95.4027C16.3134 94.8252 16.9608 93.9495 18.4716 93.9933C18.8007 92.469 19.8474 92.053 20.4949 91.9435C22.0164 91.6917 23.2088 92.9397 23.5676 93.9057C23.9264 94.8718 24.3365 96.9516 22.877 99.3435C22.7921 99.4832 22.6612 99.5879 22.5074 99.639C21.8104 99.8743 21.0811 99.9963 20.3465 100V100ZM18.3448 95.3863C17.5705 95.3863 17.379 95.7995 17.2899 95.9938C16.8448 96.9626 17.8942 97.8246 17.905 97.8328C18.4014 98.1612 19.6829 99.0041 21.8384 98.3802C22.7853 96.6944 22.6018 95.2905 22.27 94.3983C22.1486 94.0754 21.5335 93.1805 20.708 93.3228C20.2629 93.3967 19.8016 93.6293 19.7395 94.8006C19.7334 94.9005 19.7061 94.998 19.6596 95.0863C19.613 95.1746 19.5483 95.2517 19.4697 95.3124C19.3917 95.3733 19.3019 95.4168 19.2061 95.4399C19.1103 95.463 19.0107 95.4653 18.914 95.4465C18.7266 95.4081 18.536 95.3879 18.3448 95.3863ZM0.401966 4.5339L0 3.1984L3.11861 2.23235L3.52058 3.55964L0.401966 4.5339ZM5.45487 2.96852L5.05291 1.64396L8.09328 0.694336L8.49525 2.02984L5.45487 2.96852Z"
        fill="#63C1A0" />
    <path
        d="M3.47473 5.20166C3.32336 5.21102 3.17254 5.17586 3.04039 5.1004C2.69777 4.96083 2.428 4.55033 2.04222 3.28598C1.65644 2.02163 1.66453 1.53451 1.87226 1.24168C1.96128 1.06927 2.11506 0.779181 3.59882 0.319418C5.08259 -0.140345 5.37395 0.00196299 5.54391 0.10322C5.87843 0.229108 6.1536 0.650557 6.53129 1.89575C6.90898 3.14094 6.90898 3.64722 6.70125 3.94005C6.60953 4.11246 6.45845 4.40529 4.97468 4.86505C4.49228 5.04651 3.98757 5.15978 3.47473 5.20166ZM3.12672 1.96964C3.24949 2.58864 3.43016 3.19437 3.66627 3.77858C4.27735 3.65405 4.87535 3.47078 5.45219 3.23125C5.33062 2.61194 5.14991 2.0061 4.91263 1.4223C4.30151 1.54668 3.70349 1.72995 3.12672 1.96964Z"
        fill="#63C1A0" />
    <path
        d="M90.2884 23.03C89.7522 23.03 89.228 22.8687 88.7821 22.5665C88.3362 22.2643 87.9887 21.8347 87.7835 21.3322C87.5783 20.8296 87.5246 20.2766 87.6292 19.7431C87.7339 19.2096 87.9921 18.7195 88.3713 18.3349C88.7504 17.9502 89.2335 17.6883 89.7595 17.5821C90.2854 17.476 90.8305 17.5305 91.3259 17.7387C91.8214 17.9468 92.2448 18.2993 92.5427 18.7516C92.8406 19.2039 92.9996 19.7357 92.9996 20.2797C92.9989 21.0089 92.7131 21.708 92.2048 22.2237C91.6964 22.7393 91.0072 23.0293 90.2884 23.03V23.03ZM90.2884 18.925C90.0243 18.925 89.7661 19.0045 89.5465 19.1533C89.3269 19.3022 89.1557 19.5137 89.0547 19.7613C88.9536 20.0088 88.9271 20.2812 88.9787 20.5439C89.0302 20.8067 89.1574 21.0481 89.3441 21.2376C89.5309 21.427 89.7688 21.556 90.0279 21.6083C90.2869 21.6606 90.5554 21.6337 90.7994 21.5312C91.0434 21.4287 91.252 21.255 91.3987 21.0323C91.5455 20.8095 91.6238 20.5476 91.6238 20.2797C91.6203 19.9215 91.4784 19.579 91.2288 19.3257C90.9791 19.0724 90.6415 18.9286 90.2884 18.925V18.925Z"
        fill="#ECB32D" />
    <path
        d="M924.836 40.4857C924.013 40.4896 923.221 40.1679 922.629 39.5893C921.669 38.651 921.564 37.2548 921.453 35.7775L921.412 35.2386H921.346C919.676 35.2023 918.104 35.1688 917.047 34.1383C916.439 33.544 916.089 32.7295 916.074 31.8741C916.059 31.0186 916.381 30.1923 916.968 29.5768C917.556 28.9614 918.36 28.6072 919.206 28.5923C920.051 28.5774 920.867 28.9029 921.475 29.4972C922.369 30.3713 922.474 31.6419 922.579 32.9906C922.604 33.2699 922.626 33.5491 922.659 33.8451C924.436 33.8731 925.97 33.8982 927.046 34.9621C927.494 35.4101 927.801 35.9823 927.928 36.6064C928.055 37.2305 927.996 37.8787 927.76 38.4694C927.524 39.06 927.12 39.5667 926.6 39.9255C926.079 40.2843 925.466 40.4792 924.836 40.4857ZM923.617 38.5644C923.956 38.8977 924.413 39.0808 924.886 39.0735C925.358 39.0662 925.809 38.869 926.138 38.5253C926.468 38.1817 926.649 37.7197 926.641 37.2411C926.634 36.7624 926.439 36.3063 926.1 35.973C925.449 35.3363 924.301 35.2916 922.847 35.2665C922.858 35.4043 922.869 35.5383 922.88 35.6686C922.971 36.9224 923.051 38.0031 923.628 38.5644H923.617ZM918.029 33.1135C918.667 33.739 919.861 33.7809 921.252 33.8116C921.227 33.5743 921.208 33.3397 921.188 33.1107C921.095 31.9937 921.015 31.0247 920.501 30.5221C920.162 30.1888 919.705 30.0057 919.233 30.013C918.76 30.0203 918.309 30.2175 917.98 30.5612C917.65 30.9048 917.469 31.3668 917.477 31.8454C917.484 32.3241 917.679 32.7802 918.018 33.1135H918.029Z"
        fill="#63C1A0" />
    <path d="M979.04 99.6311L980.771 93.0928L982.13 93.4614L980.399 99.9997L979.04 99.6311Z" fill="#E01A59" />
    <path d="M977.175 96.3641L977.54 94.9883L984 96.7403L983.636 98.1159L977.175 96.3641Z" fill="#E01A59" />
    <path
        d="M935.597 74.2576C935.418 74.258 935.245 74.189 935.114 74.0649L932.838 71.8839L933.798 70.8451L935.625 72.5988L939.962 68.8262L940.881 69.9069L936.063 74.0956C935.932 74.205 935.767 74.2625 935.597 74.2576Z"
        fill="#ECB32D" />
    <path
        d="M954.958 8.1124C954.818 8.11223 954.682 8.07046 954.566 7.99232C951.958 6.21351 951.76 3.97393 951.696 3.24509C951.624 2.40735 952.069 0.486115 953.854 0.0672413C954.486 -0.0779681 955.592 -0.094723 956.5 1.15352C957.918 0.463775 958.906 1.05578 959.4 1.51934C960.561 2.60003 960.319 4.3565 959.778 5.25569C959.237 6.15487 957.846 7.80523 955.035 8.11519L954.958 8.1124ZM954.45 1.41043C954.357 1.41287 954.264 1.42504 954.174 1.44673C953.125 1.69247 953.101 3.08871 953.101 3.10268C953.153 3.71702 953.291 5.29199 955.142 6.65751C957.074 6.37827 958.075 5.33946 958.578 4.5073C958.76 4.20571 959.08 3.14456 958.451 2.55256C958.111 2.23421 957.623 1.99406 956.665 2.68939C956.583 2.74807 956.489 2.78813 956.39 2.80684C956.292 2.82556 956.19 2.82249 956.092 2.79785C955.995 2.77321 955.903 2.72757 955.825 2.66404C955.746 2.60051 955.682 2.52058 955.636 2.42969C955.187 1.57239 954.756 1.41322 954.45 1.41322V1.41043Z"
        fill="#89D3DF" />
    <path
        d="M887.187 85.0561C886.557 85.0561 885.94 84.867 885.416 84.5126C884.892 84.1582 884.484 83.6544 884.243 83.0651C884.001 82.4757 883.938 81.8272 884.061 81.2016C884.184 80.5759 884.488 80.0012 884.933 79.5501C885.379 79.0991 885.947 78.7919 886.565 78.6674C887.183 78.543 887.824 78.6069 888.406 78.851C888.989 79.0951 889.486 79.5085 889.837 80.0389C890.187 80.5693 890.374 81.1929 890.374 81.8308C890.373 82.686 890.037 83.5059 889.439 84.1106C888.842 84.7153 888.032 85.0554 887.187 85.0561V85.0561ZM887.187 80.0296C886.835 80.0296 886.491 80.1353 886.198 80.3332C885.905 80.5311 885.677 80.8124 885.543 81.1415C885.408 81.4706 885.373 81.8328 885.441 82.1822C885.51 82.5316 885.68 82.8525 885.928 83.1044C886.177 83.3563 886.494 83.5278 886.84 83.5973C887.185 83.6668 887.543 83.6312 887.868 83.4948C888.193 83.3585 888.471 83.1277 888.667 82.8315C888.862 82.5353 888.966 82.187 888.966 81.8308C888.966 81.3531 888.779 80.895 888.445 80.5572C888.111 80.2194 887.659 80.0296 887.187 80.0296Z"
        fill="#E01A59" />
</svg>