<svg viewBox="0 0 40 40" fill="none" xmlns="http://www.w3.org/2000/svg">
    <rect width="40" height="40" fill="white" />
    <path fill-rule="evenodd" clip-rule="evenodd"
        d="M14.6655 0C12.4544 0.00163091 10.665 1.79237 10.6666 3.99898C10.665 6.2056 12.4561 7.99634 14.6672 7.99797H18.6678V4.00061C18.6694 1.794 16.8783 0.00326181 14.6655 0C14.6672 0 14.6672 0 14.6655 0V0ZM14.6655 10.6661H4.00059C1.78948 10.6678 -0.00162976 12.4585 4.46614e-06 14.6651C-0.00326398 16.8717 1.78785 18.6625 3.99895 18.6657H14.6655C16.8766 18.6641 18.6678 16.8734 18.6661 14.6667C18.6678 12.4585 16.8766 10.6678 14.6655 10.6661Z"
        fill="#36C5F0" />
    <path fill-rule="evenodd" clip-rule="evenodd"
        d="M39.9999 14.6651C40.0015 12.4585 38.2104 10.6678 35.9993 10.6661C33.7882 10.6678 31.9971 12.4585 31.9987 14.6651V18.6657H35.9993C38.2104 18.6641 40.0015 16.8734 39.9999 14.6651ZM29.3333 14.6651V3.99898C29.3349 1.794 27.5454 0.00326181 25.3343 0C23.1232 0.00163091 21.3321 1.79237 21.3337 3.99898V14.6651C21.3305 16.8717 23.1216 18.6625 25.3327 18.6657C27.5438 18.6641 29.3349 16.8734 29.3333 14.6651Z"
        fill="#2EB67D" />
    <path fill-rule="evenodd" clip-rule="evenodd"
        d="M25.3329 40.0004C27.544 39.9987 29.3351 38.208 29.3334 36.0014C29.3351 33.7948 27.544 32.004 25.3329 32.0024H21.3323V36.0014C21.3306 38.2064 23.1217 39.9971 25.3329 40.0004ZM25.3329 29.3326H35.9994C38.2105 29.331 40.0016 27.5402 40 25.3336C40.0033 23.127 38.2122 21.3363 36.0011 21.333H25.3345C23.1234 21.3346 21.3323 23.1254 21.3339 25.332C21.3323 27.5402 23.1217 29.331 25.3329 29.3326Z"
        fill="#ECB22E" />
    <path fill-rule="evenodd" clip-rule="evenodd"
        d="M0.000245258 25.332C-0.00138897 27.5386 1.78972 29.3294 4.00083 29.331C6.21194 29.3294 8.00305 27.5386 8.00141 25.332V21.333H4.00083C1.78972 21.3346 -0.00138897 23.1254 0.000245258 25.332ZM10.6668 25.332V35.9982C10.6636 38.2048 12.4547 39.9955 14.6658 39.9988C16.8769 39.9972 18.668 38.2064 18.6664 35.9998V25.3353C18.6696 23.1286 16.8785 21.3379 14.6674 21.3346C12.4547 21.3346 10.6652 23.1254 10.6668 25.332C10.6668 25.332 10.6668 25.3336 10.6668 25.332Z"
        fill="#E01E5A" />
</svg>