<svg width="150" height="150" viewBox="0 0 150 150" fill="none" xmlns="http://www.w3.org/2000/svg">
    <path
        d="M61.2539 60.7285C60.0192 60.7344 58.8311 60.2519 57.9429 59.3839C56.5026 57.9765 56.3454 55.8821 56.1798 53.6663L56.1177 52.8579H56.0184C53.5145 52.8034 51.1554 52.7532 49.5702 51.2075C48.6581 50.316 48.1332 49.0943 48.1111 47.8111C48.089 46.5279 48.5714 45.2884 49.4523 44.3652C50.3332 43.442 51.5403 42.9108 52.8082 42.8884C54.076 42.866 55.3008 43.3543 56.2129 44.2458C57.5539 45.5569 57.7112 47.4628 57.8684 49.4859C57.9057 49.9048 57.9388 50.3237 57.9884 50.7677C60.6538 50.8096 62.9549 50.8473 64.569 52.4432C65.2407 53.1152 65.7007 53.9734 65.8913 54.9096C66.0819 55.8458 65.9944 56.8181 65.6399 57.7041C65.2854 58.59 64.6797 59.35 63.8992 59.8882C63.1187 60.4264 62.1983 60.7188 61.2539 60.7285ZM59.4246 57.8467C59.9339 58.3466 60.6186 58.6213 61.328 58.6103C62.0374 58.5993 62.7135 58.3035 63.2074 57.788C63.7014 57.2726 63.9727 56.5796 63.9619 55.8616C63.951 55.1436 63.6588 54.4594 63.1495 53.9595C62.1727 53.0045 60.451 52.9375 58.2699 52.8998C58.2864 53.1064 58.303 53.3075 58.3195 53.5029C58.4561 55.3837 58.5761 57.0047 59.4411 57.8467H59.4246ZM51.0436 49.6702C51.9997 50.6085 53.7918 50.6714 55.8777 50.7174C55.8404 50.3614 55.8115 50.0095 55.7825 49.6661C55.6418 47.9906 55.5217 46.5371 54.7519 45.7831C54.2426 45.2832 53.558 45.0085 52.8485 45.0195C52.1391 45.0305 51.4631 45.3263 50.9691 45.8417C50.4752 46.3572 50.2038 47.0502 50.2147 47.7681C50.2255 48.4861 50.5178 49.1703 51.0271 49.6702H51.0436Z"
        fill="#63C1A0" />
    <path d="M142.56 149.447L145.157 139.64L147.195 140.193L144.599 150L142.56 149.447Z" fill="#E01A59" />
    <path d="M139.763 144.546L140.31 142.482L150 145.11L149.454 147.174L139.763 144.546Z" fill="#E01A59" />
    <path
        d="M77.3951 111.386C77.1261 111.387 76.867 111.284 76.6708 111.097L73.2563 107.826L74.6966 106.268L77.4365 108.898L83.9426 103.239L85.3208 104.86L78.0945 111.143C77.8982 111.307 77.6496 111.394 77.3951 111.386Z"
        fill="#ECB32D" />
    <path
        d="M106.436 12.1686C106.227 12.1684 106.022 12.1057 105.848 11.9885C101.937 9.32027 101.639 5.96091 101.544 4.86765C101.436 3.61102 102.103 0.729173 104.781 0.100862C105.728 -0.116952 107.388 -0.142085 108.75 1.73028C110.877 0.695663 112.359 1.58368 113.099 2.27901C114.842 3.90005 114.478 6.53476 113.666 7.88354C112.855 9.23231 110.769 11.7079 106.552 12.1728L106.436 12.1686ZM105.675 2.11564C105.535 2.11931 105.396 2.13756 105.261 2.1701C103.688 2.53871 103.651 4.63308 103.651 4.65402C103.729 5.57554 103.936 7.93799 106.713 9.98628C109.61 9.56741 111.113 8.0092 111.866 6.76095C112.139 6.30857 112.619 4.71685 111.676 3.82884C111.167 3.35132 110.434 2.99109 108.998 4.03409C108.875 4.1221 108.734 4.18219 108.585 4.21027C108.437 4.23834 108.284 4.23374 108.138 4.19678C107.992 4.15982 107.855 4.09136 107.737 3.99607C107.619 3.90077 107.522 3.78088 107.454 3.64453C106.78 2.35859 106.134 2.11983 105.675 2.11983V2.11564Z"
        fill="#89D3DF" />
    <path
        d="M4.78025 127.584C3.83481 127.584 2.9106 127.3 2.12449 126.769C1.33838 126.237 0.725683 125.482 0.363877 124.598C0.0020712 123.714 -0.0925937 122.741 0.0918533 121.802C0.2763 120.864 0.731575 120.002 1.40011 119.325C2.06864 118.649 2.92039 118.188 3.84767 118.001C4.77495 117.814 5.7361 117.91 6.60958 118.276C7.48305 118.643 8.22963 119.263 8.75489 120.058C9.28015 120.854 9.56051 121.789 9.56051 122.746C9.55941 124.029 9.05543 125.259 8.15919 126.166C7.26296 127.073 6.04772 127.583 4.78025 127.584ZM4.78025 120.044C4.25228 120.044 3.73616 120.203 3.29716 120.5C2.85817 120.797 2.51601 121.219 2.31397 121.712C2.11192 122.206 2.05905 122.749 2.16206 123.273C2.26506 123.797 2.5193 124.279 2.89264 124.657C3.26597 125.034 3.74163 125.292 4.25946 125.396C4.77729 125.5 5.31404 125.447 5.80182 125.242C6.28961 125.038 6.70653 124.692 6.99985 124.247C7.29318 123.803 7.44975 123.281 7.44975 122.746C7.44975 122.03 7.1685 121.342 6.66787 120.836C6.16724 120.329 5.48825 120.044 4.78025 120.044Z"
        fill="#E01A59" />
</svg>