<svg width="16" height="16" viewBox="0 0 16 16" fill="none" xmlns="http://www.w3.org/2000/svg">
<path d="M8.00175 15C7.25172 14.6251 6.50021 14.2541 5.75216 13.8748C4.23822 13.109 2.72626 12.3378 1.21133 11.5766C1.05706 11.4995 1.00001 11.4125 1.00398 11.2389C1.01638 10.7268 1.00696 10.2141 1.01043 9.70151C1.01043 9.62444 0.973224 9.53394 1.06003 9.47278C1.15279 9.5051 1.24506 9.5409 1.33931 9.56974L8.00125 11.5865L8.00175 15Z" fill="#9D5027"/>
<path d="M8.00174 15C8.00174 13.8624 8.00174 12.7245 8.00174 11.5865C10.0719 10.9604 12.1413 10.333 14.2098 9.70453C14.4241 9.6389 14.6632 9.62995 14.8452 9.47183C14.9563 9.46537 15.0045 9.50713 15.003 9.62896C14.9975 10.1988 14.995 10.7691 15.003 11.3394C15.006 11.501 14.8894 11.5239 14.7927 11.5731C12.7003 12.6362 10.607 13.6981 8.51267 14.7589C8.34153 14.8439 8.1694 14.92 8.00174 15Z" fill="#F48435"/>
<path d="M14.8408 9.47185C14.6587 9.62997 14.4196 9.63892 14.2053 9.70455C12.1378 10.3377 10.0685 10.965 7.99728 11.5866L1.33534 9.5698C1.24109 9.54096 1.14882 9.50516 1.05606 9.47284C2.12058 9.32765 3.18312 9.16754 4.25558 9.08997C4.79479 9.27693 5.35681 9.35649 5.91734 9.44201C6.2492 9.45792 6.56221 9.30328 6.89804 9.34257C6.93474 9.45593 6.82164 9.6409 7.0151 9.67521C7.34497 9.73587 7.66741 9.84377 8.0072 9.84825C8.25523 9.85173 8.49432 9.77018 8.73739 9.72891C9.09504 9.66825 9.09355 9.6598 9.09801 9.29483L10.0871 9.444C10.2164 9.4326 10.3449 9.41384 10.4721 9.38782C10.8947 9.27842 11.3411 9.26848 11.7469 9.08948C12.7833 9.175 13.8146 9.30246 14.8408 9.47185Z" fill="#FABE91"/>
<path d="M11.7469 9.08793C11.3411 9.26842 10.8947 9.27837 10.4721 9.38627C10.3443 9.41236 10.2151 9.43112 10.0851 9.44245L10.0911 3.46277C10.5018 3.50255 10.8927 3.65818 11.3079 3.67011C11.3362 3.68652 11.3635 3.71636 11.3917 3.71685C11.6824 3.72531 11.7291 3.88591 11.7276 4.15044C11.7176 5.73859 11.7276 7.32674 11.7276 8.91539L11.7469 9.08793Z" fill="#F48435"/>
<path d="M8.00719 9.84766C7.6674 9.84319 7.34496 9.73529 7.01509 9.67463C6.82163 9.63932 6.93473 9.45535 6.89802 9.34198V5.01608C6.89802 3.97687 6.90497 2.93716 6.89802 1.89795C6.89802 1.72641 6.94763 1.64337 7.10984 1.60509C7.41293 1.53398 7.69319 1.38581 8.00273 1.34155C8.00273 1.99491 8.00273 2.64811 8.00273 3.30114L8.00719 9.84766Z" fill="#9D5027"/>
<path d="M8.0072 9.8477L8.00174 3.29918C8.00174 2.64649 8.00174 1.99329 8.00174 1.3396C8.34401 1.39678 8.65801 1.54794 8.98987 1.63794C9.12975 1.67573 9.10197 1.78213 9.10197 1.87661C9.10197 2.44643 9.10197 3.01609 9.10197 3.58559C9.10197 5.48865 9.10197 7.39155 9.10197 9.29428C9.09751 9.65925 9.099 9.6677 8.74135 9.72836C8.49431 9.76963 8.2577 9.85118 8.0072 9.8477Z" fill="#F48435"/>
<path d="M13.6071 8.59719C13.623 8.71802 13.551 8.74636 13.4498 8.76576C13.1026 8.83388 12.7579 8.91045 12.4121 8.98404L12.4181 1.42615C12.6577 1.45698 12.8526 1.62802 13.0976 1.63996C13.1472 1.67078 13.1904 1.721 13.242 1.72946C13.5828 1.78564 13.6101 2.01039 13.6086 2.30475C13.5996 4.40157 13.6071 6.49938 13.6071 8.59719Z" fill="#F48435"/>
<path d="M5.91836 9.44241C5.35782 9.35689 4.7958 9.27733 4.25659 9.09037C4.25659 9.0322 4.26106 8.97353 4.26354 8.91535C4.26899 8.8159 4.27941 8.71646 4.27941 8.61701C4.27941 7.59239 4.27941 6.56776 4.27941 5.54314C4.27941 5.13242 4.27941 5.13242 4.6822 5.06331L5.91538 4.97083C5.91736 6.46185 5.91836 7.95238 5.91836 9.44241Z" fill="#9D5027"/>
<path d="M14.0982 1C14.3566 1.1258 14.6131 1.25607 14.8745 1.37541C14.9737 1.42165 14.997 1.48977 14.997 1.59071C14.995 3.83123 14.995 6.07191 14.997 8.31276C14.997 8.43408 14.9638 8.48878 14.8348 8.5027C14.5898 8.53005 14.3472 8.57778 14.1031 8.61657C14.1031 6.07771 14.1015 3.53886 14.0982 1Z" fill="#F48435"/>
<path d="M12.4166 1.42566L12.4107 8.98355L11.7301 8.91692C11.7271 7.32828 11.7182 5.74012 11.7301 4.15197C11.7301 3.88745 11.6849 3.72684 11.3943 3.71839C11.366 3.71839 11.3387 3.68806 11.3104 3.67165C11.3104 3.07 11.3104 2.46785 11.3069 1.86571C11.3069 1.73096 11.3327 1.65687 11.484 1.63002C11.7975 1.57483 12.0976 1.45301 12.4166 1.42566Z" fill="#9E5126"/>
<path d="M9.09802 9.29327C9.09802 7.39054 9.09802 5.48764 9.09802 3.58458L10.0901 3.46326L10.0852 9.44244L9.09802 9.29327Z" fill="#9E5126"/>
<path d="M3.58692 8.98296C3.23968 8.91036 2.89691 8.83379 2.55067 8.76616C2.45146 8.74628 2.37854 8.71644 2.39293 8.5986V6.44957C2.39541 5.75842 2.40483 5.06777 2.39541 4.37712C2.39293 4.19613 2.44997 4.13795 2.62309 4.11607C2.94751 4.0743 3.26796 4.00519 3.59039 3.94751C3.58807 5.62616 3.58692 7.30464 3.58692 8.98296Z" fill="#9D5027"/>
<path d="M5.91834 9.44252C5.91834 7.95282 5.91752 6.46295 5.91586 4.97292C6.24474 4.94507 6.56817 5.04949 6.89754 5.01469V9.34059C6.56321 9.3033 6.24921 9.45794 5.91834 9.44252Z" fill="#F48435"/>
<path d="M14.0982 1C14.1002 3.53886 14.102 6.07771 14.1037 8.61657L13.6076 8.59668C13.6076 6.49936 13.6002 4.40155 13.6076 2.30423C13.6076 2.00987 13.5818 1.78513 13.241 1.72894C13.1914 1.72049 13.1448 1.67027 13.0967 1.63944C13.0932 1.23221 13.0927 1.23022 13.5044 1.13027C13.7019 1.08254 13.8928 1.00646 14.0982 1Z" fill="#9D5027"/>
<path d="M3.58691 8.98296C3.58691 7.30497 3.58691 5.62649 3.58691 3.94751C3.88802 3.97685 4.18862 4.00917 4.48972 4.03403C4.62911 4.04596 4.68814 4.10016 4.67971 4.25132C4.66731 4.52181 4.67971 4.7938 4.67971 5.06528C4.27692 5.1339 4.27692 5.1339 4.27692 5.54461C4.27692 6.56957 4.27692 7.59419 4.27692 8.61849C4.27692 8.71793 4.2665 8.81738 4.26105 8.91682L3.58691 8.98296Z" fill="#F48435"/>
<path d="M1.9048 8.62502C1.77533 8.60364 1.64586 8.58425 1.51689 8.56038C1.00596 8.46392 1.00595 8.46093 1.00645 7.93138C1.00645 7.50327 1.01141 7.07466 1.00347 6.64655C1.0005 6.50384 1.02778 6.43622 1.18999 6.44765C1.4271 6.46456 1.6657 6.4581 1.9038 6.46158C1.9038 7.18256 1.90414 7.90371 1.9048 8.62502Z" fill="#9D5027"/>
<path d="M1.90482 8.62509C1.90482 7.9041 1.90482 7.18295 1.90482 6.46164L2.39293 6.44971V8.59874L1.90482 8.62509Z" fill="#F48435"/>
</svg>
