<svg width="16" height="16" fill="none" xmlns="http://www.w3.org/2000/svg"><g clip-path="url(#AzureSynapse__a)"><path d="M8 1 1.894 4.492v6.977L8 15l6.106-3.492v-7L8 1Zm4.978 9.777L8 13.654l-4.978-2.847V5.184L8 2.307l4.978 2.885v5.585Z" fill="#0078D4"/><path d="M8 1 1.894 4.492l1.128.692L8 2.307l4.978 2.877 1.128-.692L8 1Z" fill="url(#AzureSynapse__b)"/><path d="M10.909 9.147a.568.568 0 0 0-.251-.222 4.539 4.539 0 0 0-3.483-2.603l5.038-2.91-1.172-.673-5.737 3.317a.583.583 0 0 0 .293 1.088.533.533 0 0 0 .07-.017l.097.406a3.36 3.36 0 0 1 3.762 1.741L3.81 12.577l1.167.674 5.719-3.307a.567.567 0 0 0 .188-.183l.058-.014c-.005-.023-.014-.043-.02-.065a.572.572 0 0 0-.013-.535Z" fill="#50E6FF"/><path d="M10.404 8.01a1.439 1.439 0 1 0 0 2.878 1.439 1.439 0 0 0 0-2.878ZM5.596 5.097a1.439 1.439 0 1 0 0 2.877 1.439 1.439 0 0 0 0-2.877Z" fill="url(#AzureSynapse__c)"/></g><defs><linearGradient id="AzureSynapse__b" x1="8" y1="5.184" x2="8" y2="1" gradientUnits="userSpaceOnUse"><stop offset=".199" stop-color="#005BA1"/><stop offset="1" stop-color="#0078D4"/></linearGradient><linearGradient id="AzureSynapse__c" x1="8" y1="10.888" x2="8" y2="5.112" gradientUnits="userSpaceOnUse"><stop stop-color="#198AB3"/><stop offset=".172" stop-color="#32BEDD"/><stop offset=".5" stop-color="#198AB3"/><stop offset=".662" stop-color="#32BEDD"/><stop offset=".975" stop-color="#50E6FF"/></linearGradient><clipPath id="AzureSynapse__a"><path fill="#fff" transform="translate(1 1)" d="M0 0h14v14H0z"/></clipPath></defs></svg>