<svg width="16" height="16" fill="none" xmlns="http://www.w3.org/2000/svg"><path d="M4.04 13.583 1.168 8.61a1.258 1.258 0 0 1 0-1.258L4.04 2.379a1.258 1.258 0 0 1 1.089-.629h5.742a1.258 1.258 0 0 1 1.09.629l2.87 4.973a1.258 1.258 0 0 1 0 1.258l-2.87 4.973a1.258 1.258 0 0 1-1.09.628H5.13a1.258 1.258 0 0 1-1.09-.628Z" fill="url(#Bigquery__a)"/><path opacity=".07" d="M14.04 10.44 9.82 6.217 8 5.73l-1.633.607-.631 1.644.507 1.83 4.478 4.477.95-.042 2.37-3.806Z" fill="#000"/><path d="M8 5.444a2.537 2.537 0 1 0 0 5.074 2.537 2.537 0 0 0 0-5.074Zm0 4.462a1.925 1.925 0 1 1 0-3.85 1.925 1.925 0 0 1 0 3.85" fill="#fff"/><path d="M6.796 7.883v.788c.117.2.281.369.479.49V7.883h-.48Zm.95-.665v2.123a1.376 1.376 0 0 0 .48.004V7.217h-.48Zm.994.992v.937a1.41 1.41 0 0 0 .48-.514V8.21h-.48Zm1.086 1.333-.263.263a.119.119 0 0 0 0 .168l.997.997a.12.12 0 0 0 .168 0l.263-.263a.12.12 0 0 0 0-.168l-.997-.997a.12.12 0 0 0-.168 0Z" fill="#fff"/><defs><linearGradient id="Bigquery__a" x1="8" y1="1.75" x2="8" y2="14.192" gradientUnits="userSpaceOnUse"><stop stop-color="#4387FD"/><stop offset="1" stop-color="#4683EA"/></linearGradient></defs></svg>