<svg width="16" height="16" fill="none" xmlns="http://www.w3.org/2000/svg"><path d="M14.237 1.264a1.483 1.483 0 0 0-.522-.225 1.647 1.647 0 0 0-.583-.023c-.204.028-.4.091-.583.186l-.854.47-.854.469-.853.47-.852.472a2.477 2.477 0 0 1-1.202.34 2.3 2.3 0 0 1-.615-.075 2.45 2.45 0 0 1-.592-.244l-.828-.45-.827-.45-.827-.45-.827-.448a1.516 1.516 0 0 0-1.036-.222 1.66 1.66 0 0 0-1.357 1.3 1.5 1.5 0 0 0 .185 1.04l.291.531.64 1.167c.23.425.463.85.638 1.166l.29.532c.109.183.193.379.25.583a2.316 2.316 0 0 1-.235 1.833l-.456.847-.455.845-.455.846-.455.845a1.89 1.89 0 0 0-.174.439 1.555 1.555 0 0 0-.05.443c.005.147.033.292.084.43.049.144.12.28.211.402.114.155.255.287.417.392a1.665 1.665 0 0 0 1.688.087l.885-.486.885-.485.886-.486.885-.485a4.782 4.782 0 0 1-.734-.65 6.55 6.55 0 0 1-.611-.774 10.203 10.203 0 0 1-.514-.848c-.141-.258-.272-.52-.398-.78.223.417.702.86 1.325 1.303.757.522 1.546.995 2.363 1.417.857.457 1.739.888 2.5 1.27.76.382 1.405.712 1.788.965.309.183.676.24 1.026.162a1.61 1.61 0 0 0 .833-.519c.227-.258.374-.576.425-.916a1.571 1.571 0 0 0-.21-1.038l-.523-.943-1.146-2.083-1.146-2.084-.518-.935a5.958 5.958 0 0 0-.361-.542 5.185 5.185 0 0 0-.417-.488 4.523 4.523 0 0 0-1.011-.789c.293.134.59.272.882.421.294.148.58.312.857.49.276.176.538.375.782.594.249.222.472.471.667.742l.47-.862.47-.861.471-.864.471-.861a1.552 1.552 0 0 0 .144-1.303 1.44 1.44 0 0 0-.217-.409 1.478 1.478 0 0 0-.411-.421ZM3.317 13.333a.616.616 0 0 1-.646.658.653.653 0 0 1-.012-1.305.616.616 0 0 1 .659.647Zm-1.29-10.64a.617.617 0 0 1 .647-.659.617.617 0 0 1 .66.648.617.617 0 0 1-.646.658.618.618 0 0 1-.661-.647Zm11.94 10.62a.654.654 0 1 1-.658-.647.617.617 0 0 1 .658.647ZM9.551 7.766c-.192-.315-.51-.439-.89-.434a1.303 1.303 0 0 0-.875 2.229A1.554 1.554 0 0 1 6.44 7.8c.121-.826.942-1.468 1.768-1.352.698.118 1.272.62 1.34 1.317h.002Zm4.463-5.128a.653.653 0 0 1-1.306.011.653.653 0 0 1 1.306-.011Z" fill="#FF694B"/></svg>