<svg width="16" height="16" viewBox="0 0 16 16" fill="none" xmlns="http://www.w3.org/2000/svg">
<path d="M4.85038 7.12019L3.19641 7.03221V4.12897L4.85038 4.44568V7.12019Z" fill="#F58536"/>
<path d="M13.9825 7.15539L12.4341 7.20818L11.1321 7.1202L12.7685 7.03223L13.9825 7.15539Z" fill="#6B3A19"/>
<path d="M11.1321 5.34308L12.8036 5.09674V7.03224L11.1321 7.12021V5.34308Z" fill="#9D5025"/>
<path d="M2 10.1466L8.00004 11.6774V8H2V10.1466Z" fill="#9D5025"/>
<path d="M6.20532 12.5396L8.00005 13.1906V15.2493L6.20532 14.3519V12.5396Z" fill="#9D5025"/>
<path d="M6.20532 1.64804L8.00005 0.750671V6.55716L6.20532 6.73311V1.64804Z" fill="#9D5025"/>
<path d="M2 7.15538L3.19649 7.03221V4.12897L2 4.60404V7.15538Z" fill="#9D5025"/>
<path d="M14 8H8V11.6774L14 10.1466V8Z" fill="#F58536"/>
<path d="M9.79473 1.64804L8 0.750671V6.55716L9.79473 6.73311V1.64804Z" fill="#F58536"/>
<path d="M14.0001 5.44865L12.8036 5.09674V7.03223L14.0001 7.1554V5.44865Z" fill="#F58536"/>
<path d="M9.79473 12.5396L8 13.1906V15.2493L9.79473 14.3519V12.5396Z" fill="#F58536"/>
<path d="M9.79479 12.5396L8.00006 12.0469L6.20532 12.5396L8.00006 13.1906L9.79479 12.5396Z" fill="#FBBF93"/>
<path d="M6.20532 6.73314L8.00006 6.55719L9.79479 6.73314L8.00006 6.87391L6.20532 6.73314Z" fill="#6B3A19"/>
<path d="M2 7.15539L3.17889 7.03223L4.85046 7.1202L3.56599 7.20818L2 7.15539Z" fill="#6B3A19"/>
</svg>
