<svg width="16" height="16" fill="none" xmlns="http://www.w3.org/2000/svg"><path d="M7.972 1a1.224 1.224 0 0 0-1.015 1.907l.523-.522a.516.516 0 1 1 .33.329l-.523.522A1.223 1.223 0 1 0 7.972 1Z" fill="#34A853"/><path d="M7.486 4.566a1.9 1.9 0 0 0-.382-1.146l-.678.677a.973.973 0 0 1-.186 1.174l.369.901c.546-.351.876-.957.877-1.606Z" fill="#FBBC04"/><path d="M5.59 5.538h-.018a.973.973 0 1 1 .535-1.787l.671-.671a1.913 1.913 0 1 0-.82 3.36l-.368-.902Z" fill="#EA4335"/><path d="M7.998 6.318c-.425 0-.847.061-1.254.183l.538 1.314a2.928 2.928 0 1 1-.658.254l-.531-1.31a4.341 4.341 0 1 0 1.909-.442h-.004Z" fill="#4285F4"/></svg>