<svg width="16" height="16" fill="none" xmlns="http://www.w3.org/2000/svg"><path d="m9.676 7.536-2.804.915-2.44 1.077-.681.18a19.692 19.692 0 0 1-1.125.981c-.172.136-.427.39-.556.551-.193.242-.345.498-.411.695-.117.356-.06.716.165 1.05.288.423.863.855 1.532 1.15.342.15.916.343 1.348.451.719.182 2.109.38 2.874.41.154.006.362.006.37 0 .018-.011.136-.238.274-.52.47-.96.81-1.86.994-2.63.11-.466.197-1.087.254-1.822.015-.206.021-.895.009-1.128a7.92 7.92 0 0 0-.106-.994.257.257 0 0 1-.007-.087c.009-.006.034-.014.38-.114l-.07-.165Zm-.64.375c.025 0 .093.65.11 1.061a.568.568 0 0 1-.002.145 8.95 8.95 0 0 1-.602-.354c-.212-.134-.615-.4-.678-.452-.021-.015-.02-.017.155-.076.294-.1.993-.324 1.017-.324Zm-1.429.47c.02 0 .068.028.185.1.436.273 1.03.604 1.284.714.078.034.087.021-.093.144a9.239 9.239 0 0 1-1.456.782c-.104.047-.19.083-.193.083a.55.55 0 0 1 .025-.117 6.25 6.25 0 0 0 .227-1.49c.002-.212.002-.212.021-.218-.004.002-.002.002 0 .002Zm-.294.113c.013.012.004.487-.013.616a5.394 5.394 0 0 1-.244 1.07c-.008.011-.298-.273-.394-.383a2.867 2.867 0 0 1-.39-.568 1.785 1.785 0 0 1-.118-.288c.034-.024 1.15-.456 1.159-.447Zm-1.386.544c.002 0 .004 0 .006.002a2.864 2.864 0 0 0 .384.706 3.586 3.586 0 0 0 .593.617c.013.012.017.01-.328.142-.4.152-.837.305-1.337.466l-.359.116c-.019.007-.012-.004.043-.09.248-.389.625-1.15.837-1.688a5.65 5.65 0 0 0 .078-.207c.009-.03.02-.04.047-.055a.166.166 0 0 1 .036-.009Zm-.424.176a4.74 4.74 0 0 1-.208.439 16.438 16.438 0 0 1-.837 1.44c-.01.016-.015.011-.048-.054a1.944 1.944 0 0 1-.164-.492 1.979 1.979 0 0 1 .011-.631c.028-.132.025-.13.089-.162a26.12 26.12 0 0 1 1.157-.54Zm3.656.148v.09a11.53 11.53 0 0 1-.15 1.746s-.062-.017-.134-.039a5.47 5.47 0 0 1-.975-.417c-.206-.112-.505-.297-.496-.305l.195-.104c.415-.216.814-.45 1.16-.68.128-.087.323-.227.366-.265l.034-.026Zm-5.256.628c.009 0 .006.017-.006.093a3 3 0 0 0-.024.227c-.017.31.034.538.187.852.042.086.076.158.074.16-.015.013-1.418.425-1.858.545l-.255.07c-.015.004-.017.002-.01-.034.048-.311.286-.718.616-1.062.22-.228.397-.362.698-.534.216-.122.548-.307.574-.315 0-.002.002-.002.004-.002Zm3.306.59a.861.861 0 0 1 .114.062 6.383 6.383 0 0 0 1.624.632l.048.01-.067.039c-.282.156-1.208.542-2.156.896-.137.05-.273.102-.298.112a.154.154 0 0 1-.05.015l.088-.167c.265-.496.532-1.1.667-1.52.017-.04.028-.076.03-.078Zm-.337.111a.61.61 0 0 1-.036.098c-.184.447-.426.934-.735 1.48-.079.14-.144.253-.147.253-.002 0-.065-.038-.142-.085-.449-.275-.847-.614-1.108-.943l-.038-.046.193-.053c.69-.189 1.278-.392 1.86-.642l.153-.062Zm2.094.731s.002.002 0 0c.002.049-.106.486-.195.801a22.982 22.982 0 0 1-.352 1.134 8.86 8.86 0 0 1-1.75-.492 4.991 4.991 0 0 1-.373-.165 2.463 2.463 0 0 1 .284-.133c.964-.422 1.964-.901 2.307-1.107a.275.275 0 0 1 .079-.038Zm-4.834.165c.004.005-.265.393-.642.92l-.341.481a8.42 8.42 0 0 0-.193.284l-.09.138-.095-.08a3.532 3.532 0 0 1-.394-.403 1.74 1.74 0 0 1-.354-.685C2 12.141 2 12.09 2.021 12.083c.032-.008.598-.142 1.128-.264a92.88 92.88 0 0 0 .983-.232Zm.271.104.068.077c.305.34.617.593.994.813a.562.562 0 0 1 .114.075 129.485 129.485 0 0 1-2.526.892.36.36 0 0 1-.042-.028l-.038-.027.061-.09c.2-.287.45-.603.994-1.26l.375-.452Zm1.691 1.21a3.07 3.07 0 0 1 .21.075c.276.103.494.17.786.243.36.091.882.18 1.19.206.046.004.071.008.063.015-.015.008-.327.112-.555.184a151.188 151.188 0 0 1-2.705.795c-.02.004-.09-.015-.09-.024 0-.004.05-.07.112-.141.305-.365.608-.772.86-1.158.07-.106.13-.193.13-.195Zm-.373.011c.002.002-.148.244-.41.66-.113.175-.238.374-.283.444l-.142.233-.061.108-.032-.008a17.83 17.83 0 0 1-.754-.267 5.251 5.251 0 0 1-.494-.227c-.17-.091-.381-.227-.365-.23.005-.003.295-.082.645-.177a52.237 52.237 0 0 0 1.78-.504.855.855 0 0 1 .116-.032Zm2.639.619h.002c.008.021-.335.975-.46 1.276-.028.067-.038.084-.053.082a38.859 38.859 0 0 1-2.473-.403l-.05-.01.315-.072a17.071 17.071 0 0 0 1.335-.337c.417-.127.83-.286 1.248-.481a.912.912 0 0 1 .136-.055Z" fill="url(#MSSQL__a)"/><path d="M6.785 1c-.046-.006-.799.265-1.284.462-.655.267-1.163.521-1.477.742-.117.082-.263.229-.286.286a.198.198 0 0 0-.013.072l.284.27.676.215 1.609.288 1.839.316.02-.159-.018-.002-.241-.038-.05-.087c-.25-.44-.525-.987-.686-1.356a7.01 7.01 0 0 1-.31-.854c-.035-.144-.04-.153-.063-.155Zm-.034.108h.002c.003.002.011.062.02.132.035.296.101.582.205.892.078.233.078.22-.013.193C6.75 2.265 5.781 2.098 5.08 2a2.802 2.802 0 0 1-.207-.031c-.009-.009.506-.278.733-.384.29-.133 1.087-.466 1.146-.477Zm-2.043.95.083.027c.45.153 1.579.369 2.202.42l.131.012a.98.98 0 0 1-.133.07c-.301.15-.632.335-.86.477a.878.878 0 0 1-.138.077c-.009 0-.053-.009-.1-.015l-.085-.013-.212-.208a88.803 88.803 0 0 0-.777-.748l-.11-.1Zm-.084.065.298.373c.164.206.329.407.365.452.036.044.066.08.064.082a9.288 9.288 0 0 1-1.126-.25l-.116-.038v-.03c.002-.142.182-.353.487-.57l.028-.019Zm2.538.509c.009 0 .02.019.045.076.072.16.297.587.352.67.017.027.046.03-.252-.02a26.9 26.9 0 0 1-.95-.158.22.22 0 0 1 .049-.032c.222-.123.447-.28.646-.447.049-.04.093-.079.102-.085.002-.004.006-.006.008-.004Z" fill="url(#MSSQL__b)"/><path d="M3.753 2.46s-.047.074-.002.185c.027.067.108.15.199.235 0 0 .943.92 1.057 1.05.521.603.748 1.196.77 2.014.012.526-.087.988-.335 1.524C5 8.43 4.07 9.492 2.636 10.67l.21-.07c.135-.102.32-.21.752-.447.998-.547 2.121-1.05 3.499-1.566 1.983-.746 5.245-1.62 7.101-1.903l.193-.03-.03-.047a6.529 6.529 0 0 0-.426-.6 5.091 5.091 0 0 0-1.504-1.252c-.831-.464-1.905-.826-3.266-1.095-.256-.051-.82-.149-1.278-.219-.97-.15-1.598-.254-2.289-.373a23.928 23.928 0 0 1-.864-.158 5.492 5.492 0 0 1-.562-.151c-.152-.06-.373-.119-.42-.299Zm.546.53c.002-.002.036.01.08.025.081.028.185.06.308.094l.28.074.235.061c.015.015.229.7.301.962.028.1.049.185.047.185a.428.428 0 0 1-.053-.083 4.411 4.411 0 0 0-1.094-1.235.904.904 0 0 1-.104-.083Zm1.043.288a.86.86 0 0 1 .114.02c.36.08 1.007.203 1.42.273a.52.52 0 0 1 .125.027.19.19 0 0 1-.057.036c-.07.036-.352.204-.445.267a4.06 4.06 0 0 0-.6.48l-.114.111s-.013-.036-.023-.08a6.867 6.867 0 0 0-.38-1.038.91.91 0 0 1-.042-.098c0 .004 0 .002.002.002Zm1.835.35c.013.004.034.076.077.235a3.47 3.47 0 0 1 .089 1.153l-.007.021-.11-.036c-.227-.072-.596-.18-.911-.269a3.616 3.616 0 0 1-.327-.098c0-.012.263-.275.375-.375.214-.188.795-.637.814-.631Zm.146.021c.007-.006.878.144 1.274.22.295.058.723.147.748.157.013.005-.032.03-.174.094a9.15 9.15 0 0 0-1.388.754 6.596 6.596 0 0 1-.201.131c-.002 0-.004-.061-.004-.135 0-.403-.08-.81-.23-1.153a.32.32 0 0 1-.025-.068Zm2.253.445c.006.006-.021.178-.046.28-.077.316-.282.784-.534 1.225a1.397 1.397 0 0 1-.09.144.905.905 0 0 1-.127-.068 6.901 6.901 0 0 0-.83-.407c-.085-.036-.16-.066-.161-.07-.015-.013.667-.464 1.027-.68.286-.174.753-.432.761-.424Zm.161.026a12.499 12.499 0 0 1 2.05.693l.154.07-.108.025a15.799 15.799 0 0 0-2.564.803.546.546 0 0 1 .044-.108c.227-.481.373-.983.41-1.411.001-.04.008-.072.014-.072ZM5.897 5c.007-.006.301.064.46.108.242.068.755.24.755.252 0 .002-.058.051-.125.11a15.36 15.36 0 0 0-.865.785 3.05 3.05 0 0 1-.18.165c-.004 0-.007-.013-.004-.03a4.778 4.778 0 0 0-.03-1.278.735.735 0 0 1-.01-.112Zm6.19.006c.005.005-.135.225-.224.35-.127.182-.314.424-.736.954l-.555.701c-.085.106-.155.195-.157.195a.735.735 0 0 1-.059-.085 4.38 4.38 0 0 0-.858-.947 4.95 4.95 0 0 0-.157-.127.236.236 0 0 1-.042-.036c0-.006.36-.161.633-.271a21.714 21.714 0 0 1 1.621-.579c.257-.08.53-.159.534-.155Zm.164.043a.487.487 0 0 1 .12.06 7.19 7.19 0 0 1 1.804 1.464l-.212.016c-.892.068-2.035.257-3.132.522l-.144.032c-.005 0 .078-.083.182-.183.644-.62.939-1.013 1.286-1.712.049-.104.091-.193.096-.2-.003 0-.003 0 0 0Zm-4.72.483c.03.006.305.136.513.24.19.095.477.247.492.26.002.002-.1.055-.225.117-.398.199-.74.387-1.096.604a7.38 7.38 0 0 1-.188.112c-.009 0-.007-.009.05-.112a4.39 4.39 0 0 0 .43-1.168c.01-.032.018-.053.024-.053Zm-.275.05c.006.007-.066.268-.11.41a5.217 5.217 0 0 1-.376.86l-.112.195-.053.085-.119-.114a1.557 1.557 0 0 0-.394-.29.57.57 0 0 1-.102-.06c0-.017.363-.346.64-.583.2-.172.62-.508.626-.502Zm1.684.694.104.068a7.834 7.834 0 0 1 1.131.9l.026.028-.171.049c-.971.269-1.721.508-2.596.83-.098.036-.18.066-.187.066-.013 0-.023.01.195-.19A9.304 9.304 0 0 0 8.866 6.39l.074-.114Zm-.443.11c.005.004-.286.413-.46.644-.207.276-.576.738-.83 1.039a6.463 6.463 0 0 1-.201.23c-.007.003-.009-.029-.009-.078 0-.256-.066-.53-.18-.763-.049-.097-.057-.12-.047-.131a20.302 20.302 0 0 1 1.727-.94Zm-2.678.657a2.328 2.328 0 0 1 .475.3.632.632 0 0 1-.123.103 19.8 19.8 0 0 0-.685.517c-.186.148-.193.152-.172.12.14-.214.21-.334.284-.489.066-.138.132-.3.178-.443a.36.36 0 0 1 .043-.108Zm.714.56c.01-.003.023.016.08.101.121.18.215.422.238.617l.004.042-.29.113c-.52.2-.998.4-1.323.548a23.648 23.648 0 0 0-.542.261c0-.002.066-.05.146-.11.634-.46 1.183-.964 1.594-1.469.044-.053.085-.101.089-.104h.004Zm-.328.08A7.03 7.03 0 0 1 4.49 9.195l-.128.08c-.015.009.004-.012.225-.252.14-.15.245-.277.366-.434a.716.716 0 0 1 .212-.201c.312-.225 1.03-.712 1.039-.704Z" fill="url(#MSSQL__c)"/><defs><linearGradient id="MSSQL__a" x1="3.709" y1="13.615" x2="4.723" y2="13.016" gradientUnits="userSpaceOnUse"><stop stop-color="#909CA9"/><stop offset="1" stop-color="#EDEDEE"/></linearGradient><linearGradient id="MSSQL__b" x1="3.733" y1="2.322" x2="4.548" y2="2.322" gradientUnits="userSpaceOnUse"><stop stop-color="#939FAB"/><stop offset="1" stop-color="#DCDEE1"/></linearGradient><radialGradient id="MSSQL__c" cx="0" cy="0" r="1" gradientUnits="userSpaceOnUse" gradientTransform="rotate(-171.457 4.15 2.738) scale(1.05171 2.10394)"><stop stop-color="#EE352C"/><stop offset="1" stop-color="#A91D22"/></radialGradient></defs></svg>