<svg width="16" height="16" fill="none" xmlns="http://www.w3.org/2000/svg"><path d="M13.896 11.889c-.762-.019-1.353.057-1.848.267-.143.057-.371.057-.39.238.076.076.085.2.152.304.115.19.314.448.495.581.2.153.4.305.61.438.371.229.79.362 1.152.59.21.134.419.305.628.448.105.076.172.2.305.248v-.029c-.067-.086-.086-.21-.152-.305-.096-.095-.19-.18-.286-.276a4.515 4.515 0 0 0-.99-.961c-.305-.21-.971-.495-1.095-.848l-.02-.019c.21-.019.458-.095.658-.152.323-.086.619-.067.952-.153.152-.038.304-.085.457-.133v-.086c-.171-.171-.295-.4-.476-.561a12.685 12.685 0 0 0-1.571-1.171c-.296-.191-.676-.315-.99-.477-.115-.057-.305-.085-.372-.18-.171-.21-.267-.486-.39-.734a24.024 24.024 0 0 1-.781-1.656c-.171-.372-.276-.743-.486-1.086-.98-1.619-2.047-2.6-3.685-3.561-.352-.2-.77-.286-1.218-.39-.238-.01-.477-.03-.715-.039-.152-.066-.304-.247-.438-.333C2.86 1.51 1.46.768 1.06 1.748c-.257.62.381 1.229.6 1.543.162.219.371.466.486.714.066.162.085.333.152.505.152.419.295.885.495 1.276.105.2.219.409.352.59.077.105.21.152.238.324-.133.19-.142.476-.219.714-.342 1.076-.209 2.409.277 3.2.152.237.514.761 1 .56.428-.17.333-.713.456-1.19.029-.114.01-.19.067-.266v.02c.133.266.267.523.39.79.296.466.81.952 1.238 1.275.229.172.41.467.695.572v-.029h-.019c-.057-.086-.143-.124-.219-.19a4.62 4.62 0 0 1-.495-.572c-.4-.533-.752-1.123-1.066-1.733-.153-.295-.286-.619-.41-.914-.057-.114-.057-.285-.152-.342-.143.209-.352.39-.457.647-.181.41-.2.914-.267 1.438-.038.01-.019 0-.038.019-.304-.076-.41-.39-.524-.657-.285-.676-.333-1.762-.085-2.542.066-.2.352-.829.238-1.02-.057-.18-.248-.285-.352-.428a3.837 3.837 0 0 1-.343-.61c-.229-.532-.343-1.123-.59-1.656-.115-.248-.315-.505-.477-.733-.18-.257-.38-.438-.523-.743-.048-.105-.115-.276-.038-.39.019-.076.057-.105.133-.124.124-.105.476.029.6.086.352.142.647.276.942.476.134.095.276.276.448.324h.2c.305.066.647.019.933.104.505.162.962.4 1.371.657A8.448 8.448 0 0 1 9.067 6.7c.115.219.163.419.268.647.2.467.447.943.647 1.4.2.447.39.904.676 1.276.143.2.714.305.971.41.19.085.486.161.657.266.324.2.648.428.952.647.153.115.629.353.658.543Z" fill="#2027D2"/><path d="M4.183 3.615c-.162 0-.276.019-.39.047v.02h.019c.076.152.21.256.304.39.077.152.143.304.22.457l.019-.02c.133-.095.2-.247.2-.475-.058-.067-.067-.134-.115-.2-.057-.096-.18-.143-.257-.22Z" fill="#2027D2"/></svg>