<svg width="16" height="16" fill="none" xmlns="http://www.w3.org/2000/svg"><g clip-path="url(#PostgreSQL__a)"><path d="M14.722 9.382a.687.687 0 0 0-.57-.459 1.306 1.306 0 0 0-.456.025 4.09 4.09 0 0 1-.701.092 13.523 13.523 0 0 0 1.432-3.405c.475-1.84.221-2.678-.076-3.057-.785-1.003-1.93-1.542-3.312-1.558a5.87 5.87 0 0 0-1.722.24 6.41 6.41 0 0 0-1.007-.09c-.665-.01-1.252.134-1.754.432a7.997 7.997 0 0 0-1.239-.311c-1.211-.199-2.187-.044-2.901.46-.865.611-1.266 1.672-1.192 3.154.024.47.287 1.903.702 3.26.238.78.492 1.429.755 1.927.372.706.77 1.122 1.218 1.27.251.084.707.143 1.186-.256.061.073.142.146.25.214.137.086.304.157.47.199.602.15 1.165.112 1.646-.098l.007.237.01.332c.029.709.077 1.26.22 1.646l.03.088c.07.218.19.584.494.87.314.297.694.388 1.042.388.174 0 .341-.023.487-.055.52-.111 1.112-.281 1.54-.89.404-.576.601-1.444.637-2.81l.013-.11.008-.073.095.008.025.002c.53.024 1.179-.088 1.577-.273.315-.146 1.323-.679 1.086-1.398" fill="#000"/><path d="M13.815 9.522c-1.577.326-1.685-.208-1.685-.208 1.664-2.47 2.36-5.607 1.76-6.375C12.251.846 9.415 1.836 9.367 1.862l-.015.002a5.624 5.624 0 0 0-1.052-.11c-.713-.01-1.255.188-1.665.5 0 0-5.06-2.085-4.825 2.621.05 1.001 1.435 7.576 3.087 5.59.604-.726 1.187-1.34 1.187-1.34.29.192.637.29 1 .255l.029-.024c-.01.09-.005.179.01.283-.425.476-.3.56-1.15.734-.861.178-.356.494-.025.576.4.1 1.326.242 1.952-.634l-.025.1c.166.134.283.869.264 1.535-.02.667-.033 1.124.098 1.482.132.357.263 1.161 1.381.921.935-.2 1.419-.719 1.486-1.585.048-.615.156-.524.163-1.074l.087-.26c.1-.835.016-1.104.592-.979l.14.012c.423.02.978-.068 1.303-.219.701-.325 1.117-.868.426-.726" fill="#336791"/><path d="M6.93 5.323c-.141-.02-.27-.002-.335.048a.123.123 0 0 0-.051.082c-.008.058.033.123.058.156a.44.44 0 0 0 .279.174l.044.003c.172 0 .329-.134.343-.232.017-.124-.163-.207-.337-.231Zm4.709.004c-.014-.097-.187-.125-.35-.102-.165.023-.323.097-.31.194.01.075.147.205.309.205a.398.398 0 0 0 .266-.126c.057-.06.09-.128.085-.171" fill="#fff"/><path d="M14.34 9.485c-.06-.181-.254-.24-.575-.174-.955.197-1.297.061-1.41-.022a13.126 13.126 0 0 0 1.683-3.772c.156-.604.242-1.165.249-1.622.008-.502-.078-.87-.254-1.096-.71-.908-1.754-1.395-3.016-1.408-.868-.01-1.602.212-1.744.275a4.33 4.33 0 0 0-.98-.126c-.652-.01-1.216.145-1.682.463a7.506 7.506 0 0 0-1.366-.358c-1.107-.178-1.986-.043-2.614.401-.749.531-1.095 1.48-1.028 2.82.023.45.28 1.837.685 3.165.534 1.748 1.114 2.737 1.724 2.94a.738.738 0 0 0 .244.041c.223 0 .496-.1.78-.442.346-.415.705-.82 1.074-1.215.24.129.504.2.773.208l.002.02a6.212 6.212 0 0 0-.136.17c-.187.236-.226.286-.827.41-.171.035-.625.128-.632.447-.007.348.537.494.599.51.216.053.424.08.623.08.482 0 .907-.159 1.247-.466-.01 1.24.04 2.462.19 2.835.122.304.42 1.05 1.36 1.05.139 0 .29-.017.458-.053.982-.21 1.408-.644 1.573-1.601.089-.512.24-1.733.311-2.388.15.047.344.068.554.068.436 0 .94-.092 1.256-.24.355-.164.995-.568.879-.92ZM12 5.06c-.003.193-.03.369-.058.552-.03.197-.062.4-.07.648-.007.241.023.491.052.733.058.49.119.993-.115 1.49a1.947 1.947 0 0 1-.103-.213 4.163 4.163 0 0 0-.18-.34c-.339-.609-1.133-2.034-.726-2.615.12-.173.428-.351 1.2-.255Zm-.935-3.276c1.13.025 2.026.448 2.66 1.257.485.621-.05 3.447-1.6 5.884a8.011 8.011 0 0 0-.046-.059l-.02-.024c.4-.661.322-1.315.253-1.895a4.535 4.535 0 0 1-.05-.674c.008-.224.038-.416.066-.601a3.79 3.79 0 0 0 .061-.745.307.307 0 0 0 .007-.105c-.025-.267-.33-1.068-.953-1.792a4.295 4.295 0 0 0-1.516-1.14c.292-.06.69-.116 1.137-.106Zm-6.33 8.538c-.313.376-.53.304-.6.28-.463-.154-1-1.133-1.474-2.684-.41-1.343-.65-2.693-.668-3.071-.06-1.198.23-2.032.862-2.48 1.03-.73 2.72-.293 3.4-.072l-.03.029C5.11 3.45 5.137 5.374 5.14 5.493c0 .045.003.11.009.198.019.323.055.926-.04 1.608a2.034 2.034 0 0 0 .674 1.834 28.69 28.69 0 0 0-1.049 1.189Zm1.191-1.59a1.646 1.646 0 0 1-.43-1.379c.1-.72.063-1.348.043-1.686l-.007-.12c.163-.145.918-.55 1.457-.426.245.056.395.223.457.511.322 1.49.043 2.111-.182 2.61-.046.103-.09.2-.127.301l-.029.078a5.322 5.322 0 0 0-.184.552 1.39 1.39 0 0 1-.998-.442Zm.057 2.009a.867.867 0 0 1-.26-.112c.046-.022.13-.053.277-.083.707-.145.816-.248 1.055-.551.054-.07.116-.148.202-.244.128-.143.187-.119.293-.075.086.036.17.143.203.262.016.056.035.162-.025.245-.498.697-1.224.688-1.745.558Zm3.701 3.444c-.865.185-1.172-.256-1.373-.76-.13-.326-.195-1.796-.15-3.418a.196.196 0 0 0-.008-.062.821.821 0 0 0-.024-.115.792.792 0 0 0-.43-.515.602.602 0 0 0-.395-.048c.037-.152.1-.324.17-.51l.03-.078c.032-.088.073-.18.117-.276.235-.522.557-1.238.207-2.853-.13-.606-.568-.901-1.23-.833a2.84 2.84 0 0 0-1.05.351c.05-.61.242-1.75.957-2.47.45-.454 1.05-.679 1.78-.666 1.439.023 2.362.762 2.882 1.377.45.53.692 1.065.79 1.353-.73-.074-1.226.07-1.478.429-.547.782.3 2.3.706 3.03a4.5 4.5 0 0 1 .16.298c.132.32.304.535.429.691.038.048.075.095.104.135-.221.064-.618.211-.582.947a53.49 53.49 0 0 1-.342 2.707c-.139.807-.436 1.107-1.27 1.286Zm3.611-4.132c-.226.104-.604.183-.963.2-.396.018-.598-.045-.646-.083-.022-.459.149-.507.329-.557l.083-.025a.682.682 0 0 0 .054.04c.32.21.888.233 1.69.067l.01-.002a2.16 2.16 0 0 1-.557.36Z" fill="#fff"/></g><defs><clipPath id="PostgreSQL__a"><path fill="#fff" transform="translate(1.2 1)" d="M0 0h13.574v14H0z"/></clipPath></defs></svg>