<svg width="16" height="16" viewBox="0 0 16 16" fill="none" xmlns="http://www.w3.org/2000/svg">
<rect x="1" y="1" width="14" height="14" rx="2" fill="#F8CA02"/>
<path d="M6.19595 11.3386C6.19595 11.6795 5.9167 11.9894 5.54435 11.9894C5.17201 11.9894 4.89275 11.7105 4.89275 11.3386V8.5494C4.89275 8.2085 5.17201 7.8986 5.54435 7.8986C5.9167 7.8986 6.19595 8.17751 6.19595 8.5494V11.3386ZM7.40607 12.7332C7.03373 12.7332 6.7855 12.4542 6.7855 12.0823V7.83661C6.7855 7.49572 7.06476 7.18581 7.4371 7.18581C7.80944 7.18581 8.0887 7.46473 8.0887 7.83661C8.0887 7.83661 8.0887 11.6521 8.0887 12.0823C8.0887 12.5126 7.79855 12.7332 7.40607 12.7332ZM4.3032 10.7188C4.3032 11.0597 4.02395 11.3696 3.6516 11.3696C3.27926 11.3696 3 11.0906 3 10.7188V9.20021C3 8.85931 3.27926 8.5494 3.6516 8.5494C4.02395 8.5494 4.3032 8.85931 4.3032 9.20021V10.7188ZM9.26779 13.4149C8.92648 13.4149 8.64722 13.105 8.64722 12.7641V7.12383C8.64722 6.78293 8.92648 6.47302 9.29882 6.47302C9.64014 6.47302 9.95042 6.75194 9.95042 7.12383C9.95042 7.12383 9.9546 12.3651 9.95042 12.7641C9.94624 13.1632 9.66027 13.4149 9.26779 13.4149Z" fill="#231F20"/>
<path d="M12.0119 12.5636C11.8878 12.5636 11.7947 12.5326 11.6706 12.5016L10.8949 12.2537C10.7708 12.2227 10.6777 12.0677 10.7397 11.9437C10.7708 11.8198 10.9259 11.7268 11.05 11.7888L11.8568 12.0367C12.0119 12.0987 12.1981 12.0677 12.3532 11.9437C12.5084 11.8508 12.5704 11.6648 12.5704 11.5099V6.33443C12.5704 6.08651 12.4153 5.86957 12.1981 5.80759L4.59605 3.51428C4.4409 3.4523 4.25473 3.48329 4.09959 3.57626C3.97547 3.70022 3.88238 3.85518 3.88238 4.04112V7.60505C3.88238 7.76 3.75827 7.85298 3.63416 7.85298C3.47901 7.85298 3.38593 7.72901 3.38593 7.60505V4.04112C3.38593 3.70022 3.54107 3.39031 3.82033 3.20437C4.09959 2.98744 4.4409 2.95644 4.75119 3.04942L12.3222 5.34273C12.7566 5.46669 13.0669 5.90056 13.0669 6.36542V11.5409C13.0669 11.8818 12.9117 12.1917 12.6325 12.4086C12.4463 12.4706 12.2291 12.5636 12.0119 12.5636Z" fill="#231F20"/>
</svg>
