<svg width="16" height="16" fill="none" xmlns="http://www.w3.org/2000/svg">
    <mask
        id="PowerBI__a"
        style="mask-type: alpha"
        maskUnits="userSpaceOnUse"
        x="2"
        y="1"
        width="12"
        height="14"
    >
        <path
            d="M12.666 1c.322 0 .584.261.584.584v12.832a.584.584 0 0 1-.584.584H3.333a.583.583 0 0 1-.583-.583V8.583c0-.322.261-.583.583-.583h2.26V5.083c0-.322.262-.583.584-.583h2.26V1.584c0-.323.262-.584.585-.584h3.644Z"
            fill="#fff"
        />
    </mask>
    <g mask="url(#PowerBI__a)">
        <path
            d="M13.25 1.584v12.832a.584.584 0 0 1-.584.584H9.022a.584.584 0 0 1-.585-.584V1.584c0-.323.262-.584.585-.584h3.644c.323 0 .584.261.584.584Z"
            fill="url(#PowerBI__b)"
        />
        <g filter="url(#PowerBI__c)">
            <path
                d="M10.406 5.083V15H5.594V5.083c0-.322.26-.583.583-.583h3.646c.322 0 .583.261.583.583Z"
                fill="url(#PowerBI__d)"
            />
        </g>
        <path
            d="M2.75 8.583v5.834c0 .322.261.583.583.583h4.23V8.583A.583.583 0 0 0 6.979 8H3.333a.583.583 0 0 0-.583.583Z"
            fill="url(#PowerBI__e)"
        />
    </g>
    <defs>
        <linearGradient
            id="PowerBI__b"
            x1="7.635"
            y1="1"
            x2="13.668"
            y2="14.188"
            gradientUnits="userSpaceOnUse"
        >
            <stop stop-color="#E6AD10" />
            <stop offset="1" stop-color="#C87E0E" />
        </linearGradient>
        <linearGradient
            id="PowerBI__d"
            x1="5.593"
            y1="4.5"
            x2="10.676"
            y2="14.665"
            gradientUnits="userSpaceOnUse"
        >
            <stop stop-color="#F6D751" />
            <stop offset="1" stop-color="#E6AD10" />
        </linearGradient>
        <linearGradient
            id="PowerBI__e"
            x1="2.75"
            y1="8"
            x2="5.548"
            y2="14.84"
            gradientUnits="userSpaceOnUse"
        >
            <stop stop-color="#F9E589" />
            <stop offset="1" stop-color="#F6D751" />
        </linearGradient>
        <filter
            id="PowerBI__c"
            x=".26"
            y=".5"
            width="15.479"
            height="21.167"
            filterUnits="userSpaceOnUse"
            color-interpolation-filters="sRGB"
        >
            <feFlood flood-opacity="0" result="BackgroundImageFix" />
            <feColorMatrix
                in="SourceAlpha"
                values="0 0 0 0 0 0 0 0 0 0 0 0 0 0 0 0 0 0 127 0"
                result="hardAlpha"
            />
            <feOffset dy=".253" />
            <feGaussianBlur stdDeviation=".253" />
            <feColorMatrix values="0 0 0 0 0 0 0 0 0 0 0 0 0 0 0 0 0 0 0.2 0" />
            <feBlend
                in2="BackgroundImageFix"
                result="effect1_dropShadow_1760_1971"
            />
            <feColorMatrix
                in="SourceAlpha"
                values="0 0 0 0 0 0 0 0 0 0 0 0 0 0 0 0 0 0 127 0"
                result="hardAlpha"
            />
            <feOffset dy="1.333" />
            <feGaussianBlur stdDeviation="2.667" />
            <feColorMatrix
                values="0 0 0 0 0 0 0 0 0 0 0 0 0 0 0 0 0 0 0.18 0"
            />
            <feBlend
                in2="effect1_dropShadow_1760_1971"
                result="effect2_dropShadow_1760_1971"
            />
            <feBlend
                in="SourceGraphic"
                in2="effect2_dropShadow_1760_1971"
                result="shape"
            />
        </filter>
    </defs>
</svg>
