<?xml version="1.0" encoding="utf-8"?>
<!-- Generator: Adobe Illustrator 19.0.0, SVG Export Plug-In . SVG Version: 6.00 Build 0)  -->
<svg version="1.1" id="Layer_1" xmlns="http://www.w3.org/2000/svg" xmlns:xlink="http://www.w3.org/1999/xlink" x="0px" y="0px"
	 viewBox="0 0 500 500" style="enable-background:new 0 0 500 500;" xml:space="preserve">
<style type="text/css">
	.st0{fill:#669CFE;}
	.st1{fill:#3FE7FE;}
	.st2{fill:#FFFFFF;}
	.st3{fill:#6A9EFE;}
</style>
<g id="XMLID_1_">
	<path id="XMLID_2_" d="M93.2,67.5h313.7c14.2,0,25.7,11.5,25.7,25.7v313.7c0,14.2-11.5,25.7-25.7,25.7H93.2
		c-14.2,0-25.7-11.5-25.7-25.7V93.2C67.5,79,79,67.5,93.2,67.5z"/>
	<path id="XMLID_3_" class="st0" d="M395.6,250.8c0,10-8.1,18.2-18.2,18.2c-10,0-18.2-8.1-18.2-18.2c0-10,8.1-18.2,18.2-18.2
		C387.5,232.6,395.6,240.7,395.6,250.8"/>
	<path id="XMLID_4_" class="st1" d="M358.1,287.8c0,10-8.1,18.2-18.2,18.2c-10,0-18.2-8.1-18.2-18.2c0-10,8.1-18.2,18.2-18.2
		C349.9,269.6,358.1,277.8,358.1,287.8"/>
	<path id="XMLID_5_" class="st2" d="M320.5,325.7c0,10-8.1,18.2-18.2,18.2c-10,0-18.2-8.1-18.2-18.2c0-10,8.1-18.2,18.2-18.2
		C312.4,307.5,320.5,315.6,320.5,325.7"/>
	<path id="XMLID_6_" class="st0" d="M356.9,213.4c0,9.4-7.6,17-17,17c-9.4,0-17-7.6-17-17c0-9.4,7.6-17,17-17
		C349.3,196.4,356.9,204,356.9,213.4"/>
	<path id="XMLID_7_" class="st1" d="M319.5,250.4c0,9.4-7.6,17-17,17c-9.4,0-17-7.6-17-17c0-9.4,7.6-17,17-17
		C311.9,233.4,319.5,241,319.5,250.4"/>
	<path id="XMLID_8_" class="st2" d="M282.2,288c0,9.4-7.6,17-17,17c-9.4,0-17-7.6-17-17c0-9.4,7.6-17,17-17
		C274.6,271,282.2,278.6,282.2,288"/>
	<path id="XMLID_9_" class="st0" d="M318.1,176.2c0,8.5-6.9,15.5-15.5,15.5c-8.5,0-15.5-6.9-15.5-15.5c0-8.5,6.9-15.5,15.5-15.5
		C311.1,160.7,318.1,167.7,318.1,176.2"/>
	<path id="XMLID_10_" class="st1" d="M280.7,213.2c0,8.5-6.9,15.5-15.5,15.5c-8.5,0-15.5-6.9-15.5-15.5c0-8.5,6.9-15.5,15.5-15.5
		C273.8,197.7,280.7,204.7,280.7,213.2"/>
	<path id="XMLID_11_" class="st2" d="M243.2,250.9c0,8.5-6.9,15.5-15.5,15.5c-8.5,0-15.5-6.9-15.5-15.5c0-8.5,6.9-15.5,15.5-15.5
		C236.3,235.4,243.2,242.3,243.2,250.9"/>
	<path id="XMLID_12_" class="st0" d="M279.4,138.8c0,7.7-6.2,13.9-13.9,13.9c-7.7,0-13.9-6.2-13.9-13.9c0-7.7,6.2-13.9,13.9-13.9
		C273.2,124.9,279.4,131.1,279.4,138.8"/>
	<path id="XMLID_13_" class="st1" d="M241.9,176c0,7.7-6.2,13.9-13.9,13.9c-7.7,0-13.9-6.2-13.9-13.9c0-7.7,6.2-13.9,13.9-13.9
		C235.6,162.1,241.9,168.3,241.9,176"/>
	<path id="XMLID_14_" class="st2" d="M204.5,213.6c0,7.7-6.2,13.9-13.9,13.9c-7.7,0-13.9-6.2-13.9-13.9c0-7.7,6.2-13.9,13.9-13.9
		C198.2,199.7,204.5,205.9,204.5,213.6"/>
	<path id="XMLID_15_" class="st3" d="M203,288.1c0,6.8-5.5,12.4-12.4,12.4c-6.8,0-12.4-5.5-12.4-12.4c0-6.8,5.5-12.4,12.4-12.4
		C197.5,275.7,203,281.3,203,288.1"/>
	<path id="XMLID_16_" class="st3" d="M240.3,325.3c0,6.8-5.5,12.4-12.4,12.4c-6.8,0-12.4-5.5-12.4-12.4c0-6.8,5.5-12.4,12.4-12.4
		C234.7,313,240.3,318.5,240.3,325.3"/>
	<path id="XMLID_17_" class="st3" d="M277.5,362.5c0,6.8-5.5,12.4-12.4,12.4c-6.8,0-12.4-5.5-12.4-12.4c0-6.8,5.5-12.4,12.4-12.4
		C271.9,350.2,277.5,355.7,277.5,362.5"/>
	<path id="XMLID_18_" class="st3" d="M203.2,362.5c0,6.8-5.5,12.4-12.4,12.4c-6.8,0-12.4-5.5-12.4-12.4c0-6.8,5.5-12.4,12.4-12.4
		C197.7,350.2,203.2,355.7,203.2,362.5"/>
	<path id="XMLID_19_" class="st3" d="M128.2,362.5c0,6.8-5.5,12.4-12.4,12.4c-6.8,0-12.4-5.5-12.4-12.4c0-6.8,5.5-12.4,12.4-12.4
		C122.7,350.2,128.2,355.7,128.2,362.5"/>
	<path id="XMLID_20_" class="st3" d="M165.5,325.3c0,6.8-5.5,12.4-12.4,12.4c-6.8,0-12.4-5.5-12.4-12.4c0-6.8,5.5-12.4,12.4-12.4
		C160,312.9,165.5,318.5,165.5,325.3"/>
	<path id="XMLID_21_" class="st1" d="M203.2,138.8c0,7.1-5.8,12.9-12.9,12.9c-7.1,0-12.9-5.8-12.9-12.9c0-7.1,5.8-12.9,12.9-12.9
		C197.4,125.9,203.2,131.7,203.2,138.8"/>
	<path id="XMLID_22_" class="st2" d="M165.6,176.6c0,7.1-5.8,12.9-12.9,12.9c-7.1,0-12.9-5.8-12.9-12.9c0-7.1,5.8-12.9,12.9-12.9
		C159.8,163.7,165.6,169.5,165.6,176.6"/>
	<path id="XMLID_23_" class="st2" d="M126.2,138.3c0,5.8-4.7,10.4-10.4,10.4c-5.8,0-10.4-4.7-10.4-10.4c0-5.8,4.7-10.4,10.4-10.4
		C121.5,127.9,126.2,132.6,126.2,138.3"/>
</g>
</svg>
