<svg width="16" height="16" fill="none" xmlns="http://www.w3.org/2000/svg">
    <path
        d="M1.986 1h12.031c.545 0 .986.441.986.986v12.031a.985.985 0 0 1-.986.986H1.986A.985.985 0 0 1 1 14.017V1.986C1 1.44 1.441 1 1.986 1Z"
        fill="#000"
    />
    <path
        d="M13.584 8.03a.698.698 0 1 1-1.396 0 .698.698 0 0 1 1.396 0Z"
        fill="#669CFE"
    />
    <path
        d="M12.145 9.45a.698.698 0 1 1-1.395 0 .698.698 0 0 1 1.395 0Z"
        fill="#3FE7FE"
    />
    <path
        d="M10.703 10.903a.698.698 0 1 1-1.396 0 .698.698 0 0 1 1.396 0Z"
        fill="#fff"
    />
    <path
        d="M12.1 6.596a.651.651 0 1 1-1.303 0 .651.651 0 0 1 1.302 0Z"
        fill="#669CFE"
    />
    <path
        d="M10.665 8.015a.651.651 0 1 1-1.303 0 .651.651 0 0 1 1.303 0Z"
        fill="#3FE7FE"
    />
    <path
        d="M9.234 9.457a.651.651 0 1 1-1.302 0 .651.651 0 0 1 1.302 0Z"
        fill="#fff"
    />
    <path
        d="M10.61 5.169a.595.595 0 1 1-1.189-.001.595.595 0 0 1 1.19 0Z"
        fill="#669CFE"
    />
    <path
        d="M9.177 6.588a.595.595 0 1 1-1.19-.001.595.595 0 0 1 1.19 0Z"
        fill="#3FE7FE"
    />
    <path
        d="M7.738 8.034a.595.595 0 1 1-1.19-.001.595.595 0 0 1 1.19 0Z"
        fill="#fff"
    />
    <path
        d="M9.127 3.734a.532.532 0 1 1-1.066 0 .532.532 0 1 1 1.066 0Z"
        fill="#669CFE"
    />
    <path
        d="M7.688 5.161a.532.532 0 1 1-1.065 0 .532.532 0 1 1 1.065 0Z"
        fill="#3FE7FE"
    />
    <path
        d="M6.254 6.603a.532.532 0 1 1-1.066 0 .532.532 0 1 1 1.066 0Z"
        fill="#fff"
    />
    <path
        d="M6.197 9.46a.475.475 0 1 1-.951 0 .475.475 0 0 1 .95 0Zm1.43 1.427a.475.475 0 1 1-.95 0 .475.475 0 0 1 .95 0Zm1.427 1.427a.475.475 0 1 1-.95 0 .475.475 0 0 1 .95 0Zm-2.85 0a.475.475 0 1 1-.95 0 .475.475 0 0 1 .95 0Zm-2.877 0a.475.475 0 1 1-.95 0 .475.475 0 0 1 .95 0Zm1.431-1.427a.475.475 0 1 1-.95 0 .475.475 0 0 1 .95 0Z"
        fill="#6A9EFE"
    />
    <path
        d="M6.204 3.734a.496.496 0 0 1-.989 0 .496.496 0 0 1 .99 0Z"
        fill="#3FE7FE"
    />
    <path
        d="M4.762 5.184a.496.496 0 0 1-.989 0 .496.496 0 0 1 .99 0ZM3.251 3.715a.398.398 0 1 1-.797 0 .398.398 0 0 1 .797 0Z"
        fill="#fff"
    />
</svg>
