<svg width="16" height="16" fill="none" xmlns="http://www.w3.org/2000/svg"><path d="m7.998 11.704 5.324 1.268V3L7.998 4.267v7.437Z" fill="#205B97"/><path fill-rule="evenodd" clip-rule="evenodd" d="m2.674 12.972 5.324-1.268V4.267L2.674 3v9.972Zm11.662-9.465L13.322 3v9.972l1.014-.507V3.507Z" fill="#5193CE"/><path d="m2.674 3-1.014.507v8.958l1.014.507V3Z" fill="#205B97"/><path d="m9.35 15 2.029-1.014V2.014L9.35 1l-.62 6.648L9.35 15Z" fill="#5193CE"/><path d="m6.646 15-2.029-1.014V2.014L6.646 1l.62 6.648L6.646 15Z" fill="#205B97"/><path d="M6.646 1h2.732v13.972H6.646V1Z" fill="#2E73B7"/></svg>