<svg width="16" height="16" fill="none" xmlns="http://www.w3.org/2000/svg">
    <path
        d="M2.966 3.266 2 3.749v8.483l.966.48.006-.007V3.272l-.006-.006Z"
        fill="#8C3123"
    />
    <path d="m8.139 11.481-5.173 1.231V3.266L8.14 4.47v7.011Z" fill="#E05243" />
    <path
        d="m5.804 9.554 2.194.279.014-.032.012-3.597-.026-.029-2.194.276v3.103"
        fill="#8C3123"
    />
    <path
        d="m7.998 11.495 5.031 1.22.008-.013V3.274l-.008-.008-5.031 1.218v7.01"
        fill="#8C3123"
    />
    <path d="m10.193 9.554-2.195.279V6.175l2.195.276v3.103Z" fill="#E05243" />
    <path
        d="m10.193 4.95-2.195.4-2.194-.4 2.191-.574 2.198.574Z"
        fill="#5E1F18"
    />
    <path
        d="m10.193 11.05-2.195-.403-2.194.403 2.191.612 2.198-.612Z"
        fill="#F2B0A9"
    />
    <path
        d="m5.804 4.95 2.194-.543.018-.005V.765L7.998.75 5.804 1.847V4.95Z"
        fill="#8C3123"
    />
    <path d="m10.193 4.95-2.195-.543V.75l2.195 1.097V4.95Z" fill="#E05243" />
    <path
        d="m7.998 15.25-2.194-1.097V11.05l2.194.543.032.037-.009 3.557-.023.063Z"
        fill="#8C3123"
    />
    <path
        d="m7.998 15.25 2.194-1.097V11.05l-2.194.543v3.657Zm5.031-11.984.967.483v8.483l-.967.483v-9.45Z"
        fill="#E05243"
    />
</svg>
