<svg width="16" height="16" fill="none" xmlns="http://www.w3.org/2000/svg"><g clip-path="url(#Salesforce__a)"><path d="M6.742 4.145a2.628 2.628 0 0 1 1.902-.816c.99 0 1.854.552 2.314 1.371.4-.178.843-.278 1.308-.278 1.786 0 3.234 1.46 3.234 3.262s-1.448 3.263-3.234 3.263c-.214 0-.427-.022-.637-.064a2.363 2.363 0 0 1-3.097.973 2.697 2.697 0 0 1-5.014-.122 2.478 2.478 0 0 1-.514.054C1.62 11.788.5 10.655.5 9.258c0-.936.504-1.754 1.252-2.191A2.911 2.911 0 0 1 4.426 3c.944 0 1.784.448 2.316 1.144Z" fill="#00A1E0"/><path d="M2.673 8.445c-.01.025.003.03.006.034.028.02.057.035.086.052a.913.913 0 0 0 .448.105c.308 0 .499-.164.499-.427v-.006c0-.243-.216-.332-.418-.396L3.268 7.8c-.153-.05-.284-.092-.284-.193v-.005c0-.086.076-.15.196-.15.132 0 .29.045.39.1 0 0 .03.02.041-.009l.063-.168c.006-.017-.005-.029-.015-.035a.873.873 0 0 0-.44-.118h-.032c-.281 0-.478.17-.478.414v.005c0 .257.217.34.42.398l.033.01c.148.046.276.085.276.19v.004c0 .096-.083.167-.217.167a.728.728 0 0 1-.396-.114l-.051-.032c-.009-.006-.031-.015-.04.014l-.061.168Zm4.504 0c-.01.025.003.03.006.034.029.02.057.035.086.052a.914.914 0 0 0 .449.105c.307 0 .498-.164.498-.427v-.006c0-.243-.215-.332-.418-.396L7.772 7.8c-.152-.05-.284-.092-.284-.193v-.005c0-.086.077-.15.196-.15.133 0 .29.045.391.1 0 0 .03.02.04-.009a5.73 5.73 0 0 0 .063-.168c.006-.017-.004-.029-.015-.035a.873.873 0 0 0-.44-.118h-.031c-.282 0-.478.17-.478.414v.005c0 .257.216.34.42.398l.032.01c.148.046.276.085.276.19v.004c0 .096-.083.167-.217.167a.728.728 0 0 1-.396-.114l-.05-.032c-.006-.004-.032-.014-.041.014l-.06.168Zm3.075-.516a.633.633 0 0 1-.082.35c-.054.081-.136.121-.25.121-.115 0-.196-.04-.25-.122a.64.64 0 0 1-.08-.349c0-.149.027-.266.08-.348.054-.081.135-.12.25-.12.114 0 .196.039.25.12.054.082.082.2.082.348Zm.257-.276a.565.565 0 0 0-.314-.373.65.65 0 0 0-.275-.055.65.65 0 0 0-.276.055.568.568 0 0 0-.314.373.976.976 0 0 0-.038.276.98.98 0 0 0 .038.276.61.61 0 0 0 .117.223.55.55 0 0 0 .197.149.663.663 0 0 0 .276.054.663.663 0 0 0 .275-.054.55.55 0 0 0 .197-.149.617.617 0 0 0 .117-.223.97.97 0 0 0 .038-.276.97.97 0 0 0-.038-.276Zm2.11.707c-.01-.025-.034-.015-.034-.015a.588.588 0 0 1-.119.034.931.931 0 0 1-.14.01.391.391 0 0 1-.295-.11c-.07-.073-.11-.191-.11-.351a.54.54 0 0 1 .099-.338c.062-.083.158-.126.285-.126.106 0 .186.012.271.04 0 0 .02.008.03-.019l.063-.175c.007-.02-.01-.028-.016-.03a1 1 0 0 0-.364-.057.698.698 0 0 0-.286.056.593.593 0 0 0-.332.372.888.888 0 0 0-.042.277c0 .213.058.385.17.511.115.127.285.191.508.191.132 0 .267-.027.364-.065 0 0 .018-.009.01-.03l-.063-.175Zm.449-.574a.505.505 0 0 1 .07-.205.277.277 0 0 1 .248-.126.27.27 0 0 1 .244.126.43.43 0 0 1 .058.205h-.62Zm.864-.182a.54.54 0 0 0-.276-.329.635.635 0 0 0-.25-.05.679.679 0 0 0-.286.056.571.571 0 0 0-.318.378.977.977 0 0 0-.038.278c0 .1.013.193.04.277a.561.561 0 0 0 .344.366.875.875 0 0 0 .315.05c.252 0 .384-.056.438-.086.01-.005.02-.015.008-.042l-.057-.159c-.009-.024-.033-.015-.033-.015-.062.023-.15.065-.357.064-.135 0-.235-.04-.297-.102-.065-.064-.096-.157-.102-.29l.87.002s.023 0 .025-.023c0-.01.03-.179-.026-.375Zm-7.827.182a.508.508 0 0 1 .07-.205.277.277 0 0 1 .248-.126.27.27 0 0 1 .244.126.432.432 0 0 1 .058.205h-.62Zm.864-.182a.54.54 0 0 0-.276-.329.636.636 0 0 0-.25-.05.68.68 0 0 0-.286.056.57.57 0 0 0-.318.378.984.984 0 0 0 .001.555c.027.085.069.16.126.221a.58.58 0 0 0 .219.145.875.875 0 0 0 .315.05c.252 0 .384-.056.438-.086.01-.005.02-.015.008-.042l-.057-.159c-.009-.024-.033-.015-.033-.015-.062.023-.15.065-.357.064-.135 0-.235-.04-.297-.102-.065-.064-.096-.157-.102-.29l.87.002s.023 0 .025-.023c.001-.01.03-.179-.026-.375Zm-2.744.752a.176.176 0 0 1-.05-.052.21.21 0 0 1-.026-.113c0-.076.025-.131.078-.168 0 0 .075-.065.252-.063.124.002.236.02.236.02v.395s-.11.024-.235.031c-.177.011-.255-.05-.255-.05Zm.346-.611a1.927 1.927 0 0 0-.136-.004.825.825 0 0 0-.214.027.559.559 0 0 0-.181.084.42.42 0 0 0-.126.144.42.42 0 0 0-.047.2c0 .077.014.144.04.199.027.055.065.1.114.136a.475.475 0 0 0 .177.076c.068.016.145.024.23.024.089 0 .178-.007.264-.022a5.571 5.571 0 0 0 .28-.058c.021-.005.02-.029.02-.029v-.795c0-.174-.047-.303-.139-.383-.091-.08-.226-.12-.4-.12-.065 0-.17.008-.232.02 0 0-.19.038-.268.099 0 0-.018.01-.008.034l.061.166c.008.021.029.014.029.014l.014-.007c.167-.091.379-.088.379-.088a.35.35 0 0 1 .215.056c.047.036.072.091.072.207v.037a3.14 3.14 0 0 0-.144-.017Zm7.013-.448a.023.023 0 0 0-.014-.031.752.752 0 0 0-.145-.025.433.433 0 0 0-.371.144v-.106c0-.015-.01-.026-.025-.026h-.223c-.015 0-.025.011-.025.026v1.297c0 .015.012.026.026.026h.229a.026.026 0 0 0 .026-.026v-.648c0-.087.01-.174.029-.228a.329.329 0 0 1 .076-.128.267.267 0 0 1 .107-.065.419.419 0 0 1 .117-.016.48.48 0 0 1 .096.012c.016.002.026-.009.031-.024l.066-.182" fill="#fff"/><path d="M9.44 6.696a.743.743 0 0 0-.204-.03.498.498 0 0 0-.369.132c-.086.087-.145.22-.174.395l-.011.058h-.198s-.023 0-.029.026l-.032.18c-.002.018.005.029.028.029h.192L8.45 8.574c-.016.087-.033.16-.053.214a.438.438 0 0 1-.06.124.162.162 0 0 1-.08.061.323.323 0 0 1-.219-.008s-.022-.009-.031.014l-.065.176c-.006.018.003.031.014.035a.527.527 0 0 0 .207.035c.08 0 .153-.01.213-.033a.403.403 0 0 0 .16-.112.574.574 0 0 0 .114-.194c.03-.08.056-.178.076-.292l.196-1.108h.286s.024 0 .03-.026l.032-.18c.002-.018-.005-.029-.029-.029h-.278c.002-.006.015-.104.046-.196a.268.268 0 0 1 .061-.092.183.183 0 0 1 .073-.046.365.365 0 0 1 .21.005c.028.008.032 0 .037-.014l.067-.182c.006-.02-.01-.028-.016-.03Zm-3.884 1.88a.025.025 0 0 1-.025.026H5.3c-.015 0-.025-.011-.025-.026V6.72c0-.014.01-.026.025-.026h.23c.015 0 .026.012.026.026v1.856Z" fill="#fff"/></g><defs><clipPath id="Salesforce__a"><path fill="#fff" transform="translate(.5 3)" d="M0 0h15v10.5H0z"/></clipPath></defs></svg>