<svg width="16" height="16" fill="none" xmlns="http://www.w3.org/2000/svg"><g clip-path="url(#SAPHana__a)" fill-rule="evenodd" clip-rule="evenodd"><path d="M.5 11.338h7.496L15.33 4H.5v7.337Z" fill="url(#SAPHana__b)"/><path d="M9.302 5.468H7.837l.005 3.445-1.276-3.446H5.302l-1.09 2.878c-.115-.732-.872-.985-1.468-1.174-.393-.127-.81-.313-.807-.518.004-.169.224-.325.661-.302.294.016.553.04 1.069.289l.507-.884c-.47-.24-1.12-.39-1.654-.39h-.003c-.622 0-1.14.2-1.46.532a1.23 1.23 0 0 0-.35.852c-.008.448.156.766.501 1.02.292.213.665.352.993.453.406.126.736.235.732.468a.344.344 0 0 1-.096.228c-.1.104-.256.143-.47.147-.414.01-.72-.056-1.209-.345l-.45.895a3.135 3.135 0 0 0 1.594.417h.132c.512-.01.928-.133 1.258-.399.02-.015.036-.03.054-.046l-.056.286 1.236-.004.222-.568c.233.08.498.124.78.124.274 0 .532-.042.76-.117l.155.561 2.218.002.005-1.294h.472c1.14 0 1.814-.58 1.814-1.554 0-1.084-.655-1.556-2.05-1.556ZM5.928 8.413a1.325 1.325 0 0 1-.468-.082l.462-1.46h.01l.454 1.464a1.37 1.37 0 0 1-.458.078Zm3.46-.839h-.322V6.397h.322c.428 0 .77.143.77.581 0 .453-.342.596-.77.596" fill="#fff"/></g><defs><linearGradient id="SAPHana__b" x1="7.916" y1="4.001" x2="7.916" y2="11.338" gradientUnits="userSpaceOnUse"><stop stop-color="#00AEEF"/><stop offset=".212" stop-color="#0097DC"/><stop offset=".519" stop-color="#007CC5"/><stop offset=".792" stop-color="#006CB8"/><stop offset="1" stop-color="#0066B3"/></linearGradient><clipPath id="SAPHana__a"><path fill="#fff" transform="translate(.5 4)" d="M0 0h15v7.338H0z"/></clipPath></defs></svg>