<svg width="16" height="16" fill="none" xmlns="http://www.w3.org/2000/svg"><rect x="1" y="1" width="14" height="14" rx="2" fill="#2C2E2D"/><mask id="sisense__a" fill="#fff"><path d="M7.435 2.5H7.5v2.362l-.065-.001c-.89 0-1.612.734-1.612 1.64 0 .904.722 1.638 1.612 1.638H7.5v2.36l-.065.001c-2.173 0-3.935-1.79-3.935-4s1.762-4 3.935-4Z"/></mask><path d="M7.435 2.5H7.5v2.362l-.065-.001c-.89 0-1.612.734-1.612 1.64 0 .904.722 1.638 1.612 1.638H7.5v2.36l-.065.001c-2.173 0-3.935-1.79-3.935-4s1.762-4 3.935-4Z" fill="#F9D447"/><path d="M7.5 2.5h.1v-.098l-.098-.001-.002.1Zm0 2.362-.004.1.104.004v-.104h-.1Zm0 3.276h.1v-.104l-.104.004.004.1Zm0 2.361.002.1.098-.001v-.099h-.1Zm.002-8.098L7.435 2.4v.2h.063l.004-.2ZM7.6 4.862V2.501h-.2v2.361h.2Zm-.165.099h.061l.008-.199-.069-.001v.2ZM5.923 6.5c0-.853.678-1.54 1.512-1.54v-.2c-.947 0-1.712.78-1.712 1.74h.2Zm1.512 1.538c-.834 0-1.512-.687-1.512-1.539h-.2c0 .96.765 1.74 1.712 1.74v-.2Zm.061 0h-.06v.2h.068l-.008-.2Zm.104 2.46V8.14h-.2v2.36h.2Zm-.165.101h.067l-.004-.2h-.063v.2ZM3.4 6.5c0 2.263 1.805 4.1 4.035 4.1v-.2C5.32 10.4 3.6 8.655 3.6 6.5h-.2Zm4.035-4.1C5.205 2.4 3.4 4.237 3.4 6.5h.2c0-2.155 1.719-3.9 3.835-3.9v-.2Z" fill="#000" mask="url(#sisense__a)"/><mask id="sisense__b" fill="#fff"><path d="M8.565 13.5H8.5v-2.362l.065.001c.89 0 1.612-.734 1.612-1.639s-.722-1.64-1.612-1.64l-.065.002V5.5l.065-.001c2.173 0 3.935 1.79 3.935 4s-1.762 4-3.935 4Z"/></mask><path d="M8.565 13.5H8.5v-2.362l.065.001c.89 0 1.612-.734 1.612-1.639s-.722-1.64-1.612-1.64l-.065.002V5.5l.065-.001c2.173 0 3.935 1.79 3.935 4s-1.762 4-3.935 4Z" fill="#fff"/><path d="M8.5 13.5h-.1v.098l.098.002.002-.1Zm.065 0v-.1.1ZM8.5 11.138l.004-.1-.104-.004v.104h.1Zm.065.001v-.1.1ZM10.177 9.5h-.1.1ZM8.565 7.86v-.1.1Zm-.065.002h-.1v.104l.104-.004-.004-.1Zm0-2.361-.002-.1-.098.001v.099h.1Zm.065-.001v-.1.1Zm3.935 4h.1-.1Zm-4.002 4.1h.067v-.2h-.063l-.004.2ZM8.4 11.138V13.5h.2v-2.36h-.2Zm.165-.099h-.061l-.008.199.069.001v-.2ZM10.077 9.5c0 .852-.678 1.54-1.512 1.54v.2c.947 0 1.712-.78 1.712-1.74h-.2ZM8.565 7.96c.834 0 1.512.688 1.512 1.54h.2c0-.96-.765-1.74-1.712-1.74v.2Zm-.061.002.06-.001v-.2l-.068.001.008.2ZM8.4 5.5v2.361h.2V5.5h-.2Zm.165-.101h-.067l.004.2h.063v-.2ZM12.6 9.5c0-2.263-1.805-4.1-4.035-4.1v.2c2.116 0 3.835 1.745 3.835 3.9h.2Zm-4.035 4.1c2.23 0 4.035-1.837 4.035-4.1h-.2c0 2.155-1.719 3.9-3.835 3.9v.2Z" fill="#000" mask="url(#sisense__b)"/></svg>