<svg width="16" height="16" viewBox="0 0 16 16" fill="none" xmlns="http://www.w3.org/2000/svg">
<path d="M13.0314 11.6964L10.0688 9.98494C9.65258 9.74531 9.12035 9.88782 8.87946 10.304C8.78613 10.468 8.74955 10.6483 8.76721 10.8236V14.1684C8.76721 14.6464 9.15566 15.0349 9.63493 15.0349C10.1129 15.0349 10.5014 14.6464 10.5014 14.1684V12.245L12.1611 13.2036C12.5773 13.4445 13.1108 13.3007 13.3505 12.8845C13.5914 12.4683 13.4489 11.936 13.0314 11.6964Z" fill="#29B5E8"/>
<path d="M5.66338 8.02878C5.66842 7.71978 5.50573 7.43222 5.23835 7.27709L2.27575 5.56688C2.1471 5.49247 1.99954 5.45337 1.85198 5.45337C1.54802 5.45337 1.26551 5.61607 1.11416 5.8784C0.879578 6.28451 1.01957 6.8054 1.42569 7.03998L3.13337 8.02499L1.42569 9.01127C1.22894 9.12477 1.08768 9.30765 1.02966 9.5271C0.970385 9.74656 1.00065 9.9761 1.11416 10.1728C1.26551 10.4352 1.54802 10.5979 1.85072 10.5979C1.99954 10.5979 2.1471 10.5588 2.27575 10.4844L5.23835 8.77416C5.5032 8.62029 5.6659 8.33525 5.66338 8.02878Z" fill="#29B5E8"/>
<path d="M2.94796 4.35484L5.91056 6.06505C6.25613 6.26559 6.68243 6.2 6.95485 5.93389C7.12764 5.77497 7.23484 5.54795 7.23484 5.29571V1.86772C7.23484 1.38846 6.84638 1 6.36838 1C5.88912 1 5.50066 1.38846 5.50066 1.86772V3.81882L3.8182 2.84768C3.402 2.60679 2.86976 2.74931 2.62887 3.16551C2.38798 3.58171 2.53176 4.11395 2.94796 4.35484Z" fill="#29B5E8"/>
<path d="M9.60971 8.16748C9.60971 8.23306 9.57187 8.32387 9.52521 8.3718L8.35101 9.54599C8.30435 9.59266 8.21228 9.63049 8.1467 9.63049H7.84779C7.78221 9.63049 7.69014 9.59266 7.64347 9.54599L6.46802 8.3718C6.42135 8.32387 6.38351 8.23306 6.38351 8.16748V7.86857C6.38351 7.80173 6.42135 7.71092 6.46802 7.66425L7.64347 6.4888C7.69014 6.44213 7.78221 6.4043 7.84779 6.4043H8.1467C8.21228 6.4043 8.30435 6.44213 8.35101 6.4888L9.52521 7.66425C9.57187 7.71092 9.60971 7.80173 9.60971 7.86857V8.16748ZM8.56164 8.0237V8.01109C8.56164 7.96316 8.53389 7.89632 8.49984 7.861L8.153 7.51543C8.11895 7.48012 8.05211 7.45237 8.00292 7.45237H7.99031C7.94238 7.45237 7.87554 7.48012 7.84022 7.51543L7.49465 7.861C7.46059 7.89506 7.43285 7.9619 7.43285 8.01109V8.0237C7.43285 8.07289 7.46059 8.13973 7.49465 8.17379L7.84022 8.52062C7.87554 8.55467 7.94238 8.58242 7.99031 8.58242H8.00292C8.05211 8.58242 8.11895 8.55467 8.153 8.52062L8.49984 8.17379C8.53389 8.13973 8.56164 8.07289 8.56164 8.0237Z" fill="#29B5E8"/>
<path d="M10.0688 6.06505L13.0314 4.35484C13.4476 4.11521 13.5914 3.58171 13.3505 3.16551C13.1096 2.74931 12.5774 2.60679 12.1612 2.84768L10.5014 3.80621V1.86772C10.5014 1.38846 10.1129 1 9.63495 1C9.15568 1 8.76723 1.38846 8.76723 1.86772V5.2276C8.75083 5.40165 8.78489 5.58327 8.87948 5.74723C9.12037 6.16343 9.6526 6.30594 10.0688 6.06505Z" fill="#29B5E8"/>
<path d="M6.50459 9.88401C6.30784 9.84617 6.09722 9.8777 5.91056 9.9849L2.94796 11.6964C2.53176 11.936 2.38798 12.4682 2.62887 12.8844C2.86976 13.3019 3.402 13.4444 3.8182 13.2035L5.50066 12.2324V14.1684C5.50066 14.6464 5.88912 15.0348 6.36838 15.0348C6.84638 15.0348 7.23484 14.6464 7.23484 14.1684V10.7404C7.23484 10.3078 6.91827 9.94959 6.50459 9.88401Z" fill="#29B5E8"/>
<path d="M14.8829 5.86822C14.6433 5.45075 14.1098 5.30824 13.6936 5.54913L10.731 7.25934C10.4472 7.4233 10.2908 7.72347 10.2959 8.02868C10.2933 8.33264 10.4497 8.62902 10.731 8.79046L13.6936 10.5019C14.1098 10.7416 14.642 10.599 14.8829 10.1828C15.1238 9.76664 14.98 9.23441 14.5638 8.99352L12.8864 8.0249L14.5638 7.05628C14.9813 6.81665 15.1238 6.28442 14.8829 5.86822Z" fill="#29B5E8"/>
</svg>
