<svg width="16" height="16" viewBox="0 0 16 16" fill="none" xmlns="http://www.w3.org/2000/svg">
<path d="M7.61682 10.4552H8.38299V8.33767H10.31V7.58478H8.38299V5.46729H7.61682V7.58478H5.71301V8.33767H7.61682V10.4552Z" fill="#E8762D"/>
<path d="M4.06469 13.5138H4.71477V11.6316H6.43284V11.0434H4.71477V9.1377H4.06469V11.0434H2.34662V11.6316H4.06469V13.5138Z" fill="#C72037"/>
<path d="M11.2851 6.71432H11.9352V4.8321H13.6765V4.26744H11.9352V2.36169H11.2851V4.26744H9.56708V4.8321H11.2851V6.71432Z" fill="#5B879B"/>
<path d="M7.733 14.9961H8.29021V13.655H9.47429V13.1609H8.29021V11.8198H7.733V13.1609H6.57214V13.655H7.733V14.9961Z" fill="#5C6692"/>
<path d="M4.0879 6.71432H4.69155V4.80858H6.43284V4.26744H4.69155V2.36169H4.0879V4.26744H2.34662V4.80858H4.0879V6.71432Z" fill="#EB9129"/>
<path d="M13.2587 9.5376H13.8159V8.22005H15V7.70244H13.8159V6.38489H13.2587V7.70244H12.0979V8.22005H13.2587V9.5376Z" fill="#5C6692"/>
<path fill-rule="evenodd" clip-rule="evenodd" d="M11.2851 13.5138H11.9352V11.6316H13.6765V11.0434H11.9352V9.1377H11.2851V11.0434H9.56708V11.6316H11.2851V13.5138Z" fill="#1F457E"/>
<path d="M9.38139 2.694V2.29402H8.22053V1H7.80263V2.29402H6.64177V2.694H7.80263V3.98802H8.22053V2.694H9.38139ZM2.16086 9.44645H2.57877V8.15243H3.73962V7.75245H2.57877V6.48196H2.16086V7.75245H1V8.17595L2.16086 8.15243V9.44645Z" fill="#7199A6"/>
</svg>
