<svg width="16" height="16" fill="none" xmlns="http://www.w3.org/2000/svg">
    <rect x="1" y="1" width="14" height="14" rx="1" fill="#0D1363" />
    <path
        d="M7.037 12.53c.164-.127-.266-.08-.301-.165a2.333 2.333 0 0 1-.503-.106c-.308-.091-1.038-.668-1.115-1.21-.077-.541 0-1.593.326-2.21.208-.377.476-.705.79-.966 0 0-.637-1.768-.692-3.103-.055-1.335.027-3.726.782-3.77.756-.043.622 2.183.503 3.63-.077.962-.09 1.93-.038 2.893.318-.118.648-.183.982-.191a3.25 3.25 0 0 1 .873.096s.235-2.054 1.022-3.333c.788-1.278 1.604-2.595 2.138-2.222.535.373-.144 1.706-.616 2.4-.472.693-1.292 1.734-1.564 2.29-.179.37-.337.754-.473 1.148a2.93 2.93 0 0 1 1.14 1.316c.37.891.405 1.997.205 2.464a1.627 1.627 0 0 1-.42.547c-.172.144-.37.241-.579.286-.235.02-1.231.308-1.231.308l-1.23-.102Z"
        fill="#fff"
    />
    <path
        d="M8.776 7.444s.593-1.812 1.126-2.832c.532-1.02 1.247-1.789 1.471-1.633.225.156-.46 1.114-1.055 2.045a24.472 24.472 0 0 0-1.325 2.577l-.217-.157Zm-2.38.313.169-.156s-.023-1.812 0-2.916c.023-1.104.073-2.48-.242-2.466-.316.015-.535 1.073-.412 2.578.091 1 .253 1.99.485 2.96Z"
        fill="#DD00A1"
    />
    <path
        d="M5.863 11.644c.19 0 .346-.18.346-.404 0-.223-.155-.404-.346-.404-.19 0-.346.181-.346.404 0 .223.155.404.346.404Zm4.083 0c.191 0 .346-.18.346-.404 0-.223-.155-.404-.346-.404-.19 0-.345.181-.345.404 0 .223.154.404.345.404Z"
        fill="#F9D8D2"
    />
    <path
        d="M8.478 11.205a.031.031 0 0 0-.022-.01.031.031 0 0 0-.022.01s-.102.208-.252.22a.333.333 0 0 1-.146-.04.386.386 0 0 1-.12-.105v-.284c.095-.06.25-.247.25-.312a.299.299 0 0 0-.096-.172.224.224 0 0 0-.17-.055c-.179 0-.304.136-.304.248 0 .112.196.256.251.3v.302a.335.335 0 0 1-.102.102.282.282 0 0 1-.13.043c-.142 0-.249-.225-.249-.227a.036.036 0 0 0-.019-.018.03.03 0 0 0-.025.002.036.036 0 0 0-.015.02.043.043 0 0 0 0 .028c0 .012.127.268.309.268a.326.326 0 0 0 .147-.042.382.382 0 0 0 .12-.108.41.41 0 0 0 .283.152h.025a.411.411 0 0 0 .178-.09.5.5 0 0 0 .136-.196.041.041 0 0 0-.009-.026.042.042 0 0 0-.018-.01Z"
        fill="#10110E"
    />
    <path
        d="M6.234 7.873s-.487-1.457-.59-2.23c-.103-.773-.178-2.037-.054-2.885.05-.392.121-.781.212-1.164 0 0-.233 1.977-.146 2.841.088.864.578 3.438.578 3.438Zm2.41-.447S9 5.22 9.519 4.352c.518-.869 1.168-1.914 1.487-2.18l.324-.267S10.023 3.5 9.52 4.82c-.505 1.32-.875 2.606-.875 2.606Z"
        fill="#E5E5E5"
    />
    <path
        d="M6.567 9.924a.244.244 0 0 0-.15.054.311.311 0 0 0-.1.142.366.366 0 0 0-.016.182c.01.062.036.118.074.162a.261.261 0 0 0 .139.087.234.234 0 0 0 .156-.018.285.285 0 0 0 .122-.117.356.356 0 0 0 .045-.175.346.346 0 0 0-.078-.223.254.254 0 0 0-.189-.094h-.003Zm.07.294a.067.067 0 0 1-.04-.015.086.086 0 0 1-.028-.04.101.101 0 0 1-.005-.05.093.093 0 0 1 .02-.044.072.072 0 0 1 .04-.025.065.065 0 0 1 .042.005.078.078 0 0 1 .034.033.098.098 0 0 1 .013.048.1.1 0 0 1-.005.034.09.09 0 0 1-.016.029.075.075 0 0 1-.024.02.066.066 0 0 1-.028.007l-.002-.002Zm2.593-.294a.244.244 0 0 0-.15.052.31.31 0 0 0-.101.142.366.366 0 0 0-.017.182c.01.062.036.118.073.163a.262.262 0 0 0 .139.088.234.234 0 0 0 .156-.017.284.284 0 0 0 .122-.116.364.364 0 0 0 .027-.297.327.327 0 0 0-.058-.103.274.274 0 0 0-.088-.069.238.238 0 0 0-.103-.025Zm.08.294a.065.065 0 0 1-.029-.006.076.076 0 0 1-.024-.018.088.088 0 0 1-.017-.028.098.098 0 0 1 .015-.095.072.072 0 0 1 .052-.028c.01 0 .02.002.028.006.01.004.018.01.025.018a.088.088 0 0 1 .017.028.098.098 0 0 1-.014.094.074.074 0 0 1-.023.02.063.063 0 0 1-.028.007l-.002.002Z"
        fill="#10110E"
    />
    <path
        opacity=".2"
        d="M7.95 12.477c1.386 0 2.511-.947 2.511-2.115 0-1.169-1.125-2.116-2.512-2.116s-2.512.947-2.512 2.116c0 1.168 1.125 2.115 2.512 2.115Z"
        fill="#8ACCCE"
    />
    <path
        d="M10.99 9.185v-1.4a.434.434 0 0 0 .24-.17.565.565 0 0 0 .1-.306.588.588 0 0 0-.153-.352.436.436 0 0 0-.316-.142.436.436 0 0 0-.316.142.589.589 0 0 0-.153.352c.005.112.04.22.103.306a.437.437 0 0 0 .24.17V9.15H10.7C10.343 7.704 9.29 6.8 7.915 6.8c-1.375 0-2.433.896-2.783 2.35h-.119a.451.451 0 0 0-.35.146.616.616 0 0 0-.163.391v1.07a.61.61 0 0 0 .162.394.45.45 0 0 0 .351.146h.162c.136.41.356.775.64 1.064l-.23.244a.161.161 0 0 0-.034.05.183.183 0 0 0 .018.179C6.09 13.569 6.944 14 7.909 14c.963 0 1.818-.416 2.34-1.166a.184.184 0 0 0 .033-.12.175.175 0 0 0-.049-.111l-.232-.248a2.74 2.74 0 0 0 .64-1.058h.178a.448.448 0 0 0 .352-.147.615.615 0 0 0 .16-.395V9.687a.595.595 0 0 0-.1-.317.461.461 0 0 0-.24-.185Zm-3.075-.833c1.272 0 2.305.979 2.305 2.18 0 1.302-1.16 1.875-2.305 1.875-1.145 0-2.305-.577-2.305-1.885 0-1.191 1.028-2.18 2.305-2.18v.01Z"
        fill="#fff"
    />
    <path
        d="M11.076 10.405h-.34v-.208c0-.265-.024-.53-.07-.79h.146a.22.22 0 0 1 .174.069.3.3 0 0 1 .082.192l.008.737Zm-.257.629h-.178c.034-.15.059-.3.075-.454h.356v.177a.32.32 0 0 1-.02.107.286.286 0 0 1-.052.09.238.238 0 0 1-.079.058.208.208 0 0 1-.091.02h-.011v.002Zm-2.904 2.69c-.853 0-1.614-.358-2.091-.995l.231-.252a2.859 2.859 0 0 0 1.853.625 2.837 2.837 0 0 0 1.853-.625l.24.252c-.472.637-1.225.995-2.086.995ZM5.013 9.418h.151a4.68 4.68 0 0 0-.067.79 2.03 2.03 0 0 0 0 .207h-.332v-.728a.29.29 0 0 1 .064-.188.213.213 0 0 1 .157-.08h.027Z"
        fill="#515151"
    />
    <path
        d="M7.915 8.162c-.289.002-.576.05-.853.144v-1.09c.277-.09.565-.135.853-.132.29-.003.577.042.855.133v1.095a2.46 2.46 0 0 0-.855-.15Z"
        fill="#000"
    />
    <path
        d="M4.757 10.58h.356c.017.152.043.302.076.45h-.178a.22.22 0 0 1-.174-.068.3.3 0 0 1-.082-.192v-.19h.002Zm6.105-3.047a.22.22 0 0 0 .214-.225.22.22 0 0 0-.214-.224.22.22 0 0 0-.214.224.22.22 0 0 0 .214.225Z"
        fill="#515151"
    />
</svg>
