<svg width="16" height="16" fill="none" xmlns="http://www.w3.org/2000/svg">
    <path
        d="M6.706 13.41c.175-.136-.283-.085-.321-.177a2.466 2.466 0 0 1-.536-.114c-.329-.099-1.108-.72-1.19-1.303-.081-.582 0-1.714.348-2.378a3.62 3.62 0 0 1 .842-1.04s-.679-1.903-.737-3.34C5.052 3.62 5.14 1.047 5.946 1c.805-.047.663 2.35.536 3.907a23.65 23.65 0 0 0-.04 3.114 3.189 3.189 0 0 1 1.047-.206c.313-.008.625.026.93.103 0 0 .252-2.21 1.092-3.587.84-1.376 1.71-2.793 2.28-2.392.57.401-.154 1.836-.658 2.583-.503.746-1.377 1.867-1.668 2.466-.19.398-.358.81-.504 1.235.52.314.944.809 1.217 1.417.393.96.431 2.15.218 2.652-.11.232-.264.434-.448.588-.184.155-.395.26-.618.308-.25.023-1.313.332-1.313.332l-1.311-.11Z"
        fill="#fff"
    />
    <path
        d="M8.56 7.936s.633-1.95 1.201-3.049c.569-1.098 1.33-1.925 1.57-1.757.24.168-.49 1.2-1.125 2.201a26.417 26.417 0 0 0-1.414 2.773l-.231-.168Zm-2.538.336.18-.168s-.024-1.95 0-3.138c.025-1.188.078-2.67-.258-2.655-.336.016-.57 1.155-.439 2.776.097 1.077.27 2.142.517 3.185Z"
        fill="#DD00A1"
    />
    <path
        d="M5.454 12.458c.203 0 .368-.195.368-.435s-.165-.435-.368-.435c-.204 0-.369.195-.369.435s.165.435.369.435Zm4.356 0c.203 0 .368-.195.368-.435s-.165-.435-.369-.435-.369.195-.369.435.165.435.37.435Z"
        fill="#F9D8D2"
    />
    <path
        d="M8.243 11.985a.033.033 0 0 0-.024-.01.033.033 0 0 0-.023.01s-.109.224-.268.237a.352.352 0 0 1-.156-.044.415.415 0 0 1-.13-.113v-.304c.103-.065.269-.267.269-.337a.323.323 0 0 0-.104-.185.237.237 0 0 0-.181-.059c-.19 0-.323.146-.323.267 0 .12.209.276.268.323v.325a.36.36 0 0 1-.11.11.298.298 0 0 1-.138.046c-.152 0-.266-.242-.266-.244a.038.038 0 0 0-.02-.02.03.03 0 0 0-.027.002.04.04 0 0 0-.016.022.047.047 0 0 0 0 .03c0 .013.136.289.33.289a.347.347 0 0 0 .156-.045.409.409 0 0 0 .129-.116.44.44 0 0 0 .302.163h.026a.436.436 0 0 0 .19-.097.537.537 0 0 0 .145-.211c0-.01-.004-.02-.01-.028a.043.043 0 0 0-.019-.011Z"
        fill="#10110E"
    />
    <path
        d="M5.849 8.398s-.519-1.57-.629-2.401c-.11-.832-.19-2.193-.057-3.105.053-.423.129-.841.226-1.253 0 0-.249 2.127-.156 3.058.093.93.616 3.7.616 3.7Zm2.571-.482s.38-2.374.933-3.309S10.6 2.547 10.94 2.26l.346-.287S9.89 3.69 9.353 5.111c-.538 1.422-.933 2.805-.933 2.805Z"
        fill="#E5E5E5"
    />
    <path
        d="M6.204 10.606a.259.259 0 0 0-.16.058.335.335 0 0 0-.107.152.398.398 0 0 0-.016.197.364.364 0 0 0 .079.175.28.28 0 0 0 .148.093.248.248 0 0 0 .167-.02.304.304 0 0 0 .13-.125.385.385 0 0 0 .048-.19.377.377 0 0 0-.083-.239.27.27 0 0 0-.202-.1h-.004Zm.076.316a.071.071 0 0 1-.044-.016.092.092 0 0 1-.03-.042.11.11 0 0 1-.004-.054.1.1 0 0 1 .022-.049.077.077 0 0 1 .04-.025.068.068 0 0 1 .047.005c.014.007.027.02.036.035a.107.107 0 0 1 .013.052.11.11 0 0 1-.022.067.082.082 0 0 1-.025.021.07.07 0 0 1-.03.008l-.003-.002Zm2.765-.316a.258.258 0 0 0-.16.056.334.334 0 0 0-.108.152.398.398 0 0 0-.017.197c.01.066.038.127.078.175a.28.28 0 0 0 .147.095.248.248 0 0 0 .167-.019.304.304 0 0 0 .13-.124.395.395 0 0 0 .028-.32.351.351 0 0 0-.061-.11.291.291 0 0 0-.093-.075.252.252 0 0 0-.11-.027Zm.086.316a.07.07 0 0 1-.031-.006.08.08 0 0 1-.026-.02.096.096 0 0 1-.018-.03.107.107 0 0 1 .016-.102.077.077 0 0 1 .055-.03c.01 0 .02.002.03.006.01.005.02.011.027.02a.095.095 0 0 1 .018.03.106.106 0 0 1-.015.102.079.079 0 0 1-.025.02.068.068 0 0 1-.03.008l-.001.002Z"
        fill="#10110E"
    />
    <path
        opacity=".2"
        d="M7.679 13.354c1.48 0 2.68-1.02 2.68-2.277 0-1.258-1.2-2.278-2.68-2.278-1.48 0-2.68 1.02-2.68 2.278s1.2 2.277 2.68 2.277Z"
        fill="#8ACCCE"
    />
    <path
        d="M10.923 9.81V8.304a.464.464 0 0 0 .255-.185.61.61 0 0 0 .107-.329.636.636 0 0 0-.164-.378.463.463 0 0 0-.336-.153.463.463 0 0 0-.337.153.636.636 0 0 0-.164.378.615.615 0 0 0 .11.33.466.466 0 0 0 .257.184v1.468h-.038c-.38-1.556-1.503-2.529-2.97-2.529-1.467 0-2.596.964-2.968 2.53h-.128a.479.479 0 0 0-.374.156.667.667 0 0 0-.173.421v1.153a.67.67 0 0 0 .172.423.477.477 0 0 0 .375.157h.173c.145.442.38.835.682 1.146l-.245.262a.172.172 0 0 0-.036.054.199.199 0 0 0 .02.193c.556.791 1.466 1.255 2.494 1.255 1.028 0 1.94-.448 2.497-1.255a.2.2 0 0 0-.017-.249l-.247-.267c.302-.309.536-.7.682-1.139h.19a.476.476 0 0 0 .375-.158.664.664 0 0 0 .17-.424v-1.15a.644.644 0 0 0-.105-.341.492.492 0 0 0-.257-.2Zm-3.28-.896c1.357 0 2.459 1.053 2.459 2.347 0 1.4-1.237 2.017-2.46 2.017-1.221 0-2.458-.62-2.458-2.029 0-1.282 1.096-2.347 2.459-2.347v.012Z"
        fill="#fff"
    />
    <path
        d="M11.014 11.124h-.363V10.9c0-.286-.025-.57-.074-.85h.156a.233.233 0 0 1 .185.073.324.324 0 0 1 .088.207l.008.794Zm-.274.677h-.19a4.21 4.21 0 0 0 .08-.489h.38v.19a.36.36 0 0 1-.02.115.307.307 0 0 1-.057.097.255.255 0 0 1-.084.064.221.221 0 0 1-.097.02h-.012v.003Zm-3.097 2.896c-.91 0-1.722-.385-2.231-1.071l.247-.271a3.03 3.03 0 0 0 1.976.672 3.007 3.007 0 0 0 1.976-.672l.257.27c-.504.687-1.307 1.072-2.225 1.072Zm-3.096-4.636h.162c-.048.28-.072.565-.072.85-.004.075-.004.15 0 .224h-.354v-.784a.314.314 0 0 1 .067-.202.226.226 0 0 1 .169-.088h.028Z"
        fill="#515151"
    />
    <path
        d="M7.643 8.71a2.884 2.884 0 0 0-.91.154V7.692a2.81 2.81 0 0 1 .91-.144 2.82 2.82 0 0 1 .912.144V8.87a2.601 2.601 0 0 0-.912-.161Z"
        fill="#000"
    />
    <path
        d="M4.274 11.312h.38c.018.164.046.325.081.485h-.19a.233.233 0 0 1-.186-.074.325.325 0 0 1-.087-.207v-.204h.002Zm6.512-3.279c.126 0 .228-.109.228-.243 0-.133-.102-.242-.228-.242s-.228.109-.228.242c0 .134.102.243.228.243Z"
        fill="#515151"
    />
</svg>
