<svg width="16" height="16" viewBox="0 0 16 16" fill="none" xmlns="http://www.w3.org/2000/svg">
<path fill-rule="evenodd" clip-rule="evenodd" d="M1 7.99999C1 9.01921 1.66233 9.88581 2.58549 10.2036C2.39897 10.5373 2.29283 10.9209 2.29283 11.3289C2.29283 12.6175 3.35163 13.6622 4.65772 13.6622C5.05313 13.6622 5.42588 13.5665 5.75344 13.3972C6.06417 14.328 6.95261 15 8.00012 15C9.04762 15 9.93605 14.328 10.2468 13.3972C10.5743 13.5665 10.9471 13.6622 11.3425 13.6622C12.6486 13.6622 13.7074 12.6175 13.7074 11.3289C13.7074 10.9209 13.6012 10.5373 13.4147 10.2036C14.3378 9.88578 15.0002 9.0192 15.0002 7.99999C15.0002 6.98077 14.3378 6.11418 13.4147 5.79635C13.6012 5.46266 13.7074 5.07909 13.7074 4.67105C13.7074 3.38239 12.6486 2.33772 11.3425 2.33772C10.9471 2.33772 10.5743 2.43346 10.2468 2.60274C9.936 1.67192 9.04759 1 8.00012 1C6.95264 1 6.06422 1.67192 5.75346 2.60275C5.42589 2.43347 5.05314 2.33772 4.65772 2.33772C3.35163 2.33772 2.29283 3.38239 2.29283 4.67105C2.29283 5.07908 2.39898 5.46265 2.58552 5.79633C1.66234 6.11415 1 6.98075 1 7.99999Z" fill="#D2D2D2"/>
<path d="M5.5 10.5L10.5 5.5M10.5 10.5L5.5 5.5" stroke="white" stroke-width="1.5" stroke-linecap="round" stroke-linejoin="round"/>
</svg>
