<svg  viewBox="0 0 16 16" fill="none" xmlns="http://www.w3.org/2000/svg">
<circle cx="8" cy="8" r="7" fill="#F4B444"/>
<path d="M5.20004 11C5.08959 11 5 10.9103 5.00003 10.7998C5.00011 10.4758 5.00037 10.2759 5.00015 10.0813C5.00009 10.0292 5.02034 9.97906 5.05664 9.94165L8.25541 6.64484C8.33282 6.56506 8.46044 6.56371 8.53952 6.64184L9.43346 7.52505C9.51442 7.60504 9.5124 7.73637 9.42903 7.81384L6.05759 10.9465C6.02059 10.9809 5.97173 11 5.92122 11C5.56778 11 5.49151 11 5.20004 11ZM10.4114 6.84201C10.3333 6.92011 10.2067 6.92011 10.1286 6.84201L9.23277 5.94618C9.15467 5.86808 9.15467 5.74145 9.23277 5.66334L9.79835 5.09776C9.86088 5.03517 9.94572 5 10.0342 5C10.1227 5 10.2075 5.03517 10.27 5.09776L10.977 5.80476C11.0396 5.86728 11.0748 5.95213 11.0748 6.0406C11.0748 6.12907 11.0396 6.21391 10.977 6.27643L10.4114 6.84201Z" fill="white"/>
</svg>
