<svg width="16" height="16" viewBox="0 0 16 16" fill="none" xmlns="http://www.w3.org/2000/svg">
<path d="M6.50003 5V12.7324C6.50003 12.8147 6.47971 12.8958 6.44087 12.9683C6.40203 13.0409 6.34587 13.1028 6.27738 13.1484L5.59037 13.6064C5.52371 13.6509 5.44733 13.6787 5.36769 13.6874C5.28804 13.6962 5.20746 13.6857 5.13273 13.6568C5.05799 13.6279 4.9913 13.5815 4.93826 13.5214C4.88522 13.4613 4.84739 13.3894 4.82795 13.3117L4.00003 10.5" stroke="#5277D7" stroke-linecap="round" stroke-linejoin="round"/>
<path d="M3.5 10.3642C2.83696 10.3642 2.20107 10.1008 1.73223 9.63193C1.26339 9.16309 1 8.52721 1 7.86417C1 7.20112 1.26339 6.56524 1.73223 6.0964C2.20107 5.62756 2.83696 5.36417 3.5 5.36417H6C6 5.36417 9.40323 5.36417 12.6782 2.61744C12.751 2.55614 12.8399 2.5169 12.9342 2.50436C13.0286 2.49181 13.1246 2.50648 13.2109 2.54662C13.2972 2.58677 13.3703 2.65073 13.4215 2.73098C13.4727 2.81123 13.5 2.90444 13.5 2.99964V12.7287C13.5 12.8239 13.4727 12.9171 13.4215 12.9973C13.3703 13.0776 13.2972 13.1416 13.2109 13.1817C13.1246 13.2219 13.0286 13.2365 12.9342 13.224C12.8399 13.2114 12.751 13.1722 12.6782 13.1109C9.40323 10.3642 6 10.3642 6 10.3642H3.5Z" stroke="#5277D7" stroke-linecap="round" stroke-linejoin="round"/>
</svg>
