<svg viewBox="0 0 16 16" fill="none" xmlns="http://www.w3.org/2000/svg">
<path fill-rule="evenodd" clip-rule="evenodd" d="M1.33374 8.02342C1.33374 9.00723 1.96453 9.84371 2.84372 10.1505C2.66609 10.4726 2.565 10.8428 2.565 11.2366C2.565 12.4805 3.57337 13.4889 4.81725 13.4889C5.19383 13.4889 5.54882 13.3965 5.86078 13.2331C6.15673 14.1316 7.00284 14.7801 8.00044 14.7801C8.99803 14.7801 9.84414 14.1316 10.1401 13.2331C10.452 13.3965 10.807 13.4889 11.1836 13.4889C12.4275 13.4889 13.4359 12.4805 13.4359 11.2366C13.4359 10.8428 13.3348 10.4726 13.1571 10.1505C14.0363 9.84368 14.6671 9.00721 14.6671 8.02342C14.6671 7.03962 14.0363 6.20315 13.1571 5.89636C13.3348 5.57427 13.4359 5.20403 13.4359 4.81018C13.4359 3.5663 12.4275 2.55793 11.1836 2.55793C10.807 2.55793 10.452 2.65035 10.1401 2.81374C9.84414 1.91525 8.99803 1.26666 8.00044 1.26666C7.00284 1.26666 6.15673 1.91525 5.86078 2.81375C5.54882 2.65035 5.19383 2.55793 4.81725 2.55793C3.57337 2.55793 2.565 3.5663 2.565 4.81018C2.565 5.20402 2.66609 5.57425 2.84373 5.89634C1.96453 6.20311 1.33374 7.0396 1.33374 8.02342Z" fill="#00A680"/>
<path d="M10.7123 7.06658L7.61137 10.05C7.4121 10.2418 7.31246 10.3376 7.19033 10.3368C7.06821 10.3361 6.96981 10.2389 6.77302 10.0447L5.27741 8.56823C5.07474 8.36815 4.9734 8.26811 4.97299 8.14315C4.97259 8.01819 5.07328 7.9175 5.27467 7.71612L5.47359 7.51719C5.67379 7.31699 5.77389 7.21689 5.89828 7.21689C6.02267 7.21689 6.12277 7.31699 6.32297 7.51719L7.03729 8.23151C7.13739 8.33161 7.18744 8.38166 7.24963 8.38166C7.31182 8.38166 7.36187 8.33161 7.46197 8.23151L9.67779 6.01569C9.87799 5.81549 9.97809 5.71539 10.1025 5.71539C10.2269 5.71539 10.327 5.81549 10.5272 6.01569L10.7206 6.20909C10.9243 6.41285 11.0262 6.51473 11.025 6.64081C11.0238 6.7669 10.9199 6.86679 10.7123 7.06658Z" fill="white"/>
</svg>
