<svg viewBox="0 0 16 16" fill="none" xmlns="http://www.w3.org/2000/svg">
<path fill-rule="evenodd" clip-rule="evenodd" d="M0.999817 8.00004C0.999817 9.01926 1.66214 9.88586 2.58531 10.2037C2.39879 10.5374 2.29265 10.9209 2.29265 11.3289C2.29265 12.6176 3.35145 13.6623 4.65754 13.6623C5.05295 13.6623 5.42569 13.5665 5.75325 13.3972C6.06399 14.3281 6.95243 15.0001 7.99993 15.0001C9.04743 15.0001 9.93587 14.3281 10.2466 13.3972C10.5742 13.5665 10.9469 13.6623 11.3423 13.6623C12.6484 13.6623 13.7072 12.6176 13.7072 11.3289C13.7072 10.9209 13.601 10.5374 13.4145 10.2037C14.3377 9.88583 15 9.01925 15 8.00004C15 6.98082 14.3377 6.11423 13.4145 5.7964C13.601 5.46271 13.7072 5.07914 13.7072 4.6711C13.7072 3.38244 12.6484 2.33777 11.3423 2.33777C10.9469 2.33777 10.5741 2.43352 10.2466 2.60279C9.93582 1.67197 9.04741 1.00005 7.99993 1.00005C6.95245 1.00005 6.06404 1.67198 5.75328 2.60281C5.42571 2.43352 5.05296 2.33777 4.65754 2.33777C3.35145 2.33777 2.29265 3.38244 2.29265 4.6711C2.29265 5.07913 2.3988 5.4627 2.58533 5.79639C1.66216 6.11421 0.999817 6.98081 0.999817 8.00004Z" fill="#00B38A"/>
<path d="M10.6898 7.0745L7.6139 10.0339C7.41623 10.224 7.3174 10.3191 7.19626 10.3184C7.07512 10.3176 6.97752 10.2212 6.78232 10.0285L5.29879 8.56402C5.09775 8.36555 4.99723 8.26632 4.99683 8.14237C4.99643 8.01843 5.09631 7.91855 5.29606 7.71879L5.49338 7.52147C5.69196 7.32289 5.79126 7.2236 5.91464 7.2236C6.03802 7.2236 6.13732 7.32289 6.3359 7.52147L7.04445 8.23002C7.14374 8.32931 7.19338 8.37896 7.25508 8.37896C7.31677 8.37896 7.36641 8.32931 7.46571 8.23002L9.66363 6.0321C9.86221 5.83351 9.9615 5.73422 10.0849 5.73422C10.2083 5.73422 10.3076 5.83351 10.5061 6.0321L10.698 6.22393C10.9001 6.42605 11.0012 6.5271 10.9999 6.65217C10.9987 6.77724 10.8957 6.87632 10.6898 7.0745Z" fill="white"/>
</svg>
