<svg viewBox="0 0 16 16" fill="none" xmlns="http://www.w3.org/2000/svg">
<path fill-rule="evenodd" clip-rule="evenodd" d="M0.999832 7.99999C0.999832 9.01921 1.66216 9.88581 2.58532 10.2036C2.3988 10.5373 2.29266 10.9209 2.29266 11.3289C2.29266 12.6175 3.35146 13.6622 4.65756 13.6622C5.05297 13.6622 5.42571 13.5665 5.75327 13.3972C6.06401 14.328 6.95244 15 7.99995 15C9.04745 15 9.93588 14.328 10.2466 13.3972C10.5742 13.5665 10.9469 13.6622 11.3423 13.6622C12.6484 13.6622 13.7072 12.6175 13.7072 11.3289C13.7072 10.9209 13.6011 10.5373 13.4145 10.2036C14.3377 9.88578 15 9.0192 15 7.99999C15 6.98077 14.3377 6.11418 13.4145 5.79635C13.6011 5.46266 13.7072 5.07909 13.7072 4.67105C13.7072 3.38239 12.6484 2.33772 11.3423 2.33772C10.9469 2.33772 10.5742 2.43346 10.2466 2.60274C9.93584 1.67192 9.04742 1 7.99995 1C6.95247 1 6.06405 1.67192 5.75329 2.60275C5.42572 2.43347 5.05298 2.33772 4.65756 2.33772C3.35146 2.33772 2.29266 3.38239 2.29266 4.67105C2.29266 5.07908 2.39881 5.46265 2.58535 5.79633C1.66217 6.11415 0.999832 6.98075 0.999832 7.99999Z" fill="#00A680"/>
<path d="M10.6898 7.07447L7.61394 10.0338C7.41628 10.224 7.31745 10.3191 7.19631 10.3183C7.07517 10.3175 6.97756 10.2212 6.78236 10.0285L5.29884 8.56398C5.09779 8.36552 4.99727 8.26629 4.99687 8.14234C4.99647 8.01839 5.09635 7.91852 5.29611 7.71876L5.49343 7.52144C5.69201 7.32286 5.7913 7.22357 5.91469 7.22357C6.03807 7.22357 6.13736 7.32286 6.33594 7.52144L7.04449 8.22999C7.14378 8.32928 7.19343 8.37893 7.25512 8.37893C7.31681 8.37893 7.36646 8.32928 7.46575 8.22999L9.66367 6.03207C9.86226 5.83348 9.96155 5.73419 10.0849 5.73419C10.2083 5.73419 10.3076 5.83348 10.5062 6.03207L10.698 6.2239C10.9001 6.42602 11.0012 6.52707 11 6.65214C10.9988 6.7772 10.8958 6.87629 10.6898 7.07447Z" fill="white"/>
</svg>
