<svg viewBox="0 0 16 16" fill="none" xmlns="http://www.w3.org/2000/svg">
<circle cx="8" cy="8" r="7" fill="#F4B444"/>
<path fill-rule="evenodd" clip-rule="evenodd" d="M7.40206 9H8.59794C8.67386 9 8.7365 8.94061 8.74054 8.8648L8.99198 4.15041C8.99634 4.06867 8.93123 4 8.84938 4H7.15063C7.06877 4 7.00366 4.06867 7.00802 4.15041L7.25946 8.8648C7.2635 8.94061 7.32615 9 7.40206 9ZM8 12C8.55228 12 9 11.5523 9 11C9 10.4477 8.55228 10 8 10C7.44772 10 7 10.4477 7 11C7 11.5523 7.44772 12 8 12Z" fill="white"/>
</svg>
