<svg viewBox="0 0 16 16" fill="none" xmlns="http://www.w3.org/2000/svg">
<path d="M7.33305 2.51866C7.62965 2.00493 8.37115 2.00493 8.66775 2.51866L14.5627 12.729C14.8593 13.2427 14.4885 13.8848 13.8953 13.8848H2.10548C1.51228 13.8848 1.14153 13.2427 1.43813 12.729L7.33305 2.51866Z" fill="#F4B444"/>
<path fill-rule="evenodd" clip-rule="evenodd" d="M7.4138 9.91632H8.56131C8.63609 9.91632 8.69821 9.85864 8.70373 9.78406L8.93944 6.60202C8.94557 6.51923 8.88005 6.44867 8.79702 6.44867H7.1781C7.09507 6.44867 7.02955 6.51923 7.03568 6.60202L7.27139 9.78406C7.27691 9.85864 7.33903 9.91632 7.4138 9.91632ZM8.00044 12.4336C8.56789 12.4336 9.0279 11.9736 9.0279 11.4061C9.0279 10.8387 8.56789 10.3787 8.00044 10.3787C7.433 10.3787 6.97299 10.8387 6.97299 11.4061C6.97299 11.9736 7.433 12.4336 8.00044 12.4336Z" fill="white"/>
</svg>
