<svg width="16" height="16" viewBox="0 0 16 16" fill="none" xmlns="http://www.w3.org/2000/svg">
<circle cx="8" cy="8" r="7" fill="#F4B444"/>
<path d="M5.33466 11.0731C5.24115 11.0729 5.15202 11.0335 5.08899 10.9644C5.02481 10.8959 4.99291 10.8033 5.00133 10.7098L5.08299 9.81176L8.85566 6.04043L10.0347 7.2191L6.26299 10.9901L5.36499 11.0718C5.35466 11.0728 5.34433 11.0731 5.33466 11.0731ZM10.27 6.98343L9.09133 5.80476L9.79833 5.09776C9.86085 5.03517 9.94569 5 10.0342 5C10.1226 5 10.2075 5.03517 10.27 5.09776L10.977 5.80476C11.0396 5.86728 11.0748 5.95213 11.0748 6.0406C11.0748 6.12907 11.0396 6.21391 10.977 6.27643L10.2703 6.9831L10.27 6.98343Z" fill="white"/>
</svg>
