<svg width="16" height="17" viewBox="0 0 16 17" fill="none" xmlns="http://www.w3.org/2000/svg">
<circle cx="8" cy="8.24866" r="5" fill="#D75252"/>
<path fill-rule="evenodd" clip-rule="evenodd" d="M7.39734 8.24866H8.60266C8.67663 8.24866 8.73835 8.19217 8.7449 8.1185L8.98618 5.40411C8.99361 5.32058 8.9278 5.24866 8.84394 5.24866H7.15606C7.0722 5.24866 7.00639 5.32058 7.01382 5.40411L7.2551 8.1185C7.26165 8.19217 7.32337 8.24866 7.39734 8.24866ZM8 11.2487C8.55228 11.2487 9 10.8009 9 10.2487C9 9.69637 8.55228 9.24866 8 9.24866C7.44772 9.24866 7 9.69637 7 10.2487C7 10.8009 7.44772 11.2487 8 11.2487Z" fill="white"/>
</svg>
