<svg width="16" height="16" viewBox="0 0 16 16" fill="none" xmlns="http://www.w3.org/2000/svg">
<path fill-rule="evenodd" clip-rule="evenodd" d="M8 14C11.3137 14 14 11.3137 14 8C14 4.68629 11.3137 2 8 2C4.68629 2 2 4.68629 2 8C2 11.3137 4.68629 14 8 14ZM8 12C10.2091 12 12 10.2091 12 8C12 5.79086 10.2091 4 8 4C5.79086 4 4 5.79086 4 8C4 10.2091 5.79086 12 8 12Z" fill="#BDCDF4"/>
<path fill-rule="evenodd" clip-rule="evenodd" d="M12.8778 11.4939C13.6076 10.475 14 9.25325 14 8L8.00001 8H12C12 8.83556 11.7383 9.65014 11.2518 10.3294C10.7652 11.0087 10.0781 11.5185 9.28696 11.7873C8.49583 12.0561 7.64037 12.0705 6.84068 11.8283C6.04099 11.5861 5.3372 11.0996 4.82813 10.4371C4.31906 9.77448 4.03025 8.96913 4.00225 8.13404C3.97425 7.29895 4.20847 6.47606 4.67202 5.78087C5.13558 5.08569 5.80519 4.55313 6.58687 4.25794C7.36813 3.96291 8.22212 3.9198 9.0291 4.13465L9.54365 2.20197C8.33259 1.87954 7.05096 1.94443 5.87865 2.38753C4.70634 2.83062 3.70221 3.62969 3.00719 4.67256C2.31217 5.71544 1.96116 6.94977 2.00341 8.2023C2.04567 9.45484 2.47908 10.6627 3.2428 11.6564C4.00653 12.65 5.06223 13.3796 6.26173 13.7427C7.46124 14.1058 8.74433 14.0841 9.93091 13.6808C11.1175 13.2775 12.148 12.5127 12.8778 11.4939Z" fill="#5277D7"/>
</svg>
