<svg width="16" height="16" viewBox="0 0 16 16" fill="none" xmlns="http://www.w3.org/2000/svg">
<path d="M15 8C15 9.38447 14.5895 10.7378 13.8203 11.889C13.0511 13.0401 11.9579 13.9373 10.6788 14.4672C9.3997 14.997 7.99224 15.1356 6.63437 14.8655C5.2765 14.5954 4.02922 13.9287 3.05026 12.9497C2.07129 11.9708 1.4046 10.7235 1.13451 9.36563C0.86441 8.00776 1.00303 6.6003 1.53285 5.32121C2.06266 4.04213 2.95987 2.94888 4.11101 2.17971C5.26215 1.41054 6.61553 1 8 1C9.85652 1 11.637 1.7375 12.9497 3.05025C14.2625 4.36301 15 6.14348 15 8ZM12.2175 6.74C12.3722 6.58529 12.4591 6.37546 12.4591 6.15667C12.4591 5.93787 12.3722 5.72804 12.2175 5.57333C12.0628 5.41862 11.853 5.33171 11.6342 5.33171C11.4154 5.33171 11.2055 5.41862 11.0508 5.57333L7.10167 9.5225L5.08334 7.51C4.92863 7.35529 4.71879 7.26837 4.5 7.26837C4.28121 7.26837 4.07138 7.35529 3.91667 7.51C3.76196 7.66471 3.67504 7.87454 3.67504 8.09333C3.67504 8.31212 3.76196 8.52195 3.91667 8.67666L7.09584 11.8558L12.2175 6.74Z" fill="#00A680"/>
</svg>
