<svg viewBox="0 0 32 32" fill="none" xmlns="http://www.w3.org/2000/svg">
<rect width="32" height="32" rx="4" fill="#F4F6FD"/>
<path d="M17.5 12.5C17.5 10.8431 16.1569 9.5 14.5 9.5C12.8431 9.5 11.5 10.8431 11.5 12.5C11.5 14.1569 12.8431 15.5 14.5 15.5" stroke="#5277D7" stroke-linecap="round"/>
<path d="M14.5 15.5C11.7386 15.5 9.5 17 9.5 20.5V21.5" stroke="#5277D7" stroke-linecap="round"/>
<path d="M21.8028 17.088C21.8983 17.2282 21.9832 17.3755 22.0566 17.5285L23.1044 18.1101C23.232 18.6962 23.2324 19.3029 23.1056 19.8892L22.0573 20.4711C21.9836 20.624 21.8985 20.7711 21.8028 20.9112L21.8229 22.1094C21.3792 22.5129 20.854 22.8166 20.2829 23L19.2548 22.3831C19.0855 22.3957 18.9155 22.3956 18.7463 22.3827L17.7188 22.9993C17.1474 22.8167 16.6218 22.5138 16.1774 22.1108L16.1976 20.912C16.1021 20.7718 16.0172 20.6245 15.9437 20.4715L14.896 19.8899C14.7684 19.3038 14.768 18.6971 14.8947 18.1108L15.943 17.5289C16.0167 17.376 16.1018 17.2289 16.1976 17.0888L16.1774 15.8906C16.6212 15.4871 17.1464 15.1834 17.7175 15L18.7456 15.6169C18.9149 15.6043 19.0848 15.6044 19.2541 15.6173L20.2816 15.0007C20.853 15.1833 21.3786 15.4862 21.8229 15.8892L21.8028 17.088Z" fill="#D7F6FC" stroke="#5277D7" stroke-linecap="round" stroke-linejoin="round"/>
<path d="M19 20.5C19.8284 20.5 20.5 19.8284 20.5 19C20.5 18.1716 19.8284 17.5 19 17.5C18.1716 17.5 17.5 18.1716 17.5 19C17.5 19.8284 18.1716 20.5 19 20.5Z" fill="white" stroke="#5277D7" stroke-linecap="round" stroke-linejoin="round"/>
</svg>
