<svg width="44" height="31" viewBox="0 0 44 31" fill="none" xmlns="http://www.w3.org/2000/svg">
<path d="M21 20.5C21 26.299 16.299 31 10.5 31C4.70101 31 0 26.299 0 20.5C0 14.701 4.70101 10 10.5 10C16.299 10 21 14.701 21 20.5Z" fill="url(#paint0_linear_163:17090)"/>
<path d="M27 27.8088C27 29.019 26.0217 30 24.8144 30H16.906C15.3012 30 14 28.6957 14 27.0861C14 25.477 15.3012 24.1723 16.906 24.1723C17.0499 24.1723 17.1913 24.1833 17.3301 24.2035C17.9863 22.8967 19.3359 22 20.895 22C22.7815 22 24.3619 23.3134 24.7772 25.0779C24.8186 25.2541 24.8485 25.4346 24.8657 25.6184V25.6189C26.0487 25.646 27 26.6159 27 27.8088Z" fill="#BAC7CB" fill-opacity="0.4"/>
<g filter="url(#filter0_b_163:17090)">
<path fill-rule="evenodd" clip-rule="evenodd" d="M17.3688 24.2782L17.3203 24.2712C17.1846 24.2514 17.0464 24.2406 16.906 24.2406C15.3386 24.2406 14.0681 25.5149 14.0681 27.0861C14.0681 28.6578 15.3386 29.9316 16.906 29.9316H24.8144C25.9842 29.9316 26.9319 28.9811 26.9319 27.8088C26.9319 26.6533 26.0104 25.7135 24.8641 25.6872L24.7976 25.6857V25.6216C24.7807 25.4421 24.7514 25.2658 24.7109 25.0936C24.3028 23.3593 22.7493 22.0684 20.895 22.0684C19.3626 22.0684 18.0359 22.9497 17.3908 24.2343L17.3688 24.2782ZM24.8657 25.6184V25.6189C26.0487 25.646 27 26.6159 27 27.8088C27 29.019 26.0217 30 24.8144 30H16.906C15.3012 30 14 28.6957 14 27.0861C14 25.477 15.3012 24.1723 16.906 24.1723C17.0499 24.1723 17.1913 24.1833 17.3301 24.2035C17.9863 22.8967 19.3359 22 20.895 22C22.7815 22 24.3619 23.3134 24.7772 25.0779C24.8186 25.2541 24.8485 25.4346 24.8657 25.6184Z" fill="url(#paint1_linear_163:17090)"/>
</g>
<g filter="url(#filter1_b_163:17090)">
<path d="M27 27.8088C27 29.019 26.0217 30 24.8144 30H16.906C15.3012 30 14 28.6957 14 27.0861C14 25.477 15.3012 24.1723 16.906 24.1723C17.0499 24.1723 17.1913 24.1833 17.3301 24.2035C17.9863 22.8967 19.3359 22 20.895 22C22.7815 22 24.3619 23.3134 24.7772 25.0779C24.8186 25.2541 24.8485 25.4346 24.8657 25.6184V25.6189C26.0487 25.646 27 26.6159 27 27.8088Z" fill="url(#paint2_linear_163:17090)"/>
</g>
<path d="M35.4075 7.09044C35.445 7.06734 35.4848 7.04661 35.5258 7.03072C35.6126 6.99708 35.6723 6.93585 35.694 6.84829C35.7259 6.71989 35.8254 6.66322 35.9332 6.64912C36.1405 6.62208 36.2699 6.48426 36.3804 6.33991C36.4629 6.23219 36.494 6.08429 36.4429 5.93961C36.4311 5.9062 36.4302 5.87927 36.4436 5.84023C36.4606 5.79139 36.4417 5.72941 36.4355 5.6734C36.3748 5.12396 36.1581 4.63288 35.8707 4.16842C35.8435 4.12452 35.8164 4.08069 35.789 4.03702C35.7185 3.92473 35.6895 3.80348 35.6729 3.67035C35.6379 3.38875 35.6273 3.10322 35.5416 2.82815C35.4529 2.54386 35.4594 2.25409 35.5112 1.96134C35.538 1.81011 35.5319 1.65331 35.5475 1.49972C35.5834 1.14742 35.6657 0.8069 35.8377 0.494426C35.9143 0.355201 36.0037 0.222813 36.0919 0.0902858C36.1283 0.0356842 36.1712 -0.0219968 36.2538 0.00842483C36.2973 0.0244297 36.3551 0.135014 36.3515 0.195084C36.3505 0.212097 36.3421 0.229331 36.3439 0.245722C36.3476 0.280204 36.3558 0.314188 36.3624 0.34838C36.3721 0.399584 36.3849 0.450471 36.3909 0.502076C36.3965 0.549801 36.3951 0.598423 36.3963 0.646645C36.3977 0.702931 36.4018 0.759383 36.399 0.815448C36.3942 0.908522 36.3882 0.997716 36.4347 1.08746C36.4598 1.13597 36.4457 1.20347 36.457 1.26088C36.4689 1.32144 36.4912 1.37987 36.5067 1.43976C36.53 1.52969 36.5557 1.61932 36.5726 1.71053C36.602 1.86924 36.6207 2.03005 36.6526 2.18825C36.6942 2.39485 36.7456 2.59949 36.7902 2.80553C36.8093 2.89371 36.8203 2.98363 36.8383 3.07208C36.8445 3.10257 36.8619 3.13062 36.872 3.16049C36.8894 3.21192 36.9054 3.26381 36.9212 3.31576C36.924 3.32488 36.92 3.33661 36.9239 3.34488C36.9749 3.45295 37.0271 3.56044 37.0786 3.66833C37.1065 3.72692 37.1338 3.78592 37.1608 3.84491C37.1659 3.85596 37.1674 3.86863 37.1726 3.87963C37.2816 4.10904 37.3977 4.33543 37.4982 4.56851C37.6091 4.82578 37.6842 5.09322 37.7172 5.37465C37.7509 5.66143 37.8071 5.94577 37.8606 6.22987C37.8771 6.31713 37.915 6.4008 37.9473 6.48441C37.9681 6.53839 38.0447 6.56719 38.1043 6.55327C38.42 6.47957 38.7368 6.3999 39.0623 6.40554C39.2573 6.40892 39.4512 6.45749 39.646 6.48172C40.2357 6.55497 40.8253 6.629 41.4155 6.69734C41.8314 6.7455 42.2481 6.75447 42.664 6.69227C42.6858 6.689 42.7079 6.68776 42.73 6.68713C42.7364 6.68697 42.7429 6.69215 42.7655 6.7018C42.7339 6.72416 42.7145 6.74704 42.6909 6.753C42.5866 6.7792 42.4813 6.8023 42.3757 6.82315C42.2873 6.84062 42.1961 6.84642 42.1094 6.86969C41.9099 6.92333 41.7115 6.90203 41.5112 6.87882C41.3441 6.85944 41.1759 6.84405 41.0078 6.8396C40.9442 6.83792 40.8805 6.87781 40.8152 6.88782C40.7441 6.89876 40.6712 6.89858 40.599 6.90044C40.5166 6.90258 40.434 6.90112 40.3516 6.90207C40.2634 6.90315 40.1735 6.89435 40.0876 6.90928C39.9486 6.93352 39.8121 6.97318 39.6748 7.00709C39.5378 7.04095 39.4012 7.07655 39.2641 7.10997C39.1674 7.13357 39.0701 7.15514 38.9728 7.1765C38.959 7.17954 38.9412 7.18152 38.9297 7.1755C38.8766 7.14749 38.8472 7.16699 38.8352 7.22879C38.7735 7.21013 38.7179 7.1933 38.6623 7.17645C38.658 7.18292 38.6536 7.1894 38.6494 7.19588C38.8853 7.35415 39.1169 7.51922 39.3583 7.66875C39.6012 7.81924 39.8786 7.88516 40.1591 7.93756C40.1578 7.94928 40.1565 7.96099 40.1552 7.97277C40.0927 7.98213 40.0273 8.00782 39.9681 7.99763C39.8228 7.9726 39.6805 7.9308 39.5369 7.89627C39.5082 7.88939 39.4842 7.87552 39.4553 7.9122C39.4397 7.93205 39.3865 7.92832 39.351 7.92533C39.2631 7.91789 39.1759 7.90144 39.0879 7.89518C39.0326 7.89124 38.9765 7.89924 38.9207 7.90156C38.899 7.90244 38.8719 7.91107 38.8561 7.90156C38.7251 7.82206 38.5792 7.85186 38.4409 7.85001C38.2181 7.84701 37.9945 7.85952 37.772 7.87547C37.5548 7.89102 37.3498 7.85242 37.1519 7.76723C36.8877 7.65349 36.6179 7.5595 36.3364 7.49511C36.1787 7.459 36.02 7.41967 35.8837 7.31442C35.7616 7.22022 35.6158 7.21807 35.4701 7.27126C35.3976 7.29775 35.3231 7.31871 35.2344 7.34698C35.2583 7.22499 35.3166 7.14622 35.4075 7.09044Z" fill="#818494"/>
<path d="M40.2037 13.5452C40.2225 13.5337 40.2424 13.5233 40.2629 13.5154C40.3063 13.4985 40.3361 13.4679 40.347 13.4241C40.3629 13.3599 40.4127 13.3316 40.4666 13.3246C40.5702 13.311 40.635 13.2421 40.6902 13.17C40.7314 13.1161 40.747 13.0421 40.7214 12.9698C40.7155 12.9531 40.7151 12.9396 40.7218 12.9201C40.7303 12.8957 40.7208 12.8647 40.7177 12.8367C40.6874 12.562 40.579 12.3164 40.4353 12.0842C40.4218 12.0623 40.4082 12.0403 40.3945 12.0185C40.3592 11.9624 40.3447 11.9017 40.3364 11.8352C40.3189 11.6944 40.3136 11.5516 40.2708 11.4141C40.2264 11.2719 40.2297 11.127 40.2556 10.9807C40.269 10.9051 40.2659 10.8267 40.2738 10.7499C40.2917 10.5737 40.3328 10.4035 40.4188 10.2472C40.4571 10.1776 40.5018 10.1114 40.5459 10.0451C40.5641 10.0178 40.5856 9.989 40.6269 10.0042C40.6486 10.0122 40.6775 10.0675 40.6757 10.0975C40.6752 10.106 40.671 10.1147 40.6719 10.1229C40.6738 10.1401 40.6779 10.1571 40.6812 10.1742C40.686 10.1998 40.6924 10.2252 40.6954 10.251C40.6982 10.2749 40.6975 10.2992 40.6981 10.3233C40.6988 10.3515 40.7009 10.3797 40.6995 10.4077C40.6971 10.4543 40.6941 10.4989 40.7173 10.5437C40.7299 10.568 40.7228 10.6017 40.7285 10.6304C40.7344 10.6607 40.7456 10.6899 40.7533 10.7199C40.765 10.7648 40.7778 10.8097 40.7863 10.8553C40.801 10.9346 40.8103 11.015 40.8263 11.0941C40.8471 11.1974 40.8728 11.2997 40.8951 11.4028C40.9046 11.4469 40.9101 11.4918 40.9191 11.536C40.9222 11.5513 40.9309 11.5653 40.936 11.5802C40.9447 11.606 40.9527 11.6319 40.9606 11.6579C40.962 11.6624 40.96 11.6683 40.9619 11.6724C40.9875 11.7265 41.0135 11.7802 41.0393 11.8342C41.0532 11.8635 41.0669 11.893 41.0804 11.9225C41.0829 11.928 41.0837 11.9343 41.0863 11.9398C41.1408 12.0545 41.1988 12.1677 41.2491 12.2843C41.3045 12.4129 41.3421 12.5466 41.3586 12.6873C41.3754 12.8307 41.4035 12.9729 41.4303 13.1149C41.4385 13.1586 41.4575 13.2004 41.4736 13.2422C41.4841 13.2692 41.5223 13.2836 41.5521 13.2766C41.71 13.2398 41.8684 13.2 42.0312 13.2028C42.1286 13.2045 42.2256 13.2287 42.323 13.2409C42.6178 13.2775 42.9126 13.3145 43.2077 13.3487C43.4157 13.3728 43.624 13.3772 43.832 13.3461C43.8429 13.3445 43.8539 13.3439 43.865 13.3436C43.8682 13.3435 43.8714 13.3461 43.8827 13.3509C43.8669 13.3621 43.8572 13.3735 43.8454 13.3765C43.7933 13.3896 43.7406 13.4012 43.6878 13.4116C43.6437 13.4203 43.598 13.4232 43.5547 13.4348C43.4549 13.4617 43.3557 13.451 43.2556 13.4394C43.172 13.4297 43.0879 13.422 43.0039 13.4198C42.9721 13.419 42.9402 13.4389 42.9076 13.4439C42.872 13.4494 42.8356 13.4493 42.7995 13.4502C42.7583 13.4513 42.717 13.4506 42.6758 13.451C42.6317 13.4516 42.5867 13.4472 42.5438 13.4546C42.4743 13.4668 42.406 13.4866 42.3374 13.5035C42.2689 13.5205 42.2006 13.5383 42.132 13.555C42.0837 13.5668 42.035 13.5776 41.9864 13.5883C41.9795 13.5898 41.9706 13.5908 41.9648 13.5877C41.9383 13.5737 41.9236 13.5835 41.9176 13.6144C41.8867 13.6051 41.8589 13.5966 41.8311 13.5882C41.829 13.5915 41.8268 13.5947 41.8247 13.5979C41.9426 13.6771 42.0585 13.7596 42.1791 13.8344C42.3006 13.9096 42.4393 13.9426 42.5795 13.9688C42.5789 13.9746 42.5783 13.9805 42.5776 13.9864C42.5463 13.9911 42.5136 14.0039 42.484 13.9988C42.4114 13.9863 42.3402 13.9654 42.2684 13.9481C42.2541 13.9447 42.2421 13.9378 42.2276 13.9561C42.2198 13.966 42.1932 13.9642 42.1755 13.9627C42.1315 13.9589 42.0879 13.9507 42.0439 13.9476C42.0163 13.9456 41.9882 13.9496 41.9603 13.9508C41.9495 13.9512 41.9359 13.9555 41.928 13.9508C41.8625 13.911 41.7896 13.9259 41.7204 13.925C41.609 13.9235 41.4972 13.9298 41.386 13.9377C41.2774 13.9455 41.1749 13.9262 41.0759 13.8836C40.9438 13.8267 40.8089 13.7798 40.6682 13.7476C40.5893 13.7295 40.51 13.7098 40.4418 13.6572C40.3808 13.6101 40.3079 13.609 40.235 13.6356C40.1988 13.6489 40.1615 13.6594 40.1172 13.6735C40.1291 13.6125 40.1583 13.5731 40.2037 13.5452Z" fill="#818494"/>
<g clip-path="url(#clip0_163:17090)">
<path d="M35.2038 12.5452C35.2226 12.5337 35.2425 12.5233 35.263 12.5154C35.3064 12.4985 35.3362 12.4679 35.3471 12.4241C35.363 12.3599 35.4128 12.3316 35.4667 12.3246C35.5703 12.311 35.6351 12.2421 35.6903 12.17C35.7315 12.1161 35.7471 12.0421 35.7215 11.9698C35.7156 11.9531 35.7152 11.9396 35.7219 11.9201C35.7304 11.8957 35.7209 11.8647 35.7179 11.8367C35.6875 11.562 35.5791 11.3164 35.4354 11.0842C35.4219 11.0623 35.4083 11.0403 35.3946 11.0185C35.3593 10.9624 35.3448 10.9017 35.3365 10.8352C35.319 10.6944 35.3137 10.5516 35.2709 10.4141C35.2266 10.2719 35.2298 10.127 35.2557 9.98067C35.2691 9.90506 35.266 9.82665 35.2739 9.74986C35.2918 9.57371 35.3329 9.40345 35.4189 9.24721C35.4572 9.1776 35.502 9.11141 35.546 9.04514C35.5642 9.01784 35.5857 8.989 35.627 9.00421C35.6487 9.01221 35.6776 9.06751 35.6759 9.09754C35.6753 9.10605 35.6711 9.11467 35.672 9.12286C35.6739 9.1401 35.678 9.15709 35.6813 9.17419C35.6861 9.19979 35.6925 9.22524 35.6955 9.25104C35.6983 9.2749 35.6976 9.29921 35.6982 9.32332C35.699 9.35147 35.701 9.37969 35.6996 9.40772C35.6972 9.45426 35.6942 9.49886 35.7174 9.54373C35.73 9.56799 35.723 9.60174 35.7286 9.63044C35.7345 9.66072 35.7457 9.68994 35.7534 9.71988C35.7651 9.76484 35.7779 9.80966 35.7864 9.85527C35.8011 9.93462 35.8104 10.015 35.8264 10.0941C35.8472 10.1974 35.8729 10.2997 35.8952 10.4028C35.9047 10.4469 35.9102 10.4918 35.9192 10.536C35.9223 10.5513 35.931 10.5653 35.9361 10.5802C35.9448 10.606 35.9528 10.6319 35.9607 10.6579C35.9621 10.6624 35.9601 10.6683 35.962 10.6724C35.9876 10.7265 36.0137 10.7802 36.0394 10.8342C36.0533 10.8635 36.067 10.893 36.0805 10.9225C36.083 10.928 36.0838 10.9343 36.0864 10.9398C36.1409 11.0545 36.199 11.1677 36.2492 11.2843C36.3046 11.4129 36.3422 11.5466 36.3587 11.6873C36.3755 11.8307 36.4036 11.9729 36.4304 12.1149C36.4386 12.1586 36.4576 12.2004 36.4737 12.2422C36.4842 12.2692 36.5224 12.2836 36.5522 12.2766C36.7101 12.2398 36.8685 12.2 37.0313 12.2028C37.1287 12.2045 37.2257 12.2287 37.3231 12.2409C37.6179 12.2775 37.9127 12.3145 38.2078 12.3487C38.4158 12.3728 38.6241 12.3772 38.8321 12.3461C38.843 12.3445 38.8541 12.3439 38.8651 12.3436C38.8683 12.3435 38.8715 12.3461 38.8828 12.3509C38.867 12.3621 38.8574 12.3735 38.8455 12.3765C38.7934 12.3896 38.7407 12.4012 38.688 12.4116C38.6438 12.4203 38.5981 12.4232 38.5548 12.4348C38.455 12.4617 38.3558 12.451 38.2557 12.4394C38.1721 12.4297 38.088 12.422 38.004 12.4198C37.9722 12.419 37.9403 12.4389 37.9077 12.4439C37.8722 12.4494 37.8357 12.4493 37.7996 12.4502C37.7584 12.4513 37.7171 12.4506 37.6759 12.451C37.6318 12.4516 37.5868 12.4472 37.5439 12.4546C37.4744 12.4668 37.4061 12.4866 37.3375 12.5035C37.269 12.5205 37.2007 12.5383 37.1321 12.555C37.0838 12.5668 37.0351 12.5776 36.9865 12.5883C36.9796 12.5898 36.9707 12.5908 36.9649 12.5877C36.9384 12.5737 36.9237 12.5835 36.9177 12.6144C36.8869 12.6051 36.859 12.5966 36.8312 12.5882C36.8291 12.5915 36.8269 12.5947 36.8248 12.5979C36.9427 12.6771 37.0586 12.7596 37.1792 12.8344C37.3007 12.9096 37.4394 12.9426 37.5797 12.9688C37.579 12.9746 37.5784 12.9805 37.5777 12.9864C37.5464 12.9911 37.5137 13.0039 37.4841 12.9988C37.4115 12.9863 37.3403 12.9654 37.2685 12.9481C37.2542 12.9447 37.2422 12.9378 37.2277 12.9561C37.2199 12.966 37.1933 12.9642 37.1756 12.9627C37.1316 12.9589 37.088 12.9507 37.044 12.9476C37.0164 12.9456 36.9883 12.9496 36.9604 12.9508C36.9496 12.9512 36.936 12.9555 36.9282 12.9508C36.8627 12.911 36.7897 12.9259 36.7205 12.925C36.6091 12.9235 36.4973 12.9298 36.3861 12.9377C36.2775 12.9455 36.175 12.9262 36.076 12.8836C35.9439 12.8267 35.809 12.7798 35.6683 12.7476C35.5894 12.7295 35.5101 12.7098 35.4419 12.6572C35.3809 12.6101 35.308 12.609 35.2351 12.6356C35.1989 12.6489 35.1616 12.6594 35.1173 12.6735C35.1292 12.6125 35.1584 12.5731 35.2038 12.5452Z" fill="#818494"/>
</g>
<defs>
<filter id="filter0_b_163:17090" x="-17.0378" y="-9.03783" width="75.0757" height="70.0757" filterUnits="userSpaceOnUse" color-interpolation-filters="sRGB">
<feFlood flood-opacity="0" result="BackgroundImageFix"/>
<feGaussianBlur in="BackgroundImage" stdDeviation="15.5189"/>
<feComposite in2="SourceAlpha" operator="in" result="effect1_backgroundBlur_163:17090"/>
<feBlend mode="normal" in="SourceGraphic" in2="effect1_backgroundBlur_163:17090" result="shape"/>
</filter>
<filter id="filter1_b_163:17090" x="-17.0378" y="-9.03783" width="75.0757" height="70.0757" filterUnits="userSpaceOnUse" color-interpolation-filters="sRGB">
<feFlood flood-opacity="0" result="BackgroundImageFix"/>
<feGaussianBlur in="BackgroundImage" stdDeviation="15.5189"/>
<feComposite in2="SourceAlpha" operator="in" result="effect1_backgroundBlur_163:17090"/>
<feBlend mode="normal" in="SourceGraphic" in2="effect1_backgroundBlur_163:17090" result="shape"/>
</filter>
<linearGradient id="paint0_linear_163:17090" x1="14.7297" y1="10.9721" x2="5.88345" y2="30.9977" gradientUnits="userSpaceOnUse">
<stop stop-color="#FFD88B"/>
<stop offset="1" stop-color="#FFA900"/>
</linearGradient>
<linearGradient id="paint1_linear_163:17090" x1="13.0045" y1="24.1081" x2="17.6736" y2="27.451" gradientUnits="userSpaceOnUse">
<stop stop-color="white"/>
<stop offset="1" stop-color="white" stop-opacity="0"/>
</linearGradient>
<linearGradient id="paint2_linear_163:17090" x1="16.0589" y1="23.4017" x2="26.5816" y2="29.5747" gradientUnits="userSpaceOnUse">
<stop offset="0.416176" stop-color="white" stop-opacity="0.7"/>
<stop offset="1" stop-color="white" stop-opacity="0"/>
</linearGradient>
<clipPath id="clip0_163:17090">
<rect width="4" height="4" fill="white" transform="matrix(-1 0 0 1 39 9)"/>
</clipPath>
</defs>
</svg>
