<svg viewBox="0 0 32 32" fill="none" xmlns="http://www.w3.org/2000/svg">
<rect width="32" height="32" rx="4" fill="#FFECF1"/>
<path d="M9 10C9 8.89543 9.89543 8 11 8H21C22.1046 8 23 8.89543 23 10V22H9V10Z" fill="white"/>
<path d="M9.125 22.875V9.875C9.125 8.77043 10.0204 7.875 11.125 7.875H20.875C21.9796 7.875 22.875 8.77043 22.875 9.875V19.625C22.875 20.7296 21.9796 21.625 20.875 21.625H18.0625" stroke="#F34D77"/>
<path d="M12 11.8887V8H15V11.8887C15 11.9318 14.949 11.9547 14.9168 11.926L13.5 10.6667L12.0832 11.926C12.051 11.9547 12 11.9318 12 11.8887Z" fill="#F34D77"/>
<path d="M20.875 24.125H10.4038C9.69754 24.125 9.125 23.5525 9.125 22.8462C9.125 22.1717 9.67175 21.625 10.3462 21.625H14.625H20.125C21.4093 21.625 22.875 20.7197 22.875 19.125V22.125C22.875 23.2296 21.9796 24.125 20.875 24.125Z" fill="#FFECF1" stroke="#F34D77"/>
</svg>
