<svg  viewBox="0 0 32 32" fill="none" xmlns="http://www.w3.org/2000/svg">
<rect width="32" height="32" rx="4" fill="#FFF5C6"/>
<path d="M13.5 22.5H18.5" stroke="#FF9458" stroke-linecap="round" stroke-linejoin="round"/>
<path d="M12.919 18.4382C12.3244 17.9739 11.8429 17.3808 11.5105 16.7036C11.1782 16.0263 11.0037 15.2826 11.0001 14.5282C10.9851 11.8181 13.17 9.56519 15.8794 9.50142C16.9294 9.47614 17.9606 9.78209 18.8268 10.3759C19.6931 10.9696 20.3504 11.8211 20.7055 12.8095C21.0606 13.7978 21.0955 14.8729 20.8052 15.8822C20.5149 16.8915 19.9142 17.7838 19.0883 18.4325C18.9064 18.5734 18.7589 18.7539 18.657 18.9602C18.555 19.1666 18.5014 19.3934 18.5 19.6235L18.5 20C18.5 20.1326 18.4473 20.2598 18.3536 20.3536C18.2598 20.4473 18.1326 20.5 18 20.5H14C13.8674 20.5 13.7402 20.4473 13.6464 20.3536C13.5527 20.2598 13.5 20.1326 13.5 20L13.5 19.6231C13.4994 19.3944 13.4468 19.1689 13.3461 18.9636C13.2455 18.7583 13.0994 18.5787 12.919 18.4382V18.4382Z" fill="white" stroke="#FF9458" stroke-linecap="round" stroke-linejoin="round"/>
<path d="M16.5 12L15 14L17 15L15.5 17" stroke="#FFB119" stroke-linecap="round" stroke-linejoin="round"/>
</svg>
