<svg viewBox="0 0 141 151" fill="none" xmlns="http://www.w3.org/2000/svg">
    <path
        d="M67.3589 132.061C98.9064 132.061 124.482 106.485 124.482 74.8244C124.482 43.1643 98.7937 17.5882 67.3589 17.5882C35.8114 17.5882 10.2354 43.1643 10.2354 74.8244C10.2354 106.485 35.8114 132.061 67.3589 132.061Z"
        fill="#E2EBFF" />
    <path
        d="M2.96471 42.9294C4.60207 42.9294 5.92941 41.6021 5.92941 39.9647C5.92941 38.3273 4.60207 37 2.96471 37C1.32734 37 0 38.3273 0 39.9647C0 41.6021 1.32734 42.9294 2.96471 42.9294Z"
        fill="#F1F3F9" />
    <path
        d="M136.1 55.2C138.364 55.2 140.2 53.3644 140.2 51.1C140.2 48.8356 138.364 47 136.1 47C133.836 47 132 48.8356 132 51.1C132 53.3644 133.836 55.2 136.1 55.2Z"
        fill="#F1F3F9" />
    <path
        d="M87.8 5.6C89.3464 5.6 90.6 4.3464 90.6 2.8C90.6 1.2536 89.3464 0 87.8 0C86.2536 0 85 1.2536 85 2.8C85 4.3464 86.2536 5.6 87.8 5.6Z"
        fill="#F1F3F9" />
    <path
        d="M8.2 123.4C11.0719 123.4 13.4 121.072 13.4 118.2C13.4 115.328 11.0719 113 8.2 113C5.32812 113 3 115.328 3 118.2C3 121.072 5.32812 123.4 8.2 123.4Z"
        fill="#F1F3F9" />
    <path
        d="M125.737 23.4658C126.697 23.4658 127.475 22.69 127.475 21.7329C127.475 20.7759 126.697 20 125.737 20C124.778 20 124 20.7759 124 21.7329C124 22.69 124.778 23.4658 125.737 23.4658Z"
        fill="url(#paint0_linear_384_67990)" />
    <path
        d="M44.7373 140.466C45.6968 140.466 46.4746 139.69 46.4746 138.733C46.4746 137.776 45.6968 137 44.7373 137C43.7778 137 43 137.776 43 138.733C43 139.69 43.7778 140.466 44.7373 140.466Z"
        fill="url(#paint1_linear_384_67990)" />
    <path
        d="M125.486 96.1592H108.093C107.27 96.1592 106.565 95.6304 106.33 94.9252C104.626 89.8718 100.865 88.6378 91.7575 85.0534C91.2287 84.8184 91.1699 84.1132 91.6988 83.8194C94.343 82.5267 93.8729 81.4102 93.8729 73.6538C93.7554 73.5363 93.6379 73.36 93.5791 73.2425C92.9915 72.3611 92.5802 71.3034 92.4626 70.2457L91.875 69.9519C90.1122 70.3632 90.2297 68.4829 89.7596 64.8397C89.5834 63.3119 89.8184 63.0181 90.4648 62.7831L91.0524 62.0192C87.5855 54.2628 89.3483 49.3856 92.7564 47.6228C91.64 45.1548 91.5812 44.2734 91.5812 44.2734C91.5812 44.2734 98.8088 45.5074 101.277 44.9786C104.45 44.3322 109.268 45.0961 111.09 49.2681C114.087 50.4433 115.262 52.3824 115.556 54.3803C115.967 57.6709 114.145 61.2553 113.793 62.6656C113.852 62.7243 113.852 62.7831 113.91 62.8418C114.38 63.0769 114.557 63.4882 114.38 64.7809C113.969 68.2478 114.028 70.422 112.265 69.8931L110.678 72.6549C110.62 73.0075 110.561 73.125 110.561 73.3013C110.502 73.8301 110.502 74.829 110.502 80.5876C110.502 81.2927 110.678 81.9391 111.031 82.4679C111.384 83.1143 111.971 83.5844 112.676 83.8782H112.735C116.848 85.5823 119.786 86.6987 121.961 87.5801C126.779 89.5192 127.602 90.0481 128.013 93.2799C128.13 94.8665 127.014 96.1592 125.486 96.1592Z"
        fill="white" stroke="#182052" stroke-miterlimit="10" />
    <path
        d="M113.675 62.6065C113.851 61.7251 113.44 60.6674 113.087 59.9035C113.028 59.786 112.97 59.6685 112.911 59.4922C111.559 56.7305 108.445 55.5552 105.507 55.4377C97.9857 55.0264 97.2805 56.4954 94.9301 54.3213C95.6352 55.4377 95.7528 57.1418 94.5776 59.3159C93.8137 60.8437 92.2859 61.4901 90.9344 61.9602C87.5263 54.2038 89.2303 49.3266 92.6384 47.5638C91.522 45.0958 91.4632 44.2144 91.4632 44.2144C91.4632 44.2144 98.6908 45.4484 101.159 44.9195C104.332 44.2732 109.15 45.0371 110.972 49.2091C113.969 50.3843 115.144 52.3234 115.438 54.3213C115.908 57.6119 114.027 61.1963 113.675 62.6065Z"
        fill="#6F7590" />
    <path
        d="M93.7998 73.5428C94.1524 74.1891 94.3422 74.0658 94.871 74.5359L100.336 78.3554C101.629 79.4131 103.45 79.4718 104.743 78.4141L109.855 73.8308C110.031 73.6545 110.278 73.1763 110.455 73"
        stroke="#182052" stroke-miterlimit="10" />
    <path
        d="M35.5816 83.0567C32.7611 82.9979 32.4673 82.4691 32.4673 82.4691V77.7682C35.4641 75.3002 37.9908 72.421 38.696 68.6603C40.5763 68.2489 41.7515 66.5449 41.5752 64.6645C41.5165 63.8419 40.9876 63.078 40.9289 62.1966C40.9289 61.7852 40.9289 61.3739 40.9289 60.9626C40.9289 60.6688 40.9289 60.4338 40.8701 60.1399C40.8701 59.8461 40.8113 59.5523 40.8113 59.2585C40.6351 57.8483 40.2825 56.3793 39.3423 54.6752C36.9919 50.2681 32.3498 47.3301 27.1201 47.3301C26.0624 47.3301 25.0047 47.4476 24.0058 47.6827C22.1254 48.094 20.4213 48.9166 18.8936 50.0919C18.5998 50.3269 18.306 50.5619 18.0122 50.797C17.9534 50.8557 17.8946 50.9145 17.7771 50.9733C16.1318 52.501 14.8391 54.4401 14.1339 56.6143C13.4288 58.7884 13.2525 61.0214 13.5463 63.2543C13.5463 63.313 13.5463 63.3718 13.5463 63.4306C13.5463 63.4893 13.5463 63.5481 13.5463 63.6068C13.6051 64.0182 13.7226 63.9594 13.4288 64.312C13.3701 64.4295 13.2525 64.547 13.1938 64.7233C12.8412 65.3697 12.5474 66.2511 12.9587 67.3088C13.6639 69.3066 15.0741 69.0128 16.3669 70.1293C16.3081 70.188 16.1906 70.2468 16.1318 70.2468H16.073L14.604 70.7169C5.78991 73.4786 4.79097 82.8216 13.8401 84.5257C13.1938 84.5844 12.6062 84.937 12.1948 85.2308C9.31556 87.4637 7.49397 90.8718 7.02388 94.2212C6.8476 95.2201 7.67025 96.1603 8.72795 96.1603H22.713C23.0068 96.1603 23.3006 95.9253 23.4181 95.6315C24.7109 90.9306 27.6489 89.2853 33.76 86.8173L37.2857 85.4071C37.8733 85.172 38.5197 84.937 39.2248 84.6432C39.8712 84.4082 39.8124 83.468 39.1073 83.2917C38.4022 83.1154 37.697 83.0567 36.9919 82.9979C36.4043 83.0567 35.9342 83.0567 35.5816 83.0567ZM17.6596 77.0631C17.6596 76.4754 18.0709 75.8291 18.9523 75.124C19.3049 75.594 19.775 76.1229 20.3038 76.593C20.7152 76.9455 21.1265 77.2981 21.5966 77.6507C21.8904 77.8269 22.1842 78.062 22.478 78.297C22.5367 78.3558 22.5955 78.4146 22.6543 78.4146C22.713 78.4733 22.8305 78.5321 22.8893 78.5908V81.4701C22.8305 81.4114 22.7718 81.3526 22.713 81.3526C22.4192 81.1176 22.1842 80.8825 21.9491 80.7062C21.5378 80.4124 21.1265 80.1774 20.7151 79.9423C20.5389 79.8248 20.4213 79.7661 20.3038 79.6485C18.9523 78.7671 17.7183 77.9445 17.6596 77.0631Z"
        fill="white" stroke="#182052" stroke-miterlimit="10" />
    <path d="M22.8411 78.5254C25.309 79.7594 28.119 80.2943 32.5261 77.7088" stroke="#182052" stroke-miterlimit="10" />
    <path
        d="M40.8115 60.1394C38.2848 61.0208 35.5818 61.3734 32.8788 61.1384C28.648 60.7858 24.5347 59.0817 21.3617 56.2612C20.304 59.3168 17.6597 61.6084 14.6629 62.9599C14.2516 63.1362 13.8403 63.3125 13.4289 63.43C13.4289 63.3713 13.4289 63.3125 13.4289 63.3125C13.1351 61.0796 13.3114 58.8467 14.0166 56.6725C14.7217 54.4984 16.0144 52.5593 17.6597 51.0315C17.7185 50.9727 17.7772 50.914 17.8948 50.8552C18.1886 50.6202 18.4824 50.3851 18.7762 50.1501C20.304 49.0336 22.0668 48.211 23.8884 47.7409C24.9461 47.5059 25.945 47.3883 27.0027 47.3883C32.2324 47.3883 36.8745 50.3264 39.2249 54.7334C40.1063 56.4375 40.5177 57.9065 40.694 59.258C40.8115 59.5518 40.8115 59.8456 40.8115 60.1394Z"
        fill="#6F7590" />
    <path
        d="M24.6521 90.1663C23.5357 91.5766 21.4203 91.6353 19.6574 91.5766C21.5378 89.755 20.4801 83.8201 13.8989 84.5253H13.8401C4.79096 82.8212 5.78989 73.4782 14.5453 70.7165L16.0143 70.2464C16.1318 70.3051 16.1906 70.3639 16.2493 70.4814C16.9544 72.303 17.8946 73.8308 18.8936 75.0648C15.3091 78.0616 20.3038 79.0017 22.713 81.2934C24.8284 82.5274 26.5912 87.6983 24.6521 90.1663Z"
        fill="#6F7590" />
    <path d="M14.9233 69.189C19.1629 70.8585 17.2856 73.08 18.999 75.1009" stroke="#182052" />
    <path
        d="M102.98 98.8634C103.274 101.038 101.57 103.035 99.3373 103.035H30.4696C28.2367 103.035 26.5327 101.038 26.8265 98.8634C27.4728 94.3388 28.4718 93.3986 35.1705 90.6956L36.8158 90.0493C39.9301 88.8153 43.9846 87.2875 49.4494 84.9958C50.6834 84.467 51.6823 83.5268 52.2111 82.2928C52.5049 81.6465 52.6812 80.8826 52.6812 80.1187V69.8355C52.5049 69.6005 52.3287 69.4242 52.2111 69.1892C51.3297 67.8964 50.7421 66.3687 50.5658 64.7234L49.6844 64.312C47.0402 64.9584 47.2752 62.1379 46.5701 56.7319C46.2763 54.499 46.6289 54.0289 47.6278 53.6763L48.4504 52.5599C43.397 41.1015 45.9237 33.9327 50.9184 31.406C49.3906 27.7628 49.2731 26.4701 49.2731 26.4701C49.2731 26.4701 59.9088 28.2329 63.552 27.5278C68.1941 26.5876 75.3629 27.7041 78.0071 33.8739C82.4142 35.6368 84.1182 38.3985 84.5296 41.4541C85.1759 46.2725 82.4142 51.5609 81.8853 53.6176C81.9441 53.7351 81.9441 53.7938 82.0029 53.8526C82.708 54.2052 82.943 54.7928 82.708 56.7319C82.0616 61.8441 82.2379 65.0172 79.5937 64.312L77.2432 68.4253C77.1257 68.8954 77.1257 69.0717 77.067 69.4242C76.9494 70.1881 77.0082 71.7159 77.0082 80.1187C77.0082 81.1176 77.302 82.1166 77.8308 82.8804C78.4185 83.7619 79.2411 84.5257 80.24 84.9371C80.2988 84.9371 80.2988 84.9371 80.3576 84.9958C86.4099 87.5225 90.7582 89.1678 93.9313 90.4018C101.159 93.2223 102.275 94.1037 102.98 98.8634Z"
        fill="white" stroke="#182052" stroke-miterlimit="10" />
    <path
        d="M81.944 53.6172C82.1791 52.3245 81.5915 50.7379 81.1214 49.6215C81.0626 49.4452 80.9451 49.2689 80.8863 49.0339C78.8297 44.9206 74.3051 43.2753 69.9568 43.0403C58.851 42.4527 57.8521 44.5681 54.3852 41.395C55.4429 43.0403 55.5604 45.567 53.9151 48.7401C52.7399 50.973 50.507 51.9719 48.5679 52.6183C43.5145 41.1599 46.0412 33.9911 51.0358 31.4644C49.3905 27.7625 49.273 26.4697 49.273 26.4697C49.273 26.4697 59.9087 28.2326 63.5519 27.5274C68.194 26.5872 75.3628 27.7037 78.007 33.8736C82.4141 35.6364 84.1182 38.3982 84.5295 41.4537C85.2346 46.2134 82.4729 51.5018 81.944 53.6172Z"
        fill="#6F7590" />
    <path
        d="M52.7399 69.8355C52.5636 69.6005 52.3873 69.4242 52.2698 69.1891V68.6015C52.7986 69.5417 53.5038 70.4231 54.3852 71.1282L62.4354 76.7693C64.3157 78.3558 67.0187 78.4146 68.9578 76.8868L76.4792 70.1293C76.7143 69.8943 77.0081 69.6592 77.2431 69.4242"
        stroke="#182052" stroke-miterlimit="10" />
    <g filter="url(#filter0_d_384_67990)">
        <path
            d="M126.864 120.033C126.434 121.86 125.789 123.688 125.037 125.301C122.994 129.172 119.877 132.289 116.008 134.225C112.031 136.268 107.302 137.02 102.465 136.053C91.2864 133.687 84.0849 122.828 86.4496 111.646C88.8142 100.465 99.6702 93.2611 110.849 95.6265C114.825 96.4866 118.372 98.4219 121.275 101.217C126.219 106.163 128.261 113.259 126.864 120.033Z"
            fill="url(#paint2_linear_384_67990)" />
    </g>
    <path
        d="M112.997 113.821H108.474V109.297C108.474 108.393 107.77 107.589 106.765 107.589C105.86 107.589 105.056 108.292 105.056 109.297V113.821H100.532C99.6277 113.821 98.8235 114.524 98.8235 115.53C98.8235 116.535 99.5271 117.239 100.532 117.239H105.056V121.762C105.056 122.667 105.759 123.471 106.765 123.471C107.669 123.471 108.474 122.767 108.474 121.762V117.239H112.997C113.902 117.239 114.706 116.535 114.706 115.53C114.706 114.524 113.902 113.821 112.997 113.821Z"
        fill="white" />
    <defs>
        <filter id="filter0_d_384_67990" x="77.5294" y="92.0003" width="58.2354" height="58.2353"
            filterUnits="userSpaceOnUse" color-interpolation-filters="sRGB">
            <feFlood flood-opacity="0" result="BackgroundImageFix" />
            <feColorMatrix in="SourceAlpha" type="matrix" values="0 0 0 0 0 0 0 0 0 0 0 0 0 0 0 0 0 0 127 0"
                result="hardAlpha" />
            <feOffset dy="5.29412" />
            <feGaussianBlur stdDeviation="4.23529" />
            <feColorMatrix type="matrix" values="0 0 0 0 0.1125 0 0 0 0 0.295916 0 0 0 0 1 0 0 0 0.22 0" />
            <feBlend mode="normal" in2="BackgroundImageFix" result="effect1_dropShadow_384_67990" />
            <feBlend mode="normal" in="SourceGraphic" in2="effect1_dropShadow_384_67990" result="shape" />
        </filter>
        <linearGradient id="paint0_linear_384_67990" x1="124.088" y1="21.7081" x2="127.459" y2="21.7081"
            gradientUnits="userSpaceOnUse">
            <stop stop-color="#FF66A9" />
            <stop offset="1" stop-color="#F53689" />
        </linearGradient>
        <linearGradient id="paint1_linear_384_67990" x1="43.0862" y1="138.723" x2="46.4569" y2="138.723"
            gradientUnits="userSpaceOnUse">
            <stop stop-color="#FF66A9" />
            <stop offset="1" stop-color="#F53689" />
        </linearGradient>
        <linearGradient id="paint2_linear_384_67990" x1="88.4168" y1="105.991" x2="124.979" y2="126.585"
            gradientUnits="userSpaceOnUse">
            <stop stop-color="#83A6FF" />
            <stop offset="0.994956" stop-color="#5277D7" />
        </linearGradient>
    </defs>
</svg>