<svg viewBox="0 0 124 108" fill="none" xmlns="http://www.w3.org/2000/svg">
<path d="M61.629 108C84.6875 108 103.38 89.2762 103.38 66.1798C103.38 43.0834 84.6875 24.36 61.629 24.36C38.5705 24.36 19.8779 43.0834 19.8779 66.1798C19.8779 89.2762 38.5705 108 61.629 108Z" fill="#EAEEF9"/>
<path d="M30.8839 39.0856H90.2763C92.6284 39.0856 94.4766 40.9368 94.4766 43.2928V80.9054C94.4766 83.2614 92.6284 85.1126 90.2763 85.1126H30.8839C28.5317 85.1126 26.6836 83.2614 26.6836 80.9054V43.2928C26.6836 40.9368 28.6157 39.0856 30.8839 39.0856Z" fill="#C0D6FF"/>
<path d="M94.3575 47.2939V80.8935C94.3575 83.2396 92.5304 85.0829 90.205 85.0829H31.4045C29.0791 85.0829 27.252 83.2396 27.252 80.8935V43.4396C27.252 41.0935 29.0791 39.2502 31.4045 39.2502H90.1219C91.949 39.2502 93.444 40.4232 94.0253 42.0152" stroke="#6F7590" stroke-miterlimit="10" stroke-linecap="round" stroke-linejoin="round"/>
<path d="M118.193 56.871C119.494 55.6797 119.585 53.6572 118.396 52.3536C117.206 51.05 115.187 50.959 113.886 52.1503C112.584 53.3415 112.493 55.3641 113.683 56.6677C114.872 57.9713 116.891 58.0623 118.193 56.871Z" fill="#EAEEF9"/>
<path d="M37.5026 28.5448C38.6056 28.1857 39.2092 26.9989 38.8507 25.8941C38.4922 24.7892 37.3073 24.1847 36.2043 24.5438C35.1012 24.9029 34.4977 26.0897 34.8562 27.1945C35.2147 28.2994 36.3995 28.904 37.5026 28.5448Z" fill="#EAEEF9"/>
<path d="M95.6656 63.2194V81.7312C95.6656 84.0872 93.7335 86.1069 91.2973 86.1069H30.2248C27.8727 86.1069 25.8566 84.1714 25.8566 81.7312V61.6208" stroke="#84A2FF" stroke-width="3" stroke-linecap="round" stroke-linejoin="round"/>
<path d="M99.1094 47.1461H74.0755C71.6393 47.1461 69.2872 47.9878 67.4391 49.5024L60.8866 54.8876C59.0384 56.4022 56.6863 57.2435 54.2502 57.2435H25.7719C22.9157 57.2435 20.5636 59.5997 20.5636 62.4606C20.5636 62.713 20.5637 62.9654 20.6477 63.2178L25.856 90.9855C26.2761 93.594 28.4602 95.5292 31.0644 95.5292H91.7168C94.321 95.5292 96.5051 93.6782 96.9251 91.0697L104.234 53.1205C104.738 50.2596 102.806 47.651 99.9494 47.1461C99.6974 47.1461 99.3614 47.1461 99.1094 47.1461Z" fill="white"/>
<path d="M100.035 74.9993L104.235 53.1218C104.739 50.2609 102.807 47.6523 99.9506 47.1474C99.6986 47.0633 99.3626 47.0636 99.1105 47.0636H74.0767C71.6405 47.0636 69.2884 47.9049 67.4403 49.4195L60.8877 54.8047C59.0396 56.3193 56.6875 57.161 54.2513 57.161H38.4581" stroke="#6F7590" stroke-miterlimit="10" stroke-linecap="round" stroke-linejoin="round"/>
<path d="M29.3841 57.2443H25.8559C22.9997 57.2443 20.6476 59.6005 20.6476 62.4614C20.6476 62.7138 20.6475 62.9662 20.7315 63.2186L25.9398 90.9863C26.3598 93.5948 28.5442 95.53 31.1484 95.53H91.8008C94.405 95.53 96.5891 93.679 97.0091 91.0705L98.8572 81.5624" stroke="#6F7590" stroke-miterlimit="10" stroke-linecap="round" stroke-linejoin="round"/>
<path d="M109.854 93.7038C109.518 95.1343 109.014 96.5648 108.426 97.8269C106.829 100.856 104.393 103.296 101.369 104.811C98.2608 106.41 94.5646 106.999 90.7843 106.241C82.0477 104.39 76.4192 95.8916 78.2674 87.1406C80.1155 78.3896 88.6001 72.7519 97.3368 74.6031C100.445 75.2762 103.217 76.7908 105.485 78.9786C109.35 82.8492 110.946 88.4028 109.854 93.7038Z" fill="url(#paint0_linear_116_54882)"/>
<path d="M99.1731 88.9829H95.4767V85.2806C95.4767 84.5233 94.8887 83.85 94.0486 83.85C93.2926 83.85 92.6206 84.4392 92.6206 85.2806V88.9829H88.9242C88.1681 88.9829 87.4961 89.5721 87.4961 90.4135C87.4961 91.255 88.0841 91.8437 88.9242 91.8437H92.6206V95.5464C92.6206 96.3037 93.2086 96.9766 94.0486 96.9766C94.8047 96.9766 95.4767 96.3879 95.4767 95.5464V91.8437H99.1731C99.9291 91.8437 100.601 91.255 100.601 90.4135C100.601 89.5721 99.9291 88.9829 99.1731 88.9829Z" fill="white"/>
<path d="M14.1795 75.685C14.1204 74.5738 13.1707 73.7197 12.0582 73.7773C10.9457 73.835 10.0917 74.7826 10.1508 75.8938C10.2099 77.0051 11.1597 77.8592 12.2722 77.8015C13.3846 77.7439 14.2386 76.7963 14.1795 75.685Z" fill="#E2EBFF"/>
<path d="M8.95776 69.7313C8.91758 68.9756 8.27175 68.3948 7.51526 68.434C6.75876 68.4732 6.17808 69.1176 6.21826 69.8733C6.25844 70.6289 6.90427 71.2097 7.66077 71.1705C8.41726 71.1313 8.99795 70.4869 8.95776 69.7313Z" fill="#F34D77"/>
<path d="M50.6393 75.9234C52.124 75.9234 53.3275 74.7177 53.3275 73.2306C53.3275 71.7435 52.124 70.5382 50.6393 70.5382C49.1547 70.5382 47.9512 71.7435 47.9512 73.2306C47.9512 74.7177 49.1547 75.9234 50.6393 75.9234Z" fill="#6F7590"/>
<path d="M71.8088 75.8399C73.2934 75.8399 74.4969 74.6346 74.4969 73.1475C74.4969 71.6604 73.2934 70.4547 71.8088 70.4547C70.3241 70.4547 69.1206 71.6604 69.1206 73.1475C69.1206 74.6346 70.3241 75.8399 71.8088 75.8399Z" fill="#6F7590"/>
<path d="M65.9358 79.5515C65.9358 80.4208 64.1676 81.132 61.9962 81.132C59.8092 81.132 58.041 80.4208 58.041 79.5515H65.9358Z" fill="#6F7590"/>
<path d="M55.9937 10.5617V48.6781C55.9937 49.4791 55.3295 50.1466 54.5325 50.1466H2.46118C1.66417 50.1466 1 49.4791 1 48.6781V10.5617C1 9.76067 1.66417 9.09313 2.46118 9.09313H54.5325C55.3295 9.02638 55.9937 9.69392 55.9937 10.5617Z" fill="white"/>
<path d="M5.1843 11.8966V50.1465H2.46118C1.66417 50.1465 1 49.479 1 48.6779V11.8966H5.1843Z" fill="#F4F6FD"/>
<path d="M55.9937 10.5617V12.4308H1V10.5617C1 9.76067 1.66417 9.09313 2.46118 9.09313H54.5325C55.3295 9.02638 55.9937 9.69392 55.9937 10.5617Z" fill="url(#paint1_linear_116_54882)"/>
<path d="M42.8469 8.9025H54.802C55.599 8.9025 56.2632 9.57003 56.2632 10.3711V48.4874C56.2632 49.2885 55.599 49.956 54.802 49.956H2.73072C1.93371 49.956 1.26953 49.2885 1.26953 48.4874V10.3711C1.26953 9.57003 1.93371 8.9025 2.73072 8.9025H37.2678" stroke="#6F7590" stroke-miterlimit="10" stroke-linecap="round" stroke-linejoin="round"/>
<path d="M2.66023 11.2955C2.917 11.2955 3.12516 11.0865 3.12516 10.8287C3.12516 10.5709 2.917 10.3619 2.66023 10.3619C2.40347 10.3619 2.19531 10.5709 2.19531 10.8287C2.19531 11.0865 2.40347 11.2955 2.66023 11.2955Z" fill="white"/>
<path d="M3.98909 11.2952C4.24586 11.2952 4.45401 11.0861 4.45401 10.8283C4.45401 10.5705 4.24586 10.3615 3.98909 10.3615C3.73232 10.3615 3.52417 10.5705 3.52417 10.8283C3.52417 11.0861 3.73232 11.2952 3.98909 11.2952Z" fill="white"/>
<path d="M5.31819 11.2952C5.57496 11.2952 5.78312 11.0861 5.78312 10.8283C5.78312 10.5705 5.57496 10.3615 5.31819 10.3615C5.06142 10.3615 4.85327 10.5705 4.85327 10.8283C4.85327 11.0861 5.06142 11.2952 5.31819 11.2952Z" fill="white"/>
<path d="M3.12515 15.767H2.72664C2.46097 15.767 2.26172 15.567 2.26172 15.3002C2.26172 15.0334 2.52739 14.9001 2.72664 14.9001H3.12515C3.39082 14.9001 3.59007 15.1001 3.59007 15.3669C3.59007 15.6337 3.39082 15.767 3.12515 15.767Z" fill="#C0D6FF"/>
<path d="M3.12515 17.9037H2.72664C2.46097 17.9037 2.26172 17.7036 2.26172 17.4369C2.26172 17.1701 2.46097 16.97 2.72664 16.97H3.12515C3.39082 16.97 3.59007 17.1701 3.59007 17.4369C3.59007 17.7036 3.39082 17.9037 3.12515 17.9037Z" fill="#C0D6FF"/>
<path d="M3.12515 20.0395H2.72664C2.46097 20.0395 2.26172 19.8394 2.26172 19.5727C2.26172 19.3059 2.46097 19.1058 2.72664 19.1058H3.12515C3.39082 19.1058 3.59007 19.3059 3.59007 19.5727C3.59007 19.8394 3.39082 20.0395 3.12515 20.0395Z" fill="#C0D6FF"/>
<path d="M3.12515 22.1758H2.72664C2.46097 22.1758 2.26172 21.9757 2.26172 21.7089C2.26172 21.4422 2.46097 21.2421 2.72664 21.2421H3.12515C3.39082 21.2421 3.59007 21.4422 3.59007 21.7089C3.59007 21.9757 3.39082 22.1758 3.12515 22.1758Z" fill="#C0D6FF"/>
<path d="M3.12515 24.3121H2.72664C2.46097 24.3121 2.26172 24.112 2.26172 23.8452C2.26172 23.5785 2.46097 23.3784 2.72664 23.3784H3.12515C3.39082 23.3784 3.59007 23.5785 3.59007 23.8452C3.59007 24.112 3.39082 24.3121 3.12515 24.3121Z" fill="#C0D6FF"/>
<path d="M3.12515 26.4476H2.72664C2.46097 26.4476 2.26172 26.2476 2.26172 25.9808C2.26172 25.714 2.52739 25.5807 2.72664 25.5807H3.12515C3.39082 25.5807 3.59007 25.7807 3.59007 26.0475C3.59007 26.3143 3.39082 26.4476 3.12515 26.4476Z" fill="#C0D6FF"/>
<path d="M3.12515 28.5837H2.72664C2.46097 28.5837 2.26172 28.3836 2.26172 28.1168C2.26172 27.8501 2.46097 27.65 2.72664 27.65H3.12515C3.39082 27.65 3.59007 27.8501 3.59007 28.1168C3.59007 28.3836 3.39082 28.5837 3.12515 28.5837Z" fill="#C0D6FF"/>
<path d="M3.12515 30.7199H2.72664C2.46097 30.7199 2.26172 30.5199 2.26172 30.2531C2.26172 29.9863 2.46097 29.7863 2.72664 29.7863H3.12515C3.39082 29.7863 3.59007 29.9863 3.59007 30.2531C3.59007 30.5199 3.39082 30.7199 3.12515 30.7199Z" fill="#C0D6FF"/>
<path d="M3.12515 32.8562H2.72664C2.46097 32.8562 2.26172 32.6561 2.26172 32.3894C2.26172 32.1226 2.46097 31.9225 2.72664 31.9225H3.12515C3.39082 31.9225 3.59007 32.1226 3.59007 32.3894C3.59007 32.6561 3.39082 32.8562 3.12515 32.8562Z" fill="#C0D6FF"/>
<path d="M3.12515 34.9256H2.72664C2.46097 34.9256 2.26172 34.7255 2.26172 34.4587C2.26172 34.192 2.46097 33.9919 2.72664 33.9919H3.12515C3.39082 33.9919 3.59007 34.192 3.59007 34.4587C3.59007 34.7255 3.39082 34.9256 3.12515 34.9256Z" fill="#C0D6FF"/>
<path d="M3.12515 37.0618H2.72664C2.46097 37.0618 2.26172 36.8618 2.26172 36.595C2.26172 36.3282 2.46097 36.1282 2.72664 36.1282H3.12515C3.39082 36.1282 3.59007 36.3282 3.59007 36.595C3.59007 36.8618 3.39082 37.0618 3.12515 37.0618Z" fill="#C0D6FF"/>
<path d="M3.12515 39.1981H2.72664C2.46097 39.1981 2.26172 38.998 2.26172 38.7313C2.26172 38.4645 2.46097 38.2645 2.72664 38.2645H3.12515C3.39082 38.2645 3.59007 38.4645 3.59007 38.7313C3.59007 38.998 3.39082 39.1981 3.12515 39.1981Z" fill="#C0D6FF"/>
<path d="M3.12515 41.3339H2.72664C2.46097 41.3339 2.26172 41.1339 2.26172 40.8671C2.26172 40.6003 2.46097 40.4003 2.72664 40.4003H3.12515C3.39082 40.4003 3.59007 40.6003 3.59007 40.8671C3.59007 41.1339 3.39082 41.3339 3.12515 41.3339Z" fill="#C0D6FF"/>
<path d="M3.12515 43.4702H2.72664C2.46097 43.4702 2.26172 43.2701 2.26172 43.0034C2.26172 42.7366 2.46097 42.5365 2.72664 42.5365H3.12515C3.39082 42.5365 3.59007 42.7366 3.59007 43.0034C3.59007 43.2701 3.39082 43.4702 3.12515 43.4702Z" fill="#C0D6FF"/>
<path d="M3.12515 45.6065H2.72664C2.46097 45.6065 2.26172 45.4064 2.26172 45.1397C2.26172 44.8729 2.46097 44.6728 2.72664 44.6728H3.12515C3.39082 44.6728 3.59007 44.8729 3.59007 45.1397C3.59007 45.4064 3.39082 45.6065 3.12515 45.6065Z" fill="#C0D6FF"/>
<path d="M3.12515 47.7428H2.72664C2.46097 47.7428 2.26172 47.5427 2.26172 47.2759C2.26172 47.0092 2.46097 46.8091 2.72664 46.8091H3.12515C3.39082 46.8091 3.59007 47.0092 3.59007 47.2759C3.59007 47.5427 3.39082 47.7428 3.12515 47.7428Z" fill="#C0D6FF"/>
<path d="M17.2049 18.4597H6.97664C6.71097 18.4597 6.51172 18.2596 6.51172 17.9929C6.51172 17.7261 6.71097 17.526 6.97664 17.526H17.2049C17.4706 17.526 17.6699 17.7261 17.6699 17.9929C17.6699 18.2596 17.4042 18.4597 17.2049 18.4597Z" fill="#C0D6FF"/>
<path d="M15.0796 20.5962H6.97664C6.71097 20.5962 6.51172 20.3961 6.51172 20.1293C6.51172 19.8626 6.71097 19.6625 6.97664 19.6625H15.0796C15.3452 19.6625 15.5445 19.8626 15.5445 20.1293C15.4781 20.3961 15.2788 20.5962 15.0796 20.5962Z" fill="#C0D6FF"/>
<path d="M36.7984 20.5962H16.6739C16.4082 20.5962 16.209 20.3961 16.209 20.1293C16.209 19.8626 16.4082 19.6625 16.6739 19.6625H36.7984C37.0641 19.6625 37.2633 19.8626 37.2633 20.1293C37.2633 20.3961 37.0641 20.5962 36.7984 20.5962Z" fill="#C0D6FF"/>
<path d="M45.4991 20.5962H39.6544C39.3887 20.5962 39.1895 20.3961 39.1895 20.1293C39.1895 19.8626 39.3887 19.6625 39.6544 19.6625H45.4991C45.7648 19.6625 45.964 19.8626 45.964 20.1293C45.964 20.3961 45.7648 20.5962 45.4991 20.5962Z" fill="#EAEEF9"/>
<g filter="url(#filter0_d_116_54882)">
<path d="M50.3461 20.5962H48.3536C48.0879 20.5962 47.8887 20.3961 47.8887 20.1293C47.8887 19.8626 48.0879 19.6625 48.3536 19.6625H50.3461C50.6118 19.6625 50.811 19.8626 50.811 20.1293C50.811 20.3961 50.6118 20.5962 50.3461 20.5962Z" fill="url(#paint2_linear_116_54882)"/>
</g>
<path d="M20.2596 22.732H10.0313C9.76566 22.732 9.56641 22.5319 9.56641 22.2651C9.56641 21.9984 9.76566 21.7983 10.0313 21.7983H20.2596C20.5253 21.7983 20.7245 21.9984 20.7245 22.2651C20.6581 22.5319 20.4589 22.732 20.2596 22.732Z" fill="#EA67A4"/>
<path d="M20.2596 31.2097H10.0313C9.76566 31.2097 9.56641 31.0096 9.56641 30.7428C9.56641 30.4761 9.76566 30.276 10.0313 30.276H20.2596C20.5253 30.276 20.7245 30.4761 20.7245 30.7428C20.6581 31.0096 20.4589 31.2097 20.2596 31.2097Z" fill="#EA67A4"/>
<path d="M17.5365 33.3459H10.0313C9.76566 33.3459 9.56641 33.1459 9.56641 32.8791C9.56641 32.6124 9.76566 32.4123 10.0313 32.4123H17.5365C17.8022 32.4123 18.0014 32.6124 18.0014 32.8791C18.0014 33.1459 17.8022 33.3459 17.5365 33.3459Z" fill="#C0D6FF"/>
<path d="M37.3957 33.3459H19.5958C19.3301 33.3459 19.1309 33.1459 19.1309 32.8791C19.1309 32.6124 19.3301 32.4123 19.5958 32.4123H37.3957C37.6613 32.4123 37.8606 32.6124 37.8606 32.8791C37.8606 33.1459 37.5949 33.3459 37.3957 33.3459Z" fill="#C0D6FF"/>
<path d="M23.115 24.8682H13.5509C13.2852 24.8682 13.0859 24.6682 13.0859 24.4014C13.0859 24.1346 13.2852 23.9346 13.5509 23.9346H23.115C23.3806 23.9346 23.5799 24.1346 23.5799 24.4014C23.5799 24.6682 23.3806 24.8682 23.115 24.8682Z" fill="#C0D6FF"/>
<g filter="url(#filter1_d_116_54882)">
<path d="M28.4949 24.8682H24.5763C24.3106 24.8682 24.1113 24.6682 24.1113 24.4014C24.1113 24.1346 24.3106 23.9346 24.5763 23.9346H28.4949C28.7605 23.9346 28.9598 24.1346 28.9598 24.4014C28.9598 24.6682 28.7605 24.8682 28.4949 24.8682Z" fill="url(#paint3_linear_116_54882)"/>
</g>
<path d="M39.9186 26.9376H13.5509C13.2852 26.9376 13.0859 26.7375 13.0859 26.4707C13.0859 26.204 13.2852 26.0039 13.5509 26.0039H39.9186C40.1843 26.0039 40.3835 26.204 40.3835 26.4707C40.3835 26.7375 40.1843 26.9376 39.9186 26.9376Z" fill="#C0D6FF"/>
<g filter="url(#filter2_d_116_54882)">
<path d="M44.6353 26.9376H42.1778C41.9121 26.9376 41.7129 26.7375 41.7129 26.4707C41.7129 26.204 41.9121 26.0039 42.1778 26.0039H44.6353C44.9009 26.0039 45.1002 26.204 45.1002 26.4707C45.0338 26.7375 44.9009 26.9376 44.6353 26.9376Z" fill="url(#paint4_linear_116_54882)"/>
</g>
<path d="M31.6828 29.0739H13.5509C13.2852 29.0739 13.0859 28.8738 13.0859 28.607C13.0859 28.3403 13.2852 28.1402 13.5509 28.1402H31.6828C31.9485 28.1402 32.1477 28.3403 32.1477 28.607C32.1477 28.8738 31.9485 29.0739 31.6828 29.0739Z" fill="#C0D6FF"/>
<path d="M23.7791 35.4153H13.5509C13.2852 35.4153 13.0859 35.2152 13.0859 34.9484C13.0859 34.6817 13.2852 34.4816 13.5509 34.4816H23.7791C24.0448 34.4816 24.2441 34.6817 24.2441 34.9484C24.2441 35.2152 24.0448 35.4153 23.7791 35.4153Z" fill="#C0D6FF"/>
<path d="M120.731 2.65914V40.7755C120.731 41.5765 120.067 42.2441 119.27 42.2441H67.1985C66.4015 42.2441 65.7373 41.5765 65.7373 40.7755V2.65914C65.7373 1.8581 66.4015 1.19056 67.1985 1.19056H119.27C120.067 1.12381 120.731 1.79135 120.731 2.65914Z" fill="white"/>
<path d="M69.9216 3.99417V42.244H67.1985C66.4015 42.244 65.7373 41.5765 65.7373 40.7754V3.99417H69.9216Z" fill="#F4F6FD"/>
<path d="M120.731 2.65914V4.52824H65.7373V2.65914C65.7373 1.8581 66.4015 1.19056 67.1985 1.19056H119.27C120.067 1.12381 120.731 1.79135 120.731 2.65914Z" fill="url(#paint5_linear_116_54882)"/>
<path d="M107.585 1.00015H119.54C120.337 1.00015 121.001 1.66769 121.001 2.46873V40.5851C121.001 41.3861 120.337 42.0537 119.54 42.0537H67.4684C66.6714 42.0537 66.0072 41.3861 66.0072 40.5851V2.46873C66.0072 1.66769 66.6714 1.00015 67.4684 1.00015H102.005" stroke="#6F7590" stroke-miterlimit="10" stroke-linecap="round" stroke-linejoin="round"/>
<path d="M67.3975 3.39301C67.6543 3.39301 67.8625 3.184 67.8625 2.92617C67.8625 2.66834 67.6543 2.45934 67.3975 2.45934C67.1408 2.45934 66.9326 2.66834 66.9326 2.92617C66.9326 3.184 67.1408 3.39301 67.3975 3.39301Z" fill="white"/>
<path d="M68.7273 3.39272C68.984 3.39272 69.1922 3.18371 69.1922 2.92588C69.1922 2.66805 68.984 2.45905 68.7273 2.45905C68.4705 2.45905 68.2623 2.66805 68.2623 2.92588C68.2623 3.18371 68.4705 3.39272 68.7273 3.39272Z" fill="white"/>
<path d="M70.0564 3.39272C70.3131 3.39272 70.5213 3.18371 70.5213 2.92588C70.5213 2.66805 70.3131 2.45905 70.0564 2.45905C69.7996 2.45905 69.5914 2.66805 69.5914 2.92588C69.5914 3.18371 69.7996 3.39272 70.0564 3.39272Z" fill="white"/>
<path d="M67.8625 7.86469H67.4639C67.1983 7.86469 66.999 7.66462 66.999 7.39786C66.999 7.13109 67.2647 6.99771 67.4639 6.99771H67.8625C68.1281 6.99771 68.3274 7.19778 68.3274 7.46455C68.3274 7.73131 68.1281 7.86469 67.8625 7.86469Z" fill="#C0D6FF"/>
<path d="M67.8625 10.0012H67.4639C67.1983 10.0012 66.999 9.80114 66.999 9.53437C66.999 9.26761 67.1983 9.06754 67.4639 9.06754H67.8625C68.1281 9.06754 68.3274 9.26761 68.3274 9.53437C68.3274 9.80114 68.1281 10.0012 67.8625 10.0012Z" fill="#C0D6FF"/>
<path d="M67.8625 12.137H67.4639C67.1983 12.137 66.999 11.9369 66.999 11.6701C66.999 11.4034 67.1983 11.2033 67.4639 11.2033H67.8625C68.1281 11.2033 68.3274 11.4034 68.3274 11.6701C68.3274 11.9369 68.1281 12.137 67.8625 12.137Z" fill="#C0D6FF"/>
<path d="M67.8625 14.2732H67.4639C67.1983 14.2732 66.999 14.0731 66.999 13.8063C66.999 13.5396 67.1983 13.3395 67.4639 13.3395H67.8625C68.1281 13.3395 68.3274 13.5396 68.3274 13.8063C68.3274 14.0731 68.1281 14.2732 67.8625 14.2732Z" fill="#C0D6FF"/>
<path d="M67.8625 16.4094H67.4639C67.1983 16.4094 66.999 16.2093 66.999 15.9426C66.999 15.6758 67.1983 15.4757 67.4639 15.4757H67.8625C68.1281 15.4757 68.3274 15.6758 68.3274 15.9426C68.3274 16.2093 68.1281 16.4094 67.8625 16.4094Z" fill="#C0D6FF"/>
<path d="M67.8625 18.5454H67.4639C67.1983 18.5454 66.999 18.3453 66.999 18.0785C66.999 17.8118 67.2647 17.6784 67.4639 17.6784H67.8625C68.1281 17.6784 68.3274 17.8784 68.3274 18.1452C68.3274 18.412 68.1281 18.5454 67.8625 18.5454Z" fill="#C0D6FF"/>
<path d="M67.8625 20.6814H67.4639C67.1983 20.6814 66.999 20.4813 66.999 20.2145C66.999 19.9478 67.1983 19.7477 67.4639 19.7477H67.8625C68.1281 19.7477 68.3274 19.9478 68.3274 20.2145C68.3274 20.4813 68.1281 20.6814 67.8625 20.6814Z" fill="#C0D6FF"/>
<path d="M67.8625 22.8181H67.4639C67.1983 22.8181 66.999 22.618 66.999 22.3513C66.999 22.0845 67.1983 21.8844 67.4639 21.8844H67.8625C68.1281 21.8844 68.3274 22.0845 68.3274 22.3513C68.3274 22.618 68.1281 22.8181 67.8625 22.8181Z" fill="#C0D6FF"/>
<path d="M67.8625 24.9538H67.4639C67.1983 24.9538 66.999 24.7538 66.999 24.487C66.999 24.2202 67.1983 24.0202 67.4639 24.0202H67.8625C68.1281 24.0202 68.3274 24.2202 68.3274 24.487C68.3274 24.7538 68.1281 24.9538 67.8625 24.9538Z" fill="#C0D6FF"/>
<path d="M67.8625 27.0232H67.4639C67.1983 27.0232 66.999 26.8231 66.999 26.5563C66.999 26.2896 67.1983 26.0895 67.4639 26.0895H67.8625C68.1281 26.0895 68.3274 26.2896 68.3274 26.5563C68.3274 26.8231 68.1281 27.0232 67.8625 27.0232Z" fill="#C0D6FF"/>
<path d="M67.8625 29.1594H67.4639C67.1983 29.1594 66.999 28.9593 66.999 28.6926C66.999 28.4258 67.1983 28.2257 67.4639 28.2257H67.8625C68.1281 28.2257 68.3274 28.4258 68.3274 28.6926C68.3274 28.9593 68.1281 29.1594 67.8625 29.1594Z" fill="#C0D6FF"/>
<path d="M67.8625 31.2956H67.4639C67.1983 31.2956 66.999 31.0956 66.999 30.8288C66.999 30.562 67.1983 30.362 67.4639 30.362H67.8625C68.1281 30.362 68.3274 30.562 68.3274 30.8288C68.3274 31.0956 68.1281 31.2956 67.8625 31.2956Z" fill="#C0D6FF"/>
<path d="M67.8625 33.4314H67.4639C67.1983 33.4314 66.999 33.2313 66.999 32.9646C66.999 32.6978 67.1983 32.4977 67.4639 32.4977H67.8625C68.1281 32.4977 68.3274 32.6978 68.3274 32.9646C68.3274 33.2313 68.1281 33.4314 67.8625 33.4314Z" fill="#C0D6FF"/>
<path d="M67.8625 35.5676H67.4639C67.1983 35.5676 66.999 35.3675 66.999 35.1008C66.999 34.834 67.1983 34.6339 67.4639 34.6339H67.8625C68.1281 34.6339 68.3274 34.834 68.3274 35.1008C68.3274 35.3675 68.1281 35.5676 67.8625 35.5676Z" fill="#C0D6FF"/>
<path d="M67.8625 37.7038H67.4639C67.1983 37.7038 66.999 37.5038 66.999 37.237C66.999 36.9702 67.1983 36.7702 67.4639 36.7702H67.8625C68.1281 36.7702 68.3274 36.9702 68.3274 37.237C68.3274 37.5038 68.1281 37.7038 67.8625 37.7038Z" fill="#C0D6FF"/>
<path d="M67.8625 39.8401H67.4639C67.1983 39.8401 66.999 39.64 66.999 39.3732C66.999 39.1065 67.1983 38.9064 67.4639 38.9064H67.8625C68.1281 38.9064 68.3274 39.1065 68.3274 39.3732C68.3274 39.64 68.1281 39.8401 67.8625 39.8401Z" fill="#C0D6FF"/>
<path d="M81.9442 10.5574H71.7159C71.4502 10.5574 71.251 10.3573 71.251 10.0905C71.251 9.82376 71.4502 9.62369 71.7159 9.62369H81.9442C82.2099 9.62369 82.4091 9.82376 82.4091 10.0905C82.4091 10.3573 82.1434 10.5574 81.9442 10.5574Z" fill="#C0D6FF"/>
<path d="M79.8188 12.6937H71.7159C71.4502 12.6937 71.251 12.4936 71.251 12.2269C71.251 11.9601 71.4502 11.76 71.7159 11.76H79.8188C80.0845 11.76 80.2837 11.9601 80.2837 12.2269C80.2173 12.4936 80.0181 12.6937 79.8188 12.6937Z" fill="#C0D6FF"/>
<path d="M101.538 12.6937H81.4132C81.1475 12.6937 80.9482 12.4936 80.9482 12.2269C80.9482 11.9601 81.1475 11.76 81.4132 11.76H101.538C101.803 11.76 102.003 11.9601 102.003 12.2269C102.003 12.4936 101.803 12.6937 101.538 12.6937Z" fill="#C0D6FF"/>
<path d="M110.238 12.6937H104.394C104.128 12.6937 103.929 12.4936 103.929 12.2269C103.929 11.9601 104.128 11.76 104.394 11.76H110.238C110.504 11.76 110.703 11.9601 110.703 12.2269C110.703 12.4936 110.504 12.6937 110.238 12.6937Z" fill="#EAEEF9"/>
<g filter="url(#filter3_d_116_54882)">
<path d="M115.085 12.6937H113.093C112.827 12.6937 112.628 12.4936 112.628 12.2269C112.628 11.9601 112.827 11.76 113.093 11.76H115.085C115.351 11.76 115.55 11.9601 115.55 12.2269C115.55 12.4936 115.351 12.6937 115.085 12.6937Z" fill="url(#paint6_linear_116_54882)"/>
</g>
<path d="M84.9989 14.8295H74.7706C74.5049 14.8295 74.3057 14.6294 74.3057 14.3627C74.3057 14.0959 74.5049 13.8958 74.7706 13.8958H84.9989C85.2645 13.8958 85.4638 14.0959 85.4638 14.3627C85.3974 14.6294 85.1981 14.8295 84.9989 14.8295Z" fill="#EA67A4"/>
<path d="M84.9989 23.3072H74.7706C74.5049 23.3072 74.3057 23.1071 74.3057 22.8404C74.3057 22.5736 74.5049 22.3735 74.7706 22.3735H84.9989C85.2645 22.3735 85.4638 22.5736 85.4638 22.8404C85.3974 23.1071 85.1981 23.3072 84.9989 23.3072Z" fill="#EA67A4"/>
<path d="M82.2758 25.4435H74.7706C74.5049 25.4435 74.3057 25.2434 74.3057 24.9767C74.3057 24.7099 74.5049 24.5098 74.7706 24.5098H82.2758C82.5414 24.5098 82.7407 24.7099 82.7407 24.9767C82.7407 25.2434 82.5414 25.4435 82.2758 25.4435Z" fill="#C0D6FF"/>
<path d="M102.135 25.4435H84.335C84.0694 25.4435 83.8701 25.2434 83.8701 24.9767C83.8701 24.7099 84.0694 24.5098 84.335 24.5098H102.135C102.401 24.5098 102.6 24.7099 102.6 24.9767C102.6 25.2434 102.334 25.4435 102.135 25.4435Z" fill="#C0D6FF"/>
<path d="M87.8542 16.9658H78.2901C78.0244 16.9658 77.8252 16.7657 77.8252 16.499C77.8252 16.2322 78.0244 16.0321 78.2901 16.0321H87.8542C88.1199 16.0321 88.3192 16.2322 88.3192 16.499C88.3192 16.7657 88.1199 16.9658 87.8542 16.9658Z" fill="#C0D6FF"/>
<g filter="url(#filter4_d_116_54882)">
<path d="M93.2341 16.9658H89.3155C89.0498 16.9658 88.8506 16.7657 88.8506 16.499C88.8506 16.2322 89.0498 16.0321 89.3155 16.0321H93.2341C93.4998 16.0321 93.6991 16.2322 93.6991 16.499C93.6991 16.7657 93.4998 16.9658 93.2341 16.9658Z" fill="url(#paint7_linear_116_54882)"/>
</g>
<path d="M104.658 19.0351H78.2901C78.0244 19.0351 77.8252 18.8351 77.8252 18.5683C77.8252 18.3015 78.0244 18.1015 78.2901 18.1015H104.658C104.924 18.1015 105.123 18.3015 105.123 18.5683C105.123 18.8351 104.924 19.0351 104.658 19.0351Z" fill="#C0D6FF"/>
<g filter="url(#filter5_d_116_54882)">
<path d="M109.375 19.0351H106.917C106.651 19.0351 106.452 18.8351 106.452 18.5683C106.452 18.3015 106.651 18.1015 106.917 18.1015H109.375C109.64 18.1015 109.839 18.3015 109.839 18.5683C109.773 18.8351 109.64 19.0351 109.375 19.0351Z" fill="url(#paint8_linear_116_54882)"/>
</g>
<path d="M96.4221 21.1714H78.2901C78.0244 21.1714 77.8252 20.9713 77.8252 20.7046C77.8252 20.4378 78.0244 20.2377 78.2901 20.2377H96.4221C96.6877 20.2377 96.887 20.4378 96.887 20.7046C96.887 20.9713 96.6877 21.1714 96.4221 21.1714Z" fill="#C0D6FF"/>
<path d="M88.5184 27.5128H78.2901C78.0244 27.5128 77.8252 27.3127 77.8252 27.046C77.8252 26.7792 78.0244 26.5791 78.2901 26.5791H88.5184C88.7841 26.5791 88.9833 26.7792 88.9833 27.046C88.9833 27.3127 88.7841 27.5128 88.5184 27.5128Z" fill="#C0D6FF"/>
<defs>
<filter id="filter0_d_116_54882" x="39.8887" y="16.6625" width="18.9224" height="16.9337" filterUnits="userSpaceOnUse" color-interpolation-filters="sRGB">
<feFlood flood-opacity="0" result="BackgroundImageFix"/>
<feColorMatrix in="SourceAlpha" type="matrix" values="0 0 0 0 0 0 0 0 0 0 0 0 0 0 0 0 0 0 127 0" result="hardAlpha"/>
<feOffset dy="5"/>
<feGaussianBlur stdDeviation="4"/>
<feColorMatrix type="matrix" values="0 0 0 0 0.1125 0 0 0 0 0.295916 0 0 0 0 1 0 0 0 0.22 0"/>
<feBlend mode="normal" in2="BackgroundImageFix" result="effect1_dropShadow_116_54882"/>
<feBlend mode="normal" in="SourceGraphic" in2="effect1_dropShadow_116_54882" result="shape"/>
</filter>
<filter id="filter1_d_116_54882" x="16.1113" y="20.9346" width="20.8485" height="16.9337" filterUnits="userSpaceOnUse" color-interpolation-filters="sRGB">
<feFlood flood-opacity="0" result="BackgroundImageFix"/>
<feColorMatrix in="SourceAlpha" type="matrix" values="0 0 0 0 0 0 0 0 0 0 0 0 0 0 0 0 0 0 127 0" result="hardAlpha"/>
<feOffset dy="5"/>
<feGaussianBlur stdDeviation="4"/>
<feColorMatrix type="matrix" values="0 0 0 0 0.1125 0 0 0 0 0.295916 0 0 0 0 1 0 0 0 0.22 0"/>
<feBlend mode="normal" in2="BackgroundImageFix" result="effect1_dropShadow_116_54882"/>
<feBlend mode="normal" in="SourceGraphic" in2="effect1_dropShadow_116_54882" result="shape"/>
</filter>
<filter id="filter2_d_116_54882" x="33.7129" y="23.0039" width="19.3873" height="16.9337" filterUnits="userSpaceOnUse" color-interpolation-filters="sRGB">
<feFlood flood-opacity="0" result="BackgroundImageFix"/>
<feColorMatrix in="SourceAlpha" type="matrix" values="0 0 0 0 0 0 0 0 0 0 0 0 0 0 0 0 0 0 127 0" result="hardAlpha"/>
<feOffset dy="5"/>
<feGaussianBlur stdDeviation="4"/>
<feColorMatrix type="matrix" values="0 0 0 0 0.1125 0 0 0 0 0.295916 0 0 0 0 1 0 0 0 0.22 0"/>
<feBlend mode="normal" in2="BackgroundImageFix" result="effect1_dropShadow_116_54882"/>
<feBlend mode="normal" in="SourceGraphic" in2="effect1_dropShadow_116_54882" result="shape"/>
</filter>
<filter id="filter3_d_116_54882" x="104.628" y="8.76004" width="18.9224" height="16.9337" filterUnits="userSpaceOnUse" color-interpolation-filters="sRGB">
<feFlood flood-opacity="0" result="BackgroundImageFix"/>
<feColorMatrix in="SourceAlpha" type="matrix" values="0 0 0 0 0 0 0 0 0 0 0 0 0 0 0 0 0 0 127 0" result="hardAlpha"/>
<feOffset dy="5"/>
<feGaussianBlur stdDeviation="4"/>
<feColorMatrix type="matrix" values="0 0 0 0 0.1125 0 0 0 0 0.295916 0 0 0 0 1 0 0 0 0.22 0"/>
<feBlend mode="normal" in2="BackgroundImageFix" result="effect1_dropShadow_116_54882"/>
<feBlend mode="normal" in="SourceGraphic" in2="effect1_dropShadow_116_54882" result="shape"/>
</filter>
<filter id="filter4_d_116_54882" x="80.8506" y="13.0321" width="20.8485" height="16.9337" filterUnits="userSpaceOnUse" color-interpolation-filters="sRGB">
<feFlood flood-opacity="0" result="BackgroundImageFix"/>
<feColorMatrix in="SourceAlpha" type="matrix" values="0 0 0 0 0 0 0 0 0 0 0 0 0 0 0 0 0 0 127 0" result="hardAlpha"/>
<feOffset dy="5"/>
<feGaussianBlur stdDeviation="4"/>
<feColorMatrix type="matrix" values="0 0 0 0 0.1125 0 0 0 0 0.295916 0 0 0 0 1 0 0 0 0.22 0"/>
<feBlend mode="normal" in2="BackgroundImageFix" result="effect1_dropShadow_116_54882"/>
<feBlend mode="normal" in="SourceGraphic" in2="effect1_dropShadow_116_54882" result="shape"/>
</filter>
<filter id="filter5_d_116_54882" x="98.4521" y="15.1015" width="19.3873" height="16.9337" filterUnits="userSpaceOnUse" color-interpolation-filters="sRGB">
<feFlood flood-opacity="0" result="BackgroundImageFix"/>
<feColorMatrix in="SourceAlpha" type="matrix" values="0 0 0 0 0 0 0 0 0 0 0 0 0 0 0 0 0 0 127 0" result="hardAlpha"/>
<feOffset dy="5"/>
<feGaussianBlur stdDeviation="4"/>
<feColorMatrix type="matrix" values="0 0 0 0 0.1125 0 0 0 0 0.295916 0 0 0 0 1 0 0 0 0.22 0"/>
<feBlend mode="normal" in2="BackgroundImageFix" result="effect1_dropShadow_116_54882"/>
<feBlend mode="normal" in="SourceGraphic" in2="effect1_dropShadow_116_54882" result="shape"/>
</filter>
<linearGradient id="paint0_linear_116_54882" x1="77.9252" y1="90.4254" x2="110.206" y2="90.4254" gradientUnits="userSpaceOnUse">
<stop stop-color="#83A6FF"/>
<stop offset="1" stop-color="#5277D7"/>
</linearGradient>
<linearGradient id="paint1_linear_116_54882" x1="0.995091" y1="10.7775" x2="55.9785" y2="10.7775" gradientUnits="userSpaceOnUse">
<stop stop-color="#6F88FF"/>
<stop offset="1" stop-color="#6E88FF" stop-opacity="0"/>
</linearGradient>
<linearGradient id="paint2_linear_116_54882" x1="47.8895" y1="20.1298" x2="50.8125" y2="20.1298" gradientUnits="userSpaceOnUse">
<stop stop-color="#83A6FF"/>
<stop offset="1" stop-color="#5277D7"/>
</linearGradient>
<linearGradient id="paint3_linear_116_54882" x1="24.1127" y1="24.4019" x2="28.9622" y2="24.4019" gradientUnits="userSpaceOnUse">
<stop stop-color="#83A6FF"/>
<stop offset="1" stop-color="#5277D7"/>
</linearGradient>
<linearGradient id="paint4_linear_116_54882" x1="41.7139" y1="26.4712" x2="45.1018" y2="26.4712" gradientUnits="userSpaceOnUse">
<stop stop-color="#83A6FF"/>
<stop offset="1" stop-color="#5277D7"/>
</linearGradient>
<linearGradient id="paint5_linear_116_54882" x1="65.7324" y1="2.87495" x2="120.716" y2="2.87495" gradientUnits="userSpaceOnUse">
<stop stop-color="#BDCDF4"/>
<stop offset="1" stop-color="#6E88FF" stop-opacity="0"/>
</linearGradient>
<linearGradient id="paint6_linear_116_54882" x1="112.629" y1="12.2273" x2="115.552" y2="12.2273" gradientUnits="userSpaceOnUse">
<stop stop-color="#83A6FF"/>
<stop offset="1" stop-color="#5277D7"/>
</linearGradient>
<linearGradient id="paint7_linear_116_54882" x1="88.852" y1="16.4994" x2="93.7014" y2="16.4994" gradientUnits="userSpaceOnUse">
<stop stop-color="#83A6FF"/>
<stop offset="1" stop-color="#5277D7"/>
</linearGradient>
<linearGradient id="paint8_linear_116_54882" x1="106.453" y1="18.5687" x2="109.841" y2="18.5687" gradientUnits="userSpaceOnUse">
<stop stop-color="#83A6FF"/>
<stop offset="1" stop-color="#5277D7"/>
</linearGradient>
</defs>
</svg>
