<svg viewBox="0 0 176 118" fill="none" xmlns="http://www.w3.org/2000/svg">
<path d="M85.5759 117.85C118.054 117.85 144.385 91.519 144.385 58.9248C144.385 26.3306 117.938 0 85.5759 0C53.0976 0 26.7671 26.3306 26.7671 58.9248C26.7671 91.519 53.0976 117.85 85.5759 117.85Z" fill="#F1F3F9"/>
<path d="M13.0706 16.472H12.849C12.406 16.472 11.9629 16.8059 11.9629 17.3626C11.9629 17.9193 12.2952 18.2533 12.849 18.2533H13.0706C13.5137 18.2533 13.9567 17.9193 13.9567 17.3626C13.9567 16.8059 13.5137 16.472 13.0706 16.472Z" fill="url(#paint0_linear_657_76629)"/>
<path d="M9.52615 16.472H9.30461C8.86153 16.472 8.41846 16.8059 8.41846 17.3626C8.41846 17.9193 8.75076 18.2533 9.30461 18.2533H9.52615C9.96923 18.2533 10.4123 17.9193 10.4123 17.3626C10.4123 16.8059 9.96923 16.472 9.52615 16.472Z" fill="url(#paint1_linear_657_76629)"/>
<path d="M16.6153 16.5828H16.3937C15.9506 16.5828 15.5076 16.9168 15.5076 17.3621C15.5076 17.8075 15.8399 18.2528 16.283 18.2528H16.5045C16.5045 18.2528 16.5045 18.2528 16.6153 18.2528C17.0583 18.2528 17.3906 17.9188 17.3906 17.4735C17.3906 17.0281 17.0583 16.5828 16.6153 16.5828Z" fill="url(#paint2_linear_657_76629)"/>
<path d="M24.369 27.3824C24.369 26.9371 24.0367 26.4918 23.4828 26.4918C22.929 26.4918 22.5967 26.8258 22.5967 27.3824V27.6051C22.5967 28.0504 22.929 28.4957 23.4828 28.4957C24.0367 28.4957 24.369 28.1617 24.369 27.6051V27.3824Z" fill="url(#paint3_linear_657_76629)"/>
<path d="M22.929 20.4798L22.8183 20.2571C22.5967 19.9232 22.0429 19.8118 21.7106 20.0345C21.3783 20.2571 21.2675 20.8138 21.489 21.1478L21.5998 21.3705C21.7106 21.5931 22.0429 21.7045 22.2644 21.7045C22.3752 21.7045 22.5967 21.7045 22.7075 21.5931C23.1506 21.3705 23.2613 20.8138 22.929 20.4798Z" fill="url(#paint4_linear_657_76629)"/>
<path d="M23.4828 30.0543C23.0398 30.0543 22.5967 30.3883 22.5967 30.9449V31.1676C22.5967 31.6129 22.929 32.0583 23.4828 32.0583C24.0367 32.0583 24.369 31.6129 24.369 31.1676V30.9449C24.369 30.4996 23.9259 30.0543 23.4828 30.0543Z" fill="url(#paint5_linear_657_76629)"/>
<path d="M6.09231 16.472H5.87077C5.4277 16.472 4.98462 16.8059 4.98462 17.3626C4.98462 17.9193 5.31693 18.2533 5.87077 18.2533H6.09231C6.53539 18.2533 6.97846 17.9193 6.97846 17.3626C6.97846 16.8059 6.53539 16.472 6.09231 16.472Z" fill="url(#paint6_linear_657_76629)"/>
<path d="M20.2706 17.6966L20.049 17.5853C19.606 17.3626 19.1629 17.4739 18.9413 17.9193C18.7198 18.3646 18.8306 18.8099 19.2736 19.0326L19.3844 19.1439C19.4952 19.2552 19.7167 19.2552 19.8275 19.2552C20.1598 19.2552 20.3813 19.1439 20.4921 18.8099C20.7136 18.4759 20.6029 18.0306 20.2706 17.6966Z" fill="url(#paint7_linear_657_76629)"/>
<path d="M25.3659 40.7421C25.1443 40.4081 24.5905 40.2968 24.2582 40.5194C23.9259 40.7421 23.8151 41.2988 24.0366 41.6328L24.1474 41.8554C24.2582 42.0781 24.5905 42.1894 24.812 42.1894C24.9228 42.1894 25.1443 42.1894 25.2551 42.0781C25.5874 41.8554 25.6982 41.2988 25.4766 40.9648L25.3659 40.7421Z" fill="url(#paint8_linear_657_76629)"/>
<path d="M27.8032 43.0801L27.6924 42.9687C27.2494 42.7461 26.8063 42.8574 26.5847 43.1914C26.3632 43.6367 26.474 44.0821 26.8063 44.3047L27.0278 44.4161C27.1386 44.5274 27.2494 44.5274 27.4709 44.5274C27.8032 44.5274 28.0247 44.4161 28.2463 44.0821C28.357 43.7481 28.1355 43.3027 27.8032 43.0801Z" fill="url(#paint9_linear_657_76629)"/>
<path d="M30.6826 43.9708H30.4611C30.018 43.9708 29.575 44.3048 29.575 44.7501C29.575 45.1954 29.9073 45.6407 30.3503 45.6407H30.5719C30.5719 45.6407 30.5719 45.6407 30.6826 45.6407C31.1257 45.6407 31.458 45.3067 31.458 44.8614C31.5688 44.4161 31.2365 43.9708 30.6826 43.9708Z" fill="url(#paint10_linear_657_76629)"/>
<path d="M23.4826 24.9332C24.0364 24.8219 24.3687 24.4879 24.258 24.0425V23.8199C24.1472 23.3746 23.8149 23.0406 23.261 23.1519C22.818 23.2632 22.4857 23.5972 22.5964 24.1539V24.3765C22.7072 24.7105 23.0395 24.9332 23.4826 24.9332Z" fill="url(#paint11_linear_657_76629)"/>
<path d="M24.3693 38.0703V37.8476C24.3693 37.4023 23.9262 37.0683 23.4831 37.0683C23.0401 37.0683 22.7078 37.5136 22.7078 37.9589C22.7078 38.0702 22.7078 38.1816 22.7078 38.1816C22.8185 38.6269 23.1508 38.8496 23.4831 38.8496H23.5939C24.1478 38.9609 24.4801 38.5156 24.3693 38.0703Z" fill="url(#paint12_linear_657_76629)"/>
<path d="M23.4828 35.5096C23.9259 35.5096 24.369 35.1756 24.369 34.6189V34.3963C24.369 33.9509 24.0367 33.5056 23.4828 33.5056C22.929 33.5056 22.5967 33.8396 22.5967 34.3963V34.6189C22.7074 35.1756 23.0398 35.5096 23.4828 35.5096Z" fill="url(#paint13_linear_657_76629)"/>
<path d="M2.43693 16.472C1.99386 16.472 1.55078 16.806 1.55078 17.3627C1.55078 17.9193 1.88309 18.2533 2.43693 18.2533H2.5477C2.99078 18.142 3.32309 17.808 3.32309 17.3627C3.32309 16.9173 2.88001 16.472 2.43693 16.472Z" fill="url(#paint14_linear_657_76629)"/>
<path d="M44.5288 43.9708H41.0949H40.8734H37.5503H37.3288H34.1165H33.8949C33.4519 43.9708 33.0088 44.3048 33.0088 44.8614C33.0088 45.4181 33.3411 45.7521 33.8949 45.7521H34.1165H37.3288H37.6611H40.9842H41.2057H44.6395C45.0826 45.7521 45.5257 45.4181 45.5257 44.8614C45.5257 44.3048 44.9719 43.9708 44.5288 43.9708Z" fill="url(#paint15_linear_657_76629)"/>
<path d="M15.5078 53.2113H15.2863C14.8432 53.2113 14.4001 53.5453 14.4001 54.102C14.4001 54.6586 14.7325 54.9926 15.2863 54.9926H15.5078C15.9509 54.9926 16.394 54.6586 16.394 54.102C16.394 53.5453 15.9509 53.2113 15.5078 53.2113Z" fill="url(#paint16_linear_657_76629)"/>
<path d="M19.1629 53.2113H18.9413C18.4983 53.2113 18.0552 53.5453 18.0552 54.102C18.0552 54.6586 18.3875 54.9926 18.9413 54.9926H19.1629C19.6059 54.9926 20.049 54.6586 20.049 54.102C20.049 53.5453 19.6059 53.2113 19.1629 53.2113Z" fill="url(#paint17_linear_657_76629)"/>
<path d="M11.8526 53.2113H11.631C11.1879 53.2113 10.7449 53.5453 10.7449 54.102C10.7449 54.6586 11.0772 54.9926 11.631 54.9926H11.8526C12.2956 54.9926 12.7387 54.6586 12.7387 54.102C12.7387 53.5453 12.2956 53.2113 11.8526 53.2113Z" fill="url(#paint18_linear_657_76629)"/>
<path d="M8.1968 53.2113H7.97526C7.53219 53.2113 7.08911 53.5453 7.08911 54.102C7.08911 54.6586 7.42142 54.9926 7.97526 54.9926H8.1968C8.63988 54.9926 9.08296 54.6586 9.08296 54.102C9.08296 53.5453 8.63988 53.2113 8.1968 53.2113Z" fill="url(#paint19_linear_657_76629)"/>
<path d="M4.54153 53.2113H4.31999C3.87691 53.2113 3.43384 53.5453 3.43384 54.102C3.43384 54.6586 3.76615 54.9926 4.31999 54.9926H4.54153C4.98461 54.9926 5.42768 54.6586 5.42768 54.102C5.42768 53.5453 5.09537 53.2113 4.54153 53.2113Z" fill="url(#paint20_linear_657_76629)"/>
<path d="M30.1294 53.2113H29.9079C29.4648 53.2113 29.0217 53.5453 29.0217 54.102C29.0217 54.6586 29.354 54.9926 29.9079 54.9926H30.1294C30.5725 54.9926 31.0156 54.6586 31.0156 54.102C31.0156 53.5453 30.5725 53.2113 30.1294 53.2113Z" fill="url(#paint21_linear_657_76629)"/>
<path d="M22.8186 53.2113H22.5971C22.154 53.2113 21.7109 53.5453 21.7109 54.102C21.7109 54.6586 22.0432 54.9926 22.5971 54.9926H22.8186C23.2617 54.9926 23.7048 54.6586 23.7048 54.102C23.7048 53.5453 23.2617 53.2113 22.8186 53.2113Z" fill="url(#paint22_linear_657_76629)"/>
<path d="M26.4739 53.2113H26.2524C25.8093 53.2113 25.3662 53.5453 25.3662 54.102C25.3662 54.6586 25.6985 54.9926 26.2524 54.9926H26.4739C26.917 54.9926 27.3601 54.6586 27.3601 54.102C27.3601 53.5453 26.917 53.2113 26.4739 53.2113Z" fill="url(#paint23_linear_657_76629)"/>
<path d="M0.996922 53.2114H0.886153C0.443077 53.2114 0 53.5454 0 54.102C0 54.6587 0.332307 54.9927 0.886153 54.9927H0.996922C1.44 54.9927 1.88308 54.6587 1.88308 54.102C1.88308 53.5454 1.44 53.2114 0.996922 53.2114Z" fill="url(#paint24_linear_657_76629)"/>
<path d="M44.5291 53.2113H40.9844H40.7629H37.3291H37.1075H34.006H33.8952H33.7844H33.5629C33.1198 53.2113 32.6768 53.5453 32.6768 54.102C32.6768 54.6586 33.0091 54.9926 33.5629 54.9926H33.7844H33.8952H34.006H37.1075H37.3291H40.7629H40.9844H44.5291C44.9721 54.9926 45.4152 54.6586 45.4152 54.102C45.4152 53.5453 44.9721 53.2113 44.5291 53.2113Z" fill="url(#paint25_linear_657_76629)"/>
<path d="M19.3844 89.3939L19.2736 89.5052C18.8306 89.7279 18.7198 90.2845 18.9413 90.6185C19.0521 90.8412 19.3844 91.0639 19.7167 91.0639C19.8275 91.0639 19.9383 91.0639 20.1598 90.9525L20.3813 90.8412C20.8244 90.6185 20.9352 90.0619 20.6029 89.7279C20.2706 89.2826 19.7167 89.1712 19.3844 89.3939Z" fill="url(#paint26_linear_657_76629)"/>
<path d="M16.3932 90.3958H16.1716C15.7285 90.3958 15.3962 90.8412 15.3962 91.2865C15.3962 91.7318 15.8393 92.0658 16.1716 92.0658H16.3932C16.8362 92.0658 17.1685 91.6205 17.1685 91.1752C17.2793 90.6185 16.8362 90.2845 16.3932 90.3958Z" fill="url(#paint27_linear_657_76629)"/>
<path d="M23.5934 83.6047C23.1503 83.4934 22.7073 83.8274 22.7073 84.384V84.6067C22.5965 85.052 22.9288 85.4973 23.3719 85.6087H23.4826C23.9257 85.6087 24.258 85.2747 24.258 84.9407V84.718C24.3688 84.05 24.0365 83.6047 23.5934 83.6047Z" fill="url(#paint28_linear_657_76629)"/>
<path d="M13.0701 90.3959H12.8486C12.4055 90.3959 11.9624 90.7299 11.9624 91.2866C11.9624 91.8432 12.2947 92.1772 12.8486 92.1772H13.0701C13.5132 92.1772 13.9562 91.8432 13.9562 91.2866C13.9562 90.7299 13.5132 90.3959 13.0701 90.3959Z" fill="url(#paint29_linear_657_76629)"/>
<path d="M23.4823 80.0421C23.0393 80.0421 22.5962 80.376 22.5962 80.9327V81.1554C22.5962 81.6007 22.9285 82.046 23.4823 82.046C24.0362 82.046 24.3685 81.712 24.3685 81.1554V80.9327C24.3685 80.4874 23.9254 80.0421 23.4823 80.0421Z" fill="url(#paint30_linear_657_76629)"/>
<path d="M6.09182 90.3959H5.87028C5.42721 90.3959 4.98413 90.7299 4.98413 91.2866C4.98413 91.8432 5.31644 92.1772 5.87028 92.1772H6.09182C6.5349 92.1772 6.97798 91.8432 6.97798 91.2866C6.97798 90.7299 6.5349 90.3959 6.09182 90.3959Z" fill="url(#paint31_linear_657_76629)"/>
<path d="M9.52566 90.3959H9.30412C8.86105 90.3959 8.41797 90.7299 8.41797 91.2866C8.41797 91.8432 8.75028 92.1772 9.30412 92.1772H9.52566C9.96874 92.1772 10.4118 91.8432 10.4118 91.2866C10.4118 90.7299 9.96874 90.3959 9.52566 90.3959Z" fill="url(#paint32_linear_657_76629)"/>
<path d="M22.7075 86.9445C22.3752 86.7219 21.8213 86.8332 21.5998 87.1672L21.489 87.3899C21.2675 87.7239 21.3783 88.2805 21.7106 88.5032C21.8213 88.6145 22.0429 88.6145 22.1537 88.6145C22.3752 88.6145 22.7075 88.5032 22.8183 88.2805L22.929 88.0579C23.2613 87.7239 23.1506 87.2785 22.7075 86.9445Z" fill="url(#paint33_linear_657_76629)"/>
<path d="M26.9168 64.1217L26.6953 64.2331C26.2522 64.4557 26.1414 65.0124 26.4737 65.3464C26.5845 65.569 26.9168 65.7917 27.1384 65.7917C27.2491 65.7917 27.4707 65.7917 27.5814 65.6804L27.6922 65.569C28.1353 65.3464 28.246 64.7897 28.0245 64.4557C27.803 64.1217 27.3599 63.8991 26.9168 64.1217Z" fill="url(#paint34_linear_657_76629)"/>
<path d="M30.5716 63.0079H30.3501C29.907 63.0079 29.5747 63.4532 29.5747 63.8986C29.5747 64.3439 30.0178 64.6779 30.3501 64.6779H30.4609H30.6824C31.1255 64.6779 31.4578 64.2325 31.4578 63.7872C31.4578 63.2306 31.0147 62.8966 30.5716 63.0079Z" fill="url(#paint35_linear_657_76629)"/>
<path d="M24.1469 66.6824L24.0362 66.905C23.8146 67.239 23.9254 67.7957 24.2577 68.0184C24.3685 68.1297 24.59 68.1297 24.7008 68.1297C24.9223 68.1297 25.2546 68.0184 25.3654 67.7957L25.4762 67.6844C25.6977 67.3504 25.5869 66.7937 25.2546 66.571C24.9223 66.2371 24.3685 66.3484 24.1469 66.6824Z" fill="url(#paint36_linear_657_76629)"/>
<path d="M23.4823 76.5908C23.0393 76.5908 22.5962 76.9247 22.5962 77.4814V77.7041C22.5962 78.1494 22.9285 78.5947 23.4823 78.5947C24.0362 78.5947 24.3685 78.2607 24.3685 77.7041V77.4814C24.3685 76.9247 23.9254 76.5908 23.4823 76.5908Z" fill="url(#paint37_linear_657_76629)"/>
<path d="M23.4823 73.0282C23.0393 73.0282 22.5962 73.3622 22.5962 73.9189V74.1415C22.5962 74.5868 22.9285 75.0322 23.4823 75.0322C24.0362 75.0322 24.3685 74.5868 24.3685 74.1415V73.9189C24.3685 73.4735 23.9254 73.0282 23.4823 73.0282Z" fill="url(#paint38_linear_657_76629)"/>
<path d="M23.7042 69.577C23.2611 69.4657 22.818 69.7997 22.7073 70.245C22.7073 70.3563 22.7073 70.4676 22.7073 70.4676C22.7073 70.913 23.0396 71.3583 23.4827 71.3583H23.5934C24.0365 71.3583 24.3688 71.0243 24.3688 70.579V70.3563C24.4796 70.0223 24.1473 69.6883 23.7042 69.577Z" fill="url(#paint39_linear_657_76629)"/>
<path d="M2.43645 90.3959C1.99337 90.3959 1.55029 90.7299 1.55029 91.2866C1.55029 91.8432 1.8826 92.1772 2.43645 92.1772H2.54722C2.99029 92.0659 3.3226 91.7319 3.3226 91.2866C3.3226 90.8412 2.87952 90.3959 2.43645 90.3959Z" fill="url(#paint40_linear_657_76629)"/>
<path d="M44.5285 62.8971H41.0946H40.8731H37.55H37.3285H34.0054H33.8946H33.7839C33.3408 62.8971 32.8977 63.2311 32.8977 63.7877C32.8977 64.3444 33.23 64.6784 33.7839 64.6784H33.8946H34.0054H37.3285H37.6608H40.9839H41.2054H44.6392C45.0823 64.6784 45.5254 64.3444 45.5254 63.7877C45.5254 63.2311 44.9715 62.8971 44.5285 62.8971Z" fill="url(#paint41_linear_657_76629)"/>
<path d="M151.421 26.6031C150.978 26.6031 150.535 26.9371 150.535 27.4937V27.7164C150.535 28.1617 150.867 28.6071 151.421 28.6071C151.975 28.6071 152.307 28.2731 152.307 27.7164V27.4937C152.307 26.9371 151.864 26.6031 151.421 26.6031Z" fill="url(#paint42_linear_657_76629)"/>
<path d="M151.421 30.0543C150.978 30.0543 150.535 30.3883 150.535 30.9449V31.1676C150.535 31.6129 150.867 32.0583 151.421 32.0583C151.975 32.0583 152.307 31.7243 152.307 31.1676V30.9449C152.307 30.4996 151.864 30.0543 151.421 30.0543Z" fill="url(#paint43_linear_657_76629)"/>
<path d="M151.421 37.0683C150.978 37.0683 150.535 37.4023 150.535 37.8476V38.0703C150.424 38.5156 150.756 38.9609 151.199 39.0722H151.31C151.753 39.0722 152.085 38.7382 152.085 38.4042C152.085 38.2929 152.085 38.1816 152.085 38.1816C152.307 37.6249 151.975 37.1796 151.421 37.0683Z" fill="url(#paint44_linear_657_76629)"/>
<path d="M150.646 40.5194C150.314 40.2968 149.76 40.4081 149.539 40.7421L149.428 40.8534C149.206 41.1874 149.317 41.7441 149.649 41.9667C149.76 42.0781 149.982 42.0781 150.092 42.0781C150.314 42.0781 150.646 41.9667 150.757 41.7441L150.868 41.5214C151.2 41.2988 151.089 40.7421 150.646 40.5194Z" fill="url(#paint45_linear_657_76629)"/>
<path d="M144.332 43.9707H144.11C143.667 43.9707 143.335 44.4161 143.335 44.8614C143.335 45.3067 143.778 45.6407 144.11 45.6407C144.11 45.6407 144.11 45.6407 144.221 45.6407H144.443C144.886 45.6407 145.218 45.1954 145.218 44.7501C145.218 44.1934 144.886 43.8594 144.332 43.9707Z" fill="url(#paint46_linear_657_76629)"/>
<path d="M147.323 42.9688L147.212 43.0801C146.769 43.3028 146.659 43.8594 146.88 44.1934C146.991 44.4161 147.323 44.6388 147.655 44.6388C147.766 44.6388 147.988 44.6388 148.099 44.5274L148.32 44.4161C148.763 44.1934 148.874 43.6368 148.542 43.3028C148.209 42.8575 147.655 42.7461 147.323 42.9688Z" fill="url(#paint47_linear_657_76629)"/>
<path d="M141.009 43.9708H140.787H137.575H137.354H134.031H133.809H130.375C129.932 43.9708 129.489 44.3048 129.489 44.8614C129.489 45.4181 129.821 45.7521 130.375 45.7521H133.809H134.031H137.354H137.575H140.787H141.009C141.452 45.7521 141.895 45.4181 141.895 44.8614C141.895 44.3048 141.452 43.9708 141.009 43.9708Z" fill="url(#paint48_linear_657_76629)"/>
<path d="M151.421 33.6169C150.978 33.6169 150.535 33.9509 150.535 34.5076V34.7303C150.535 35.1756 150.867 35.6209 151.421 35.6209C151.975 35.6209 152.307 35.2869 152.307 34.7303V34.5076C152.307 33.9509 151.864 33.6169 151.421 33.6169Z" fill="url(#paint49_linear_657_76629)"/>
<path d="M165.6 16.472H165.378C164.935 16.472 164.492 16.8059 164.492 17.3626C164.492 17.9193 164.824 18.2533 165.378 18.2533H165.6C166.043 18.2533 166.486 17.9193 166.486 17.3626C166.486 16.8059 166.043 16.472 165.6 16.472Z" fill="url(#paint50_linear_657_76629)"/>
<path d="M169.144 16.472H168.923C168.479 16.472 168.036 16.8059 168.036 17.3626C168.036 17.9193 168.369 18.2533 168.923 18.2533H169.144C169.587 18.2533 170.03 17.9193 170.03 17.3626C170.03 16.8059 169.587 16.472 169.144 16.472Z" fill="url(#paint51_linear_657_76629)"/>
<path d="M162.166 16.472H161.945C161.501 16.472 161.058 16.8059 161.058 17.3626C161.058 17.9193 161.391 18.2533 161.945 18.2533H162.166C162.609 18.2533 163.052 17.9193 163.052 17.3626C163.052 16.8059 162.609 16.472 162.166 16.472Z" fill="url(#paint52_linear_657_76629)"/>
<path d="M151.643 23.1519C151.2 23.0406 150.757 23.3746 150.646 23.8199V24.0425C150.646 24.4879 150.868 24.9332 151.421 24.9332H151.532C151.975 24.9332 152.308 24.5992 152.308 24.1539V23.9312C152.418 23.5972 152.086 23.1519 151.643 23.1519Z" fill="url(#paint53_linear_657_76629)"/>
<path d="M152.086 20.2572L151.975 20.4799C151.753 20.8138 151.864 21.3705 152.196 21.5932C152.307 21.7045 152.529 21.7045 152.639 21.7045C152.861 21.7045 153.193 21.5932 153.304 21.3705L153.415 21.1478C153.636 20.8138 153.526 20.2572 153.193 20.0345C152.861 19.7005 152.418 19.8119 152.086 20.2572Z" fill="url(#paint54_linear_657_76629)"/>
<path d="M154.966 17.5853L154.744 17.6967C154.301 17.9193 154.191 18.476 154.523 18.81C154.634 19.0326 154.966 19.2553 155.187 19.2553C155.298 19.2553 155.52 19.2553 155.631 19.144L155.741 19.0326C156.184 18.81 156.295 18.2533 156.074 17.9193C155.852 17.5853 155.298 17.3627 154.966 17.5853Z" fill="url(#paint55_linear_657_76629)"/>
<path d="M158.621 16.472H158.4C157.957 16.472 157.624 16.9173 157.624 17.3626C157.624 17.8079 158.067 18.1419 158.4 18.1419C158.4 18.1419 158.4 18.1419 158.51 18.1419H158.732C159.175 18.1419 159.507 17.6966 159.507 17.2513C159.397 16.8059 159.064 16.472 158.621 16.472Z" fill="url(#paint56_linear_657_76629)"/>
<path d="M172.578 16.472C172.024 16.472 171.692 16.8059 171.692 17.3626C171.692 17.9193 172.135 18.2533 172.578 18.2533C173.021 18.2533 173.464 17.9193 173.464 17.3626C173.464 16.8059 173.021 16.472 172.578 16.472Z" fill="url(#paint57_linear_657_76629)"/>
<path d="M148.763 53.2113H148.541C148.098 53.2113 147.655 53.5453 147.655 54.102C147.655 54.6586 147.988 54.9926 148.541 54.9926H148.763C149.206 54.9926 149.649 54.6586 149.649 54.102C149.649 53.5453 149.206 53.2113 148.763 53.2113Z" fill="url(#paint58_linear_657_76629)"/>
<path d="M152.418 53.2113H152.197C151.754 53.2113 151.311 53.5453 151.311 54.102C151.311 54.6586 151.643 54.9926 152.197 54.9926H152.418C152.862 54.9926 153.305 54.6586 153.305 54.102C153.305 53.5453 152.862 53.2113 152.418 53.2113Z" fill="url(#paint59_linear_657_76629)"/>
<path d="M145.108 53.2113H144.886C144.443 53.2113 144 53.5453 144 54.102C144 54.6586 144.332 54.9926 144.886 54.9926H145.108C145.551 54.9926 145.994 54.6586 145.994 54.102C145.994 53.5453 145.551 53.2113 145.108 53.2113Z" fill="url(#paint60_linear_657_76629)"/>
<path d="M141.452 53.2113H141.231H141.12H141.009H137.908H137.686H134.252H134.031H130.486C130.043 53.2113 129.6 53.5453 129.6 54.102C129.6 54.6586 129.932 54.9926 130.486 54.9926H134.031H134.252H137.686H137.908H141.009H141.12H141.231H141.452C141.895 54.9926 142.339 54.6586 142.339 54.102C142.339 53.5453 141.895 53.2113 141.452 53.2113Z" fill="url(#paint61_linear_657_76629)"/>
<path d="M155.963 53.2113H155.741C155.298 53.2113 154.855 53.5453 154.855 54.102C154.855 54.6586 155.187 54.9926 155.741 54.9926H155.963C156.406 54.9926 156.849 54.6586 156.849 54.102C156.849 53.5453 156.517 53.2113 155.963 53.2113Z" fill="url(#paint62_linear_657_76629)"/>
<path d="M166.929 53.2113H166.708C166.265 53.2113 165.822 53.5453 165.822 54.102C165.822 54.6586 166.154 54.9926 166.708 54.9926H166.929C167.373 54.9926 167.816 54.6586 167.816 54.102C167.816 53.5453 167.373 53.2113 166.929 53.2113Z" fill="url(#paint63_linear_657_76629)"/>
<path d="M170.584 53.2113H170.363C169.92 53.2113 169.477 53.5453 169.477 54.102C169.477 54.6586 169.809 54.9926 170.363 54.9926H170.584C171.028 54.9926 171.471 54.6586 171.471 54.102C171.471 53.5453 171.028 53.2113 170.584 53.2113Z" fill="url(#paint64_linear_657_76629)"/>
<path d="M163.274 53.2113H163.052C162.609 53.2113 162.166 53.5453 162.166 54.102C162.166 54.6586 162.498 54.9926 163.052 54.9926H163.274C163.717 54.9926 164.16 54.6586 164.16 54.102C164.16 53.5453 163.717 53.2113 163.274 53.2113Z" fill="url(#paint65_linear_657_76629)"/>
<path d="M159.618 53.2113H159.397C158.954 53.2113 158.511 53.5453 158.511 54.102C158.511 54.6586 158.843 54.9926 159.397 54.9926H159.618C160.062 54.9926 160.505 54.6586 160.505 54.102C160.505 53.5453 160.062 53.2113 159.618 53.2113Z" fill="url(#paint66_linear_657_76629)"/>
<path d="M174.129 53.2113C173.575 53.2113 173.243 53.5453 173.243 54.102C173.243 54.6586 173.686 54.9926 174.129 54.9926C174.572 54.9926 175.015 54.6586 175.015 54.102C175.015 53.5453 174.572 53.2113 174.129 53.2113Z" fill="url(#paint67_linear_657_76629)"/>
<path d="M148.209 64.2329L147.988 64.1216C147.545 63.899 147.102 64.0103 146.88 64.4556C146.659 64.9009 146.769 65.3463 147.212 65.5689L147.323 65.6803C147.434 65.7916 147.655 65.7916 147.766 65.7916C148.099 65.7916 148.32 65.6803 148.431 65.3463C148.652 65.0123 148.542 64.4556 148.209 64.2329Z" fill="url(#paint68_linear_657_76629)"/>
<path d="M150.868 66.9049L150.757 66.6823C150.535 66.3483 149.982 66.2369 149.649 66.4596C149.317 66.6823 149.206 67.2389 149.428 67.5729L149.539 67.6842C149.649 67.9069 149.982 68.0182 150.203 68.0182C150.314 68.0182 150.535 68.0182 150.646 67.9069C151.089 67.7956 151.2 67.2389 150.868 66.9049Z" fill="url(#paint69_linear_657_76629)"/>
<path d="M151.421 71.4696C151.975 71.4696 152.307 71.0243 152.196 70.579C152.196 70.4676 152.196 70.3563 152.196 70.3563C152.086 69.911 151.643 69.577 151.2 69.6883C150.756 69.7997 150.424 70.1337 150.535 70.6903V70.913C150.646 71.1356 150.978 71.4696 151.421 71.4696Z" fill="url(#paint70_linear_657_76629)"/>
<path d="M141.009 62.8971H140.898H140.788H137.465H137.243H133.92H133.698H130.265C129.821 62.8971 129.378 63.2311 129.378 63.7878C129.378 64.3444 129.711 64.6784 130.265 64.6784H133.698H133.92H137.243H137.465H140.788H140.898H141.009C141.452 64.6784 141.895 64.3444 141.895 63.7878C141.895 63.2311 141.452 62.8971 141.009 62.8971Z" fill="url(#paint71_linear_657_76629)"/>
<path d="M151.421 76.5908C150.978 76.5908 150.535 76.9247 150.535 77.4814V77.7041C150.535 78.1494 150.867 78.5947 151.421 78.5947C151.975 78.5947 152.307 78.2607 152.307 77.7041V77.4814C152.307 76.9247 151.864 76.5908 151.421 76.5908Z" fill="url(#paint72_linear_657_76629)"/>
<path d="M152.308 73.9189C152.308 73.4736 151.975 73.0282 151.421 73.0282C150.868 73.0282 150.646 73.4736 150.646 73.9189V74.1415C150.646 74.5869 150.978 75.0322 151.532 75.0322C152.086 75.0322 152.418 74.6982 152.418 74.1415V73.9189H152.308Z" fill="url(#paint73_linear_657_76629)"/>
<path d="M151.421 81.9347C151.864 81.9347 152.307 81.6007 152.307 81.044V80.8214C152.307 80.376 151.975 79.9307 151.421 79.9307C150.867 79.9307 150.535 80.2647 150.535 80.8214V81.044C150.646 81.6007 150.978 81.9347 151.421 81.9347Z" fill="url(#paint74_linear_657_76629)"/>
<path d="M144.554 63.0078H144.332C143.889 63.0078 143.446 63.3418 143.446 63.7871C143.446 64.2325 143.778 64.6778 144.221 64.6778H144.443H144.554C144.997 64.6778 145.329 64.3438 145.329 63.8985C145.329 63.4531 144.997 63.0078 144.554 63.0078Z" fill="url(#paint75_linear_657_76629)"/>
<path d="M153.415 87.2786C153.194 86.9446 152.64 86.8332 152.307 87.0559C151.975 87.2786 151.864 87.8352 152.086 88.1692L152.197 88.3919C152.307 88.6145 152.64 88.7259 152.861 88.7259C152.972 88.7259 153.194 88.7259 153.304 88.6145C153.637 88.3919 153.748 87.8352 153.526 87.5012L153.415 87.2786Z" fill="url(#paint76_linear_657_76629)"/>
<path d="M152.308 84.4954V84.2728C152.308 83.8274 151.864 83.4934 151.421 83.4934C150.978 83.4934 150.646 83.9388 150.646 84.3841V84.6068C150.757 85.0521 151.089 85.2747 151.421 85.2747H151.532C152.086 85.3861 152.418 84.9407 152.308 84.4954Z" fill="url(#paint77_linear_657_76629)"/>
<path d="M169.144 90.3958H168.923C168.479 90.3958 168.036 90.7298 168.036 91.2864C168.036 91.8431 168.369 92.1771 168.923 92.1771H169.144C169.587 92.1771 170.03 91.8431 170.03 91.2864C170.03 90.7298 169.587 90.3958 169.144 90.3958Z" fill="url(#paint78_linear_657_76629)"/>
<path d="M162.166 90.3958H161.945C161.501 90.3958 161.058 90.7298 161.058 91.2864C161.058 91.8431 161.391 92.1771 161.945 92.1771H162.166C162.609 92.1771 163.052 91.8431 163.052 91.2864C163.052 90.7298 162.609 90.3958 162.166 90.3958Z" fill="url(#paint79_linear_657_76629)"/>
<path d="M165.6 90.3958H165.378C164.935 90.3958 164.492 90.7298 164.492 91.2864C164.492 91.8431 164.824 92.1771 165.378 92.1771H165.6C166.043 92.1771 166.486 91.8431 166.486 91.2864C166.486 90.7298 166.043 90.3958 165.6 90.3958Z" fill="url(#paint80_linear_657_76629)"/>
<path d="M158.732 90.3958H158.51C158.067 90.3958 157.624 90.7298 157.624 91.1751C157.624 91.6204 157.957 92.0658 158.4 92.0658H158.621C159.064 92.0658 159.397 91.7318 159.397 91.2864C159.507 90.8411 159.175 90.3958 158.732 90.3958Z" fill="url(#paint81_linear_657_76629)"/>
<path d="M155.741 89.5052L155.63 89.3939C155.187 89.1713 154.744 89.2826 154.522 89.6166C154.301 90.0619 154.412 90.5072 154.744 90.7299L154.966 90.8412C155.076 90.9526 155.187 90.9525 155.409 90.9525C155.741 90.9525 155.962 90.8412 156.184 90.5072C156.295 90.1732 156.184 89.7279 155.741 89.5052Z" fill="url(#paint82_linear_657_76629)"/>
<path d="M172.578 90.3958C172.024 90.3958 171.692 90.7298 171.692 91.2864C171.692 91.8431 172.135 92.1771 172.578 92.1771C173.021 92.1771 173.464 91.8431 173.464 91.2864C173.464 90.7298 173.021 90.3958 172.578 90.3958Z" fill="url(#paint83_linear_657_76629)"/>
<g filter="url(#filter0_d_657_76629)">
<path d="M132.552 35.2066C134.398 35.2066 135.894 36.7028 135.894 38.5484V75.7711C135.894 77.6167 134.398 79.1129 132.552 79.1129H41.4334C39.5877 79.1129 38.0916 77.6167 38.0916 75.7711L38.0916 38.5484C38.0916 36.7028 39.5877 35.2066 41.4334 35.2066L132.552 35.2066Z" fill="url(#paint84_linear_657_76629)"/>
<path d="M132.552 35.7066C134.122 35.7066 135.394 36.9789 135.394 38.5484V75.7711C135.394 77.3406 134.122 78.6129 132.552 78.6129H41.4334C39.8639 78.6129 38.5916 77.3406 38.5916 75.7711L38.5916 38.5484C38.5916 36.9789 39.8639 35.7066 41.4334 35.7066L132.552 35.7066Z" stroke="url(#paint85_linear_657_76629)"/>
</g>
<rect x="47.3572" y="44.2686" width="31.6117" height="4.36024" rx="2.18012" fill="url(#paint86_linear_657_76629)"/>
<rect x="47.3572" y="53.5341" width="63.8291" height="4.11801" rx="2.059" fill="#CED3DE"/>
<rect x="47.3572" y="61.7701" width="63.8291" height="4.11801" rx="2.059" fill="#CED3DE"/>
<path d="M32.6247 31.1978L29.8555 26.2992L32.7355 23.5159L37.3878 25.2972L33.8432 31.7544L32.6247 31.1978Z" fill="white" stroke="#6F7590" stroke-miterlimit="10" stroke-linecap="round" stroke-linejoin="round"/>
<path d="M34.2862 28.0806L34.6185 31.8658L34.5078 32.0885L30.1878 30.4185L29.8555 26.2993L32.5139 27.4126" fill="white"/>
<path d="M34.2862 28.0806L34.6185 31.8658L34.5078 32.0885L30.1878 30.4185L29.8555 26.2993L32.5139 27.4126" stroke="#6F7590" stroke-miterlimit="10" stroke-linecap="round" stroke-linejoin="round"/>
<path d="M34.5078 32.0884L34.1755 28.3031V28.0805L35.9478 26.5218L36.0586 26.4105L37.3878 25.2972L37.6094 27.7465V27.9691L37.7201 29.3051L36.9448 29.9731L36.834 30.0844L36.7232 30.1958L36.2802 30.5297L35.394 31.3091L35.2832 31.5317L34.5078 32.0884Z" fill="white" stroke="#6F7590" stroke-miterlimit="10" stroke-linecap="round" stroke-linejoin="round"/>
<path d="M113.043 18.2833L107.173 14.9434L108.391 10.2675L114.373 9.2655L114.594 18.0607L113.043 18.2833Z" fill="white" stroke="#6F7590" stroke-miterlimit="10" stroke-linecap="round" stroke-linejoin="round"/>
<path d="M112.822 14.0528L115.48 17.7268V18.0608L109.942 18.8401L107.173 14.9435L110.496 14.3868" fill="white"/>
<path d="M112.822 14.0528L115.48 17.7268V18.0608L109.942 18.8401L107.173 14.9435L110.496 14.3868" stroke="#6F7590" stroke-miterlimit="10" stroke-linecap="round" stroke-linejoin="round"/>
<path d="M115.48 18.0606L112.933 14.2754L112.711 14.0527L113.597 11.4921V11.2694L114.373 9.26547L116.034 11.6034L116.145 11.8261L117.142 13.1621L116.699 14.3867V14.6094L116.588 14.832L116.367 15.3887L115.923 16.7247L115.813 16.9473L115.48 18.0606Z" fill="white" stroke="#6F7590" stroke-miterlimit="10" stroke-linecap="round" stroke-linejoin="round"/>
<path d="M56.271 99.1099L52.5049 94.6567L54.7203 91.2054L59.8156 92.0961L57.6003 99.3326L56.271 99.1099Z" fill="white" stroke="#6F7590" stroke-miterlimit="10" stroke-linecap="round" stroke-linejoin="round"/>
<path d="M57.268 95.5473L58.3756 99.3325V99.5552L53.6126 98.7759L52.5049 94.6566L55.2741 95.2133" fill="white"/>
<path d="M57.268 95.5473L58.3756 99.3325V99.5552L53.6126 98.7759L52.5049 94.6566L55.2741 95.2133" stroke="#6F7590" stroke-miterlimit="10" stroke-linecap="round" stroke-linejoin="round"/>
<path d="M58.3757 99.5553L57.268 95.77L57.1572 95.5473L58.5972 93.6547L58.708 93.5434L59.8157 92.0961L60.4803 94.5454L60.5911 94.768L61.0341 96.104L60.3695 96.9946L60.2588 97.106L60.148 97.2173L59.8157 97.6626L59.0403 98.6646L58.9295 98.8873L58.3757 99.5553Z" fill="white" stroke="#6F7590" stroke-miterlimit="10" stroke-linecap="round" stroke-linejoin="round"/>
<path d="M125.72 98.8776C125.42 100.177 125.019 101.377 124.518 102.576C124.418 102.876 124.318 103.076 124.118 103.376C122.415 106.674 119.711 109.373 116.406 110.972C116.005 111.172 115.605 111.372 115.304 111.472C112.1 112.772 108.494 113.271 104.889 112.472C95.3742 110.473 89.265 101.177 91.268 91.6807C93.271 82.1848 102.585 76.0874 112.1 78.0865C115.505 78.7862 118.509 80.4855 121.013 82.8845C125.119 86.9827 126.922 93.0801 125.72 98.8776Z" fill="white"/>
<path d="M125.219 99.8772C124.919 101.177 124.518 102.376 124.018 103.576C123.917 103.876 123.817 104.075 123.617 104.375C121.914 107.674 119.21 110.373 115.905 111.972C115.505 112.172 115.104 112.372 114.804 112.472C111.599 113.771 107.993 114.271 104.388 113.471C94.8735 111.472 88.7642 102.176 90.7673 92.6803C92.7703 83.1844 102.084 77.087 111.599 79.0862C115.004 79.7859 118.008 81.4851 120.512 83.8841C124.719 87.9823 126.521 94.0797 125.219 99.8772Z" fill="url(#paint87_linear_657_76629)"/>
<path d="M105.39 77.387C107.393 77.0871 109.596 77.1871 111.699 77.5869C115.205 78.2866 118.409 80.0858 120.913 82.5847C125.32 86.9829 127.223 93.1802 125.921 99.2776C125.62 100.677 125.22 101.976 124.619 103.176C124.519 103.476 124.418 103.676 124.218 103.976C122.415 107.474 119.611 110.173 116.206 111.972C115.805 112.172 115.405 112.372 115.004 112.572C111.699 113.971 107.994 114.371 104.188 113.571C94.2729 111.472 87.8632 101.776 89.9664 91.8807C90.8677 87.4826 93.2713 83.8842 96.4762 81.2853" stroke="#182052" stroke-miterlimit="10" stroke-linecap="round" stroke-linejoin="round"/>
<path d="M98.5793 79.7865C98.7796 79.6864 98.8798 79.5862 99.0801 79.4861" stroke="#182052" stroke-miterlimit="10" stroke-linecap="round" stroke-linejoin="round"/>
<path d="M115.661 94.0745L114.989 93.963C114.653 93.963 114.429 93.7405 114.317 93.4066C114.205 93.184 114.205 92.9614 114.092 92.8501C113.98 92.6275 113.981 92.2934 114.205 92.0708L114.541 91.5143C114.765 91.1805 114.765 90.7354 114.429 90.5128L113.308 89.3998C112.972 89.0659 112.524 89.0658 112.3 89.2884L111.74 89.6226C111.515 89.8452 111.179 89.8448 110.843 89.7335C110.619 89.6222 110.395 89.5112 110.283 89.5112C109.947 89.3999 109.835 89.1772 109.722 88.8434L109.61 88.1755C109.498 87.7303 109.162 87.5076 108.826 87.5076H107.257C106.809 87.5076 106.473 87.8416 106.473 88.1755L106.361 88.8434C106.361 89.1772 106.137 89.3999 105.801 89.5112C105.576 89.6225 105.352 89.6222 105.24 89.7335C105.016 89.8448 104.68 89.8452 104.456 89.6226L103.896 89.2884C103.559 89.0658 103.111 89.0659 102.887 89.3998L101.766 90.5128C101.43 90.8467 101.43 91.2917 101.655 91.5143L101.991 92.0708C102.215 92.2934 102.215 92.6275 102.103 92.8501C101.991 93.0727 101.879 93.2953 101.879 93.4066C101.767 93.7405 101.542 93.8518 101.206 93.963L100.534 94.0745C100.086 94.1857 99.8616 94.5193 99.8616 94.8532V96.4112C99.8616 96.8564 100.198 97.1905 100.534 97.1905L101.206 97.3019C101.542 97.3019 101.767 97.5245 101.879 97.8584C101.991 98.081 101.991 98.3036 102.103 98.4149C102.215 98.6375 102.215 98.9711 101.991 99.305L101.655 99.8615C101.43 100.195 101.43 100.641 101.766 100.974L102.887 102.087C103.223 102.421 103.672 102.421 103.896 102.199L104.456 101.865C104.68 101.643 105.016 101.642 105.24 101.754C105.464 101.865 105.688 101.976 105.801 101.976C106.137 102.087 106.249 102.31 106.361 102.644L106.473 103.312C106.585 103.757 106.921 103.98 107.257 103.98H108.826C109.274 103.98 109.61 103.646 109.61 103.312L109.722 102.644C109.722 102.31 109.947 102.087 110.283 101.976C110.507 101.865 110.731 101.865 110.843 101.754C111.067 101.642 111.403 101.643 111.74 101.865L112.3 102.199C112.636 102.421 113.084 102.421 113.308 102.087L114.429 100.974C114.765 100.641 114.765 100.195 114.541 99.8615L114.205 99.305C113.981 99.0824 113.98 98.7487 114.092 98.4149C114.205 98.1923 114.317 97.9697 114.317 97.8584C114.429 97.5245 114.653 97.4132 114.989 97.3019L115.661 97.1905C116.11 97.0792 116.334 96.7451 116.334 96.4112V94.8532C116.334 94.408 116.11 94.0745 115.661 94.0745ZM108.266 98.3035C106.697 98.3035 105.464 97.0792 105.464 95.5211C105.464 93.9629 106.697 92.7387 108.266 92.7387C109.834 92.7387 111.067 93.9629 111.067 95.5211C110.955 97.0792 109.722 98.3035 108.266 98.3035Z" fill="white"/>
<defs>
<filter id="filter0_d_657_76629" x="19.7115" y="26.0166" width="134.563" height="80.6663" filterUnits="userSpaceOnUse" color-interpolation-filters="sRGB">
<feFlood flood-opacity="0" result="BackgroundImageFix"/>
<feColorMatrix in="SourceAlpha" type="matrix" values="0 0 0 0 0 0 0 0 0 0 0 0 0 0 0 0 0 0 127 0" result="hardAlpha"/>
<feOffset dy="9.19001"/>
<feGaussianBlur stdDeviation="9.19001"/>
<feColorMatrix type="matrix" values="0 0 0 0 0.397708 0 0 0 0 0.47749 0 0 0 0 0.575 0 0 0 0.27 0"/>
<feBlend mode="normal" in2="BackgroundImageFix" result="effect1_dropShadow_657_76629"/>
<feBlend mode="normal" in="SourceGraphic" in2="effect1_dropShadow_657_76629" result="shape"/>
</filter>
<linearGradient id="paint0_linear_657_76629" x1="-0.339685" y1="17.3342" x2="44.5718" y2="17.3342" gradientUnits="userSpaceOnUse">
<stop stop-color="#83A6FF" stop-opacity="0"/>
<stop offset="1" stop-color="#5A78FF"/>
</linearGradient>
<linearGradient id="paint1_linear_657_76629" x1="-0.339504" y1="17.3342" x2="44.5719" y2="17.3342" gradientUnits="userSpaceOnUse">
<stop stop-color="#83A6FF" stop-opacity="0"/>
<stop offset="1" stop-color="#5A78FF"/>
</linearGradient>
<linearGradient id="paint2_linear_657_76629" x1="-0.339616" y1="17.3594" x2="44.5718" y2="17.3594" gradientUnits="userSpaceOnUse">
<stop stop-color="#83A6FF" stop-opacity="0"/>
<stop offset="1" stop-color="#5A78FF"/>
</linearGradient>
<linearGradient id="paint3_linear_657_76629" x1="-0.339736" y1="27.5445" x2="44.5717" y2="27.5445" gradientUnits="userSpaceOnUse">
<stop stop-color="#83A6FF" stop-opacity="0"/>
<stop offset="1" stop-color="#5A78FF"/>
</linearGradient>
<linearGradient id="paint4_linear_657_76629" x1="-0.339691" y1="20.793" x2="44.5718" y2="20.793" gradientUnits="userSpaceOnUse">
<stop stop-color="#83A6FF" stop-opacity="0"/>
<stop offset="1" stop-color="#5A78FF"/>
</linearGradient>
<linearGradient id="paint5_linear_657_76629" x1="-0.339736" y1="31.0497" x2="44.5717" y2="31.0497" gradientUnits="userSpaceOnUse">
<stop stop-color="#83A6FF" stop-opacity="0"/>
<stop offset="1" stop-color="#5A78FF"/>
</linearGradient>
<linearGradient id="paint6_linear_657_76629" x1="-0.3395" y1="17.3342" x2="44.572" y2="17.3342" gradientUnits="userSpaceOnUse">
<stop stop-color="#83A6FF" stop-opacity="0"/>
<stop offset="1" stop-color="#5A78FF"/>
</linearGradient>
<linearGradient id="paint7_linear_657_76629" x1="-0.339689" y1="18.4061" x2="44.5718" y2="18.4061" gradientUnits="userSpaceOnUse">
<stop stop-color="#83A6FF" stop-opacity="0"/>
<stop offset="1" stop-color="#5A78FF"/>
</linearGradient>
<linearGradient id="paint8_linear_657_76629" x1="-0.339755" y1="41.3114" x2="44.5717" y2="41.3114" gradientUnits="userSpaceOnUse">
<stop stop-color="#83A6FF" stop-opacity="0"/>
<stop offset="1" stop-color="#5A78FF"/>
</linearGradient>
<linearGradient id="paint9_linear_657_76629" x1="-0.339357" y1="43.7092" x2="44.5721" y2="43.7092" gradientUnits="userSpaceOnUse">
<stop stop-color="#83A6FF" stop-opacity="0"/>
<stop offset="1" stop-color="#5A78FF"/>
</linearGradient>
<linearGradient id="paint10_linear_657_76629" x1="-0.339898" y1="44.7687" x2="44.5715" y2="44.7687" gradientUnits="userSpaceOnUse">
<stop stop-color="#83A6FF" stop-opacity="0"/>
<stop offset="1" stop-color="#5A78FF"/>
</linearGradient>
<linearGradient id="paint11_linear_657_76629" x1="-0.339991" y1="24.0429" x2="44.5715" y2="24.0429" gradientUnits="userSpaceOnUse">
<stop stop-color="#83A6FF" stop-opacity="0"/>
<stop offset="1" stop-color="#5A78FF"/>
</linearGradient>
<linearGradient id="paint12_linear_657_76629" x1="-0.339417" y1="38.0579" x2="44.572" y2="38.0579" gradientUnits="userSpaceOnUse">
<stop stop-color="#83A6FF" stop-opacity="0"/>
<stop offset="1" stop-color="#5A78FF"/>
</linearGradient>
<linearGradient id="paint13_linear_657_76629" x1="-0.339736" y1="34.5555" x2="44.5717" y2="34.5555" gradientUnits="userSpaceOnUse">
<stop stop-color="#83A6FF" stop-opacity="0"/>
<stop offset="1" stop-color="#5A78FF"/>
</linearGradient>
<linearGradient id="paint14_linear_657_76629" x1="-0.339494" y1="17.3343" x2="44.572" y2="17.3343" gradientUnits="userSpaceOnUse">
<stop stop-color="#83A6FF" stop-opacity="0"/>
<stop offset="1" stop-color="#5A78FF"/>
</linearGradient>
<linearGradient id="paint15_linear_657_76629" x1="-0.339917" y1="44.7963" x2="44.5715" y2="44.7963" gradientUnits="userSpaceOnUse">
<stop stop-color="#83A6FF" stop-opacity="0"/>
<stop offset="1" stop-color="#5A78FF"/>
</linearGradient>
<linearGradient id="paint16_linear_657_76629" x1="0.437474" y1="54.0323" x2="44.9126" y2="54.0323" gradientUnits="userSpaceOnUse">
<stop stop-color="#FF66A9" stop-opacity="0"/>
<stop offset="1" stop-color="#F53689"/>
</linearGradient>
<linearGradient id="paint17_linear_657_76629" x1="0.437113" y1="54.0323" x2="44.9123" y2="54.0323" gradientUnits="userSpaceOnUse">
<stop stop-color="#FF66A9" stop-opacity="0"/>
<stop offset="1" stop-color="#F53689"/>
</linearGradient>
<linearGradient id="paint18_linear_657_76629" x1="0.437583" y1="54.0323" x2="44.9127" y2="54.0323" gradientUnits="userSpaceOnUse">
<stop stop-color="#FF66A9" stop-opacity="0"/>
<stop offset="1" stop-color="#F53689"/>
</linearGradient>
<linearGradient id="paint19_linear_657_76629" x1="0.437205" y1="54.0323" x2="44.9123" y2="54.0323" gradientUnits="userSpaceOnUse">
<stop stop-color="#FF66A9" stop-opacity="0"/>
<stop offset="1" stop-color="#F53689"/>
</linearGradient>
<linearGradient id="paint20_linear_657_76629" x1="0.437311" y1="54.0323" x2="44.9125" y2="54.0323" gradientUnits="userSpaceOnUse">
<stop stop-color="#FF66A9" stop-opacity="0"/>
<stop offset="1" stop-color="#F53689"/>
</linearGradient>
<linearGradient id="paint21_linear_657_76629" x1="0.437543" y1="54.0323" x2="44.9127" y2="54.0323" gradientUnits="userSpaceOnUse">
<stop stop-color="#FF66A9" stop-opacity="0"/>
<stop offset="1" stop-color="#F53689"/>
</linearGradient>
<linearGradient id="paint22_linear_657_76629" x1="0.437513" y1="54.0323" x2="44.9126" y2="54.0323" gradientUnits="userSpaceOnUse">
<stop stop-color="#FF66A9" stop-opacity="0"/>
<stop offset="1" stop-color="#F53689"/>
</linearGradient>
<linearGradient id="paint23_linear_657_76629" x1="0.437379" y1="54.0323" x2="44.9125" y2="54.0323" gradientUnits="userSpaceOnUse">
<stop stop-color="#FF66A9" stop-opacity="0"/>
<stop offset="1" stop-color="#F53689"/>
</linearGradient>
<linearGradient id="paint24_linear_657_76629" x1="0.437317" y1="54.0323" x2="44.9125" y2="54.0323" gradientUnits="userSpaceOnUse">
<stop stop-color="#FF66A9" stop-opacity="0"/>
<stop offset="1" stop-color="#F53689"/>
</linearGradient>
<linearGradient id="paint25_linear_657_76629" x1="0.437177" y1="54.0323" x2="44.9123" y2="54.0323" gradientUnits="userSpaceOnUse">
<stop stop-color="#FF66A9" stop-opacity="0"/>
<stop offset="1" stop-color="#F53689"/>
</linearGradient>
<linearGradient id="paint26_linear_657_76629" x1="-0.339692" y1="90.1631" x2="44.5718" y2="90.1631" gradientUnits="userSpaceOnUse">
<stop stop-color="#83A6FF" stop-opacity="0"/>
<stop offset="1" stop-color="#5A78FF"/>
</linearGradient>
<linearGradient id="paint27_linear_657_76629" x1="-0.340181" y1="91.2089" x2="44.5713" y2="91.2089" gradientUnits="userSpaceOnUse">
<stop stop-color="#83A6FF" stop-opacity="0"/>
<stop offset="1" stop-color="#5A78FF"/>
</linearGradient>
<linearGradient id="paint28_linear_657_76629" x1="-0.339914" y1="84.5259" x2="44.5715" y2="84.5259" gradientUnits="userSpaceOnUse">
<stop stop-color="#83A6FF" stop-opacity="0"/>
<stop offset="1" stop-color="#5A78FF"/>
</linearGradient>
<linearGradient id="paint29_linear_657_76629" x1="-0.340173" y1="91.2347" x2="44.5713" y2="91.2347" gradientUnits="userSpaceOnUse">
<stop stop-color="#83A6FF" stop-opacity="0"/>
<stop offset="1" stop-color="#5A78FF"/>
</linearGradient>
<linearGradient id="paint30_linear_657_76629" x1="-0.340224" y1="81.0242" x2="44.5712" y2="81.0242" gradientUnits="userSpaceOnUse">
<stop stop-color="#83A6FF" stop-opacity="0"/>
<stop offset="1" stop-color="#5A78FF"/>
</linearGradient>
<linearGradient id="paint31_linear_657_76629" x1="-0.339988" y1="91.2347" x2="44.5715" y2="91.2347" gradientUnits="userSpaceOnUse">
<stop stop-color="#83A6FF" stop-opacity="0"/>
<stop offset="1" stop-color="#5A78FF"/>
</linearGradient>
<linearGradient id="paint32_linear_657_76629" x1="-0.339992" y1="91.2347" x2="44.5715" y2="91.2347" gradientUnits="userSpaceOnUse">
<stop stop-color="#83A6FF" stop-opacity="0"/>
<stop offset="1" stop-color="#5A78FF"/>
</linearGradient>
<linearGradient id="paint33_linear_657_76629" x1="-0.339691" y1="87.7755" x2="44.5718" y2="87.7755" gradientUnits="userSpaceOnUse">
<stop stop-color="#83A6FF" stop-opacity="0"/>
<stop offset="1" stop-color="#5A78FF"/>
</linearGradient>
<linearGradient id="paint34_linear_657_76629" x1="-0.33959" y1="64.8591" x2="44.5719" y2="64.8591" gradientUnits="userSpaceOnUse">
<stop stop-color="#83A6FF" stop-opacity="0"/>
<stop offset="1" stop-color="#5A78FF"/>
</linearGradient>
<linearGradient id="paint35_linear_657_76629" x1="-0.340137" y1="63.8004" x2="44.5713" y2="63.8004" gradientUnits="userSpaceOnUse">
<stop stop-color="#83A6FF" stop-opacity="0"/>
<stop offset="1" stop-color="#5A78FF"/>
</linearGradient>
<linearGradient id="paint36_linear_657_76629" x1="-0.340243" y1="67.2573" x2="44.5712" y2="67.2573" gradientUnits="userSpaceOnUse">
<stop stop-color="#83A6FF" stop-opacity="0"/>
<stop offset="1" stop-color="#5A78FF"/>
</linearGradient>
<linearGradient id="paint37_linear_657_76629" x1="-0.340224" y1="77.519" x2="44.5712" y2="77.519" gradientUnits="userSpaceOnUse">
<stop stop-color="#83A6FF" stop-opacity="0"/>
<stop offset="1" stop-color="#5A78FF"/>
</linearGradient>
<linearGradient id="paint38_linear_657_76629" x1="-0.340224" y1="74.0134" x2="44.5712" y2="74.0134" gradientUnits="userSpaceOnUse">
<stop stop-color="#83A6FF" stop-opacity="0"/>
<stop offset="1" stop-color="#5A78FF"/>
</linearGradient>
<linearGradient id="paint39_linear_657_76629" x1="-0.339903" y1="70.5113" x2="44.5716" y2="70.5113" gradientUnits="userSpaceOnUse">
<stop stop-color="#83A6FF" stop-opacity="0"/>
<stop offset="1" stop-color="#5A78FF"/>
</linearGradient>
<linearGradient id="paint40_linear_657_76629" x1="-0.339982" y1="91.2347" x2="44.5715" y2="91.2347" gradientUnits="userSpaceOnUse">
<stop stop-color="#83A6FF" stop-opacity="0"/>
<stop offset="1" stop-color="#5A78FF"/>
</linearGradient>
<linearGradient id="paint41_linear_657_76629" x1="-0.340231" y1="63.7726" x2="44.5712" y2="63.7726" gradientUnits="userSpaceOnUse">
<stop stop-color="#83A6FF" stop-opacity="0"/>
<stop offset="1" stop-color="#5A78FF"/>
</linearGradient>
<linearGradient id="paint42_linear_657_76629" x1="175.554" y1="27.5445" x2="136.27" y2="27.5445" gradientUnits="userSpaceOnUse">
<stop stop-color="#FF66A9" stop-opacity="0"/>
<stop offset="1" stop-color="#F53689"/>
</linearGradient>
<linearGradient id="paint43_linear_657_76629" x1="175.554" y1="31.0503" x2="136.27" y2="31.0503" gradientUnits="userSpaceOnUse">
<stop stop-color="#FF66A9" stop-opacity="0"/>
<stop offset="1" stop-color="#F53689"/>
</linearGradient>
<linearGradient id="paint44_linear_657_76629" x1="175.554" y1="38.0584" x2="136.27" y2="38.0584" gradientUnits="userSpaceOnUse">
<stop stop-color="#FF66A9" stop-opacity="0"/>
<stop offset="1" stop-color="#F53689"/>
</linearGradient>
<linearGradient id="paint45_linear_657_76629" x1="175.555" y1="41.312" x2="136.271" y2="41.312" gradientUnits="userSpaceOnUse">
<stop stop-color="#FF66A9" stop-opacity="0"/>
<stop offset="1" stop-color="#F53689"/>
</linearGradient>
<linearGradient id="paint46_linear_657_76629" x1="175.554" y1="44.7686" x2="136.27" y2="44.7686" gradientUnits="userSpaceOnUse">
<stop stop-color="#FF66A9" stop-opacity="0"/>
<stop offset="1" stop-color="#F53689"/>
</linearGradient>
<linearGradient id="paint47_linear_657_76629" x1="175.555" y1="43.7092" x2="136.271" y2="43.7092" gradientUnits="userSpaceOnUse">
<stop stop-color="#FF66A9" stop-opacity="0"/>
<stop offset="1" stop-color="#F53689"/>
</linearGradient>
<linearGradient id="paint48_linear_657_76629" x1="175.554" y1="44.7963" x2="136.271" y2="44.7963" gradientUnits="userSpaceOnUse">
<stop stop-color="#FF66A9" stop-opacity="0"/>
<stop offset="1" stop-color="#F53689"/>
</linearGradient>
<linearGradient id="paint49_linear_657_76629" x1="175.554" y1="34.5555" x2="136.27" y2="34.5555" gradientUnits="userSpaceOnUse">
<stop stop-color="#FF66A9" stop-opacity="0"/>
<stop offset="1" stop-color="#F53689"/>
</linearGradient>
<linearGradient id="paint50_linear_657_76629" x1="175.554" y1="17.3342" x2="136.271" y2="17.3342" gradientUnits="userSpaceOnUse">
<stop stop-color="#FF66A9" stop-opacity="0"/>
<stop offset="1" stop-color="#F53689"/>
</linearGradient>
<linearGradient id="paint51_linear_657_76629" x1="175.554" y1="17.3342" x2="136.27" y2="17.3342" gradientUnits="userSpaceOnUse">
<stop stop-color="#FF66A9" stop-opacity="0"/>
<stop offset="1" stop-color="#F53689"/>
</linearGradient>
<linearGradient id="paint52_linear_657_76629" x1="175.555" y1="17.3342" x2="136.271" y2="17.3342" gradientUnits="userSpaceOnUse">
<stop stop-color="#FF66A9" stop-opacity="0"/>
<stop offset="1" stop-color="#F53689"/>
</linearGradient>
<linearGradient id="paint53_linear_657_76629" x1="175.554" y1="24.043" x2="136.271" y2="24.043" gradientUnits="userSpaceOnUse">
<stop stop-color="#FF66A9" stop-opacity="0"/>
<stop offset="1" stop-color="#F53689"/>
</linearGradient>
<linearGradient id="paint54_linear_657_76629" x1="175.554" y1="20.793" x2="136.27" y2="20.793" gradientUnits="userSpaceOnUse">
<stop stop-color="#FF66A9" stop-opacity="0"/>
<stop offset="1" stop-color="#F53689"/>
</linearGradient>
<linearGradient id="paint55_linear_657_76629" x1="175.554" y1="18.4062" x2="136.271" y2="18.4062" gradientUnits="userSpaceOnUse">
<stop stop-color="#FF66A9" stop-opacity="0"/>
<stop offset="1" stop-color="#F53689"/>
</linearGradient>
<linearGradient id="paint56_linear_657_76629" x1="175.554" y1="17.3593" x2="136.271" y2="17.3593" gradientUnits="userSpaceOnUse">
<stop stop-color="#FF66A9" stop-opacity="0"/>
<stop offset="1" stop-color="#F53689"/>
</linearGradient>
<linearGradient id="paint57_linear_657_76629" x1="175.554" y1="17.3342" x2="136.271" y2="17.3342" gradientUnits="userSpaceOnUse">
<stop stop-color="#FF66A9" stop-opacity="0"/>
<stop offset="1" stop-color="#F53689"/>
</linearGradient>
<linearGradient id="paint58_linear_657_76629" x1="174.997" y1="54.0323" x2="129.813" y2="54.0323" gradientUnits="userSpaceOnUse">
<stop stop-color="#83A6FF" stop-opacity="0"/>
<stop offset="1" stop-color="#5A78FF"/>
</linearGradient>
<linearGradient id="paint59_linear_657_76629" x1="174.997" y1="54.0323" x2="129.814" y2="54.0323" gradientUnits="userSpaceOnUse">
<stop stop-color="#83A6FF" stop-opacity="0"/>
<stop offset="1" stop-color="#5A78FF"/>
</linearGradient>
<linearGradient id="paint60_linear_657_76629" x1="174.997" y1="54.0323" x2="129.813" y2="54.0323" gradientUnits="userSpaceOnUse">
<stop stop-color="#83A6FF" stop-opacity="0"/>
<stop offset="1" stop-color="#5A78FF"/>
</linearGradient>
<linearGradient id="paint61_linear_657_76629" x1="174.997" y1="54.0323" x2="129.813" y2="54.0323" gradientUnits="userSpaceOnUse">
<stop stop-color="#83A6FF" stop-opacity="0"/>
<stop offset="1" stop-color="#5A78FF"/>
</linearGradient>
<linearGradient id="paint62_linear_657_76629" x1="174.997" y1="54.0323" x2="129.813" y2="54.0323" gradientUnits="userSpaceOnUse">
<stop stop-color="#83A6FF" stop-opacity="0"/>
<stop offset="1" stop-color="#5A78FF"/>
</linearGradient>
<linearGradient id="paint63_linear_657_76629" x1="174.997" y1="54.0323" x2="129.814" y2="54.0323" gradientUnits="userSpaceOnUse">
<stop stop-color="#83A6FF" stop-opacity="0"/>
<stop offset="1" stop-color="#5A78FF"/>
</linearGradient>
<linearGradient id="paint64_linear_657_76629" x1="174.997" y1="54.0323" x2="129.813" y2="54.0323" gradientUnits="userSpaceOnUse">
<stop stop-color="#83A6FF" stop-opacity="0"/>
<stop offset="1" stop-color="#5A78FF"/>
</linearGradient>
<linearGradient id="paint65_linear_657_76629" x1="174.997" y1="54.0323" x2="129.813" y2="54.0323" gradientUnits="userSpaceOnUse">
<stop stop-color="#83A6FF" stop-opacity="0"/>
<stop offset="1" stop-color="#5A78FF"/>
</linearGradient>
<linearGradient id="paint66_linear_657_76629" x1="174.997" y1="54.0323" x2="129.814" y2="54.0323" gradientUnits="userSpaceOnUse">
<stop stop-color="#83A6FF" stop-opacity="0"/>
<stop offset="1" stop-color="#5A78FF"/>
</linearGradient>
<linearGradient id="paint67_linear_657_76629" x1="174.997" y1="54.0323" x2="129.813" y2="54.0323" gradientUnits="userSpaceOnUse">
<stop stop-color="#83A6FF" stop-opacity="0"/>
<stop offset="1" stop-color="#5A78FF"/>
</linearGradient>
<linearGradient id="paint68_linear_657_76629" x1="174.997" y1="64.859" x2="129.813" y2="64.859" gradientUnits="userSpaceOnUse">
<stop stop-color="#83A6FF" stop-opacity="0"/>
<stop offset="1" stop-color="#5A78FF"/>
</linearGradient>
<linearGradient id="paint69_linear_657_76629" x1="174.997" y1="67.2567" x2="129.813" y2="67.2567" gradientUnits="userSpaceOnUse">
<stop stop-color="#83A6FF" stop-opacity="0"/>
<stop offset="1" stop-color="#5A78FF"/>
</linearGradient>
<linearGradient id="paint70_linear_657_76629" x1="174.997" y1="70.5108" x2="129.813" y2="70.5108" gradientUnits="userSpaceOnUse">
<stop stop-color="#83A6FF" stop-opacity="0"/>
<stop offset="1" stop-color="#5A78FF"/>
</linearGradient>
<linearGradient id="paint71_linear_657_76629" x1="174.997" y1="63.7726" x2="129.813" y2="63.7726" gradientUnits="userSpaceOnUse">
<stop stop-color="#83A6FF" stop-opacity="0"/>
<stop offset="1" stop-color="#5A78FF"/>
</linearGradient>
<linearGradient id="paint72_linear_657_76629" x1="174.997" y1="77.5185" x2="129.813" y2="77.5185" gradientUnits="userSpaceOnUse">
<stop stop-color="#83A6FF" stop-opacity="0"/>
<stop offset="1" stop-color="#5A78FF"/>
</linearGradient>
<linearGradient id="paint73_linear_657_76629" x1="174.997" y1="74.0134" x2="129.813" y2="74.0134" gradientUnits="userSpaceOnUse">
<stop stop-color="#83A6FF" stop-opacity="0"/>
<stop offset="1" stop-color="#5A78FF"/>
</linearGradient>
<linearGradient id="paint74_linear_657_76629" x1="174.997" y1="81.0242" x2="129.813" y2="81.0242" gradientUnits="userSpaceOnUse">
<stop stop-color="#83A6FF" stop-opacity="0"/>
<stop offset="1" stop-color="#5A78FF"/>
</linearGradient>
<linearGradient id="paint75_linear_657_76629" x1="174.997" y1="63.8002" x2="129.813" y2="63.8002" gradientUnits="userSpaceOnUse">
<stop stop-color="#83A6FF" stop-opacity="0"/>
<stop offset="1" stop-color="#5A78FF"/>
</linearGradient>
<linearGradient id="paint76_linear_657_76629" x1="174.997" y1="87.7756" x2="129.813" y2="87.7756" gradientUnits="userSpaceOnUse">
<stop stop-color="#83A6FF" stop-opacity="0"/>
<stop offset="1" stop-color="#5A78FF"/>
</linearGradient>
<linearGradient id="paint77_linear_657_76629" x1="174.997" y1="84.5259" x2="129.813" y2="84.5259" gradientUnits="userSpaceOnUse">
<stop stop-color="#83A6FF" stop-opacity="0"/>
<stop offset="1" stop-color="#5A78FF"/>
</linearGradient>
<linearGradient id="paint78_linear_657_76629" x1="174.997" y1="91.2346" x2="129.813" y2="91.2346" gradientUnits="userSpaceOnUse">
<stop stop-color="#83A6FF" stop-opacity="0"/>
<stop offset="1" stop-color="#5A78FF"/>
</linearGradient>
<linearGradient id="paint79_linear_657_76629" x1="174.997" y1="91.2346" x2="129.813" y2="91.2346" gradientUnits="userSpaceOnUse">
<stop stop-color="#83A6FF" stop-opacity="0"/>
<stop offset="1" stop-color="#5A78FF"/>
</linearGradient>
<linearGradient id="paint80_linear_657_76629" x1="174.997" y1="91.2346" x2="129.813" y2="91.2346" gradientUnits="userSpaceOnUse">
<stop stop-color="#83A6FF" stop-opacity="0"/>
<stop offset="1" stop-color="#5A78FF"/>
</linearGradient>
<linearGradient id="paint81_linear_657_76629" x1="174.997" y1="91.2088" x2="129.813" y2="91.2088" gradientUnits="userSpaceOnUse">
<stop stop-color="#83A6FF" stop-opacity="0"/>
<stop offset="1" stop-color="#5A78FF"/>
</linearGradient>
<linearGradient id="paint82_linear_657_76629" x1="174.997" y1="90.1631" x2="129.813" y2="90.1631" gradientUnits="userSpaceOnUse">
<stop stop-color="#83A6FF" stop-opacity="0"/>
<stop offset="1" stop-color="#5A78FF"/>
</linearGradient>
<linearGradient id="paint83_linear_657_76629" x1="174.997" y1="91.2346" x2="129.813" y2="91.2346" gradientUnits="userSpaceOnUse">
<stop stop-color="#83A6FF" stop-opacity="0"/>
<stop offset="1" stop-color="#5A78FF"/>
</linearGradient>
<linearGradient id="paint84_linear_657_76629" x1="86.961" y1="34.191" x2="86.961" y2="79.5863" gradientUnits="userSpaceOnUse">
<stop stop-color="#FDFEFF"/>
<stop offset="0.9964" stop-color="#ECF0F5"/>
</linearGradient>
<linearGradient id="paint85_linear_657_76629" x1="43.8157" y1="46.7048" x2="88.1278" y2="102.302" gradientUnits="userSpaceOnUse">
<stop stop-color="#83A6FF"/>
<stop offset="0.994956" stop-color="#5277D7"/>
</linearGradient>
<linearGradient id="paint86_linear_657_76629" x1="47.4006" y1="46.3909" x2="78.067" y2="46.3909" gradientUnits="userSpaceOnUse">
<stop stop-color="#FF66A9"/>
<stop offset="1" stop-color="#F53689"/>
</linearGradient>
<linearGradient id="paint87_linear_657_76629" x1="92.45" y1="87.9116" x2="123.617" y2="105.516" gradientUnits="userSpaceOnUse">
<stop stop-color="#83A6FF"/>
<stop offset="0.994956" stop-color="#5277D7"/>
</linearGradient>
</defs>
</svg>
