<svg viewBox="0 0 142 118" fill="none" xmlns="http://www.w3.org/2000/svg">
<path d="M17.1537 20.2673C18.5121 19.8213 19.2554 18.3473 18.8139 16.975C18.3724 15.6027 16.9132 14.8518 15.5547 15.2979C14.1962 15.7439 13.4529 17.2179 13.8944 18.5902C14.336 19.9625 15.7952 20.7134 17.1537 20.2673Z" fill="#EAEEF9"/>
<path d="M22.8002 11.7432C23.7239 11.4399 24.2294 10.4375 23.9292 9.50436C23.6289 8.57121 22.6367 8.06062 21.7129 8.36391C20.7891 8.66721 20.2837 9.66955 20.5839 10.6027C20.8842 11.5359 21.8764 12.0465 22.8002 11.7432Z" fill="#EAEEF9"/>
<path d="M123.206 100.401C124.809 98.9217 124.921 96.4096 123.456 94.7905C121.992 93.1714 119.505 93.0583 117.902 94.5379C116.299 96.0176 116.187 98.5296 117.652 100.149C119.117 101.768 121.604 101.881 123.206 100.401Z" fill="#EAEEF9"/>
<path d="M123.505 82.5968C124.18 81.9738 124.227 80.9161 123.61 80.2344C122.993 79.5527 121.946 79.5051 121.271 80.1281C120.596 80.7511 120.549 81.8088 121.166 82.4905C121.783 83.1722 122.83 83.2199 123.505 82.5968Z" fill="#EAEEF9"/>
<path d="M68.8134 106C97.2113 106 120.232 82.7451 120.232 54.0584C120.232 25.3718 97.2113 2.1167 68.8134 2.1167C40.4156 2.1167 17.3945 25.3718 17.3945 54.0584C17.3945 82.7451 40.4156 106 68.8134 106Z" fill="#EAEEF9"/>
<g filter="url(#filter0_d_373_64890)">
<mask id="path-6-inside-1_373_64890" fill="white">
<path d="M92.2854 85H112.62C115.019 85 117 83.2675 117 81.1702V34.6657V32.8419V28.8298C117 26.7325 115.019 25 112.62 25H112.412H26.3798C23.9813 25 22 26.7325 22 28.8298V34.6657V81.1702C22 83.2675 23.9813 85 26.3798 85H81.9616"/>
</mask>
<path d="M92.2854 85H112.62C115.019 85 117 83.2675 117 81.1702V34.6657V32.8419V28.8298C117 26.7325 115.019 25 112.62 25H112.412H26.3798C23.9813 25 22 26.7325 22 28.8298V34.6657V81.1702C22 83.2675 23.9813 85 26.3798 85H81.9616" fill="white"/>
<path d="M92.2854 86H112.62V84H92.2854V86ZM112.62 86C115.441 86 118 83.9416 118 81.1702H116C116 82.5934 114.597 84 112.62 84V86ZM118 81.1702V34.6657H116V81.1702H118ZM118 34.6657V32.8419H116V34.6657H118ZM118 32.8419V28.8298H116V32.8419H118ZM118 28.8298C118 26.0584 115.441 24 112.62 24V26C114.597 26 116 27.4066 116 28.8298H118ZM112.62 24H112.412V26H112.62V24ZM112.412 24H26.3798V26H112.412V24ZM26.3798 24C23.5593 24 21 26.0584 21 28.8298H23C23 27.4066 24.4034 26 26.3798 26V24ZM21 28.8298V34.6657H23V28.8298H21ZM21 34.6657V81.1702H23V34.6657H21ZM21 81.1702C21 83.9416 23.5593 86 26.3798 86V84C24.4034 84 23 82.5934 23 81.1702H21ZM26.3798 86H81.9616V84H26.3798V86Z" fill="#6F7590" mask="url(#path-6-inside-1_373_64890)"/>
</g>
<path d="M107.258 34H82.6452H82.4194H82.1936H56.9032H56.6774H56.4516H32.7419C30.0323 34 28 35.7872 28 37.9319V72.0681C28 74.2128 30.2581 76 32.7419 76H107.258C109.968 76 112 74.2128 112 72.0681V37.9319C112 35.7872 109.742 34 107.258 34ZM58.2581 64.2043V56.5192H81.0645V64.2043H58.2581ZM81.0645 66.5277V73.4979H58.2581V66.5277H81.0645ZM81.0645 46.6894V54.3745H58.2581V46.6894H81.0645ZM58.2581 44.1872V36.5021H81.0645V44.366H58.2581V44.1872ZM109.065 54.1957H84V46.5106H109.065V54.1957ZM55.0968 54.1957H30.7097V46.5106H55.0968V54.1957ZM30.7097 56.5192H55.0968V64.2043H30.7097V56.5192ZM84 56.5192H109.065V64.2043H84V56.5192ZM109.065 37.9319V44.1872H84V36.5021H107.258C108.161 36.5021 109.065 37.0383 109.065 37.9319ZM32.7419 36.5021H55.3226V44.366H30.7097V38.1106C30.7097 37.0383 31.6129 36.5021 32.7419 36.5021ZM30.7097 72.0681V66.5277H55.0968V73.4979H32.5161C31.6129 73.6766 30.7097 72.9617 30.7097 72.0681ZM107.258 73.6766H84V66.7064H109.065V72.2468C109.065 72.9617 108.161 73.6766 107.258 73.6766Z" fill="#E2EBFF"/>
<path d="M114.295 17.0471C113.575 17.0471 113 16.4717 113 15.7524V1.29472C113 0.575429 113.575 0 114.295 0C115.014 0 115.589 0.575429 115.589 1.29472V15.7524C115.589 16.4717 115.014 17.0471 114.295 17.0471Z" fill="#9FA8BA"/>
<path d="M124.796 28.1241C124.796 27.4048 125.372 26.8293 126.091 26.8293H140.549C141.268 26.8293 141.843 27.4048 141.843 28.1241C141.843 28.8433 141.268 29.4188 140.549 29.4188H126.091C125.372 29.4188 124.796 28.8433 124.796 28.1241Z" fill="#9FA8BA"/>
<path d="M123.645 18.7734C123.142 18.2699 123.142 17.4068 123.645 16.9033L133.931 6.68939C134.435 6.18589 135.298 6.18589 135.801 6.68939C136.305 7.19289 136.305 8.05604 135.801 8.55954L125.588 18.7734C125.012 19.2769 124.149 19.2769 123.645 18.7734Z" fill="#9FA8BA"/>
<defs>
<filter id="filter0_d_373_64890" x="0" y="14" width="139" height="104" filterUnits="userSpaceOnUse" color-interpolation-filters="sRGB">
<feFlood flood-opacity="0" result="BackgroundImageFix"/>
<feColorMatrix in="SourceAlpha" type="matrix" values="0 0 0 0 0 0 0 0 0 0 0 0 0 0 0 0 0 0 127 0" result="hardAlpha"/>
<feOffset dy="11"/>
<feGaussianBlur stdDeviation="11"/>
<feColorMatrix type="matrix" values="0 0 0 0 0.397708 0 0 0 0 0.47749 0 0 0 0 0.575 0 0 0 0.18 0"/>
<feBlend mode="normal" in2="BackgroundImageFix" result="effect1_dropShadow_373_64890"/>
<feBlend mode="normal" in="SourceGraphic" in2="effect1_dropShadow_373_64890" result="shape"/>
</filter>
</defs>
</svg>
