<svg viewBox="0 0 121 110" fill="none" xmlns="http://www.w3.org/2000/svg">
<path d="M59.4143 110C86.1167 110 107.763 88.3955 107.763 61.7449C107.763 35.0944 86.1167 13.4899 59.4143 13.4899C32.712 13.4899 11.0654 35.0944 11.0654 61.7449C11.0654 88.3955 32.712 110 59.4143 110Z" fill="#E2EBFF"/>
<path d="M32.0782 40.87H85.4857C87.5286 40.87 89.2797 42.5206 89.2797 44.6566V78.2507C89.2797 80.2896 87.6259 82.0373 85.4857 82.0373H32.0782C30.0352 82.0373 28.2842 80.3867 28.2842 78.2507V44.6566C28.2842 42.6177 30.0352 40.87 32.0782 40.87Z" fill="#C0D6FF"/>
<path d="M82.47 40.87H85.4857C87.5286 40.87 89.2797 42.5206 89.2797 44.6566V78.2507C89.2797 80.2896 87.6259 82.0373 85.4857 82.0373H32.0782C30.0352 82.0373 28.2842 80.3867 28.2842 78.2507V44.6566C28.2842 42.6177 29.938 40.87 32.0782 40.87H73.5201" stroke="#182052" stroke-miterlimit="10" stroke-linecap="round" stroke-linejoin="round"/>
<path d="M115.678 49.689C117.185 48.3144 117.29 45.9806 115.913 44.4764C114.536 42.9722 112.197 42.8672 110.69 44.2418C109.183 45.6164 109.078 47.9501 110.455 49.4543C111.833 50.9585 114.171 51.0636 115.678 49.689Z" fill="#E2EBFF"/>
<path d="M115.951 33.2853C116.585 32.7065 116.63 31.7239 116.05 31.0906C115.47 30.4572 114.485 30.413 113.851 30.9918C113.216 31.5705 113.172 32.5532 113.752 33.1865C114.332 33.8199 115.316 33.8641 115.951 33.2853Z" fill="#E2EBFF"/>
<path d="M76.6824 10.5819C77.1187 10.184 77.1492 9.50839 76.7505 9.07297C76.3518 8.63754 75.6749 8.60712 75.2387 9.00504C74.8024 9.40295 74.7719 10.0785 75.1706 10.5139C75.5693 10.9494 76.2462 10.9798 76.6824 10.5819Z" fill="#E2EBFF"/>
<path d="M108.655 23.1804L95.3275 46.7737C94.8411 47.5504 93.8682 47.8418 93.09 47.3563L70.3262 34.1516C69.5479 33.6662 69.256 32.6954 69.7424 31.9187L87.2531 1.81996C87.7395 1.04322 88.7124 0.75185 89.4906 1.23731L106.028 10.8494L108.655 23.1804Z" fill="white"/>
<path d="M85.9884 3.76182L87.1559 1.81996C87.6424 1.04322 88.615 0.75185 89.3932 1.23731L105.931 10.8494L108.655 23.2775L95.3275 46.8709C94.8411 47.6476 93.8682 47.939 93.09 47.4535L70.3262 34.2488C69.5479 33.7634 69.256 32.7926 69.7424 32.0159L82.4864 9.97565" stroke="#182052" stroke-miterlimit="10" stroke-linecap="round" stroke-linejoin="round"/>
<path d="M103.694 14.5394L102.137 17.1606C101.651 18.1316 101.943 19.1998 102.818 19.7823L108.558 23.0834" stroke="#182052" stroke-miterlimit="10" stroke-linecap="round" stroke-linejoin="round"/>
<path d="M90.2694 16.9667C90.6585 16.8696 91.0475 16.8695 91.3393 16.8695C91.7285 16.8695 92.1178 16.8695 92.5069 16.8695C92.896 16.9666 93.3823 17.0635 93.7714 17.1606C94.2578 17.3548 94.647 17.5491 95.0361 17.7432C95.6198 18.0345 96.1062 18.4231 96.4953 18.9085C96.8844 19.2969 97.1764 19.7824 97.371 20.3649C97.5656 20.8504 97.5655 21.4326 97.5655 21.918C97.4682 22.5006 97.2736 23.0833 96.9817 23.5688C96.6899 24.0543 96.398 24.4425 96.0089 24.8308C95.6198 25.1221 95.328 25.3165 94.8416 25.5107C94.4524 25.7048 94.0634 25.8017 93.6742 25.8017L92.6041 25.8989C92.3122 25.8989 92.0204 25.9962 91.6312 26.0933C91.3394 26.1904 91.1449 26.2874 90.9503 26.4816L89.8801 27.8408L88.1292 26.8699L88.9073 25.1224C89.0046 24.8311 89.2965 24.5395 89.4911 24.3454C89.7829 24.1512 90.0747 24.0542 90.3665 23.9571C90.7557 23.86 91.0476 23.8603 91.4367 23.7632C91.8258 23.7632 92.2149 23.6659 92.6041 23.5688C92.9932 23.4717 93.2851 23.3747 93.6742 23.1805C94.0634 22.9863 94.258 22.6952 94.4525 22.3068C94.5498 22.1126 94.6469 21.821 94.7442 21.5298C94.7442 21.2385 94.7443 21.0446 94.6471 20.8504C94.5498 20.5591 94.4524 20.3647 94.2578 20.1706C94.0632 19.9764 93.8687 19.7821 93.5769 19.5879C93.285 19.3937 92.896 19.1995 92.5069 19.1024C92.2151 19.0054 91.9231 19.0053 91.6312 19.0053C91.3394 19.0053 91.1449 19.0053 90.9503 19.0053C90.853 19.0053 90.6586 19.0056 90.5613 18.9085C90.3667 18.8115 90.172 18.5201 90.172 18.3259L90.2694 16.9667ZM85.1134 30.1709C85.2107 29.9767 85.4053 29.7829 85.5998 29.5887C85.7944 29.4916 85.9891 29.2972 86.1836 29.2972C86.67 29.2001 87.1563 29.2003 87.5455 29.4916C87.74 29.5886 87.9347 29.7828 88.1292 29.977C88.2265 30.1712 88.3236 30.3655 88.4209 30.5597C88.7127 31.5306 88.1292 32.5013 87.1564 32.7926C86.67 32.8897 86.1835 32.7924 85.7943 32.5982C85.5998 32.5011 85.4054 32.307 85.2108 32.1128C85.1135 31.9186 84.9189 31.7248 84.9189 31.5306C84.8216 31.3364 84.8216 31.0449 84.9189 30.8508C84.9189 30.5595 85.0161 30.3651 85.1134 30.1709Z" fill="#C0D6FF"/>
<path d="M23.1447 12.8886L38.4178 28.7146C38.9042 29.2971 38.9041 30.0739 38.3204 30.6564L22.7554 45.3175C22.1717 45.803 21.3935 45.8029 20.8098 45.2203L1.45084 24.7341C0.964436 24.1516 0.964531 23.3748 1.54822 22.7923L12.8327 12.2088L23.1447 12.8886Z" fill="white"/>
<path d="M27.5223 17.4522L38.3204 28.7146C38.8068 29.2971 38.807 30.0739 38.2233 30.6564L22.6582 45.3175C22.0745 45.803 21.2963 45.8029 20.7126 45.2203L1.35343 24.7341C0.867024 24.1516 0.867119 23.3748 1.45081 22.7923L12.7356 12.2088L23.0473 12.9858L23.9229 13.8596" stroke="#182052" stroke-miterlimit="10" stroke-linecap="round" stroke-linejoin="round"/>
<path d="M15.5342 15L17.0157 16.4813C17.5993 17.0638 18.5722 17.0638 19.2532 16.4813L22.9999 13" stroke="#182052" stroke-miterlimit="10" stroke-linecap="round" stroke-linejoin="round"/>
<path d="M14 25.705C14 25.4138 14.0975 25.1221 14.1948 24.8308C14.292 24.5396 14.3891 24.2484 14.4864 23.9571C14.5837 23.6658 14.7783 23.3746 14.9728 23.0834C15.1674 22.7921 15.4593 22.5009 15.7511 22.2096C16.1402 21.8212 16.5294 21.5301 17.0158 21.3359C17.4049 21.1417 17.8914 21.0443 18.2805 21.0443C18.6697 21.0443 19.1561 21.1416 19.5452 21.2387C19.9344 21.4329 20.3234 21.724 20.7126 22.0152C21.0044 22.3065 21.2962 22.695 21.3935 23.0834C21.4908 23.3746 21.5881 23.7631 21.6854 24.1515C21.6854 24.4427 21.6854 24.8311 21.6854 25.1224C21.5881 25.4137 21.5881 25.7049 21.4909 25.9961C21.4909 26.2874 21.3935 26.4814 21.3935 26.7727C21.3935 26.9669 21.3934 27.1611 21.588 27.3553L22.3663 28.5206L21.199 29.5888L20.0316 28.5206C19.8371 28.3265 19.6425 28.1321 19.5452 27.8408C19.448 27.5495 19.4479 27.3555 19.4479 27.0642C19.4479 26.773 19.5452 26.4818 19.5452 26.1905C19.6425 25.8992 19.6424 25.6076 19.6424 25.3163C19.6424 25.025 19.6425 24.7338 19.5452 24.4426C19.448 24.1513 19.2534 23.8601 19.0588 23.5688C18.9615 23.3746 18.767 23.2776 18.5724 23.1805C18.3779 23.0834 18.1832 23.0834 17.9886 23.0834C17.7941 23.0834 17.5994 23.1806 17.4049 23.2777C17.2103 23.3748 17.0159 23.4718 16.8213 23.666C16.6267 23.8602 16.4321 24.1512 16.2375 24.3454C16.1402 24.5396 16.0429 24.7339 15.9456 25.0252C15.8483 25.2194 15.8485 25.4136 15.8485 25.5107C15.8485 25.6078 15.7513 25.7047 15.654 25.8018C15.5567 25.9959 15.2648 25.996 15.0702 25.8989L14 25.705ZM23.1446 32.6954C23.0473 32.5983 22.95 32.4042 22.8527 32.21C22.7554 32.0158 22.7553 31.8215 22.7553 31.6273C22.7553 31.2389 22.9499 30.851 23.2417 30.5597C23.339 30.4626 23.5336 30.3652 23.7282 30.2681C23.9227 30.171 24.1174 30.1709 24.3119 30.1709C24.8956 30.1709 25.4792 30.5593 25.6738 31.1419C25.7711 31.336 25.7712 31.5303 25.7712 31.7245C25.7712 31.9187 25.6738 32.113 25.6738 32.3072C25.5765 32.5013 25.4793 32.5984 25.2848 32.7926C25.1875 32.8897 24.9929 33.0837 24.7983 33.0837C24.4092 33.1808 24.02 33.1808 23.7282 33.0837C23.4363 32.9866 23.2419 32.8896 23.1446 32.6954Z" fill="#C0D6FF"/>
<path d="M62.8356 37.8416L56.9014 58.9104C56.7068 59.5901 55.9286 60.0754 55.2476 59.7842L34.7211 53.7647C34.0402 53.5705 33.5538 52.7936 33.8457 52.1139L41.8227 25.0252C42.0173 24.3455 42.7955 23.8602 43.4765 24.1514L58.3606 28.5206L62.8356 37.8416Z" fill="white"/>
<path d="M39.7795 32.1131L41.8225 25.2199C42.0171 24.5402 42.7953 24.0544 43.4762 24.3457L58.3603 28.7148L62.9325 37.9386L56.9985 59.0079C56.8039 59.6876 56.0255 60.1729 55.3445 59.8817L34.8183 53.8622C34.1373 53.668 33.6507 52.8911 33.9426 52.2114L37.8339 38.9096" stroke="#182052" stroke-miterlimit="10" stroke-linecap="round" stroke-linejoin="round"/>
<path d="M57.2902 32.1128L56.6093 34.4434C56.4147 35.2201 56.9012 36.094 57.6795 36.3852L62.8355 37.9384" stroke="#182052" stroke-miterlimit="10" stroke-linecap="round" stroke-linejoin="round"/>
<path d="M47.1733 36.482C47.4651 36.3849 47.7569 36.288 48.0487 36.1909C48.3406 36.0938 48.6324 35.9965 49.0216 35.9965C49.4107 35.9965 49.7026 35.9965 50.0917 35.9965C50.4809 35.9965 50.8699 36.0938 51.2591 36.1909C51.7455 36.288 52.232 36.5795 52.6212 36.8707C53.0103 37.162 53.3021 37.4533 53.594 37.8417C53.7885 38.23 53.9831 38.6181 54.0804 39.0065C54.1777 39.492 54.0803 39.9773 53.983 40.3657C53.8857 40.7541 53.6911 41.1426 53.3992 41.531C53.2047 41.8223 52.913 42.1134 52.6212 42.3075C52.3293 42.5017 52.0373 42.6959 51.7455 42.793L50.87 43.0846C50.6755 43.1817 50.3837 43.2786 50.1891 43.3757C49.9946 43.4728 49.7999 43.6669 49.7999 43.8611L49.2163 45.1236L47.6597 44.6381L47.9516 43.0846C47.9516 42.7933 48.1461 42.5989 48.3406 42.4047C48.5352 42.2105 48.7297 42.0164 49.0216 41.9193C49.3134 41.8222 49.6053 41.7253 49.7999 41.6282C50.0917 41.5311 50.3837 41.4341 50.6755 41.2399C50.9674 41.1428 51.1617 40.9486 51.4536 40.7544C51.6482 40.5603 51.8427 40.2686 51.94 39.8802C52.0373 39.686 52.0374 39.4922 52.0374 39.2981C52.0374 39.1039 51.9401 38.9096 51.8429 38.7154C51.7456 38.5212 51.551 38.4241 51.3565 38.2299C51.1619 38.1328 50.9674 38.0355 50.6755 37.9384C50.3837 37.8413 50.0918 37.8417 49.7027 37.8417C49.5082 37.8417 49.2161 37.8413 49.0216 37.9384C48.827 37.9384 48.6324 38.0356 48.5351 38.0356C48.4379 38.0356 48.3407 38.1327 48.1461 38.0356C47.9516 38.0356 47.7571 37.8415 47.7571 37.6473L47.1733 36.482ZM45.7141 47.9392C45.8114 47.745 45.8114 47.5508 46.006 47.4537C46.1032 47.2596 46.2977 47.1626 46.395 47.0655C46.7841 46.8713 47.1733 46.8712 47.4652 46.9683C47.6598 47.0654 47.8543 47.1623 47.9516 47.2594C48.0489 47.3565 48.2433 47.5505 48.3406 47.6476C48.7298 48.3273 48.4381 49.2011 47.7571 49.5895C47.368 49.7837 46.9787 49.7838 46.6869 49.6867C46.4923 49.5896 46.2978 49.5898 46.2005 49.3956C46.0059 49.2985 45.9087 49.1044 45.8115 49.0073C45.7142 48.8131 45.714 48.716 45.6167 48.5219C45.6167 48.3277 45.6168 48.1334 45.7141 47.9392Z" fill="#C0D6FF"/>
<path d="M111.062 73.8978L91.745 84.298C91.1197 84.6313 90.2297 84.4109 89.9674 83.7201L80.07 64.8169C79.7377 64.1936 79.9604 63.3049 80.6532 63.0414L105.729 49.9189C106.355 49.5857 107.245 49.8057 107.507 50.4965L114.681 64.2064L111.062 73.8978Z" fill="white"/>
<path d="M111.062 73.8978L91.745 84.298C91.1197 84.6313 90.2297 84.4109 89.9674 83.7201L80.07 64.8169C79.7377 64.1936 79.9604 63.3049 80.6532 63.0414L105.729 49.9189C106.355 49.5857 107.245 49.8057 107.507 50.4965L114.681 64.2064L111.062 73.8978Z" stroke="#182052" stroke-miterlimit="10" stroke-linecap="round" stroke-linejoin="round"/>
<path d="M111.217 65.9469L109.203 66.9443C108.507 67.3452 108.214 68.3017 108.544 69.0623L111.001 73.84" stroke="#182052" stroke-miterlimit="10" stroke-linecap="round" stroke-linejoin="round"/>
<path d="M101.111 61.6553C101.383 61.7969 101.656 61.9387 101.928 62.0804C102.2 62.2221 102.473 62.3636 102.743 62.6426C103.013 62.9215 103.215 63.1308 103.485 63.4097C103.755 63.6887 103.955 64.0352 104.155 64.3817C104.422 64.7979 104.55 65.3489 104.609 65.8304C104.669 66.312 104.661 66.7237 104.584 67.203C104.439 67.6126 104.293 68.0223 104.081 68.3622C103.798 68.7695 103.381 69.0374 103.033 69.2378C102.685 69.4382 102.27 69.5689 101.788 69.6297C101.443 69.6928 101.03 69.686 100.688 69.6119C100.345 69.5377 100.003 69.4636 99.7303 69.322L98.9129 68.8967C98.708 68.8247 98.4353 68.6833 98.2303 68.6113C98.0254 68.5394 97.7504 68.535 97.6104 68.6701L96.2952 69.1293L95.5658 67.676L96.8887 66.8046C97.0988 66.602 97.3737 66.6067 97.6487 66.6111C97.9237 66.6156 98.1987 66.62 98.4711 66.7616C98.7436 66.9033 99.0163 67.0448 99.2212 67.1168C99.4937 67.2585 99.766 67.4002 100.109 67.4743C100.381 67.616 100.656 67.6205 100.998 67.6946C101.273 67.699 101.618 67.636 101.966 67.4356C102.314 67.2353 102.664 66.8976 102.672 66.4858C102.744 66.281 102.679 66.074 102.684 65.7995C102.619 65.5925 102.554 65.3856 102.422 65.1089C102.29 64.8322 102.087 64.6229 101.817 64.344C101.682 64.2045 101.48 63.9952 101.275 63.9233C101.14 63.7838 100.935 63.7119 100.867 63.6422C100.8 63.5724 100.662 63.5703 100.598 63.3633C100.463 63.2238 100.468 62.9494 100.608 62.8144L101.111 61.6553ZM91.9052 68.5097C92.1127 68.4444 92.2526 68.3092 92.4576 68.3812C92.6651 68.3159 92.8705 68.3877 93.008 68.3899C93.418 68.5338 93.6875 68.8129 93.8199 69.0896C93.8848 69.2966 93.9499 69.5035 93.9473 69.6407C93.9448 69.778 93.9398 70.0526 93.9373 70.1898C93.8621 70.5319 93.5118 70.8695 93.2342 71.0023C93.0267 71.0676 92.8193 71.1331 92.6818 71.1308C92.5443 71.1286 92.2693 71.124 92.1318 71.1218C91.7218 70.9779 91.4519 70.6992 91.3195 70.4224C91.2546 70.2154 91.1195 70.0761 91.1921 69.8713C91.1272 69.6643 91.1999 69.4591 91.2025 69.3219C91.2751 69.1171 91.3451 69.0496 91.4177 68.8448C91.5578 68.7098 91.7651 68.6448 91.9052 68.5097Z" fill="#C0D6FF"/>
<path d="M62.5434 11.6266L61.9597 11.5294C61.6678 11.5294 61.4734 11.3352 61.3761 11.044C61.2788 10.8498 61.2786 10.6556 61.1814 10.5585C61.0841 10.3643 61.0842 10.0728 61.2787 9.87866L61.5706 9.3932C61.7652 9.10192 61.7651 8.71364 61.4733 8.51946L60.5004 7.54853C60.2086 7.25725 59.8196 7.25716 59.625 7.45134L59.1386 7.74291C58.944 7.93709 58.6521 7.93671 58.3603 7.83962C58.1657 7.74253 57.9712 7.64572 57.8739 7.64572C57.582 7.54863 57.4848 7.35435 57.3875 7.06307L57.2901 6.48042C57.1928 6.09205 56.901 5.89777 56.6092 5.89777H55.2473C54.8582 5.89777 54.5664 6.18914 54.5664 6.48042L54.469 7.06307C54.469 7.35435 54.2745 7.54863 53.9826 7.64572C53.7881 7.74281 53.5935 7.74253 53.4962 7.83962C53.3017 7.93671 53.0099 7.93709 52.8153 7.74291L52.3289 7.45134C52.037 7.25716 51.6478 7.25725 51.4532 7.54853L50.4804 8.51946C50.1886 8.81074 50.1887 9.19901 50.3833 9.3932L50.6752 9.87866C50.8697 10.0728 50.8696 10.3643 50.7723 10.5585C50.675 10.7527 50.5778 10.9469 50.5778 11.044C50.4805 11.3352 50.2858 11.4323 49.994 11.5294L49.4104 11.6266C49.0213 11.7237 48.8267 12.0147 48.8267 12.306V13.6652C48.8267 14.0536 49.1186 14.345 49.4104 14.345L49.994 14.4422C50.2858 14.4422 50.4805 14.6364 50.5778 14.9277C50.6751 15.1219 50.675 15.316 50.7723 15.4131C50.8696 15.6073 50.8697 15.8984 50.6752 16.1897L50.3833 16.6751C50.1887 16.9664 50.1886 17.3548 50.4804 17.6461L51.4532 18.617C51.7451 18.9083 52.1343 18.9084 52.3289 18.7142L52.8153 18.4231C53.0099 18.2289 53.3017 18.2288 53.4962 18.3259C53.6908 18.423 53.8853 18.5198 53.9826 18.5198C54.2745 18.6169 54.3718 18.8112 54.469 19.1025L54.5664 19.6851C54.6637 20.0735 54.9555 20.2678 55.2473 20.2678H56.6092C56.9983 20.2678 57.2901 19.9764 57.2901 19.6851L57.3875 19.1025C57.3875 18.8112 57.582 18.6169 57.8739 18.5198C58.0685 18.4227 58.263 18.423 58.3603 18.3259C58.5549 18.2288 58.8468 18.2289 59.1386 18.4231L59.625 18.7142C59.9168 18.9084 60.3059 18.9083 60.5004 18.617L61.4733 17.6461C61.7651 17.3548 61.7652 16.9664 61.5706 16.6751L61.2787 16.1897C61.0842 15.9955 61.0841 15.7044 61.1814 15.4131C61.2786 15.2189 61.3761 15.0248 61.3761 14.9277C61.4734 14.6364 61.6678 14.5393 61.9597 14.4422L62.5434 14.345C62.9326 14.2479 63.127 13.9565 63.127 13.6652V12.306C63.127 11.9176 62.9326 11.6266 62.5434 11.6266ZM56.1228 15.3159C54.7608 15.3159 53.6907 14.2479 53.6907 12.8886C53.6907 11.5293 54.7608 10.4613 56.1228 10.4613C57.4847 10.4613 58.5548 11.5293 58.5548 12.8886C58.4575 14.2479 57.3874 15.3159 56.1228 15.3159Z" fill="url(#paint0_linear_166:63017)"/>
<path d="M14.7783 64.1534L14.3892 64.0566C14.1947 64.0566 14.0972 63.8622 14 63.7651C14 63.668 13.9027 63.4739 13.8055 63.3768C13.7082 63.1826 13.7083 62.9884 13.9028 62.8913L14.0973 62.6002C14.1946 62.4061 14.1946 62.1146 14.0973 61.9204L13.4164 61.2406C13.2219 61.0464 12.9301 61.0464 12.7355 61.2406L12.4436 61.4349C12.249 61.532 12.0545 61.532 11.9572 61.4349C11.8599 61.3379 11.6652 61.3377 11.5679 61.2406C11.3734 61.1435 11.2763 61.0465 11.2763 60.8523L11.1789 60.464C11.1789 60.2698 10.9843 60.0757 10.6925 60.0757H9.81705C9.52521 60.0757 9.33064 60.2698 9.33064 60.464L9.23327 60.8523C9.23327 61.0465 9.03866 61.1435 8.94137 61.2406C8.84409 61.2406 8.64962 61.3379 8.55234 61.4349C8.35778 61.532 8.16322 61.532 8.06594 61.4349L7.77404 61.2406C7.57948 61.0464 7.28768 61.1435 7.09312 61.2406L6.4122 61.9204C6.21763 62.1146 6.21763 62.4061 6.4122 62.6002L6.60671 62.8913C6.70399 63.0855 6.70399 63.1826 6.60671 63.3768C6.50943 63.4739 6.50948 63.668 6.4122 63.7651C6.31492 63.9593 6.21749 64.0566 6.02293 64.0566L5.6339 64.1534C5.43933 64.1534 5.24463 64.3475 5.24463 64.6388V65.513C5.24463 65.8043 5.43933 65.9985 5.6339 65.9985L6.02293 66.0952C6.21749 66.0952 6.31492 66.2897 6.4122 66.3868C6.4122 66.4839 6.50943 66.678 6.60671 66.775C6.70399 66.9692 6.70399 67.1634 6.60671 67.2605L6.4122 67.5516C6.31492 67.7458 6.31492 68.0372 6.4122 68.2314L7.09312 68.9113C7.28768 69.1055 7.57948 69.1055 7.77404 68.9113L8.06594 68.7169C8.16322 68.6198 8.35778 68.6197 8.55234 68.6197C8.64962 68.7168 8.84409 68.717 8.94137 68.8141C9.13594 68.9112 9.23327 69.0082 9.23327 69.2024L9.33064 69.5906C9.33064 69.7848 9.52521 69.9789 9.81705 69.9789H10.6925C10.9843 69.9789 11.1789 69.7848 11.1789 69.5906L11.2763 69.2024C11.2763 69.0082 11.4706 68.9112 11.5679 68.8141C11.6652 68.8141 11.8599 68.7168 11.9572 68.6197C12.1518 68.5226 12.3463 68.5227 12.4436 68.7169L12.7355 68.9113C12.9301 69.0084 13.2219 69.0084 13.4164 68.9113L14.0973 68.2314C14.2919 68.0372 14.2919 67.7458 14.0973 67.5516L13.9028 67.2605C13.8055 67.0663 13.8055 66.8721 13.8055 66.775C13.9027 66.678 13.9027 66.4839 14 66.3868C14.0972 66.1926 14.1947 66.0952 14.3892 66.0952L14.7783 65.9985C14.9728 65.9985 15.1675 65.8043 15.1675 65.513V64.6388C15.2648 64.3475 15.0701 64.1534 14.7783 64.1534ZM10.3035 66.775C9.42792 66.775 8.64948 65.9981 8.64948 65.1243C8.64948 64.2504 9.42792 63.474 10.3035 63.474C11.179 63.474 11.9572 64.2504 11.9572 65.1243C11.9572 65.9981 11.2763 66.775 10.3035 66.775Z" fill="url(#paint1_linear_166:63017)"/>
<path d="M90.2691 62.5031V79.106C90.2691 81.242 88.518 82.9897 86.3778 82.9897H31.5109C29.3707 82.9897 27.6196 81.242 27.6196 79.106V61.1439" stroke="#84A2FF" stroke-width="3" stroke-linecap="round" stroke-linejoin="round"/>
<path d="M93.3816 48.1331H70.9095C68.7693 48.1331 66.6293 48.91 64.9755 50.2693L59.0412 55.1239C57.3874 56.4832 55.2474 57.2601 53.1072 57.2601H27.5221C24.9928 57.2601 22.8525 59.2989 22.8525 61.9204C22.8525 62.1146 22.8526 62.4061 22.9499 62.6002L27.6192 87.4556C28.0084 89.7858 29.954 91.5337 32.2888 91.5337H86.7665C89.1012 91.5337 91.0469 89.883 91.436 87.5528L97.9538 53.5703C98.3429 51.0459 96.6892 48.6186 94.0626 48.2302C93.868 48.1332 93.5762 48.1331 93.3816 48.1331Z" fill="white"/>
<path d="M30.1487 57.2601H27.5221C24.9928 57.2601 22.8525 59.2989 22.8525 61.9204C22.8525 62.1146 22.8526 62.4061 22.9499 62.6002L27.6192 87.4556C28.0084 89.7858 29.954 91.5337 32.2888 91.5337H86.7665C89.1012 91.5337 91.0469 89.883 91.436 87.5528L97.9538 53.5703C98.343 51.0459 96.6892 48.6186 94.0626 48.2302C93.7707 48.2302 93.5761 48.1331 93.2843 48.1331H70.8124C68.6722 48.1331 66.5319 48.91 64.8781 50.2693L58.9441 55.1239C57.2903 56.4832 55.15 57.2601 53.0098 57.2601H37.8338" stroke="#182052" stroke-miterlimit="10" stroke-linecap="round" stroke-linejoin="round"/>
<path d="M49.7997 73.96C51.1429 73.96 52.2318 72.8733 52.2318 71.5327C52.2318 70.1922 51.1429 69.1054 49.7997 69.1054C48.4565 69.1054 47.3677 70.1922 47.3677 71.5327C47.3677 72.8733 48.4565 73.96 49.7997 73.96Z" fill="#182052"/>
<path d="M68.867 73.8626C70.2102 73.8626 71.299 72.7759 71.299 71.4353C71.299 70.0947 70.2102 69.008 68.867 69.008C67.5238 69.008 66.4349 70.0947 66.4349 71.4353C66.4349 72.7759 67.5238 73.8626 68.867 73.8626Z" fill="#182052"/>
<path d="M64.5863 77.9406H63.3219C62.2518 75.7075 59.5278 74.8336 57.3876 75.9988C56.5121 76.3871 55.8311 77.1639 55.442 77.9406H54.1772C55.2473 75.0278 58.5551 73.5715 61.3762 74.6396C62.8354 75.2221 64.0026 76.3871 64.5863 77.9406Z" fill="#182052"/>
<path d="M103.707 88.5338C103.415 89.796 103.026 90.9611 102.54 92.1262C102.443 92.4175 102.345 92.6116 102.151 92.9029C100.497 96.107 97.8704 98.7285 94.6601 100.282C94.271 100.476 93.8819 100.67 93.59 100.767C90.477 102.03 86.9749 102.515 83.4727 101.738C74.231 99.7965 68.2968 90.7669 70.2425 81.5431C72.1881 72.3193 81.2353 66.3966 90.477 68.3385C93.7846 69.0181 96.703 70.6687 99.1351 72.9989C103.124 76.9797 104.875 82.9024 103.707 88.5338Z" fill="white"/>
<path d="M103.221 89.5046C102.929 90.7668 102.54 91.932 102.054 93.0971C101.956 93.3883 101.859 93.5825 101.664 93.8738C100.011 97.0779 97.3841 99.6994 94.1738 101.253C93.7847 101.447 93.3955 101.641 93.1037 101.738C89.9907 103.001 86.4885 103.486 82.9864 102.709C73.7447 100.767 67.8105 91.7378 69.7561 82.514C71.7018 73.2902 80.7489 67.3675 89.9907 69.3094C93.2983 69.989 96.2167 71.6396 98.6487 73.9698C102.735 77.9506 104.486 83.8733 103.221 89.5046Z" fill="url(#paint2_linear_166:63017)"/>
<path d="M83.9594 67.6589C85.9051 67.3676 88.0453 67.4647 90.0882 67.853C93.493 68.5327 96.606 70.2804 99.0381 72.7077C103.318 76.9798 105.167 82.9995 103.902 88.9222C103.61 90.2815 103.221 91.5437 102.638 92.7088C102.54 93.0001 102.443 93.1942 102.248 93.4855C100.497 96.8838 97.7734 99.5053 94.4659 101.253C94.0767 101.447 93.6876 101.641 93.2985 101.835C90.0882 103.195 86.4888 103.583 82.7921 102.806C73.1612 100.767 66.9352 91.3495 68.9781 81.7373C69.8536 77.4652 72.1884 73.9699 75.3014 71.4455" stroke="#182052" stroke-miterlimit="10" stroke-linecap="round" stroke-linejoin="round"/>
<path d="M77.3442 69.9897C77.5388 69.8924 77.6361 69.7951 77.8306 69.6978" stroke="#182052" stroke-miterlimit="10" stroke-linecap="round" stroke-linejoin="round"/>
<path d="M93.5764 91.4363L91.0472 88.9118C92.9928 85.999 92.2145 82.1153 89.2961 80.1735C86.3776 78.2316 82.4864 79.0087 80.5407 81.9214C78.5951 84.8342 79.3734 88.7179 82.2919 90.6598C84.4321 92.0191 87.1558 92.0191 89.1987 90.6598L91.7281 93.1843C92.2145 93.6697 92.9928 93.6697 93.4792 93.1843C93.9656 92.6988 94.0628 91.9218 93.5764 91.4363ZM83.0699 88.1353C81.6107 86.6789 81.6107 84.2516 83.0699 82.7952C84.5291 81.3388 86.9612 81.3388 88.4204 82.7952C89.8796 84.2516 89.8796 86.6789 88.4204 88.1353C86.9612 89.5917 84.5291 89.5917 83.0699 88.1353Z" fill="white"/>
<defs>
<linearGradient id="paint0_linear_166:63017" x1="48.8463" y1="12.8924" x2="62.719" y2="12.8924" gradientUnits="userSpaceOnUse">
<stop stop-color="#FF66A9"/>
<stop offset="1" stop-color="#F53689"/>
</linearGradient>
<linearGradient id="paint1_linear_166:63017" x1="5.25831" y1="64.8961" x2="14.909" y2="64.8961" gradientUnits="userSpaceOnUse">
<stop stop-color="#FF66A9"/>
<stop offset="1" stop-color="#F53689"/>
</linearGradient>
<linearGradient id="paint2_linear_166:63017" x1="71.3906" y1="77.8819" x2="101.665" y2="94.982" gradientUnits="userSpaceOnUse">
<stop stop-color="#83A6FF"/>
<stop offset="0.994956" stop-color="#5277D7"/>
</linearGradient>
</defs>
</svg>
