<svg  viewBox="0 0 272 183" fill="none" xmlns="http://www.w3.org/2000/svg">
<path d="M133.009 182.472C183.297 182.472 224.066 141.704 224.066 91.2362C224.066 40.7689 183.117 0 133.009 0C82.7212 0 41.9523 40.7689 41.9523 91.2362C41.9523 141.704 82.7212 182.472 133.009 182.472Z" fill="#F1F3F9"/>
<path d="M20.7453 25.5044H20.4023C19.7163 25.5044 19.0302 26.0215 19.0302 26.8834C19.0302 27.7453 19.5447 28.2625 20.4023 28.2625H20.7453C21.4313 28.2625 22.1174 27.7453 22.1174 26.8834C22.1174 26.0215 21.4313 25.5044 20.7453 25.5044Z" fill="url(#paint0_linear_231:55092)"/>
<path d="M15.2575 25.5044H14.9145C14.2284 25.5044 13.5424 26.0215 13.5424 26.8834C13.5424 27.7453 14.0569 28.2625 14.9145 28.2625H15.2575C15.9435 28.2625 16.6296 27.7453 16.6296 26.8834C16.6296 26.0215 15.9435 25.5044 15.2575 25.5044Z" fill="url(#paint1_linear_231:55092)"/>
<path d="M26.2339 25.676H25.8909C25.2049 25.676 24.5188 26.1932 24.5188 26.8827C24.5188 27.5722 25.0334 28.2617 25.7194 28.2617H26.0624C26.0624 28.2617 26.0624 28.2617 26.2339 28.2617C26.92 28.2617 27.4345 27.7446 27.4345 27.0551C27.4345 26.3655 26.92 25.676 26.2339 25.676Z" fill="url(#paint2_linear_231:55092)"/>
<path d="M38.2394 42.3976C38.2394 41.7081 37.7248 41.0186 36.8673 41.0186C36.0097 41.0186 35.4952 41.5357 35.4952 42.3976V42.7424C35.4952 43.4319 36.0097 44.1214 36.8673 44.1214C37.7248 44.1214 38.2394 43.6043 38.2394 42.7424V42.3976Z" fill="url(#paint3_linear_231:55092)"/>
<path d="M36.0096 31.7099L35.8381 31.3652C35.4951 30.848 34.6375 30.6757 34.123 31.0204C33.6085 31.3652 33.437 32.2271 33.78 32.7442L33.9515 33.089C34.123 33.4337 34.6375 33.6061 34.9806 33.6061C35.1521 33.6061 35.4951 33.6061 35.6666 33.4337C36.3526 33.089 36.5241 32.2271 36.0096 31.7099Z" fill="url(#paint4_linear_231:55092)"/>
<path d="M36.8673 46.5347C36.1812 46.5347 35.4952 47.0518 35.4952 47.9137V48.2585C35.4952 48.948 36.0097 49.6375 36.8673 49.6375C37.7248 49.6375 38.2394 48.948 38.2394 48.2585V47.9137C38.2394 47.2242 37.5533 46.5347 36.8673 46.5347Z" fill="url(#paint5_linear_231:55092)"/>
<path d="M9.94056 25.5044H9.59754C8.9115 25.5044 8.22546 26.0215 8.22546 26.8834C8.22546 27.7453 8.73999 28.2625 9.59754 28.2625H9.94056C10.6266 28.2625 11.3126 27.7453 11.3126 26.8834C11.3126 26.0215 10.6266 25.5044 9.94056 25.5044Z" fill="url(#paint6_linear_231:55092)"/>
<path d="M31.8936 27.4007L31.5505 27.2283C30.8645 26.8835 30.1785 27.0559 29.8355 27.7454C29.4924 28.4349 29.6639 29.1245 30.35 29.4692L30.5215 29.6416C30.693 29.814 31.036 29.814 31.2075 29.814C31.7221 29.814 32.0651 29.6416 32.2366 29.1245C32.5796 28.6073 32.4081 27.9178 31.8936 27.4007Z" fill="url(#paint7_linear_231:55092)"/>
<path d="M39.7827 63.0832C39.4397 62.5661 38.5821 62.3937 38.0676 62.7384C37.5531 63.0832 37.3816 63.9451 37.7246 64.4622L37.8961 64.807C38.0676 65.1518 38.5821 65.3241 38.9251 65.3241C39.0966 65.3241 39.4397 65.3241 39.6112 65.1518C40.1257 64.807 40.2972 63.9451 39.9542 63.428L39.7827 63.0832Z" fill="url(#paint8_linear_231:55092)"/>
<path d="M43.5566 66.7031L43.3851 66.5307C42.699 66.1859 42.013 66.3583 41.67 66.8754C41.327 67.565 41.4985 68.2545 42.013 68.5992L42.356 68.7716C42.5275 68.944 42.699 68.944 43.042 68.944C43.5566 68.944 43.8996 68.7716 44.2426 68.2545C44.4141 67.7373 44.0711 67.0478 43.5566 66.7031Z" fill="url(#paint9_linear_231:55092)"/>
<path d="M48.0151 68.0823H47.6721C46.9861 68.0823 46.3 68.5994 46.3 69.2889C46.3 69.9785 46.8146 70.668 47.5006 70.668H47.8436C47.8436 70.668 47.8436 70.668 48.0151 70.668C48.7012 70.668 49.2157 70.1508 49.2157 69.4613C49.3872 68.7718 48.8727 68.0823 48.0151 68.0823Z" fill="url(#paint10_linear_231:55092)"/>
<path d="M36.867 38.6052C37.7246 38.4328 38.2391 37.9157 38.0676 37.2262V36.8814C37.8961 36.1919 37.3816 35.6748 36.524 35.8471C35.838 36.0195 35.3235 36.5367 35.495 37.3986V37.7433C35.6665 38.2604 36.181 38.6052 36.867 38.6052Z" fill="url(#paint11_linear_231:55092)"/>
<path d="M38.2399 58.9462V58.6014C38.2399 57.9119 37.5538 57.3948 36.8678 57.3948C36.1818 57.3948 35.6672 58.0843 35.6672 58.7738C35.6672 58.9462 35.6672 59.1186 35.6672 59.1186C35.8387 59.8081 36.3533 60.1529 36.8678 60.1529H37.0393C37.8969 60.3252 38.4114 59.6357 38.2399 58.9462Z" fill="url(#paint12_linear_231:55092)"/>
<path d="M36.8673 54.9813C37.5533 54.9813 38.2394 54.4641 38.2394 53.6022V53.2575C38.2394 52.5679 37.7248 51.8784 36.8673 51.8784C36.0097 51.8784 35.4952 52.3956 35.4952 53.2575V53.6022C35.6667 54.4641 36.1812 54.9813 36.8673 54.9813Z" fill="url(#paint13_linear_231:55092)"/>
<path d="M4.28077 25.5044C3.59473 25.5044 2.90869 26.0215 2.90869 26.8834C2.90869 27.7453 3.42322 28.2625 4.28077 28.2625H4.45228C5.13831 28.0901 5.65284 27.573 5.65284 26.8834C5.65284 26.1939 4.96681 25.5044 4.28077 25.5044Z" fill="url(#paint14_linear_231:55092)"/>
<path d="M69.4538 68.0823H64.137H63.794H58.6487H58.3057H53.3319H52.9889C52.3029 68.0823 51.6169 68.5994 51.6169 69.4613C51.6169 70.3232 52.1314 70.8404 52.9889 70.8404H53.3319H58.3057H58.8203H63.9655H64.3086H69.6253C70.3114 70.8404 70.9974 70.3232 70.9974 69.4613C70.9974 68.5994 70.1399 68.0823 69.4538 68.0823Z" fill="url(#paint15_linear_231:55092)"/>
<path d="M24.5189 82.3896H24.1759C23.4898 82.3896 22.8038 82.9068 22.8038 83.7687C22.8038 84.6306 23.3183 85.1477 24.1759 85.1477H24.5189C25.2049 85.1477 25.891 84.6306 25.891 83.7687C25.891 82.9068 25.2049 82.3896 24.5189 82.3896Z" fill="url(#paint16_linear_231:55092)"/>
<path d="M30.1784 82.3896H29.8353C29.1493 82.3896 28.4633 82.9068 28.4633 83.7687C28.4633 84.6306 28.9778 85.1477 29.8353 85.1477H30.1784C30.8644 85.1477 31.5504 84.6306 31.5504 83.7687C31.5504 82.9068 30.8644 82.3896 30.1784 82.3896Z" fill="url(#paint17_linear_231:55092)"/>
<path d="M18.8593 82.3896H18.5163C17.8303 82.3896 17.1442 82.9068 17.1442 83.7687C17.1442 84.6306 17.6588 85.1477 18.5163 85.1477H18.8593C19.5454 85.1477 20.2314 84.6306 20.2314 83.7687C20.2314 82.9068 19.5454 82.3896 18.8593 82.3896Z" fill="url(#paint18_linear_231:55092)"/>
<path d="M13.1991 82.3896H12.8561C12.17 82.3896 11.484 82.9068 11.484 83.7687C11.484 84.6306 11.9985 85.1477 12.8561 85.1477H13.1991C13.8851 85.1477 14.5712 84.6306 14.5712 83.7687C14.5712 82.9068 13.8851 82.3896 13.1991 82.3896Z" fill="url(#paint19_linear_231:55092)"/>
<path d="M7.53962 82.3896H7.1966C6.51056 82.3896 5.82452 82.9068 5.82452 83.7687C5.82452 84.6306 6.33905 85.1477 7.1966 85.1477H7.53962C8.22566 85.1477 8.9117 84.6306 8.9117 83.7687C8.9117 82.9068 8.39717 82.3896 7.53962 82.3896Z" fill="url(#paint20_linear_231:55092)"/>
<path d="M47.1584 82.3896H46.8154C46.1294 82.3896 45.4433 82.9068 45.4433 83.7687C45.4433 84.6306 45.9579 85.1477 46.8154 85.1477H47.1584C47.8445 85.1477 48.5305 84.6306 48.5305 83.7687C48.5305 82.9068 47.8445 82.3896 47.1584 82.3896Z" fill="url(#paint21_linear_231:55092)"/>
<path d="M35.8386 82.3896H35.4956C34.8095 82.3896 34.1235 82.9068 34.1235 83.7687C34.1235 84.6306 34.638 85.1477 35.4956 85.1477H35.8386C36.5246 85.1477 37.2107 84.6306 37.2107 83.7687C37.2107 82.9068 36.5246 82.3896 35.8386 82.3896Z" fill="url(#paint22_linear_231:55092)"/>
<path d="M41.4982 82.3896H41.1552C40.4691 82.3896 39.7831 82.9068 39.7831 83.7687C39.7831 84.6306 40.2976 85.1477 41.1552 85.1477H41.4982C42.1842 85.1477 42.8703 84.6306 42.8703 83.7687C42.8703 82.9068 42.1842 82.3896 41.4982 82.3896Z" fill="url(#paint23_linear_231:55092)"/>
<path d="M2.05109 82.3896H1.87958C1.19355 82.3896 0.507507 82.9068 0.507507 83.7687C0.507507 84.6306 1.02204 85.1477 1.87958 85.1477H2.05109C2.73713 85.1477 3.42317 84.6306 3.42317 83.7687C3.42317 82.9068 2.73713 82.3896 2.05109 82.3896Z" fill="url(#paint24_linear_231:55092)"/>
<path d="M69.4543 82.3896H63.966H63.623H58.3062H57.9632H53.1609H52.9894H52.8179H52.4749C51.7888 82.3896 51.1028 82.9068 51.1028 83.7687C51.1028 84.6306 51.6173 85.1477 52.4749 85.1477H52.8179H52.9894H53.1609H57.9632H58.3062H63.623H63.966H69.4543C70.1403 85.1477 70.8264 84.6306 70.8264 83.7687C70.8264 82.9068 70.1403 82.3896 69.4543 82.3896Z" fill="url(#paint25_linear_231:55092)"/>
<path d="M30.5215 138.413L30.35 138.585C29.6639 138.93 29.4924 139.792 29.8355 140.309C30.007 140.654 30.5215 140.999 31.036 140.999C31.2075 140.999 31.379 140.999 31.7221 140.826L32.0651 140.654C32.7511 140.309 32.9226 139.447 32.4081 138.93C31.8936 138.241 31.036 138.068 30.5215 138.413Z" fill="url(#paint26_linear_231:55092)"/>
<path d="M25.89 139.964H25.5469C24.8609 139.964 24.3464 140.654 24.3464 141.343C24.3464 142.033 25.0324 142.55 25.5469 142.55H25.89C26.576 142.55 27.0905 141.861 27.0905 141.171C27.262 140.309 26.576 139.792 25.89 139.964Z" fill="url(#paint27_linear_231:55092)"/>
<path d="M37.0383 129.449C36.3523 129.277 35.6662 129.794 35.6662 130.656V131.001C35.4947 131.69 36.0093 132.38 36.6953 132.552H36.8668C37.5528 132.552 38.0674 132.035 38.0674 131.518V131.173C38.2389 130.139 37.7243 129.449 37.0383 129.449Z" fill="url(#paint28_linear_231:55092)"/>
<path d="M20.7446 139.965H20.4016C19.7156 139.965 19.0295 140.482 19.0295 141.344C19.0295 142.206 19.5441 142.723 20.4016 142.723H20.7446C21.4307 142.723 22.1167 142.206 22.1167 141.344C22.1167 140.482 21.4307 139.965 20.7446 139.965Z" fill="url(#paint29_linear_231:55092)"/>
<path d="M36.8665 123.933C36.1805 123.933 35.4944 124.45 35.4944 125.312V125.657C35.4944 126.346 36.009 127.036 36.8665 127.036C37.7241 127.036 38.2386 126.519 38.2386 125.657V125.312C38.2386 124.623 37.5526 123.933 36.8665 123.933Z" fill="url(#paint30_linear_231:55092)"/>
<path d="M9.9398 139.965H9.59678C8.91074 139.965 8.2247 140.482 8.2247 141.344C8.2247 142.206 8.73923 142.723 9.59678 142.723H9.9398C10.6258 142.723 11.3119 142.206 11.3119 141.344C11.3119 140.482 10.6258 139.965 9.9398 139.965Z" fill="url(#paint31_linear_231:55092)"/>
<path d="M15.2566 139.965H14.9136C14.2275 139.965 13.5415 140.482 13.5415 141.344C13.5415 142.206 14.056 142.723 14.9136 142.723H15.2566C15.9426 142.723 16.6287 142.206 16.6287 141.344C16.6287 140.482 15.9426 139.965 15.2566 139.965Z" fill="url(#paint32_linear_231:55092)"/>
<path d="M35.6666 134.621C35.1521 134.276 34.2945 134.448 33.9515 134.966L33.78 135.31C33.437 135.827 33.6085 136.689 34.123 137.034C34.2945 137.206 34.6375 137.206 34.809 137.206C35.1521 137.206 35.6666 137.034 35.8381 136.689L36.0096 136.345C36.5241 135.827 36.3526 135.138 35.6666 134.621Z" fill="url(#paint33_linear_231:55092)"/>
<path d="M42.1841 99.2831L41.841 99.4554C41.155 99.8002 40.9835 100.662 41.498 101.179C41.6695 101.524 42.1841 101.869 42.5271 101.869C42.6986 101.869 43.0416 101.869 43.2131 101.696L43.3846 101.524C44.0707 101.179 44.2422 100.317 43.8992 99.8002C43.5561 99.2831 42.8701 98.9383 42.1841 99.2831Z" fill="url(#paint34_linear_231:55092)"/>
<path d="M47.8431 97.5582H47.5001C46.814 97.5582 46.2995 98.2477 46.2995 98.9372C46.2995 99.6267 46.9855 100.144 47.5001 100.144H47.6716H48.0146C48.7006 100.144 49.2152 99.4544 49.2152 98.7648C49.2152 97.9029 48.5291 97.3858 47.8431 97.5582Z" fill="url(#paint35_linear_231:55092)"/>
<path d="M37.8953 103.248L37.7238 103.593C37.3808 104.11 37.5523 104.972 38.0668 105.316C38.2383 105.489 38.5814 105.489 38.7529 105.489C39.0959 105.489 39.6104 105.316 39.7819 104.972L39.9534 104.799C40.2964 104.282 40.1249 103.42 39.6104 103.075C39.0959 102.558 38.2383 102.731 37.8953 103.248Z" fill="url(#paint36_linear_231:55092)"/>
<path d="M36.8665 118.589C36.1805 118.589 35.4944 119.106 35.4944 119.968V120.313C35.4944 121.003 36.009 121.692 36.8665 121.692C37.7241 121.692 38.2386 121.175 38.2386 120.313V119.968C38.2386 119.106 37.5526 118.589 36.8665 118.589Z" fill="url(#paint37_linear_231:55092)"/>
<path d="M36.8665 113.073C36.1805 113.073 35.4944 113.59 35.4944 114.452V114.797C35.4944 115.487 36.009 116.176 36.8665 116.176C37.7241 116.176 38.2386 115.487 38.2386 114.797V114.452C38.2386 113.763 37.5526 113.073 36.8665 113.073Z" fill="url(#paint38_linear_231:55092)"/>
<path d="M37.2101 107.729C36.524 107.557 35.838 108.074 35.6665 108.764C35.6665 108.936 35.6665 109.108 35.6665 109.108C35.6665 109.798 36.181 110.488 36.867 110.488H37.0385C37.7246 110.488 38.2391 109.97 38.2391 109.281V108.936C38.4106 108.419 37.8961 107.902 37.2101 107.729Z" fill="url(#paint39_linear_231:55092)"/>
<path d="M4.27997 139.965C3.59394 139.965 2.9079 140.482 2.9079 141.344C2.9079 142.206 3.42243 142.723 4.27997 142.723H4.45148C5.13752 142.55 5.65205 142.033 5.65205 141.344C5.65205 140.654 4.96601 139.965 4.27997 139.965Z" fill="url(#paint40_linear_231:55092)"/>
<path d="M69.4533 97.3867H64.1365H63.7934H58.6482H58.3051H53.1599H52.9883H52.8168C52.1308 97.3867 51.4448 97.9039 51.4448 98.7658C51.4448 99.6277 51.9593 100.145 52.8168 100.145H52.9883H53.1599H58.3051H58.8197H63.965H64.308H69.6248C70.3108 100.145 70.9968 99.6277 70.9968 98.7658C70.9968 97.9039 70.1393 97.3867 69.4533 97.3867Z" fill="url(#paint41_linear_231:55092)"/>
<path d="M234.961 41.1909C234.274 41.1909 233.588 41.7081 233.588 42.57V42.9147C233.588 43.6042 234.103 44.2938 234.961 44.2938C235.818 44.2938 236.333 43.7766 236.333 42.9147V42.57C236.333 41.7081 235.647 41.1909 234.961 41.1909Z" fill="url(#paint42_linear_231:55092)"/>
<path d="M234.961 46.5347C234.274 46.5347 233.588 47.0518 233.588 47.9137V48.2585C233.588 48.948 234.103 49.6375 234.961 49.6375C235.818 49.6375 236.333 49.1204 236.333 48.2585V47.9137C236.333 47.2242 235.647 46.5347 234.961 46.5347Z" fill="url(#paint43_linear_231:55092)"/>
<path d="M234.96 57.3948C234.274 57.3948 233.588 57.9119 233.588 58.6014V58.9462C233.417 59.6357 233.931 60.3252 234.617 60.4976H234.789C235.475 60.4976 235.989 59.9805 235.989 59.4633C235.989 59.291 235.989 59.1186 235.989 59.1186C236.332 58.2567 235.818 57.5672 234.96 57.3948Z" fill="url(#paint44_linear_231:55092)"/>
<path d="M233.761 62.7384C233.246 62.3937 232.388 62.5661 232.045 63.0832L231.874 63.2556C231.531 63.7727 231.702 64.6346 232.217 64.9794C232.388 65.1518 232.732 65.1518 232.903 65.1518C233.246 65.1518 233.761 64.9794 233.932 64.6346L234.104 64.2899C234.618 63.9451 234.447 63.0832 233.761 62.7384Z" fill="url(#paint45_linear_231:55092)"/>
<path d="M223.984 68.0821H223.641C222.955 68.0821 222.44 68.7716 222.44 69.4611C222.44 70.1507 223.126 70.6678 223.641 70.6678C223.641 70.6678 223.641 70.6678 223.812 70.6678H224.155C224.841 70.6678 225.356 69.9783 225.356 69.2888C225.356 68.4269 224.841 67.9097 223.984 68.0821Z" fill="url(#paint46_linear_231:55092)"/>
<path d="M228.615 66.5308L228.444 66.7032C227.758 67.0479 227.586 67.9098 227.929 68.427C228.101 68.7717 228.615 69.1165 229.13 69.1165C229.302 69.1165 229.645 69.1165 229.816 68.9441L230.159 68.7717C230.845 68.427 231.017 67.5651 230.502 67.0479C229.988 66.3584 229.13 66.186 228.615 66.5308Z" fill="url(#paint47_linear_231:55092)"/>
<path d="M218.839 68.0823H218.496H213.522H213.179H208.034H207.691H202.374C201.688 68.0823 201.002 68.5994 201.002 69.4613C201.002 70.3232 201.516 70.8404 202.374 70.8404H207.691H208.034H213.179H213.522H218.496H218.839C219.525 70.8404 220.211 70.3232 220.211 69.4613C220.211 68.5994 219.525 68.0823 218.839 68.0823Z" fill="url(#paint48_linear_231:55092)"/>
<path d="M234.961 52.0508C234.274 52.0508 233.588 52.5679 233.588 53.4298V53.7746C233.588 54.4641 234.103 55.1536 234.961 55.1536C235.818 55.1536 236.333 54.6365 236.333 53.7746V53.4298C236.333 52.5679 235.647 52.0508 234.961 52.0508Z" fill="url(#paint49_linear_231:55092)"/>
<path d="M256.914 25.5044H256.571C255.885 25.5044 255.199 26.0215 255.199 26.8834C255.199 27.7453 255.714 28.2625 256.571 28.2625H256.914C257.6 28.2625 258.286 27.7453 258.286 26.8834C258.286 26.0215 257.6 25.5044 256.914 25.5044Z" fill="url(#paint50_linear_231:55092)"/>
<path d="M262.402 25.5044H262.059C261.373 25.5044 260.687 26.0215 260.687 26.8834C260.687 27.7453 261.201 28.2625 262.059 28.2625H262.402C263.088 28.2625 263.774 27.7453 263.774 26.8834C263.774 26.0215 263.088 25.5044 262.402 25.5044Z" fill="url(#paint51_linear_231:55092)"/>
<path d="M251.597 25.5044H251.254C250.568 25.5044 249.882 26.0215 249.882 26.8834C249.882 27.7453 250.397 28.2625 251.254 28.2625H251.597C252.283 28.2625 252.969 27.7453 252.969 26.8834C252.969 26.0215 252.283 25.5044 251.597 25.5044Z" fill="url(#paint52_linear_231:55092)"/>
<path d="M235.304 35.8471C234.618 35.6748 233.932 36.1919 233.76 36.8814V37.2262C233.76 37.9157 234.103 38.6052 234.961 38.6052H235.133C235.819 38.6052 236.333 38.0881 236.333 37.3986V37.0538C236.505 36.5367 235.99 35.8471 235.304 35.8471Z" fill="url(#paint53_linear_231:55092)"/>
<path d="M235.989 31.3652L235.818 31.7099C235.475 32.2271 235.646 33.089 236.161 33.4337C236.332 33.6061 236.675 33.6061 236.847 33.6061C237.19 33.6061 237.704 33.4337 237.876 33.089L238.047 32.7442C238.39 32.2271 238.219 31.3652 237.704 31.0204C237.19 30.5033 236.504 30.6757 235.989 31.3652Z" fill="url(#paint54_linear_231:55092)"/>
<path d="M240.449 27.2281L240.106 27.4005C239.42 27.7453 239.249 28.6072 239.763 29.1243C239.935 29.4691 240.449 29.8138 240.792 29.8138C240.964 29.8138 241.307 29.8138 241.478 29.6415L241.65 29.4691C242.336 29.1243 242.507 28.2624 242.164 27.7453C241.821 27.2281 240.964 26.8834 240.449 27.2281Z" fill="url(#paint55_linear_231:55092)"/>
<path d="M246.109 25.5044H245.766C245.08 25.5044 244.565 26.1939 244.565 26.8834C244.565 27.573 245.251 28.0901 245.766 28.0901C245.766 28.0901 245.766 28.0901 245.937 28.0901H246.28C246.966 28.0901 247.481 27.4006 247.481 26.7111C247.309 26.0215 246.795 25.5044 246.109 25.5044Z" fill="url(#paint56_linear_231:55092)"/>
<path d="M267.719 25.5044C266.862 25.5044 266.347 26.0215 266.347 26.8834C266.347 27.7453 267.033 28.2625 267.719 28.2625C268.405 28.2625 269.091 27.7453 269.091 26.8834C269.091 26.0215 268.405 25.5044 267.719 25.5044Z" fill="url(#paint57_linear_231:55092)"/>
<path d="M230.844 82.3896H230.501C229.815 82.3896 229.129 82.9068 229.129 83.7687C229.129 84.6306 229.644 85.1477 230.501 85.1477H230.844C231.53 85.1477 232.217 84.6306 232.217 83.7687C232.217 82.9068 231.53 82.3896 230.844 82.3896Z" fill="url(#paint58_linear_231:55092)"/>
<path d="M236.505 82.3896H236.162C235.476 82.3896 234.79 82.9068 234.79 83.7687C234.79 84.6306 235.304 85.1477 236.162 85.1477H236.505C237.191 85.1477 237.877 84.6306 237.877 83.7687C237.877 82.9068 237.191 82.3896 236.505 82.3896Z" fill="url(#paint59_linear_231:55092)"/>
<path d="M225.185 82.3896H224.842C224.156 82.3896 223.47 82.9068 223.47 83.7687C223.47 84.6306 223.984 85.1477 224.842 85.1477H225.185C225.871 85.1477 226.557 84.6306 226.557 83.7687C226.557 82.9068 225.871 82.3896 225.185 82.3896Z" fill="url(#paint60_linear_231:55092)"/>
<path d="M219.525 82.3896H219.182H219.011H218.839H214.037H213.694H208.377H208.034H202.546C201.86 82.3896 201.174 82.9068 201.174 83.7687C201.174 84.6306 201.688 85.1477 202.546 85.1477H208.034H208.377H213.694H214.037H218.839H219.011H219.182H219.525C220.211 85.1477 220.897 84.6306 220.897 83.7687C220.897 82.9068 220.211 82.3896 219.525 82.3896Z" fill="url(#paint61_linear_231:55092)"/>
<path d="M241.992 82.3896H241.649C240.963 82.3896 240.277 82.9068 240.277 83.7687C240.277 84.6306 240.792 85.1477 241.649 85.1477H241.992C242.679 85.1477 243.365 84.6306 243.365 83.7687C243.365 82.9068 242.85 82.3896 241.992 82.3896Z" fill="url(#paint62_linear_231:55092)"/>
<path d="M258.973 82.3896H258.63C257.944 82.3896 257.258 82.9068 257.258 83.7687C257.258 84.6306 257.772 85.1477 258.63 85.1477H258.973C259.659 85.1477 260.345 84.6306 260.345 83.7687C260.345 82.9068 259.659 82.3896 258.973 82.3896Z" fill="url(#paint63_linear_231:55092)"/>
<path d="M264.632 82.3896H264.289C263.603 82.3896 262.917 82.9068 262.917 83.7687C262.917 84.6306 263.432 85.1477 264.289 85.1477H264.632C265.318 85.1477 266.004 84.6306 266.004 83.7687C266.004 82.9068 265.318 82.3896 264.632 82.3896Z" fill="url(#paint64_linear_231:55092)"/>
<path d="M253.312 82.3896H252.969C252.283 82.3896 251.597 82.9068 251.597 83.7687C251.597 84.6306 252.112 85.1477 252.969 85.1477H253.312C253.998 85.1477 254.684 84.6306 254.684 83.7687C254.684 82.9068 253.998 82.3896 253.312 82.3896Z" fill="url(#paint65_linear_231:55092)"/>
<path d="M247.653 82.3896H247.31C246.624 82.3896 245.938 82.9068 245.938 83.7687C245.938 84.6306 246.452 85.1477 247.31 85.1477H247.653C248.339 85.1477 249.025 84.6306 249.025 83.7687C249.025 82.9068 248.339 82.3896 247.653 82.3896Z" fill="url(#paint66_linear_231:55092)"/>
<path d="M270.12 82.3896C269.263 82.3896 268.748 82.9068 268.748 83.7687C268.748 84.6306 269.434 85.1477 270.12 85.1477C270.806 85.1477 271.492 84.6306 271.492 83.7687C271.492 82.9068 270.806 82.3896 270.12 82.3896Z" fill="url(#paint67_linear_231:55092)"/>
<path d="M229.988 99.4551L229.645 99.2827C228.959 98.938 228.272 99.1104 227.929 99.7999C227.586 100.489 227.758 101.179 228.444 101.524L228.615 101.696C228.787 101.868 229.13 101.868 229.302 101.868C229.816 101.868 230.159 101.696 230.331 101.179C230.674 100.662 230.502 99.7999 229.988 99.4551Z" fill="url(#paint68_linear_231:55092)"/>
<path d="M234.104 103.592L233.932 103.248C233.589 102.73 232.732 102.558 232.217 102.903C231.702 103.248 231.531 104.109 231.874 104.627L232.045 104.799C232.217 105.144 232.732 105.316 233.075 105.316C233.246 105.316 233.589 105.316 233.761 105.144C234.447 104.971 234.618 104.109 234.104 103.592Z" fill="url(#paint69_linear_231:55092)"/>
<path d="M234.96 110.66C235.818 110.66 236.332 109.97 236.161 109.281C236.161 109.108 236.161 108.936 236.161 108.936C235.989 108.247 235.303 107.729 234.617 107.902C233.931 108.074 233.417 108.591 233.588 109.453V109.798C233.76 110.143 234.274 110.66 234.96 110.66Z" fill="url(#paint70_linear_231:55092)"/>
<path d="M218.839 97.3867H218.668H218.496H213.351H213.008H207.863H207.519H202.203C201.517 97.3867 200.831 97.9039 200.831 98.7658C200.831 99.6277 201.345 100.145 202.203 100.145H207.519H207.863H213.008H213.351H218.496H218.668H218.839C219.525 100.145 220.211 99.6277 220.211 98.7658C220.211 97.9039 219.525 97.3867 218.839 97.3867Z" fill="url(#paint71_linear_231:55092)"/>
<path d="M234.961 118.589C234.274 118.589 233.588 119.106 233.588 119.968V120.313C233.588 121.003 234.103 121.692 234.961 121.692C235.818 121.692 236.333 121.175 236.333 120.313V119.968C236.333 119.106 235.647 118.589 234.961 118.589Z" fill="url(#paint72_linear_231:55092)"/>
<path d="M236.333 114.452C236.333 113.763 235.819 113.073 234.961 113.073C234.103 113.073 233.76 113.763 233.76 114.452V114.797C233.76 115.487 234.275 116.176 235.133 116.176C235.99 116.176 236.505 115.659 236.505 114.797V114.452H236.333Z" fill="url(#paint73_linear_231:55092)"/>
<path d="M234.961 126.864C235.647 126.864 236.333 126.346 236.333 125.485V125.14C236.333 124.45 235.818 123.761 234.961 123.761C234.103 123.761 233.588 124.278 233.588 125.14V125.485C233.76 126.346 234.274 126.864 234.961 126.864Z" fill="url(#paint74_linear_231:55092)"/>
<path d="M224.327 97.5581H223.984C223.298 97.5581 222.612 98.0752 222.612 98.7648C222.612 99.4543 223.127 100.144 223.813 100.144H224.156H224.327C225.013 100.144 225.528 99.6267 225.528 98.9371C225.528 98.2476 225.013 97.5581 224.327 97.5581Z" fill="url(#paint75_linear_231:55092)"/>
<path d="M238.048 135.138C237.705 134.621 236.847 134.448 236.333 134.793C235.818 135.138 235.647 136 235.99 136.517L236.161 136.862C236.333 137.206 236.847 137.379 237.19 137.379C237.362 137.379 237.705 137.379 237.876 137.206C238.391 136.862 238.562 136 238.219 135.483L238.048 135.138Z" fill="url(#paint76_linear_231:55092)"/>
<path d="M236.333 130.829V130.484C236.333 129.794 235.647 129.277 234.961 129.277C234.275 129.277 233.76 129.967 233.76 130.656V131.001C233.932 131.69 234.446 132.035 234.961 132.035H235.133C235.99 132.208 236.505 131.518 236.333 130.829Z" fill="url(#paint77_linear_231:55092)"/>
<path d="M262.402 139.964H262.059C261.373 139.964 260.687 140.482 260.687 141.343C260.687 142.205 261.201 142.722 262.059 142.722H262.402C263.088 142.722 263.774 142.205 263.774 141.343C263.774 140.482 263.088 139.964 262.402 139.964Z" fill="url(#paint78_linear_231:55092)"/>
<path d="M251.597 139.964H251.254C250.568 139.964 249.882 140.482 249.882 141.343C249.882 142.205 250.397 142.722 251.254 142.722H251.597C252.283 142.722 252.969 142.205 252.969 141.343C252.969 140.482 252.283 139.964 251.597 139.964Z" fill="url(#paint79_linear_231:55092)"/>
<path d="M256.914 139.964H256.571C255.885 139.964 255.199 140.482 255.199 141.343C255.199 142.205 255.713 142.722 256.571 142.722H256.914C257.6 142.722 258.286 142.205 258.286 141.343C258.286 140.482 257.6 139.964 256.914 139.964Z" fill="url(#paint80_linear_231:55092)"/>
<path d="M246.28 139.964H245.937C245.251 139.964 244.565 140.482 244.565 141.171C244.565 141.861 245.08 142.55 245.766 142.55H246.109C246.795 142.55 247.309 142.033 247.309 141.343C247.481 140.654 246.966 139.964 246.28 139.964Z" fill="url(#paint81_linear_231:55092)"/>
<path d="M241.649 138.585L241.477 138.413C240.791 138.068 240.105 138.241 239.762 138.758C239.419 139.447 239.591 140.137 240.105 140.482L240.448 140.654C240.62 140.826 240.791 140.826 241.134 140.826C241.649 140.826 241.992 140.654 242.335 140.137C242.507 139.62 242.335 138.93 241.649 138.585Z" fill="url(#paint82_linear_231:55092)"/>
<path d="M267.719 139.964C266.862 139.964 266.347 140.482 266.347 141.343C266.347 142.205 267.033 142.722 267.719 142.722C268.405 142.722 269.091 142.205 269.091 141.343C269.091 140.482 268.405 139.964 267.719 139.964Z" fill="url(#paint83_linear_231:55092)"/>
<g filter="url(#filter0_d_231:55092)">
<path d="M207.578 54.5122C209.423 54.5122 210.919 56.0084 210.919 57.854V119.153C210.919 120.998 209.423 122.495 207.578 122.495H62.8284C60.9828 122.495 59.4866 120.998 59.4866 119.153L59.4866 57.854C59.4866 56.0084 60.9828 54.5122 62.8284 54.5122L207.578 54.5122Z" fill="url(#paint84_linear_231:55092)"/>
<path d="M207.578 55.0122C209.147 55.0122 210.419 56.2845 210.419 57.854V119.153C210.419 120.722 209.147 121.995 207.578 121.995H62.8284C61.2589 121.995 59.9866 120.722 59.9866 119.153L59.9866 57.854C59.9866 56.2845 61.2589 55.0122 62.8284 55.0122L207.578 55.0122Z" stroke="url(#paint85_linear_231:55092)"/>
</g>
<rect x="73.8329" y="68.5432" width="48.9461" height="6.75118" rx="3.37559" fill="url(#paint86_linear_231:55092)"/>
<rect x="73.8329" y="82.8894" width="98.8298" height="6.37612" rx="3.18806" fill="#CED3DE"/>
<rect x="73.8329" y="95.6418" width="98.8298" height="6.37612" rx="3.18806" fill="#CED3DE"/>
<path d="M51.0221 48.3051L46.7344 40.7204L51.1936 36.4109L58.397 39.169L52.9087 49.167L51.0221 48.3051Z" fill="white" stroke="#6F7590" stroke-miterlimit="10" stroke-linecap="round" stroke-linejoin="round"/>
<path d="M53.5948 43.4785L54.1093 49.3394L53.9378 49.6842L47.2489 47.0985L46.7344 40.7205L50.8506 42.4443" fill="white"/>
<path d="M53.5948 43.4785L54.1093 49.3394L53.9378 49.6842L47.2489 47.0985L46.7344 40.7205L50.8506 42.4443" stroke="#6F7590" stroke-miterlimit="10" stroke-linecap="round" stroke-linejoin="round"/>
<path d="M53.9379 49.6841L53.4234 43.8232V43.4784L56.1675 41.0651L56.339 40.8927L58.3971 39.1689L58.7402 42.9613V43.3061L58.9117 45.3746L57.7111 46.4089L57.5396 46.5813L57.3681 46.7537L56.6821 47.2708L55.31 48.4775L55.1385 48.8222L53.9379 49.6841Z" fill="white" stroke="#6F7590" stroke-miterlimit="10" stroke-linecap="round" stroke-linejoin="round"/>
<path d="M175.538 28.309L166.448 23.1376L168.335 15.8976L177.596 14.3462L177.939 27.9642L175.538 28.309Z" fill="white" stroke="#6F7590" stroke-miterlimit="10" stroke-linecap="round" stroke-linejoin="round"/>
<path d="M175.195 21.7585L179.311 27.4471V27.9642L170.736 29.1709L166.448 23.1376L171.593 22.2757" fill="white"/>
<path d="M175.195 21.7585L179.311 27.4471V27.9642L170.736 29.1709L166.448 23.1376L171.593 22.2757" stroke="#6F7590" stroke-miterlimit="10" stroke-linecap="round" stroke-linejoin="round"/>
<path d="M179.312 27.9642L175.367 22.1033L175.024 21.7585L176.396 17.7938V17.449L177.596 14.3462L180.169 17.9662L180.341 18.3109L181.884 20.3795L181.198 22.2757V22.6204L181.027 22.9652L180.684 23.8271L179.998 25.8956L179.826 26.2404L179.312 27.9642Z" fill="white" stroke="#6F7590" stroke-miterlimit="10" stroke-linecap="round" stroke-linejoin="round"/>
<path d="M87.6344 153.457L81.803 146.562L85.2332 141.218L93.1227 142.597L89.6925 153.802L87.6344 153.457Z" fill="white" stroke="#6F7590" stroke-miterlimit="10" stroke-linecap="round" stroke-linejoin="round"/>
<path d="M89.1779 147.941L90.893 153.802V154.146L83.5181 152.94L81.803 146.562L86.0907 147.424" fill="white"/>
<path d="M89.1779 147.941L90.893 153.802V154.146L83.5181 152.94L81.803 146.562L86.0907 147.424" stroke="#6F7590" stroke-miterlimit="10" stroke-linecap="round" stroke-linejoin="round"/>
<path d="M90.8931 154.147L89.178 148.286L89.0065 147.941L91.2361 145.01L91.4076 144.838L93.1227 142.597L94.1518 146.39L94.3233 146.734L95.0093 148.803L93.9803 150.182L93.8088 150.354L93.6373 150.527L93.1227 151.216L91.9222 152.768L91.7506 153.112L90.8931 154.147Z" fill="white" stroke="#6F7590" stroke-miterlimit="10" stroke-linecap="round" stroke-linejoin="round"/>
<path d="M195.166 153.097C194.701 155.109 194.081 156.966 193.305 158.824C193.15 159.288 192.995 159.597 192.685 160.062C190.049 165.169 185.862 169.348 180.745 171.824C180.125 172.134 179.504 172.443 179.039 172.598C174.077 174.61 168.494 175.384 162.912 174.146C148.18 171.05 138.721 156.657 141.822 141.954C144.924 127.251 159.345 117.81 174.077 120.905C179.349 121.989 184.001 124.62 187.878 128.334C194.236 134.68 197.027 144.121 195.166 153.097Z" fill="white"/>
<path d="M194.391 154.645C193.926 156.657 193.306 158.514 192.53 160.371C192.375 160.836 192.22 161.145 191.91 161.61C189.274 166.717 185.087 170.896 179.97 173.372C179.349 173.682 178.729 173.991 178.264 174.146C173.302 176.158 167.719 176.932 162.137 175.694C147.405 172.598 137.946 158.205 141.047 143.502C144.149 128.799 158.57 119.358 173.302 122.453C178.574 123.537 183.226 126.168 187.103 129.882C193.616 136.228 196.407 145.668 194.391 154.645Z" fill="url(#paint87_linear_231:55092)"/>
<path d="M163.688 119.822C166.789 119.358 170.201 119.513 173.457 120.132C178.884 121.215 183.847 124.001 187.723 127.87C194.547 134.68 197.493 144.276 195.477 153.717C195.012 155.883 194.391 157.895 193.461 159.753C193.306 160.217 193.151 160.526 192.841 160.991C190.049 166.408 185.708 170.586 180.435 173.372C179.815 173.682 179.195 173.991 178.574 174.301C173.457 176.468 167.719 177.087 161.827 175.848C146.475 172.598 136.55 157.586 139.807 142.264C141.203 135.454 144.924 129.882 149.886 125.858" stroke="#182052" stroke-miterlimit="10" stroke-linecap="round" stroke-linejoin="round"/>
<path d="M153.143 123.537C153.453 123.382 153.608 123.227 153.918 123.072" stroke="#182052" stroke-miterlimit="10" stroke-linecap="round" stroke-linejoin="round"/>
<path d="M179.592 145.66L178.551 145.488C178.03 145.488 177.684 145.143 177.51 144.626C177.337 144.281 177.336 143.937 177.163 143.764C176.989 143.42 176.99 142.903 177.337 142.558L177.857 141.696C178.204 141.179 178.204 140.49 177.683 140.146L175.948 138.422C175.428 137.905 174.734 137.905 174.387 138.25L173.52 138.767C173.173 139.112 172.652 139.111 172.131 138.939C171.784 138.767 171.437 138.595 171.264 138.595C170.743 138.422 170.57 138.078 170.396 137.561L170.223 136.527C170.049 135.837 169.529 135.492 169.008 135.492H166.58C165.886 135.492 165.365 136.01 165.365 136.527L165.191 137.561C165.191 138.078 164.844 138.422 164.324 138.595C163.977 138.767 163.63 138.767 163.456 138.939C163.109 139.111 162.589 139.112 162.242 138.767L161.375 138.25C160.854 137.905 160.16 137.905 159.813 138.422L158.078 140.146C157.557 140.662 157.558 141.352 157.905 141.696L158.425 142.558C158.772 142.903 158.772 143.42 158.598 143.764C158.425 144.109 158.251 144.454 158.251 144.626C158.078 145.143 157.731 145.315 157.21 145.488L156.17 145.66C155.476 145.833 155.128 146.349 155.128 146.866V149.278C155.128 149.968 155.649 150.485 156.17 150.485L157.21 150.657C157.731 150.657 158.078 151.002 158.251 151.519C158.425 151.864 158.425 152.208 158.598 152.381C158.772 152.725 158.772 153.242 158.425 153.759L157.905 154.621C157.558 155.138 157.557 155.827 158.078 156.344L159.813 158.067C160.333 158.584 161.028 158.584 161.375 158.24L162.242 157.723C162.589 157.378 163.109 157.378 163.456 157.55C163.803 157.723 164.15 157.895 164.324 157.895C164.844 158.067 165.018 158.412 165.191 158.929L165.365 159.963C165.539 160.652 166.059 160.997 166.58 160.997H169.008C169.702 160.997 170.223 160.48 170.223 159.963L170.396 158.929C170.396 158.412 170.743 158.067 171.264 157.895C171.611 157.722 171.958 157.723 172.131 157.55C172.478 157.378 172.999 157.378 173.52 157.723L174.387 158.24C174.908 158.584 175.601 158.584 175.948 158.067L177.683 156.344C178.204 155.827 178.204 155.138 177.857 154.621L177.337 153.759C176.99 153.414 176.989 152.898 177.163 152.381C177.336 152.036 177.51 151.691 177.51 151.519C177.684 151.002 178.03 150.83 178.551 150.657L179.592 150.485C180.286 150.313 180.633 149.795 180.633 149.278V146.866C180.633 146.177 180.286 145.66 179.592 145.66ZM168.141 152.208C165.712 152.208 163.803 150.313 163.803 147.9C163.803 145.488 165.712 143.592 168.141 143.592C170.57 143.592 172.478 145.488 172.478 147.9C172.305 150.313 170.396 152.208 168.141 152.208Z" fill="white"/>
<defs>
<filter id="filter0_d_231:55092" x="41.1066" y="45.3222" width="188.193" height="104.742" filterUnits="userSpaceOnUse" color-interpolation-filters="sRGB">
<feFlood flood-opacity="0" result="BackgroundImageFix"/>
<feColorMatrix in="SourceAlpha" type="matrix" values="0 0 0 0 0 0 0 0 0 0 0 0 0 0 0 0 0 0 127 0" result="hardAlpha"/>
<feOffset dy="9.19001"/>
<feGaussianBlur stdDeviation="9.19001"/>
<feColorMatrix type="matrix" values="0 0 0 0 0.397708 0 0 0 0 0.47749 0 0 0 0 0.575 0 0 0 0.27 0"/>
<feBlend mode="normal" in2="BackgroundImageFix" result="effect1_dropShadow_231:55092"/>
<feBlend mode="normal" in="SourceGraphic" in2="effect1_dropShadow_231:55092" result="shape"/>
</filter>
<linearGradient id="paint0_linear_231:55092" x1="-0.0184929" y1="26.8395" x2="69.5202" y2="26.8395" gradientUnits="userSpaceOnUse">
<stop stop-color="#83A6FF" stop-opacity="0"/>
<stop offset="1" stop-color="#5A78FF"/>
</linearGradient>
<linearGradient id="paint1_linear_231:55092" x1="-0.0180083" y1="26.8395" x2="69.5207" y2="26.8395" gradientUnits="userSpaceOnUse">
<stop stop-color="#83A6FF" stop-opacity="0"/>
<stop offset="1" stop-color="#5A78FF"/>
</linearGradient>
<linearGradient id="paint2_linear_231:55092" x1="-0.0181752" y1="26.8784" x2="69.5205" y2="26.8784" gradientUnits="userSpaceOnUse">
<stop stop-color="#83A6FF" stop-opacity="0"/>
<stop offset="1" stop-color="#5A78FF"/>
</linearGradient>
<linearGradient id="paint3_linear_231:55092" x1="-0.0184148" y1="42.6486" x2="69.5203" y2="42.6486" gradientUnits="userSpaceOnUse">
<stop stop-color="#83A6FF" stop-opacity="0"/>
<stop offset="1" stop-color="#5A78FF"/>
</linearGradient>
<linearGradient id="paint4_linear_231:55092" x1="-0.0185429" y1="32.1949" x2="69.5202" y2="32.1949" gradientUnits="userSpaceOnUse">
<stop stop-color="#83A6FF" stop-opacity="0"/>
<stop offset="1" stop-color="#5A78FF"/>
</linearGradient>
<linearGradient id="paint5_linear_231:55092" x1="-0.0184148" y1="48.0759" x2="69.5203" y2="48.0759" gradientUnits="userSpaceOnUse">
<stop stop-color="#83A6FF" stop-opacity="0"/>
<stop offset="1" stop-color="#5A78FF"/>
</linearGradient>
<linearGradient id="paint6_linear_231:55092" x1="-0.018141" y1="26.8395" x2="69.5206" y2="26.8395" gradientUnits="userSpaceOnUse">
<stop stop-color="#83A6FF" stop-opacity="0"/>
<stop offset="1" stop-color="#5A78FF"/>
</linearGradient>
<linearGradient id="paint7_linear_231:55092" x1="-0.0183442" y1="28.4992" x2="69.5203" y2="28.4992" gradientUnits="userSpaceOnUse">
<stop stop-color="#83A6FF" stop-opacity="0"/>
<stop offset="1" stop-color="#5A78FF"/>
</linearGradient>
<linearGradient id="paint8_linear_231:55092" x1="-0.0186505" y1="63.9648" x2="69.52" y2="63.9648" gradientUnits="userSpaceOnUse">
<stop stop-color="#83A6FF" stop-opacity="0"/>
<stop offset="1" stop-color="#5A78FF"/>
</linearGradient>
<linearGradient id="paint9_linear_231:55092" x1="-0.0179787" y1="67.6772" x2="69.5207" y2="67.6772" gradientUnits="userSpaceOnUse">
<stop stop-color="#83A6FF" stop-opacity="0"/>
<stop offset="1" stop-color="#5A78FF"/>
</linearGradient>
<linearGradient id="paint10_linear_231:55092" x1="-0.0186373" y1="69.3177" x2="69.52" y2="69.3177" gradientUnits="userSpaceOnUse">
<stop stop-color="#83A6FF" stop-opacity="0"/>
<stop offset="1" stop-color="#5A78FF"/>
</linearGradient>
<linearGradient id="paint11_linear_231:55092" x1="-0.0186435" y1="37.2267" x2="69.5201" y2="37.2267" gradientUnits="userSpaceOnUse">
<stop stop-color="#83A6FF" stop-opacity="0"/>
<stop offset="1" stop-color="#5A78FF"/>
</linearGradient>
<linearGradient id="paint12_linear_231:55092" x1="-0.0178883" y1="58.9271" x2="69.5208" y2="58.9271" gradientUnits="userSpaceOnUse">
<stop stop-color="#83A6FF" stop-opacity="0"/>
<stop offset="1" stop-color="#5A78FF"/>
</linearGradient>
<linearGradient id="paint13_linear_231:55092" x1="-0.0184148" y1="53.504" x2="69.5203" y2="53.504" gradientUnits="userSpaceOnUse">
<stop stop-color="#83A6FF" stop-opacity="0"/>
<stop offset="1" stop-color="#5A78FF"/>
</linearGradient>
<linearGradient id="paint14_linear_231:55092" x1="-0.0181184" y1="26.8395" x2="69.5206" y2="26.8395" gradientUnits="userSpaceOnUse">
<stop stop-color="#83A6FF" stop-opacity="0"/>
<stop offset="1" stop-color="#5A78FF"/>
</linearGradient>
<linearGradient id="paint15_linear_231:55092" x1="-0.0186527" y1="69.3605" x2="69.52" y2="69.3605" gradientUnits="userSpaceOnUse">
<stop stop-color="#83A6FF" stop-opacity="0"/>
<stop offset="1" stop-color="#5A78FF"/>
</linearGradient>
<linearGradient id="paint16_linear_231:55092" x1="1.18469" y1="83.6608" x2="70.0478" y2="83.6608" gradientUnits="userSpaceOnUse">
<stop stop-color="#FF66A9" stop-opacity="0"/>
<stop offset="1" stop-color="#F53689"/>
</linearGradient>
<linearGradient id="paint17_linear_231:55092" x1="1.18431" y1="83.6608" x2="70.0475" y2="83.6608" gradientUnits="userSpaceOnUse">
<stop stop-color="#FF66A9" stop-opacity="0"/>
<stop offset="1" stop-color="#F53689"/>
</linearGradient>
<linearGradient id="paint18_linear_231:55092" x1="1.18492" y1="83.6608" x2="70.048" y2="83.6608" gradientUnits="userSpaceOnUse">
<stop stop-color="#FF66A9" stop-opacity="0"/>
<stop offset="1" stop-color="#F53689"/>
</linearGradient>
<linearGradient id="paint19_linear_231:55092" x1="1.18452" y1="83.6608" x2="70.0476" y2="83.6608" gradientUnits="userSpaceOnUse">
<stop stop-color="#FF66A9" stop-opacity="0"/>
<stop offset="1" stop-color="#F53689"/>
</linearGradient>
<linearGradient id="paint20_linear_231:55092" x1="1.18485" y1="83.6608" x2="70.048" y2="83.6608" gradientUnits="userSpaceOnUse">
<stop stop-color="#FF66A9" stop-opacity="0"/>
<stop offset="1" stop-color="#F53689"/>
</linearGradient>
<linearGradient id="paint21_linear_231:55092" x1="1.18498" y1="83.6608" x2="70.0481" y2="83.6608" gradientUnits="userSpaceOnUse">
<stop stop-color="#FF66A9" stop-opacity="0"/>
<stop offset="1" stop-color="#F53689"/>
</linearGradient>
<linearGradient id="paint22_linear_231:55092" x1="1.18478" y1="83.6608" x2="70.0479" y2="83.6608" gradientUnits="userSpaceOnUse">
<stop stop-color="#FF66A9" stop-opacity="0"/>
<stop offset="1" stop-color="#F53689"/>
</linearGradient>
<linearGradient id="paint23_linear_231:55092" x1="1.1845" y1="83.6608" x2="70.0477" y2="83.6608" gradientUnits="userSpaceOnUse">
<stop stop-color="#FF66A9" stop-opacity="0"/>
<stop offset="1" stop-color="#F53689"/>
</linearGradient>
<linearGradient id="paint24_linear_231:55092" x1="1.18463" y1="83.6608" x2="70.0478" y2="83.6608" gradientUnits="userSpaceOnUse">
<stop stop-color="#FF66A9" stop-opacity="0"/>
<stop offset="1" stop-color="#F53689"/>
</linearGradient>
<linearGradient id="paint25_linear_231:55092" x1="1.1846" y1="83.6608" x2="70.0477" y2="83.6608" gradientUnits="userSpaceOnUse">
<stop stop-color="#FF66A9" stop-opacity="0"/>
<stop offset="1" stop-color="#F53689"/>
</linearGradient>
<linearGradient id="paint26_linear_231:55092" x1="-0.0183497" y1="139.604" x2="69.5203" y2="139.604" gradientUnits="userSpaceOnUse">
<stop stop-color="#83A6FF" stop-opacity="0"/>
<stop offset="1" stop-color="#5A78FF"/>
</linearGradient>
<linearGradient id="paint27_linear_231:55092" x1="-0.0191289" y1="141.223" x2="69.5196" y2="141.223" gradientUnits="userSpaceOnUse">
<stop stop-color="#83A6FF" stop-opacity="0"/>
<stop offset="1" stop-color="#5A78FF"/>
</linearGradient>
<linearGradient id="paint28_linear_231:55092" x1="-0.0188769" y1="130.876" x2="69.5198" y2="130.876" gradientUnits="userSpaceOnUse">
<stop stop-color="#83A6FF" stop-opacity="0"/>
<stop offset="1" stop-color="#5A78FF"/>
</linearGradient>
<linearGradient id="paint29_linear_231:55092" x1="-0.0191642" y1="141.263" x2="69.5195" y2="141.263" gradientUnits="userSpaceOnUse">
<stop stop-color="#83A6FF" stop-opacity="0"/>
<stop offset="1" stop-color="#5A78FF"/>
</linearGradient>
<linearGradient id="paint30_linear_231:55092" x1="-0.0191777" y1="125.454" x2="69.5195" y2="125.454" gradientUnits="userSpaceOnUse">
<stop stop-color="#83A6FF" stop-opacity="0"/>
<stop offset="1" stop-color="#5A78FF"/>
</linearGradient>
<linearGradient id="paint31_linear_231:55092" x1="-0.018904" y1="141.263" x2="69.5198" y2="141.263" gradientUnits="userSpaceOnUse">
<stop stop-color="#83A6FF" stop-opacity="0"/>
<stop offset="1" stop-color="#5A78FF"/>
</linearGradient>
<linearGradient id="paint32_linear_231:55092" x1="-0.0188933" y1="141.263" x2="69.5198" y2="141.263" gradientUnits="userSpaceOnUse">
<stop stop-color="#83A6FF" stop-opacity="0"/>
<stop offset="1" stop-color="#5A78FF"/>
</linearGradient>
<linearGradient id="paint33_linear_231:55092" x1="-0.0185429" y1="135.907" x2="69.5202" y2="135.907" gradientUnits="userSpaceOnUse">
<stop stop-color="#83A6FF" stop-opacity="0"/>
<stop offset="1" stop-color="#5A78FF"/>
</linearGradient>
<linearGradient id="paint34_linear_231:55092" x1="-0.0184178" y1="100.425" x2="69.5203" y2="100.425" gradientUnits="userSpaceOnUse">
<stop stop-color="#83A6FF" stop-opacity="0"/>
<stop offset="1" stop-color="#5A78FF"/>
</linearGradient>
<linearGradient id="paint35_linear_231:55092" x1="-0.0191792" y1="98.7852" x2="69.5195" y2="98.7852" gradientUnits="userSpaceOnUse">
<stop stop-color="#83A6FF" stop-opacity="0"/>
<stop offset="1" stop-color="#5A78FF"/>
</linearGradient>
<linearGradient id="paint36_linear_231:55092" x1="-0.0194134" y1="104.138" x2="69.5193" y2="104.138" gradientUnits="userSpaceOnUse">
<stop stop-color="#83A6FF" stop-opacity="0"/>
<stop offset="1" stop-color="#5A78FF"/>
</linearGradient>
<linearGradient id="paint37_linear_231:55092" x1="-0.0191777" y1="120.027" x2="69.5195" y2="120.027" gradientUnits="userSpaceOnUse">
<stop stop-color="#83A6FF" stop-opacity="0"/>
<stop offset="1" stop-color="#5A78FF"/>
</linearGradient>
<linearGradient id="paint38_linear_231:55092" x1="-0.0191777" y1="114.599" x2="69.5195" y2="114.599" gradientUnits="userSpaceOnUse">
<stop stop-color="#83A6FF" stop-opacity="0"/>
<stop offset="1" stop-color="#5A78FF"/>
</linearGradient>
<linearGradient id="paint39_linear_231:55092" x1="-0.0186487" y1="109.176" x2="69.52" y2="109.176" gradientUnits="userSpaceOnUse">
<stop stop-color="#83A6FF" stop-opacity="0"/>
<stop offset="1" stop-color="#5A78FF"/>
</linearGradient>
<linearGradient id="paint40_linear_231:55092" x1="-0.0189118" y1="141.263" x2="69.5198" y2="141.263" gradientUnits="userSpaceOnUse">
<stop stop-color="#83A6FF" stop-opacity="0"/>
<stop offset="1" stop-color="#5A78FF"/>
</linearGradient>
<linearGradient id="paint41_linear_231:55092" x1="-0.0192272" y1="98.7423" x2="69.5195" y2="98.7423" gradientUnits="userSpaceOnUse">
<stop stop-color="#83A6FF" stop-opacity="0"/>
<stop offset="1" stop-color="#5A78FF"/>
</linearGradient>
<linearGradient id="paint42_linear_231:55092" x1="272.327" y1="42.6486" x2="211.502" y2="42.6486" gradientUnits="userSpaceOnUse">
<stop stop-color="#FF66A9" stop-opacity="0"/>
<stop offset="1" stop-color="#F53689"/>
</linearGradient>
<linearGradient id="paint43_linear_231:55092" x1="272.327" y1="48.0768" x2="211.502" y2="48.0768" gradientUnits="userSpaceOnUse">
<stop stop-color="#FF66A9" stop-opacity="0"/>
<stop offset="1" stop-color="#F53689"/>
</linearGradient>
<linearGradient id="paint44_linear_231:55092" x1="272.327" y1="58.9279" x2="211.502" y2="58.9279" gradientUnits="userSpaceOnUse">
<stop stop-color="#FF66A9" stop-opacity="0"/>
<stop offset="1" stop-color="#F53689"/>
</linearGradient>
<linearGradient id="paint45_linear_231:55092" x1="272.328" y1="63.9656" x2="211.503" y2="63.9656" gradientUnits="userSpaceOnUse">
<stop stop-color="#FF66A9" stop-opacity="0"/>
<stop offset="1" stop-color="#F53689"/>
</linearGradient>
<linearGradient id="paint46_linear_231:55092" x1="272.327" y1="69.3175" x2="211.502" y2="69.3175" gradientUnits="userSpaceOnUse">
<stop stop-color="#FF66A9" stop-opacity="0"/>
<stop offset="1" stop-color="#F53689"/>
</linearGradient>
<linearGradient id="paint47_linear_231:55092" x1="272.328" y1="67.6773" x2="211.503" y2="67.6773" gradientUnits="userSpaceOnUse">
<stop stop-color="#FF66A9" stop-opacity="0"/>
<stop offset="1" stop-color="#F53689"/>
</linearGradient>
<linearGradient id="paint48_linear_231:55092" x1="272.327" y1="69.3605" x2="211.502" y2="69.3605" gradientUnits="userSpaceOnUse">
<stop stop-color="#FF66A9" stop-opacity="0"/>
<stop offset="1" stop-color="#F53689"/>
</linearGradient>
<linearGradient id="paint49_linear_231:55092" x1="272.327" y1="53.5039" x2="211.502" y2="53.5039" gradientUnits="userSpaceOnUse">
<stop stop-color="#FF66A9" stop-opacity="0"/>
<stop offset="1" stop-color="#F53689"/>
</linearGradient>
<linearGradient id="paint50_linear_231:55092" x1="272.327" y1="26.8395" x2="211.502" y2="26.8395" gradientUnits="userSpaceOnUse">
<stop stop-color="#FF66A9" stop-opacity="0"/>
<stop offset="1" stop-color="#F53689"/>
</linearGradient>
<linearGradient id="paint51_linear_231:55092" x1="272.327" y1="26.8395" x2="211.502" y2="26.8395" gradientUnits="userSpaceOnUse">
<stop stop-color="#FF66A9" stop-opacity="0"/>
<stop offset="1" stop-color="#F53689"/>
</linearGradient>
<linearGradient id="paint52_linear_231:55092" x1="272.327" y1="26.8395" x2="211.502" y2="26.8395" gradientUnits="userSpaceOnUse">
<stop stop-color="#FF66A9" stop-opacity="0"/>
<stop offset="1" stop-color="#F53689"/>
</linearGradient>
<linearGradient id="paint53_linear_231:55092" x1="272.327" y1="37.2269" x2="211.502" y2="37.2269" gradientUnits="userSpaceOnUse">
<stop stop-color="#FF66A9" stop-opacity="0"/>
<stop offset="1" stop-color="#F53689"/>
</linearGradient>
<linearGradient id="paint54_linear_231:55092" x1="272.327" y1="32.1948" x2="211.502" y2="32.1948" gradientUnits="userSpaceOnUse">
<stop stop-color="#FF66A9" stop-opacity="0"/>
<stop offset="1" stop-color="#F53689"/>
</linearGradient>
<linearGradient id="paint55_linear_231:55092" x1="272.327" y1="28.4991" x2="211.502" y2="28.4991" gradientUnits="userSpaceOnUse">
<stop stop-color="#FF66A9" stop-opacity="0"/>
<stop offset="1" stop-color="#F53689"/>
</linearGradient>
<linearGradient id="paint56_linear_231:55092" x1="272.327" y1="26.8783" x2="211.502" y2="26.8783" gradientUnits="userSpaceOnUse">
<stop stop-color="#FF66A9" stop-opacity="0"/>
<stop offset="1" stop-color="#F53689"/>
</linearGradient>
<linearGradient id="paint57_linear_231:55092" x1="272.328" y1="26.8395" x2="211.502" y2="26.8395" gradientUnits="userSpaceOnUse">
<stop stop-color="#FF66A9" stop-opacity="0"/>
<stop offset="1" stop-color="#F53689"/>
</linearGradient>
<linearGradient id="paint58_linear_231:55092" x1="271.464" y1="83.6608" x2="201.504" y2="83.6608" gradientUnits="userSpaceOnUse">
<stop stop-color="#83A6FF" stop-opacity="0"/>
<stop offset="1" stop-color="#5A78FF"/>
</linearGradient>
<linearGradient id="paint59_linear_231:55092" x1="271.464" y1="83.6608" x2="201.504" y2="83.6608" gradientUnits="userSpaceOnUse">
<stop stop-color="#83A6FF" stop-opacity="0"/>
<stop offset="1" stop-color="#5A78FF"/>
</linearGradient>
<linearGradient id="paint60_linear_231:55092" x1="271.464" y1="83.6608" x2="201.504" y2="83.6608" gradientUnits="userSpaceOnUse">
<stop stop-color="#83A6FF" stop-opacity="0"/>
<stop offset="1" stop-color="#5A78FF"/>
</linearGradient>
<linearGradient id="paint61_linear_231:55092" x1="271.465" y1="83.6608" x2="201.504" y2="83.6608" gradientUnits="userSpaceOnUse">
<stop stop-color="#83A6FF" stop-opacity="0"/>
<stop offset="1" stop-color="#5A78FF"/>
</linearGradient>
<linearGradient id="paint62_linear_231:55092" x1="271.464" y1="83.6608" x2="201.503" y2="83.6608" gradientUnits="userSpaceOnUse">
<stop stop-color="#83A6FF" stop-opacity="0"/>
<stop offset="1" stop-color="#5A78FF"/>
</linearGradient>
<linearGradient id="paint63_linear_231:55092" x1="271.465" y1="83.6608" x2="201.504" y2="83.6608" gradientUnits="userSpaceOnUse">
<stop stop-color="#83A6FF" stop-opacity="0"/>
<stop offset="1" stop-color="#5A78FF"/>
</linearGradient>
<linearGradient id="paint64_linear_231:55092" x1="271.464" y1="83.6608" x2="201.504" y2="83.6608" gradientUnits="userSpaceOnUse">
<stop stop-color="#83A6FF" stop-opacity="0"/>
<stop offset="1" stop-color="#5A78FF"/>
</linearGradient>
<linearGradient id="paint65_linear_231:55092" x1="271.464" y1="83.6608" x2="201.504" y2="83.6608" gradientUnits="userSpaceOnUse">
<stop stop-color="#83A6FF" stop-opacity="0"/>
<stop offset="1" stop-color="#5A78FF"/>
</linearGradient>
<linearGradient id="paint66_linear_231:55092" x1="271.464" y1="83.6608" x2="201.504" y2="83.6608" gradientUnits="userSpaceOnUse">
<stop stop-color="#83A6FF" stop-opacity="0"/>
<stop offset="1" stop-color="#5A78FF"/>
</linearGradient>
<linearGradient id="paint67_linear_231:55092" x1="271.464" y1="83.6608" x2="201.504" y2="83.6608" gradientUnits="userSpaceOnUse">
<stop stop-color="#83A6FF" stop-opacity="0"/>
<stop offset="1" stop-color="#5A78FF"/>
</linearGradient>
<linearGradient id="paint68_linear_231:55092" x1="271.465" y1="100.424" x2="201.504" y2="100.424" gradientUnits="userSpaceOnUse">
<stop stop-color="#83A6FF" stop-opacity="0"/>
<stop offset="1" stop-color="#5A78FF"/>
</linearGradient>
<linearGradient id="paint69_linear_231:55092" x1="271.465" y1="104.137" x2="201.504" y2="104.137" gradientUnits="userSpaceOnUse">
<stop stop-color="#83A6FF" stop-opacity="0"/>
<stop offset="1" stop-color="#5A78FF"/>
</linearGradient>
<linearGradient id="paint70_linear_231:55092" x1="271.464" y1="109.175" x2="201.503" y2="109.175" gradientUnits="userSpaceOnUse">
<stop stop-color="#83A6FF" stop-opacity="0"/>
<stop offset="1" stop-color="#5A78FF"/>
</linearGradient>
<linearGradient id="paint71_linear_231:55092" x1="271.464" y1="98.7423" x2="201.504" y2="98.7423" gradientUnits="userSpaceOnUse">
<stop stop-color="#83A6FF" stop-opacity="0"/>
<stop offset="1" stop-color="#5A78FF"/>
</linearGradient>
<linearGradient id="paint72_linear_231:55092" x1="271.464" y1="120.026" x2="201.503" y2="120.026" gradientUnits="userSpaceOnUse">
<stop stop-color="#83A6FF" stop-opacity="0"/>
<stop offset="1" stop-color="#5A78FF"/>
</linearGradient>
<linearGradient id="paint73_linear_231:55092" x1="271.465" y1="114.599" x2="201.504" y2="114.599" gradientUnits="userSpaceOnUse">
<stop stop-color="#83A6FF" stop-opacity="0"/>
<stop offset="1" stop-color="#5A78FF"/>
</linearGradient>
<linearGradient id="paint74_linear_231:55092" x1="271.464" y1="125.454" x2="201.503" y2="125.454" gradientUnits="userSpaceOnUse">
<stop stop-color="#83A6FF" stop-opacity="0"/>
<stop offset="1" stop-color="#5A78FF"/>
</linearGradient>
<linearGradient id="paint75_linear_231:55092" x1="271.464" y1="98.7849" x2="201.504" y2="98.7849" gradientUnits="userSpaceOnUse">
<stop stop-color="#83A6FF" stop-opacity="0"/>
<stop offset="1" stop-color="#5A78FF"/>
</linearGradient>
<linearGradient id="paint76_linear_231:55092" x1="271.464" y1="135.907" x2="201.504" y2="135.907" gradientUnits="userSpaceOnUse">
<stop stop-color="#83A6FF" stop-opacity="0"/>
<stop offset="1" stop-color="#5A78FF"/>
</linearGradient>
<linearGradient id="paint77_linear_231:55092" x1="271.464" y1="130.876" x2="201.504" y2="130.876" gradientUnits="userSpaceOnUse">
<stop stop-color="#83A6FF" stop-opacity="0"/>
<stop offset="1" stop-color="#5A78FF"/>
</linearGradient>
<linearGradient id="paint78_linear_231:55092" x1="271.464" y1="141.263" x2="201.503" y2="141.263" gradientUnits="userSpaceOnUse">
<stop stop-color="#83A6FF" stop-opacity="0"/>
<stop offset="1" stop-color="#5A78FF"/>
</linearGradient>
<linearGradient id="paint79_linear_231:55092" x1="271.464" y1="141.263" x2="201.504" y2="141.263" gradientUnits="userSpaceOnUse">
<stop stop-color="#83A6FF" stop-opacity="0"/>
<stop offset="1" stop-color="#5A78FF"/>
</linearGradient>
<linearGradient id="paint80_linear_231:55092" x1="271.464" y1="141.263" x2="201.504" y2="141.263" gradientUnits="userSpaceOnUse">
<stop stop-color="#83A6FF" stop-opacity="0"/>
<stop offset="1" stop-color="#5A78FF"/>
</linearGradient>
<linearGradient id="paint81_linear_231:55092" x1="271.464" y1="141.223" x2="201.504" y2="141.223" gradientUnits="userSpaceOnUse">
<stop stop-color="#83A6FF" stop-opacity="0"/>
<stop offset="1" stop-color="#5A78FF"/>
</linearGradient>
<linearGradient id="paint82_linear_231:55092" x1="271.464" y1="139.604" x2="201.503" y2="139.604" gradientUnits="userSpaceOnUse">
<stop stop-color="#83A6FF" stop-opacity="0"/>
<stop offset="1" stop-color="#5A78FF"/>
</linearGradient>
<linearGradient id="paint83_linear_231:55092" x1="271.464" y1="141.263" x2="201.503" y2="141.263" gradientUnits="userSpaceOnUse">
<stop stop-color="#83A6FF" stop-opacity="0"/>
<stop offset="1" stop-color="#5A78FF"/>
</linearGradient>
<linearGradient id="paint84_linear_231:55092" x1="135.154" y1="52.9397" x2="135.154" y2="123.227" gradientUnits="userSpaceOnUse">
<stop stop-color="#FDFEFF"/>
<stop offset="0.9964" stop-color="#ECF0F5"/>
</linearGradient>
<linearGradient id="paint85_linear_231:55092" x1="68.3495" y1="72.3154" x2="136.96" y2="158.4" gradientUnits="userSpaceOnUse">
<stop stop-color="#83A6FF"/>
<stop offset="0.994956" stop-color="#5277D7"/>
</linearGradient>
<linearGradient id="paint86_linear_231:55092" x1="73.9002" y1="71.8294" x2="121.382" y2="71.8294" gradientUnits="userSpaceOnUse">
<stop stop-color="#FF66A9"/>
<stop offset="1" stop-color="#F53689"/>
</linearGradient>
<linearGradient id="paint87_linear_231:55092" x1="143.653" y1="136.118" x2="191.91" y2="163.376" gradientUnits="userSpaceOnUse">
<stop stop-color="#83A6FF"/>
<stop offset="0.994956" stop-color="#5277D7"/>
</linearGradient>
</defs>
</svg>
