<svg width="145" height="132" viewBox="0 0 145 132" fill="none" xmlns="http://www.w3.org/2000/svg">
<g clip-path="url(#clip0_4164_199221)">
<path d="M74.9617 114.448C101.683 114.448 123.345 92.784 123.345 66.0608C123.345 39.3375 101.683 17.6741 74.9617 17.6741C48.2406 17.6741 26.5788 39.3375 26.5788 66.0608C26.5788 92.784 48.2406 114.448 74.9617 114.448Z" fill="#EAEEF9"/>
<path d="M47.6069 54.0715H101.052C103.096 54.0715 104.849 55.7266 104.849 57.8685V91.5542C104.849 93.5987 103.194 95.3512 101.052 95.3512H47.6069C45.5625 95.3512 43.8102 93.6961 43.8102 91.5542V57.8685C43.8102 55.824 45.5625 54.0715 47.6069 54.0715Z" fill="#CED7E2"/>
<path d="M131.265 53.9719C132.774 52.5936 132.879 50.2535 131.501 48.7452C130.122 47.2369 127.782 47.1315 126.274 48.5099C124.766 49.8882 124.661 52.2283 126.039 53.7367C127.417 55.245 129.757 55.3503 131.265 53.9719Z" fill="#EAEEF9"/>
<path d="M131.538 37.5236C132.173 36.9433 132.218 35.958 131.637 35.3229C131.057 34.6878 130.072 34.6435 129.437 35.2238C128.802 35.8042 128.758 36.7895 129.338 37.4246C129.918 38.0596 130.903 38.104 131.538 37.5236Z" fill="#EAEEF9"/>
<path d="M92.2421 14.7581C92.6787 14.3591 92.7092 13.6817 92.3102 13.2451C91.9113 12.8085 91.2339 12.778 90.7973 13.177C90.3608 13.576 90.3303 14.2534 90.7292 14.69C91.1282 15.1266 91.8055 15.1571 92.2421 14.7581Z" fill="#EAEEF9"/>
<g filter="url(#filter0_d_4164_199221)">
<path d="M114.314 46.5496L105.81 78.8786C105.51 79.9661 104.392 80.6287 103.326 80.3512L72.5433 72.3402C71.4768 72.0626 70.8497 70.9458 71.1497 69.8584L82.5773 28.4363C82.8774 27.3488 83.9954 26.6862 85.0619 26.9637L107.604 33.5631L114.314 46.5496Z" fill="white"/>
<path d="M103.7 65.1908L85.046 60.2331C84.8006 60.1679 84.6733 59.8601 84.7561 59.5534C84.839 59.2467 85.1044 59.0433 85.3498 59.1085L104.004 64.0662C104.249 64.1314 104.377 64.4392 104.294 64.7459C104.211 65.0526 103.945 65.256 103.7 65.1908Z" fill="#E3EAF2"/>
<path d="M82.7241 59.5726L79.4441 58.7129C79.1993 58.6487 79.0724 58.3458 79.1551 58.0439C79.2378 57.742 79.5025 57.5418 79.7473 57.606L83.0273 58.4657C83.2721 58.5298 83.399 58.8327 83.3163 59.1346C83.2336 59.4365 82.9688 59.6367 82.7241 59.5726Z" fill="#CED7E2"/>
<path d="M104.702 61.2581L96.3636 59.0554C96.1184 58.9906 95.9911 58.6849 96.0739 58.3803C96.1567 58.0757 96.4219 57.8737 96.6671 57.9385L105.005 60.1412C105.251 60.206 105.378 60.5117 105.295 60.8163C105.212 61.1209 104.947 61.3229 104.702 61.2581Z" fill="#CED7E2"/>
<path d="M92.8128 58.0722L80.6431 54.8475C80.3978 54.7825 80.2705 54.4757 80.3533 54.17C80.4362 53.8644 80.7015 53.6616 80.9468 53.7266L93.1165 56.9514C93.3618 57.0164 93.4891 57.3231 93.4063 57.6288C93.3725 57.9475 93.0581 58.1372 92.8128 58.0722Z" fill="#E3EAF2"/>
<path d="M104.882 48.6695L108.211 49.5422C108.456 49.6063 108.72 49.406 108.803 49.1041C108.886 48.8022 108.759 48.4992 108.514 48.4351L105.185 47.5624C104.94 47.4982 104.675 47.6985 104.593 48.0004C104.496 48.3527 104.637 48.6053 104.882 48.6695Z" fill="#E3EAF2"/>
<path d="M105.914 57.3302L102.683 56.4834C102.438 56.4193 102.311 56.1164 102.394 55.8146C102.476 55.5128 102.741 55.3125 102.986 55.3767L106.217 56.2235C106.462 56.2876 106.588 56.5904 106.506 56.8923C106.423 57.1941 106.158 57.3943 105.914 57.3302Z" fill="#E3EAF2"/>
<path d="M99.6735 55.6568L90.9913 53.3623C90.7461 53.2975 90.6188 52.9917 90.7016 52.687C90.7844 52.3822 91.0496 52.1801 91.2949 52.245L100.026 54.5524C100.271 54.6172 100.399 54.923 100.316 55.2277C100.233 55.5325 99.9678 55.7346 99.6735 55.6568Z" fill="#CED7E2"/>
<path d="M87.4806 69.1454L86.3583 68.853C86.1143 68.7894 85.9878 68.4893 86.0702 68.1901C86.1526 67.891 86.4165 67.6926 86.6604 67.7562L87.7828 68.0486C88.0267 68.1122 88.1532 68.4124 88.0708 68.7115C87.9747 69.0605 87.7246 69.209 87.4806 69.1454Z" fill="#CED7E2"/>
<path d="M84.333 68.3015L77.7141 66.5565C77.469 66.4919 77.3419 66.1867 77.4247 65.8826C77.5075 65.5784 77.7727 65.3767 78.0178 65.4413L84.6367 67.1863C84.8818 67.2509 85.0089 67.5561 84.9261 67.8603C84.8294 68.2151 84.5781 68.3661 84.333 68.3015Z" fill="#E3EAF2"/>
<path d="M107.11 53.449L100.59 51.73C100.344 51.6654 100.217 51.3602 100.3 51.0561C100.383 50.752 100.648 50.5502 100.893 50.6149L107.463 52.3468C107.708 52.4115 107.835 52.7166 107.752 53.0207C107.67 53.3248 107.404 53.5266 107.11 53.449Z" fill="#CED7E2"/>
<path d="M93.0428 45.5265L101.866 47.8432C102.111 47.9075 102.378 47.7008 102.462 47.3909C102.547 47.081 102.422 46.7713 102.176 46.707L93.3535 44.3904C93.1084 44.326 92.8417 44.5328 92.757 44.8426C92.6581 45.2041 92.7977 45.4622 93.0428 45.5265Z" fill="#CED7E2"/>
<path d="M97.8194 50.9613L91.9429 49.4262C91.6981 49.3622 91.5727 49.0544 91.6574 48.7464C91.742 48.4384 92.0084 48.2329 92.2533 48.2969L98.1298 49.832C98.3747 49.896 98.5 50.2038 98.4154 50.5118C98.3797 50.8326 98.1133 51.0381 97.8194 50.9613Z" fill="#E3EAF2"/>
<path d="M101.475 38.7032L86.5569 34.7486C86.2134 34.6575 86.0018 34.2737 86.0984 33.9169C86.1951 33.5601 86.5724 33.3323 86.9159 33.4234L101.834 37.378C102.178 37.4691 102.389 37.8529 102.293 38.2097C102.196 38.5665 101.819 38.7943 101.475 38.7032Z" fill="#CED7E2"/>
<path d="M91.3314 39.8202L85.5976 38.3121C85.2545 38.2219 85.0432 37.8416 85.1397 37.4881C85.2362 37.1345 85.613 36.9089 85.956 36.9991L91.6408 38.4943C91.9838 38.5845 92.1952 38.9648 92.0987 39.3183C92.0022 39.6718 91.6254 39.8975 91.3314 39.8202Z" fill="#CED7E2"/>
<path d="M107.341 33.0409L104.882 41.9492C104.541 43.1865 105.322 44.5037 106.536 44.8194L114.304 46.8404" fill="#EAEFF4"/>
<path d="M105.771 38.0939L104.713 41.7547C104.43 43.0823 105.119 44.2828 106.361 44.712L114.344 46.899" stroke="#6F7590" stroke-miterlimit="10" stroke-linecap="round" stroke-linejoin="round"/>
<path d="M81.4143 31.3729L82.2157 28.6564C82.5596 27.5636 83.6446 26.9051 84.7388 27.2474L107.77 33.6709L114.604 47.1484L105.104 80.5844C104.76 81.6771 103.675 82.3358 102.581 81.9934L72.0616 73.1831C70.9674 72.8407 70.3087 71.7583 70.6527 70.6655L79.1334 39.9921" stroke="#6F7590" stroke-miterlimit="10" stroke-linecap="round" stroke-linejoin="round"/>
</g>
<path d="M73.1292 36.7809L83.5151 72.7406C83.8509 73.9578 83.1489 75.2078 81.9552 75.5185L47.5005 84.4852C46.3068 84.7958 45.0554 84.0541 44.7196 82.8369L31.9287 36.4735C31.593 35.2564 32.2949 34.0063 33.4886 33.6957L58.4479 27.2001L73.1292 36.7809Z" fill="white"/>
<path d="M73.4045 60.5075L52.5253 66.0566C52.2506 66.1297 51.9535 65.902 51.8608 65.5587C51.768 65.2154 51.9105 64.8709 52.1853 64.7979L73.0644 59.2488C73.3392 59.1758 73.6362 59.4034 73.729 59.7467C73.8217 60.09 73.6792 60.4345 73.4045 60.5075Z" fill="#E3EAF2"/>
<path d="M49.9259 66.7772L46.2546 67.7395C45.9806 67.8113 45.6843 67.5871 45.5917 67.2492C45.4992 66.9113 45.6412 66.5723 45.9152 66.5005L49.5865 65.5382C49.8605 65.4664 50.1568 65.6906 50.2494 66.0284C50.3419 66.3663 50.1999 66.7054 49.9259 66.7772Z" fill="#CED7E2"/>
<path d="M72.1744 56.1249L62.8414 58.5904C62.5669 58.6629 62.2701 58.4368 62.1774 58.0959C62.0848 57.7549 62.2272 57.4128 62.5017 57.3403L71.8346 54.8748C72.1091 54.8023 72.4059 55.0284 72.4986 55.3694C72.5913 55.7103 72.4489 56.0524 72.1744 56.1249Z" fill="#CED7E2"/>
<path d="M58.8671 59.6952L45.2458 63.3046C44.9711 63.3773 44.6742 63.1504 44.5815 62.8083C44.4888 62.4662 44.6312 62.1228 44.9059 62.05L58.5272 58.4407C58.8018 58.3679 59.0988 58.5948 59.1915 58.9369C59.3391 59.2645 59.1418 59.6224 58.8671 59.6952Z" fill="#E3EAF2"/>
<path d="M65.2913 43.7678L69.0175 42.791C69.2915 42.7192 69.4336 42.3801 69.341 42.0422C69.2484 41.7042 68.9521 41.4801 68.6781 41.5519L64.9519 42.5287C64.6779 42.6005 64.5359 42.9396 64.6284 43.2775C64.7364 43.6718 65.0173 43.8396 65.2913 43.7678Z" fill="#E3EAF2"/>
<path d="M71.1495 51.6255L67.5331 52.5733C67.2591 52.6451 66.9628 52.421 66.8703 52.0831C66.7777 51.7453 66.9198 51.4063 67.1937 51.3345L70.8101 50.3867C71.0841 50.3149 71.3804 50.539 71.4729 50.8769C71.5655 51.2147 71.4234 51.5537 71.1495 51.6255Z" fill="#E3EAF2"/>
<path d="M64.1652 53.5095L54.4473 56.0776C54.1728 56.1502 53.876 55.9239 53.7833 55.5829C53.6906 55.2418 53.833 54.8995 54.1075 54.8269L63.8803 52.2443C64.1549 52.1717 64.4517 52.3979 64.5444 52.739C64.637 53.0801 64.4946 53.4224 64.1652 53.5095Z" fill="#CED7E2"/>
<path d="M59.8929 73.3827L58.6367 73.71C58.3637 73.7812 58.0683 73.5591 57.9761 73.2243C57.8838 72.8895 58.0254 72.5535 58.2985 72.4824L59.5547 72.155C59.8278 72.0839 60.1231 72.3059 60.2154 72.6407C60.323 73.0314 60.166 73.3115 59.8929 73.3827Z" fill="#CED7E2"/>
<path d="M56.3715 74.347L48.9626 76.3003C48.6882 76.3727 48.3915 76.1471 48.2988 75.8069C48.2062 75.4668 48.3486 75.1255 48.623 75.0531L56.0318 73.0998C56.3062 73.0275 56.6029 73.2531 56.6956 73.5932C56.8036 73.99 56.6459 74.2747 56.3715 74.347Z" fill="#E3EAF2"/>
<path d="M70.1385 47.2022L62.8395 49.1264C62.5651 49.1987 62.2684 48.9732 62.1757 48.6331C62.0831 48.293 62.2254 47.9517 62.4998 47.8793L69.8538 45.9406C70.1282 45.8683 70.4249 46.0938 70.5175 46.434C70.6101 46.7741 70.4678 47.1154 70.1385 47.2022Z" fill="#CED7E2"/>
<path d="M52.048 47.3172L61.9235 44.7243C62.1978 44.6522 62.3382 44.3056 62.2434 43.9588C62.1485 43.6119 61.8501 43.3805 61.5757 43.4526L51.7002 46.0455C51.4259 46.1175 51.2855 46.4642 51.3803 46.811C51.4909 47.2157 51.7736 47.3893 52.048 47.3172Z" fill="#CED7E2"/>
<path d="M59.7456 50.0026L53.1681 51.7209C52.894 51.7925 52.5958 51.5624 52.5011 51.2177C52.4063 50.873 52.5466 50.5284 52.8207 50.4568L59.3982 48.7386C59.6723 48.667 59.9705 48.897 60.0653 49.2418C60.2148 49.5722 60.0745 49.9167 59.7456 50.0026Z" fill="#E3EAF2"/>
<path d="M56.4267 36.0789L39.7287 40.5053C39.3442 40.6072 38.9219 40.3523 38.8137 39.9529C38.7056 39.5536 38.9424 39.1239 39.3269 39.022L56.0249 34.5956C56.4094 34.4937 56.8317 34.7487 56.9399 35.148C57.048 35.5473 56.8112 35.977 56.4267 36.0789Z" fill="#CED7E2"/>
<path d="M47.2177 42.8233L40.8 44.5112C40.416 44.6122 39.9943 44.3596 39.8863 43.964C39.7783 43.5683 40.0148 43.1426 40.3988 43.0416L46.7617 41.3681C47.1457 41.2671 47.5674 41.5197 47.6754 41.9154C47.7834 42.311 47.5469 42.7367 47.2177 42.8233Z" fill="#CED7E2"/>
<path d="M58.8115 27.2078L61.5631 37.1787C61.9453 38.5636 63.4619 39.4158 64.8204 39.0624L73.5153 36.8003" fill="#EAEFF4"/>
<path d="M59.753 32.4053L60.6034 36.3808C61.0066 37.7717 62.2597 38.5529 63.6443 38.3302L72.2521 36.3629" stroke="#6F7590" stroke-miterlimit="10" stroke-linecap="round" stroke-linejoin="round"/>
<path d="M33.3394 40.0142L32.5089 37.109C32.1943 35.928 32.7954 34.7148 33.9768 34.3979L58.3958 27.023L73 36.5L82.8034 70.8093C83.1179 71.9902 82.5167 73.2037 81.3353 73.5206L48.8069 83.0243C47.6255 83.3412 46.4135 82.7424 46.0989 81.5615L36.5 49.5" stroke="#6F7590" stroke-miterlimit="10" stroke-linecap="round" stroke-linejoin="round"/>
<path d="M103.724 65.1033H84.8871C83.0931 65.1033 81.2993 65.7477 79.913 66.8752L74.9387 70.9021C73.5524 72.0296 71.7586 72.674 69.9646 72.674H48.5182C46.3981 72.674 44.604 74.3651 44.604 76.5396C44.604 76.7007 44.6041 76.9425 44.6857 77.1035L48.5997 97.7206C48.9258 99.6535 50.5568 101.103 52.5139 101.103H98.179C100.136 101.103 101.767 99.7341 102.093 97.8012L107.557 69.6134C107.883 67.5194 106.497 65.506 104.295 65.1839C104.132 65.1034 103.887 65.1033 103.724 65.1033Z" fill="white"/>
<path d="M108.953 61.3545H86.4654C84.3237 61.3545 82.1822 62.1335 80.5272 63.4965L74.5888 68.3644C72.9339 69.7274 70.7923 70.5065 68.6506 70.5065H43.0475C40.5164 70.5065 38.3747 72.5508 38.3747 75.1795C38.3747 75.3742 38.3748 75.6664 38.4721 75.8612L43.1447 100.784C43.5341 103.121 45.4812 104.874 47.8176 104.874H102.334C104.67 104.874 106.617 103.218 107.006 100.882L113.529 66.8066C113.918 64.2753 112.263 61.8414 109.635 61.4519C109.44 61.3546 109.148 61.3545 108.953 61.3545Z" fill="white"/>
<path d="M45.885 70.7076H43.2639C40.7399 70.7076 38.6042 72.7745 38.6042 75.4322C38.6042 75.6291 38.6043 75.9246 38.7013 76.1215L43.3609 101.32C43.7492 103.682 45.6908 105.454 48.0206 105.454H102.384C104.714 105.454 106.655 103.781 107.044 101.419L113.548 66.9668C113.936 64.4076 112.286 61.9467 109.665 61.553C109.373 61.553 109.179 61.4545 108.888 61.4545H86.4633C84.3276 61.4545 82.1918 62.2421 80.5415 63.6202L74.6199 68.5419C72.9696 69.9199 70.8338 70.7076 68.6981 70.7076H53.554" stroke="#6F7590" stroke-miterlimit="10" stroke-linecap="round" stroke-linejoin="round"/>
<path d="M65.3407 87.2515C66.6848 87.2515 67.7744 86.1618 67.7744 84.8176C67.7744 83.4734 66.6848 82.3837 65.3407 82.3837C63.9965 82.3837 62.9069 83.4734 62.9069 84.8176C62.9069 86.1618 63.9965 87.2515 65.3407 87.2515Z" fill="#1C3754"/>
<path d="M84.4214 87.1541C85.7655 87.1541 86.8551 86.0644 86.8551 84.7202C86.8551 83.376 85.7655 82.2863 84.4214 82.2863C83.0772 82.2863 81.9876 83.376 81.9876 84.7202C81.9876 86.0644 83.0772 87.1541 84.4214 87.1541Z" fill="#1C3754"/>
<path d="M69.7218 87.5826L70.9871 87.5826C72.058 89.8219 74.7839 90.6981 76.9256 89.5298C77.8017 89.1404 78.4832 88.3615 78.8726 87.5826L80.1382 87.5826C79.0673 90.5034 75.7573 91.9636 72.9341 90.8927C71.4739 90.3085 70.3059 89.1404 69.7218 87.5826Z" fill="#1C3754"/>
<path d="M15.9473 39.7093C17.4009 39.2361 18.1963 37.6721 17.7238 36.2161C17.2514 34.76 15.6899 33.9633 14.2363 34.4366C12.7826 34.9098 11.9872 36.4738 12.4597 37.9298C12.9322 39.3859 14.4936 40.1826 15.9473 39.7093Z" fill="#EAEEF9"/>
<path d="M33.1503 23.2248C34.1897 23.2248 35.0323 22.3808 35.0323 21.3397C35.0323 20.2986 34.1897 19.4546 33.1503 19.4546C32.1108 19.4546 31.2682 20.2986 31.2682 21.3397C31.2682 22.3808 32.1108 23.2248 33.1503 23.2248Z" fill="url(#paint0_linear_4164_199221)"/>
<path d="M125.74 27.2248C126.78 27.2248 127.622 26.3808 127.622 25.3397C127.622 24.2986 126.78 23.4546 125.74 23.4546C124.701 23.4546 123.858 24.2986 123.858 25.3397C123.858 26.3808 124.701 27.2248 125.74 27.2248Z" fill="url(#paint1_linear_4164_199221)"/>
<path d="M12.4862 68.0319C13.5256 68.0319 14.3683 67.188 14.3683 66.1468C14.3683 65.1057 13.5256 64.2617 12.4862 64.2617C11.4468 64.2617 10.6042 65.1057 10.6042 66.1468C10.6042 67.188 11.4468 68.0319 12.4862 68.0319Z" fill="url(#paint2_linear_4164_199221)"/>
<path d="M125.556 106.519C125.556 107.884 125.361 109.152 125.068 110.42C124.873 111.2 124.678 111.882 124.385 112.565C122.726 116.855 119.312 120.366 115.019 122.121C114.922 122.219 114.824 122.219 114.726 122.219C114.434 122.316 114.141 122.414 113.751 122.511C112.092 123.096 110.336 123.291 108.58 123.291C99.2142 123.291 91.6045 115.685 91.6045 106.324C91.6045 96.9629 99.2142 89.4545 108.58 89.4545C117.946 89.552 125.556 97.158 125.556 106.519Z" fill="url(#paint3_linear_4164_199221)"/>
<path d="M125.068 110.42C124.873 111.2 124.678 111.883 124.385 112.565C122.726 116.856 119.312 120.366 115.019 122.121L105.556 112.663L104.287 111.395L113.653 103.009L116.775 101.254L125.068 109.542V110.42Z" fill="url(#paint4_linear_4164_199221)"/>
<path d="M106.824 113.15C106.336 113.15 105.849 112.955 105.458 112.565L101.556 108.664C100.775 107.884 100.775 106.617 101.556 105.837C102.336 105.056 103.605 105.056 104.385 105.837L106.824 108.274L113.946 101.156C114.727 100.376 115.995 100.376 116.775 101.156C117.556 101.936 117.556 103.204 116.775 103.984L108.288 112.565C107.897 112.955 107.312 113.15 106.824 113.15Z" fill="url(#paint5_linear_4164_199221)"/>
<path d="M63.2913 100.057C63.2913 103.262 61.9503 106.169 59.7154 108.182C59.1194 108.703 58.4489 109.225 57.7785 109.598C56.1395 110.567 54.2771 111.089 52.1911 111.089C50.1797 111.089 48.2428 110.567 46.6038 109.598C46.3803 109.449 46.0823 109.3 45.8589 109.151C42.9534 107.138 41.091 103.858 41.091 100.057C41.1655 93.9445 46.0823 88.9503 52.1911 88.9503C58.3 88.9503 63.2913 93.9445 63.2913 100.057Z" fill="#E9F0F8"/>
<path d="M50.3292 103.038C50.4782 103.187 50.6272 103.262 50.7762 103.411C50.8507 103.486 50.9996 103.56 51.0741 103.635C51.0741 103.635 51.1486 103.635 51.1486 103.709L51.2231 103.784V104.753C51.2231 104.753 51.2231 104.753 51.1486 104.678C51.0741 104.604 50.9996 104.529 50.8506 104.455C50.7017 104.38 50.5527 104.306 50.4037 104.157C50.3292 104.157 50.3292 104.082 50.2547 104.082C50.1802 104.007 50.1057 104.007 50.0312 103.933C49.9567 103.933 49.9567 103.858 49.8822 103.858C49.5842 103.635 49.3607 103.486 49.3607 103.262C49.3607 103.113 49.5097 102.889 49.8077 102.591C50.0312 102.666 50.1802 102.815 50.3292 103.038ZM45.9338 109.151V109.076V109.002C46.0828 107.883 46.6788 106.765 47.6473 105.945C47.7962 105.871 48.0197 105.722 48.2432 105.722C48.0942 105.722 47.9452 105.647 47.8707 105.647C47.7962 105.647 47.7962 105.647 47.7218 105.573C47.4238 105.498 47.2003 105.349 47.0513 105.2C46.9768 105.126 46.9023 105.126 46.9023 105.051C46.8278 104.976 46.8278 104.976 46.7533 104.902C46.6788 104.827 46.6788 104.827 46.6043 104.753C46.5298 104.678 46.4553 104.604 46.4553 104.455C46.3808 104.38 46.3808 104.306 46.3063 104.157C46.3063 104.082 46.2318 104.007 46.2318 103.858C46.1573 103.56 46.2318 103.337 46.3063 103.038C46.3063 102.964 46.3808 102.889 46.3808 102.815C46.4553 102.666 46.4553 102.591 46.5298 102.442C46.6043 102.293 46.6788 102.218 46.8278 102.069C46.9023 101.995 46.9023 101.995 46.9768 101.92C47.0513 101.846 47.1258 101.771 47.2003 101.697C47.3493 101.548 47.4983 101.473 47.7218 101.324C48.0197 101.175 48.2432 101.026 48.6157 100.951L49.1372 100.802C49.1372 100.802 49.2117 100.802 49.2117 100.728C48.7647 100.355 48.3177 100.43 48.0942 99.7587C47.9452 99.386 48.0942 99.0878 48.1687 98.8642C48.1687 98.7897 48.2432 98.7897 48.2432 98.7151C48.3177 98.566 48.3177 98.6406 48.2432 98.4915C48.2432 98.4915 48.2432 98.4915 48.2432 98.417C48.2432 98.3424 48.2432 98.417 48.2432 98.3424C48.2432 98.2679 48.2432 98.1188 48.2432 97.9697C48.2432 97.8207 48.2432 97.7461 48.2432 97.597C48.2432 97.448 48.2432 97.3734 48.2432 97.2243C48.2432 96.8516 48.3177 96.4789 48.4667 96.1062C48.6902 95.3609 49.1372 94.7645 49.6587 94.2428L49.7332 94.1682C49.8077 94.0937 49.9567 94.0191 50.0312 93.9446C50.5527 93.5719 51.1486 93.2737 51.7446 93.1247C52.1171 93.0501 52.4151 92.9756 52.7876 92.9756C52.9366 92.9756 53.0856 92.9756 53.3091 92.9756C53.4581 92.9756 53.6071 92.9756 53.7561 93.0501C53.9051 93.0501 54.054 93.1247 54.203 93.1992C54.352 93.1992 54.4265 93.2737 54.5755 93.3483C54.799 93.4228 55.0225 93.5719 55.246 93.721C55.395 93.7955 55.544 93.8701 55.693 94.0191L55.7675 94.0937C55.9165 94.1682 56.0655 94.3173 56.14 94.4664C56.438 94.7645 56.6615 95.1372 56.885 95.5099C56.9595 95.659 57.034 95.8081 57.1084 95.9572C57.1829 96.0317 57.1829 96.1808 57.1829 96.2553C57.1829 96.3299 57.2574 96.4044 57.2574 96.4789C57.3319 96.7026 57.3319 96.8516 57.3319 97.0753C57.3319 97.1498 57.3319 97.2989 57.3319 97.3734C57.3319 97.448 57.3319 97.597 57.3319 97.6716C57.3319 97.8207 57.3319 97.9697 57.3319 98.1188C57.3319 98.417 57.4809 98.6406 57.5554 98.9387C57.6299 99.5351 57.1829 100.131 56.587 100.28C56.438 100.877 56.2145 101.473 55.842 101.995C55.4695 102.517 55.0225 102.964 54.5755 103.337V104.753V104.902C54.5755 104.902 54.65 105.051 55.395 105.051C55.4695 105.051 55.544 105.051 55.6185 105.051H56.0655C56.6615 105.051 57.1829 105.2 57.6299 105.424C58.5984 105.871 59.2689 106.765 59.7159 107.66C59.7904 107.734 59.7904 107.883 59.8649 107.958C59.2689 108.48 58.5984 109.002 57.9279 109.374H46.6043L45.9338 109.151Z" fill="white"/>
<path d="M59.7157 108.182C59.1197 108.703 58.4493 109.225 57.7788 109.598C56.1398 110.567 54.2774 111.089 52.1915 111.089C50.18 111.089 48.2431 110.567 46.6041 109.598C46.3806 109.449 46.0827 109.3 45.8592 109.151V109.076V109.002C46.0082 107.883 46.6041 106.765 47.5726 105.945C47.7216 105.871 47.9451 105.722 48.1686 105.722C48.0196 105.722 47.8706 105.647 47.7961 105.647C47.7216 105.647 47.7216 105.647 47.6471 105.573H47.5726C47.4981 105.573 47.3491 105.498 47.2746 105.424C47.1256 105.349 47.0511 105.275 46.9766 105.2C46.9021 105.126 46.8276 105.126 46.8276 105.051C46.7531 104.976 46.7531 104.976 46.6786 104.902C46.6041 104.827 46.6041 104.827 46.5296 104.753H49.1371C49.8075 105.722 50.925 106.318 52.1915 106.393C52.266 106.393 52.3405 106.393 52.4149 106.393C53.5324 106.393 54.5754 105.945 55.3204 105.126C55.3949 105.126 55.4694 105.126 55.5438 105.126H55.9908C56.5868 105.126 57.1083 105.275 57.5553 105.498C58.5238 105.945 59.1942 106.84 59.6412 107.734C59.6412 107.958 59.6412 108.033 59.7157 108.182Z" fill="url(#paint6_linear_4164_199221)"/>
<path d="M54.5009 103.411C54.4264 103.411 54.4264 103.411 54.5009 103.411V104.902L50.18 105.051L50.4035 104.082C50.478 104.082 50.478 104.157 50.5525 104.157C50.7015 104.231 50.8505 104.306 50.9995 104.455C51.074 104.529 51.1485 104.604 51.2975 104.678C51.2975 104.678 51.2975 104.678 51.372 104.753V103.784L51.2975 103.709C51.968 104.007 53.0109 104.231 54.5009 103.411Z" fill="url(#paint7_linear_4164_199221)"/>
<path d="M57.2572 97.4478C56.4377 97.746 55.4693 97.895 54.5753 97.8205C53.1598 97.746 51.7444 97.1496 50.7014 96.1806C50.3289 97.2242 49.435 97.9696 48.4665 98.4168C48.3175 98.4914 48.1685 98.5659 48.094 98.5659C48.094 98.5659 48.094 98.5659 48.094 98.4914C48.0195 97.746 48.0195 97.0006 48.3175 96.2552C48.541 95.5098 48.988 94.8389 49.5095 94.3917L49.584 94.3171C49.6584 94.2426 49.8074 94.1681 49.8819 94.0935C50.4034 93.7208 50.9994 93.4227 51.5954 93.2736C51.9679 93.1991 52.2659 93.1245 52.6384 93.1245C54.4263 93.1245 55.9162 94.0935 56.7357 95.5843C57.0337 96.1806 57.1827 96.6279 57.2572 97.1496C57.2572 97.2987 57.2572 97.3733 57.2572 97.4478Z" fill="#252E48"/>
<path d="M51.8188 107.585C51.4464 108.033 50.7759 108.107 50.1054 108.033C50.7014 107.436 50.4034 105.424 48.1685 105.647C45.1141 105.051 45.4865 101.92 48.392 101.026L48.9134 100.877L48.9879 100.951C49.2114 101.548 49.5094 102.069 49.8819 102.517C48.6899 103.56 50.3289 103.858 51.1484 104.604C51.8933 104.977 52.4893 106.765 51.8188 107.585Z" fill="#252E48"/>
<path d="M46.8045 91.2617C46.8045 94.4669 45.4635 97.3739 43.2286 99.3865C42.6326 99.9082 41.9621 100.43 41.2917 100.803C39.6527 101.772 37.7903 102.294 35.7043 102.294C33.6929 102.294 31.756 101.772 30.117 100.803C29.8935 100.654 29.5955 100.505 29.372 100.355C26.4666 98.3429 24.6042 95.0632 24.6042 91.2617C24.6787 85.1494 29.5955 80.1553 35.7043 80.1553C41.8131 80.1553 46.8045 85.1494 46.8045 91.2617Z" fill="#E9F0F8"/>
<mask id="mask0_4164_199221" style="mask-type:alpha" maskUnits="userSpaceOnUse" x="24" y="79" width="23" height="23">
<path d="M46.8045 90.561C46.8045 93.7662 45.4635 96.6732 43.2286 98.6858C42.6326 99.2076 41.9621 99.7293 41.2917 100.102C39.6527 101.071 37.7903 101.593 35.7043 101.593C33.6929 101.593 31.756 101.071 30.117 100.102C29.8935 99.953 29.5955 99.8039 29.372 99.6548C26.4666 97.6422 24.6042 94.3625 24.6042 90.561C24.6787 84.4487 29.5955 79.4546 35.7043 79.4546C41.8131 79.4546 46.8045 84.4487 46.8045 90.561Z" fill="#E9F0F8"/>
</mask>
<g mask="url(#mask0_4164_199221)">
<path d="M43.9698 98.2208C43.7871 98.4024 43.65 98.584 43.4673 98.7202C41.4112 100.627 38.6698 101.762 35.6086 101.762C33.187 101.762 30.9025 101.036 29.0293 99.7192C28.481 99.3559 27.9784 98.9019 27.5215 98.4478C27.7499 98.13 28.2068 97.9029 29.1206 97.5397L29.4861 97.4035C30.1715 97.1311 31.131 96.7678 32.3646 96.2683C32.5474 96.1775 32.7301 96.0867 32.8215 95.9051C32.8672 95.8143 32.9586 95.7235 32.9586 95.6327C33.05 95.4964 33.05 95.3148 33.05 95.1332V92.8175C33.0043 92.7721 33.0043 92.7267 32.9586 92.6813C32.7758 92.3635 32.6388 92.0456 32.5931 91.6824L32.4103 91.5916C31.8163 91.7278 31.862 91.0921 31.725 89.8661C31.6793 89.3667 31.725 89.2759 31.9534 89.1851L32.1362 88.9126C31.6793 87.9137 31.4965 87.0964 31.4965 86.3699C31.4965 85.2348 31.9991 84.4629 32.6844 84.0996C32.3646 83.3731 32.3189 83.0553 32.3189 83.0553C32.3189 83.0553 34.7405 83.4639 35.5629 83.2823C36.6138 83.0553 38.2586 83.3277 38.8526 84.7353C38.9896 84.7807 39.081 84.8261 39.2181 84.8715C39.9948 85.2802 40.269 85.825 40.3603 86.4153C40.4974 87.5051 39.9034 88.6856 39.7664 89.1851C39.7664 89.1851 39.7664 89.2305 39.8121 89.2305C39.9948 89.3213 40.0405 89.4575 39.9491 89.9116C39.8121 91.0921 39.8578 91.7732 39.2638 91.637L38.7155 92.5451C38.7155 92.6359 38.6698 92.6813 38.6698 92.7721C38.6698 92.9537 38.6698 93.2716 38.6698 95.1786C38.6698 95.224 38.6698 95.3148 38.6698 95.3602C38.6698 95.5419 38.7612 95.6781 38.8526 95.8143C38.8983 95.8597 38.944 95.9051 38.9896 95.9505C39.1267 96.0867 39.2638 96.1775 39.4465 96.2683C40.8172 96.8586 41.8224 97.2219 42.5535 97.4943C43.2388 97.8121 43.6957 98.0392 43.9698 98.2208Z" fill="white"/>
<path d="M45.0668 101.626C43.0107 103.533 38.6702 101.808 35.6089 101.808C33.1874 101.808 28.1158 103.715 26.2425 102.443C25.877 102.171 26.3339 101.127 26.471 100.809C26.6994 100.173 26.9279 99.5375 27.2477 98.9472C27.933 97.6304 31.0856 96.9948 32.365 96.3137C32.5934 96.1775 32.7305 96.0867 32.8219 95.9504C34.3296 98.0391 37.4365 98.0391 38.9443 95.9958C39.0814 96.1321 39.2184 96.2229 39.4012 96.3137C39.4469 96.3137 39.4926 96.3591 39.5383 96.3591C43.7874 98.0845 44.0616 97.8575 44.6099 99.4467C44.7012 99.7191 45.2495 101.445 45.0668 101.626Z" fill="white"/>
<path d="M45.0668 101.499C43.0107 103.406 38.6702 101.68 35.6089 101.68C33.1874 101.68 28.1158 103.587 26.2425 102.316C25.877 102.044 26.3339 100.999 26.471 100.681C26.6994 100.046 26.9279 99.4101 27.2477 98.8198C27.933 97.503 31.0856 96.8674 32.365 96.1863C32.365 96.1863 32.365 96.1863 32.4106 96.1863C34.1469 98.5928 37.7564 98.5928 39.4926 96.2317H39.5383C43.7874 97.9571 44.0616 97.7301 44.6099 99.3193C44.7012 99.5917 45.2495 101.317 45.0668 101.499Z" fill="url(#paint8_linear_4164_199221)"/>
<path d="M39.7666 89.1851C39.8123 88.9126 39.6752 88.5494 39.5838 88.2769C39.5838 88.2315 39.5381 88.1861 39.5381 88.1407C39.0812 87.2326 38.0304 86.824 37.0709 86.7786C34.5579 86.6423 34.3295 87.1418 33.5071 86.4153C33.7355 86.7786 33.7812 87.3688 33.4157 88.0953C33.1415 88.5948 32.639 88.8218 32.1821 88.958C31.0398 86.3699 31.5881 84.7353 32.7303 84.145C32.3648 83.3731 32.3191 83.0553 32.3191 83.0553C32.3191 83.0553 34.7407 83.4639 35.5631 83.2823C36.614 83.0553 38.2588 83.3277 38.8528 84.7353C39.858 85.144 40.2692 85.7796 40.3605 86.4607C40.5433 87.5505 39.9036 88.731 39.7666 89.1851Z" fill="#1C3754"/>
</g>
</g>
<defs>
<filter id="filter0_d_4164_199221" x="38.0599" y="3.6554" width="109.044" height="119.93" filterUnits="userSpaceOnUse" color-interpolation-filters="sRGB">
<feFlood flood-opacity="0" result="BackgroundImageFix"/>
<feColorMatrix in="SourceAlpha" type="matrix" values="0 0 0 0 0 0 0 0 0 0 0 0 0 0 0 0 0 0 127 0" result="hardAlpha"/>
<feOffset dy="9"/>
<feGaussianBlur stdDeviation="16"/>
<feComposite in2="hardAlpha" operator="out"/>
<feColorMatrix type="matrix" values="0 0 0 0 0 0 0 0 0 0 0 0 0 0 0 0 0 0 0.12 0"/>
<feBlend mode="normal" in2="BackgroundImageFix" result="effect1_dropShadow_4164_199221"/>
<feBlend mode="normal" in="SourceGraphic" in2="effect1_dropShadow_4164_199221" result="shape"/>
</filter>
<linearGradient id="paint0_linear_4164_199221" x1="31.3204" y1="21.2873" x2="34.9797" y2="21.2873" gradientUnits="userSpaceOnUse">
<stop stop-color="#83A6FF"/>
<stop offset="1" stop-color="#5A78FF"/>
</linearGradient>
<linearGradient id="paint1_linear_4164_199221" x1="123.912" y1="25.3337" x2="127.571" y2="25.3337" gradientUnits="userSpaceOnUse">
<stop stop-color="#FF66A9"/>
<stop offset="1" stop-color="#F53689"/>
</linearGradient>
<linearGradient id="paint2_linear_4164_199221" x1="10.694" y1="66.1589" x2="14.3533" y2="66.1589" gradientUnits="userSpaceOnUse">
<stop stop-color="#FF66A9"/>
<stop offset="1" stop-color="#F53689"/>
</linearGradient>
<linearGradient id="paint3_linear_4164_199221" x1="99.4957" y1="92.6169" x2="118.133" y2="121.014" gradientUnits="userSpaceOnUse">
<stop stop-color="#83A6FF"/>
<stop offset="1" stop-color="#5A78FF"/>
</linearGradient>
<linearGradient id="paint4_linear_4164_199221" x1="110.659" y1="106.425" x2="121.369" y2="117.14" gradientUnits="userSpaceOnUse">
<stop stop-color="#4F6AFF"/>
<stop offset="1" stop-color="#657EFF" stop-opacity="0"/>
</linearGradient>
<linearGradient id="paint5_linear_4164_199221" x1="113.459" y1="109.229" x2="106.462" y2="102.229" gradientUnits="userSpaceOnUse">
<stop offset="0.0113208" stop-color="#C2D1FF"/>
<stop offset="1" stop-color="white"/>
</linearGradient>
<linearGradient id="paint6_linear_4164_199221" x1="45.8877" y1="107.926" x2="59.7112" y2="107.926" gradientUnits="userSpaceOnUse">
<stop stop-color="#FF66A9"/>
<stop offset="1" stop-color="#F53689"/>
</linearGradient>
<linearGradient id="paint7_linear_4164_199221" x1="52.2994" y1="104.412" x2="52.2994" y2="103.666" gradientUnits="userSpaceOnUse">
<stop stop-color="white"/>
<stop offset="0.9913" stop-color="#E6EDF7"/>
</linearGradient>
<linearGradient id="paint8_linear_4164_199221" x1="26.1208" y1="99.4624" x2="45.0984" y2="99.4624" gradientUnits="userSpaceOnUse">
<stop stop-color="#83A6FF"/>
<stop offset="1" stop-color="#5A78FF"/>
</linearGradient>
<clipPath id="clip0_4164_199221">
<rect width="144.332" height="131.291" fill="white"/>
</clipPath>
</defs>
</svg>
