<svg viewBox="0 0 121 97" fill="none" xmlns="http://www.w3.org/2000/svg">
    <circle cx="55.1602" cy="47.8602" r="47.8602" fill="#EAEEF9" />
    <path
        d="M115.5 51.5602C118.372 51.5602 120.7 49.232 120.7 46.3602C120.7 43.4883 118.372 41.1602 115.5 41.1602C112.628 41.1602 110.3 43.4883 110.3 46.3602C110.3 49.232 112.628 51.5602 115.5 51.5602Z"
        fill="#EAEEF9" />
    <path
        d="M73.6687 21.7855H48.1738V12.1101H81.5936C81.6551 12.1101 81.7165 12.1101 81.7779 12.1101C86.9998 12.2334 91.2387 16.5472 91.2387 21.7855H80.1806"
        fill="#F1F3F9" />
    <path
        d="M73.6687 21.7855H48.1738V12.1101H81.5936C81.6551 12.1101 81.7165 12.1101 81.7779 12.1101C86.9998 12.2334 91.2387 16.5472 91.2387 21.7855H80.1806H73.6687Z"
        stroke="#6F7590" stroke-width="2" stroke-miterlimit="10" />
    <path
        d="M82.515 12.1101C80.5492 12.2334 78.7062 13.0345 77.416 14.3903C77.2932 14.5136 77.1703 14.6368 77.0475 14.8217C75.8802 16.1775 75.0201 17.9647 75.0201 19.8751V77.4347C75.0201 82.7962 70.7198 87.1101 65.3751 87.1101H18.4399V19.4437C18.5628 17.4717 19.3 15.6845 20.5901 14.3903C22.0031 12.9729 23.9075 12.1101 26.0577 12.1101H73.3H82.2693C82.3307 12.1101 82.3922 12.1101 82.515 12.1101Z"
        fill="white" stroke="#6F7590" stroke-width="2" stroke-miterlimit="10" stroke-linejoin="round" />
    <path
        d="M44.7335 79.4683H57.1431C57.1431 81.5636 58.0031 83.474 59.3547 84.8298C60.7062 86.2472 62.6106 87.0484 64.6994 87.0484H8.85636C6.76763 87.0484 4.86319 86.1856 3.51165 84.8298C2.16012 83.474 1.30005 81.5636 1.30005 79.4683H38.0373C38.0373 79.4683 44.8564 79.5299 44.7335 79.4683Z"
        fill="#F1F3F9" stroke="#6F7590" stroke-width="2" stroke-miterlimit="10" />
    <path
        d="M104.388 80.8787C102.217 91.4928 91.6845 98.4246 81.0436 96.1501C70.4027 93.984 63.4534 83.4782 65.7336 72.8641C68.0138 62.25 78.4376 55.3182 89.0785 57.5926C92.8788 58.3508 96.3533 60.192 99.0679 63.008C103.737 67.6652 105.691 74.3803 104.388 80.8787Z"
        fill="url(#paint0_linear_3573_118448)" />
    <path
        d="M102.419 76.4273C102.419 77.1855 102.419 77.9436 102.31 78.7018C102.202 79.2433 102.202 79.8932 101.985 80.4347C100.682 87.4747 95.0354 92.6734 88.412 93.7565C87.109 93.9731 85.806 94.0814 84.5031 93.9731L77.4453 86.9331L83.743 77.8353L90.475 72.7449L95.2526 69.2791L102.419 76.4273Z"
        fill="url(#paint1_linear_3573_118448)" />
    <path
        d="M94.8183 69.0625C91.778 68.196 88.6292 68.3044 85.6975 69.3874C85.4804 69.4957 85.2632 69.604 85.1546 69.8206C84.6117 70.3622 84.1774 70.9037 83.7431 71.5536C83.7431 71.2287 83.7431 70.9037 83.7431 70.5788C83.7431 70.4705 83.6345 70.4705 83.6345 70.4705C83.6345 70.4705 83.6345 70.4705 83.5259 70.4705C82.4401 71.012 81.5714 71.7702 80.7028 72.6366C80.4856 72.8533 80.3771 73.0699 80.3771 73.2865C80.1599 73.828 80.0513 74.3696 79.9427 74.8028C79.8342 74.5862 79.8342 74.3696 79.7256 74.1529C79.7256 74.0446 79.617 74.0446 79.617 74.0446C79.617 74.0446 79.617 74.0446 79.5084 74.0446C78.4226 75.7776 77.6625 77.7271 77.4454 79.7849C77.4454 80.2182 77.4454 80.7597 77.4454 81.1929L77.554 81.9511C77.554 82.0594 77.554 82.0594 77.6625 82.0594C77.7711 82.0594 77.7711 82.0594 77.7711 81.9511C80.3771 77.0772 83.5259 72.8533 89.1721 70.7954C89.4978 70.6871 89.8236 70.7954 89.9322 71.1203C90.0407 71.4453 89.9322 71.7702 89.6064 71.8785C82.983 74.2613 79.9427 80.0015 77.2282 85.9584C77.1196 86.2834 77.2282 86.6083 77.554 86.7166C77.8797 86.8249 78.2054 86.7166 78.314 86.3917C78.7483 85.4169 79.1827 84.4421 79.617 83.5757C79.8342 83.1425 80.2685 82.7092 80.8114 82.6009C84.7203 81.8428 88.1949 79.7849 90.5836 76.5357C90.9094 76.1025 91.2351 75.6692 91.5609 75.1277C91.6695 75.0194 91.5609 74.8028 91.4523 74.8028C91.4523 74.8028 91.4523 74.8028 91.3437 74.8028L89.2807 74.3696C91.4523 73.7197 91.9952 74.0446 92.8638 72.6366C93.5153 71.5536 94.2754 70.4705 94.9269 69.4957C95.3612 69.2791 95.3612 69.1708 94.8183 69.0625Z"
        fill="url(#paint2_linear_3573_118448)" />
    <path
        d="M17.8156 7.23862C17.4156 7.43862 16.9156 7.23862 16.7156 6.83862L14.9156 2.33862C14.7156 1.93862 14.9156 1.43862 15.3156 1.23862C15.7156 1.03862 16.2156 1.23862 16.4156 1.63862L18.2156 6.13862C18.5156 6.73862 18.3156 7.13862 17.8156 7.23862Z"
        fill="#D5DDEA" />
    <path
        d="M14.5156 11.6386C14.3156 11.8386 14.1156 11.9386 13.7156 11.8386L9.01559 10.9386C8.61559 10.8386 8.21559 10.4386 8.31559 9.9386C8.41559 9.5386 8.81559 9.1386 9.31559 9.3386L14.0156 10.2386C14.4156 10.3386 14.8156 10.7386 14.7156 11.2386C14.6156 11.3386 14.6156 11.5386 14.5156 11.6386Z"
        fill="#D5DDEA" />
    <path
        d="M24.0156 6.73856C23.9156 6.73856 23.8156 6.63856 23.6156 6.63856C23.3156 6.33856 23.2156 5.83856 23.5156 5.43856L26.4156 1.63856C26.7156 1.33856 27.2156 1.23856 27.6156 1.53856C27.9156 1.83856 28.0156 2.33856 27.7156 2.73856L24.8156 6.53856C24.5156 6.63856 24.2156 6.73856 24.0156 6.73856Z"
        fill="#D5DDEA" />
    <defs>
        <linearGradient id="paint0_linear_3573_118448" x1="65.217" y1="76.8738" x2="104.774" y2="76.8738"
            gradientUnits="userSpaceOnUse">
            <stop stop-color="#83A6FF" />
            <stop offset="1" stop-color="#5A78FF" />
        </linearGradient>
        <linearGradient id="paint1_linear_3573_118448" x1="85.0961" y1="76.8692" x2="93.2099" y2="85.0035"
            gradientUnits="userSpaceOnUse">
            <stop stop-color="#4F6AFF" />
            <stop offset="1" stop-color="#657EFF" stop-opacity="0" />
        </linearGradient>
        <linearGradient id="paint2_linear_3573_118448" x1="87.1976" y1="79.3779" x2="81.1078" y2="71.03"
            gradientUnits="userSpaceOnUse">
            <stop offset="0.0113208" stop-color="#C2D1FF" />
            <stop offset="1" stop-color="white" />
        </linearGradient>
    </defs>
</svg>