<svg width="175" height="159" viewBox="0 0 175 159" fill="none" xmlns="http://www.w3.org/2000/svg">
<path d="M81.7661 139.885C113.314 139.885 138.89 114.309 138.89 82.6483C138.89 50.9881 113.201 25.4121 81.7661 25.4121C50.2186 25.4121 24.6426 50.9881 24.6426 82.6483C24.6426 114.309 50.2186 139.885 81.7661 139.885Z" fill="#F1F3F9"/>
<path d="M5.37193 51.4587C7.00929 51.4587 8.33664 50.1314 8.33664 48.494C8.33664 46.8566 7.00929 45.5293 5.37193 45.5293C3.73457 45.5293 2.40723 46.8566 2.40723 48.494C2.40723 50.1314 3.73457 51.4587 5.37193 51.4587Z" fill="#F1F3F9"/>
<path d="M88.937 10.0737C88.5119 10.0737 88.1719 9.7337 88.1719 9.30865V0.765094C88.1719 0.340042 88.5119 0 88.937 0C89.362 0 89.7021 0.340042 89.7021 0.765094V9.30865C89.7021 9.7337 89.362 10.0737 88.937 10.0737Z" fill="#CED3DE"/>
<path d="M95.1426 16.6196C95.1426 16.1945 95.4826 15.8545 95.9077 15.8545H104.451C104.876 15.8545 105.216 16.1945 105.216 16.6196C105.216 17.0446 104.876 17.3847 104.451 17.3847H95.9077C95.4826 17.3847 95.1426 17.0446 95.1426 16.6196Z" fill="#CED3DE"/>
<path d="M94.4624 11.0935C94.1649 10.796 94.1649 10.2859 94.4624 9.98839L100.541 3.95264C100.838 3.65511 101.348 3.65511 101.646 3.95264C101.943 4.25018 101.943 4.76024 101.646 5.05778L95.6101 11.0935C95.27 11.3911 94.7599 11.3911 94.4624 11.0935Z" fill="#CED3DE"/>
<g filter="url(#filter0_d_4609_114075)">
<path d="M153.388 127.562C152.958 129.39 152.313 131.217 151.561 132.83C149.519 136.701 146.402 139.819 142.532 141.754C138.555 143.797 133.826 144.549 128.989 143.582C117.811 141.216 110.609 130.357 112.974 119.176C115.339 107.994 126.195 100.79 137.373 103.156C141.35 104.016 144.897 105.951 147.799 108.747C152.743 113.692 154.785 120.788 153.388 127.562Z" fill="url(#paint0_linear_4609_114075)"/>
</g>
<path d="M142.184 120.973L141.367 120.838C140.959 120.838 140.687 120.568 140.551 120.162C140.415 119.892 140.415 119.622 140.279 119.487C140.143 119.216 140.143 118.811 140.415 118.541L140.823 117.865C141.095 117.46 141.095 116.919 140.687 116.649L139.327 115.298C138.918 114.892 138.374 114.892 138.102 115.162L137.422 115.568C137.15 115.838 136.742 115.838 136.333 115.703C136.061 115.568 135.789 115.433 135.653 115.433C135.245 115.298 135.109 115.027 134.973 114.622L134.837 113.811C134.701 113.27 134.293 113 133.884 113H131.98C131.436 113 131.027 113.406 131.027 113.811L130.891 114.622C130.891 115.027 130.619 115.298 130.211 115.433C129.939 115.568 129.667 115.568 129.531 115.703C129.259 115.838 128.85 115.838 128.578 115.568L127.898 115.162C127.49 114.892 126.946 114.892 126.673 115.298L125.313 116.649C124.905 117.054 124.905 117.595 125.177 117.865L125.585 118.541C125.857 118.811 125.857 119.216 125.721 119.487C125.585 119.757 125.449 120.027 125.449 120.162C125.313 120.568 125.041 120.703 124.633 120.838L123.816 120.973C123.272 121.108 123 121.513 123 121.919V123.811C123 124.351 123.408 124.757 123.816 124.757L124.633 124.892C125.041 124.892 125.313 125.162 125.449 125.568C125.585 125.838 125.585 126.108 125.721 126.243C125.857 126.514 125.857 126.919 125.585 127.324L125.177 128C124.905 128.405 124.905 128.946 125.313 129.351L126.673 130.702C127.082 131.108 127.626 131.108 127.898 130.838L128.578 130.433C128.85 130.162 129.259 130.162 129.531 130.297C129.803 130.432 130.075 130.567 130.211 130.567C130.619 130.702 130.755 130.973 130.891 131.378L131.027 132.189C131.163 132.73 131.572 133 131.98 133H133.884C134.429 133 134.837 132.594 134.837 132.189L134.973 131.378C134.973 130.973 135.245 130.702 135.653 130.567C135.925 130.432 136.197 130.432 136.333 130.297C136.606 130.162 137.014 130.162 137.422 130.433L138.102 130.838C138.51 131.108 139.054 131.108 139.327 130.702L140.687 129.351C141.095 128.946 141.095 128.405 140.823 128L140.415 127.324C140.143 127.054 140.143 126.649 140.279 126.243C140.415 125.973 140.551 125.703 140.551 125.568C140.687 125.162 140.959 125.027 141.367 124.892L142.184 124.757C142.728 124.622 143 124.216 143 123.811V121.919C143 121.378 142.728 120.973 142.184 120.973ZM133.204 126.108C131.299 126.108 129.803 124.622 129.803 122.73C129.803 120.838 131.299 119.351 133.204 119.351C135.109 119.351 136.605 120.838 136.605 122.73C136.469 124.622 134.973 126.108 133.204 126.108Z" fill="white"/>
<path d="M15.0199 67.4274C15.4637 67.2799 15.7596 66.8377 15.6116 66.3954L15.3158 65.216C15.1678 64.7737 14.724 64.4788 14.2802 64.6262L3.03743 67.5748C2.59364 67.7222 2.29778 68.1645 2.44571 68.6068L2.74157 69.7862C2.8895 70.2285 3.3333 70.5234 3.77709 70.3759C4.22089 71.9976 5.40434 73.3245 6.88366 74.2091L8.9547 75.241C9.25057 75.3885 9.25057 75.6833 9.10263 75.8308L7.77125 77.5999C6.73573 78.9267 6.43986 80.6959 6.73573 82.3176C6.29193 82.465 5.99607 82.9073 6.144 83.3496L6.43986 84.529C6.5878 84.9713 7.03159 85.2661 7.47539 85.1187L18.7182 82.1702C19.162 82.0227 19.4579 81.5804 19.3099 81.1382L19.162 80.1062C19.0141 79.6639 18.5703 79.369 18.1265 79.5164C17.6827 77.8947 16.4992 76.5679 15.0199 75.8308L12.9489 74.7988C12.653 74.6513 12.5051 74.3565 12.653 74.2091L13.9844 72.4399C15.0199 70.8182 15.3158 69.0491 15.0199 67.4274ZM12.3571 71.1131L10.8778 73.1771C10.7299 73.4719 10.2861 73.4719 10.1382 73.3245L7.91918 72.1451C7.03159 71.7028 6.43986 71.1131 5.99607 70.2285C5.84814 69.9336 5.99607 69.6388 6.29193 69.4914C6.29193 69.4914 6.29193 69.4914 6.43986 69.4914L12.653 67.8696C12.9489 67.8696 13.2447 68.0171 13.2447 68.3119C13.2447 68.3119 13.2447 68.3119 13.2447 68.4594C13.0968 69.4914 12.9489 70.3759 12.3571 71.1131Z" fill="#F65199"/>
<path d="M127.949 35.9919C127.483 36.0194 127.082 36.3701 127.111 36.8356L127.091 38.0514C127.12 38.5169 127.472 38.9166 127.939 38.889L139.562 38.9508C140.029 38.9232 140.429 38.5726 140.4 38.1071L140.42 36.8913C140.392 36.4258 140.039 36.0261 139.572 36.0537C139.563 34.3723 138.764 32.7844 137.564 31.5471L135.83 30.0143C135.583 29.7953 135.659 29.5105 135.84 29.4064L137.584 28.0421C138.928 27.0285 139.671 25.3962 139.805 23.7532C140.272 23.7256 140.672 23.375 140.644 22.9095L140.663 21.6937C140.635 21.2282 140.283 20.8285 139.816 20.856L128.193 20.7943C127.726 20.8218 127.326 21.1725 127.354 21.638L127.23 22.6731C127.258 23.1386 127.611 23.5382 128.078 23.5107C128.087 25.192 128.886 26.78 130.124 27.8748L131.858 29.4077C132.105 29.6267 132.172 29.9498 131.991 30.0539L130.247 31.4182C128.827 32.7166 128.083 34.3489 127.949 35.9919ZM131.475 33.121L133.439 31.5102C133.658 31.2637 134.086 31.3785 134.191 31.5592L136.029 33.2728C136.772 33.9297 137.191 34.6525 137.391 35.6217C137.457 35.9448 137.238 36.1914 136.914 36.2572C136.914 36.2572 136.914 36.2572 136.771 36.2189L130.35 36.1773C130.064 36.1007 129.817 35.8817 129.893 35.5969C129.893 35.5969 129.893 35.5969 129.931 35.4545C130.341 34.496 130.713 33.6798 131.475 33.121Z" fill="#F65199"/>
<g filter="url(#filter1_d_4609_114075)">
<path d="M95.0154 97.4121C96.861 97.4121 98.3572 98.9083 98.3572 100.754V127.321C98.3572 129.167 96.861 130.663 95.0154 130.663H26.9258C25.0802 130.663 23.584 129.167 23.584 127.321L23.584 100.754C23.584 98.9083 25.0802 97.4121 26.9258 97.4121L95.0154 97.4121Z" fill="url(#paint1_linear_4609_114075)"/>
</g>
<g filter="url(#filter2_d_4609_114075)">
<path d="M153.251 55.0586C155.096 55.0586 156.593 56.5548 156.593 58.4004V84.9679C156.593 86.8135 155.096 88.3097 153.251 88.3097H85.1612C83.3155 88.3097 81.8193 86.8135 81.8193 84.9679L81.8193 58.4004C81.8193 56.5548 83.3155 55.0586 85.1612 55.0586L153.251 55.0586Z" fill="url(#paint2_linear_4609_114075)"/>
</g>
<rect x="108.29" y="65.6465" width="30.7059" height="4.23529" rx="2.11765" fill="#CED3DE"/>
<rect x="108.29" y="74.1172" width="41.2941" height="4.23529" rx="2.11765" fill="#CED3DE"/>
<rect x="87.1133" y="63.5293" width="16.9412" height="16.9412" rx="8.47059" fill="#CED3DE"/>
<g filter="url(#filter3_d_4609_114075)">
<path d="M89.8386 13C91.6843 13 93.1805 14.4962 93.1805 16.3418V42.9093C93.1805 44.7549 91.6843 46.2511 89.8386 46.2511H21.7491C19.9034 46.2511 18.4072 44.755 18.4072 42.9093L18.4072 16.3418C18.4072 14.4962 19.9034 13 21.749 13L89.8386 13Z" fill="url(#paint3_linear_4609_114075)"/>
</g>
<rect x="44.7598" y="23.2939" width="42.3529" height="4.23529" rx="2.11765" fill="#CED3DE"/>
<rect x="50.0547" y="108" width="24.3529" height="4.23529" rx="2.11765" fill="#CED3DE"/>
<rect x="44.7598" y="31.7646" width="28.5882" height="4.23529" rx="2.11765" fill="#CED3DE"/>
<rect x="50.0547" y="116.471" width="30.7059" height="4.23529" rx="2.11765" fill="#CED3DE"/>
<rect x="23.584" y="21.1768" width="16.9412" height="16.9412" rx="8.47059" fill="#CED3DE"/>
<g clip-path="url(#clip0_4609_114075)">
<rect x="28.8779" y="105.883" width="16.9412" height="16.9412" rx="8.47059" fill="#CED3DE"/>
</g>
<defs>
<filter id="filter0_d_4609_114075" x="104.054" y="99.5296" width="58.2351" height="58.2351" filterUnits="userSpaceOnUse" color-interpolation-filters="sRGB">
<feFlood flood-opacity="0" result="BackgroundImageFix"/>
<feColorMatrix in="SourceAlpha" type="matrix" values="0 0 0 0 0 0 0 0 0 0 0 0 0 0 0 0 0 0 127 0" result="hardAlpha"/>
<feOffset dy="5.29412"/>
<feGaussianBlur stdDeviation="4.23529"/>
<feColorMatrix type="matrix" values="0 0 0 0 0.1125 0 0 0 0 0.295916 0 0 0 0 1 0 0 0 0.22 0"/>
<feBlend mode="normal" in2="BackgroundImageFix" result="effect1_dropShadow_4609_114075"/>
<feBlend mode="normal" in="SourceGraphic" in2="effect1_dropShadow_4609_114075" result="shape"/>
</filter>
<filter id="filter1_d_4609_114075" x="5.20397" y="88.2221" width="111.533" height="70.011" filterUnits="userSpaceOnUse" color-interpolation-filters="sRGB">
<feFlood flood-opacity="0" result="BackgroundImageFix"/>
<feColorMatrix in="SourceAlpha" type="matrix" values="0 0 0 0 0 0 0 0 0 0 0 0 0 0 0 0 0 0 127 0" result="hardAlpha"/>
<feOffset dy="9.19001"/>
<feGaussianBlur stdDeviation="9.19001"/>
<feColorMatrix type="matrix" values="0 0 0 0 0.397708 0 0 0 0 0.47749 0 0 0 0 0.575 0 0 0 0.27 0"/>
<feBlend mode="normal" in2="BackgroundImageFix" result="effect1_dropShadow_4609_114075"/>
<feBlend mode="normal" in="SourceGraphic" in2="effect1_dropShadow_4609_114075" result="shape"/>
</filter>
<filter id="filter2_d_4609_114075" x="63.4393" y="45.8686" width="111.533" height="70.011" filterUnits="userSpaceOnUse" color-interpolation-filters="sRGB">
<feFlood flood-opacity="0" result="BackgroundImageFix"/>
<feColorMatrix in="SourceAlpha" type="matrix" values="0 0 0 0 0 0 0 0 0 0 0 0 0 0 0 0 0 0 127 0" result="hardAlpha"/>
<feOffset dy="9.19001"/>
<feGaussianBlur stdDeviation="9.19001"/>
<feColorMatrix type="matrix" values="0 0 0 0 0.397708 0 0 0 0 0.47749 0 0 0 0 0.575 0 0 0 0.27 0"/>
<feBlend mode="normal" in2="BackgroundImageFix" result="effect1_dropShadow_4609_114075"/>
<feBlend mode="normal" in="SourceGraphic" in2="effect1_dropShadow_4609_114075" result="shape"/>
</filter>
<filter id="filter3_d_4609_114075" x="0.0272121" y="3.80999" width="111.533" height="70.011" filterUnits="userSpaceOnUse" color-interpolation-filters="sRGB">
<feFlood flood-opacity="0" result="BackgroundImageFix"/>
<feColorMatrix in="SourceAlpha" type="matrix" values="0 0 0 0 0 0 0 0 0 0 0 0 0 0 0 0 0 0 127 0" result="hardAlpha"/>
<feOffset dy="9.19001"/>
<feGaussianBlur stdDeviation="9.19001"/>
<feColorMatrix type="matrix" values="0 0 0 0 0.397708 0 0 0 0 0.47749 0 0 0 0 0.575 0 0 0 0.27 0"/>
<feBlend mode="normal" in2="BackgroundImageFix" result="effect1_dropShadow_4609_114075"/>
<feBlend mode="normal" in="SourceGraphic" in2="effect1_dropShadow_4609_114075" result="shape"/>
</filter>
<linearGradient id="paint0_linear_4609_114075" x1="114.941" y1="113.52" x2="151.503" y2="134.114" gradientUnits="userSpaceOnUse">
<stop stop-color="#83A6FF"/>
<stop offset="0.994956" stop-color="#5277D7"/>
</linearGradient>
<linearGradient id="paint1_linear_4609_114075" x1="60.9462" y1="96.643" x2="60.9462" y2="131.022" gradientUnits="userSpaceOnUse">
<stop stop-color="#FDFEFF"/>
<stop offset="0.9964" stop-color="#ECF0F5"/>
</linearGradient>
<linearGradient id="paint2_linear_4609_114075" x1="119.182" y1="54.2895" x2="119.182" y2="88.6682" gradientUnits="userSpaceOnUse">
<stop stop-color="#FDFEFF"/>
<stop offset="0.9964" stop-color="#ECF0F5"/>
</linearGradient>
<linearGradient id="paint3_linear_4609_114075" x1="55.7695" y1="12.2309" x2="55.7695" y2="46.6096" gradientUnits="userSpaceOnUse">
<stop stop-color="#FDFEFF"/>
<stop offset="0.9964" stop-color="#ECF0F5"/>
</linearGradient>
<clipPath id="clip0_4609_114075">
<rect x="28.8779" y="105.883" width="16.9412" height="16.9412" rx="3.76471" fill="white"/>
</clipPath>
</defs>
</svg>
