<svg width="155" height="140" viewBox="0 0 155 140" fill="none" xmlns="http://www.w3.org/2000/svg">
<path d="M82.9659 110.993C109.687 110.993 131.349 89.3296 131.349 62.6063C131.349 35.8831 109.687 14.2196 82.9659 14.2196C56.2448 14.2196 34.583 35.8831 34.583 62.6063C34.583 89.3296 56.2448 110.993 82.9659 110.993Z" fill="#EAEEF9"/>
<g filter="url(#filter0_d_3945_203354)">
<path d="M55.6111 50.6171H109.056C111.101 50.6171 112.853 52.2721 112.853 54.414V88.0997C112.853 90.1442 111.198 91.8967 109.056 91.8967H55.6111C53.5668 91.8967 51.8145 90.2416 51.8145 88.0997V54.414C51.8145 52.3695 53.5668 50.6171 55.6111 50.6171Z" fill="#CED7E2"/>
</g>
<path d="M139.269 50.5175C140.777 49.1391 140.883 46.799 139.505 45.2907C138.126 43.7824 135.786 43.677 134.278 45.0554C132.77 46.4338 132.665 48.7739 134.043 50.2822C135.421 51.7905 137.761 51.8958 139.269 50.5175Z" fill="#EAEEF9"/>
<path d="M139.542 34.0692C140.177 33.4888 140.222 32.5035 139.641 31.8684C139.061 31.2333 138.076 31.189 137.441 31.7694C136.806 32.3497 136.761 33.335 137.342 33.9701C137.922 34.6052 138.907 34.6495 139.542 34.0692Z" fill="#EAEEF9"/>
<path d="M100.246 11.3036C100.683 10.9046 100.713 10.2272 100.314 9.79061C99.9152 9.35399 99.2378 9.3235 98.8012 9.7225C98.3647 10.1215 98.3342 10.7989 98.7331 11.2355C99.1321 11.6721 99.8094 11.7026 100.246 11.3036Z" fill="#EAEEF9"/>
<g filter="url(#filter1_d_3945_203354)">
<g filter="url(#filter2_d_3945_203354)">
<path d="M122.318 43.0906L113.815 75.4196C113.515 76.5071 112.397 77.1698 111.33 76.8922L80.5475 68.8812C79.481 68.6037 78.8539 67.4868 79.1539 66.3994L90.5815 24.9773C90.8816 23.8899 91.9996 23.2272 93.0661 23.5048L115.365 29.308L122.318 43.0906Z" fill="white"/>
</g>
<path d="M111.704 61.7318L93.0502 56.7741C92.8048 56.7089 92.6775 56.4011 92.7603 56.0944C92.8432 55.7877 93.1086 55.5843 93.354 55.6495L112.008 60.6072C112.253 60.6725 112.381 60.9802 112.298 61.2869C112.215 61.5937 111.95 61.7971 111.704 61.7318Z" fill="#E3EAF2"/>
<path d="M90.7283 56.1136L87.4483 55.2539C87.2035 55.1897 87.0766 54.8868 87.1593 54.5849C87.242 54.2831 87.5067 54.0828 87.7515 54.147L91.0315 55.0067C91.2762 55.0708 91.4031 55.3737 91.3204 55.6756C91.2378 55.9775 90.973 56.1778 90.7283 56.1136Z" fill="#CED7E2"/>
<path d="M112.706 57.7991L104.368 55.5964C104.123 55.5316 103.995 55.226 104.078 54.9214C104.161 54.6168 104.426 54.4147 104.671 54.4795L113.01 56.6822C113.255 56.747 113.382 57.0527 113.299 57.3573C113.217 57.6619 112.951 57.8639 112.706 57.7991Z" fill="#CED7E2"/>
<path d="M100.817 54.6132L88.6473 51.3885C88.402 51.3235 88.2747 51.0167 88.3575 50.711C88.4403 50.4054 88.7057 50.2026 88.951 50.2677L101.121 53.4924C101.366 53.5574 101.493 53.8641 101.41 54.1698C101.377 54.4885 101.062 54.6782 100.817 54.6132Z" fill="#E3EAF2"/>
<path d="M112.886 45.2106L116.215 46.0833C116.46 46.1475 116.724 45.9472 116.807 45.6453C116.89 45.3433 116.763 45.0404 116.518 44.9762L113.189 44.1035C112.944 44.0394 112.68 44.2396 112.597 44.5416C112.5 44.8938 112.641 45.1464 112.886 45.2106Z" fill="#E3EAF2"/>
<path d="M113.918 53.8712L110.687 53.0245C110.442 52.9603 110.315 52.6575 110.398 52.3556C110.481 52.0538 110.745 51.8536 110.99 51.9177L114.221 52.7645C114.466 52.8286 114.593 53.1315 114.51 53.4333C114.427 53.7351 114.163 53.9354 113.918 53.8712Z" fill="#E3EAF2"/>
<path d="M107.678 52.1978L98.9955 49.9034C98.7502 49.8385 98.623 49.5327 98.7058 49.228C98.7886 48.9233 99.0538 48.7212 99.2991 48.786L108.03 51.0934C108.276 51.1582 108.403 51.464 108.32 51.7687C108.237 52.0735 107.972 52.2756 107.678 52.1978Z" fill="#CED7E2"/>
<path d="M95.4848 65.6865L94.3624 65.394C94.1185 65.3304 93.992 65.0303 94.0744 64.7311C94.1568 64.432 94.4206 64.2336 94.6646 64.2972L95.7869 64.5897C96.0309 64.6532 96.1574 64.9534 96.075 65.2525C95.9789 65.6015 95.7287 65.75 95.4848 65.6865Z" fill="#CED7E2"/>
<path d="M92.3371 64.8425L85.7183 63.0975C85.4731 63.0329 85.346 62.7277 85.4289 62.4236C85.5117 62.1194 85.7768 61.9177 86.022 61.9823L92.6408 63.7273C92.886 63.792 93.0131 64.0971 92.9302 64.4013C92.8336 64.7561 92.5823 64.9072 92.3371 64.8425Z" fill="#E3EAF2"/>
<path d="M115.114 49.99L108.594 48.271C108.349 48.2064 108.222 47.9012 108.304 47.5971C108.387 47.293 108.652 47.0913 108.897 47.1559L115.467 48.8878C115.712 48.9525 115.839 49.2576 115.757 49.5617C115.674 49.8658 115.409 50.0676 115.114 49.99Z" fill="#CED7E2"/>
<path d="M101.047 42.0676L109.87 44.3842C110.115 44.4485 110.382 44.2418 110.467 43.9319C110.551 43.6221 110.426 43.3124 110.181 43.248L101.358 40.9314C101.113 40.867 100.846 41.0738 100.761 41.3836C100.662 41.7451 100.802 42.0032 101.047 42.0676Z" fill="#CED7E2"/>
<path d="M105.824 47.5023L99.9471 45.9672C99.7023 45.9033 99.5769 45.5954 99.6616 45.2874C99.7462 44.9794 100.013 44.7739 100.257 44.8379L106.134 46.373C106.379 46.437 106.504 46.7448 106.42 47.0528C106.384 47.3736 106.117 47.5791 105.824 47.5023Z" fill="#E3EAF2"/>
<path d="M109.48 35.2442L94.5611 31.2896C94.2176 31.1985 94.006 30.8147 94.1026 30.4579C94.1993 30.1011 94.5765 29.8733 94.9201 29.9644L109.838 33.919C110.182 34.0101 110.394 34.3939 110.297 34.7507C110.2 35.1075 109.823 35.3353 109.48 35.2442Z" fill="#CED7E2"/>
<path d="M99.3356 36.3612L93.6018 34.8531C93.2587 34.7629 93.0474 34.3826 93.1439 34.0291C93.2404 33.6756 93.6172 33.4499 93.9602 33.5401L99.645 35.0353C99.988 35.1255 100.199 35.5058 100.103 35.8593C100.006 36.2128 99.6296 36.4385 99.3356 36.3612Z" fill="#CED7E2"/>
<path d="M115.345 29.5819L112.886 38.4902C112.545 39.7275 113.326 41.0447 114.54 41.3604L122.308 43.3815" fill="#EAEFF4"/>
</g>
<g filter="url(#filter3_d_3945_203354)">
<g filter="url(#filter4_d_3945_203354)">
<path d="M81.4196 33.6177L91.8055 69.5774C92.1413 70.7946 91.4394 72.0446 90.2457 72.3553L55.7909 81.3219C54.5972 81.6326 53.3458 80.8909 53.01 79.6737L40.2192 33.3103C39.8834 32.0932 40.5853 30.8431 41.779 30.5325L66.7384 24.0369L81.4196 33.6177Z" fill="white"/>
</g>
<path d="M81.6949 57.3444L60.8158 62.8936C60.541 62.9666 60.244 62.7389 60.1512 62.3956C60.0585 62.0523 60.201 61.7078 60.4757 61.6348L81.3549 56.0857C81.6296 56.0127 81.9267 56.2403 82.0194 56.5836C82.1121 56.9269 81.9696 57.2714 81.6949 57.3444Z" fill="#E3EAF2"/>
<path d="M58.2163 63.614L54.545 64.5762C54.2711 64.6481 53.9747 64.4239 53.8822 64.086C53.7896 63.7481 53.9317 63.4091 54.2057 63.3373L57.8769 62.375C58.1509 62.3032 58.4472 62.5273 58.5398 62.8652C58.6323 63.2031 58.4903 63.5422 58.2163 63.614Z" fill="#CED7E2"/>
<path d="M80.4649 52.9617L71.1319 55.4272C70.8574 55.4997 70.5606 55.2736 70.4679 54.9327C70.3753 54.5917 70.5176 54.2496 70.7921 54.1771L80.1251 51.7116C80.3996 51.6391 80.6964 51.8652 80.7891 52.2062C80.8817 52.5471 80.7394 52.8892 80.4649 52.9617Z" fill="#CED7E2"/>
<path d="M67.1576 56.532L53.5362 60.1414C53.2616 60.2141 52.9646 59.9872 52.8719 59.6451C52.7792 59.3029 52.9217 58.9596 53.1963 58.8868L66.8177 55.2774C67.0923 55.2047 67.3892 55.4316 67.4819 55.7737C67.6296 56.1013 67.4322 56.4592 67.1576 56.532Z" fill="#E3EAF2"/>
<path d="M73.5818 40.6047L77.308 39.628C77.582 39.5561 77.724 39.2171 77.6315 38.8791C77.5389 38.5412 77.2426 38.317 76.9686 38.3888L73.2424 39.3656C72.9684 39.4374 72.8263 39.7765 72.9189 40.1144C73.0269 40.5087 73.3078 40.6766 73.5818 40.6047Z" fill="#E3EAF2"/>
<path d="M79.4399 48.4624L75.8236 49.4102C75.5496 49.482 75.2533 49.2579 75.1607 48.92C75.0682 48.5822 75.2102 48.2432 75.4842 48.1714L79.1005 47.2237C79.3745 47.1519 79.6708 47.3759 79.7634 47.7138C79.8559 48.0516 79.7139 48.3906 79.4399 48.4624Z" fill="#E3EAF2"/>
<path d="M72.4557 50.3464L62.7378 52.9145C62.4633 52.9871 62.1664 52.7609 62.0738 52.4198C61.9811 52.0787 62.1235 51.7364 62.398 51.6638L72.1708 49.0812C72.4453 49.0086 72.7421 49.2349 72.8348 49.5759C72.9275 49.917 72.7851 50.2593 72.4557 50.3464Z" fill="#CED7E2"/>
<path d="M68.1834 70.2196L66.9272 70.5469C66.6541 70.6181 66.3588 70.396 66.2665 70.0612C66.1743 69.7264 66.3159 69.3905 66.589 69.3193L67.8451 68.9919C68.1182 68.9208 68.4136 69.1428 68.5058 69.4777C68.6134 69.8683 68.4565 70.1484 68.1834 70.2196Z" fill="#CED7E2"/>
<path d="M64.6619 71.1839L57.253 73.1372C56.9786 73.2096 56.6819 72.984 56.5893 72.6439C56.4967 72.3037 56.639 71.9624 56.9134 71.89L64.3223 69.9367C64.5967 69.8644 64.8934 70.09 64.986 70.4301C65.0941 70.827 64.9363 71.1116 64.6619 71.1839Z" fill="#E3EAF2"/>
<path d="M78.429 44.0391L71.1299 45.9633C70.8555 46.0357 70.5588 45.8101 70.4662 45.47C70.3736 45.1299 70.5159 44.7886 70.7903 44.7162L78.1442 42.7775C78.4186 42.7052 78.7153 42.9308 78.808 43.2709C78.9006 43.611 78.7583 43.9523 78.429 44.0391Z" fill="#CED7E2"/>
<path d="M60.3384 44.1541L70.2139 41.5612C70.4882 41.4891 70.6287 41.1425 70.5338 40.7957C70.439 40.4488 70.1405 40.2174 69.8662 40.2895L59.9907 42.8824C59.7163 42.9545 59.5759 43.3011 59.6708 43.6479C59.7814 44.0526 60.0641 44.2262 60.3384 44.1541Z" fill="#CED7E2"/>
<path d="M68.0361 46.8396L61.4586 48.5578C61.1845 48.6294 60.8863 48.3994 60.7915 48.0546C60.6968 47.7099 60.8371 47.3653 61.1111 47.2937L67.6887 45.5755C67.9628 45.5039 68.261 45.7339 68.3557 46.0787C68.5053 46.4091 68.365 46.7536 68.0361 46.8396Z" fill="#E3EAF2"/>
<path d="M64.7171 32.9158L48.0191 37.3422C47.6346 37.4441 47.2123 37.1892 47.1042 36.7899C46.996 36.3905 47.2329 35.9609 47.6173 35.8589L64.3154 31.4326C64.6999 31.3306 65.1222 31.5856 65.2303 31.9849C65.3385 32.3843 65.1016 32.8139 64.7171 32.9158Z" fill="#CED7E2"/>
<path d="M55.5082 39.6602L49.0904 41.3482C48.7064 41.4491 48.2847 41.1965 48.1767 40.8009C48.0687 40.4052 48.3053 39.9795 48.6892 39.8785L55.0521 38.205C55.4361 38.104 55.8578 38.3566 55.9658 38.7523C56.0738 39.1479 55.8373 39.5737 55.5082 39.6602Z" fill="#CED7E2"/>
<path d="M67.1019 24.0446L69.8536 34.0155C70.2358 35.4004 71.7523 36.2526 73.1109 35.8992L81.8057 33.6371" fill="#EAEFF4"/>
</g>
<g filter="url(#filter5_d_3945_203354)">
<path d="M111.728 61.6489H92.8914C91.0974 61.6489 89.3035 62.2934 87.9172 63.4209L82.9429 67.4477C81.5567 68.5752 79.7628 69.2197 77.9688 69.2197H56.5225C54.4023 69.2197 52.6083 70.9108 52.6083 73.0853C52.6083 73.2463 52.6084 73.4881 52.6899 73.6492L56.6039 94.2662C56.9301 96.1991 58.561 97.6489 60.5181 97.6489H106.183C108.14 97.6489 109.771 96.2797 110.097 94.3468L115.561 66.1591C115.887 64.0651 114.501 62.0517 112.299 61.7295C112.136 61.649 111.891 61.6489 111.728 61.6489Z" fill="white"/>
</g>
<g filter="url(#filter6_d_3945_203354)">
<path d="M116.958 57.9H94.4697C92.328 57.9 90.1864 58.6791 88.5315 60.0421L82.593 64.91C80.9381 66.273 78.7965 67.052 76.6548 67.052H51.0517C48.5207 67.052 46.3789 69.0963 46.3789 71.725C46.3789 71.9197 46.379 72.212 46.4764 72.4067L51.149 97.3298C51.5384 99.6664 53.4854 101.419 55.8218 101.419H110.338C112.674 101.419 114.621 99.7639 115.011 97.4273L121.533 63.3521C121.922 60.8208 120.267 58.3869 117.639 57.9975C117.444 57.9001 117.152 57.9 116.958 57.9Z" fill="white"/>
</g>
<path d="M73.3449 83.7971C74.689 83.7971 75.7786 82.7074 75.7786 81.3631C75.7786 80.0189 74.689 78.9292 73.3449 78.9292C72.0008 78.9292 70.9111 80.0189 70.9111 81.3631C70.9111 82.7074 72.0008 83.7971 73.3449 83.7971Z" fill="#1C3754"/>
<path d="M92.4256 83.6997C93.7697 83.6997 94.8593 82.61 94.8593 81.2657C94.8593 79.9215 93.7697 78.8318 92.4256 78.8318C91.0814 78.8318 89.9918 79.9215 89.9918 81.2657C89.9918 82.61 91.0814 83.6997 92.4256 83.6997Z" fill="#1C3754"/>
<path d="M77.7257 84.1282L78.9911 84.1282C80.0619 86.3674 82.7878 87.2436 84.9295 86.0753C85.8056 85.6859 86.4871 84.907 86.8765 84.1282L88.1421 84.1282C87.0712 87.0489 83.7612 88.5092 80.9381 87.4382C79.4778 86.8541 78.3098 85.6859 77.7257 84.1282Z" fill="#1C3754"/>
<path d="M23.9515 36.2549C25.4051 35.7816 26.2005 34.2176 25.728 32.7616C25.2556 31.3055 23.6941 30.5088 22.2405 30.9821C20.7868 31.4553 19.9914 33.0193 20.4639 34.4754C20.9364 35.9314 22.4978 36.7281 23.9515 36.2549Z" fill="#EAEEF9"/>
<path d="M41.1545 19.7704C42.1939 19.7704 43.0365 18.9264 43.0365 17.8852C43.0365 16.8441 42.1939 16.0001 41.1545 16.0001C40.1151 16.0001 39.2725 16.8441 39.2725 17.8852C39.2725 18.9264 40.1151 19.7704 41.1545 19.7704Z" fill="url(#paint0_linear_3945_203354)"/>
<path d="M133.744 23.7704C134.784 23.7704 135.626 22.9264 135.626 21.8852C135.626 20.8441 134.784 20.0001 133.744 20.0001C132.705 20.0001 131.862 20.8441 131.862 21.8852C131.862 22.9264 132.705 23.7704 133.744 23.7704Z" fill="url(#paint1_linear_3945_203354)"/>
<path d="M20.4904 64.5775C21.5298 64.5775 22.3725 63.7335 22.3725 62.6924C22.3725 61.6512 21.5298 60.8073 20.4904 60.8073C19.451 60.8073 18.6084 61.6512 18.6084 62.6924C18.6084 63.7335 19.451 64.5775 20.4904 64.5775Z" fill="url(#paint2_linear_3945_203354)"/>
<g filter="url(#filter7_d_3945_203354)">
<path d="M133.56 103.065C133.56 104.43 133.364 105.698 133.072 106.965C132.877 107.745 132.682 108.428 132.389 109.11C130.73 113.401 127.316 116.911 123.023 118.667C122.925 118.764 122.828 118.764 122.73 118.764C122.438 118.862 122.145 118.959 121.755 119.057C120.096 119.642 118.34 119.837 116.584 119.837C107.218 119.837 99.6084 112.231 99.6084 102.87C99.6084 93.5085 107.218 86 116.584 86C125.95 86.0975 133.56 93.7035 133.56 103.065Z" fill="url(#paint3_linear_3945_203354)"/>
</g>
<path d="M133.072 106.965C132.877 107.746 132.682 108.428 132.389 109.111C130.73 113.401 127.316 116.912 123.023 118.667L113.56 109.208L112.291 107.941L121.657 99.5545L124.779 97.7993L133.072 106.088V106.965Z" fill="url(#paint4_linear_3945_203354)"/>
<path d="M114.828 109.696C114.34 109.696 113.852 109.501 113.462 109.11L109.56 105.21C108.779 104.43 108.779 103.162 109.56 102.382C110.34 101.602 111.609 101.602 112.389 102.382L114.828 104.82L121.95 97.7015C122.73 96.9214 123.999 96.9214 124.779 97.7015C125.56 98.4816 125.56 99.7493 124.779 100.529L116.291 109.11C115.901 109.501 115.316 109.696 114.828 109.696Z" fill="url(#paint5_linear_3945_203354)"/>
<path d="M71.2955 96.6022C71.2955 99.8074 69.9545 102.714 67.7196 104.727C67.1236 105.249 66.4532 105.771 65.7827 106.143C64.1437 107.112 62.2813 107.634 60.1954 107.634C58.1839 107.634 56.247 107.112 54.608 106.143C54.3845 105.994 54.0866 105.845 53.8631 105.696C50.9577 103.683 49.0952 100.404 49.0952 96.6022C49.1697 90.49 54.0866 85.4958 60.1954 85.4958C66.3042 85.4958 71.2955 90.49 71.2955 96.6022Z" fill="#E9F0F8"/>
<path d="M58.3334 99.5838C58.4824 99.7329 58.6314 99.8074 58.7804 99.9565C58.8549 100.031 59.0039 100.106 59.0784 100.18C59.0784 100.18 59.1529 100.18 59.1529 100.255L59.2273 100.329V101.298C59.2273 101.298 59.2273 101.298 59.1529 101.224C59.0784 101.149 59.0039 101.075 58.8549 101C58.7059 100.926 58.5569 100.851 58.4079 100.702C58.3334 100.702 58.3334 100.627 58.2589 100.627C58.1844 100.553 58.1099 100.553 58.0354 100.478C57.9609 100.478 57.9609 100.404 57.8864 100.404C57.5884 100.18 57.3649 100.031 57.3649 99.8074C57.3649 99.6584 57.5139 99.4348 57.8119 99.1366C58.0354 99.2111 58.1844 99.3602 58.3334 99.5838ZM53.938 105.696V105.622V105.547C54.087 104.429 54.683 103.311 55.6515 102.491C55.8005 102.416 56.024 102.267 56.2474 102.267C56.0984 102.267 55.9495 102.193 55.875 102.193C55.8005 102.193 55.8005 102.193 55.726 102.118C55.428 102.044 55.2045 101.895 55.0555 101.745C54.981 101.671 54.9065 101.671 54.9065 101.596C54.832 101.522 54.832 101.522 54.7575 101.447C54.683 101.373 54.683 101.373 54.6085 101.298C54.534 101.224 54.4595 101.149 54.4595 101C54.385 100.926 54.385 100.851 54.3105 100.702C54.3105 100.627 54.236 100.553 54.236 100.404C54.1615 100.106 54.236 99.882 54.3105 99.5838C54.3105 99.5093 54.385 99.4348 54.385 99.3602C54.4595 99.2111 54.4595 99.1366 54.534 98.9875C54.6085 98.8384 54.683 98.7639 54.832 98.6148C54.9065 98.5403 54.9065 98.5403 54.981 98.4657C55.0555 98.3912 55.13 98.3167 55.2045 98.2421C55.3535 98.093 55.5025 98.0185 55.726 97.8694C56.024 97.7203 56.2474 97.5713 56.6199 97.4967L57.1414 97.3476C57.1414 97.3476 57.2159 97.3476 57.2159 97.2731C56.7689 96.9004 56.3219 96.9749 56.0984 96.3041C55.9495 95.9314 56.0985 95.6332 56.1729 95.4096C56.1729 95.3351 56.2474 95.3351 56.2474 95.2605C56.3219 95.1115 56.3219 95.186 56.2474 95.0369C56.2474 95.0369 56.2474 95.0369 56.2474 94.9624C56.2474 94.8878 56.2474 94.9624 56.2474 94.8878C56.2474 94.8133 56.2474 94.6642 56.2474 94.5151C56.2474 94.3661 56.2474 94.2915 56.2474 94.1424C56.2474 93.9934 56.2474 93.9188 56.2474 93.7697C56.2474 93.3971 56.3219 93.0244 56.4709 92.6517C56.6944 91.9063 57.1414 91.3099 57.6629 90.7882L57.7374 90.7136C57.8119 90.6391 57.9609 90.5645 58.0354 90.49C58.5569 90.1173 59.1529 89.8192 59.7488 89.6701C60.1213 89.5955 60.4193 89.521 60.7918 89.521C60.9408 89.521 61.0898 89.521 61.3133 89.521C61.4623 89.521 61.6113 89.521 61.7603 89.5955C61.9093 89.5955 62.0583 89.6701 62.2073 89.7446C62.3562 89.7446 62.4307 89.8192 62.5797 89.8937C62.8032 89.9682 63.0267 90.1173 63.2502 90.2664C63.3992 90.3409 63.5482 90.4155 63.6972 90.5645L63.7717 90.6391C63.9207 90.7136 64.0697 90.8627 64.1442 91.0118C64.4422 91.3099 64.6657 91.6826 64.8892 92.0553C64.9637 92.2044 65.0382 92.3535 65.1127 92.5026C65.1872 92.5771 65.1872 92.7262 65.1872 92.8007C65.1872 92.8753 65.2617 92.9498 65.2617 93.0244C65.3362 93.248 65.3362 93.3971 65.3362 93.6207C65.3362 93.6952 65.3362 93.8443 65.3362 93.9188C65.3362 93.9934 65.3362 94.1424 65.3362 94.217C65.3362 94.3661 65.3362 94.5151 65.3362 94.6642C65.3362 94.9624 65.4851 95.186 65.5596 95.4842C65.6341 96.0805 65.1872 96.6768 64.5912 96.8259C64.4422 97.4222 64.2187 98.0185 63.8462 98.5403C63.4737 99.0621 63.0267 99.5093 62.5797 99.882V101.298V101.447C62.5797 101.447 62.6542 101.596 63.3992 101.596C63.4737 101.596 63.5482 101.596 63.6227 101.596H64.0697C64.6657 101.596 65.1872 101.745 65.6341 101.969C66.6026 102.416 67.2731 103.311 67.7201 104.205C67.7946 104.28 67.7946 104.429 67.8691 104.503C67.2731 105.025 66.6026 105.547 65.9321 105.92H54.6085L53.938 105.696Z" fill="white"/>
<path d="M67.7199 104.727C67.1239 105.249 66.4535 105.771 65.783 106.143C64.144 107.112 62.2816 107.634 60.1957 107.634C58.1842 107.634 56.2473 107.112 54.6083 106.143C54.3849 105.994 54.0869 105.845 53.8634 105.696V105.622V105.547C54.0124 104.429 54.6083 103.311 55.5768 102.491C55.7258 102.416 55.9493 102.267 56.1728 102.267C56.0238 102.267 55.8748 102.193 55.8003 102.193C55.7258 102.193 55.7258 102.193 55.6513 102.118H55.5768C55.5023 102.118 55.3533 102.044 55.2788 101.969C55.1298 101.895 55.0553 101.82 54.9808 101.745C54.9063 101.671 54.8318 101.671 54.8318 101.596C54.7573 101.522 54.7573 101.522 54.6828 101.447C54.6083 101.373 54.6083 101.373 54.5339 101.298H57.1413C57.8117 102.267 58.9292 102.864 60.1957 102.938C60.2702 102.938 60.3447 102.938 60.4192 102.938C61.5366 102.938 62.5796 102.491 63.3246 101.671C63.3991 101.671 63.4736 101.671 63.5481 101.671H63.995C64.591 101.671 65.1125 101.82 65.5595 102.044C66.528 102.491 67.1984 103.385 67.6454 104.28C67.6454 104.503 67.6454 104.578 67.7199 104.727Z" fill="url(#paint6_linear_3945_203354)"/>
<path d="M62.5051 99.9565C62.4306 99.9565 62.4306 99.9565 62.5051 99.9565V101.447L58.1842 101.596L58.4077 100.627C58.4822 100.627 58.4822 100.702 58.5567 100.702C58.7057 100.776 58.8547 100.851 59.0037 101C59.0782 101.075 59.1527 101.149 59.3017 101.224C59.3017 101.224 59.3017 101.224 59.3762 101.298V100.329L59.3017 100.255C59.9722 100.553 61.0151 100.776 62.5051 99.9565Z" fill="url(#paint7_linear_3945_203354)"/>
<path d="M65.2614 93.9932C64.4419 94.2914 63.4735 94.4404 62.5795 94.3659C61.164 94.2914 59.7486 93.6951 58.7056 92.726C58.3331 93.7696 57.4392 94.515 56.4707 94.9622C56.3217 95.0368 56.1727 95.1113 56.0982 95.1113C56.0982 95.1113 56.0982 95.1113 56.0982 95.0368C56.0237 94.2914 56.0237 93.546 56.3217 92.8006C56.5452 92.0552 56.9922 91.3843 57.5137 90.9371L57.5882 90.8626C57.6627 90.788 57.8117 90.7135 57.8862 90.6389C58.4076 90.2662 59.0036 89.9681 59.5996 89.819C59.9721 89.7445 60.2701 89.6699 60.6426 89.6699C62.4305 89.6699 63.9205 90.6389 64.7399 92.1297C65.0379 92.726 65.1869 93.1733 65.2614 93.6951C65.2614 93.8441 65.2614 93.9187 65.2614 93.9932Z" fill="#252E48"/>
<path d="M59.8231 104.131C59.4506 104.578 58.7801 104.653 58.1096 104.578C58.7056 103.982 58.4076 101.969 56.1727 102.193C53.1183 101.596 53.4908 98.4658 56.3962 97.5713L56.9176 97.4222L56.9921 97.4968C57.2156 98.0931 57.5136 98.6149 57.8861 99.0621C56.6942 100.106 58.3331 100.404 59.1526 101.149C59.8976 101.522 60.4935 103.311 59.8231 104.131Z" fill="#252E48"/>
<g filter="url(#filter8_d_3945_203354)">
<path d="M54.8087 87.8072C54.8087 91.0124 53.4677 93.9194 51.2328 95.932C50.6368 96.4538 49.9663 96.9756 49.2959 97.3483C47.6569 98.3173 45.7945 98.839 43.7085 98.839C41.6971 98.839 39.7602 98.3173 38.1212 97.3483C37.8977 97.1992 37.5997 97.0501 37.3762 96.901C34.4708 94.8884 32.6084 91.6087 32.6084 87.8072C32.6829 81.695 37.5997 76.7008 43.7085 76.7008C49.8173 76.7008 54.8087 81.695 54.8087 87.8072Z" fill="#E9F0F8"/>
<mask id="mask0_3945_203354" style="mask-type:alpha" maskUnits="userSpaceOnUse" x="32" y="76" width="23" height="23">
<path d="M54.8087 87.1065C54.8087 90.3117 53.4677 93.2187 51.2328 95.2313C50.6368 95.7531 49.9663 96.2749 49.2959 96.6476C47.6569 97.6166 45.7945 98.1384 43.7085 98.1384C41.6971 98.1384 39.7602 97.6166 38.1212 96.6476C37.8977 96.4985 37.5997 96.3494 37.3762 96.2003C34.4708 94.1878 32.6084 90.908 32.6084 87.1065C32.6829 80.9943 37.5997 76.0001 43.7085 76.0001C49.8173 76.0001 54.8087 80.9943 54.8087 87.1065Z" fill="#E9F0F8"/>
</mask>
<g mask="url(#mask0_3945_203354)">
<path d="M51.9741 94.7663C51.7913 94.9479 51.6542 95.1296 51.4715 95.2658C49.4154 97.1728 46.674 98.308 43.6128 98.308C41.1912 98.308 38.9067 97.5815 37.0335 96.2647C36.4852 95.9015 35.9826 95.4474 35.5257 94.9933C35.7541 94.6755 36.211 94.4485 37.1248 94.0852L37.4904 93.949C38.1757 93.6766 39.1352 93.3133 40.3688 92.8139C40.5516 92.7231 40.7343 92.6323 40.8257 92.4506C40.8714 92.3598 40.9628 92.269 40.9628 92.1782C41.0542 92.042 41.0542 91.8604 41.0542 91.6787V89.363C41.0085 89.3176 41.0085 89.2722 40.9628 89.2268C40.78 88.909 40.643 88.5912 40.5973 88.2279L40.4145 88.1371C39.8205 88.2733 39.8662 87.6376 39.7292 86.4117C39.6835 85.9122 39.7292 85.8214 39.9576 85.7306L40.1404 85.4582C39.6835 84.4592 39.5007 83.6419 39.5007 82.9154C39.5007 81.7803 40.0033 81.0084 40.6887 80.6452C40.3688 79.9187 40.3231 79.6008 40.3231 79.6008C40.3231 79.6008 42.7447 80.0095 43.5671 79.8279C44.618 79.6008 46.2628 79.8733 46.8568 81.2808C46.9939 81.3262 47.0852 81.3717 47.2223 81.4171C47.999 81.8257 48.2732 82.3706 48.3646 82.9608C48.5016 84.0506 47.9077 85.2311 47.7706 85.7306C47.7706 85.7306 47.7706 85.776 47.8163 85.776C47.999 85.8668 48.0447 86.003 47.9533 86.4571C47.8163 87.6376 47.862 88.3187 47.268 88.1825L46.7197 89.0906C46.7197 89.1814 46.674 89.2268 46.674 89.3176C46.674 89.4993 46.674 89.8171 46.674 91.7241C46.674 91.7695 46.674 91.8604 46.674 91.9058C46.674 92.0874 46.7654 92.2236 46.8568 92.3598C46.9025 92.4052 46.9482 92.4506 46.9939 92.496C47.1309 92.6323 47.268 92.7231 47.4508 92.8139C48.8215 93.4042 49.8266 93.7674 50.5577 94.0398C51.243 94.3577 51.6999 94.5847 51.9741 94.7663Z" fill="white"/>
<path d="M53.071 98.1718C51.0149 100.079 46.6744 98.3534 43.6132 98.3534C41.1916 98.3534 36.12 100.26 34.2467 98.9891C33.8812 98.7167 34.3381 97.6723 34.4752 97.3545C34.7036 96.7188 34.9321 96.0831 35.2519 95.4929C35.9373 94.1761 39.0899 93.5404 40.3692 92.8593C40.5976 92.7231 40.7347 92.6323 40.8261 92.4961C42.3338 94.5848 45.4408 94.5848 46.9485 92.5415C47.0856 92.6777 47.2227 92.7685 47.4054 92.8593C47.4511 92.8593 47.4968 92.9047 47.5425 92.9047C51.7916 94.6302 52.0658 94.4031 52.6141 95.9923C52.7054 96.2648 53.2537 97.9902 53.071 98.1718Z" fill="white"/>
<path d="M53.071 98.0441C51.0149 99.9512 46.6744 98.2258 43.6132 98.2258C41.1916 98.2258 36.12 100.133 34.2467 98.8615C33.8812 98.589 34.3381 97.5447 34.4752 97.2269C34.7036 96.5912 34.9321 95.9555 35.2519 95.3652C35.9373 94.0485 39.0899 93.4128 40.3692 92.7317C40.3692 92.7317 40.3692 92.7317 40.4149 92.7317C42.1511 95.1382 45.7606 95.1382 47.4968 92.7771H47.5425C51.7916 94.5025 52.0658 94.2755 52.6141 95.8647C52.7054 96.1371 53.2537 97.8625 53.071 98.0441Z" fill="url(#paint8_linear_3945_203354)"/>
<path d="M47.7708 85.7306C47.8165 85.4582 47.6794 85.0949 47.588 84.8225C47.588 84.7771 47.5423 84.7317 47.5423 84.6863C47.0854 83.7782 46.0346 83.3695 45.0751 83.3241C42.5621 83.1879 42.3337 83.6873 41.5113 82.9608C41.7397 83.3241 41.7854 83.9144 41.4199 84.6409C41.1458 85.1403 40.6432 85.3673 40.1863 85.5036C39.044 82.9154 39.5923 81.2808 40.7345 80.6906C40.369 79.9187 40.3233 79.6008 40.3233 79.6008C40.3233 79.6008 42.7449 80.0095 43.5673 79.8279C44.6182 79.6008 46.263 79.8733 46.857 81.2808C47.8622 81.6895 48.2734 82.3252 48.3648 83.0063C48.5475 84.096 47.9079 85.2765 47.7708 85.7306Z" fill="#1C3754"/>
</g>
</g>
<defs>
<filter id="filter0_d_3945_203354" x="29.8145" y="39.6171" width="105.038" height="85.2797" filterUnits="userSpaceOnUse" color-interpolation-filters="sRGB">
<feFlood flood-opacity="0" result="BackgroundImageFix"/>
<feColorMatrix in="SourceAlpha" type="matrix" values="0 0 0 0 0 0 0 0 0 0 0 0 0 0 0 0 0 0 127 0" result="hardAlpha"/>
<feOffset dy="11"/>
<feGaussianBlur stdDeviation="11"/>
<feColorMatrix type="matrix" values="0 0 0 0 0.397708 0 0 0 0 0.47749 0 0 0 0 0.575 0 0 0 0.18 0"/>
<feBlend mode="normal" in2="BackgroundImageFix" result="effect1_dropShadow_3945_203354"/>
<feBlend mode="normal" in="SourceGraphic" in2="effect1_dropShadow_3945_203354" result="shape"/>
</filter>
<filter id="filter1_d_3945_203354" x="47.0789" y="0.441528" width="107.239" height="117.514" filterUnits="userSpaceOnUse" color-interpolation-filters="sRGB">
<feFlood flood-opacity="0" result="BackgroundImageFix"/>
<feColorMatrix in="SourceAlpha" type="matrix" values="0 0 0 0 0 0 0 0 0 0 0 0 0 0 0 0 0 0 127 0" result="hardAlpha"/>
<feOffset dy="9"/>
<feGaussianBlur stdDeviation="16"/>
<feComposite in2="hardAlpha" operator="out"/>
<feColorMatrix type="matrix" values="0 0 0 0 0 0 0 0 0 0 0 0 0 0 0 0 0 0 0.12 0"/>
<feBlend mode="normal" in2="BackgroundImageFix" result="effect1_dropShadow_3945_203354"/>
<feBlend mode="normal" in="SourceGraphic" in2="effect1_dropShadow_3945_203354" result="shape"/>
</filter>
<filter id="filter2_d_3945_203354" x="57.0789" y="12.4415" width="87.2392" height="97.5139" filterUnits="userSpaceOnUse" color-interpolation-filters="sRGB">
<feFlood flood-opacity="0" result="BackgroundImageFix"/>
<feColorMatrix in="SourceAlpha" type="matrix" values="0 0 0 0 0 0 0 0 0 0 0 0 0 0 0 0 0 0 127 0" result="hardAlpha"/>
<feOffset dy="11"/>
<feGaussianBlur stdDeviation="11"/>
<feColorMatrix type="matrix" values="0 0 0 0 0.397708 0 0 0 0 0.47749 0 0 0 0 0.575 0 0 0 0.18 0"/>
<feBlend mode="normal" in2="BackgroundImageFix" result="effect1_dropShadow_3945_203354"/>
<feBlend mode="normal" in="SourceGraphic" in2="effect1_dropShadow_3945_203354" result="shape"/>
</filter>
<filter id="filter3_d_3945_203354" x="8.13521" y="1.03699" width="115.754" height="121.356" filterUnits="userSpaceOnUse" color-interpolation-filters="sRGB">
<feFlood flood-opacity="0" result="BackgroundImageFix"/>
<feColorMatrix in="SourceAlpha" type="matrix" values="0 0 0 0 0 0 0 0 0 0 0 0 0 0 0 0 0 0 127 0" result="hardAlpha"/>
<feOffset dy="9"/>
<feGaussianBlur stdDeviation="16"/>
<feComposite in2="hardAlpha" operator="out"/>
<feColorMatrix type="matrix" values="0 0 0 0 0 0 0 0 0 0 0 0 0 0 0 0 0 0 0.12 0"/>
<feBlend mode="normal" in2="BackgroundImageFix" result="effect1_dropShadow_3945_203354"/>
<feBlend mode="normal" in="SourceGraphic" in2="effect1_dropShadow_3945_203354" result="shape"/>
</filter>
<filter id="filter4_d_3945_203354" x="18.1352" y="13.037" width="95.7543" height="101.356" filterUnits="userSpaceOnUse" color-interpolation-filters="sRGB">
<feFlood flood-opacity="0" result="BackgroundImageFix"/>
<feColorMatrix in="SourceAlpha" type="matrix" values="0 0 0 0 0 0 0 0 0 0 0 0 0 0 0 0 0 0 127 0" result="hardAlpha"/>
<feOffset dy="11"/>
<feGaussianBlur stdDeviation="11"/>
<feColorMatrix type="matrix" values="0 0 0 0 0.397708 0 0 0 0 0.47749 0 0 0 0 0.575 0 0 0 0.18 0"/>
<feBlend mode="normal" in2="BackgroundImageFix" result="effect1_dropShadow_3945_203354"/>
<feBlend mode="normal" in="SourceGraphic" in2="effect1_dropShadow_3945_203354" result="shape"/>
</filter>
<filter id="filter5_d_3945_203354" x="47.6083" y="51.6489" width="73" height="46" filterUnits="userSpaceOnUse" color-interpolation-filters="sRGB">
<feFlood flood-opacity="0" result="BackgroundImageFix"/>
<feColorMatrix in="SourceAlpha" type="matrix" values="0 0 0 0 0 0 0 0 0 0 0 0 0 0 0 0 0 0 127 0" result="hardAlpha"/>
<feOffset dy="-5"/>
<feGaussianBlur stdDeviation="2.5"/>
<feColorMatrix type="matrix" values="0 0 0 0 0.397708 0 0 0 0 0.47749 0 0 0 0 0.575 0 0 0 0.18 0"/>
<feBlend mode="normal" in2="BackgroundImageFix" result="effect1_dropShadow_3945_203354"/>
<feBlend mode="normal" in="SourceGraphic" in2="effect1_dropShadow_3945_203354" result="shape"/>
</filter>
<filter id="filter6_d_3945_203354" x="24.3789" y="46.9" width="119.211" height="87.519" filterUnits="userSpaceOnUse" color-interpolation-filters="sRGB">
<feFlood flood-opacity="0" result="BackgroundImageFix"/>
<feColorMatrix in="SourceAlpha" type="matrix" values="0 0 0 0 0 0 0 0 0 0 0 0 0 0 0 0 0 0 127 0" result="hardAlpha"/>
<feOffset dy="11"/>
<feGaussianBlur stdDeviation="11"/>
<feColorMatrix type="matrix" values="0 0 0 0 0.397708 0 0 0 0 0.47749 0 0 0 0 0.575 0 0 0 0.18 0"/>
<feBlend mode="normal" in2="BackgroundImageFix" result="effect1_dropShadow_3945_203354"/>
<feBlend mode="normal" in="SourceGraphic" in2="effect1_dropShadow_3945_203354" result="shape"/>
</filter>
<filter id="filter7_d_3945_203354" x="91.6084" y="83" width="49.9512" height="49.8369" filterUnits="userSpaceOnUse" color-interpolation-filters="sRGB">
<feFlood flood-opacity="0" result="BackgroundImageFix"/>
<feColorMatrix in="SourceAlpha" type="matrix" values="0 0 0 0 0 0 0 0 0 0 0 0 0 0 0 0 0 0 127 0" result="hardAlpha"/>
<feOffset dy="5"/>
<feGaussianBlur stdDeviation="4"/>
<feColorMatrix type="matrix" values="0 0 0 0 0.1125 0 0 0 0 0.295916 0 0 0 0 1 0 0 0 0.22 0"/>
<feBlend mode="normal" in2="BackgroundImageFix" result="effect1_dropShadow_3945_203354"/>
<feBlend mode="normal" in="SourceGraphic" in2="effect1_dropShadow_3945_203354" result="shape"/>
</filter>
<filter id="filter8_d_3945_203354" x="0.608398" y="53.7008" width="86.2003" height="86.1382" filterUnits="userSpaceOnUse" color-interpolation-filters="sRGB">
<feFlood flood-opacity="0" result="BackgroundImageFix"/>
<feColorMatrix in="SourceAlpha" type="matrix" values="0 0 0 0 0 0 0 0 0 0 0 0 0 0 0 0 0 0 127 0" result="hardAlpha"/>
<feOffset dy="9"/>
<feGaussianBlur stdDeviation="16"/>
<feComposite in2="hardAlpha" operator="out"/>
<feColorMatrix type="matrix" values="0 0 0 0 0 0 0 0 0 0 0 0 0 0 0 0 0 0 0.12 0"/>
<feBlend mode="normal" in2="BackgroundImageFix" result="effect1_dropShadow_3945_203354"/>
<feBlend mode="normal" in="SourceGraphic" in2="effect1_dropShadow_3945_203354" result="shape"/>
</filter>
<linearGradient id="paint0_linear_3945_203354" x1="39.3246" y1="17.8328" x2="42.9839" y2="17.8328" gradientUnits="userSpaceOnUse">
<stop stop-color="#83A6FF"/>
<stop offset="1" stop-color="#5A78FF"/>
</linearGradient>
<linearGradient id="paint1_linear_3945_203354" x1="131.916" y1="21.8793" x2="135.575" y2="21.8793" gradientUnits="userSpaceOnUse">
<stop stop-color="#FF66A9"/>
<stop offset="1" stop-color="#F53689"/>
</linearGradient>
<linearGradient id="paint2_linear_3945_203354" x1="18.6982" y1="62.7044" x2="22.3575" y2="62.7044" gradientUnits="userSpaceOnUse">
<stop stop-color="#FF66A9"/>
<stop offset="1" stop-color="#F53689"/>
</linearGradient>
<linearGradient id="paint3_linear_3945_203354" x1="107.5" y1="89.1624" x2="126.137" y2="117.559" gradientUnits="userSpaceOnUse">
<stop stop-color="#83A6FF"/>
<stop offset="1" stop-color="#5A78FF"/>
</linearGradient>
<linearGradient id="paint4_linear_3945_203354" x1="118.663" y1="102.97" x2="129.373" y2="113.686" gradientUnits="userSpaceOnUse">
<stop stop-color="#4F6AFF"/>
<stop offset="1" stop-color="#657EFF" stop-opacity="0"/>
</linearGradient>
<linearGradient id="paint5_linear_3945_203354" x1="121.463" y1="105.774" x2="114.466" y2="98.7743" gradientUnits="userSpaceOnUse">
<stop offset="0.0113208" stop-color="#C2D1FF"/>
<stop offset="1" stop-color="white"/>
</linearGradient>
<linearGradient id="paint6_linear_3945_203354" x1="53.8919" y1="104.471" x2="67.7154" y2="104.471" gradientUnits="userSpaceOnUse">
<stop stop-color="#FF66A9"/>
<stop offset="1" stop-color="#F53689"/>
</linearGradient>
<linearGradient id="paint7_linear_3945_203354" x1="60.3036" y1="100.957" x2="60.3036" y2="100.212" gradientUnits="userSpaceOnUse">
<stop stop-color="white"/>
<stop offset="0.9913" stop-color="#E6EDF7"/>
</linearGradient>
<linearGradient id="paint8_linear_3945_203354" x1="34.1251" y1="96.0078" x2="53.1026" y2="96.0078" gradientUnits="userSpaceOnUse">
<stop stop-color="#83A6FF"/>
<stop offset="1" stop-color="#5A78FF"/>
</linearGradient>
</defs>
</svg>
