<svg xmlns="http://www.w3.org/2000/svg" width="244.11" height="185.771" viewBox="0 0 244.11 185.771"><defs><style>.a{fill:#f0f0f0;}.b{fill:#191847;}.c{fill:#b28b67;}.d{fill:#997659;}.e{fill:#e4e4e4;}.f{fill:#69a1ac;}.g{fill:#89c5cc;}.h{fill:#e7f2fe;}.i{fill:#2026a2;}.j{fill:#f2f2f2;}.k{fill:#1f28cf;}.l{fill:#535461;}.m{fill:#3f3d56;}.n{fill:#9d9cb5;}.o,.q{fill:none;}.o{stroke:#343434;stroke-miterlimit:10;}.o,.p,.q{stroke-linecap:round;}.o,.p{stroke-linejoin:round;}.p{fill:#fff;}.q{stroke:#707070;stroke-width:2px;}.r,.s{stroke:none;}.s{fill:#707070;}</style></defs><g transform="translate(-755 -233.138)"><g transform="translate(755 249)"><ellipse class="a" cx="43.367" cy="4.9" rx="43.367" ry="4.9" transform="translate(14.869 160.109)"/><g transform="translate(32)"><path class="b" d="M12.253,25.063c4.457,0,6.078-5.3,8.611-8.208,1.812-2.081,4.9-1.46,5.819-4.373C28.985,5.156,22.825,0,14.788,0S1.333,4.522.163,11.319A11.923,11.923,0,0,0,12.253,25.063Z" transform="translate(11.537 5.035)"/><g transform="translate(21.018 11.835)"><path class="c" d="M0,29,3.147,13.7A11.034,11.034,0,0,1,.4,5.969c.572-8.5,11.921-6.631,14.128-2.34S16.476,18.8,13.623,19.57c-1.138.306-3.562-.443-6.029-1.994L9.143,29Z" transform="translate(-0.018 0.165)"/></g><path class="b" d="M5.112,16.85h0a4,4,0,0,1-2.177-1.291A10.128,10.128,0,0,1,.65,12.192,8.013,8.013,0,0,1,.132,7.606a9.73,9.73,0,0,1,2.98-5.138A8.8,8.8,0,0,1,6,.561,8.112,8.112,0,0,1,9,0a11.518,11.518,0,0,1,6.243,2.067c1.6,1.086,2.772,2.43,2.85,3.27a.6.6,0,0,1-.564.692A21.877,21.877,0,0,0,9.26,10.495a2.468,2.468,0,0,0-1.144-.28,2.366,2.366,0,0,0-2.4,2.324,2.256,2.256,0,0,0,.481,1.4A7.413,7.413,0,0,0,5.112,16.85Z" transform="translate(18.968 9.539)"/></g><g transform="translate(0 72)"><path class="d" d="M0,0,14.676,47.65l7.109,40.523H27.36L19.847,0Z" transform="translate(49.92 0)"/><path class="c" d="M10.91,0c1,26.163-.176,39.658-.4,42.035S7.232,59.824,0,88.972l5.94-2.026C17.37,60.213,21.265,46.32,22.576,42.809S27.369,25.029,33.021,0Z" transform="translate(33.76)"/><g transform="translate(33 77)"><path class="e" d="M1.745,2.153a.781.781,0,0,0-1,.522L0,5.28A24.719,24.719,0,0,0,.351,8.337h22s.857-2.815-.99-3.04-3.069-.405-3.069-.405L8.065.366a.391.391,0,0,0-.519.206L6.889,2.155a8.884,8.884,0,0,1-2.779.792Z" transform="translate(0.39 7.156)"/></g><g transform="translate(69 77)"><path class="e" d="M1.745,2.153a.781.781,0,0,0-1,.522L0,5.28A24.719,24.719,0,0,0,.351,8.337h22s.857-2.815-.99-3.04-3.069-.405-3.069-.405L8.065.366a.391.391,0,0,0-.519.206L6.889,2.155a8.884,8.884,0,0,1-2.779.792Z" transform="translate(0.39 7.156)"/></g><path class="f" d="M0,0,6.24,24.277H25.3L22.458,0Z" transform="translate(47.97)"/><path class="g" d="M2.129,0C-.951,9.168.959,24.277.959,24.277H20.408L25.756,0Z" transform="translate(42.331 0)"/></g></g><path class="h" d="M246.066,105.943c-3.677,6.553-11.142,10.934-18.879,13.824a81.931,81.931,0,0,1-33.2,4.782q-2.974-.171-5.929-.546a83.906,83.906,0,0,1-19.825-4.988q-2.732-1.063-5.352-2.321a70.382,70.382,0,0,1-8.366-4.727q-1-.66-1.973-1.353c-.45-.32-.9-.648-1.348-.966a17.355,17.355,0,0,0-3.033-1.785q-.5-.216-1.016-.387c-3.47-1.141-7.472-.71-11.085.179-2.748.677-5.427,1.6-8.172,2.264a30.867,30.867,0,0,1-3.724.684,22.8,22.8,0,0,1-8.366-.635l-.231-.062q-.581-.158-1.153-.346l-.231-.077q-.554-.184-1.083-.4l-.231-.091q-.554-.222-1.083-.47c-.127-.057-.253-.12-.378-.178a22.529,22.529,0,0,1-5.419-3.645c-.046-.039-.089-.08-.138-.12-.22-.206-.436-.415-.645-.629-.077-.079-.155-.158-.231-.239q-.372-.392-.718-.8c-.035-.039-.068-.08-.1-.12a16.76,16.76,0,0,1-2.333-3.645c-.019-.039-.037-.08-.054-.12q-.277-.616-.505-1.252c-.062-.177-.122-.359-.174-.536-.018-.053-.035-.106-.05-.159a28.1,28.1,0,0,1-.851-7.984v-.938a79.033,79.033,0,0,1,.841-13.044.475.475,0,0,1,.015-.088,35.925,35.925,0,0,1,1.012-4.282,28.75,28.75,0,0,1,1.7-4.34A39.993,39.993,0,0,1,110.7,56.86c6.939-7.358,16.04-13.536,26.692-15.848,11.478-2.49,24.235-.1,33.494,6.265,2.823,1.942,5.359,4.241,8.529,5.729a12.073,12.073,0,0,0,8.971.813,15.888,15.888,0,0,1,6.794-1.133A64.777,64.777,0,0,1,211.839,55.7c.216.068.432.139.646.209,13.936,4.606,25.915,13.758,32.142,25.519q.248.466.48.94C248.82,89.859,250.162,98.64,246.066,105.943Z" transform="translate(734.639 193.095)"/><g transform="translate(796.412 268.258)"><path class="c" d="M.8,11.682,13.929,6.51c3.187-.012,6.1-1.713,8.412-2.381.587-.306,2.182-2.809.189-3.181s-5.023,2.287-5.112,1.543S18.725,1.262,18.423.21q-.3-1.052-6.363,3.163L0,5Z" transform="translate(43.252 35.707) rotate(45)"/><path class="i" d="M4.8.01C13.766,9.621,24.693,15.9,39.59,21.485L36.3,28.134c-15.362-1.489-23.575-2.669-30.031-12.29C4.646,13.429,1.741,5.126,0,.813Z" transform="matrix(0.966, 0.259, -0.259, 0.966, 16.209, 13.672)"/><path class="j" d="M0,40.845H27.371s-9.3-28.589-9.5-39.243c-.007-.362-.67-1-.964-.917C13.686,1.6,10.014,0,10.014,0,3.525,10.519,1.281,23.47,0,40.845Z" transform="translate(3.58 12.743)"/><path class="c" d="M.82,0,13.947,5.08a30.474,30.474,0,0,1,8.268.97c.586.3,1.388,1.019-.612,1.4s-4.088.875-4.182,1.617,1.3,1.219.994,2.27q-.309,1.051-6.36-3.118L-.026,6.666Z" transform="matrix(0.788, -0.616, 0.616, 0.788, 39, 14.089)"/><path class="k" d="M.505,52.886c-2.318-15.7,3.774-37.471,9.422-48.451a1.927,1.927,0,0,1,1.756-1.21h4.241l.006.017c1.429.012,3.019.069,4.754.127,7.792.259,18.494.517,30.5-3.368l1.45,7.3C41.539,14.492,30.3,20.064,20.46,19.273c4.275,18.482,4.077,33.613-5.36,33.613Z" transform="translate(0 9.518)"/></g><ellipse class="a" cx="21.894" cy="3.517" rx="21.894" ry="3.517" transform="translate(955.322 408.06)"/><rect class="l" width="1.409" height="31.72" transform="translate(976.512 344.213)"/><path class="m" d="M127.835,618.25l-.089,1.428-.124,2.016-.052.841-.124,2.019-.055.841-.124,2.016-1.421,22.933a3.884,3.884,0,0,1-3.876,3.646h-7.386a3.881,3.881,0,0,1-3.874-3.645l-1.429-22.933-.124-2.016-.052-.841-.122-2.024-.052-.841-.124-2.016-.089-1.429a2.011,2.011,0,0,1,2.009-2.135h15.1a2.009,2.009,0,0,1,2.006,2.14Z" transform="translate(858.94 -242.414)"/><path class="n" d="M101.05,590.46l-.124,2.016H82.234l-.124-2.016Z" transform="translate(885.635 -213.195)"/><path class="n" d="M101.408,601.98,101.284,604H82.946l-.126-2.019Z" transform="translate(885.101 -221.858)"/><path class="n" d="M101.771,613.51l-.124,2.016H83.666l-.126-2.016Z" transform="translate(884.56 -230.529)"/><path class="f" d="M46.152,526.365c8.493,6.144,12.031,15.756,12.031,15.756s-10.236-.352-18.742-6.5S27.41,519.87,27.41,519.87,37.656,520.222,46.152,526.365Z" transform="translate(919.034 -170.799)"/><path class="o" d="M27.46,519.87s10.262,5.7,13.553,10.416,16.16,11.081,16.16,11.081" transform="translate(920.043 -170.042)"/><path class="f" d="M92.821,486.962a21.734,21.734,0,0,1,6.914,9.053A19.754,19.754,0,0,1,82.06,483.23,21.568,21.568,0,0,1,92.821,486.962Z" transform="translate(877.481 -143.576)"/><path class="o" d="M82.06,483.18s5.585,3.1,7.376,5.667,8.8,6.031,8.8,6.031" transform="translate(878.984 -142.451)"/><path class="f" d="M154.761,507.041a28.231,28.231,0,0,0-6.381,13.351,25.663,25.663,0,0,0,19.072-20.961A28.234,28.234,0,0,0,154.761,507.041Z" transform="translate(829.112 -155.217)"/><path class="o" d="M166.956,499.43s-6.681,5.779-8.38,9.761-10.2,10.664-10.2,10.664" transform="translate(829.112 -154.672)"/><g class="p" transform="translate(2432.5 9478.5)"><path class="r" d="M -1513.999755859375 -9127 L -1576.999877929688 -9127 L -1576.999877929688 -9199.5859375 L -1558.585815429688 -9218 L -1532.413696289062 -9218 L -1513.999755859375 -9199.5859375 L -1513.999755859375 -9127 Z M -1545 -9202.9990234375 C -1550.51416015625 -9202.9990234375 -1555.000244140625 -9198.5126953125 -1555.000244140625 -9192.9990234375 C -1555.000244140625 -9187.4853515625 -1550.51416015625 -9182.9990234375 -1545 -9182.9990234375 C -1539.485961914062 -9182.9990234375 -1534.999877929688 -9187.4853515625 -1534.999877929688 -9192.9990234375 C -1534.999877929688 -9198.5126953125 -1539.485961914062 -9202.9990234375 -1545 -9202.9990234375 Z"/><path class="s" d="M -1514.999755859375 -9128 L -1514.999755859375 -9199.171875 L -1532.828002929688 -9217 L -1558.171508789062 -9217 L -1575.999877929688 -9199.171875 L -1575.999877929688 -9128 L -1514.999755859375 -9128 M -1545 -9203.9990234375 C -1538.934448242188 -9203.9990234375 -1533.999877929688 -9199.064453125 -1533.999877929688 -9192.9990234375 C -1533.999877929688 -9186.93359375 -1538.934448242188 -9181.9990234375 -1545 -9181.9990234375 C -1551.065551757812 -9181.9990234375 -1556.000244140625 -9186.93359375 -1556.000244140625 -9192.9990234375 C -1556.000244140625 -9199.064453125 -1551.065551757812 -9203.9990234375 -1545 -9203.9990234375 M -1512.999755859375 -9125.9990234375 L -1512.999755859375 -9126 L -1577.999877929688 -9126 L -1577.999877929688 -9200 L -1559 -9219 L -1531.99951171875 -9219 L -1512.999755859375 -9200 L -1512.999755859375 -9126 L -1512.999755859375 -9125.9990234375 Z M -1545 -9201.9990234375 C -1549.962768554688 -9201.9990234375 -1554.000244140625 -9197.9619140625 -1554.000244140625 -9192.9990234375 C -1554.000244140625 -9188.0361328125 -1549.962768554688 -9183.9990234375 -1545 -9183.9990234375 C -1540.037353515625 -9183.9990234375 -1535.999877929688 -9188.0361328125 -1535.999877929688 -9192.9990234375 C -1535.999877929688 -9197.9619140625 -1540.037353515625 -9201.9990234375 -1545 -9201.9990234375 Z"/></g><g transform="translate(20.2 10.693)"><path class="q" d="M2804.439,9537.5l-6.939,6.939,6.939,6.939" transform="translate(-1946 -9222.844)"/><path class="q" d="M2797.5,9537.5l6.939,6.939-6.939,6.939" transform="translate(-1922.339 -9222.844)"/><line class="q" x1="2.891" y2="15.613" transform="translate(869.378 313.5)"/></g></g></svg>