<svg width="200" height="165" fill="none" xmlns="http://www.w3.org/2000/svg"><path d="M98.592 147.585c39.846 0 72.15-32.304 72.15-72.293C170.742 35.304 138.438 3 98.592 3c-39.846 0-72.15 32.304-72.15 72.292 0 39.989 32.304 72.293 72.15 72.293ZM178.996 45.55a5.835 5.835 0 1 0 0-11.67 5.835 5.835 0 0 0 0 11.67Zm8.539-22.912a3.985 3.985 0 1 0-.001-7.969 3.985 3.985 0 0 0 .001 7.97ZM21.462 49.677a3.985 3.985 0 1 0 0-7.97 3.985 3.985 0 0 0 0 7.97Z" fill="#F1F3F9"/><g filter="url(#illustration_no_requests__a)"><path d="M165.477 46.404H42.097a4.798 4.798 0 0 1-4.84-4.839v-27.75a4.799 4.799 0 0 1 4.84-4.838h123.238a4.799 4.799 0 0 1 4.838 4.838v27.75c.142 2.704-2.135 4.839-4.696 4.839Z" fill="#fff"/></g><path d="M157.258 24.161a3.558 3.558 0 1 0 0-7.116 3.558 3.558 0 0 0 0 7.116Z" fill="url(#illustration_no_requests__b)"/><path d="M67.142 27.62c0 3.13-1.423 5.976-3.557 7.968-1.85 1.708-4.412 2.704-7.116 2.704-2.704 0-5.265-.996-7.115-2.704-2.277-1.992-3.558-4.838-3.558-7.969 0-5.834 4.839-10.673 10.673-10.673 5.835 0 10.673 4.838 10.673 10.673Z" fill="#DCE1EE"/><path d="M63.585 35.589c-1.85 1.707-4.412 2.703-7.116 2.703-2.704 0-5.265-.996-7.115-2.703.854-.285 1.85-.712 3.13-1.281.285-.143.57-.427.712-.712.142-.142.142-.427.142-.57v-2.703l-.142-.142c-.285-.285-.427-.712-.427-1.139l-.284-.142c-.712.142-.57-.57-.854-1.992 0-.57 0-.712.284-.854l.285-.285c-1.28-2.988-.712-4.838.711-5.55-.426-.996-.426-1.28-.426-1.28s2.846.426 3.7.284c1.28-.284 3.13 0 3.842 1.708 1.138.427 1.565 1.138 1.708 1.992.142 1.28-.57 2.704-.712 3.13.142.143.285.285.142.712-.142 1.281-.142 2.135-.853 1.993l-.57 1.28v3.132c0 .285.143.57.143.712.142.284.427.427.569.569 1.28.427 2.277.854 3.13 1.139Z" fill="#fff"/><path d="M61.06 26.196c0-.296-.148-.74-.296-1.037v-.148c-.592-1.185-1.777-1.629-2.962-1.629-2.962-.148-3.259.444-4.295-.444.296.444.296 1.185-.149 2.073-.296.593-.888.889-1.48 1.037-1.334-3.11-.741-5.036.74-5.776-.445-1.037-.445-1.333-.445-1.333s2.963.444 3.852.296c1.333-.296 3.258 0 3.999 1.777 1.185.444 1.629 1.185 1.777 2.074.148 1.037-.592 2.518-.74 3.11Z" fill="#A2ABBC"/><path d="M59.885 33.88v.57h-6.689v-.711c.142-.143.142-.427.142-.57v-2.703l-.142-.143v-.142c.142.284.285.427.57.711l2.134 1.424c.427.426 1.138.426 1.708 0l1.992-1.708.142-.143v2.847c-.142.142 0 .284.143.569Z" fill="url(#illustration_no_requests__c)"/><path d="M102.15 24.489H74.827c-.712 0-1.139-.57-1.139-1.139v-3.558c0-.711.57-1.138 1.139-1.138h27.323c.711 0 1.138.57 1.138 1.139v3.557c0 .712-.427 1.139-1.138 1.139Zm32.446 12.096h-59.77c-.71 0-1.138-.57-1.138-1.139V31.89c0-.712.57-1.139 1.139-1.139h59.769c.712 0 1.138.57 1.138 1.139v3.557c0 .712-.569 1.139-1.138 1.139Z" fill="#C7D9FF"/><path d="M165.491 47.115c2.55 0 4.817-2.191 4.676-4.967V13.66c0-2.776-2.126-4.968-4.818-4.968H42.644c-2.692 0-4.817 2.192-4.817 4.968v28.488c0 2.776 2.125 4.967 4.817 4.967h72.964m39.213 0h-28.044" stroke="#BDCDF4" stroke-width=".75"/><g filter="url(#illustration_no_requests__d)"><path d="M165.477 139.758H42.097a4.799 4.799 0 0 1-4.84-4.839v-27.75a4.798 4.798 0 0 1 4.84-4.838h123.238a4.798 4.798 0 0 1 4.838 4.838v27.75c.142 2.704-2.135 4.839-4.696 4.839Z" fill="#fff"/></g><path d="M67.142 120.973c0 3.131-1.423 5.977-3.557 7.969-1.85 1.708-4.412 2.704-7.116 2.704-2.704 0-5.265-.996-7.115-2.704-2.277-1.992-3.558-4.838-3.558-7.969 0-5.834 4.839-10.673 10.673-10.673 5.835 0 10.673 4.839 10.673 10.673Z" fill="#DCE1EE"/><path d="M63.585 128.942c-1.85 1.708-4.412 2.704-7.116 2.704-2.704 0-5.265-.996-7.115-2.704.854-.284 1.85-.711 3.13-1.281a1.71 1.71 0 0 0 .712-.711c.142-.142.142-.427.142-.569v-2.704l-.142-.142c-.285-.285-.427-.712-.427-1.139l-.284-.142c-.712.142-.57-.569-.854-1.993 0-.569 0-.711.284-.853l.285-.285c-1.28-2.988-.712-4.838.711-5.55-.426-.996-.426-1.281-.426-1.281s2.846.427 3.7.285c1.28-.285 3.13 0 3.842 1.708 1.138.426 1.565 1.138 1.708 1.992.142 1.281-.57 2.704-.712 3.131.142.142.285.284.142.711-.142 1.281-.142 2.135-.853 1.992l-.57 1.139v3.131c0 .284.143.569.143.711.142.285.427.427.569.569 1.28.712 2.277.997 3.13 1.281Z" fill="#fff"/><path d="M61.06 119.55c0-.296-.148-.741-.296-1.037v-.148c-.592-1.185-1.777-1.629-2.962-1.629-2.962-.148-3.259.444-4.295-.445.296.445.296 1.185-.149 2.074-.296.592-.888.889-1.48 1.037-1.334-3.111-.741-5.036.74-5.777-.445-1.037-.445-1.333-.445-1.333s2.963.445 3.852.296c1.333-.296 3.258 0 3.999 1.778 1.185.444 1.629 1.185 1.777 2.074.148 1.184-.592 2.517-.74 3.11Z" fill="#A2ABBC"/><path d="M59.885 127.234v.57h-6.689v-.712c.142-.142.142-.427.142-.569v-2.704l-.142-.142v-.143c.142.285.285.427.57.712l2.134 1.423c.427.427 1.138.427 1.708 0l1.992-1.708.142-.142v2.846c-.142.143 0 .427.143.569Z" fill="url(#illustration_no_requests__e)"/><path d="M102.15 117.985H74.827c-.712 0-1.139-.57-1.139-1.139v-3.558c0-.711.57-1.138 1.139-1.138h27.323c.711 0 1.138.569 1.138 1.138v3.558c0 .569-.427 1.139-1.138 1.139Zm32.446 12.096h-59.77c-.71 0-1.138-.57-1.138-1.139v-3.557c0-.712.57-1.139 1.139-1.139h59.769c.712 0 1.138.569 1.138 1.139v3.557c0 .569-.569 1.139-1.138 1.139Z" fill="#C7D9FF"/><path d="M77.01 102.615H42.18c-2.55 0-4.488 1.567-4.347 4.303v27.803c0 2.735 2.126 4.894 4.818 4.894h122.704c2.692 0 4.817-2.159 4.817-4.894v-27.803c0-2.736-2.125-4.303-4.817-4.303H91.811" stroke="#BDCDF4" stroke-width=".75"/><path d="M154.238 118.427c-.242 0-.483-.121-.725-.364l-3.384-3.402c-.363-.365-.363-1.094 0-1.459.362-.364 1.088-.364 1.45 0l2.78 2.795 5.68-5.711c.363-.364 1.088-.364 1.45 0 .363.365.363 1.094 0 1.458l-6.526 6.319c-.121.243-.362.364-.725.364Z" fill="url(#illustration_no_requests__f)"/><g filter="url(#illustration_no_requests__g)"><path d="M144.558 93.08H21.319a4.799 4.799 0 0 1-4.838-4.838v-27.75a4.799 4.799 0 0 1 4.838-4.838h123.239a4.798 4.798 0 0 1 4.838 4.838v27.75c.142 2.704-2.134 4.839-4.838 4.839Z" fill="#fff"/></g><path d="M81.373 71.165H54.05c-.712 0-1.139-.569-1.139-1.138v-3.558c0-.711.57-1.138 1.139-1.138h27.323c.712 0 1.138.569 1.138 1.138v3.558c0 .712-.426 1.138-1.138 1.138Zm32.446 12.239H54.05c-.712 0-1.139-.57-1.139-1.138v-3.558c0-.712.57-1.139 1.139-1.139h59.627c.711 0 1.138.57 1.138 1.139v3.558c.143.569-.427 1.138-.996 1.138Z" fill="#C7D9FF"/><path d="M46.508 74.296c0 2.989-1.281 5.692-3.273 7.685l-.285.284c-1.85 1.708-4.412 2.704-7.115 2.704-2.704 0-5.123-.996-6.973-2.561h-.143c-2.277-1.993-3.7-4.839-3.7-8.112 0-5.835 4.839-10.673 10.673-10.673 5.977 0 10.816 4.839 10.816 10.673Z" fill="#DCE1EE"/><path d="M43.193 82.197a4.75 4.75 0 0 0-2.31-2.453c-.576-.289-1.01-.433-1.73-.433h-.434c-1.01 0-1.154-.144-1.154-.144v-1.732c1.154-.866 2.02-2.02 2.309-3.32.721-.144 1.154-.72 1.01-1.442 0-.29-.289-.578-.289-.866v-1.011c0-.577-.144-1.01-.577-1.587-.866-1.588-2.598-2.598-4.474-2.598-.433 0-.721 0-1.154.145-.722.144-1.3.433-1.876.865l-.289.29-.144.144c-.578.577-1.01 1.298-1.3 2.02-.288.721-.288 1.587-.288 2.453v.434s0 .144-.144.144c.289-.29.144.144.289.432.288.722.721.578 1.298 1.01h-.144l-.577.145c-3.175 1.01-3.464 4.33-.289 5.05-.288.145-.433.29-.577.29-.866.721-1.443 1.587-1.732 2.453a10.905 10.905 0 0 0 7.072 2.597c2.742 0 5.34-1.01 7.215-2.742.145.145.289 0 .289-.144.144 0 .144 0 0 0Zm-8.948-3.463-.288-.289c-.145-.144-.289-.144-.433-.289 0 0-.145 0-.145-.144-.432-.288-.865-.577-1.01-1.01 0-.144.145-.433.433-.722.145.145.289.289.433.578l.433.432a.31.31 0 0 1 .289.29h.288v1.154Z" fill="#fff"/><path d="M38.894 79.228a3.53 3.53 0 0 1-.427.997l-5.407-.854.284-1.423s.143 0 .143.142c.142.142.284.142.426.285.143 0 .143.142.285.284v-.996h-.142c.854.427 1.992.712 3.558-.285v1.708c.142 0 .284.142 1.28.142Z" fill="url(#illustration_no_requests__h)"/><path d="M37.77 71.291c1.015 0 2.03-.145 2.9-.435 0 0 0-.145.145-.29-.145-.435-.29-1.015-.58-1.595-.87-1.596-2.61-2.61-4.496-2.61a5.5 5.5 0 0 0-1.434.175c-.775.237-1.134.445-1.318.556 0 0-.424.285-.729.573-.305.289-1.015 1.306-1.305 2.03-.29.871-.524 1.61-.379 2.48.145 0 .38-.159.524-.159 1.16-.58 2.03-1.305 2.466-2.465 1.16 1.015 2.61 1.595 4.206 1.74Z" fill="#A2ABBC"/><path d="m32.846 76.43.427.428-.427-.427Z" fill="#3973F4"/><path d="M34.839 81.696c-.427.57-1.139.57-1.85.57.711-.712.284-2.847-1.993-2.562-3.273-.57-2.846-3.985.285-4.981l.569-.142.142.142c.285.711.57 1.138.997 1.708-1.281 1.138.569 1.423 1.423 2.276.569.285 1.138 2.135.427 2.989Z" fill="#A2ABBC"/><path d="M132.892 71.466c-.242 0-.484-.122-.725-.365l-3.384-3.402c-.363-.365-.363-1.094 0-1.458.362-.365 1.087-.365 1.45 0l2.78 2.794 5.68-5.71c.363-.365 1.088-.365 1.45 0 .363.364.363 1.093 0 1.458l-6.526 6.318c-.121.243-.363.365-.725.365Z" fill="url(#illustration_no_requests__i)"/><path d="M144.472 92.654c2.551 0 4.489-1.567 4.348-4.302V60.547c0-2.735-2.126-4.894-4.818-4.894H21.298c-2.692 0-4.817 2.16-4.817 4.894V88.35c0 2.736 2.125 4.303 4.817 4.303h73.545m38.31 0h-23.508" stroke="#BDCDF4" stroke-width=".75"/><g filter="url(#illustration_no_requests__j)"><path d="M190.503 138.016a21.011 21.011 0 0 1-1.107 3.405 2.72 2.72 0 0 1-.369.737c-1.567 3.037-4.057 5.522-7.1 6.994-.369.184-.738.368-1.014.46-2.951 1.197-6.271 1.657-9.59.921-8.76-1.841-14.385-10.4-12.541-19.143 1.844-8.743 10.42-14.357 19.18-12.516 3.135.644 5.901 2.208 8.207 4.417 3.872 3.773 5.532 9.387 4.334 14.725Z" fill="url(#illustration_no_requests__k)"/></g><path d="M168.332 138.878c0-.947 1.026-.516 1.625-2.582.684-2.496-.342-4.907 2.309-6.972.171-.173.428-.259.685-.431.085-.086.171-.172.171-.258-.086-.947.598-1.808 1.539-1.894.941-.086 1.796.603 1.882 1.55v.172c0 .172.085.258.171.344 1.882.947 2.652 2.582 2.737 4.648.342 4.649 1.369 3.96 1.967 4.735.514.774-.256 1.635-1.283 1.635-10.178.344-11.803.344-11.803-.947Z" fill="url(#illustration_no_requests__l)"/><path d="M174.234 142.838c-.856-.345-1.283-1.292-.941-2.066 0-.086.085-.172.256-.172h2.737c.086 0 .257.086.257.172.257.602 0 1.377-.428 1.807-.513.431-1.283.517-1.881.259Z" fill="url(#illustration_no_requests__m)"/><defs><linearGradient id="illustration_no_requests__b" x1="153.713" y1="20.552" x2="160.877" y2="20.552" gradientUnits="userSpaceOnUse"><stop stop-color="#FF66A9"/><stop offset="1" stop-color="#F53689"/></linearGradient><linearGradient id="illustration_no_requests__c" x1="56.542" y1="34.476" x2="56.542" y2="32.124" gradientUnits="userSpaceOnUse"><stop stop-color="#fff"/><stop offset="1" stop-color="#E2E5EC"/></linearGradient><linearGradient id="illustration_no_requests__e" x1="56.542" y1="127.83" x2="56.542" y2="125.478" gradientUnits="userSpaceOnUse"><stop stop-color="#fff"/><stop offset="1" stop-color="#E2E5EC"/></linearGradient><linearGradient id="illustration_no_requests__f" x1="149.769" y1="114.123" x2="161.729" y2="114.123" gradientUnits="userSpaceOnUse"><stop stop-color="#83A6FF"/><stop offset="1" stop-color="#5A78FF"/></linearGradient><linearGradient id="illustration_no_requests__h" x1="35.979" y1="80.242" x2="35.979" y2="78.674" gradientUnits="userSpaceOnUse"><stop stop-color="#fff"/><stop offset="1" stop-color="#E2E5EC"/></linearGradient><linearGradient id="illustration_no_requests__i" x1="128.423" y1="67.161" x2="140.383" y2="67.161" gradientUnits="userSpaceOnUse"><stop stop-color="#83A6FF"/><stop offset="1" stop-color="#5A78FF"/></linearGradient><linearGradient id="illustration_no_requests__k" x1="160.331" y1="126.999" x2="189.027" y2="143.208" gradientUnits="userSpaceOnUse"><stop stop-color="#83A6FF"/><stop offset=".995" stop-color="#5277D7"/></linearGradient><linearGradient id="illustration_no_requests__l" x1="179.836" y1="138.347" x2="170.462" y2="129.972" gradientUnits="userSpaceOnUse"><stop offset=".011" stop-color="#C2D1FF"/><stop offset="1" stop-color="#fff"/></linearGradient><linearGradient id="illustration_no_requests__m" x1="176.188" y1="142.683" x2="174.554" y2="140.551" gradientUnits="userSpaceOnUse"><stop offset=".011" stop-color="#C2D1FF"/><stop offset="1" stop-color="#fff"/></linearGradient><filter id="illustration_no_requests__a" x="21.258" y=".977" width="164.922" height="69.427" filterUnits="userSpaceOnUse" color-interpolation-filters="sRGB"><feFlood flood-opacity="0" result="BackgroundImageFix"/><feColorMatrix in="SourceAlpha" values="0 0 0 0 0 0 0 0 0 0 0 0 0 0 0 0 0 0 127 0" result="hardAlpha"/><feOffset dy="8"/><feGaussianBlur stdDeviation="8"/><feColorMatrix values="0 0 0 0 0.397708 0 0 0 0 0.47749 0 0 0 0 0.575 0 0 0 0.2 0"/><feBlend in2="BackgroundImageFix" result="effect1_dropShadow_1419_79453"/><feBlend in="SourceGraphic" in2="effect1_dropShadow_1419_79453" result="shape"/></filter><filter id="illustration_no_requests__d" x="21.258" y="94.331" width="164.922" height="69.427" filterUnits="userSpaceOnUse" color-interpolation-filters="sRGB"><feFlood flood-opacity="0" result="BackgroundImageFix"/><feColorMatrix in="SourceAlpha" values="0 0 0 0 0 0 0 0 0 0 0 0 0 0 0 0 0 0 127 0" result="hardAlpha"/><feOffset dy="8"/><feGaussianBlur stdDeviation="8"/><feColorMatrix values="0 0 0 0 0.397708 0 0 0 0 0.47749 0 0 0 0 0.575 0 0 0 0.2 0"/><feBlend in2="BackgroundImageFix" result="effect1_dropShadow_1419_79453"/><feBlend in="SourceGraphic" in2="effect1_dropShadow_1419_79453" result="shape"/></filter><filter id="illustration_no_requests__g" x=".481" y="47.654" width="164.922" height="69.427" filterUnits="userSpaceOnUse" color-interpolation-filters="sRGB"><feFlood flood-opacity="0" result="BackgroundImageFix"/><feColorMatrix in="SourceAlpha" values="0 0 0 0 0 0 0 0 0 0 0 0 0 0 0 0 0 0 127 0" result="hardAlpha"/><feOffset dy="8"/><feGaussianBlur stdDeviation="8"/><feColorMatrix values="0 0 0 0 0.397708 0 0 0 0 0.47749 0 0 0 0 0.575 0 0 0 0.2 0"/><feBlend in2="BackgroundImageFix" result="effect1_dropShadow_1419_79453"/><feBlend in="SourceGraphic" in2="effect1_dropShadow_1419_79453" result="shape"/></filter><filter id="illustration_no_requests__j" x="149.961" y="115.348" width="49.395" height="49.304" filterUnits="userSpaceOnUse" color-interpolation-filters="sRGB"><feFlood flood-opacity="0" result="BackgroundImageFix"/><feColorMatrix in="SourceAlpha" values="0 0 0 0 0 0 0 0 0 0 0 0 0 0 0 0 0 0 127 0" result="hardAlpha"/><feOffset dy="5.294"/><feGaussianBlur stdDeviation="4.235"/><feColorMatrix values="0 0 0 0 0.1125 0 0 0 0 0.295916 0 0 0 0 1 0 0 0 0.22 0"/><feBlend in2="BackgroundImageFix" result="effect1_dropShadow_1419_79453"/><feBlend in="SourceGraphic" in2="effect1_dropShadow_1419_79453" result="shape"/></filter></defs></svg>