<svg width="140" height="127" viewBox="0 0 140 127" fill="none" xmlns="http://www.w3.org/2000/svg">
<g clip-path="url(#clip0_4164_199221)">
<path d="M72.3575 109.993C99.0787 109.993 120.74 88.3296 120.74 61.6063C120.74 34.8831 99.0787 13.2196 72.3575 13.2196C45.6364 13.2196 23.9746 34.8831 23.9746 61.6063C23.9746 88.3296 45.6364 109.993 72.3575 109.993Z" fill="#EAEEF9"/>
<g filter="url(#filter0_d_4164_199221)">
<path d="M45.0027 49.6171H98.4478C100.492 49.6171 102.244 51.2721 102.244 53.414V87.0997C102.244 89.1442 100.59 90.8967 98.4478 90.8967H45.0027C42.9584 90.8967 41.2061 89.2416 41.2061 87.0997V53.414C41.2061 51.3695 42.9584 49.6171 45.0027 49.6171Z" fill="#CED7E2"/>
</g>
<path d="M128.661 49.5175C130.169 48.1391 130.274 45.799 128.896 44.2907C127.518 42.7824 125.178 42.677 123.67 44.0554C122.162 45.4338 122.056 47.7739 123.435 49.2822C124.813 50.7905 127.153 50.8958 128.661 49.5175Z" fill="#EAEEF9"/>
<path d="M128.934 33.0692C129.569 32.4888 129.613 31.5035 129.033 30.8684C128.453 30.2333 127.467 30.189 126.832 30.7694C126.197 31.3497 126.153 32.335 126.733 32.9701C127.314 33.6052 128.299 33.6495 128.934 33.0692Z" fill="#EAEEF9"/>
<path d="M89.6376 10.3036C90.0742 9.90462 90.1047 9.22722 89.7057 8.79061C89.3068 8.35399 88.6294 8.3235 88.1928 8.7225C87.7563 9.12149 87.7258 9.79889 88.1247 10.2355C88.5237 10.6721 89.2011 10.7026 89.6376 10.3036Z" fill="#EAEEF9"/>
<g filter="url(#filter1_d_4164_199221)">
<g filter="url(#filter2_d_4164_199221)">
<path d="M111.71 42.0906L103.206 74.4196C102.906 75.5071 101.788 76.1698 100.722 75.8922L69.9391 67.8812C68.8726 67.6037 68.2455 66.4868 68.5455 65.3994L79.9731 23.9773C80.2732 22.8899 81.3912 22.2272 82.4577 22.5048L104.757 28.308L111.71 42.0906Z" fill="white"/>
</g>
<path d="M101.096 60.7318L82.4418 55.7741C82.1964 55.7089 82.0691 55.4011 82.1519 55.0944C82.2348 54.7877 82.5002 54.5843 82.7456 54.6495L101.4 59.6072C101.645 59.6725 101.772 59.9802 101.689 60.2869C101.607 60.5937 101.341 60.7971 101.096 60.7318Z" fill="#E3EAF2"/>
<path d="M80.1199 55.1136L76.8399 54.2539C76.5951 54.1897 76.4682 53.8868 76.5509 53.5849C76.6336 53.2831 76.8983 53.0828 77.1431 53.147L80.4231 54.0067C80.6678 54.0708 80.7947 54.3737 80.7121 54.6756C80.6294 54.9775 80.3646 55.1778 80.1199 55.1136Z" fill="#CED7E2"/>
<path d="M102.098 56.7991L93.7594 54.5964C93.5141 54.5316 93.3869 54.226 93.4697 53.9214C93.5525 53.6168 93.8177 53.4147 94.0629 53.4795L102.401 55.6822C102.646 55.747 102.774 56.0527 102.691 56.3573C102.608 56.6619 102.343 56.8639 102.098 56.7991Z" fill="#CED7E2"/>
<path d="M90.2086 53.6132L78.0389 50.3885C77.7936 50.3235 77.6663 50.0167 77.7491 49.711C77.832 49.4054 78.0973 49.2026 78.3426 49.2677L90.5122 52.4924C90.7576 52.5574 90.8849 52.8641 90.802 53.1698C90.7683 53.4885 90.4539 53.6782 90.2086 53.6132Z" fill="#E3EAF2"/>
<path d="M102.277 44.2106L105.607 45.0833C105.851 45.1475 106.116 44.9472 106.199 44.6453C106.281 44.3433 106.155 44.0404 105.91 43.9762L102.581 43.1035C102.336 43.0394 102.071 43.2396 101.988 43.5416C101.892 43.8938 102.033 44.1464 102.277 44.2106Z" fill="#E3EAF2"/>
<path d="M103.309 52.8712L100.078 52.0245C99.8337 51.9603 99.7068 51.6575 99.7895 51.3556C99.8722 51.0538 100.137 50.8536 100.382 50.9177L103.613 51.7645C103.857 51.8286 103.984 52.1315 103.902 52.4333C103.819 52.7351 103.554 52.9354 103.309 52.8712Z" fill="#E3EAF2"/>
<path d="M97.0693 51.1978L88.3871 48.9034C88.1418 48.8385 88.0146 48.5327 88.0974 48.228C88.1802 47.9233 88.4454 47.7212 88.6907 47.786L97.4219 50.0934C97.6672 50.1582 97.7944 50.464 97.7116 50.7687C97.6288 51.0735 97.3636 51.2756 97.0693 51.1978Z" fill="#CED7E2"/>
<path d="M84.8764 64.6865L83.754 64.394C83.5101 64.3304 83.3836 64.0303 83.466 63.7311C83.5484 63.432 83.8122 63.2336 84.0562 63.2972L85.1785 63.5897C85.4225 63.6532 85.549 63.9534 85.4666 64.2525C85.3705 64.6015 85.1203 64.75 84.8764 64.6865Z" fill="#CED7E2"/>
<path d="M81.7287 63.8425L75.1099 62.0975C74.8647 62.0329 74.7376 61.7277 74.8205 61.4236C74.9033 61.1194 75.1684 60.9177 75.4136 60.9823L82.0324 62.7273C82.2776 62.792 82.4047 63.0971 82.3219 63.4013C82.2252 63.7561 81.9739 63.9072 81.7287 63.8425Z" fill="#E3EAF2"/>
<path d="M104.506 48.99L97.9854 47.271C97.7402 47.2064 97.6131 46.9012 97.696 46.5971C97.7788 46.293 98.0439 46.0913 98.2891 46.1559L104.859 47.8878C105.104 47.9525 105.231 48.2576 105.148 48.5617C105.065 48.8658 104.8 49.0676 104.506 48.99Z" fill="#CED7E2"/>
<path d="M90.4386 41.0676L99.2616 43.3842C99.5067 43.4485 99.7734 43.2418 99.8581 42.9319C99.9428 42.6221 99.8174 42.3124 99.5723 42.248L90.7493 39.9314C90.5042 39.867 90.2375 40.0738 90.1528 40.3836C90.0539 40.7451 90.1935 41.0032 90.4386 41.0676Z" fill="#CED7E2"/>
<path d="M95.2152 46.5023L89.3387 44.9672C89.0939 44.9033 88.9685 44.5954 89.0532 44.2874C89.1378 43.9794 89.4042 43.7739 89.6491 43.8379L95.5256 45.373C95.7705 45.437 95.8958 45.7448 95.8112 46.0528C95.7755 46.3736 95.5091 46.5791 95.2152 46.5023Z" fill="#E3EAF2"/>
<path d="M98.8712 34.2442L83.9527 30.2896C83.6092 30.1985 83.3976 29.8147 83.4942 29.4579C83.5909 29.1011 83.9681 28.8733 84.3117 28.9644L99.2301 32.919C99.5736 33.0101 99.7852 33.3939 99.6886 33.7507C99.5919 34.1075 99.2147 34.3353 98.8712 34.2442Z" fill="#CED7E2"/>
<path d="M88.7272 35.3612L82.9934 33.8531C82.6503 33.7629 82.439 33.3826 82.5355 33.0291C82.632 32.6756 83.0088 32.4499 83.3518 32.5401L89.0366 34.0353C89.3796 34.1255 89.591 34.5058 89.4945 34.8593C89.398 35.2128 89.0212 35.4385 88.7272 35.3612Z" fill="#CED7E2"/>
<path d="M104.736 28.5819L102.278 37.4902C101.937 38.7275 102.718 40.0447 103.932 40.3604L111.7 42.3815" fill="#EAEFF4"/>
</g>
<g filter="url(#filter3_d_4164_199221)">
<g filter="url(#filter4_d_4164_199221)">
<path d="M70.8112 32.6177L81.1971 68.5774C81.5329 69.7946 80.831 71.0446 79.6373 71.3553L45.1825 80.3219C43.9888 80.6326 42.7374 79.8909 42.4016 78.6737L29.6108 32.3103C29.275 31.0932 29.9769 29.8431 31.1706 29.5325L56.13 23.0369L70.8112 32.6177Z" fill="white"/>
</g>
<path d="M71.0865 56.3444L50.2074 61.8936C49.9326 61.9666 49.6356 61.7389 49.5428 61.3956C49.4501 61.0523 49.5926 60.7078 49.8673 60.6348L70.7465 55.0857C71.0212 55.0127 71.3183 55.2403 71.411 55.5836C71.5037 55.9269 71.3612 56.2714 71.0865 56.3444Z" fill="#E3EAF2"/>
<path d="M47.6079 62.614L43.9366 63.5762C43.6627 63.6481 43.3663 63.4239 43.2738 63.086C43.1812 62.7481 43.3233 62.4091 43.5973 62.3373L47.2685 61.375C47.5425 61.3032 47.8388 61.5273 47.9314 61.8652C48.0239 62.2031 47.8819 62.5422 47.6079 62.614Z" fill="#CED7E2"/>
<path d="M69.8565 51.9617L60.5235 54.4272C60.249 54.4997 59.9522 54.2736 59.8595 53.9327C59.7669 53.5917 59.9092 53.2496 60.1837 53.1771L69.5167 50.7116C69.7912 50.6391 70.088 50.8652 70.1807 51.2062C70.2733 51.5471 70.131 51.8892 69.8565 51.9617Z" fill="#CED7E2"/>
<path d="M56.5492 55.532L42.9278 59.1414C42.6532 59.2141 42.3562 58.9872 42.2635 58.6451C42.1708 58.3029 42.3133 57.9596 42.5879 57.8868L56.2093 54.2774C56.4839 54.2047 56.7808 54.4316 56.8735 54.7737C57.0212 55.1013 56.8238 55.4592 56.5492 55.532Z" fill="#E3EAF2"/>
<path d="M62.9734 39.6047L66.6996 38.628C66.9736 38.5561 67.1156 38.2171 67.0231 37.8791C66.9305 37.5412 66.6342 37.317 66.3602 37.3888L62.634 38.3656C62.36 38.4374 62.2179 38.7765 62.3105 39.1144C62.4185 39.5087 62.6994 39.6766 62.9734 39.6047Z" fill="#E3EAF2"/>
<path d="M68.8315 47.4624L65.2152 48.4102C64.9412 48.482 64.6449 48.2579 64.5523 47.92C64.4598 47.5822 64.6018 47.2432 64.8758 47.1714L68.4921 46.2237C68.7661 46.1519 69.0624 46.3759 69.155 46.7138C69.2475 47.0516 69.1055 47.3906 68.8315 47.4624Z" fill="#E3EAF2"/>
<path d="M61.8473 49.3464L52.1294 51.9145C51.8549 51.9871 51.558 51.7609 51.4654 51.4198C51.3727 51.0787 51.5151 50.7364 51.7896 50.6638L61.5624 48.0812C61.8369 48.0086 62.1337 48.2349 62.2264 48.5759C62.3191 48.917 62.1767 49.2593 61.8473 49.3464Z" fill="#CED7E2"/>
<path d="M57.575 69.2196L56.3188 69.5469C56.0457 69.6181 55.7504 69.396 55.6581 69.0612C55.5659 68.7264 55.7075 68.3905 55.9806 68.3193L57.2367 67.9919C57.5098 67.9208 57.8052 68.1428 57.8974 68.4777C58.005 68.8683 57.8481 69.1484 57.575 69.2196Z" fill="#CED7E2"/>
<path d="M54.0535 70.1839L46.6446 72.1372C46.3702 72.2096 46.0735 71.984 45.9809 71.6439C45.8883 71.3037 46.0306 70.9624 46.305 70.89L53.7139 68.9367C53.9883 68.8644 54.285 69.09 54.3776 69.4301C54.4857 69.827 54.3279 70.1116 54.0535 70.1839Z" fill="#E3EAF2"/>
<path d="M67.8206 43.0391L60.5215 44.9633C60.2471 45.0357 59.9504 44.8101 59.8578 44.47C59.7652 44.1299 59.9075 43.7886 60.1819 43.7162L67.5358 41.7775C67.8102 41.7052 68.1069 41.9308 68.1996 42.2709C68.2922 42.611 68.1499 42.9523 67.8206 43.0391Z" fill="#CED7E2"/>
<path d="M49.73 43.1541L59.6055 40.5612C59.8798 40.4891 60.0203 40.1425 59.9254 39.7957C59.8306 39.4488 59.5321 39.2174 59.2578 39.2895L49.3823 41.8824C49.1079 41.9545 48.9675 42.3011 49.0624 42.6479C49.173 43.0526 49.4557 43.2262 49.73 43.1541Z" fill="#CED7E2"/>
<path d="M57.4277 45.8396L50.8502 47.5578C50.5761 47.6294 50.2779 47.3994 50.1831 47.0546C50.0884 46.7099 50.2287 46.3653 50.5027 46.2937L57.0803 44.5755C57.3544 44.5039 57.6526 44.7339 57.7473 45.0787C57.8969 45.4091 57.7566 45.7536 57.4277 45.8396Z" fill="#E3EAF2"/>
<path d="M54.1087 31.9158L37.4107 36.3422C37.0262 36.4441 36.6039 36.1892 36.4958 35.7899C36.3876 35.3905 36.6245 34.9609 37.009 34.8589L53.707 30.4326C54.0915 30.3306 54.5138 30.5856 54.6219 30.9849C54.7301 31.3843 54.4932 31.8139 54.1087 31.9158Z" fill="#CED7E2"/>
<path d="M44.8998 38.6602L38.482 40.3482C38.098 40.4491 37.6763 40.1965 37.5683 39.8009C37.4603 39.4052 37.6969 38.9795 38.0808 38.8785L44.4437 37.205C44.8277 37.104 45.2494 37.3566 45.3574 37.7523C45.4654 38.1479 45.2289 38.5737 44.8998 38.6602Z" fill="#CED7E2"/>
<path d="M56.4935 23.0446L59.2452 33.0155C59.6274 34.4004 61.1439 35.2526 62.5025 34.8992L71.1973 32.6371" fill="#EAEFF4"/>
</g>
<g filter="url(#filter5_d_4164_199221)">
<path d="M101.12 60.6489H82.283C80.489 60.6489 78.6951 61.2934 77.3088 62.4209L72.3345 66.4477C70.9483 67.5752 69.1544 68.2197 67.3604 68.2197H45.9141C43.7939 68.2197 41.9999 69.9108 41.9999 72.0853C41.9999 72.2463 42 72.4881 42.0815 72.6492L45.9955 93.2662C46.3217 95.1991 47.9526 96.6489 49.9097 96.6489H95.5748C97.5319 96.6489 99.1628 95.2797 99.489 93.3468L104.952 65.1591C105.279 63.0651 103.892 61.0517 101.691 60.7295C101.528 60.649 101.283 60.6489 101.12 60.6489Z" fill="white"/>
</g>
<g filter="url(#filter6_d_4164_199221)">
<path d="M106.349 56.9H83.8613C81.7196 56.9 79.578 57.6791 77.9231 59.0421L71.9846 63.91C70.3297 65.273 68.1881 66.052 66.0464 66.052H40.4434C37.9123 66.052 35.7705 68.0963 35.7705 70.725C35.7705 70.9197 35.7706 71.212 35.868 71.4067L40.5406 96.3299C40.93 98.6664 42.877 100.419 45.2134 100.419H99.7294C102.066 100.419 104.013 98.7639 104.402 96.4273L110.925 62.3521C111.314 59.8208 109.659 57.3869 107.031 56.9975C106.836 56.9001 106.544 56.9 106.349 56.9Z" fill="white"/>
</g>
<path d="M62.7365 82.7971C64.0806 82.7971 65.1702 81.7074 65.1702 80.3631C65.1702 79.0189 64.0806 77.9292 62.7365 77.9292C61.3924 77.9292 60.3027 79.0189 60.3027 80.3631C60.3027 81.7074 61.3924 82.7971 62.7365 82.7971Z" fill="#1C3754"/>
<path d="M81.8172 82.6997C83.1613 82.6997 84.2509 81.61 84.2509 80.2657C84.2509 78.9215 83.1613 77.8318 81.8172 77.8318C80.473 77.8318 79.3834 78.9215 79.3834 80.2657C79.3834 81.61 80.473 82.6997 81.8172 82.6997Z" fill="#1C3754"/>
<path d="M67.1173 83.1282L68.3827 83.1282C69.4535 85.3674 72.1794 86.2436 74.3211 85.0753C75.1972 84.6859 75.8787 83.907 76.2681 83.1282L77.5337 83.1282C76.4628 86.0489 73.1528 87.5092 70.3297 86.4382C68.8694 85.8541 67.7014 84.6859 67.1173 83.1282Z" fill="#1C3754"/>
<path d="M13.3431 35.2549C14.7967 34.7816 15.5921 33.2176 15.1196 31.7616C14.6472 30.3055 13.0857 29.5088 11.6321 29.9821C10.1784 30.4553 9.38302 32.0193 9.85549 33.4754C10.328 34.9314 11.8894 35.7281 13.3431 35.2549Z" fill="#EAEEF9"/>
<path d="M30.5461 18.7704C31.5855 18.7704 32.4281 17.9264 32.4281 16.8852C32.4281 15.8441 31.5855 15.0001 30.5461 15.0001C29.5067 15.0001 28.6641 15.8441 28.6641 16.8852C28.6641 17.9264 29.5067 18.7704 30.5461 18.7704Z" fill="url(#paint0_linear_4164_199221)"/>
<path d="M123.136 22.7704C124.175 22.7704 125.018 21.9264 125.018 20.8852C125.018 19.8441 124.175 19.0001 123.136 19.0001C122.097 19.0001 121.254 19.8441 121.254 20.8852C121.254 21.9264 122.097 22.7704 123.136 22.7704Z" fill="url(#paint1_linear_4164_199221)"/>
<path d="M9.88203 63.5775C10.9214 63.5775 11.7641 62.7335 11.7641 61.6924C11.7641 60.6512 10.9214 59.8073 9.88203 59.8073C8.84261 59.8073 8 60.6512 8 61.6924C8 62.7335 8.84261 63.5775 9.88203 63.5775Z" fill="url(#paint2_linear_4164_199221)"/>
<g filter="url(#filter7_d_4164_199221)">
<path d="M122.951 102.065C122.951 103.43 122.756 104.698 122.463 105.965C122.268 106.745 122.073 107.428 121.78 108.11C120.122 112.401 116.707 115.911 112.415 117.667C112.317 117.764 112.22 117.764 112.122 117.764C111.829 117.862 111.537 117.959 111.146 118.057C109.488 118.642 107.732 118.837 105.976 118.837C96.6098 118.837 89 111.231 89 101.87C89 92.5085 96.6098 85 105.976 85C115.341 85.0975 122.951 92.7035 122.951 102.065Z" fill="url(#paint3_linear_4164_199221)"/>
</g>
<path d="M122.463 105.965C122.268 106.746 122.073 107.428 121.78 108.111C120.122 112.401 116.707 115.912 112.415 117.667L102.951 108.208L101.683 106.941L111.049 98.5545L114.171 96.7993L122.463 105.088V105.965Z" fill="url(#paint4_linear_4164_199221)"/>
<path d="M104.22 108.696C103.732 108.696 103.244 108.501 102.854 108.11L98.9513 104.21C98.1708 103.43 98.1708 102.162 98.9513 101.382C99.7318 100.602 101 100.602 101.781 101.382L104.22 103.82L111.342 96.7015C112.122 95.9214 113.39 95.9214 114.171 96.7015C114.951 97.4816 114.951 98.7493 114.171 99.5294L105.683 108.11C105.293 108.501 104.707 108.696 104.22 108.696Z" fill="url(#paint5_linear_4164_199221)"/>
<path d="M60.6871 95.6022C60.6871 98.8074 59.3461 101.714 57.1112 103.727C56.5152 104.249 55.8448 104.771 55.1743 105.143C53.5353 106.112 51.6729 106.634 49.587 106.634C47.5755 106.634 45.6386 106.112 43.9996 105.143C43.7761 104.994 43.4782 104.845 43.2547 104.696C40.3493 102.683 38.4868 99.4038 38.4868 95.6022C38.5613 89.49 43.4782 84.4958 49.587 84.4958C55.6958 84.4958 60.6871 89.49 60.6871 95.6022Z" fill="#E9F0F8"/>
<path d="M47.725 98.5838C47.874 98.7329 48.023 98.8074 48.172 98.9565C48.2465 99.0311 48.3955 99.1056 48.47 99.1801C48.47 99.1801 48.5445 99.1801 48.5445 99.2547L48.619 99.3292V100.298C48.619 100.298 48.619 100.298 48.5445 100.224C48.47 100.149 48.3955 100.075 48.2465 100C48.0975 99.9255 47.9485 99.851 47.7995 99.7019C47.725 99.7019 47.725 99.6274 47.6505 99.6274C47.576 99.5528 47.5015 99.5528 47.427 99.4783C47.3525 99.4783 47.3525 99.4038 47.278 99.4038C46.98 99.1801 46.7565 99.0311 46.7565 98.8074C46.7565 98.6584 46.9055 98.4348 47.2035 98.1366C47.427 98.2111 47.576 98.3602 47.725 98.5838ZM43.3296 104.696V104.622V104.547C43.4786 103.429 44.0746 102.311 45.0431 101.491C45.1921 101.416 45.4156 101.267 45.639 101.267C45.4901 101.267 45.3411 101.193 45.2666 101.193C45.1921 101.193 45.1921 101.193 45.1176 101.118C44.8196 101.044 44.5961 100.895 44.4471 100.745C44.3726 100.671 44.2981 100.671 44.2981 100.596C44.2236 100.522 44.2236 100.522 44.1491 100.447C44.0746 100.373 44.0746 100.373 44.0001 100.298C43.9256 100.224 43.8511 100.149 43.8511 100C43.7766 99.9255 43.7766 99.851 43.7021 99.7019C43.7021 99.6274 43.6276 99.5528 43.6276 99.4038C43.5531 99.1056 43.6276 98.882 43.7021 98.5838C43.7021 98.5093 43.7766 98.4348 43.7766 98.3602C43.8511 98.2111 43.8511 98.1366 43.9256 97.9875C44.0001 97.8384 44.0746 97.7639 44.2236 97.6148C44.2981 97.5403 44.2981 97.5403 44.3726 97.4657C44.4471 97.3912 44.5216 97.3167 44.5961 97.2421C44.7451 97.093 44.8941 97.0185 45.1176 96.8694C45.4156 96.7203 45.639 96.5713 46.0115 96.4967L46.533 96.3476C46.533 96.3476 46.6075 96.3476 46.6075 96.2731C46.1605 95.9004 45.7135 95.9749 45.4901 95.3041C45.3411 94.9314 45.4901 94.6332 45.5645 94.4096C45.5645 94.3351 45.639 94.3351 45.639 94.2605C45.7135 94.1115 45.7135 94.186 45.639 94.0369C45.639 94.0369 45.639 94.0369 45.639 93.9624C45.639 93.8878 45.639 93.9624 45.639 93.8878C45.639 93.8133 45.639 93.6642 45.639 93.5151C45.639 93.3661 45.639 93.2915 45.639 93.1424C45.639 92.9934 45.639 92.9188 45.639 92.7697C45.639 92.3971 45.7135 92.0244 45.8625 91.6517C46.086 90.9063 46.533 90.3099 47.0545 89.7882L47.129 89.7136C47.2035 89.6391 47.3525 89.5645 47.427 89.49C47.9485 89.1173 48.5445 88.8192 49.1404 88.6701C49.5129 88.5955 49.8109 88.521 50.1834 88.521C50.3324 88.521 50.4814 88.521 50.7049 88.521C50.8539 88.521 51.0029 88.521 51.1519 88.5955C51.3009 88.5955 51.4499 88.6701 51.5989 88.7446C51.7478 88.7446 51.8223 88.8192 51.9713 88.8937C52.1948 88.9682 52.4183 89.1173 52.6418 89.2664C52.7908 89.3409 52.9398 89.4155 53.0888 89.5645L53.1633 89.6391C53.3123 89.7136 53.4613 89.8627 53.5358 90.0118C53.8338 90.3099 54.0573 90.6826 54.2808 91.0553C54.3553 91.2044 54.4298 91.3535 54.5043 91.5026C54.5788 91.5771 54.5788 91.7262 54.5788 91.8007C54.5788 91.8753 54.6533 91.9498 54.6533 92.0244C54.7278 92.248 54.7278 92.3971 54.7278 92.6207C54.7278 92.6952 54.7278 92.8443 54.7278 92.9188C54.7278 92.9934 54.7278 93.1424 54.7278 93.217C54.7278 93.3661 54.7278 93.5151 54.7278 93.6642C54.7278 93.9624 54.8767 94.186 54.9512 94.4842C55.0257 95.0805 54.5788 95.6768 53.9828 95.8259C53.8338 96.4222 53.6103 97.0185 53.2378 97.5403C52.8653 98.0621 52.4183 98.5093 51.9713 98.882V100.298V100.447C51.9713 100.447 52.0458 100.596 52.7908 100.596C52.8653 100.596 52.9398 100.596 53.0143 100.596H53.4613C54.0573 100.596 54.5788 100.745 55.0257 100.969C55.9942 101.416 56.6647 102.311 57.1117 103.205C57.1862 103.28 57.1862 103.429 57.2607 103.503C56.6647 104.025 55.9942 104.547 55.3237 104.92H44.0001L43.3296 104.696Z" fill="white"/>
<path d="M57.1115 103.727C56.5155 104.249 55.8451 104.771 55.1746 105.143C53.5356 106.112 51.6732 106.634 49.5873 106.634C47.5758 106.634 45.6389 106.112 44 105.143C43.7765 104.994 43.4785 104.845 43.255 104.696V104.622V104.547C43.404 103.429 43.9999 102.311 44.9684 101.491C45.1174 101.416 45.3409 101.267 45.5644 101.267C45.4154 101.267 45.2664 101.193 45.1919 101.193C45.1174 101.193 45.1174 101.193 45.0429 101.118H44.9684C44.8939 101.118 44.7449 101.044 44.6704 100.969C44.5214 100.895 44.4469 100.82 44.3724 100.745C44.2979 100.671 44.2234 100.671 44.2234 100.596C44.1489 100.522 44.1489 100.522 44.0744 100.447C44 100.373 44 100.373 43.9255 100.298H46.5329C47.2033 101.267 48.3208 101.864 49.5873 101.938C49.6618 101.938 49.7363 101.938 49.8108 101.938C50.9282 101.938 51.9712 101.491 52.7162 100.671C52.7907 100.671 52.8652 100.671 52.9397 100.671H53.3866C53.9826 100.671 54.5041 100.82 54.9511 101.044C55.9196 101.491 56.59 102.385 57.037 103.28C57.037 103.503 57.037 103.578 57.1115 103.727Z" fill="url(#paint6_linear_4164_199221)"/>
<path d="M51.8967 98.9565C51.8222 98.9565 51.8222 98.9565 51.8967 98.9565V100.447L47.5758 100.596L47.7993 99.6274C47.8738 99.6274 47.8738 99.7019 47.9483 99.7019C48.0973 99.7765 48.2463 99.851 48.3953 100C48.4698 100.075 48.5443 100.149 48.6933 100.224C48.6933 100.224 48.6933 100.224 48.7678 100.298V99.3292L48.6933 99.2547C49.3638 99.5529 50.4067 99.7765 51.8967 98.9565Z" fill="url(#paint7_linear_4164_199221)"/>
<path d="M54.653 92.9932C53.8335 93.2914 52.8651 93.4404 51.9711 93.3659C50.5556 93.2914 49.1402 92.6951 48.0972 91.726C47.7247 92.7696 46.8308 93.515 45.8623 93.9622C45.7133 94.0368 45.5643 94.1113 45.4898 94.1113C45.4898 94.1113 45.4898 94.1113 45.4898 94.0368C45.4153 93.2914 45.4153 92.546 45.7133 91.8006C45.9368 91.0552 46.3838 90.3843 46.9053 89.9371L46.9798 89.8626C47.0543 89.788 47.2033 89.7135 47.2778 89.6389C47.7992 89.2662 48.3952 88.9681 48.9912 88.819C49.3637 88.7445 49.6617 88.6699 50.0342 88.6699C51.8221 88.6699 53.3121 89.6389 54.1315 91.1297C54.4295 91.726 54.5785 92.1733 54.653 92.6951C54.653 92.8441 54.653 92.9187 54.653 92.9932Z" fill="#252E48"/>
<path d="M49.2147 103.131C48.8422 103.578 48.1717 103.653 47.5012 103.578C48.0972 102.982 47.7992 100.969 45.5643 101.193C42.5099 100.596 42.8824 97.4658 45.7878 96.5713L46.3092 96.4222L46.3837 96.4968C46.6072 97.0931 46.9052 97.6149 47.2777 98.0621C46.0858 99.1057 47.7247 99.4038 48.5442 100.149C49.2892 100.522 49.8851 102.311 49.2147 103.131Z" fill="#252E48"/>
<g filter="url(#filter8_d_4164_199221)">
<path d="M44.2003 86.8072C44.2003 90.0124 42.8593 92.9194 40.6244 94.932C40.0284 95.4538 39.3579 95.9756 38.6875 96.3483C37.0485 97.3173 35.1861 97.839 33.1001 97.839C31.0887 97.839 29.1518 97.3173 27.5128 96.3483C27.2893 96.1992 26.9913 96.0501 26.7678 95.901C23.8624 93.8884 22 90.6087 22 86.8072C22.0745 80.695 26.9913 75.7008 33.1001 75.7008C39.2089 75.7008 44.2003 80.695 44.2003 86.8072Z" fill="#E9F0F8"/>
<mask id="mask0_4164_199221" style="mask-type:alpha" maskUnits="userSpaceOnUse" x="22" y="75" width="23" height="23">
<path d="M44.2003 86.1065C44.2003 89.3117 42.8593 92.2187 40.6244 94.2313C40.0284 94.7531 39.3579 95.2749 38.6875 95.6476C37.0485 96.6166 35.1861 97.1384 33.1001 97.1384C31.0887 97.1384 29.1518 96.6166 27.5128 95.6476C27.2893 95.4985 26.9913 95.3494 26.7678 95.2003C23.8624 93.1878 22 89.908 22 86.1065C22.0745 79.9943 26.9913 75.0001 33.1001 75.0001C39.2089 75.0001 44.2003 79.9943 44.2003 86.1065Z" fill="#E9F0F8"/>
</mask>
<g mask="url(#mask0_4164_199221)">
<path d="M41.3657 93.7663C41.1829 93.9479 41.0458 94.1296 40.8631 94.2658C38.807 96.1728 36.0656 97.308 33.0044 97.308C30.5828 97.308 28.2983 96.5815 26.4251 95.2647C25.8768 94.9015 25.3742 94.4474 24.9173 93.9933C25.1457 93.6755 25.6026 93.4485 26.5164 93.0852L26.882 92.949C27.5673 92.6766 28.5268 92.3133 29.7604 91.8139C29.9432 91.7231 30.1259 91.6323 30.2173 91.4506C30.263 91.3598 30.3544 91.269 30.3544 91.1782C30.4458 91.042 30.4458 90.8604 30.4458 90.6787V88.363C30.4001 88.3176 30.4001 88.2722 30.3544 88.2268C30.1716 87.909 30.0346 87.5912 29.9889 87.2279L29.8061 87.1371C29.2121 87.2733 29.2578 86.6376 29.1208 85.4117C29.0751 84.9122 29.1208 84.8214 29.3492 84.7306L29.532 84.4582C29.0751 83.4592 28.8923 82.6419 28.8923 81.9154C28.8923 80.7803 29.3949 80.0084 30.0803 79.6452C29.7604 78.9187 29.7147 78.6008 29.7147 78.6008C29.7147 78.6008 32.1363 79.0095 32.9587 78.8279C34.0096 78.6008 35.6544 78.8733 36.2484 80.2808C36.3855 80.3262 36.4768 80.3717 36.6139 80.4171C37.3906 80.8257 37.6648 81.3706 37.7562 81.9608C37.8932 83.0506 37.2993 84.2311 37.1622 84.7306C37.1622 84.7306 37.1622 84.776 37.2079 84.776C37.3906 84.8668 37.4363 85.003 37.3449 85.4571C37.2079 86.6376 37.2536 87.3187 36.6596 87.1825L36.1113 88.0906C36.1113 88.1814 36.0656 88.2268 36.0656 88.3176C36.0656 88.4993 36.0656 88.8171 36.0656 90.7241C36.0656 90.7695 36.0656 90.8604 36.0656 90.9058C36.0656 91.0874 36.157 91.2236 36.2484 91.3598C36.2941 91.4052 36.3398 91.4506 36.3855 91.496C36.5225 91.6323 36.6596 91.7231 36.8424 91.8139C38.2131 92.4042 39.2182 92.7674 39.9493 93.0398C40.6346 93.3577 41.0915 93.5847 41.3657 93.7663Z" fill="white"/>
<path d="M42.4626 97.1718C40.4065 99.0788 36.066 97.3534 33.0048 97.3534C30.5832 97.3534 25.5116 99.2605 23.6383 97.9891C23.2728 97.7167 23.7297 96.6723 23.8668 96.3545C24.0952 95.7188 24.3237 95.0831 24.6435 94.4929C25.3289 93.1761 28.4815 92.5404 29.7608 91.8593C29.9892 91.7231 30.1263 91.6323 30.2177 91.4961C31.7254 93.5848 34.8324 93.5848 36.3401 91.5415C36.4772 91.6777 36.6143 91.7685 36.797 91.8593C36.8427 91.8593 36.8884 91.9047 36.9341 91.9047C41.1832 93.6302 41.4574 93.4031 42.0057 94.9923C42.097 95.2648 42.6453 96.9902 42.4626 97.1718Z" fill="white"/>
<path d="M42.4626 97.0441C40.4065 98.9512 36.066 97.2258 33.0048 97.2258C30.5832 97.2258 25.5116 99.1328 23.6383 97.8615C23.2728 97.589 23.7297 96.5447 23.8668 96.2268C24.0952 95.5912 24.3237 94.9555 24.6435 94.3652C25.3289 93.0485 28.4815 92.4128 29.7608 91.7317C29.7608 91.7317 29.7608 91.7317 29.8065 91.7317C31.5427 94.1382 35.1522 94.1382 36.8884 91.7771H36.9341C41.1832 93.5025 41.4574 93.2755 42.0057 94.8647C42.097 95.1371 42.6453 96.8625 42.4626 97.0441Z" fill="url(#paint8_linear_4164_199221)"/>
<path d="M37.1624 84.7306C37.2081 84.4582 37.071 84.0949 36.9796 83.8225C36.9796 83.7771 36.9339 83.7317 36.9339 83.6863C36.477 82.7782 35.4262 82.3695 34.4667 82.3241C31.9537 82.1879 31.7253 82.6873 30.9029 81.9608C31.1313 82.3241 31.177 82.9144 30.8115 83.6409C30.5374 84.1403 30.0348 84.3673 29.5779 84.5036C28.4356 81.9154 28.9839 80.2808 30.1261 79.6906C29.7606 78.9187 29.7149 78.6008 29.7149 78.6008C29.7149 78.6008 32.1365 79.0095 32.9589 78.8279C34.0098 78.6008 35.6546 78.8733 36.2486 80.2808C37.2538 80.6895 37.665 81.3252 37.7564 82.0063C37.9391 83.096 37.2995 84.2765 37.1624 84.7306Z" fill="#1C3754"/>
</g>
</g>
</g>
<defs>
<filter id="filter0_d_4164_199221" x="19.2061" y="38.6171" width="105.038" height="85.2797" filterUnits="userSpaceOnUse" color-interpolation-filters="sRGB">
<feFlood flood-opacity="0" result="BackgroundImageFix"/>
<feColorMatrix in="SourceAlpha" type="matrix" values="0 0 0 0 0 0 0 0 0 0 0 0 0 0 0 0 0 0 127 0" result="hardAlpha"/>
<feOffset dy="11"/>
<feGaussianBlur stdDeviation="11"/>
<feColorMatrix type="matrix" values="0 0 0 0 0.397708 0 0 0 0 0.47749 0 0 0 0 0.575 0 0 0 0.18 0"/>
<feBlend mode="normal" in2="BackgroundImageFix" result="effect1_dropShadow_4164_199221"/>
<feBlend mode="normal" in="SourceGraphic" in2="effect1_dropShadow_4164_199221" result="shape"/>
</filter>
<filter id="filter1_d_4164_199221" x="36.4705" y="-0.558472" width="107.239" height="117.514" filterUnits="userSpaceOnUse" color-interpolation-filters="sRGB">
<feFlood flood-opacity="0" result="BackgroundImageFix"/>
<feColorMatrix in="SourceAlpha" type="matrix" values="0 0 0 0 0 0 0 0 0 0 0 0 0 0 0 0 0 0 127 0" result="hardAlpha"/>
<feOffset dy="9"/>
<feGaussianBlur stdDeviation="16"/>
<feComposite in2="hardAlpha" operator="out"/>
<feColorMatrix type="matrix" values="0 0 0 0 0 0 0 0 0 0 0 0 0 0 0 0 0 0 0.12 0"/>
<feBlend mode="normal" in2="BackgroundImageFix" result="effect1_dropShadow_4164_199221"/>
<feBlend mode="normal" in="SourceGraphic" in2="effect1_dropShadow_4164_199221" result="shape"/>
</filter>
<filter id="filter2_d_4164_199221" x="46.4705" y="11.4415" width="87.2392" height="97.5139" filterUnits="userSpaceOnUse" color-interpolation-filters="sRGB">
<feFlood flood-opacity="0" result="BackgroundImageFix"/>
<feColorMatrix in="SourceAlpha" type="matrix" values="0 0 0 0 0 0 0 0 0 0 0 0 0 0 0 0 0 0 127 0" result="hardAlpha"/>
<feOffset dy="11"/>
<feGaussianBlur stdDeviation="11"/>
<feColorMatrix type="matrix" values="0 0 0 0 0.397708 0 0 0 0 0.47749 0 0 0 0 0.575 0 0 0 0.18 0"/>
<feBlend mode="normal" in2="BackgroundImageFix" result="effect1_dropShadow_4164_199221"/>
<feBlend mode="normal" in="SourceGraphic" in2="effect1_dropShadow_4164_199221" result="shape"/>
</filter>
<filter id="filter3_d_4164_199221" x="-2.47319" y="0.0369873" width="115.754" height="121.356" filterUnits="userSpaceOnUse" color-interpolation-filters="sRGB">
<feFlood flood-opacity="0" result="BackgroundImageFix"/>
<feColorMatrix in="SourceAlpha" type="matrix" values="0 0 0 0 0 0 0 0 0 0 0 0 0 0 0 0 0 0 127 0" result="hardAlpha"/>
<feOffset dy="9"/>
<feGaussianBlur stdDeviation="16"/>
<feComposite in2="hardAlpha" operator="out"/>
<feColorMatrix type="matrix" values="0 0 0 0 0 0 0 0 0 0 0 0 0 0 0 0 0 0 0.12 0"/>
<feBlend mode="normal" in2="BackgroundImageFix" result="effect1_dropShadow_4164_199221"/>
<feBlend mode="normal" in="SourceGraphic" in2="effect1_dropShadow_4164_199221" result="shape"/>
</filter>
<filter id="filter4_d_4164_199221" x="7.52681" y="12.037" width="95.7543" height="101.356" filterUnits="userSpaceOnUse" color-interpolation-filters="sRGB">
<feFlood flood-opacity="0" result="BackgroundImageFix"/>
<feColorMatrix in="SourceAlpha" type="matrix" values="0 0 0 0 0 0 0 0 0 0 0 0 0 0 0 0 0 0 127 0" result="hardAlpha"/>
<feOffset dy="11"/>
<feGaussianBlur stdDeviation="11"/>
<feColorMatrix type="matrix" values="0 0 0 0 0.397708 0 0 0 0 0.47749 0 0 0 0 0.575 0 0 0 0.18 0"/>
<feBlend mode="normal" in2="BackgroundImageFix" result="effect1_dropShadow_4164_199221"/>
<feBlend mode="normal" in="SourceGraphic" in2="effect1_dropShadow_4164_199221" result="shape"/>
</filter>
<filter id="filter5_d_4164_199221" x="36.9999" y="50.6489" width="73" height="46" filterUnits="userSpaceOnUse" color-interpolation-filters="sRGB">
<feFlood flood-opacity="0" result="BackgroundImageFix"/>
<feColorMatrix in="SourceAlpha" type="matrix" values="0 0 0 0 0 0 0 0 0 0 0 0 0 0 0 0 0 0 127 0" result="hardAlpha"/>
<feOffset dy="-5"/>
<feGaussianBlur stdDeviation="2.5"/>
<feColorMatrix type="matrix" values="0 0 0 0 0.397708 0 0 0 0 0.47749 0 0 0 0 0.575 0 0 0 0.18 0"/>
<feBlend mode="normal" in2="BackgroundImageFix" result="effect1_dropShadow_4164_199221"/>
<feBlend mode="normal" in="SourceGraphic" in2="effect1_dropShadow_4164_199221" result="shape"/>
</filter>
<filter id="filter6_d_4164_199221" x="13.7705" y="45.9" width="119.211" height="87.519" filterUnits="userSpaceOnUse" color-interpolation-filters="sRGB">
<feFlood flood-opacity="0" result="BackgroundImageFix"/>
<feColorMatrix in="SourceAlpha" type="matrix" values="0 0 0 0 0 0 0 0 0 0 0 0 0 0 0 0 0 0 127 0" result="hardAlpha"/>
<feOffset dy="11"/>
<feGaussianBlur stdDeviation="11"/>
<feColorMatrix type="matrix" values="0 0 0 0 0.397708 0 0 0 0 0.47749 0 0 0 0 0.575 0 0 0 0.18 0"/>
<feBlend mode="normal" in2="BackgroundImageFix" result="effect1_dropShadow_4164_199221"/>
<feBlend mode="normal" in="SourceGraphic" in2="effect1_dropShadow_4164_199221" result="shape"/>
</filter>
<filter id="filter7_d_4164_199221" x="81" y="82" width="49.9512" height="49.8369" filterUnits="userSpaceOnUse" color-interpolation-filters="sRGB">
<feFlood flood-opacity="0" result="BackgroundImageFix"/>
<feColorMatrix in="SourceAlpha" type="matrix" values="0 0 0 0 0 0 0 0 0 0 0 0 0 0 0 0 0 0 127 0" result="hardAlpha"/>
<feOffset dy="5"/>
<feGaussianBlur stdDeviation="4"/>
<feColorMatrix type="matrix" values="0 0 0 0 0.1125 0 0 0 0 0.295916 0 0 0 0 1 0 0 0 0.22 0"/>
<feBlend mode="normal" in2="BackgroundImageFix" result="effect1_dropShadow_4164_199221"/>
<feBlend mode="normal" in="SourceGraphic" in2="effect1_dropShadow_4164_199221" result="shape"/>
</filter>
<filter id="filter8_d_4164_199221" x="-10" y="52.7008" width="86.2003" height="86.1382" filterUnits="userSpaceOnUse" color-interpolation-filters="sRGB">
<feFlood flood-opacity="0" result="BackgroundImageFix"/>
<feColorMatrix in="SourceAlpha" type="matrix" values="0 0 0 0 0 0 0 0 0 0 0 0 0 0 0 0 0 0 127 0" result="hardAlpha"/>
<feOffset dy="9"/>
<feGaussianBlur stdDeviation="16"/>
<feComposite in2="hardAlpha" operator="out"/>
<feColorMatrix type="matrix" values="0 0 0 0 0 0 0 0 0 0 0 0 0 0 0 0 0 0 0.12 0"/>
<feBlend mode="normal" in2="BackgroundImageFix" result="effect1_dropShadow_4164_199221"/>
<feBlend mode="normal" in="SourceGraphic" in2="effect1_dropShadow_4164_199221" result="shape"/>
</filter>
<linearGradient id="paint0_linear_4164_199221" x1="28.7162" y1="16.8328" x2="32.3755" y2="16.8328" gradientUnits="userSpaceOnUse">
<stop stop-color="#83A6FF"/>
<stop offset="1" stop-color="#5A78FF"/>
</linearGradient>
<linearGradient id="paint1_linear_4164_199221" x1="121.308" y1="20.8793" x2="124.967" y2="20.8793" gradientUnits="userSpaceOnUse">
<stop stop-color="#FF66A9"/>
<stop offset="1" stop-color="#F53689"/>
</linearGradient>
<linearGradient id="paint2_linear_4164_199221" x1="8.08978" y1="61.7044" x2="11.7491" y2="61.7044" gradientUnits="userSpaceOnUse">
<stop stop-color="#FF66A9"/>
<stop offset="1" stop-color="#F53689"/>
</linearGradient>
<linearGradient id="paint3_linear_4164_199221" x1="96.8912" y1="88.1624" x2="115.528" y2="116.559" gradientUnits="userSpaceOnUse">
<stop stop-color="#83A6FF"/>
<stop offset="1" stop-color="#5A78FF"/>
</linearGradient>
<linearGradient id="paint4_linear_4164_199221" x1="108.055" y1="101.97" x2="118.764" y2="112.686" gradientUnits="userSpaceOnUse">
<stop stop-color="#4F6AFF"/>
<stop offset="1" stop-color="#657EFF" stop-opacity="0"/>
</linearGradient>
<linearGradient id="paint5_linear_4164_199221" x1="110.854" y1="104.774" x2="103.858" y2="97.7743" gradientUnits="userSpaceOnUse">
<stop offset="0.0113208" stop-color="#C2D1FF"/>
<stop offset="1" stop-color="white"/>
</linearGradient>
<linearGradient id="paint6_linear_4164_199221" x1="43.2835" y1="103.471" x2="57.107" y2="103.471" gradientUnits="userSpaceOnUse">
<stop stop-color="#FF66A9"/>
<stop offset="1" stop-color="#F53689"/>
</linearGradient>
<linearGradient id="paint7_linear_4164_199221" x1="49.6952" y1="99.9574" x2="49.6952" y2="99.2116" gradientUnits="userSpaceOnUse">
<stop stop-color="white"/>
<stop offset="0.9913" stop-color="#E6EDF7"/>
</linearGradient>
<linearGradient id="paint8_linear_4164_199221" x1="23.5167" y1="95.0078" x2="42.4942" y2="95.0078" gradientUnits="userSpaceOnUse">
<stop stop-color="#83A6FF"/>
<stop offset="1" stop-color="#5A78FF"/>
</linearGradient>
<clipPath id="clip0_4164_199221">
<rect width="139.392" height="126.837" fill="white"/>
</clipPath>
</defs>
</svg>
