<svg viewBox="0 0 163 146" fill="none" xmlns="http://www.w3.org/2000/svg">
<path d="M24.0332 30.3098C25.4655 29.8415 26.2493 28.294 25.7838 26.8533C25.3182 25.4126 23.7796 24.6243 22.3472 25.0926C20.9148 25.5608 20.1311 27.1083 20.5966 28.549C21.0622 29.9897 22.6008 30.778 24.0332 30.3098Z" fill="#EAEEF9"/>
<path d="M29.9864 21.3601C30.9604 21.0416 31.4933 19.9893 31.1768 19.0097C30.8602 18.03 29.8139 17.494 28.8399 17.8124C27.8659 18.1308 27.3329 19.1831 27.6495 20.1628C27.9661 21.1424 29.0123 21.6785 29.9864 21.3601Z" fill="#EAEEF9"/>
<path d="M140.554 39.5993C142.244 38.046 142.362 35.4087 140.817 33.7089C139.273 32.009 136.651 31.8903 134.961 33.4437C133.271 34.9971 133.153 37.6343 134.697 39.3342C136.242 41.034 138.864 41.1527 140.554 39.5993Z" fill="#EAEEF9"/>
<path d="M140.867 20.9071C141.578 20.253 141.628 19.1426 140.978 18.4269C140.327 17.7112 139.223 17.6612 138.512 18.3152C137.8 18.9693 137.751 20.0797 138.401 20.7954C139.051 21.5112 140.155 21.5611 140.867 20.9071Z" fill="#EAEEF9"/>
<path d="M78.5037 120.316C108.447 120.316 132.72 95.9013 132.72 65.7847C132.72 35.6682 108.447 11.2539 78.5037 11.2539C48.5608 11.2539 24.2872 35.6682 24.2872 65.7847C24.2872 95.9013 48.5608 120.316 78.5037 120.316Z" fill="#EAEEF9"/>
<path d="M49.5955 42.9631V48.888V96.287C49.5955 98.4814 51.3409 100.237 53.4135 100.237H129.775C131.957 100.237 133.593 98.4814 133.593 96.287V48.888V43.1825C133.593 40.8784 131.738 39.0132 129.448 39.0132H53.4135L49.5955 42.9631Z" fill="white"/>
<g filter="url(#filter0_d_582_70171)">
<path d="M27.9961 37.6966V44.7187V100.676C27.9961 103.199 30.0688 105.284 32.5778 105.284H122.793C125.302 105.284 127.375 103.199 127.375 100.676V44.7187V37.9161C127.375 35.1731 125.193 33.0884 122.575 33.0884H32.5778L27.9961 37.6966Z" fill="white"/>
</g>
<path d="M33.8868 39.5621C34.7303 39.5621 35.4141 38.8744 35.4141 38.0261C35.4141 37.1777 34.7303 36.49 33.8868 36.49C33.0434 36.49 32.3596 37.1777 32.3596 38.0261C32.3596 38.8744 33.0434 39.5621 33.8868 39.5621Z" fill="white"/>
<path d="M38.2502 39.5621C39.0937 39.5621 39.7775 38.8744 39.7775 38.0261C39.7775 37.1777 39.0937 36.49 38.2502 36.49C37.4068 36.49 36.723 37.1777 36.723 38.0261C36.723 38.8744 37.4068 39.5621 38.2502 39.5621Z" fill="white"/>
<path d="M42.7228 39.5621C43.5662 39.5621 44.25 38.8744 44.25 38.0261C44.25 37.1777 43.5662 36.49 42.7228 36.49C41.8793 36.49 41.1956 37.1777 41.1956 38.0261C41.1956 38.8744 41.8793 39.5621 42.7228 39.5621Z" fill="white"/>
<path d="M9.94536 50.5558C10.1635 50.7752 10.2726 50.9946 10.2726 51.3238C9.18175 54.5057 8.85449 54.6154 10.2726 55.164C10.3817 55.164 10.4908 55.3834 10.3817 55.4932C10.0545 56.3709 9.94536 57.0292 9.6181 56.9195C4.49098 55.0543 9.72719 51.5432 7.10909 50.5558C7 50.5558 7 50.446 7 50.3363L7.54544 48.6905C7.54544 48.5808 7.65452 48.5808 7.76361 48.5808C9.07266 49.0197 9.18175 48.0322 9.6181 46.8253C10.1635 45.0698 11.5817 44.5212 13.218 45.0698C13.5453 45.1795 13.8725 45.2892 13.7634 45.5086C13.218 47.1544 13.3271 47.0447 12.6726 46.8253C11.0362 46.2767 11.4726 50.6655 9.94536 50.5558Z" fill="url(#paint0_linear_582_70171)"/>
<path d="M150.777 50.8849C150.668 50.8849 150.668 50.9946 150.777 50.8849C150.995 51.1043 151.105 51.3237 151.105 51.6529C150.014 54.8348 149.686 54.9445 151.105 55.4931C151.214 55.4931 151.323 55.7125 151.214 55.8223C150.886 56.7 150.777 57.3583 150.45 57.2486C145.323 55.3834 150.559 51.8723 147.941 50.8849C147.832 50.8849 147.832 50.7751 147.832 50.6654L148.377 49.0196C148.377 48.9099 148.486 48.9099 148.596 48.9099C149.905 49.3488 150.014 48.3613 150.45 47.1544C150.995 45.3989 152.414 44.8503 154.05 45.3989C154.377 45.5086 154.704 45.6183 154.595 45.8377C154.05 47.4835 154.159 47.3738 153.504 47.1544C151.759 46.7155 152.304 50.9946 150.777 50.8849Z" fill="url(#paint1_linear_582_70171)"/>
<path d="M87.0704 3.48602C86.9613 3.3763 86.9613 3.3763 87.0704 3.48602C86.8522 3.70546 86.634 3.9249 86.4158 3.9249C83.1432 3.3763 82.925 3.04714 82.5978 4.4735C82.5978 4.58322 82.4887 4.69294 82.2705 4.69294C81.2887 4.4735 80.7433 4.58322 80.7433 4.14434C81.7251 -1.34166 86.0886 3.3763 86.5249 0.74302C86.5249 0.6333 86.634 0.633301 86.7431 0.633301L88.3794 0.96246C88.4885 0.96246 88.4885 1.07218 88.4885 1.1819C88.2703 2.49854 89.143 2.49854 90.5612 2.71798C92.3066 3.04714 93.1793 4.25406 92.852 6.00958C92.7429 6.33874 92.7429 6.6679 92.5247 6.6679C90.8884 6.33874 90.8884 6.55818 91.1066 5.79014C91.3248 3.81518 87.0704 5.0221 87.0704 3.48602Z" fill="url(#paint2_linear_582_70171)"/>
<path d="M53.7406 11.0348C52.977 11.8028 52.8679 13.1194 53.6315 13.8875C54.0679 14.4361 54.8315 14.6555 55.5951 14.4361C55.9224 14.875 55.9224 15.4236 55.7042 15.8624L54.5042 17.618C54.3951 17.7277 54.2861 17.9471 54.2861 18.0568L53.0861 16.7402C53.4134 15.643 52.8679 14.5458 51.777 14.2166C50.6862 13.8875 49.5953 14.4361 49.268 15.5333C48.9408 16.6305 49.4862 17.7277 50.5771 18.0568C50.9043 18.1666 51.3407 18.1666 51.668 18.0568L54.8315 21.4582C54.5042 22.5554 55.0497 23.6526 56.1405 23.9817C57.2314 24.3109 58.3223 23.7623 58.6496 22.6651C58.6496 22.5554 58.6496 22.5554 58.7586 22.4456C58.7586 22.2262 58.7586 22.0068 58.7586 21.897C58.6496 20.7998 57.6678 19.9221 56.4678 20.1415C56.3587 20.1415 56.3587 20.1415 56.2496 20.1415C55.9224 19.7026 55.8133 19.154 56.1405 18.7152L57.3405 16.9596C58.1041 15.7527 57.995 14.2166 57.1223 13.1194C57.1223 13.0097 57.1223 12.9 57.2314 12.9C57.2314 12.6806 57.2314 12.4611 57.2314 12.3514C57.1223 11.2542 56.1405 10.4862 55.0497 10.5959C54.3951 10.5959 54.0679 10.7056 53.7406 11.0348ZM50.6862 15.643C51.0134 15.4236 51.3407 15.4236 51.668 15.643C51.8861 15.9722 51.8861 16.3013 51.668 16.6305C51.3407 16.8499 51.0134 16.8499 50.6862 16.6305C50.3589 16.411 50.3589 15.9722 50.6862 15.643ZM57.2314 21.7873C57.3405 21.897 57.3405 22.0068 57.3405 22.1165C57.3405 22.4456 57.0132 22.7748 56.5769 22.7748C56.2496 22.7748 55.9224 22.4456 55.9224 22.0068C55.9224 21.897 56.0315 21.6776 56.0315 21.5679C56.1405 21.3484 56.3587 21.3484 56.5769 21.3484C56.9042 21.4582 57.1223 21.5679 57.2314 21.7873ZM54.5042 12.0222C54.7224 11.6931 55.1588 11.6931 55.486 11.9125C55.5951 11.9125 55.5951 12.0222 55.5951 12.132C55.5951 12.2417 55.5951 12.2417 55.7042 12.3514C55.7042 12.4611 55.7042 12.4611 55.7042 12.5708C55.7042 12.6806 55.7042 12.6806 55.7042 12.6806C55.5951 12.7903 55.486 12.9 55.3769 13.0097C55.0497 13.2292 54.6133 13.0097 54.5042 12.6806C54.3951 12.5708 54.3951 12.2417 54.5042 12.0222Z" fill="#CED7E2"/>
<path d="M106.212 17.3986L104.576 18.2763C102.939 16.6305 100.43 16.6305 98.7939 18.2763C97.9212 19.1541 97.4849 20.4707 97.7031 21.7874L95.9577 22.5554C95.6304 22.6651 95.5213 23.104 95.7395 23.3235L96.394 24.6401C96.5031 24.9693 96.9394 25.079 97.1576 24.8595L98.7939 23.9818C100.43 25.6276 102.939 25.6276 104.576 23.9818C105.448 23.104 105.885 21.7874 105.666 20.4707L107.303 19.593C107.63 19.4833 107.739 19.0444 107.521 18.8249L106.866 17.5083C106.866 17.3986 106.43 17.2889 106.212 17.3986ZM102.612 22.9943C101.63 23.5429 100.43 23.104 99.8848 22.1165C99.3394 21.1291 99.7757 19.9221 100.758 19.3735C101.739 18.8249 102.939 19.2638 103.485 20.2513C103.921 21.2388 103.594 22.4457 102.612 22.9943Z" fill="#CED7E2"/>
<path d="M21.7268 89.4934L19.9814 86.3115C19.3269 85.1046 17.9087 84.6657 16.7088 85.324L16.3815 85.4338L16.0542 84.8852C15.9451 84.6657 15.727 84.6657 15.5088 84.7754C15.3997 84.7754 15.3997 84.8852 15.2906 84.9949L14.4179 87.1893C14.3088 87.4087 14.4179 87.6282 14.6361 87.7379C14.6361 87.7379 14.6361 87.7379 14.7452 87.7379L17.036 88.1768C17.2542 88.1768 17.4724 88.067 17.4724 87.8476C17.4724 87.7379 17.4724 87.6282 17.4724 87.6282L17.1451 87.0796L17.4724 86.8601C17.7996 86.6407 18.3451 86.7504 18.4542 87.1893L20.1996 90.3712C19.8723 90.9198 19.8723 91.5781 20.1996 92.1267C20.6359 93.0044 21.6177 93.2239 22.4904 92.785C22.8177 92.5656 23.0358 92.3461 23.254 92.017C23.3631 91.9072 23.3631 91.6878 23.3631 91.5781C23.4722 90.5906 22.8177 89.7128 21.8359 89.6031C21.8359 89.4934 21.7268 89.4934 21.7268 89.4934ZM21.5086 91.6878C21.3995 91.6878 21.3995 91.6878 21.5086 91.6878C21.1813 91.4684 21.0723 91.1392 21.2904 90.81C21.3995 90.5906 21.6177 90.4809 21.8359 90.4809C21.945 90.4809 22.1631 90.5906 22.2722 90.7003C22.4904 90.9198 22.4904 91.2489 22.2722 91.4684C21.945 91.7975 21.7268 91.7975 21.5086 91.6878Z" fill="#CED7E2"/>
<path d="M12.1271 86.6404C11.3635 87.0793 11.0362 88.1765 11.4725 88.9445C11.7998 89.4931 12.3452 89.8223 12.9998 89.8223L16.0542 95.3083C16.2724 95.7472 16.7087 95.8569 17.1451 95.6375C17.5814 95.418 17.6905 94.9791 17.4724 94.5403L14.4179 89.0543C14.7452 88.5057 14.7452 87.8473 14.4179 87.2987C13.9816 86.5307 12.8907 86.2015 12.1271 86.6404ZM13.2179 88.6154C12.8907 88.7251 12.5634 88.7251 12.4543 88.3959C12.3452 88.0668 12.3452 87.7376 12.6725 87.6279C12.9998 87.5182 13.327 87.5182 13.4361 87.8473C13.5452 88.1765 13.4361 88.5057 13.2179 88.6154Z" fill="#CED7E2"/>
<path d="M142.211 71.9293L142.32 71.7099C142.647 71.0515 142.647 70.3932 142.32 69.7349L141.338 67.6502C141.229 67.5405 141.229 67.3211 141.338 67.2113L141.665 66.4433L142.211 66.7725C142.429 66.8822 142.647 66.7725 142.756 66.553C142.756 66.4433 142.756 66.3336 142.756 66.3336L142.32 63.9197C142.32 63.7003 142.102 63.5906 141.884 63.5906H141.774L139.593 64.5781C139.375 64.6878 139.265 64.9072 139.374 65.1267C139.374 65.2364 139.484 65.2364 139.593 65.3461L140.138 65.6753L139.811 66.4433C139.702 66.553 139.593 66.6627 139.484 66.6627L137.193 66.9919C136.538 67.1016 135.884 67.5405 135.666 68.0891L135.556 68.3085C134.575 68.3085 133.811 69.0766 133.811 70.0641C133.811 71.0515 134.575 71.8196 135.556 71.8196C136.538 71.8196 137.302 71.0515 137.302 70.0641C137.302 69.7349 137.193 69.4057 136.975 69.1863L137.084 68.9669C137.193 68.8571 137.302 68.7474 137.411 68.7474L139.374 68.4183C139.593 68.4183 139.811 68.528 139.92 68.7474L140.793 70.6127C140.902 70.7224 140.902 70.9418 140.793 71.0515L140.684 71.271C139.702 71.271 138.938 72.1487 139.047 73.0265C139.047 74.014 139.92 74.782 140.793 74.6723C141.774 74.6723 142.538 73.7945 142.429 72.9168C142.538 72.5876 142.429 72.2585 142.211 71.9293ZM135.338 70.7224C135.011 70.6127 134.902 70.1738 135.12 69.9543C135.229 69.6252 135.666 69.5155 135.884 69.7349C136.211 69.8446 136.32 70.2835 136.102 70.5029C135.993 70.7224 135.556 70.8321 135.338 70.7224ZM140.465 73.4654C140.138 73.3557 140.029 72.9168 140.247 72.6973C140.356 72.3682 140.793 72.2585 141.011 72.4779C141.229 72.6973 141.447 73.0265 141.229 73.2459C141.12 73.4654 140.793 73.5751 140.465 73.4654Z" fill="#CED7E2"/>
<path d="M135.993 100.676C135.884 101.334 135.884 101.883 135.665 102.432C134.138 109.563 128.575 114.83 121.811 116.037C116.902 111.099 110.248 104.407 110.248 104.407L111.666 96.8359L120.175 95.5192L126.72 91.3499L135.993 100.676Z" fill="url(#paint3_linear_582_70171)"/>
<path d="M128.466 99.0303C128.357 97.7137 127.92 96.5068 127.048 95.4096C126.939 95.2999 126.939 95.0804 126.939 94.9707C127.266 93.7638 127.375 92.4471 126.72 91.3499C126.72 91.2402 126.611 91.2402 126.502 91.2402C125.084 91.1305 123.557 91.6791 122.466 92.5569C122.357 92.6666 122.248 92.6666 122.139 92.6666C120.066 92.2277 117.884 92.2277 115.812 92.6666C115.593 92.7763 115.375 92.6666 115.157 92.5569C114.066 91.6791 112.648 91.2402 111.23 91.3499C111.121 91.3499 111.121 91.35 111.012 91.4597C110.794 91.7888 110.684 92.118 110.575 92.5569C110.357 93.4346 110.466 94.4221 110.684 95.2999C110.684 95.4096 110.684 95.5193 110.575 95.629C110.03 96.2873 109.594 97.1651 109.375 98.0429C108.939 99.7984 108.939 101.664 109.594 103.309C110.03 104.626 111.012 105.614 112.212 106.162C113.303 106.601 114.503 106.93 115.702 106.93C117.666 107.04 119.63 107.04 121.484 107.04C124.648 106.93 127.484 105.943 128.138 102.871C128.466 101.334 128.575 100.237 128.466 99.0303ZM125.193 104.187C124.429 105.394 122.793 105.833 121.375 105.943C119.411 106.052 117.448 106.052 115.593 105.833C114.939 105.723 114.393 105.614 113.848 105.284C112.648 104.736 111.884 103.639 111.775 102.322C111.666 101.554 111.884 100.676 112.212 100.018C112.757 99.0303 113.739 98.4818 114.721 98.5915C115.484 98.5915 116.248 98.7012 116.902 98.8109C118.211 99.0304 119.411 98.9206 120.721 98.8109C121.375 98.7012 122.03 98.5915 122.575 98.5915C123.775 98.4818 124.866 99.1401 125.302 100.347C126.175 101.554 125.957 102.98 125.193 104.187Z" fill="url(#paint4_linear_582_70171)"/>
<path d="M115.702 99.9081C115.157 99.5789 114.502 99.6886 114.175 100.237C113.521 101.225 113.521 102.541 114.175 103.639C114.284 103.748 114.393 103.858 114.502 103.968C115.048 104.297 115.702 104.187 116.03 103.639C116.357 103.2 116.575 102.651 116.575 102.102C116.575 101.444 116.466 100.786 116.03 100.237C115.921 100.127 115.812 100.018 115.702 99.9081Z" fill="url(#paint5_linear_582_70171)"/>
<path d="M123.121 99.9081C122.575 99.5789 121.921 99.6886 121.593 100.237C120.939 101.225 120.939 102.651 121.593 103.639C121.702 103.748 121.811 103.858 121.921 103.968C122.466 104.297 123.121 104.077 123.448 103.639C123.775 103.2 123.993 102.541 123.993 101.993C123.993 101.334 123.775 100.786 123.448 100.347C123.448 100.127 123.23 100.018 123.121 99.9081Z" fill="url(#paint6_linear_582_70171)"/>
<path d="M70.6493 113.842C69.9948 113.952 69.4493 114.391 69.2311 115.049C67.4857 115.379 66.0676 114.062 65.7403 113.404C66.3949 112.636 66.2858 111.538 65.5222 110.88C64.7585 110.222 63.6677 110.331 63.0131 111.099C62.3586 111.867 62.4677 112.965 63.2313 113.623C63.4495 113.733 63.6677 113.952 63.8858 113.952L64.6495 118.012C63.8858 118.67 63.7768 119.767 64.4313 120.535C65.0858 121.303 66.1767 121.413 66.9403 120.755C67.0494 120.755 67.0494 120.645 67.1585 120.645C67.2676 120.535 67.3766 120.426 67.4857 120.206C67.9221 119.328 67.5948 118.231 66.613 117.792C66.5039 117.792 66.5039 117.683 66.3949 117.683L66.0676 116.147C67.0494 116.805 68.2493 117.024 69.4493 116.915H69.5584C70.2129 117.683 71.3038 117.792 72.0674 117.134C72.1765 117.134 72.1765 117.024 72.1765 117.024C72.2856 116.915 72.3947 116.805 72.5038 116.585C72.9401 115.708 72.6129 114.611 71.7402 114.172C71.4129 113.842 70.9765 113.733 70.6493 113.842ZM64.3222 111.538C64.6495 111.429 64.9767 111.648 65.0858 112.087C65.1949 112.416 64.9767 112.745 64.5404 112.855C64.2131 112.965 63.8858 112.745 63.7768 112.306C63.7768 111.977 63.9949 111.648 64.3222 111.538ZM66.0676 119.877C65.8494 120.096 65.4131 119.987 65.1949 119.767C64.9767 119.548 65.0858 119.109 65.304 118.89C65.304 118.89 65.4131 118.78 65.5222 118.78C65.6312 118.67 65.8494 118.78 65.9585 118.78C66.2858 118.999 66.3949 119.328 66.1767 119.658C66.2858 119.767 66.1767 119.767 66.0676 119.877ZM70.9765 116.256C70.6493 116.256 70.4311 115.927 70.4311 115.598C70.4311 115.379 70.6493 115.159 70.8675 115.049C70.9765 115.049 71.1947 115.049 71.3038 115.049C71.6311 115.159 71.7402 115.598 71.6311 115.927C71.4129 116.147 71.1947 116.256 70.9765 116.256Z" fill="#CED7E2"/>
<path d="M97.8121 42.5243H27.9961V37.6966C27.9961 35.1731 30.0688 33.0884 32.5778 33.0884H122.793C125.302 33.0884 127.375 35.1731 127.375 37.6966V42.5243H111.994H97.8121Z" fill="url(#paint7_linear_582_70171)"/>
<mask id="mask0_582_70171" style="mask-type:alpha" maskUnits="userSpaceOnUse" x="27" y="42" width="101" height="64">
<path fill-rule="evenodd" clip-rule="evenodd" d="M41.4439 105.195L41.4439 42.458H42.6741L42.6741 105.195H41.4439Z" fill="#CED7E2"/>
<path fill-rule="evenodd" clip-rule="evenodd" d="M27.9125 48.6087L127.554 48.6087V49.8389L27.9125 49.8389V48.6087Z" fill="#CED7E2"/>
<path fill-rule="evenodd" clip-rule="evenodd" d="M27.9125 55.9896L127.554 55.9896V57.2197L27.9125 57.2197V55.9896Z" fill="#CED7E2"/>
<path fill-rule="evenodd" clip-rule="evenodd" d="M27.9125 63.3704L127.554 63.3704V64.6006L27.9125 64.6006V63.3704Z" fill="#CED7E2"/>
<path fill-rule="evenodd" clip-rule="evenodd" d="M27.9125 70.7513L127.554 70.7513V71.9814L27.9125 71.9814V70.7513Z" fill="#CED7E2"/>
<path fill-rule="evenodd" clip-rule="evenodd" d="M27.9125 78.1322L127.554 78.1322V79.3623L27.9125 79.3623V78.1322Z" fill="#CED7E2"/>
<path fill-rule="evenodd" clip-rule="evenodd" d="M27.9125 85.5128L127.554 85.5128V86.7429L27.9125 86.7429V85.5128Z" fill="#CED7E2"/>
<path fill-rule="evenodd" clip-rule="evenodd" d="M27.9125 92.8936L127.554 92.8936V94.1238L27.9125 94.1238V92.8936Z" fill="#CED7E2"/>
<path fill-rule="evenodd" clip-rule="evenodd" d="M27.9125 100.274L127.554 100.274V101.505L27.9125 101.505V100.274Z" fill="#CED7E2"/>
<path fill-rule="evenodd" clip-rule="evenodd" d="M58.666 105.195L58.666 42.458H59.8961L59.8961 105.195H58.666Z" fill="#CED7E2"/>
<path fill-rule="evenodd" clip-rule="evenodd" d="M75.8879 105.195V42.458H77.118V105.195H75.8879Z" fill="#CED7E2"/>
<path fill-rule="evenodd" clip-rule="evenodd" d="M93.1098 105.195V42.458H94.34V105.195H93.1098Z" fill="#CED7E2"/>
<path fill-rule="evenodd" clip-rule="evenodd" d="M110.332 105.195V42.458H111.562V105.195H110.332Z" fill="#CED7E2"/>
</mask>
<g mask="url(#mask0_582_70171)">
<rect x="16.8411" y="35.0771" width="115.633" height="76.2687" fill="url(#paint8_linear_582_70171)"/>
</g>
<path d="M61.4497 67.7277C63.6667 67.7277 65.4638 65.9259 65.4638 63.7035C65.4638 61.4811 63.6667 59.6799 61.4497 59.6799C59.2328 59.6799 57.4357 61.4811 57.4357 63.7035C57.4357 65.9259 59.2328 67.7277 61.4497 67.7277Z" fill="#182052"/>
<path d="M91.8291 67.7277C94.0461 67.7277 95.8432 65.9265 95.8432 63.7041C95.8432 61.4818 94.0461 59.6799 91.8291 59.6799C89.6122 59.6799 87.8151 61.4818 87.8151 63.7041C87.8151 65.9265 89.6122 67.7277 91.8291 67.7277Z" fill="#182052"/>
<path d="M80.4649 78.1321H72.813V80.0183H80.4649V78.1321Z" fill="#182052"/>
<rect x="27.7893" y="33.7232" width="98.4112" height="70.8807" rx="4.30549" stroke="#C5C5C5" stroke-width="1.23014"/>
<g filter="url(#filter1_d_582_70171)">
<path d="M152.108 105.622C151.996 105.96 151.996 106.411 151.883 106.749C151.546 107.988 151.208 109.115 150.646 110.129C148.057 115.875 143.106 120.156 137.141 121.847C136.803 121.959 136.466 122.072 136.241 122.072C133.202 122.861 129.939 122.973 126.675 122.297C115.083 119.931 107.543 108.439 110.019 96.8336C112.382 85.2284 123.861 77.679 135.453 80.1578C139.617 81.0591 143.33 83.0875 146.256 86.017C151.433 91.0872 153.684 98.5235 152.108 105.622Z" fill="url(#paint9_linear_582_70171)"/>
</g>
<path d="M155.6 109.287C153.51 113.95 143.387 123.942 138.572 125.313L123.248 109.981L139.375 93.9539L155.6 109.287Z" fill="url(#paint10_linear_582_70171)"/>
<path d="M124.349 108.979L138.373 94.9558" stroke="white" stroke-width="3.5" stroke-linecap="round"/>
<path d="M123.848 94.9558L137.872 108.979" stroke="white" stroke-width="3.5" stroke-linecap="round"/>
<defs>
<filter id="filter0_d_582_70171" x="0.933006" y="19.5568" width="153.505" height="126.322" filterUnits="userSpaceOnUse" color-interpolation-filters="sRGB">
<feFlood flood-opacity="0" result="BackgroundImageFix"/>
<feColorMatrix in="SourceAlpha" type="matrix" values="0 0 0 0 0 0 0 0 0 0 0 0 0 0 0 0 0 0 127 0" result="hardAlpha"/>
<feOffset dy="13.5315"/>
<feGaussianBlur stdDeviation="13.5315"/>
<feColorMatrix type="matrix" values="0 0 0 0 0.397708 0 0 0 0 0.47749 0 0 0 0 0.575 0 0 0 0.18 0"/>
<feBlend mode="normal" in2="BackgroundImageFix" result="effect1_dropShadow_582_70171"/>
<feBlend mode="normal" in="SourceGraphic" in2="effect1_dropShadow_582_70171" result="shape"/>
</filter>
<filter id="filter1_d_582_70171" x="99.7071" y="75.9959" width="62.7372" height="62.7372" filterUnits="userSpaceOnUse" color-interpolation-filters="sRGB">
<feFlood flood-opacity="0" result="BackgroundImageFix"/>
<feColorMatrix in="SourceAlpha" type="matrix" values="0 0 0 0 0 0 0 0 0 0 0 0 0 0 0 0 0 0 127 0" result="hardAlpha"/>
<feOffset dy="6.1507"/>
<feGaussianBlur stdDeviation="4.92056"/>
<feColorMatrix type="matrix" values="0 0 0 0 0.968627 0 0 0 0 0.254902 0 0 0 0 0.564706 0 0 0 0.3 0"/>
<feBlend mode="normal" in2="BackgroundImageFix" result="effect1_dropShadow_582_70171"/>
<feBlend mode="normal" in="SourceGraphic" in2="effect1_dropShadow_582_70171" result="shape"/>
</filter>
<linearGradient id="paint0_linear_582_70171" x1="7.16036" y1="50.8967" x2="13.9399" y2="50.8967" gradientUnits="userSpaceOnUse">
<stop stop-color="#FF66A9"/>
<stop offset="1" stop-color="#F53689"/>
</linearGradient>
<linearGradient id="paint1_linear_582_70171" x1="147.904" y1="51.3055" x2="154.683" y2="51.3055" gradientUnits="userSpaceOnUse">
<stop stop-color="#83A6FF"/>
<stop offset="1" stop-color="#5A78FF"/>
</linearGradient>
<linearGradient id="paint2_linear_582_70171" x1="80.7335" y1="3.59508" x2="92.8826" y2="3.59508" gradientUnits="userSpaceOnUse">
<stop stop-color="#83A6FF"/>
<stop offset="1" stop-color="#5A78FF"/>
</linearGradient>
<linearGradient id="paint3_linear_582_70171" x1="117.195" y1="96.5998" x2="128.632" y2="107.971" gradientUnits="userSpaceOnUse">
<stop stop-color="#4F6AFF"/>
<stop offset="1" stop-color="#657EFF" stop-opacity="0"/>
</linearGradient>
<linearGradient id="paint4_linear_582_70171" x1="127.006" y1="105.351" x2="111.095" y2="91.5735" gradientUnits="userSpaceOnUse">
<stop offset="0.0113208" stop-color="#C2D1FF"/>
<stop offset="1" stop-color="white"/>
</linearGradient>
<linearGradient id="paint5_linear_582_70171" x1="123.556" y1="109.335" x2="107.645" y2="95.5577" gradientUnits="userSpaceOnUse">
<stop offset="0.0113208" stop-color="#C2D1FF"/>
<stop offset="1" stop-color="white"/>
</linearGradient>
<linearGradient id="paint6_linear_582_70171" x1="126.773" y1="105.62" x2="110.862" y2="91.8428" gradientUnits="userSpaceOnUse">
<stop offset="0.0113208" stop-color="#C2D1FF"/>
<stop offset="1" stop-color="white"/>
</linearGradient>
<linearGradient id="paint7_linear_582_70171" x1="27.5111" y1="37.7721" x2="113.258" y2="37.7721" gradientUnits="userSpaceOnUse">
<stop stop-color="#5D7CFF"/>
<stop offset="1" stop-color="white"/>
</linearGradient>
<linearGradient id="paint8_linear_582_70171" x1="26.0671" y1="43.6881" x2="139.24" y2="118.112" gradientUnits="userSpaceOnUse">
<stop offset="0.0286893" stop-color="#DADADA"/>
<stop offset="1" stop-color="#C4C4C4" stop-opacity="0"/>
</linearGradient>
<linearGradient id="paint9_linear_582_70171" x1="109.55" y1="101.197" x2="152.6" y2="101.197" gradientUnits="userSpaceOnUse">
<stop stop-color="#FF66A9"/>
<stop offset="1" stop-color="#F53689"/>
</linearGradient>
<linearGradient id="paint10_linear_582_70171" x1="131.229" y1="103.741" x2="142.387" y2="114.965" gradientUnits="userSpaceOnUse">
<stop stop-color="#E81778"/>
<stop offset="1" stop-color="#E01F79" stop-opacity="0"/>
</linearGradient>
</defs>
</svg>
