<svg viewBox="0 0 151 142" fill="none" xmlns="http://www.w3.org/2000/svg">
<path d="M74.0177 137.251C107.396 137.251 134.454 110.245 134.454 76.9321C134.454 43.6189 107.396 16.6133 74.0177 16.6133C40.6397 16.6133 13.5815 43.6189 13.5815 76.9321C13.5815 110.245 40.6397 137.251 74.0177 137.251Z" fill="#EAEEF9"/>
<path d="M39.8475 50.8359H106.607C109.16 50.8359 111.349 52.8992 111.349 55.5692V97.5618C111.349 100.11 109.282 102.295 106.607 102.295H39.8475C37.2938 102.295 35.105 100.232 35.105 97.5618V55.5692C35.105 53.0205 37.2938 50.8359 39.8475 50.8359Z" fill="#C0D6FF"/>
<path d="M102.837 50.8359H106.607C109.16 50.8359 111.349 52.8992 111.349 55.5692V97.5618C111.349 100.11 109.282 102.295 106.607 102.295H39.8475C37.2938 102.295 35.105 100.232 35.105 97.5618V55.5692C35.105 53.0205 37.1722 50.8359 39.8475 50.8359H91.6498" stroke="#6F7590" stroke-miterlimit="10" stroke-linecap="round" stroke-linejoin="round"/>
<path d="M144.347 61.8619C146.231 60.1436 146.363 57.2265 144.641 55.3462C142.92 53.4659 139.997 53.3346 138.113 55.0529C136.229 56.7711 136.097 59.6883 137.819 61.5686C139.541 63.4488 142.463 63.5802 144.347 61.8619Z" fill="#E2EBFF"/>
<path d="M144.688 41.3578C145.481 40.6343 145.537 39.406 144.812 38.6143C144.087 37.8226 142.856 37.7673 142.063 38.4908C141.27 39.2143 141.215 40.4426 141.939 41.2343C142.664 42.0259 143.895 42.0812 144.688 41.3578Z" fill="#E2EBFF"/>
<path d="M95.6032 12.9767C96.1485 12.4793 96.1866 11.6348 95.6882 11.0906C95.1899 10.5463 94.3438 10.5083 93.7985 11.0056C93.2531 11.503 93.215 12.3475 93.7134 12.8918C94.2118 13.4361 95.0578 13.4741 95.6032 12.9767Z" fill="#E2EBFF"/>
<path d="M135.569 28.7254L118.909 58.2171C118.301 59.188 117.085 59.5522 116.113 58.9454L87.6578 42.4395C86.685 41.8327 86.3201 40.6193 86.9281 39.6483L108.816 2.02495C109.424 1.05403 110.64 0.689812 111.613 1.29664L132.286 13.3117L135.569 28.7254Z" fill="white"/>
<path d="M107.236 4.45227L108.695 2.02495C109.303 1.05403 110.519 0.689812 111.492 1.29664L132.164 13.3117L135.569 28.8469L118.909 58.3386C118.301 59.3095 117.085 59.6737 116.113 59.0669L87.6578 42.561C86.685 41.9542 86.3201 40.7408 86.9281 39.7698L102.858 12.2196" stroke="#6F7590" stroke-miterlimit="10" stroke-linecap="round" stroke-linejoin="round"/>
<path d="M129.368 17.9258L127.422 21.2023C126.814 22.416 127.179 23.7512 128.273 24.4794L135.448 28.6057" stroke="#6F7590" stroke-miterlimit="10" stroke-linecap="round" stroke-linejoin="round"/>
<path d="M112.587 20.9574C113.073 20.8361 113.56 20.8359 113.924 20.8359C114.411 20.8359 114.897 20.8359 115.384 20.8359C115.87 20.9573 116.478 21.0784 116.964 21.1998C117.572 21.4425 118.059 21.6854 118.545 21.9281C119.275 22.2922 119.883 22.7779 120.369 23.3847C120.856 23.8702 121.221 24.477 121.464 25.2052C121.707 25.8121 121.707 26.5398 121.707 27.1466C121.585 27.8748 121.342 28.6032 120.977 29.2101C120.613 29.8169 120.248 30.3021 119.761 30.7876C119.275 31.1517 118.91 31.3946 118.302 31.6374C117.816 31.8801 117.329 32.0012 116.843 32.0012L115.505 32.1227C115.14 32.1227 114.776 32.2443 114.289 32.3657C113.924 32.4871 113.681 32.6083 113.438 32.851L112.1 34.55L109.912 33.3364L110.884 31.152C111.006 30.7879 111.371 30.4235 111.614 30.1807C111.979 29.938 112.344 29.8168 112.708 29.6954C113.195 29.574 113.56 29.5744 114.046 29.453C114.532 29.453 115.019 29.3314 115.505 29.2101C115.992 29.0887 116.357 28.9674 116.843 28.7247C117.329 28.482 117.573 28.118 117.816 27.6325C117.937 27.3898 118.059 27.0254 118.18 26.6613C118.18 26.2972 118.181 26.0548 118.059 25.8121C117.937 25.448 117.816 25.205 117.572 24.9623C117.329 24.7195 117.086 24.4767 116.721 24.2339C116.356 23.9912 115.87 23.7485 115.384 23.6271C115.019 23.5057 114.654 23.5056 114.289 23.5056C113.924 23.5056 113.681 23.5056 113.438 23.5056C113.316 23.5056 113.073 23.5061 112.952 23.3847C112.709 23.2634 112.465 22.8992 112.465 22.6564L112.587 20.9574ZM106.142 37.4627C106.264 37.22 106.507 36.9777 106.75 36.735C106.993 36.6136 107.236 36.3705 107.48 36.3705C108.088 36.2492 108.696 36.2494 109.182 36.6135C109.425 36.7349 109.669 36.9776 109.912 37.2203C110.033 37.4631 110.155 37.7059 110.276 37.9486C110.641 39.1623 109.912 40.3757 108.696 40.7398C108.088 40.8612 107.48 40.7396 106.993 40.4968C106.75 40.3755 106.507 40.1327 106.264 39.89C106.142 39.6473 105.899 39.405 105.899 39.1623C105.777 38.9196 105.777 38.5552 105.899 38.3125C105.899 37.9484 106.02 37.7054 106.142 37.4627Z" fill="#C0D6FF"/>
<path d="M28.6806 15.8615L47.7721 35.6439C48.3801 36.3721 48.38 37.343 47.6504 38.0712L28.1941 56.3976C27.4644 57.0044 26.4916 57.0043 25.762 56.2761L1.56337 30.6684C0.955362 29.9402 0.955481 28.9693 1.68509 28.2411L15.7907 15.0117L28.6806 15.8615Z" fill="white"/>
<path d="M34.1529 21.5659L47.6505 35.6439C48.2585 36.3721 48.2587 37.343 47.5291 38.0712L28.0728 56.3976C27.3432 57.0044 26.3703 57.0043 25.6407 56.2761L1.44179 30.6684C0.83378 29.9402 0.833899 28.9693 1.56351 28.2411L15.6694 15.0117L28.5591 15.983L29.6537 17.0752" stroke="#6F7590" stroke-miterlimit="10" stroke-linecap="round" stroke-linejoin="round"/>
<path d="M19.1675 18.5L21.0193 20.3516C21.7489 21.0798 22.965 21.0798 23.8162 20.3516L28.4997 16" stroke="#6F7590" stroke-miterlimit="10" stroke-linecap="round" stroke-linejoin="round"/>
<path d="M17.25 31.8806C17.25 31.5165 17.3718 31.1519 17.4934 30.7878C17.615 30.4237 17.7364 30.0598 17.858 29.6957C17.9796 29.3316 18.2228 28.9676 18.466 28.6035C18.7092 28.2394 19.0741 27.8754 19.4389 27.5113C19.9253 27.0259 20.4118 26.6619 21.0198 26.4191C21.5062 26.1764 22.1143 26.0547 22.6007 26.0547C23.0871 26.0547 23.6951 26.1763 24.1815 26.2977C24.668 26.5404 25.1543 26.9042 25.6407 27.2683C26.0055 27.6324 26.3703 28.118 26.4919 28.6035C26.6135 28.9676 26.7351 29.4532 26.8567 29.9386C26.8567 30.3027 26.8567 30.7882 26.8567 31.1523C26.7351 31.5164 26.7352 31.8804 26.6136 32.2445C26.6136 32.6086 26.4919 32.8511 26.4919 33.2152C26.4919 33.4579 26.4918 33.7007 26.735 33.9435L27.7079 35.4001L26.2487 36.7352L24.7896 35.4001C24.5463 35.1574 24.3031 34.9144 24.1815 34.5503C24.0599 34.1862 24.0598 33.9437 24.0598 33.5796C24.0598 33.2155 24.1815 32.8515 24.1815 32.4874C24.3031 32.1233 24.303 31.7588 24.303 31.3947C24.303 31.0306 24.3031 30.6666 24.1815 30.3025C24.0599 29.9384 23.8167 29.5744 23.5735 29.2103C23.4519 28.9676 23.2087 28.8463 22.9655 28.725C22.7223 28.6036 22.479 28.6035 22.2358 28.6035C21.9926 28.6035 21.7493 28.7251 21.5061 28.8465C21.2629 28.9678 21.0198 29.0891 20.7766 29.3318C20.5334 29.5745 20.2901 29.9383 20.0469 30.181C19.9253 30.4237 19.8036 30.6667 19.682 31.0308C19.5604 31.2735 19.5606 31.5163 19.5606 31.6376C19.5606 31.759 19.4391 31.8801 19.3175 32.0015C19.1959 32.2442 18.8309 32.2443 18.5877 32.123L17.25 31.8806ZM28.6808 40.6186C28.5591 40.4972 28.4375 40.2545 28.3159 40.0118C28.1943 39.769 28.1942 39.5262 28.1942 39.2834C28.1942 38.798 28.4374 38.313 28.8022 37.9489C28.9238 37.8275 29.167 37.7058 29.4102 37.5844C29.6534 37.4631 29.8967 37.463 30.1399 37.463C30.8695 37.463 31.599 37.9484 31.8422 38.6766C31.9638 38.9193 31.9639 39.1622 31.9639 39.4049C31.9639 39.6477 31.8422 39.8905 31.8422 40.1332C31.7206 40.376 31.5991 40.4973 31.3559 40.7401C31.2343 40.8614 30.9911 41.1039 30.7479 41.1039C30.2615 41.2253 29.775 41.2253 29.4102 41.1039C29.0454 40.9826 28.8024 40.8613 28.6808 40.6186Z" fill="#C0D6FF"/>
<path d="M78.2946 47.0525L70.8768 73.3886C70.6336 74.2381 69.6609 74.8448 68.8096 74.4807L43.1515 66.9564C42.3003 66.7137 41.6924 65.7425 42.0572 64.8929L52.0285 31.032C52.2717 30.1825 53.2445 29.5757 54.0957 29.9398L72.7008 35.4013L78.2946 47.0525Z" fill="white"/>
<path d="M49.4744 39.8912L52.0282 31.2747C52.2714 30.4252 53.2441 29.8179 54.0953 30.182L72.7005 35.6434L78.4157 47.1732L70.9982 73.5098C70.755 74.3593 69.7819 74.9661 68.9307 74.602L43.2729 67.0776C42.4217 66.8349 41.8135 65.8637 42.1783 65.0142L47.0424 48.3868" stroke="#6F7590" stroke-miterlimit="10" stroke-linecap="round" stroke-linejoin="round"/>
<path d="M71.3628 39.8906L70.5116 42.8039C70.2684 43.7748 70.8766 44.8671 71.8494 45.2312L78.2943 47.1726" stroke="#6F7590" stroke-miterlimit="10" stroke-linecap="round" stroke-linejoin="round"/>
<path d="M58.7167 45.3529C59.0815 45.2316 59.4462 45.1104 59.811 44.9891C60.1758 44.8677 60.5407 44.7461 61.0271 44.7461C61.5135 44.7461 61.8784 44.7461 62.3648 44.7461C62.8512 44.7461 63.3376 44.8677 63.824 44.9891C64.432 45.1104 65.0402 45.4748 65.5266 45.8389C66.013 46.203 66.3778 46.5671 66.7426 47.0525C66.9858 47.538 67.229 48.0231 67.3506 48.5086C67.4722 49.1154 67.3505 49.7221 67.2289 50.2076C67.1073 50.693 66.8639 51.1787 66.4991 51.6642C66.2559 52.0283 65.8914 52.3921 65.5266 52.6349C65.1618 52.8776 64.7968 53.1203 64.432 53.2417L63.3377 53.6062C63.0945 53.7275 62.7297 53.8486 62.4865 53.97C62.2433 54.0914 61.9999 54.3341 61.9999 54.5768L61.2705 56.155L59.3248 55.5481L59.6896 53.6062C59.6896 53.2421 59.9327 52.9991 60.1759 52.7564C60.4191 52.5136 60.6623 52.2709 61.0271 52.1495C61.3919 52.0282 61.7567 51.907 61.9999 51.7857C62.3647 51.6643 62.7297 51.5431 63.0945 51.3003C63.4593 51.179 63.7023 50.9362 64.0671 50.6935C64.3103 50.4508 64.5535 50.0862 64.6751 49.6007C64.7967 49.358 64.7968 49.1157 64.7968 48.873C64.7968 48.6303 64.6753 48.3874 64.5537 48.1447C64.4321 47.902 64.1889 47.7806 63.9457 47.5379C63.7025 47.4165 63.4593 47.2948 63.0945 47.1734C62.7297 47.052 62.3649 47.0525 61.8785 47.0525C61.6353 47.0525 61.2703 47.052 61.0271 47.1734C60.7839 47.1734 60.5407 47.2949 60.4191 47.2949C60.2974 47.2949 60.176 47.4163 59.9328 47.2949C59.6896 47.2949 59.4465 47.0523 59.4465 46.8095L58.7167 45.3529ZM56.8927 59.6744C57.0143 59.4317 57.0144 59.189 57.2576 59.0676C57.3792 58.8249 57.6223 58.7036 57.7439 58.5823C58.2303 58.3395 58.7168 58.3394 59.0816 58.4608C59.3248 58.5821 59.568 58.7033 59.6896 58.8246C59.8112 58.946 60.0543 59.1886 60.1759 59.31C60.6623 60.1595 60.2977 61.2518 59.4465 61.7373C58.9601 61.98 58.4735 61.9802 58.1087 61.8588C57.8655 61.7374 57.6223 61.7377 57.5007 61.4949C57.2575 61.3736 57.136 61.1309 57.0144 61.0096C56.8928 60.7669 56.8926 60.6455 56.771 60.4028C56.771 60.16 56.7711 59.9172 56.8927 59.6744Z" fill="#C0D6FF"/>
<path d="M138.577 92.1208L114.431 105.121C113.65 105.538 112.537 105.262 112.209 104.399L99.8373 80.7696C99.4219 79.9905 99.7004 78.8796 100.566 78.5502L131.912 62.1471C132.693 61.7306 133.806 62.0056 134.134 62.8691L143.101 80.0064L138.577 92.1208Z" fill="white"/>
<path d="M138.577 92.1208L114.431 105.121C113.65 105.538 112.537 105.262 112.209 104.399L99.8373 80.7696C99.4219 79.9905 99.7004 78.8796 100.566 78.5502L131.912 62.1471C132.693 61.7306 133.806 62.0056 134.134 62.8691L143.101 80.0064L138.577 92.1208Z" stroke="#6F7590" stroke-miterlimit="10" stroke-linecap="round" stroke-linejoin="round"/>
<path d="M138.77 82.1839L136.253 83.4307C135.384 83.9318 135.018 85.1274 135.43 86.0783L138.501 92.0504" stroke="#6F7590" stroke-miterlimit="10" stroke-linecap="round" stroke-linejoin="round"/>
<path d="M126.138 76.8168C126.479 76.994 126.819 77.1711 127.16 77.3482C127.5 77.5253 127.841 77.7023 128.179 78.051C128.516 78.3997 128.769 78.6612 129.106 79.0099C129.444 79.3586 129.693 79.7918 129.943 80.2249C130.277 80.7452 130.437 81.4339 130.512 82.0358C130.586 82.6377 130.577 83.1524 130.48 83.7516C130.298 84.2635 130.117 84.7757 129.851 85.2005C129.497 85.7097 128.976 86.0446 128.541 86.295C128.107 86.5455 127.587 86.7088 126.984 86.785C126.553 86.8638 126.038 86.8553 125.609 86.7626C125.181 86.6699 124.753 86.5773 124.413 86.4002L123.391 85.8686C123.135 85.7787 122.794 85.6018 122.538 85.5119C122.282 85.422 121.938 85.4165 121.763 85.5853L120.119 86.1593L119.207 84.3427L120.861 83.2535C121.123 83.0003 121.467 83.0062 121.811 83.0117C122.154 83.0172 122.498 83.0227 122.839 83.1998C123.179 83.3769 123.52 83.5538 123.776 83.6438C124.117 83.8209 124.457 83.998 124.886 84.0907C125.226 84.2678 125.57 84.2733 125.998 84.366C126.342 84.3716 126.773 84.2928 127.207 84.0423C127.642 83.7919 128.08 83.3697 128.089 82.855C128.18 82.599 128.099 82.3403 128.105 81.9971C128.024 81.7384 127.943 81.4798 127.777 81.1339C127.612 80.788 127.359 80.5264 127.022 80.1777C126.853 80.0034 126.6 79.7418 126.343 79.6518C126.175 79.4775 125.918 79.3876 125.834 79.3005C125.75 79.2133 125.578 79.2106 125.497 78.9519C125.328 78.7775 125.334 78.4345 125.51 78.2657L126.138 76.8168ZM114.631 85.3849C114.891 85.3033 115.066 85.1343 115.322 85.2243C115.581 85.1426 115.838 85.2324 116.01 85.2351C116.522 85.415 116.859 85.7639 117.025 86.1098C117.106 86.3685 117.187 86.6271 117.184 86.7987C117.181 86.9703 117.175 87.3135 117.171 87.485C117.078 87.9126 116.64 88.3346 116.293 88.5006C116.033 88.5823 115.774 88.6641 115.602 88.6613C115.43 88.6586 115.086 88.6528 114.915 88.6501C114.402 88.4702 114.065 88.1217 113.899 87.7758C113.818 87.517 113.649 87.3429 113.74 87.0869C113.659 86.8281 113.75 86.5717 113.753 86.4001C113.844 86.1441 113.931 86.0598 114.022 85.8038C114.197 85.635 114.456 85.5538 114.631 85.3849Z" fill="#C0D6FF"/>
<path d="M77.9292 14.2821L77.1994 14.1607C76.8346 14.1607 76.5916 13.9179 76.47 13.5538C76.3484 13.3111 76.3482 13.0684 76.2266 12.947C76.105 12.7043 76.1051 12.3399 76.3483 12.0972L76.7132 11.4904C76.9564 11.1263 76.9562 10.6409 76.5914 10.3982L75.3754 9.18455C75.0106 8.82045 74.5243 8.82033 74.2811 9.06306L73.6731 9.42752C73.4299 9.67025 73.065 9.66978 72.7002 9.54841C72.457 9.42704 72.2138 9.30603 72.0922 9.30603C71.7274 9.18467 71.6058 8.94182 71.4842 8.57772L71.3625 7.84941C71.2409 7.36394 70.8762 7.12109 70.5113 7.12109H68.809C68.3226 7.12109 67.9579 7.48531 67.9579 7.84941L67.8362 8.57772C67.8362 8.94182 67.593 9.18467 67.2282 9.30603C66.985 9.4274 66.7418 9.42704 66.6202 9.54841C66.3769 9.66978 66.0122 9.67025 65.769 9.42752L65.161 9.06306C64.7962 8.82033 64.3096 8.82045 64.0664 9.18455L62.8504 10.3982C62.4856 10.7623 62.4857 11.2476 62.729 11.4904L63.0938 12.0972C63.337 12.3399 63.3368 12.7043 63.2152 12.947C63.0936 13.1897 62.9721 13.4325 62.9721 13.5538C62.8505 13.9179 62.6072 14.0393 62.2424 14.1607L61.5129 14.2821C61.0265 14.4035 60.7832 14.7673 60.7832 15.1314V16.8304C60.7832 17.3158 61.1481 17.6802 61.5129 17.6802L62.2424 17.8016C62.6072 17.8016 62.8505 18.0444 62.9721 18.4085C63.0937 18.6512 63.0936 18.8939 63.2152 19.0153C63.3368 19.258 63.337 19.6219 63.0938 19.986L62.729 20.5928C62.4857 20.9569 62.4856 21.4424 62.8504 21.8065L64.0664 23.0201C64.4312 23.3842 64.9178 23.3843 65.161 23.1416L65.769 22.7778C66.0122 22.535 66.3769 22.5349 66.6202 22.6563C66.8634 22.7776 67.1066 22.8986 67.2282 22.8986C67.593 23.02 67.7146 23.2629 67.8362 23.627L67.9579 24.3553C68.0795 24.8407 68.4442 25.0836 68.809 25.0836H70.5113C70.9978 25.0836 71.3625 24.7194 71.3625 24.3553L71.4842 23.627C71.4842 23.2629 71.7274 23.02 72.0922 22.8986C72.3354 22.7773 72.5786 22.7776 72.7002 22.6563C72.9434 22.5349 73.3083 22.535 73.6731 22.7778L74.2811 23.1416C74.6459 23.3843 75.1322 23.3842 75.3754 23.0201L76.5914 21.8065C76.9562 21.4424 76.9564 20.9569 76.7132 20.5928L76.3483 19.986C76.1051 19.7433 76.105 19.3794 76.2266 19.0153C76.3482 18.7726 76.47 18.5298 76.47 18.4085C76.5916 18.0444 76.8346 17.923 77.1994 17.8016L77.9292 17.6802C78.4156 17.5588 78.6586 17.1945 78.6586 16.8304V15.1314C78.6586 14.6459 78.4156 14.2821 77.9292 14.2821ZM69.9033 18.8938C68.2009 18.8938 66.8633 17.5588 66.8633 15.8597C66.8633 14.1605 68.2009 12.8255 69.9033 12.8255C71.6058 12.8255 72.9434 14.1605 72.9434 15.8597C72.8218 17.5588 71.4842 18.8938 69.9033 18.8938Z" fill="#EA67A4"/>
<path d="M18.2227 79.9408L17.7364 79.8199C17.4932 79.8199 17.3714 79.5768 17.2498 79.4554C17.2498 79.334 17.1283 79.0914 17.0067 78.9701C16.8851 78.7273 16.8852 78.4846 17.1284 78.3632L17.3716 77.9994C17.4932 77.7566 17.4932 77.3923 17.3716 77.1496L16.5204 76.2998C16.2772 76.0571 15.9124 76.0571 15.6692 76.2998L15.3044 76.5428C15.0612 76.6641 14.818 76.6641 14.6964 76.5428C14.5748 76.4214 14.3314 76.4211 14.2098 76.2998C13.9666 76.1784 13.8452 76.0572 13.8452 75.8144L13.7235 75.3291C13.7235 75.0864 13.4803 74.8438 13.1155 74.8438H12.0212C11.6564 74.8438 11.4132 75.0864 11.4132 75.3291L11.2915 75.8144C11.2915 76.0572 11.0482 76.1784 10.9266 76.2998C10.805 76.2998 10.5619 76.4214 10.4403 76.5428C10.1971 76.6641 9.9539 76.6641 9.8323 76.5428L9.46743 76.2998C9.22423 76.0571 8.85948 76.1784 8.61628 76.2998L7.76512 77.1496C7.52192 77.3923 7.52192 77.7566 7.76512 77.9994L8.00827 78.3632C8.12987 78.606 8.12987 78.7273 8.00827 78.9701C7.88667 79.0914 7.88673 79.334 7.76512 79.4554C7.64352 79.6981 7.52174 79.8199 7.27854 79.8199L6.79225 79.9408C6.54905 79.9408 6.30566 80.1835 6.30566 80.5476V81.6404C6.30566 82.0044 6.54905 82.2472 6.79225 82.2472L7.27854 82.3681C7.52174 82.3681 7.64352 82.6112 7.76512 82.7325C7.76512 82.8539 7.88667 83.0965 8.00827 83.2179C8.12987 83.4606 8.12987 83.7033 8.00827 83.8247L7.76512 84.1886C7.64352 84.4313 7.64352 84.7956 7.76512 85.0384L8.61628 85.8882C8.85948 86.1309 9.22423 86.1309 9.46743 85.8882L9.8323 85.6452C9.9539 85.5238 10.1971 85.5237 10.4403 85.5237C10.5619 85.6451 10.805 85.6453 10.9266 85.7667C11.1698 85.888 11.2915 86.0093 11.2915 86.252L11.4132 86.7374C11.4132 86.9801 11.6564 87.2227 12.0212 87.2227H13.1155C13.4803 87.2227 13.7235 86.9801 13.7235 86.7374L13.8452 86.252C13.8452 86.0093 14.0882 85.888 14.2098 85.7667C14.3314 85.7667 14.5748 85.6451 14.6964 85.5237C14.9396 85.4023 15.1828 85.4025 15.3044 85.6452L15.6692 85.8882C15.9124 86.0095 16.2772 86.0095 16.5204 85.8882L17.3716 85.0384C17.6148 84.7956 17.6148 84.4313 17.3716 84.1886L17.1284 83.8247C17.0068 83.582 17.0067 83.3392 17.0067 83.2179C17.1283 83.0965 17.1282 82.8539 17.2498 82.7325C17.3714 82.4898 17.4932 82.3681 17.7364 82.3681L18.2227 82.2472C18.4659 82.2472 18.7093 82.0044 18.7093 81.6404V80.5476C18.8309 80.1835 18.5875 79.9408 18.2227 79.9408ZM12.6292 83.2179C11.5348 83.2179 10.5617 82.2467 10.5617 81.1544C10.5617 80.0621 11.5348 79.0916 12.6292 79.0916C13.7236 79.0916 14.6964 80.0621 14.6964 81.1544C14.6964 82.2467 13.8452 83.2179 12.6292 83.2179Z" fill="#EA67A4"/>
<path d="M112.586 77.8787V98.6324C112.586 101.302 110.397 103.487 107.722 103.487H39.1385C36.4632 103.487 34.2744 101.302 34.2744 98.6324V76.1797" stroke="#84A2FF" stroke-width="3" stroke-linecap="round" stroke-linejoin="round"/>
<path d="M116.477 59.918H88.3866C85.7114 59.918 83.0363 60.8891 80.9691 62.5883L73.5513 68.6565C71.484 70.3557 68.809 71.3268 66.1337 71.3268H34.1524C30.9907 71.3268 28.3154 73.8753 28.3154 77.1521C28.3154 77.3949 28.3155 77.7592 28.4372 78.0019L34.2738 109.071C34.7602 111.984 37.1923 114.169 40.1107 114.169H108.208C111.126 114.169 113.558 112.105 114.045 109.193L122.192 66.7146C122.678 63.5591 120.611 60.5249 117.328 60.0395C117.085 59.9181 116.72 59.918 116.477 59.918Z" fill="white"/>
<path d="M37.4356 71.3268H34.1524C30.9907 71.3268 28.3154 73.8753 28.3154 77.1521C28.3154 77.3949 28.3155 77.7592 28.4372 78.0019L34.2738 109.071C34.7602 111.984 37.1923 114.169 40.1107 114.169H108.208C111.126 114.169 113.558 112.105 114.045 109.193L122.192 66.7146C122.678 63.5591 120.611 60.5249 117.328 60.0395C116.963 60.0395 116.72 59.918 116.355 59.918H88.2652C85.59 59.918 82.9146 60.8891 80.8474 62.5883L73.4298 68.6565C71.3626 70.3557 68.6872 71.3268 66.012 71.3268H47.042" stroke="#6F7590" stroke-miterlimit="10" stroke-linecap="round" stroke-linejoin="round"/>
<path d="M61.9995 92.2011C63.6785 92.2011 65.0396 90.8427 65.0396 89.167C65.0396 87.4912 63.6785 86.1328 61.9995 86.1328C60.3205 86.1328 58.9595 87.4912 58.9595 89.167C58.9595 90.8427 60.3205 92.2011 61.9995 92.2011Z" fill="#6F7590"/>
<path d="M85.8335 92.08C87.5125 92.08 88.8735 90.7216 88.8735 89.0459C88.8735 87.3702 87.5125 86.0117 85.8335 86.0117C84.1545 86.0117 82.7935 87.3702 82.7935 89.0459C82.7935 90.7216 84.1545 92.08 85.8335 92.08Z" fill="#6F7590"/>
<path d="M80.483 97.1768H78.9024C77.5648 94.3854 74.1598 93.2931 71.4846 94.7495C70.3902 95.2349 69.539 96.2059 69.0526 97.1768H67.4717C68.8093 93.5358 72.9439 91.7155 76.4704 93.0505C78.2944 93.7787 79.7534 95.2349 80.483 97.1768Z" fill="#6F7590"/>
<path d="M129.384 110.416C129.019 111.994 128.533 113.45 127.925 114.906C127.803 115.271 127.682 115.513 127.438 115.877C125.371 119.882 122.088 123.159 118.075 125.101C117.589 125.344 117.102 125.587 116.738 125.708C112.846 127.286 108.469 127.893 104.091 126.922C92.5387 124.494 85.121 113.207 87.5531 101.678C89.9851 90.1478 101.294 82.7445 112.846 85.1718C116.981 86.0214 120.629 88.0846 123.669 90.9974C128.654 95.9734 130.843 103.377 129.384 110.416Z" fill="white"/>
<g filter="url(#filter0_d_860_33208)">
<path d="M130.026 111.631C129.661 113.208 129.175 114.665 128.567 116.121C128.445 116.485 128.324 116.728 128.081 117.092C126.013 121.097 122.73 124.374 118.717 126.316C118.231 126.559 117.744 126.801 117.38 126.923C113.488 128.501 109.111 129.107 104.733 128.136C93.1808 125.709 85.7631 114.422 88.1952 102.892C90.6272 91.3626 101.936 83.9593 113.488 86.3866C117.623 87.2362 121.271 89.2994 124.311 92.2122C129.418 97.1882 131.607 104.592 130.026 111.631Z" fill="url(#paint0_linear_860_33208)"/>
</g>
<path d="M117.971 114.047L114.81 110.891C117.242 107.25 116.269 102.396 112.621 99.9683C108.973 97.541 104.109 98.5123 101.677 102.153C99.2445 105.794 100.217 110.649 103.865 113.076C106.541 114.775 109.945 114.775 112.499 113.076L115.661 116.232C116.269 116.839 117.242 116.839 117.85 116.232C118.458 115.625 118.579 114.654 117.971 114.047ZM104.838 109.921C103.014 108.1 103.014 105.066 104.838 103.245C106.662 101.425 109.702 101.425 111.526 103.245C113.35 105.066 113.35 108.1 111.526 109.921C109.702 111.741 106.662 111.741 104.838 109.921Z" fill="white"/>
<defs>
<filter id="filter0_d_860_33208" x="79.7334" y="82.9258" width="58.7983" height="58.6797" filterUnits="userSpaceOnUse" color-interpolation-filters="sRGB">
<feFlood flood-opacity="0" result="BackgroundImageFix"/>
<feColorMatrix in="SourceAlpha" type="matrix" values="0 0 0 0 0 0 0 0 0 0 0 0 0 0 0 0 0 0 127 0" result="hardAlpha"/>
<feOffset dy="5"/>
<feGaussianBlur stdDeviation="4"/>
<feColorMatrix type="matrix" values="0 0 0 0 0.1125 0 0 0 0 0.295916 0 0 0 0 1 0 0 0 0.22 0"/>
<feBlend mode="normal" in2="BackgroundImageFix" result="effect1_dropShadow_860_33208"/>
<feBlend mode="normal" in="SourceGraphic" in2="effect1_dropShadow_860_33208" result="shape"/>
</filter>
<linearGradient id="paint0_linear_860_33208" x1="87.7456" y1="107.285" x2="130.552" y2="107.285" gradientUnits="userSpaceOnUse">
<stop stop-color="#83A6FF"/>
<stop offset="1" stop-color="#5277D7"/>
</linearGradient>
</defs>
</svg>
