<svg width="189" height="110" viewBox="0 0 189 110" fill="none" xmlns="http://www.w3.org/2000/svg"><rect width="189" height="110" rx="4" fill="#FAFAFA"/><g filter="url(#filter0_d_4611_227186)"><rect x="10.5" y="8" width="168.875" height="32" rx="4" fill="#fff"/><g clip-path="url(#clip0_4611_227186)"><path d="M28.016 18.088H26.84v6.944c0 1.078-.294 2.128-1.638 2.128-.826 0-1.33-.49-1.484-1.274l-1.176.238c.252 1.414 1.246 2.128 2.646 2.128 2.114 0 2.828-1.484 2.828-2.814v-7.35zm1.8959 6.636c0 2.044 1.484 3.444 3.5 3.444s3.5-1.4 3.5-3.444-1.484-3.444-3.5-3.444-3.5 1.4-3.5 3.444zm1.176 0c0-1.372.91-2.436 2.324-2.436 1.414 0 2.324 1.064 2.324 2.436 0 1.372-.91 2.436-2.324 2.436-1.414 0-2.324-1.064-2.324-2.436zM38.6024 28h1.092v-3.192c0-1.498.616-2.52 2.03-2.52 1.022 0 1.498.686 1.498 1.778V28h1.092v-4.046c0-1.582-.77-2.674-2.492-2.674-1.022 0-1.806.56-2.1 1.078h-.028v-4.942h-1.092V28zm7.7793 0h1.092v-3.192c0-1.498.616-2.52 2.03-2.52 1.022 0 1.498.686 1.498 1.778V28h1.092v-4.046c0-1.582-.77-2.674-2.492-2.674-1.078 0-1.89.602-2.184 1.246h-.028c0-.364-.028-.728-.028-1.078h-1.036c0 .434.056.952.056 1.554V28z" fill="#3E4359"/><path stroke="#000" stroke-linecap="round" d="M56 16.5v15"/></g><rect x="147.375" y="14" width="20" height="20" rx="4" fill="#FEF5F8"/><path d="M158.042 17l-6.667 8.4h6l-.667 5.6 6.667-8.4h-6l.667-5.6z" fill="#FEF5F8" stroke="#F34D77" stroke-linecap="round" stroke-linejoin="round"/><rect x="10" y="7.5" width="169.875" height="33" rx="4.5" stroke="#E6E6EB"/></g><g filter="url(#filter1_d_4611_227186)"><rect x="44" y="42" width="135" height="58" rx="4" fill="#fff"/><path d="M52.76 58h1.26v-7.08h-1.26V58zm2.7032 0h1.2v-2.62c0-.64.31-1.22 1.1-1.22.84 0 .88.88.88 1.41V58h1.2v-3.03c0-.98-.46-1.89-1.75-1.89-.8 0-1.25.41-1.47.89h-.02v-.77h-1.14V58zm6.1722-3.78v2.2c0 1.13.3 1.7 1.57 1.7.28 0 .7-.04.95-.16v-1.01c-.15.11-.44.15-.65.15-.53 0-.67-.3-.67-.78v-2.1h1.32V53.2h-1.32v-1.39h-1.2v1.39h-.99v1.02h.99zm8.0767 1.8v-.33c0-1.67-.91-2.61-2.25-2.61-1.45 0-2.61 1.01-2.61 2.52s1.16 2.52 2.61 2.52c.76 0 1.47-.27 2.03-.96l-.86-.65c-.3.37-.69.65-1.29.65-.67 0-1.21-.43-1.29-1.14h3.66zm-3.66-.9c.09-.69.53-1.14 1.24-1.14.75 0 1.21.44 1.22 1.14h-2.46zM70.8343 58h1.2v-2.57c0-.26.16-1.21 1.29-1.21.19 0 .38.04.58.09v-1.16c-.14-.04-.28-.07-.43-.07-.63 0-1.16.33-1.42.88h-.02v-.76h-1.2V58zm6.8867 0h1.08v-2.76c0-.68 0-2.16-2.05-2.16-.76 0-1.51.23-2.04.77l.63.63c.32-.3.78-.5 1.28-.5.64 0 1.1.31 1.1.9v.13h-.3c-1.2 0-3.02.11-3.02 1.67 0 .95.86 1.44 1.75 1.44.64 0 1.2-.24 1.54-.78h.03V58zm-.07-1.88c0 .67-.39 1.1-1.21 1.1-.39 0-.84-.19-.84-.63 0-.69 1.14-.74 1.8-.74h.25v.27zm6.5511-2.31c-.46-.51-1.13-.73-1.74-.73-1.45 0-2.61 1.01-2.61 2.52s1.16 2.52 2.61 2.52c.42 0 1.24-.18 1.73-.67l-.8-.86c-.22.29-.56.45-.93.45-.88 0-1.41-.69-1.41-1.44s.53-1.44 1.41-1.44c.32 0 .63.19.91.48l.83-.83zm1.1442.41v2.2c0 1.13.3 1.7 1.57 1.7.28 0 .7-.04.95-.16v-1.01c-.15.11-.44.15-.65.15-.53 0-.67-.3-.67-.78v-2.1h1.32V53.2h-1.32v-1.39h-1.2v1.39h-.99v1.02h.99zM88.8328 58h1.2v-4.8h-1.2V58zm-.17-6.43c0 .38.32.72.76.72s.78-.31.78-.72-.34-.72-.78-.72-.76.34-.76.72zM92.7205 58h1.28l1.89-4.8h-1.23l-1.29 3.36h-.02l-1.28-3.36h-1.31l1.96 4.8zm8.4955-1.98v-.33c0-1.67-.91-2.61-2.25-2.61-1.45 0-2.61 1.01-2.61 2.52s1.16 2.52 2.61 2.52c.76 0 1.47-.27 2.03-.96l-.86-.65c-.3.37-.69.65-1.29.65-.67 0-1.21-.43-1.29-1.14h3.66zm-3.66-.9c.09-.69.53-1.14 1.24-1.14.75 0 1.21.44 1.22 1.14h-2.46zm7.741 5.16h1.2v-2.89h.03c.25.31.73.73 1.63.73 1.37 0 2.32-1.1 2.32-2.52s-.89-2.52-2.37-2.52c-.67 0-1.3.26-1.65.84h-.02v-.72h-1.14v7.08zm3.98-4.68c0 .75-.53 1.44-1.41 1.44-.88 0-1.41-.69-1.41-1.44s.53-1.44 1.41-1.44c.88 0 1.41.69 1.41 1.44zm5.319 2.4h1.08v-2.76c0-.68 0-2.16-2.05-2.16-.76 0-1.51.23-2.04.77l.63.63c.32-.3.78-.5 1.28-.5.64 0 1.1.31 1.1.9v.13h-.3c-1.2 0-3.02.11-3.02 1.67 0 .95.86 1.44 1.75 1.44.64 0 1.2-.24 1.54-.78h.03V58zm-.07-1.88c0 .67-.39 1.1-1.21 1.1-.39 0-.84-.19-.84-.63 0-.69 1.14-.74 1.8-.74h.25v.27zm2.441 1.88h1.2v-2.57c0-.26.16-1.21 1.29-1.21.19 0 .38.04.58.09v-1.16c-.14-.04-.28-.07-.43-.07-.63 0-1.16.33-1.42.88h-.02v-.76h-1.2V58zm6.887 0h1.08v-2.76c0-.68 0-2.16-2.05-2.16-.76 0-1.51.23-2.04.77l.63.63c.32-.3.78-.5 1.28-.5.64 0 1.1.31 1.1.9v.13h-.3c-1.2 0-3.02.11-3.02 1.67 0 .95.86 1.44 1.75 1.44.64 0 1.2-.24 1.54-.78h.03V58zm-.07-1.88c0 .67-.39 1.1-1.21 1.1-.39 0-.84-.19-.84-.63 0-.69 1.14-.74 1.8-.74h.25v.27zm2.391 1.88h1.2v-2.62c0-.64.31-1.22 1.1-1.22.58 0 .82.39.82.98V58h1.2v-2.6c0-.62.28-1.24 1.03-1.24.71 0 .89.52.89 1.12V58h1.2v-2.86c0-1.15-.45-2.06-1.73-2.06-.72 0-1.23.28-1.58.89-.25-.6-.76-.89-1.5-.89-.8 0-1.26.42-1.47.87h-.02v-.75h-1.14V58zm13.371-1.98v-.33c0-1.67-.91-2.61-2.25-2.61-1.45 0-2.61 1.01-2.61 2.52s1.16 2.52 2.61 2.52c.76 0 1.47-.27 2.03-.96l-.86-.65c-.3.37-.69.65-1.29.65-.67 0-1.21-.43-1.29-1.14h3.66zm-3.66-.9c.09-.69.53-1.14 1.24-1.14.75 0 1.21.44 1.22 1.14h-2.46zm5.212-.9v2.2c0 1.13.3 1.7 1.57 1.7.28 0 .7-.04.95-.16v-1.01c-.15.11-.44.15-.65.15-.53 0-.67-.3-.67-.78v-2.1h1.32V53.2h-1.32v-1.39h-1.2v1.39h-.99v1.02h.99zm8.077 1.8v-.33c0-1.67-.91-2.61-2.25-2.61-1.45 0-2.61 1.01-2.61 2.52s1.16 2.52 2.61 2.52c.76 0 1.47-.27 2.03-.96l-.86-.65c-.3.37-.69.65-1.29.65-.67 0-1.21-.43-1.29-1.14h3.66zm-3.66-.9c.09-.69.53-1.14 1.24-1.14.75 0 1.21.44 1.22 1.14h-2.46zm4.782 2.88h1.2v-2.57c0-.26.16-1.21 1.29-1.21.19 0 .38.04.58.09v-1.16c-.14-.04-.28-.07-.43-.07-.63 0-1.16.33-1.42.88h-.02v-.76h-1.2V58z" fill="#3E4359"/><path d="M57.63 66.92h-5.52v.78h2.34V74h.84v-6.3h2.34v-.78zm.8522 7.08h.78v-2.28c0-1.07.44-1.8 1.45-1.8.73 0 1.07.49 1.07 1.27V74h.78v-2.89c0-1.13-.55-1.91-1.78-1.91-.73 0-1.29.4-1.5.77h-.02v-3.53h-.78V74zm5.6266 0h.78v-4.68h-.78V74zm-.18-6.51c0 .33.24.57.57.57.33 0 .57-.24.57-.57 0-.31-.25-.57-.57-.57-.32 0-.57.26-.57.57zm1.9924 5.76c.46.66 1.03.87 1.82.87.93 0 1.87-.41 1.87-1.47 0-.94-.7-1.24-1.53-1.4-.62-.12-1.18-.29-1.18-.68 0-.44.49-.65.92-.65.46 0 .79.23.99.56l.65-.43c-.32-.6-.93-.85-1.59-.85-.87 0-1.75.47-1.75 1.38 0 .97.76 1.16 1.65 1.36.5.11 1 .24 1 .74 0 .51-.54.72-1.03.72-.55 0-.89-.25-1.2-.63l-.62.48zm7.631.75h.78v-4.68h-.78V74zm-.18-6.51c0 .33.24.57.57.57.33 0 .57-.24.57-.57 0-.31-.25-.57-.57-.57-.32 0-.57.26-.57.57zM75.8845 74h.78v-2.28c0-1.07.44-1.8 1.45-1.8.73 0 1.07.49 1.07 1.27V74h.78v-2.89c0-1.13-.55-1.91-1.78-1.91-.77 0-1.35.43-1.56.89h-.02c0-.26-.02-.52-.02-.77h-.74c0 .31.04.68.04 1.11V74zm5.5167 2.28h.78v-3.11h.02c.29.53.96.95 1.8.95 1.31 0 2.34-1.06 2.34-2.46 0-1.42-.99-2.46-2.46-2.46-.68 0-1.25.3-1.68.8h-.02v-.68h-.78v6.96zm.78-4.62c0-.98.65-1.74 1.66-1.74 1.01 0 1.66.76 1.66 1.74s-.65 1.74-1.66 1.74c-1.01 0-1.66-.76-1.66-1.74zm9.4533-2.34h-.78v2.28c0 1.07-.44 1.8-1.45 1.8-.73 0-1.07-.49-1.07-1.27v-2.81h-.78v2.89c0 1.13.55 1.91 1.78 1.91.77 0 1.35-.43 1.56-.89h.02c0 .26.02.52.02.77h.74c0-.31-.04-.68-.04-1.11v-3.57zm4.0366 0h-1.38v-1.33h-.78v1.33h-1.02v.66h1.02v2.57c0 .97.18 1.57 1.29 1.57.29 0 .64-.05.91-.17l-.03-.71c-.21.11-.46.16-.69.16-.69 0-.7-.48-.7-1.08v-2.34h1.38v-.66zM99.4799 74h.7801v-4.68h-.7801V74zm-.18-6.51c0 .33.24.57.57.57.3301 0 .5701-.24.5701-.57 0-.31-.25-.57-.5701-.57-.32 0-.57.26-.57.57zm1.9921 5.76c.46.66 1.03.87 1.82.87.93 0 1.87-.41 1.87-1.47 0-.94-.7-1.24-1.53-1.4-.62-.12-1.18-.29-1.18-.68 0-.44.49-.65.92-.65.46 0 .79.23.99.56l.65-.43c-.32-.6-.93-.85-1.59-.85-.87 0-1.75.47-1.75 1.38 0 .97.76 1.16 1.65 1.36.5.11 1 .24 1 .74 0 .51-.54.72-1.03.72-.55 0-.89-.25-1.2-.63l-.62.48zm11.511-3.31c-.47-.51-1.11-.74-1.8-.74-1.44 0-2.42 1.04-2.42 2.46 0 1.44.97 2.46 2.42 2.46.68 0 1.32-.23 1.77-.75l-.58-.55c-.29.4-.68.58-1.19.58-.95 0-1.58-.78-1.58-1.74s.53-1.74 1.58-1.74c.47 0 .85.17 1.18.57l.62-.55zm.605 1.72c0 1.46 1.06 2.46 2.5 2.46s2.5-1 2.5-2.46-1.06-2.46-2.5-2.46-2.5 1-2.5 2.46zm.84 0c0-.98.65-1.74 1.66-1.74 1.01 0 1.66.76 1.66 1.74s-.65 1.74-1.66 1.74c-1.01 0-1.66-.76-1.66-1.74zm5.367 2.34h.78v-2.28c0-1.07.44-1.8 1.45-1.8.73 0 1.07.49 1.07 1.27V74h.78v-2.89c0-1.13-.55-1.91-1.78-1.91-.77 0-1.35.43-1.56.89h-.02c0-.26-.02-.52-.02-.77h-.74c0 .31.04.68.04 1.11V74zm7.877-4.68h-1.14v-.88c0-.81.03-1.4.84-1.4.18 0 .36.04.53.1l.11-.7c-.15-.08-.4-.12-.6-.12-1.26 0-1.66.81-1.66 1.95v1.05h-1.02v.66h1.02V74h.78v-4.02h1.14v-.66zm.72 4.68h.78v-4.68h-.78V74zm-.18-6.51c0 .33.24.57.57.57.33 0 .57-.24.57-.57 0-.31-.25-.57-.57-.57-.32 0-.57.26-.57.57zm7.181 1.83h-.78v.8h-.02c-.31-.62-1.02-.92-1.65-.92-1.49 0-2.49.93-2.49 2.46 0 1.38 1.02 2.4 2.49 2.4.62 0 1.28-.27 1.65-.87h.02v.6c0 .99-.37 1.89-1.77 1.89-.72 0-1.25-.28-1.74-.81l-.56.64c.66.65 1.39.89 2.3.89 1.64 0 2.55-.92 2.55-2.61v-4.47zm-4.1 2.34c0-.98.67-1.74 1.65-1.74.99 0 1.67.71 1.67 1.72 0 .9-.6 1.7-1.67 1.7-.91 0-1.65-.73-1.65-1.68zm9.623-2.34h-.78v2.28c0 1.07-.44 1.8-1.45 1.8-.73 0-1.07-.49-1.07-1.27v-2.81h-.78v2.89c0 1.13.55 1.91 1.78 1.91.77 0 1.35-.43 1.56-.89h.02c0 .26.02.52.02.77h.74c0-.31-.04-.68-.04-1.11v-3.57zm1.477 4.68h.78v-2.28c0-1.07.42-1.74 1.37-1.74.14 0 .29.02.42.06l.05-.79c-.11-.04-.22-.05-.32-.05-.77 0-1.35.43-1.56.89h-.02c0-.26-.02-.52-.02-.77h-.74c0 .31.04.68.04 1.11V74zm6.93-1.31c-.37.47-.82.71-1.49.71-.85 0-1.47-.69-1.53-1.5h3.78v-.25c0-1.55-.9-2.45-2.22-2.45-1.38 0-2.4 1.01-2.4 2.46 0 1.36.9 2.46 2.37 2.46.87 0 1.53-.26 2.08-.97l-.59-.46zm-3.02-1.45c.1-.79.67-1.32 1.53-1.32s1.38.53 1.41 1.32h-2.94zm8.876 2.76h.78v-7.56h-.78V70h-.02c-.43-.5-1-.8-1.68-.8-1.47 0-2.46 1.04-2.46 2.46 0 1.4 1.03 2.46 2.34 2.46.84 0 1.51-.42 1.8-.95h.02V74zm0-2.34c0 .98-.65 1.74-1.66 1.74-1.01 0-1.66-.76-1.66-1.74s.65-1.74 1.66-1.74c1.01 0 1.66.76 1.66 1.74zm5.437-1.23c.37-.34.89-.51 1.39-.51.73 0 1.16.35 1.16 1.03v.14h-.3c-1.15 0-2.95.09-2.95 1.64 0 .91.79 1.39 1.74 1.39.71 0 1.23-.34 1.54-.82h.02c0 .2 0 .49.05.7h.75c-.04-.24-.07-.54-.07-.81v-2.01c0-1.32-.58-1.98-1.96-1.98-.68 0-1.38.23-1.86.72l.49.51zm2.55 1.32v.3c-.02.76-.48 1.41-1.38 1.41-.59 0-1.03-.22-1.03-.81 0-.63.64-.9 1.63-.9h.78zm1.685 1.5c.46.66 1.03.87 1.82.87.93 0 1.87-.41 1.87-1.47 0-.94-.7-1.24-1.53-1.4-.62-.12-1.18-.29-1.18-.68 0-.44.49-.65.92-.65.46 0 .79.23.99.56l.65-.43c-.32-.6-.93-.85-1.59-.85-.87 0-1.75.47-1.75 1.38 0 .97.76 1.16 1.65 1.36.5.11 1 .24 1 .74 0 .51-.54.72-1.03.72-.55 0-.89-.25-1.2-.63l-.62.48zM53.17 84.43c.37-.34.89-.51 1.39-.51.73 0 1.16.35 1.16 1.03v.14h-.3c-1.15 0-2.95.09-2.95 1.64 0 .91.79 1.39 1.74 1.39.71 0 1.23-.34 1.54-.82h.02c0 .2 0 .49.05.7h.75c-.04-.24-.07-.54-.07-.81v-2.01c0-1.32-.58-1.98-1.96-1.98-.68 0-1.38.23-1.86.72l.49.51zm2.55 1.32v.3c-.02.76-.48 1.41-1.38 1.41-.59 0-1.03-.22-1.03-.81 0-.63.64-.9 1.63-.9h.78zM57.9255 88h.78v-2.28c0-1.07.44-1.8 1.45-1.8.73 0 1.07.49 1.07 1.27V88h.78v-2.89c0-1.13-.55-1.91-1.78-1.91-.77 0-1.35.43-1.56.89h-.02c0-.26-.02-.52-.02-.77h-.74c0 .31.04.68.04 1.11V88zm8.4099 0h.78v-4.68h-.78V88zm-.18-6.51c0 .33.24.57.57.57.33 0 .57-.24.57-.57 0-.31-.25-.57-.57-.57-.32 0-.57.26-.57.57zM68.6677 88h.78v-2.28c0-1.07.44-1.8 1.45-1.8.73 0 1.07.49 1.07 1.27V88h.78v-2.89c0-1.13-.55-1.91-1.78-1.91-.77 0-1.35.43-1.56.89h-.02c0-.26-.02-.52-.02-.77h-.74c0 .31.04.68.04 1.11V88zm8.1167-4.68h-1.38v-1.33h-.78v1.33h-1.02v.66h1.02v2.57c0 .97.18 1.57 1.29 1.57.29 0 .64-.05.91-.17l-.03-.71c-.21.11-.46.16-.69.16-.69 0-.7-.48-.7-1.08v-2.34h1.38v-.66zm4.5456 3.37c-.37.47-.82.71-1.49.71-.85 0-1.47-.69-1.53-1.5h3.78v-.25c0-1.55-.9-2.45-2.22-2.45-1.38 0-2.4 1.01-2.4 2.46 0 1.36.9 2.46 2.37 2.46.87 0 1.53-.26 2.08-.97l-.59-.46zm-3.02-1.45c.1-.79.67-1.32 1.53-1.32s1.38.53 1.41 1.32h-2.94zM83.2966 88h.78v-2.28c0-1.07.42-1.74 1.37-1.74.14 0 .29.02.42.06l.05-.79c-.11-.04-.22-.05-.32-.05-.77 0-1.35.43-1.56.89h-.02c0-.26-.02-.52-.02-.77h-.74c0 .31.04.68.04 1.11V88zm3.9457-3.57c.37-.34.89-.51 1.39-.51.73 0 1.16.35 1.16 1.03v.14h-.3c-1.15 0-2.95.09-2.95 1.64 0 .91.79 1.39 1.74 1.39.71 0 1.23-.34 1.54-.82h.02c0 .2 0 .49.05.7h.75c-.04-.24-.07-.54-.07-.81v-2.01c0-1.32-.58-1.98-1.96-1.98-.68 0-1.38.23-1.86.72l.49.51zm2.55 1.32v.3c-.02.76-.48 1.41-1.38 1.41-.59 0-1.03-.22-1.03-.81 0-.63.64-.9 1.63-.9h.78zm6.1555-1.81c-.47-.51-1.11-.74-1.8-.74-1.44 0-2.42 1.04-2.42 2.46 0 1.44.97 2.46 2.42 2.46.68 0 1.32-.23 1.77-.75l-.58-.55c-.29.4-.68.58-1.19.58-.95 0-1.58-.78-1.58-1.74s.53-1.74 1.58-1.74c.47 0 .85.17 1.18.57l.62-.55zm3.4342-.62h-1.38v-1.33h-.78v1.33h-1.02v.66h1.02v2.57c0 .97.18 1.57 1.29 1.57.29 0 .64-.05.91-.17l-.03-.71c-.21.11-.46.16-.69.16-.69 0-.7-.48-.7-1.08v-2.34h1.38v-.66zm1.026 4.68h.78v-4.68h-.78V88zm-.18-6.51c0 .33.24.57.57.57.33 0 .57-.24.57-.57 0-.31-.25-.57-.57-.57-.32 0-.57.26-.57.57zm6.492 1.83h-.84l-1.39 3.67h-.02l-1.46-3.67h-.91l1.91 4.68h.86l1.85-4.68zm4.434 3.37c-.37.47-.82.71-1.49.71-.85 0-1.47-.69-1.53-1.5h3.78v-.25c0-1.55-.9-2.45-2.22-2.45-1.38 0-2.4 1.01-2.4 2.46 0 1.36.9 2.46 2.37 2.46.87 0 1.53-.26 2.08-.97l-.59-.46zm-3.02-1.45c.1-.79.67-1.32 1.53-1.32s1.38.53 1.41 1.32h-2.94zm7.73 5.04h.78v-3.11h.02c.29.53.96.95 1.8.95 1.31 0 2.34-1.06 2.34-2.46 0-1.42-.99-2.46-2.46-2.46-.68 0-1.25.3-1.68.8h-.02v-.68h-.78v6.96zm.78-4.62c0-.98.65-1.74 1.66-1.74 1.01 0 1.66.76 1.66 1.74s-.65 1.74-1.66 1.74c-1.01 0-1.66-.76-1.66-1.74zm5.803-1.23c.37-.34.89-.51 1.39-.51.73 0 1.16.35 1.16 1.03v.14h-.3c-1.15 0-2.95.09-2.95 1.64 0 .91.79 1.39 1.74 1.39.71 0 1.23-.34 1.54-.82h.02c0 .2 0 .49.05.7h.75c-.04-.24-.07-.54-.07-.81v-2.01c0-1.32-.58-1.98-1.96-1.98-.68 0-1.38.23-1.86.72l.49.51zm2.55 1.32v.3c-.02.76-.48 1.41-1.38 1.41-.59 0-1.03-.22-1.03-.81 0-.63.64-.9 1.63-.9h.78zm2.206 2.25h.78v-2.28c0-1.07.42-1.74 1.37-1.74.14 0 .29.02.42.06l.05-.79c-.11-.04-.22-.05-.32-.05-.77 0-1.35.43-1.56.89h-.02c0-.26-.02-.52-.02-.77h-.74c0 .31.04.68.04 1.11V88zm3.946-3.57c.37-.34.89-.51 1.39-.51.73 0 1.16.35 1.16 1.03v.14h-.3c-1.15 0-2.95.09-2.95 1.64 0 .91.79 1.39 1.74 1.39.71 0 1.23-.34 1.54-.82h.02c0 .2 0 .49.05.7h.75c-.04-.24-.07-.54-.07-.81v-2.01c0-1.32-.58-1.98-1.96-1.98-.68 0-1.38.23-1.86.72l.49.51zm2.55 1.32v.3c-.02.76-.48 1.41-1.38 1.41-.59 0-1.03-.22-1.03-.81 0-.63.64-.9 1.63-.9h.78zm2.205 2.25h.78v-2.28c0-1.07.44-1.8 1.45-1.8.64 0 .9.4.9 1.43V88h.78v-2.7c0-.84.55-1.38 1.21-1.38.91 0 1.14.63 1.14 1.28V88h.78v-2.84c0-1.21-.44-1.96-1.78-1.96-.71 0-1.14.34-1.48.89-.15-.32-.47-.89-1.48-.89-.77 0-1.35.43-1.56.89h-.02c0-.26-.02-.52-.02-.77h-.74c0 .31.04.68.04 1.11V88zm12.106-1.31c-.37.47-.82.71-1.49.71-.85 0-1.47-.69-1.53-1.5h3.78v-.25c0-1.55-.9-2.45-2.22-2.45-1.38 0-2.4 1.01-2.4 2.46 0 1.36.9 2.46 2.37 2.46.87 0 1.53-.26 2.08-.97l-.59-.46zm-3.02-1.45c.1-.79.67-1.32 1.53-1.32s1.38.53 1.41 1.32h-2.94zm7.546-1.92h-1.38v-1.33h-.78v1.33h-1.02v.66h1.02v2.57c0 .97.18 1.57 1.29 1.57.29 0 .64-.05.91-.17l-.03-.71c-.21.11-.46.16-.69.16-.69 0-.7-.48-.7-1.08v-2.34h1.38v-.66zm4.546 3.37c-.37.47-.82.71-1.49.71-.85 0-1.47-.69-1.53-1.5h3.78v-.25c0-1.55-.9-2.45-2.22-2.45-1.38 0-2.4 1.01-2.4 2.46 0 1.36.9 2.46 2.37 2.46.87 0 1.53-.26 2.08-.97l-.59-.46zm-3.02-1.45c.1-.79.67-1.32 1.53-1.32s1.38.53 1.41 1.32h-2.94zm4.987 2.76h.78v-2.28c0-1.07.42-1.74 1.37-1.74.14 0 .29.02.42.06l.05-.79c-.11-.04-.22-.05-.32-.05-.77 0-1.35.43-1.56.89h-.02c0-.26-.02-.52-.02-.77h-.74c0 .31.04.68.04 1.11V88z" fill="#6F7590"/></g><defs><filter id="filter0_d_4611_227186" x="3.5" y="3" width="182.875" height="46" filterUnits="userSpaceOnUse" color-interpolation-filters="sRGB"><feFlood flood-opacity="0" result="BackgroundImageFix"/><feColorMatrix in="SourceAlpha" values="0 0 0 0 0 0 0 0 0 0 0 0 0 0 0 0 0 0 127 0" result="hardAlpha"/><feMorphology radius="1" operator="dilate" in="SourceAlpha" result="effect1_dropShadow_4611_227186"/><feOffset dy="2"/><feGaussianBlur stdDeviation="2.5"/><feComposite in2="hardAlpha" operator="out"/><feColorMatrix values="0 0 0 0 0 0 0 0 0 0 0 0 0 0 0 0 0 0 0.05 0"/><feBlend in2="BackgroundImageFix" result="effect1_dropShadow_4611_227186"/><feBlend in="SourceGraphic" in2="effect1_dropShadow_4611_227186" result="shape"/></filter><filter id="filter1_d_4611_227186" x="40" y="42" width="143" height="66" filterUnits="userSpaceOnUse" color-interpolation-filters="sRGB"><feFlood flood-opacity="0" result="BackgroundImageFix"/><feColorMatrix in="SourceAlpha" values="0 0 0 0 0 0 0 0 0 0 0 0 0 0 0 0 0 0 127 0" result="hardAlpha"/><feOffset dy="4"/><feGaussianBlur stdDeviation="2"/><feComposite in2="hardAlpha" operator="out"/><feColorMatrix values="0 0 0 0 0 0 0 0 0 0 0 0 0 0 0 0 0 0 0.05 0"/><feBlend in2="BackgroundImageFix" result="effect1_dropShadow_4611_227186"/><feBlend in="SourceGraphic" in2="effect1_dropShadow_4611_227186" result="shape"/></filter><clipPath id="clip0_4611_227186"><path fill="#fff" transform="translate(22.5 14)" d="M0 0h124.875v20H0z"/></clipPath></defs></svg>