<svg width="141" height="134" viewBox="0 0 141 134" fill="none" xmlns="http://www.w3.org/2000/svg">
<path d="M70.5708 107.318C100.146 107.318 124.124 83.3402 124.124 53.6588C124.124 23.9775 100.146 0 70.5708 0C40.995 0 17.0176 23.9775 17.0176 53.6588C17.0176 83.3402 40.995 107.318 70.5708 107.318Z" fill="#EAEEF9"/>
<path d="M130.251 31.5833C132.642 31.5833 134.581 29.6444 134.581 27.2526C134.581 24.8608 132.642 22.9219 130.251 22.9219C127.859 22.9219 125.92 24.8608 125.92 27.2526C125.92 29.6444 127.859 31.5833 130.251 31.5833Z" fill="#EAEEF9"/>
<path d="M136.587 14.5773C138.221 14.5773 139.545 13.2531 139.545 11.6197C139.545 9.98626 138.221 8.66211 136.587 8.66211C134.954 8.66211 133.63 9.98626 133.63 11.6197C133.63 13.2531 134.954 14.5773 136.587 14.5773Z" fill="#EAEEF9"/>
<path d="M13.3204 34.6466C14.9538 34.6466 16.2779 33.3224 16.2779 31.689C16.2779 30.0556 14.9538 28.7314 13.3204 28.7314C11.6869 28.7314 10.3628 30.0556 10.3628 31.689C10.3628 33.3224 11.6869 34.6466 13.3204 34.6466Z" fill="#EAEEF9"/>
<path d="M18.8129 98.9735C21.8464 98.9735 24.3056 96.5144 24.3056 93.4809C24.3056 90.4474 21.8464 87.9883 18.8129 87.9883C15.7794 87.9883 13.3203 90.4474 13.3203 93.4809C13.3203 96.5144 15.7794 98.9735 18.8129 98.9735Z" fill="#EAEEF9"/>
<g filter="url(#filter0_d_6269_148683)">
<path d="M120.216 32.2166H28.6367C26.6298 32.2166 25.0454 30.6322 25.0454 28.6252V8.02786C25.0454 6.02094 26.6298 4.43652 28.6367 4.43652H120.11C122.117 4.43652 123.702 6.02094 123.702 8.02786V28.6252C123.807 30.6322 122.117 32.2166 120.216 32.2166Z" fill="white"/>
</g>
<path d="M120.216 32.2166C122.117 32.2166 123.807 30.6322 123.702 28.6252V8.02786C123.702 6.02094 122.117 4.43652 120.11 4.43652H28.6367C26.6298 4.43652 25.0454 6.02094 25.0454 8.02786V28.6252C25.0454 30.6322 26.6298 32.2166 28.6367 32.2166H83.0294M112.262 32.2166H91.3556" stroke="#6F7590"/>
<path d="M53.1428 15.9499H32.8624C32.3342 15.9499 32.0173 15.5274 32.0173 15.1049V12.4642C32.0173 11.936 32.4398 11.6191 32.8624 11.6191H53.1428C53.671 11.6191 53.9879 12.0417 53.9879 12.4642V15.1049C53.9879 15.633 53.671 15.9499 53.1428 15.9499Z" fill="#C0D6FF"/>
<path d="M77.2259 24.9274H32.8624C32.3342 24.9274 32.0173 24.5049 32.0173 24.0824V21.4417C32.0173 20.9136 32.4398 20.5967 32.8624 20.5967H77.2259C77.7541 20.5967 78.071 21.0192 78.071 21.4417V24.0824C78.071 24.6105 77.6484 24.9274 77.2259 24.9274Z" fill="#C0D6FF"/>
<g filter="url(#filter1_d_6269_148683)">
<path d="M120.217 101.509H28.6375C26.6306 101.509 25.0461 99.9241 25.0461 97.9172V77.3198C25.0461 75.3129 26.6306 73.7285 28.6375 73.7285H120.111C122.118 73.7285 123.702 75.3129 123.702 77.3198V97.9172C123.808 99.9241 122.118 101.509 120.217 101.509Z" fill="white"/>
</g>
<path d="M54.2782 74.0551L28.2938 74.0551C26.391 74.0551 24.9447 75.2382 25.0505 77.3031V98.2932C25.0505 100.358 26.6362 101.988 28.6447 101.988L120.192 101.988C122.201 101.988 123.786 100.358 123.786 98.2932V77.3031C123.786 75.2382 122.201 74.0551 120.192 74.0551H65.3215" stroke="#6F7590"/>
<path d="M53.1426 85.3464H32.8621C32.334 85.3464 32.0171 84.9238 32.0171 84.5013V81.8606C32.0171 81.3325 32.4396 81.0156 32.8621 81.0156H53.1426C53.6707 81.0156 53.9876 81.4381 53.9876 81.8606V84.5013C53.9876 84.9238 53.6707 85.3464 53.1426 85.3464Z" fill="#C0D6FF"/>
<path d="M77.2257 94.3259H32.8621C32.334 94.3259 32.0171 93.9033 32.0171 93.4808V90.8401C32.0171 90.312 32.4396 89.9951 32.8621 89.9951H77.2257C77.7538 89.9951 78.0707 90.4176 78.0707 90.8401V93.4808C78.0707 93.9033 77.6482 94.3259 77.2257 94.3259Z" fill="#C0D6FF"/>
<g filter="url(#filter2_d_6269_148683)">
<path d="M104.688 66.8631H13.2149C11.2079 66.8631 9.62354 65.2786 9.62354 63.2717V42.6743C9.62354 40.6674 11.2079 39.083 13.2149 39.083H104.688C106.695 39.083 108.28 40.6674 108.28 42.6743V63.2717C108.385 65.2786 106.695 66.8631 104.688 66.8631Z" fill="white"/>
</g>
<path d="M37.7212 50.5954H17.4407C16.9126 50.5954 16.5957 50.1729 16.5957 49.7504V47.1097C16.5957 46.5815 17.0182 46.2646 17.4407 46.2646H37.7212C38.2494 46.2646 38.5662 46.6872 38.5662 47.1097V49.7504C38.5662 50.2785 38.2494 50.5954 37.7212 50.5954Z" fill="#C0D6FF"/>
<path d="M61.8043 59.6794H17.4407C16.9126 59.6794 16.5957 59.2569 16.5957 58.8343V56.1937C16.5957 55.6655 17.0182 55.3486 17.4407 55.3486H61.6987C62.2268 55.3486 62.5437 55.7711 62.5437 56.1937V58.8343C62.6493 59.2569 62.2268 59.6794 61.8043 59.6794Z" fill="#C0D6FF"/>
<path d="M104.947 66.9098C106.85 66.9098 108.296 65.7266 108.191 63.6617V42.6717C108.191 40.6068 106.605 38.9766 104.597 38.9766H13.0491C11.0405 38.9766 9.45483 40.6068 9.45483 42.6717V63.6617C9.45483 65.7266 11.0405 66.9098 13.0491 66.9098H67.9197M96.5025 66.9098H78.963" stroke="#6F7590"/>
<g filter="url(#filter3_d_6269_148683)">
<circle cx="99.2698" cy="80.5518" r="19.4883" fill="url(#paint0_linear_6269_148683)"/>
</g>
<path d="M131.719 117.791L115.037 101.214C97.4282 114.108 73.2854 101.536 73.2854 80.4925C73.2854 66.1715 85.0093 54.5674 99.3745 54.5674C120.134 54.5674 132.878 77.7756 120.783 95.32L137.558 111.989C139.18 113.601 139.18 116.18 137.558 117.791C135.936 119.403 133.341 119.403 131.719 117.791ZM99.3745 62.81C89.5505 62.81 81.5338 70.7763 81.5338 80.5385C81.5338 96.2409 100.44 103.793 111.284 93.7083C123.564 82.2883 115.362 62.81 99.3745 62.81Z" fill="url(#paint1_linear_6269_148683)"/>
<path d="M90.325 84.3814C91.6185 84.3814 92.7129 83.2869 92.7129 81.9934C92.7129 80.7 91.6185 79.6055 90.325 79.6055C89.0315 79.6055 87.937 80.7 87.937 81.9934C87.937 83.2869 89.0315 84.3814 90.325 84.3814Z" fill="#6F7590"/>
<path d="M108.632 84.3814C109.926 84.3814 111.02 83.2869 111.02 81.9934C111.02 80.7 109.926 79.6055 108.632 79.6055C107.339 79.6055 106.244 80.7 106.244 81.9934C106.244 83.3864 107.339 84.3814 108.632 84.3814Z" fill="#6F7590"/>
<path d="M90.2312 74.0914L84.9783 76.9277L85.6873 78.241L90.9403 75.4047L90.2312 74.0914Z" fill="#6F7590"/>
<path d="M108.307 74.0548L107.598 75.3682L112.852 78.2039L113.561 76.8905L108.307 74.0548Z" fill="#6F7590"/>
<path d="M99.4786 89.9534C101.017 89.9534 102.265 89.0179 102.265 87.8639C102.265 86.7099 101.017 85.7744 99.4786 85.7744C97.9399 85.7744 96.6926 86.7099 96.6926 87.8639C96.6926 89.0179 97.9399 89.9534 99.4786 89.9534Z" fill="#6F7590"/>
<defs>
<filter id="filter0_d_6269_148683" x="16.0454" y="0.436523" width="116.661" height="45.7803" filterUnits="userSpaceOnUse" color-interpolation-filters="sRGB">
<feFlood flood-opacity="0" result="BackgroundImageFix"/>
<feColorMatrix in="SourceAlpha" type="matrix" values="0 0 0 0 0 0 0 0 0 0 0 0 0 0 0 0 0 0 127 0" result="hardAlpha"/>
<feOffset dy="5"/>
<feGaussianBlur stdDeviation="4.5"/>
<feColorMatrix type="matrix" values="0 0 0 0 0.397708 0 0 0 0 0.47749 0 0 0 0 0.575 0 0 0 0.17 0"/>
<feBlend mode="normal" in2="BackgroundImageFix" result="effect1_dropShadow_6269_148683"/>
<feBlend mode="normal" in="SourceGraphic" in2="effect1_dropShadow_6269_148683" result="shape"/>
</filter>
<filter id="filter1_d_6269_148683" x="16.0461" y="69.7285" width="116.661" height="45.7803" filterUnits="userSpaceOnUse" color-interpolation-filters="sRGB">
<feFlood flood-opacity="0" result="BackgroundImageFix"/>
<feColorMatrix in="SourceAlpha" type="matrix" values="0 0 0 0 0 0 0 0 0 0 0 0 0 0 0 0 0 0 127 0" result="hardAlpha"/>
<feOffset dy="5"/>
<feGaussianBlur stdDeviation="4.5"/>
<feColorMatrix type="matrix" values="0 0 0 0 0.397708 0 0 0 0 0.47749 0 0 0 0 0.575 0 0 0 0.17 0"/>
<feBlend mode="normal" in2="BackgroundImageFix" result="effect1_dropShadow_6269_148683"/>
<feBlend mode="normal" in="SourceGraphic" in2="effect1_dropShadow_6269_148683" result="shape"/>
</filter>
<filter id="filter2_d_6269_148683" x="0.623535" y="35.083" width="116.661" height="45.7803" filterUnits="userSpaceOnUse" color-interpolation-filters="sRGB">
<feFlood flood-opacity="0" result="BackgroundImageFix"/>
<feColorMatrix in="SourceAlpha" type="matrix" values="0 0 0 0 0 0 0 0 0 0 0 0 0 0 0 0 0 0 127 0" result="hardAlpha"/>
<feOffset dy="5"/>
<feGaussianBlur stdDeviation="4.5"/>
<feColorMatrix type="matrix" values="0 0 0 0 0.397708 0 0 0 0 0.47749 0 0 0 0 0.575 0 0 0 0.17 0"/>
<feBlend mode="normal" in2="BackgroundImageFix" result="effect1_dropShadow_6269_148683"/>
<feBlend mode="normal" in="SourceGraphic" in2="effect1_dropShadow_6269_148683" result="shape"/>
</filter>
<filter id="filter3_d_6269_148683" x="57.7815" y="50.0635" width="82.9766" height="82.9766" filterUnits="userSpaceOnUse" color-interpolation-filters="sRGB">
<feFlood flood-opacity="0" result="BackgroundImageFix"/>
<feColorMatrix in="SourceAlpha" type="matrix" values="0 0 0 0 0 0 0 0 0 0 0 0 0 0 0 0 0 0 127 0" result="hardAlpha"/>
<feOffset dy="11"/>
<feGaussianBlur stdDeviation="11"/>
<feColorMatrix type="matrix" values="0 0 0 0 0.397708 0 0 0 0 0.47749 0 0 0 0 0.575 0 0 0 0.27 0"/>
<feBlend mode="normal" in2="BackgroundImageFix" result="effect1_dropShadow_6269_148683"/>
<feBlend mode="normal" in="SourceGraphic" in2="effect1_dropShadow_6269_148683" result="shape"/>
</filter>
<linearGradient id="paint0_linear_6269_148683" x1="99.2571" y1="60.1619" x2="99.2571" y2="100.46" gradientUnits="userSpaceOnUse">
<stop stop-color="#FDFEFF"/>
<stop offset="0.9964" stop-color="#ECF0F5"/>
</linearGradient>
<linearGradient id="paint1_linear_6269_148683" x1="73.3041" y1="86.8146" x2="138.806" y2="86.8146" gradientUnits="userSpaceOnUse">
<stop stop-color="#83A6FF"/>
<stop offset="1" stop-color="#5277D7"/>
</linearGradient>
</defs>
</svg>
