<svg width="220" height="206" viewBox="0 0 220 206" fill="none" xmlns="http://www.w3.org/2000/svg"><rect width="220" height="206" rx="4" fill="#F7F7F7"/><g clip-path="url(#clip0_4735_235023)"><path fill="#fff" fill-opacity=".9" d="M19 49h83v8H19z"/><path stroke="#6F7590" d="M19 56.5h83"/><path fill="#D6D6F5" d="M40 57h30v16H40z"/><path stroke="#6F7590" d="M40 72.5h30"/><path fill="#C9F9EE" d="M19 57h20v16H19z"/><path stroke="#6F7590" d="M19 72.5h20"/><path d="M27.7344 66.9844h1.289v-3.6289l-.875.9492-.5468-.5703 1.4296-1.5664h1.1133v4.8164h1.2891V68h-3.6992v-1.0156z" fill="#3E4359"/><path stroke="#6F7590" d="M70.5 57v16M39.5 57v16"/><path fill="#D6D6F5" d="M71 57h30v16H71z"/><path stroke="#6F7590" d="M71 72.5h30"/><path fill="#D6D6F5" d="M40 73h30v16H40z"/><path stroke="#F3F3F3" d="M40 88.5h30"/><path fill="#C9F9EE" d="M19 73h20v16H19z"/><path stroke="#F3F3F3" d="M19 88.5h20"/><path d="M27.4492 83.1562c0-.0885.0326-.1692.0977-.2421l.5273-.5625c.2891-.3125.5182-.5586.6875-.7383.1693-.1797.3021-.3229.3985-.4297.0963-.1068.1849-.2044.2656-.293.0963-.112.1797-.2135.25-.3047.0703-.0937.1276-.1888.1719-.2851.0859-.1745.1289-.3503.1289-.5274 0-.25-.0795-.4466-.2383-.5898-.1589-.1432-.3815-.2148-.668-.2148-.2161 0-.4466.0403-.6914.121-.1276.0417-.2591.0925-.3945.1524-.1328.0573-.2696.1263-.4102.207V78.375c.1563-.0573.3047-.1055.4453-.1445.1407-.0391.2657-.069.375-.0899.2683-.0521.5287-.0781.7813-.0781.2838 0 .5482.0352.793.1055.2473.0677.4635.1758.6484.3242.1667.1354.2956.3008.3867.4961.0938.1953.1406.4284.1406.6992 0 .2135-.039.4232-.1172.6289-.0963.2318-.2278.4544-.3945.668-.0911.1146-.2239.263-.3984.4453-.1745.1823-.4206.4323-.7383.75-.1901.1927-.3399.3346-.4492.4258-.1094.0885-.1979.1562-.2657.2031-.0677.0469-.1354.1055-.2031.1758h2.5742V84h-3.7031v-.8438z" fill="#3E4359"/><path stroke="#6F7590" d="M70.5 73v16M39.5 73v16"/><path fill="#D6D6F5" d="M71 73h30v16H71z"/><path stroke="#F3F3F3" d="M71 88.5h30"/></g><rect x="19.5" y="49.5" width="82" height="39" rx="1.5" stroke="#6F7590"/><path fill="#fff" fill-opacity=".9" d="M118 49h83v8h-83z"/><path stroke="#6F7590" d="M118 56.5h83"/><path fill="#FFF8E5" d="M139 57h30v16h-30z"/><path stroke="#6F7590" d="M139 72.5h30"/><path fill="#C9F9EE" d="M118 57h20v16h-20z"/><path stroke="#6F7590" d="M118 72.5h20"/><path d="M126.734 66.9844h1.289v-3.6289l-.875.9492-.546-.5703 1.429-1.5664h1.114v4.8164h1.289V68h-3.7v-1.0156z" fill="#3E4359"/><path stroke="#6F7590" d="M169.5 57v16M138.5 57v16"/><path fill="#FFF8E5" d="M170 57h30v16h-30z"/><path stroke="#6F7590" d="M170 72.5h30"/><path fill="#FFF8E5" d="M139 73h30v16h-30z"/><path stroke="#6F7590" d="M139 88.5h30"/><path fill="#C9F9EE" d="M118 73h20v16h-20z"/><path stroke="#6F7590" d="M118 88.5h20"/><path d="M128.168 84.1133c-.138 0-.28-.0065-.426-.0195-.146-.0105-.29-.0287-.433-.0547-.133-.0235-.269-.0521-.407-.086-.138-.0364-.276-.0794-.414-.1289v-1.0703c.245.125.509.2175.793.2773.149.0339.295.0586.438.0743.143.0156.274.0234.394.0234.172 0 .326-.0169.461-.0508.136-.0338.252-.0885.348-.164.18-.1459.269-.3503.269-.6133 0-.2787-.091-.5013-.273-.668-.086-.0755-.194-.1341-.324-.1758-.128-.0442-.278-.0664-.449-.0664h-.618V80.375h.618c.283 0 .506-.0573.667-.1719.157-.112.235-.2721.235-.4804 0-.2162-.078-.3842-.235-.5039-.151-.1198-.376-.1797-.675-.1797-.102 0-.213.0065-.332.0195-.117.013-.239.0338-.364.0625-.117.026-.242.0599-.375.1016-.132.039-.267.0846-.402.1367v-1.0469c.271-.0807.535-.1432.793-.1875.258-.0417.507-.0625.746-.0625.623 0 1.103.1341 1.442.4023.343.2683.515.6381.515 1.1094 0 .1667-.023.3203-.07.461-.044.1406-.12.2695-.227.3867-.198.2213-.48.3659-.847.4336.416.0729.734.2383.953.4961.219.2552.328.5989.328 1.0312 0 .5573-.18.9857-.539 1.2852-.36.2968-.89.4453-1.59.4453z" fill="#3E4359"/><path stroke="#6F7590" d="M169.5 73v16M138.5 73v16"/><path fill="#FFF8E5" d="M170 73h30v16h-30z"/><path stroke="#6F7590" d="M170 88.5h30"/><path fill="#FFF8E5" d="M139 89h30v16h-30z"/><path stroke="#F3F3F3" d="M139 104.5h30"/><path fill="#C9F9EE" d="M118 89h20v16h-20z"/><path stroke="#F3F3F3" d="M118 104.5h20"/><path d="M128.711 98.7422h-2.313V97.625l2.211-3.457h1.207v3.5859h.641v.9883h-.641V100h-1.105v-1.2578zm0-.9883v-2.3047l-1.473 2.3047h1.473z" fill="#3E4359"/><path stroke="#6F7590" d="M169.5 89v16M138.5 89v16"/><path fill="#FFF8E5" d="M170 89h30v16h-30z"/><path stroke="#F3F3F3" d="M170 104.5h30"/><rect x="118.5" y="49.5" width="82" height="55" rx="1.5" stroke="#6F7590"/><path fill="#fff" fill-opacity=".9" d="M38 146h144v8H38z"/><path stroke="#6F7590" d="M38 153.5h144"/><path fill="#D6D6F5" d="M59 154h30v16H59z"/><path stroke="#6F7590" d="M59 169.5h30"/><path fill="#C9F9EE" d="M38 154h20v16H38z"/><path stroke="#6F7590" d="M38 169.5h20"/><path d="M46.7344 163.984h1.289v-3.629l-.875.95-.5468-.571 1.4296-1.566h1.1133v4.816h1.2891V165h-3.6992v-1.016z" fill="#3E4359"/><path stroke="#6F7590" d="M89.5 154v16M120.5 154v16M151.5 154v16M58.5 154v16"/><path fill="#D6D6F5" d="M90 154h30v16H90z"/><path stroke="#6F7590" d="M90 169.5h30"/><path fill="#FFF8E5" d="M121 154h30v16h-30z"/><path stroke="#6F7590" d="M121 169.5h30"/><path fill="#FFF8E5" d="M152 154h30v16h-30z"/><path stroke="#6F7590" d="M152 169.5h30"/><rect x="38.5" y="146.5" width="143" height="23" rx="1.5" stroke="#6F7590"/><path d="M19.632 42h3.416v-.912H20.64v-4.752h-1.008V42zm7.7564-1.584v-.264c0-1.336-.728-2.088-1.8-2.088-1.16 0-2.088.808-2.088 2.016s.928 2.016 2.088 2.016c.608 0 1.176-.216 1.624-.768l-.688-.52c-.24.296-.552.52-1.032.52-.536 0-.968-.344-1.032-.912h2.928zm-2.928-.72c.072-.552.424-.912.992-.912.6 0 .968.352.976.912h-1.968zM28.6302 42h.96v-3.024h.888v-.816h-.888v-.696c0-.424.08-.792.616-.792.136 0 .264.024.4.056l.064-.816c-.2-.04-.4-.056-.608-.056-1.192 0-1.432.696-1.432 1.76v.544h-.792v.816h.792V42zm2.8125-3.024v1.76c0 .904.24 1.36 1.256 1.36.224 0 .56-.032.76-.128v-.808c-.12.088-.352.12-.52.12-.424 0-.536-.24-.536-.624v-1.68h1.056v-.816h-1.056v-1.112h-.96v1.112h-.792v.816h.792zM37.8233 42h1.008v-4.752h1.736v-.912h-4.48v.912h1.736V42zm4.9488 0h.864v-2.208c0-.544 0-1.728-1.64-1.728-.608 0-1.208.184-1.632.616l.504.504c.256-.24.624-.4 1.024-.4.512 0 .88.248.88.72v.104h-.24c-.96 0-2.416.088-2.416 1.336 0 .76.688 1.152 1.4 1.152.512 0 .96-.192 1.232-.624h.024V42zm-.056-1.504c0 .536-.312.88-.968.88-.312 0-.672-.152-.672-.504 0-.552.912-.592 1.44-.592h.2v.216zM44.669 42h.912v-.576h.016c.28.464.784.672 1.32.672 1.184 0 1.896-.88 1.896-2.016 0-1.136-.76-2.016-1.856-2.016-.72 0-1.104.336-1.304.584h-.024v-2.696h-.96V42zm3.184-1.92c0 .6-.424 1.152-1.128 1.152s-1.128-.552-1.128-1.152c0-.6.424-1.152 1.128-1.152s1.128.552 1.128 1.152zM49.7241 42h.96v-6.048h-.96V42zm5.7581-1.584v-.264c0-1.336-.728-2.088-1.8-2.088-1.16 0-2.088.808-2.088 2.016s.928 2.016 2.088 2.016c.608 0 1.176-.216 1.624-.768l-.688-.52c-.24.296-.552.52-1.032.52-.536 0-.968-.344-1.032-.912h2.928zm-2.928-.72c.072-.552.424-.912.992-.912.6 0 .968.352.976.912h-1.968zM38.656 140h.96v-4.704h.016l1.72 4.704h.704l1.72-4.704h.016V140h.96v-5.664h-1.52l-1.528 3.968-1.512-3.968h-1.536V140zm10.9903-1.584v-.264c0-1.336-.728-2.088-1.8-2.088-1.16 0-2.088.808-2.088 2.016s.928 2.016 2.088 2.016c.608 0 1.176-.216 1.624-.768l-.688-.52c-.24.296-.552.52-1.032.52-.536 0-.968-.344-1.032-.912h2.928zm-2.928-.72c.072-.552.424-.912.992-.912.6 0 .968.352.976.912h-1.968zM50.544 140h.96v-2.056c0-.208.128-.968 1.032-.968.152 0 .304.032.464.072v-.928c-.112-.032-.224-.056-.344-.056-.504 0-.928.264-1.136.704h-.016v-.608h-.96V140zm6.0088-3.84v.576h-.016c-.28-.464-.784-.672-1.32-.672-1.184 0-1.896.88-1.896 2.016 0 1.088.76 1.968 1.912 1.968.48 0 .976-.184 1.256-.56h.016v.28c0 .76-.288 1.288-1.216 1.288-.536 0-.936-.2-1.32-.552l-.576.784c.544.48 1.192.632 1.904.632 1.496 0 2.168-.88 2.168-2.264v-3.496h-.912zm-1.136.768c.696 0 1.136.464 1.136 1.128 0 .64-.432 1.128-1.144 1.128-.648 0-1.128-.504-1.128-1.112 0-.68.464-1.144 1.136-1.144zm6.831 1.488v-.264c0-1.336-.728-2.088-1.8-2.088-1.16 0-2.088.808-2.088 2.016s.928 2.016 2.088 2.016c.608 0 1.176-.216 1.624-.768l-.688-.52c-.24.296-.552.52-1.032.52-.536 0-.968-.344-1.032-.912h2.928zm-2.928-.72c.072-.552.424-.912.992-.912.6 0 .968.352.976.912h-1.968zM66.1856 140h.912v-6.048h-.96v2.696h-.024c-.2-.248-.584-.584-1.304-.584-1.096 0-1.856.88-1.856 2.016 0 1.136.712 2.016 1.896 2.016.536 0 1.04-.208 1.32-.672h.016V140zm-2.272-1.92c0-.6.424-1.152 1.128-1.152s1.128.552 1.128 1.152c0 .6-.424 1.152-1.128 1.152s-1.128-.552-1.128-1.152zm7.8862 1.92h1.008v-4.752h1.736v-.912h-4.48v.912h1.736V140zm4.9489 0h.864v-2.208c0-.544 0-1.728-1.64-1.728-.608 0-1.208.184-1.632.616l.504.504c.256-.24.624-.4 1.024-.4.512 0 .88.248.88.72v.104h-.24c-.96 0-2.416.088-2.416 1.336 0 .76.688 1.152 1.4 1.152.512 0 .96-.192 1.232-.624h.024V140zm-.056-1.504c0 .536-.312.88-.968.88-.312 0-.672-.152-.672-.504 0-.552.912-.592 1.44-.592h.2v.216zM78.6456 140h.912v-.576h.016c.28.464.784.672 1.32.672 1.184 0 1.896-.88 1.896-2.016 0-1.136-.76-2.016-1.856-2.016-.72 0-1.104.336-1.304.584h-.024v-2.696h-.96V140zm3.184-1.92c0 .6-.424 1.152-1.128 1.152s-1.128-.552-1.128-1.152c0-.6.424-1.152 1.128-1.152s1.128.552 1.128 1.152zm1.871 1.92h.96v-6.048h-.96V140zm5.7582-1.584v-.264c0-1.336-.728-2.088-1.8-2.088-1.16 0-2.088.808-2.088 2.016s.928 2.016 2.088 2.016c.608 0 1.176-.216 1.624-.768l-.688-.52c-.24.296-.552.52-1.032.52-.536 0-.968-.344-1.032-.912h2.928zm-2.928-.72c.072-.552.424-.912.992-.912.6 0 .968.352.976.912h-1.968zM119.632 42h1.008v-2.4h.736l1.312 2.4h1.216l-1.504-2.504c.84-.12 1.312-.72 1.312-1.536 0-1.272-1.024-1.624-2.112-1.624h-1.968V42zm1.008-3.264V37.2h.872c.52 0 1.144.08 1.144.752 0 .736-.664.784-1.232.784h-.784zM124.599 42h.96v-3.84h-.96V42zm-.136-5.144c0 .304.256.576.608.576s.624-.248.624-.576c0-.328-.272-.576-.624-.576s-.608.272-.608.576zm5.238 1.304v.576h-.016c-.28-.464-.784-.672-1.32-.672-1.184 0-1.896.88-1.896 2.016 0 1.088.76 1.968 1.912 1.968.48 0 .976-.184 1.256-.56h.016v.28c0 .76-.288 1.288-1.216 1.288-.536 0-.936-.2-1.32-.552l-.576.784c.544.48 1.192.632 1.904.632 1.496 0 2.168-.88 2.168-2.264V38.16h-.912zm-1.136.768c.696 0 1.136.464 1.136 1.128 0 .64-.432 1.128-1.144 1.128-.648 0-1.128-.504-1.128-1.112 0-.68.464-1.144 1.136-1.144zm4.095-2.976h-.96V42h.96v-2.096c0-.512.248-.976.88-.976.672 0 .704.704.704 1.128V42h.96v-2.424c0-.784-.368-1.512-1.4-1.512-.592 0-.976.312-1.128.632h-.016v-2.744zm3.978 3.024v1.76c0 .904.24 1.36 1.256 1.36.224 0 .56-.032.76-.128v-.808c-.12.088-.352.12-.52.12-.424 0-.536-.24-.536-.624v-1.68h1.056v-.816h-1.056v-1.112h-.96v1.112h-.792v.816h.792zM143.019 42h1.008v-4.752h1.736v-.912h-4.48v.912h1.736V42zm4.948 0h.864v-2.208c0-.544 0-1.728-1.64-1.728-.608 0-1.208.184-1.632.616l.504.504c.256-.24.624-.4 1.024-.4.512 0 .88.248.88.72v.104h-.24c-.96 0-2.416.088-2.416 1.336 0 .76.688 1.152 1.4 1.152.512 0 .96-.192 1.232-.624h.024V42zm-.056-1.504c0 .536-.312.88-.968.88-.312 0-.672-.152-.672-.504 0-.552.912-.592 1.44-.592h.2v.216zM149.864 42h.912v-.576h.016c.28.464.784.672 1.32.672 1.184 0 1.896-.88 1.896-2.016 0-1.136-.76-2.016-1.856-2.016-.72 0-1.104.336-1.304.584h-.024v-2.696h-.96V42zm3.184-1.92c0 .6-.424 1.152-1.128 1.152s-1.128-.552-1.128-1.152c0-.6.424-1.152 1.128-1.152s1.128.552 1.128 1.152zm1.871 1.92h.96v-6.048h-.96V42zm5.759-1.584v-.264c0-1.336-.728-2.088-1.8-2.088-1.16 0-2.088.808-2.088 2.016s.928 2.016 2.088 2.016c.608 0 1.176-.216 1.624-.768l-.688-.52c-.24.296-.552.52-1.032.52-.536 0-.968-.344-1.032-.912h2.928zm-2.928-.72c.072-.552.424-.912.992-.912.6 0 .968.352.976.912h-1.968z" fill="#3E4359"/><path stroke="#6F7590" d="M54.5 89v35M98 124.5H54"/><path fill-rule="evenodd" clip-rule="evenodd" d="M160 104v20h-40.708v1H161v-21h-1z" fill="#6F7590"/><path d="M110.677 123.338c0 3.432-2.782 6.214-6.214 6.214-3.431 0-6.213-2.782-6.213-6.214 0-3.431 2.782-6.213 6.213-6.213 3.432 0 6.214 2.782 6.214 6.213z" fill="#F3F3F3" stroke="#6F7590" stroke-linecap="round" stroke-linejoin="round"/><path d="M119.5 123.338c0 3.432-2.782 6.214-6.213 6.214-3.432 0-6.214-2.782-6.214-6.214 0-3.431 2.782-6.213 6.214-6.213 3.431 0 6.213 2.782 6.213 6.213z" fill="#F3F3F3" stroke="#6F7590" stroke-linecap="round" stroke-linejoin="round"/><mask id="a" fill="#fff"><path fill-rule="evenodd" clip-rule="evenodd" d="M108.875 118.278c-1.411 1.231-2.302 3.041-2.302 5.06 0 2.019.891 3.83 2.302 5.061 1.41-1.231 2.302-3.042 2.302-5.061s-.892-3.829-2.302-5.06z"/></mask><path fill-rule="evenodd" clip-rule="evenodd" d="M108.875 118.278c-1.411 1.231-2.302 3.041-2.302 5.06 0 2.019.891 3.83 2.302 5.061 1.41-1.231 2.302-3.042 2.302-5.061s-.892-3.829-2.302-5.06z" fill="#D5D5DD"/><path d="M108.875 118.278l.657-.754c-.376-.328-.938-.328-1.314 0l.657.754zm0 10.121l-.657.753c.376.329.938.329 1.314 0l-.657-.753zm-.657-10.875c-1.619 1.413-2.645 3.494-2.645 5.814h2c0-1.718.757-3.258 1.959-4.307l-1.314-1.507zm-2.645 5.814c0 2.32 1.026 4.402 2.645 5.814l1.314-1.507c-1.202-1.049-1.959-2.589-1.959-4.307h-2zm3.959 5.814c1.619-1.412 2.645-3.494 2.645-5.814h-2c0 1.718-.757 3.258-1.959 4.307l1.314 1.507zm2.645-5.814c0-2.32-1.026-4.401-2.645-5.814l-1.314 1.507c1.202 1.049 1.959 2.589 1.959 4.307h2z" fill="#6F7590" mask="url(#a)"/><path d="M108.646 144.354c.196.195.512.195.708 0l3.182-3.182c.195-.196.195-.512 0-.708-.196-.195-.512-.195-.708 0L109 143.293l-2.828-2.829c-.196-.195-.512-.195-.708 0-.195.196-.195.512 0 .708l3.182 3.182zM108.5 128v16h1v-16h-1z" fill="#6F7590"/><defs><clipPath id="clip0_4735_235023"><rect x="19" y="49" width="83" height="40" rx="2" fill="#fff"/></clipPath></defs></svg>