<svg width="220" height="206" viewBox="0 0 220 206" fill="none" xmlns="http://www.w3.org/2000/svg">
<rect width="220" height="206" rx="4" fill="#F7F7F7"/>
<g clip-path="url(#clip0_4735_235023)">
<rect width="83" height="8" transform="translate(19 49)" fill="white" fill-opacity="0.9"/>
<line x1="19" y1="56.5" x2="102" y2="56.5" stroke="#6F7590"/>
<rect width="30" height="16" transform="translate(40 57)" fill="#D6D6F5"/>
<line x1="40" y1="72.5" x2="70" y2="72.5" stroke="#6F7590"/>
<rect width="20" height="16" transform="translate(19 57)" fill="#C9F9EE"/>
<line x1="19" y1="72.5" x2="39" y2="72.5" stroke="#6F7590"/>
<path d="M28.0547 67.3359H29.2812V63.1523L28.3516 64.2109L27.9219 63.6875L29.2734 62.168H30.0625V67.3359H31.2734V68H28.0547V67.3359Z" fill="#6F7590"/>
<line x1="70.5" y1="57" x2="70.5" y2="73" stroke="#6F7590"/>
<line x1="39.5" y1="57" x2="39.5" y2="73" stroke="#6F7590"/>
<rect width="30" height="16" transform="translate(71 57)" fill="#D6D6F5"/>
<line x1="71" y1="72.5" x2="101" y2="72.5" stroke="#6F7590"/>
<rect width="30" height="16" transform="translate(40 73)" fill="#D6D6F5"/>
<line x1="40" y1="88.5" x2="70" y2="88.5" stroke="#F3F3F3"/>
<rect width="20" height="16" transform="translate(19 73)" fill="#C9F9EE"/>
<line x1="19" y1="88.5" x2="39" y2="88.5" stroke="#F3F3F3"/>
<path d="M27.5938 83.4766C27.5938 83.3802 27.6263 83.2995 27.6914 83.2344C27.8398 83.0781 28.0156 82.8932 28.2188 82.6797C28.4219 82.4635 28.6393 82.2292 28.8711 81.9766C29.0482 81.7839 29.181 81.6393 29.2695 81.543C29.3607 81.444 29.4297 81.3685 29.4766 81.3164C29.5234 81.2617 29.5716 81.2044 29.6211 81.1445C29.7591 80.9779 29.8685 80.8359 29.9492 80.7188C30.0326 80.6016 30.1003 80.4857 30.1523 80.3711C30.2435 80.168 30.2891 79.9648 30.2891 79.7617C30.2891 79.4388 30.194 79.1862 30.0039 79.0039C29.8112 78.819 29.5469 78.7266 29.2109 78.7266C28.7448 78.7266 28.2214 78.8997 27.6406 79.2461V78.4492C27.9062 78.3216 28.1706 78.2253 28.4336 78.1602C28.6914 78.0951 28.9466 78.0625 29.1992 78.0625C29.4701 78.0625 29.724 78.099 29.9609 78.1719C30.1979 78.2448 30.4049 78.3594 30.582 78.5156C30.7383 78.6536 30.8633 78.8229 30.957 79.0234C31.0508 79.2214 31.0977 79.4453 31.0977 79.6953C31.0977 79.9505 31.0404 80.207 30.9258 80.4648C30.8685 80.5951 30.7943 80.7227 30.7031 80.8477C30.6146 80.9701 30.5 81.1159 30.3594 81.2852C30.2839 81.3737 30.194 81.4766 30.0898 81.5938C29.9857 81.7109 29.8646 81.8438 29.7266 81.9922C29.6276 82.099 29.5352 82.1953 29.4492 82.2812C29.3659 82.3672 29.2773 82.457 29.1836 82.5508C29.0898 82.6419 28.9818 82.75 28.8594 82.875C28.7396 82.9974 28.5924 83.151 28.418 83.3359H31.1367V84H27.5938V83.4766Z" fill="#6F7590"/>
<line x1="70.5" y1="73" x2="70.5" y2="89" stroke="#6F7590"/>
<line x1="39.5" y1="73" x2="39.5" y2="89" stroke="#6F7590"/>
<rect width="30" height="16" transform="translate(71 73)" fill="#D6D6F5"/>
<line x1="71" y1="88.5" x2="101" y2="88.5" stroke="#F3F3F3"/>
</g>
<rect x="19.5" y="49.5" width="82" height="39" rx="1.5" stroke="#6F7590"/>
<rect width="83" height="8" transform="translate(118 49)" fill="white" fill-opacity="0.9"/>
<line x1="118" y1="56.5" x2="201" y2="56.5" stroke="#6F7590"/>
<rect width="30" height="16" transform="translate(139 57)" fill="#FFF8E5"/>
<line x1="139" y1="72.5" x2="169" y2="72.5" stroke="#6F7590"/>
<rect width="20" height="16" transform="translate(118 57)" fill="#C9F9EE"/>
<line x1="118" y1="72.5" x2="138" y2="72.5" stroke="#6F7590"/>
<path d="M127.055 67.3359H128.281V63.1523L127.352 64.2109L126.922 63.6875L128.273 62.168H129.062V67.3359H130.273V68H127.055V67.3359Z" fill="#6F7590"/>
<line x1="169.5" y1="57" x2="169.5" y2="73" stroke="#6F7590"/>
<line x1="138.5" y1="57" x2="138.5" y2="73" stroke="#6F7590"/>
<rect width="30" height="16" transform="translate(170 57)" fill="#FFF8E5"/>
<line x1="170" y1="72.5" x2="200" y2="72.5" stroke="#6F7590"/>
<rect width="30" height="16" transform="translate(139 73)" fill="#FFF8E5"/>
<line x1="139" y1="88.5" x2="169" y2="88.5" stroke="#6F7590"/>
<rect width="20" height="16" transform="translate(118 73)" fill="#C9F9EE"/>
<line x1="118" y1="88.5" x2="138" y2="88.5" stroke="#6F7590"/>
<path d="M128.211 84.1133C128.086 84.1133 127.954 84.1068 127.816 84.0938C127.681 84.0833 127.543 84.0651 127.402 84.0391C127.283 84.0182 127.151 83.9896 127.008 83.9531C126.865 83.9167 126.723 83.8737 126.582 83.8242V83.0273C126.715 83.0951 126.845 83.1562 126.973 83.2109C127.1 83.2656 127.232 83.3112 127.367 83.3477C127.497 83.3815 127.625 83.4076 127.75 83.4258C127.878 83.4414 128.007 83.4492 128.137 83.4492C128.572 83.4492 128.904 83.3516 129.133 83.1562C129.365 82.9583 129.48 82.681 129.48 82.3242C129.48 81.9753 129.366 81.7018 129.137 81.5039C128.908 81.306 128.592 81.207 128.191 81.207H127.59V80.5586H128.191C128.559 80.5586 128.842 80.4792 129.043 80.3203C129.243 80.1641 129.344 79.9388 129.344 79.6445C129.344 79.3503 129.25 79.1237 129.062 78.9648C128.88 78.806 128.607 78.7266 128.242 78.7266C128.026 78.7266 127.79 78.7526 127.535 78.8047C127.285 78.8542 127.026 78.9323 126.758 79.0391V78.3125C127.076 78.2292 127.357 78.1667 127.602 78.125C127.833 78.0833 128.053 78.0625 128.262 78.0625C128.535 78.0625 128.786 78.0977 129.016 78.168C129.247 78.2383 129.449 78.3451 129.621 78.4883C129.957 78.7669 130.125 79.1432 130.125 79.6172C130.125 79.7865 130.102 79.9375 130.055 80.0703C130.01 80.2031 129.945 80.3216 129.859 80.4258C129.682 80.6367 129.422 80.7878 129.078 80.8789C129.461 80.9805 129.754 81.1602 129.957 81.418C130.064 81.5534 130.141 81.7031 130.188 81.8672C130.237 82.0312 130.262 82.207 130.262 82.3945C130.262 82.9258 130.083 83.3451 129.727 83.6523C129.549 83.8034 129.335 83.918 129.082 83.9961C128.832 84.0742 128.542 84.1133 128.211 84.1133Z" fill="#6F7590"/>
<line x1="169.5" y1="73" x2="169.5" y2="89" stroke="#6F7590"/>
<line x1="138.5" y1="73" x2="138.5" y2="89" stroke="#6F7590"/>
<rect width="30" height="16" transform="translate(170 73)" fill="#FFF8E5"/>
<line x1="170" y1="88.5" x2="200" y2="88.5" stroke="#6F7590"/>
<rect width="30" height="16" transform="translate(139 89)" fill="#FFF8E5"/>
<line x1="139" y1="104.5" x2="169" y2="104.5" stroke="#F3F3F3"/>
<rect width="20" height="16" transform="translate(118 89)" fill="#C9F9EE"/>
<line x1="118" y1="104.5" x2="138" y2="104.5" stroke="#F3F3F3"/>
<path d="M128.871 98.6094H126.398V97.8633L128.742 94.168H129.656V97.9688H130.434V98.6094H129.656V100H128.871V98.6094ZM128.871 97.9688V94.8867L127.031 97.9688H128.871Z" fill="#6F7590"/>
<line x1="169.5" y1="89" x2="169.5" y2="105" stroke="#6F7590"/>
<line x1="138.5" y1="89" x2="138.5" y2="105" stroke="#6F7590"/>
<rect width="30" height="16" transform="translate(170 89)" fill="#FFF8E5"/>
<line x1="170" y1="104.5" x2="200" y2="104.5" stroke="#F3F3F3"/>
<rect x="118.5" y="49.5" width="82" height="55" rx="1.5" stroke="#6F7590"/>
<rect width="144" height="8" transform="translate(38 146)" fill="white" fill-opacity="0.9"/>
<line x1="38" y1="153.5" x2="182" y2="153.5" stroke="#6F7590"/>
<rect width="30" height="16" transform="translate(59 154)" fill="#D6D6F5"/>
<line x1="59" y1="169.5" x2="89" y2="169.5" stroke="#6F7590"/>
<rect width="20" height="16" transform="translate(38 154)" fill="#C9F9EE"/>
<line x1="38" y1="169.5" x2="58" y2="169.5" stroke="#6F7590"/>
<path d="M47.0547 164.336H48.2812V160.152L47.3516 161.211L46.9219 160.688L48.2734 159.168H49.0625V164.336H50.2734V165H47.0547V164.336Z" fill="#6F7590"/>
<line x1="89.5" y1="154" x2="89.5" y2="170" stroke="#6F7590"/>
<line x1="120.5" y1="154" x2="120.5" y2="170" stroke="#6F7590"/>
<line x1="151.5" y1="154" x2="151.5" y2="170" stroke="#6F7590"/>
<line x1="58.5" y1="154" x2="58.5" y2="170" stroke="#6F7590"/>
<rect width="30" height="16" transform="translate(90 154)" fill="#D6D6F5"/>
<line x1="90" y1="169.5" x2="120" y2="169.5" stroke="#6F7590"/>
<rect width="30" height="16" transform="translate(121 154)" fill="#FFF8E5"/>
<line x1="121" y1="169.5" x2="151" y2="169.5" stroke="#6F7590"/>
<rect width="30" height="16" transform="translate(152 154)" fill="#FFF8E5"/>
<line x1="152" y1="169.5" x2="182" y2="169.5" stroke="#6F7590"/>
<rect x="38.5" y="146.5" width="143" height="23" rx="1.5" stroke="#6F7590"/>
<path d="M19.632 42H23.048V41.088H20.64V36.336H19.632V42ZM27.3884 40.416V40.152C27.3884 38.816 26.6604 38.064 25.5884 38.064C24.4284 38.064 23.5004 38.872 23.5004 40.08C23.5004 41.288 24.4284 42.096 25.5884 42.096C26.1964 42.096 26.7644 41.88 27.2124 41.328L26.5244 40.808C26.2844 41.104 25.9724 41.328 25.4924 41.328C24.9564 41.328 24.5244 40.984 24.4604 40.416H27.3884ZM24.4604 39.696C24.5324 39.144 24.8844 38.784 25.4524 38.784C26.0524 38.784 26.4204 39.136 26.4284 39.696H24.4604ZM28.6302 42H29.5902V38.976H30.4782V38.16H29.5902V37.464C29.5902 37.04 29.6702 36.672 30.2062 36.672C30.3422 36.672 30.4702 36.696 30.6062 36.728L30.6702 35.912C30.4702 35.872 30.2702 35.856 30.0622 35.856C28.8702 35.856 28.6302 36.552 28.6302 37.616V38.16H27.8382V38.976H28.6302V42ZM31.4427 38.976V40.736C31.4427 41.64 31.6827 42.096 32.6987 42.096C32.9227 42.096 33.2587 42.064 33.4587 41.968V41.16C33.3387 41.248 33.1067 41.28 32.9387 41.28C32.5147 41.28 32.4027 41.04 32.4027 40.656V38.976H33.4587V38.16H32.4027V37.048H31.4427V38.16H30.6507V38.976H31.4427ZM37.8233 42H38.8313V37.248H40.5673V36.336H36.0873V37.248H37.8233V42ZM42.7721 42H43.6361V39.792C43.6361 39.248 43.6361 38.064 41.9961 38.064C41.3881 38.064 40.7881 38.248 40.3641 38.68L40.8681 39.184C41.1241 38.944 41.4921 38.784 41.8921 38.784C42.4041 38.784 42.7721 39.032 42.7721 39.504V39.608H42.5321C41.5721 39.608 40.1161 39.696 40.1161 40.944C40.1161 41.704 40.8041 42.096 41.5161 42.096C42.0281 42.096 42.4761 41.904 42.7481 41.472H42.7721V42ZM42.7161 40.496C42.7161 41.032 42.4041 41.376 41.7481 41.376C41.4361 41.376 41.0761 41.224 41.0761 40.872C41.0761 40.32 41.9881 40.28 42.5161 40.28H42.7161V40.496ZM44.669 42H45.581V41.424H45.597C45.877 41.888 46.381 42.096 46.917 42.096C48.101 42.096 48.813 41.216 48.813 40.08C48.813 38.944 48.053 38.064 46.957 38.064C46.237 38.064 45.853 38.4 45.653 38.648H45.629V35.952H44.669V42ZM47.853 40.08C47.853 40.68 47.429 41.232 46.725 41.232C46.021 41.232 45.597 40.68 45.597 40.08C45.597 39.48 46.021 38.928 46.725 38.928C47.429 38.928 47.853 39.48 47.853 40.08ZM49.7241 42H50.6841V35.952H49.7241V42ZM55.4822 40.416V40.152C55.4822 38.816 54.7542 38.064 53.6822 38.064C52.5222 38.064 51.5942 38.872 51.5942 40.08C51.5942 41.288 52.5222 42.096 53.6822 42.096C54.2902 42.096 54.8582 41.88 55.3062 41.328L54.6182 40.808C54.3782 41.104 54.0662 41.328 53.5862 41.328C53.0502 41.328 52.6182 40.984 52.5542 40.416H55.4822ZM52.5542 39.696C52.6262 39.144 52.9782 38.784 53.5462 38.784C54.1462 38.784 54.5142 39.136 54.5222 39.696H52.5542Z" fill="#3E4359"/>
<path d="M38.656 140H39.616V135.296H39.632L41.352 140H42.056L43.776 135.296H43.792V140H44.752V134.336H43.232L41.704 138.304L40.192 134.336H38.656V140ZM49.6463 138.416V138.152C49.6463 136.816 48.9183 136.064 47.8463 136.064C46.6863 136.064 45.7583 136.872 45.7583 138.08C45.7583 139.288 46.6863 140.096 47.8463 140.096C48.4543 140.096 49.0223 139.88 49.4703 139.328L48.7823 138.808C48.5423 139.104 48.2303 139.328 47.7503 139.328C47.2143 139.328 46.7823 138.984 46.7183 138.416H49.6463ZM46.7183 137.696C46.7903 137.144 47.1423 136.784 47.7103 136.784C48.3103 136.784 48.6783 137.136 48.6863 137.696H46.7183ZM50.544 140H51.504V137.944C51.504 137.736 51.632 136.976 52.536 136.976C52.688 136.976 52.84 137.008 53 137.048V136.12C52.888 136.088 52.776 136.064 52.656 136.064C52.152 136.064 51.728 136.328 51.52 136.768H51.504V136.16H50.544V140ZM56.5528 136.16V136.736H56.5368C56.2568 136.272 55.7528 136.064 55.2168 136.064C54.0328 136.064 53.3208 136.944 53.3208 138.08C53.3208 139.168 54.0808 140.048 55.2328 140.048C55.7128 140.048 56.2088 139.864 56.4888 139.488H56.5048V139.768C56.5048 140.528 56.2168 141.056 55.2888 141.056C54.7528 141.056 54.3528 140.856 53.9688 140.504L53.3928 141.288C53.9368 141.768 54.5848 141.92 55.2968 141.92C56.7928 141.92 57.4648 141.04 57.4648 139.656V136.16H56.5528ZM55.4168 136.928C56.1128 136.928 56.5528 137.392 56.5528 138.056C56.5528 138.696 56.1208 139.184 55.4088 139.184C54.7608 139.184 54.2808 138.68 54.2808 138.072C54.2808 137.392 54.7448 136.928 55.4168 136.928ZM62.2478 138.416V138.152C62.2478 136.816 61.5198 136.064 60.4478 136.064C59.2878 136.064 58.3598 136.872 58.3598 138.08C58.3598 139.288 59.2878 140.096 60.4478 140.096C61.0558 140.096 61.6238 139.88 62.0718 139.328L61.3838 138.808C61.1438 139.104 60.8318 139.328 60.3518 139.328C59.8158 139.328 59.3838 138.984 59.3198 138.416H62.2478ZM59.3198 137.696C59.3918 137.144 59.7438 136.784 60.3118 136.784C60.9118 136.784 61.2798 137.136 61.2878 137.696H59.3198ZM66.1856 140H67.0976V133.952H66.1376V136.648H66.1136C65.9136 136.4 65.5296 136.064 64.8096 136.064C63.7136 136.064 62.9536 136.944 62.9536 138.08C62.9536 139.216 63.6656 140.096 64.8496 140.096C65.3856 140.096 65.8896 139.888 66.1696 139.424H66.1856V140ZM63.9136 138.08C63.9136 137.48 64.3376 136.928 65.0416 136.928C65.7456 136.928 66.1696 137.48 66.1696 138.08C66.1696 138.68 65.7456 139.232 65.0416 139.232C64.3376 139.232 63.9136 138.68 63.9136 138.08ZM71.7998 140H72.8078V135.248H74.5438V134.336H70.0638V135.248H71.7998V140ZM76.7487 140H77.6127V137.792C77.6127 137.248 77.6127 136.064 75.9727 136.064C75.3647 136.064 74.7647 136.248 74.3407 136.68L74.8447 137.184C75.1007 136.944 75.4687 136.784 75.8687 136.784C76.3807 136.784 76.7487 137.032 76.7487 137.504V137.608H76.5087C75.5487 137.608 74.0927 137.696 74.0927 138.944C74.0927 139.704 74.7807 140.096 75.4927 140.096C76.0047 140.096 76.4527 139.904 76.7247 139.472H76.7487V140ZM76.6927 138.496C76.6927 139.032 76.3807 139.376 75.7247 139.376C75.4127 139.376 75.0527 139.224 75.0527 138.872C75.0527 138.32 75.9647 138.28 76.4927 138.28H76.6927V138.496ZM78.6456 140H79.5576V139.424H79.5736C79.8536 139.888 80.3576 140.096 80.8936 140.096C82.0776 140.096 82.7896 139.216 82.7896 138.08C82.7896 136.944 82.0296 136.064 80.9336 136.064C80.2136 136.064 79.8296 136.4 79.6296 136.648H79.6056V133.952H78.6456V140ZM81.8296 138.08C81.8296 138.68 81.4056 139.232 80.7016 139.232C79.9976 139.232 79.5736 138.68 79.5736 138.08C79.5736 137.48 79.9976 136.928 80.7016 136.928C81.4056 136.928 81.8296 137.48 81.8296 138.08ZM83.7006 140H84.6606V133.952H83.7006V140ZM89.4588 138.416V138.152C89.4588 136.816 88.7308 136.064 87.6588 136.064C86.4988 136.064 85.5708 136.872 85.5708 138.08C85.5708 139.288 86.4988 140.096 87.6588 140.096C88.2668 140.096 88.8348 139.88 89.2828 139.328L88.5948 138.808C88.3548 139.104 88.0428 139.328 87.5628 139.328C87.0268 139.328 86.5948 138.984 86.5308 138.416H89.4588ZM86.5308 137.696C86.6028 137.144 86.9548 136.784 87.5228 136.784C88.1228 136.784 88.4908 137.136 88.4988 137.696H86.5308Z" fill="#3E4359"/>
<path d="M119.632 42H120.64V39.6H121.376L122.688 42H123.904L122.4 39.496C123.24 39.376 123.712 38.776 123.712 37.96C123.712 36.688 122.688 36.336 121.6 36.336H119.632V42ZM120.64 38.736V37.2H121.512C122.032 37.2 122.656 37.28 122.656 37.952C122.656 38.688 121.992 38.736 121.424 38.736H120.64ZM124.599 42H125.559V38.16H124.599V42ZM124.463 36.856C124.463 37.16 124.719 37.432 125.071 37.432C125.423 37.432 125.695 37.184 125.695 36.856C125.695 36.528 125.423 36.28 125.071 36.28C124.719 36.28 124.463 36.552 124.463 36.856ZM129.701 38.16V38.736H129.685C129.405 38.272 128.901 38.064 128.365 38.064C127.181 38.064 126.469 38.944 126.469 40.08C126.469 41.168 127.229 42.048 128.381 42.048C128.861 42.048 129.357 41.864 129.637 41.488H129.653V41.768C129.653 42.528 129.365 43.056 128.437 43.056C127.901 43.056 127.501 42.856 127.117 42.504L126.541 43.288C127.085 43.768 127.733 43.92 128.445 43.92C129.941 43.92 130.613 43.04 130.613 41.656V38.16H129.701ZM128.565 38.928C129.261 38.928 129.701 39.392 129.701 40.056C129.701 40.696 129.269 41.184 128.557 41.184C127.909 41.184 127.429 40.68 127.429 40.072C127.429 39.392 127.893 38.928 128.565 38.928ZM132.66 35.952H131.7V42H132.66V39.904C132.66 39.392 132.908 38.928 133.54 38.928C134.212 38.928 134.244 39.632 134.244 40.056V42H135.204V39.576C135.204 38.792 134.836 38.064 133.804 38.064C133.212 38.064 132.828 38.376 132.676 38.696H132.66V35.952ZM136.638 38.976V40.736C136.638 41.64 136.878 42.096 137.894 42.096C138.118 42.096 138.454 42.064 138.654 41.968V41.16C138.534 41.248 138.302 41.28 138.134 41.28C137.71 41.28 137.598 41.04 137.598 40.656V38.976H138.654V38.16H137.598V37.048H136.638V38.16H135.846V38.976H136.638ZM143.019 42H144.027V37.248H145.763V36.336H141.283V37.248H143.019V42ZM147.967 42H148.831V39.792C148.831 39.248 148.831 38.064 147.191 38.064C146.583 38.064 145.983 38.248 145.559 38.68L146.063 39.184C146.319 38.944 146.687 38.784 147.087 38.784C147.599 38.784 147.967 39.032 147.967 39.504V39.608H147.727C146.767 39.608 145.311 39.696 145.311 40.944C145.311 41.704 145.999 42.096 146.711 42.096C147.223 42.096 147.671 41.904 147.943 41.472H147.967V42ZM147.911 40.496C147.911 41.032 147.599 41.376 146.943 41.376C146.631 41.376 146.271 41.224 146.271 40.872C146.271 40.32 147.183 40.28 147.711 40.28H147.911V40.496ZM149.864 42H150.776V41.424H150.792C151.072 41.888 151.576 42.096 152.112 42.096C153.296 42.096 154.008 41.216 154.008 40.08C154.008 38.944 153.248 38.064 152.152 38.064C151.432 38.064 151.048 38.4 150.848 38.648H150.824V35.952H149.864V42ZM153.048 40.08C153.048 40.68 152.624 41.232 151.92 41.232C151.216 41.232 150.792 40.68 150.792 40.08C150.792 39.48 151.216 38.928 151.92 38.928C152.624 38.928 153.048 39.48 153.048 40.08ZM154.919 42H155.879V35.952H154.919V42ZM160.678 40.416V40.152C160.678 38.816 159.95 38.064 158.878 38.064C157.718 38.064 156.79 38.872 156.79 40.08C156.79 41.288 157.718 42.096 158.878 42.096C159.486 42.096 160.054 41.88 160.502 41.328L159.814 40.808C159.574 41.104 159.262 41.328 158.782 41.328C158.246 41.328 157.814 40.984 157.75 40.416H160.678ZM157.75 39.696C157.822 39.144 158.174 38.784 158.742 38.784C159.342 38.784 159.71 39.136 159.718 39.696H157.75Z" fill="#3E4359"/>
<line x1="54.5" y1="89" x2="54.5" y2="124" stroke="#6F7590"/>
<path d="M98 124.5L54 124.5" stroke="#6F7590"/>
<path fill-rule="evenodd" clip-rule="evenodd" d="M160 104V124H119.292V125L161 125V124V104H160Z" fill="#6F7590"/>
<path d="M110.677 123.338C110.677 126.77 107.895 129.552 104.463 129.552C101.032 129.552 98.25 126.77 98.25 123.338C98.25 119.907 101.032 117.125 104.463 117.125C107.895 117.125 110.677 119.907 110.677 123.338Z" fill="#F3F3F3" stroke="#6F7590" stroke-linecap="round" stroke-linejoin="round"/>
<path d="M119.5 123.338C119.5 126.77 116.718 129.552 113.287 129.552C109.855 129.552 107.073 126.77 107.073 123.338C107.073 119.907 109.855 117.125 113.287 117.125C116.718 117.125 119.5 119.907 119.5 123.338Z" fill="#F3F3F3" stroke="#6F7590" stroke-linecap="round" stroke-linejoin="round"/>
<mask id="path-57-inside-1_4735_235023" fill="white">
<path fill-rule="evenodd" clip-rule="evenodd" d="M108.875 118.278C107.464 119.509 106.573 121.319 106.573 123.338C106.573 125.357 107.464 127.168 108.875 128.399C110.285 127.168 111.177 125.357 111.177 123.338C111.177 121.319 110.285 119.509 108.875 118.278Z"/>
</mask>
<path fill-rule="evenodd" clip-rule="evenodd" d="M108.875 118.278C107.464 119.509 106.573 121.319 106.573 123.338C106.573 125.357 107.464 127.168 108.875 128.399C110.285 127.168 111.177 125.357 111.177 123.338C111.177 121.319 110.285 119.509 108.875 118.278Z" fill="#D5D5DD"/>
<path d="M108.875 118.278L109.532 117.524C109.156 117.196 108.594 117.196 108.218 117.524L108.875 118.278ZM108.875 128.399L108.218 129.152C108.594 129.481 109.156 129.481 109.532 129.152L108.875 128.399ZM108.218 117.524C106.599 118.937 105.573 121.018 105.573 123.338H107.573C107.573 121.62 108.33 120.08 109.532 119.031L108.218 117.524ZM105.573 123.338C105.573 125.658 106.599 127.74 108.218 129.152L109.532 127.645C108.33 126.596 107.573 125.056 107.573 123.338H105.573ZM109.532 129.152C111.151 127.74 112.177 125.658 112.177 123.338H110.177C110.177 125.056 109.42 126.596 108.218 127.645L109.532 129.152ZM112.177 123.338C112.177 121.018 111.151 118.937 109.532 117.524L108.218 119.031C109.42 120.08 110.177 121.62 110.177 123.338H112.177Z" fill="#6F7590" mask="url(#path-57-inside-1_4735_235023)"/>
<path d="M108.646 144.354C108.842 144.549 109.158 144.549 109.354 144.354L112.536 141.172C112.731 140.976 112.731 140.66 112.536 140.464C112.34 140.269 112.024 140.269 111.828 140.464L109 143.293L106.172 140.464C105.976 140.269 105.66 140.269 105.464 140.464C105.269 140.66 105.269 140.976 105.464 141.172L108.646 144.354ZM108.5 128V144H109.5V128H108.5Z" fill="#6F7590"/>
<defs>
<clipPath id="clip0_4735_235023">
<rect x="19" y="49" width="83" height="40" rx="2" fill="white"/>
</clipPath>
</defs>
</svg>
