<svg  viewBox="0 0 268 250" fill="none" xmlns="http://www.w3.org/2000/svg">
<g filter="url(#filter0_d_4611_237236)">
<rect x="32" y="23" width="204" height="186" rx="4" fill="black" fill-opacity="0.8" shape-rendering="crispEdges"/>
</g>
<rect x="40" y="31" width="189" height="110" rx="4" fill="#FAFAFA"/>
<g filter="url(#filter1_d_4611_237236)">
<rect x="50.5" y="39" width="168.875" height="32" rx="4" fill="white"/>
<g clip-path="url(#clip0_4611_237236)">
<path d="M66.952 49.088L62.584 59H63.914L64.936 56.564H69.892L70.9 59H72.272L68.058 49.088H66.952ZM67.484 50.6L69.444 55.472H65.398L67.456 50.6H67.484ZM73.4914 48.416V59H74.5834V48.416H73.4914ZM76.8547 48.416V59H77.9467V48.416H76.8547Z" fill="#3E4359"/>
<line x1="82" y1="47.5" x2="82" y2="62.5" stroke="black" stroke-linecap="round"/>
</g>
<rect x="187.375" y="45" width="20" height="20" rx="4" fill="#FEF5F8"/>
<path d="M198.042 48L191.375 56.4H197.375L196.708 62L203.375 53.6H197.375L198.042 48Z" fill="#FEF5F8" stroke="#F34D77" stroke-linecap="round" stroke-linejoin="round"/>
<rect x="50" y="38.5" width="169.875" height="33" rx="4.5" stroke="#E6E6EB"/>
</g>
<g filter="url(#filter2_d_4611_237236)">
<rect x="84" y="73" width="135" height="58" rx="4" fill="white"/>
<path d="M92.76 89H94.02V81.92H92.76V89ZM95.4632 89H96.6632V86.38C96.6632 85.74 96.9732 85.16 97.7632 85.16C98.6032 85.16 98.6432 86.04 98.6432 86.57V89H99.8432V85.97C99.8432 84.99 99.3832 84.08 98.0932 84.08C97.2932 84.08 96.8432 84.49 96.6232 84.97H96.6032V84.2H95.4632V89ZM101.635 85.22V87.42C101.635 88.55 101.935 89.12 103.205 89.12C103.485 89.12 103.905 89.08 104.155 88.96V87.95C104.005 88.06 103.715 88.1 103.505 88.1C102.975 88.1 102.835 87.8 102.835 87.32V85.22H104.155V84.2H102.835V82.81H101.635V84.2H100.645V85.22H101.635ZM109.712 87.02V86.69C109.712 85.02 108.802 84.08 107.462 84.08C106.012 84.08 104.852 85.09 104.852 86.6C104.852 88.11 106.012 89.12 107.462 89.12C108.222 89.12 108.932 88.85 109.492 88.16L108.632 87.51C108.332 87.88 107.942 88.16 107.342 88.16C106.672 88.16 106.132 87.73 106.052 87.02H109.712ZM106.052 86.12C106.142 85.43 106.582 84.98 107.292 84.98C108.042 84.98 108.502 85.42 108.512 86.12H106.052ZM110.834 89H112.034V86.43C112.034 86.17 112.194 85.22 113.324 85.22C113.514 85.22 113.704 85.26 113.904 85.31V84.15C113.764 84.11 113.624 84.08 113.474 84.08C112.844 84.08 112.314 84.41 112.054 84.96H112.034V84.2H110.834V89ZM117.721 89H118.801V86.24C118.801 85.56 118.801 84.08 116.751 84.08C115.991 84.08 115.241 84.31 114.711 84.85L115.341 85.48C115.661 85.18 116.121 84.98 116.621 84.98C117.261 84.98 117.721 85.29 117.721 85.88V86.01H117.421C116.221 86.01 114.401 86.12 114.401 87.68C114.401 88.63 115.261 89.12 116.151 89.12C116.791 89.12 117.351 88.88 117.691 88.34H117.721V89ZM117.651 87.12C117.651 87.79 117.261 88.22 116.441 88.22C116.051 88.22 115.601 88.03 115.601 87.59C115.601 86.9 116.741 86.85 117.401 86.85H117.651V87.12ZM124.202 84.81C123.742 84.3 123.072 84.08 122.462 84.08C121.012 84.08 119.852 85.09 119.852 86.6C119.852 88.11 121.012 89.12 122.462 89.12C122.882 89.12 123.702 88.94 124.192 88.45L123.392 87.59C123.172 87.88 122.832 88.04 122.462 88.04C121.582 88.04 121.052 87.35 121.052 86.6C121.052 85.85 121.582 85.16 122.462 85.16C122.782 85.16 123.092 85.35 123.372 85.64L124.202 84.81ZM125.346 85.22V87.42C125.346 88.55 125.646 89.12 126.916 89.12C127.196 89.12 127.616 89.08 127.866 88.96V87.95C127.716 88.06 127.426 88.1 127.216 88.1C126.686 88.1 126.546 87.8 126.546 87.32V85.22H127.866V84.2H126.546V82.81H125.346V84.2H124.356V85.22H125.346ZM128.833 89H130.033V84.2H128.833V89ZM128.663 82.57C128.663 82.95 128.983 83.29 129.423 83.29C129.863 83.29 130.203 82.98 130.203 82.57C130.203 82.16 129.863 81.85 129.423 81.85C128.983 81.85 128.663 82.19 128.663 82.57ZM132.72 89H134L135.89 84.2H134.66L133.37 87.56H133.35L132.07 84.2H130.76L132.72 89ZM141.216 87.02V86.69C141.216 85.02 140.306 84.08 138.966 84.08C137.516 84.08 136.356 85.09 136.356 86.6C136.356 88.11 137.516 89.12 138.966 89.12C139.726 89.12 140.436 88.85 140.996 88.16L140.136 87.51C139.836 87.88 139.446 88.16 138.846 88.16C138.176 88.16 137.636 87.73 137.556 87.02H141.216ZM137.556 86.12C137.646 85.43 138.086 84.98 138.796 84.98C139.546 84.98 140.006 85.42 140.016 86.12H137.556ZM145.297 91.28H146.497V88.39H146.527C146.777 88.7 147.257 89.12 148.157 89.12C149.527 89.12 150.477 88.02 150.477 86.6C150.477 85.18 149.587 84.08 148.107 84.08C147.437 84.08 146.807 84.34 146.457 84.92H146.437V84.2H145.297V91.28ZM149.277 86.6C149.277 87.35 148.747 88.04 147.867 88.04C146.987 88.04 146.457 87.35 146.457 86.6C146.457 85.85 146.987 85.16 147.867 85.16C148.747 85.16 149.277 85.85 149.277 86.6ZM154.596 89H155.676V86.24C155.676 85.56 155.676 84.08 153.626 84.08C152.866 84.08 152.116 84.31 151.586 84.85L152.216 85.48C152.536 85.18 152.996 84.98 153.496 84.98C154.136 84.98 154.596 85.29 154.596 85.88V86.01H154.296C153.096 86.01 151.276 86.12 151.276 87.68C151.276 88.63 152.136 89.12 153.026 89.12C153.666 89.12 154.226 88.88 154.566 88.34H154.596V89ZM154.526 87.12C154.526 87.79 154.136 88.22 153.316 88.22C152.926 88.22 152.476 88.03 152.476 87.59C152.476 86.9 153.616 86.85 154.276 86.85H154.526V87.12ZM156.967 89H158.167V86.43C158.167 86.17 158.327 85.22 159.457 85.22C159.647 85.22 159.837 85.26 160.037 85.31V84.15C159.897 84.11 159.757 84.08 159.607 84.08C158.977 84.08 158.447 84.41 158.187 84.96H158.167V84.2H156.967V89ZM163.854 89H164.934V86.24C164.934 85.56 164.934 84.08 162.884 84.08C162.124 84.08 161.374 84.31 160.844 84.85L161.474 85.48C161.794 85.18 162.254 84.98 162.754 84.98C163.394 84.98 163.854 85.29 163.854 85.88V86.01H163.554C162.354 86.01 160.534 86.12 160.534 87.68C160.534 88.63 161.394 89.12 162.284 89.12C162.924 89.12 163.484 88.88 163.824 88.34H163.854V89ZM163.784 87.12C163.784 87.79 163.394 88.22 162.574 88.22C162.184 88.22 161.734 88.03 161.734 87.59C161.734 86.9 162.874 86.85 163.534 86.85H163.784V87.12ZM166.175 89H167.375V86.38C167.375 85.74 167.685 85.16 168.475 85.16C169.055 85.16 169.295 85.55 169.295 86.14V89H170.495V86.4C170.495 85.78 170.775 85.16 171.525 85.16C172.235 85.16 172.415 85.68 172.415 86.28V89H173.615V86.14C173.615 84.99 173.165 84.08 171.885 84.08C171.165 84.08 170.655 84.36 170.305 84.97C170.055 84.37 169.545 84.08 168.805 84.08C168.005 84.08 167.545 84.5 167.335 84.95H167.315V84.2H166.175V89ZM179.546 87.02V86.69C179.546 85.02 178.636 84.08 177.296 84.08C175.846 84.08 174.686 85.09 174.686 86.6C174.686 88.11 175.846 89.12 177.296 89.12C178.056 89.12 178.766 88.85 179.326 88.16L178.466 87.51C178.166 87.88 177.776 88.16 177.176 88.16C176.506 88.16 175.966 87.73 175.886 87.02H179.546ZM175.886 86.12C175.976 85.43 176.416 84.98 177.126 84.98C177.876 84.98 178.336 85.42 178.346 86.12H175.886ZM181.098 85.22V87.42C181.098 88.55 181.398 89.12 182.668 89.12C182.948 89.12 183.368 89.08 183.618 88.96V87.95C183.468 88.06 183.178 88.1 182.968 88.1C182.438 88.1 182.298 87.8 182.298 87.32V85.22H183.618V84.2H182.298V82.81H181.098V84.2H180.108V85.22H181.098ZM189.175 87.02V86.69C189.175 85.02 188.265 84.08 186.925 84.08C185.475 84.08 184.315 85.09 184.315 86.6C184.315 88.11 185.475 89.12 186.925 89.12C187.685 89.12 188.395 88.85 188.955 88.16L188.095 87.51C187.795 87.88 187.405 88.16 186.805 88.16C186.135 88.16 185.595 87.73 185.515 87.02H189.175ZM185.515 86.12C185.605 85.43 186.045 84.98 186.755 84.98C187.505 84.98 187.965 85.42 187.975 86.12H185.515ZM190.297 89H191.497V86.43C191.497 86.17 191.657 85.22 192.787 85.22C192.977 85.22 193.167 85.26 193.367 85.31V84.15C193.227 84.11 193.087 84.08 192.937 84.08C192.307 84.08 191.777 84.41 191.517 84.96H191.497V84.2H190.297V89Z" fill="#3E4359"/>
<path d="M97.63 97.92H92.11V98.7H94.45V105H95.29V98.7H97.63V97.92ZM98.4822 105H99.2622V102.72C99.2622 101.65 99.7022 100.92 100.712 100.92C101.442 100.92 101.782 101.41 101.782 102.19V105H102.562V102.11C102.562 100.98 102.012 100.2 100.782 100.2C100.052 100.2 99.4922 100.6 99.2822 100.97H99.2622V97.44H98.4822V105ZM104.109 105H104.889V100.32H104.109V105ZM103.929 98.49C103.929 98.82 104.169 99.06 104.499 99.06C104.829 99.06 105.069 98.82 105.069 98.49C105.069 98.18 104.819 97.92 104.499 97.92C104.179 97.92 103.929 98.18 103.929 98.49ZM105.921 104.25C106.381 104.91 106.951 105.12 107.741 105.12C108.671 105.12 109.611 104.71 109.611 103.65C109.611 102.71 108.911 102.41 108.081 102.25C107.461 102.13 106.901 101.96 106.901 101.57C106.901 101.13 107.391 100.92 107.821 100.92C108.281 100.92 108.611 101.15 108.811 101.48L109.461 101.05C109.141 100.45 108.531 100.2 107.871 100.2C107.001 100.2 106.121 100.67 106.121 101.58C106.121 102.55 106.881 102.74 107.771 102.94C108.271 103.05 108.771 103.18 108.771 103.68C108.771 104.19 108.231 104.4 107.741 104.4C107.191 104.4 106.851 104.15 106.541 103.77L105.921 104.25ZM113.552 105H114.332V100.32H113.552V105ZM113.372 98.49C113.372 98.82 113.612 99.06 113.942 99.06C114.272 99.06 114.512 98.82 114.512 98.49C114.512 98.18 114.262 97.92 113.942 97.92C113.622 97.92 113.372 98.18 113.372 98.49ZM115.885 105H116.665V102.72C116.665 101.65 117.105 100.92 118.115 100.92C118.845 100.92 119.185 101.41 119.185 102.19V105H119.965V102.11C119.965 100.98 119.415 100.2 118.185 100.2C117.415 100.2 116.835 100.63 116.625 101.09H116.605C116.605 100.83 116.585 100.57 116.585 100.32H115.845C115.845 100.63 115.885 101 115.885 101.43V105ZM121.401 107.28H122.181V104.17H122.201C122.491 104.7 123.161 105.12 124.001 105.12C125.311 105.12 126.341 104.06 126.341 102.66C126.341 101.24 125.351 100.2 123.881 100.2C123.201 100.2 122.631 100.5 122.201 101H122.181V100.32H121.401V107.28ZM122.181 102.66C122.181 101.68 122.831 100.92 123.841 100.92C124.851 100.92 125.501 101.68 125.501 102.66C125.501 103.64 124.851 104.4 123.841 104.4C122.831 104.4 122.181 103.64 122.181 102.66ZM131.634 100.32H130.854V102.6C130.854 103.67 130.414 104.4 129.404 104.4C128.674 104.4 128.334 103.91 128.334 103.13V100.32H127.554V103.21C127.554 104.34 128.104 105.12 129.334 105.12C130.104 105.12 130.684 104.69 130.894 104.23H130.914C130.914 104.49 130.934 104.75 130.934 105H131.674C131.674 104.69 131.634 104.32 131.634 103.89V100.32ZM135.671 100.32H134.291V98.99H133.511V100.32H132.491V100.98H133.511V103.55C133.511 104.52 133.691 105.12 134.801 105.12C135.091 105.12 135.441 105.07 135.711 104.95L135.681 104.24C135.471 104.35 135.221 104.4 134.991 104.4C134.301 104.4 134.291 103.92 134.291 103.32V100.98H135.671V100.32ZM139.48 105H140.26V100.32H139.48V105ZM139.3 98.49C139.3 98.82 139.54 99.06 139.87 99.06C140.2 99.06 140.44 98.82 140.44 98.49C140.44 98.18 140.19 97.92 139.87 97.92C139.55 97.92 139.3 98.18 139.3 98.49ZM141.292 104.25C141.752 104.91 142.322 105.12 143.112 105.12C144.042 105.12 144.982 104.71 144.982 103.65C144.982 102.71 144.282 102.41 143.452 102.25C142.832 102.13 142.272 101.96 142.272 101.57C142.272 101.13 142.762 100.92 143.192 100.92C143.652 100.92 143.982 101.15 144.182 101.48L144.832 101.05C144.512 100.45 143.902 100.2 143.242 100.2C142.372 100.2 141.492 100.67 141.492 101.58C141.492 102.55 142.252 102.74 143.142 102.94C143.642 103.05 144.142 103.18 144.142 103.68C144.142 104.19 143.602 104.4 143.112 104.4C142.562 104.4 142.222 104.15 141.912 103.77L141.292 104.25ZM152.803 100.94C152.333 100.43 151.693 100.2 151.003 100.2C149.563 100.2 148.583 101.24 148.583 102.66C148.583 104.1 149.553 105.12 151.003 105.12C151.683 105.12 152.323 104.89 152.773 104.37L152.193 103.82C151.903 104.22 151.513 104.4 151.003 104.4C150.053 104.4 149.423 103.62 149.423 102.66C149.423 101.7 149.953 100.92 151.003 100.92C151.473 100.92 151.853 101.09 152.183 101.49L152.803 100.94ZM153.408 102.66C153.408 104.12 154.468 105.12 155.908 105.12C157.348 105.12 158.408 104.12 158.408 102.66C158.408 101.2 157.348 100.2 155.908 100.2C154.468 100.2 153.408 101.2 153.408 102.66ZM154.248 102.66C154.248 101.68 154.898 100.92 155.908 100.92C156.918 100.92 157.568 101.68 157.568 102.66C157.568 103.64 156.918 104.4 155.908 104.4C154.898 104.4 154.248 103.64 154.248 102.66ZM159.615 105H160.395V102.72C160.395 101.65 160.835 100.92 161.845 100.92C162.575 100.92 162.915 101.41 162.915 102.19V105H163.695V102.11C163.695 100.98 163.145 100.2 161.915 100.2C161.145 100.2 160.565 100.63 160.355 101.09H160.335C160.335 100.83 160.315 100.57 160.315 100.32H159.575C159.575 100.63 159.615 101 159.615 101.43V105ZM167.492 100.32H166.352V99.44C166.352 98.63 166.382 98.04 167.192 98.04C167.372 98.04 167.552 98.08 167.722 98.14L167.832 97.44C167.682 97.36 167.432 97.32 167.232 97.32C165.972 97.32 165.572 98.13 165.572 99.27V100.32H164.552V100.98H165.572V105H166.352V100.98H167.492V100.32ZM168.212 105H168.992V100.32H168.212V105ZM168.032 98.49C168.032 98.82 168.272 99.06 168.602 99.06C168.932 99.06 169.172 98.82 169.172 98.49C169.172 98.18 168.922 97.92 168.602 97.92C168.282 97.92 168.032 98.18 168.032 98.49ZM175.213 100.32H174.433V101.12H174.413C174.103 100.5 173.393 100.2 172.763 100.2C171.273 100.2 170.273 101.13 170.273 102.66C170.273 104.04 171.293 105.06 172.763 105.06C173.383 105.06 174.043 104.79 174.413 104.19H174.433V104.79C174.433 105.78 174.063 106.68 172.663 106.68C171.943 106.68 171.413 106.4 170.923 105.87L170.363 106.51C171.023 107.16 171.753 107.4 172.663 107.4C174.303 107.4 175.213 106.48 175.213 104.79V100.32ZM171.113 102.66C171.113 101.68 171.783 100.92 172.763 100.92C173.753 100.92 174.433 101.63 174.433 102.64C174.433 103.54 173.833 104.34 172.763 104.34C171.853 104.34 171.113 103.61 171.113 102.66ZM180.736 100.32H179.956V102.6C179.956 103.67 179.516 104.4 178.506 104.4C177.776 104.4 177.436 103.91 177.436 103.13V100.32H176.656V103.21C176.656 104.34 177.206 105.12 178.436 105.12C179.206 105.12 179.786 104.69 179.996 104.23H180.016C180.016 104.49 180.036 104.75 180.036 105H180.776C180.776 104.69 180.736 104.32 180.736 103.89V100.32ZM182.213 105H182.993V102.72C182.993 101.65 183.413 100.98 184.363 100.98C184.503 100.98 184.653 101 184.783 101.04L184.833 100.25C184.723 100.21 184.613 100.2 184.513 100.2C183.743 100.2 183.163 100.63 182.953 101.09H182.933C182.933 100.83 182.913 100.57 182.913 100.32H182.173C182.173 100.63 182.213 101 182.213 101.43V105ZM189.143 103.69C188.773 104.16 188.323 104.4 187.653 104.4C186.803 104.4 186.183 103.71 186.123 102.9H189.903V102.65C189.903 101.1 189.003 100.2 187.683 100.2C186.303 100.2 185.283 101.21 185.283 102.66C185.283 104.02 186.183 105.12 187.653 105.12C188.523 105.12 189.183 104.86 189.733 104.15L189.143 103.69ZM186.123 102.24C186.223 101.45 186.793 100.92 187.653 100.92C188.513 100.92 189.033 101.45 189.063 102.24H186.123ZM194.999 105H195.779V97.44H194.999V101H194.979C194.549 100.5 193.979 100.2 193.299 100.2C191.829 100.2 190.839 101.24 190.839 102.66C190.839 104.06 191.869 105.12 193.179 105.12C194.019 105.12 194.689 104.7 194.979 104.17H194.999V105ZM194.999 102.66C194.999 103.64 194.349 104.4 193.339 104.4C192.329 104.4 191.679 103.64 191.679 102.66C191.679 101.68 192.329 100.92 193.339 100.92C194.349 100.92 194.999 101.68 194.999 102.66ZM200.436 101.43C200.806 101.09 201.326 100.92 201.826 100.92C202.556 100.92 202.986 101.27 202.986 101.95V102.09H202.686C201.536 102.09 199.736 102.18 199.736 103.73C199.736 104.64 200.526 105.12 201.476 105.12C202.186 105.12 202.706 104.78 203.016 104.3H203.036C203.036 104.5 203.036 104.79 203.086 105H203.836C203.796 104.76 203.766 104.46 203.766 104.19V102.18C203.766 100.86 203.186 100.2 201.806 100.2C201.126 100.2 200.426 100.43 199.946 100.92L200.436 101.43ZM202.986 102.75V103.05C202.966 103.81 202.506 104.46 201.606 104.46C201.016 104.46 200.576 104.24 200.576 103.65C200.576 103.02 201.216 102.75 202.206 102.75H202.986ZM204.671 104.25C205.131 104.91 205.701 105.12 206.491 105.12C207.421 105.12 208.361 104.71 208.361 103.65C208.361 102.71 207.661 102.41 206.831 102.25C206.211 102.13 205.651 101.96 205.651 101.57C205.651 101.13 206.141 100.92 206.571 100.92C207.031 100.92 207.361 101.15 207.561 101.48L208.211 101.05C207.891 100.45 207.281 100.2 206.621 100.2C205.751 100.2 204.871 100.67 204.871 101.58C204.871 102.55 205.631 102.74 206.521 102.94C207.021 103.05 207.521 103.18 207.521 103.68C207.521 104.19 206.981 104.4 206.491 104.4C205.941 104.4 205.601 104.15 205.291 103.77L204.671 104.25ZM93.17 115.43C93.54 115.09 94.06 114.92 94.56 114.92C95.29 114.92 95.72 115.27 95.72 115.95V116.09H95.42C94.27 116.09 92.47 116.18 92.47 117.73C92.47 118.64 93.26 119.12 94.21 119.12C94.92 119.12 95.44 118.78 95.75 118.3H95.77C95.77 118.5 95.77 118.79 95.82 119H96.57C96.53 118.76 96.5 118.46 96.5 118.19V116.18C96.5 114.86 95.92 114.2 94.54 114.2C93.86 114.2 93.16 114.43 92.68 114.92L93.17 115.43ZM95.72 116.75V117.05C95.7 117.81 95.24 118.46 94.34 118.46C93.75 118.46 93.31 118.24 93.31 117.65C93.31 117.02 93.95 116.75 94.94 116.75H95.72ZM97.9255 119H98.7055V116.72C98.7055 115.65 99.1455 114.92 100.156 114.92C100.886 114.92 101.226 115.41 101.226 116.19V119H102.006V116.11C102.006 114.98 101.456 114.2 100.226 114.2C99.4555 114.2 98.8755 114.63 98.6655 115.09H98.6455C98.6455 114.83 98.6255 114.57 98.6255 114.32H97.8855C97.8855 114.63 97.9255 115 97.9255 115.43V119ZM106.335 119H107.115V114.32H106.335V119ZM106.155 112.49C106.155 112.82 106.395 113.06 106.725 113.06C107.055 113.06 107.295 112.82 107.295 112.49C107.295 112.18 107.045 111.92 106.725 111.92C106.405 111.92 106.155 112.18 106.155 112.49ZM108.668 119H109.448V116.72C109.448 115.65 109.888 114.92 110.898 114.92C111.628 114.92 111.968 115.41 111.968 116.19V119H112.748V116.11C112.748 114.98 112.198 114.2 110.968 114.2C110.198 114.2 109.618 114.63 109.408 115.09H109.388C109.388 114.83 109.368 114.57 109.368 114.32H108.628C108.628 114.63 108.668 115 108.668 115.43V119ZM116.784 114.32H115.404V112.99H114.624V114.32H113.604V114.98H114.624V117.55C114.624 118.52 114.804 119.12 115.914 119.12C116.204 119.12 116.554 119.07 116.824 118.95L116.794 118.24C116.584 118.35 116.334 118.4 116.104 118.4C115.414 118.4 115.404 117.92 115.404 117.32V114.98H116.784V114.32ZM121.33 117.69C120.96 118.16 120.51 118.4 119.84 118.4C118.99 118.4 118.37 117.71 118.31 116.9H122.09V116.65C122.09 115.1 121.19 114.2 119.87 114.2C118.49 114.2 117.47 115.21 117.47 116.66C117.47 118.02 118.37 119.12 119.84 119.12C120.71 119.12 121.37 118.86 121.92 118.15L121.33 117.69ZM118.31 116.24C118.41 115.45 118.98 114.92 119.84 114.92C120.7 114.92 121.22 115.45 121.25 116.24H118.31ZM123.297 119H124.077V116.72C124.077 115.65 124.497 114.98 125.447 114.98C125.587 114.98 125.737 115 125.867 115.04L125.917 114.25C125.807 114.21 125.697 114.2 125.597 114.2C124.827 114.2 124.247 114.63 124.037 115.09H124.017C124.017 114.83 123.997 114.57 123.997 114.32H123.257C123.257 114.63 123.297 115 123.297 115.43V119ZM127.242 115.43C127.612 115.09 128.132 114.92 128.632 114.92C129.362 114.92 129.792 115.27 129.792 115.95V116.09H129.492C128.342 116.09 126.542 116.18 126.542 117.73C126.542 118.64 127.332 119.12 128.282 119.12C128.992 119.12 129.512 118.78 129.822 118.3H129.842C129.842 118.5 129.842 118.79 129.892 119H130.642C130.602 118.76 130.572 118.46 130.572 118.19V116.18C130.572 114.86 129.992 114.2 128.612 114.2C127.932 114.2 127.232 114.43 126.752 114.92L127.242 115.43ZM129.792 116.75V117.05C129.772 117.81 129.312 118.46 128.412 118.46C127.822 118.46 127.382 118.24 127.382 117.65C127.382 117.02 128.022 116.75 129.012 116.75H129.792ZM135.948 114.94C135.478 114.43 134.838 114.2 134.148 114.2C132.708 114.2 131.728 115.24 131.728 116.66C131.728 118.1 132.698 119.12 134.148 119.12C134.828 119.12 135.468 118.89 135.918 118.37L135.338 117.82C135.048 118.22 134.658 118.4 134.148 118.4C133.198 118.4 132.568 117.62 132.568 116.66C132.568 115.7 133.098 114.92 134.148 114.92C134.618 114.92 134.998 115.09 135.328 115.49L135.948 114.94ZM139.382 114.32H138.002V112.99H137.222V114.32H136.202V114.98H137.222V117.55C137.222 118.52 137.402 119.12 138.512 119.12C138.802 119.12 139.152 119.07 139.422 118.95L139.392 118.24C139.182 118.35 138.932 118.4 138.702 118.4C138.012 118.4 138.002 117.92 138.002 117.32V114.98H139.382V114.32ZM140.408 119H141.188V114.32H140.408V119ZM140.228 112.49C140.228 112.82 140.468 113.06 140.798 113.06C141.128 113.06 141.368 112.82 141.368 112.49C141.368 112.18 141.118 111.92 140.798 111.92C140.478 111.92 140.228 112.18 140.228 112.49ZM146.72 114.32H145.88L144.49 117.99H144.47L143.01 114.32H142.1L144.01 119H144.87L146.72 114.32ZM151.154 117.69C150.784 118.16 150.334 118.4 149.664 118.4C148.814 118.4 148.194 117.71 148.134 116.9H151.914V116.65C151.914 115.1 151.014 114.2 149.694 114.2C148.314 114.2 147.294 115.21 147.294 116.66C147.294 118.02 148.194 119.12 149.664 119.12C150.534 119.12 151.194 118.86 151.744 118.15L151.154 117.69ZM148.134 116.24C148.234 115.45 148.804 114.92 149.664 114.92C150.524 114.92 151.044 115.45 151.074 116.24H148.134ZM155.864 121.28H156.644V118.17H156.664C156.954 118.7 157.624 119.12 158.464 119.12C159.774 119.12 160.804 118.06 160.804 116.66C160.804 115.24 159.814 114.2 158.344 114.2C157.664 114.2 157.094 114.5 156.664 115H156.644V114.32H155.864V121.28ZM156.644 116.66C156.644 115.68 157.294 114.92 158.304 114.92C159.314 114.92 159.964 115.68 159.964 116.66C159.964 117.64 159.314 118.4 158.304 118.4C157.294 118.4 156.644 117.64 156.644 116.66ZM162.447 115.43C162.817 115.09 163.337 114.92 163.837 114.92C164.567 114.92 164.997 115.27 164.997 115.95V116.09H164.697C163.547 116.09 161.747 116.18 161.747 117.73C161.747 118.64 162.537 119.12 163.487 119.12C164.197 119.12 164.717 118.78 165.027 118.3H165.047C165.047 118.5 165.047 118.79 165.097 119H165.847C165.807 118.76 165.777 118.46 165.777 118.19V116.18C165.777 114.86 165.197 114.2 163.817 114.2C163.137 114.2 162.437 114.43 161.957 114.92L162.447 115.43ZM164.997 116.75V117.05C164.977 117.81 164.517 118.46 163.617 118.46C163.027 118.46 162.587 118.24 162.587 117.65C162.587 117.02 163.227 116.75 164.217 116.75H164.997ZM167.203 119H167.983V116.72C167.983 115.65 168.403 114.98 169.353 114.98C169.493 114.98 169.643 115 169.773 115.04L169.823 114.25C169.713 114.21 169.603 114.2 169.503 114.2C168.733 114.2 168.153 114.63 167.943 115.09H167.923C167.923 114.83 167.903 114.57 167.903 114.32H167.163C167.163 114.63 167.203 115 167.203 115.43V119ZM171.149 115.43C171.519 115.09 172.039 114.92 172.539 114.92C173.269 114.92 173.699 115.27 173.699 115.95V116.09H173.399C172.249 116.09 170.449 116.18 170.449 117.73C170.449 118.64 171.239 119.12 172.189 119.12C172.899 119.12 173.419 118.78 173.729 118.3H173.749C173.749 118.5 173.749 118.79 173.799 119H174.549C174.509 118.76 174.479 118.46 174.479 118.19V116.18C174.479 114.86 173.899 114.2 172.519 114.2C171.839 114.2 171.139 114.43 170.659 114.92L171.149 115.43ZM173.699 116.75V117.05C173.679 117.81 173.219 118.46 172.319 118.46C171.729 118.46 171.289 118.24 171.289 117.65C171.289 117.02 171.929 116.75 172.919 116.75H173.699ZM175.904 119H176.684V116.72C176.684 115.65 177.124 114.92 178.134 114.92C178.774 114.92 179.034 115.32 179.034 116.35V119H179.814V116.3C179.814 115.46 180.364 114.92 181.024 114.92C181.934 114.92 182.164 115.55 182.164 116.2V119H182.944V116.16C182.944 114.95 182.504 114.2 181.164 114.2C180.454 114.2 180.024 114.54 179.684 115.09C179.534 114.77 179.214 114.2 178.204 114.2C177.434 114.2 176.854 114.63 176.644 115.09H176.624C176.624 114.83 176.604 114.57 176.604 114.32H175.864C175.864 114.63 175.904 115 175.904 115.43V119ZM188.01 117.69C187.64 118.16 187.19 118.4 186.52 118.4C185.67 118.4 185.05 117.71 184.99 116.9H188.77V116.65C188.77 115.1 187.87 114.2 186.55 114.2C185.17 114.2 184.15 115.21 184.15 116.66C184.15 118.02 185.05 119.12 186.52 119.12C187.39 119.12 188.05 118.86 188.6 118.15L188.01 117.69ZM184.99 116.24C185.09 115.45 185.66 114.92 186.52 114.92C187.38 114.92 187.9 115.45 187.93 116.24H184.99ZM192.536 114.32H191.156V112.99H190.376V114.32H189.356V114.98H190.376V117.55C190.376 118.52 190.556 119.12 191.666 119.12C191.956 119.12 192.306 119.07 192.576 118.95L192.546 118.24C192.336 118.35 192.086 118.4 191.856 118.4C191.166 118.4 191.156 117.92 191.156 117.32V114.98H192.536V114.32ZM197.082 117.69C196.712 118.16 196.262 118.4 195.592 118.4C194.742 118.4 194.122 117.71 194.062 116.9H197.842V116.65C197.842 115.1 196.942 114.2 195.622 114.2C194.242 114.2 193.222 115.21 193.222 116.66C193.222 118.02 194.122 119.12 195.592 119.12C196.462 119.12 197.122 118.86 197.672 118.15L197.082 117.69ZM194.062 116.24C194.162 115.45 194.732 114.92 195.592 114.92C196.452 114.92 196.972 115.45 197.002 116.24H194.062ZM199.049 119H199.829V116.72C199.829 115.65 200.249 114.98 201.199 114.98C201.339 114.98 201.489 115 201.619 115.04L201.669 114.25C201.559 114.21 201.449 114.2 201.349 114.2C200.579 114.2 199.999 114.63 199.789 115.09H199.769C199.769 114.83 199.749 114.57 199.749 114.32H199.009C199.009 114.63 199.049 115 199.049 115.43V119Z" fill="#6F7590"/>
</g>
<path d="M201.866 77.0041C201.566 76.6041 201.266 75.9041 200.666 75.0041C200.366 74.5041 199.466 73.5041 199.166 73.1041C198.966 72.7041 198.966 72.5041 199.066 72.1041C199.166 71.5041 199.766 71.0041 200.466 71.0041C200.966 71.0041 201.466 71.4041 201.866 71.7041C202.066 71.9041 202.366 72.3041 202.566 72.5041C202.766 72.7041 202.766 72.8041 202.966 73.0041C203.166 73.3041 203.266 73.5041 203.166 73.1041C203.066 72.6041 202.966 71.8041 202.766 71.0041C202.666 70.4041 202.566 70.3041 202.466 69.9041C202.366 69.4041 202.266 69.1041 202.166 68.6041C202.066 68.3041 201.966 67.5041 201.866 67.1041C201.766 66.6041 201.766 65.7041 202.166 65.3041C202.466 65.0041 203.066 64.9041 203.466 65.1041C203.966 65.4041 204.266 66.1041 204.366 66.4041C204.566 66.9041 204.766 67.6041 204.866 68.4041C205.066 69.4041 205.366 70.9041 205.366 71.2041C205.366 70.8041 205.266 70.1041 205.366 69.7041C205.466 69.4041 205.666 69.0041 206.066 68.9041C206.366 68.8041 206.666 68.8041 206.966 68.8041C207.266 68.9041 207.566 69.1041 207.766 69.3041C208.166 69.9041 208.166 71.2041 208.166 71.1041C208.266 70.7041 208.266 69.9041 208.466 69.5041C208.566 69.3041 208.966 69.1041 209.166 69.0041C209.466 68.9041 209.866 68.9041 210.166 69.0041C210.366 69.0041 210.766 69.3041 210.866 69.5041C211.066 69.8041 211.166 70.8041 211.266 71.2041C211.266 71.3041 211.366 70.8041 211.566 70.5041C211.966 69.9041 213.366 69.7041 213.466 71.1041C213.466 71.8041 213.466 71.7041 213.466 72.2041C213.466 72.7041 213.466 73.0041 213.466 73.4041C213.466 73.8041 213.366 74.7041 213.266 75.1041C213.166 75.4041 212.866 76.1041 212.566 76.5041C212.566 76.5041 211.466 77.7041 211.366 78.3041C211.266 78.9041 211.266 78.9041 211.266 79.3041C211.266 79.7041 211.366 80.2041 211.366 80.2041C211.366 80.2041 210.566 80.3041 210.166 80.2041C209.766 80.1041 209.266 79.4041 209.166 79.1041C208.966 78.8041 208.666 78.8041 208.466 79.1041C208.266 79.5041 207.766 80.2041 207.366 80.2041C206.666 80.3041 205.266 80.2041 204.266 80.2041C204.266 80.2041 204.466 79.2041 204.066 78.8041C203.766 78.5041 203.266 78.0041 202.966 77.7041L201.866 77.0041Z" fill="white"/>
<path d="M201.866 77.0041C201.566 76.6041 201.266 75.9041 200.666 75.0041C200.366 74.5041 199.466 73.5041 199.166 73.1041C198.966 72.7041 198.966 72.5041 199.066 72.1041C199.166 71.5041 199.766 71.0041 200.466 71.0041C200.966 71.0041 201.466 71.4041 201.866 71.7041C202.066 71.9041 202.366 72.3041 202.566 72.5041C202.766 72.7041 202.766 72.8041 202.966 73.0041C203.166 73.3041 203.266 73.5041 203.166 73.1041C203.066 72.6041 202.966 71.8041 202.766 71.0041C202.666 70.4041 202.566 70.3041 202.466 69.9041C202.366 69.4041 202.266 69.1041 202.166 68.6041C202.066 68.3041 201.966 67.5041 201.866 67.1041C201.766 66.6041 201.766 65.7041 202.166 65.3041C202.466 65.0041 203.066 64.9041 203.466 65.1041C203.966 65.4041 204.266 66.1041 204.366 66.4041C204.566 66.9041 204.766 67.6041 204.866 68.4041C205.066 69.4041 205.366 70.9041 205.366 71.2041C205.366 70.8041 205.266 70.1041 205.366 69.7041C205.466 69.4041 205.666 69.0041 206.066 68.9041C206.366 68.8041 206.666 68.8041 206.966 68.8041C207.266 68.9041 207.566 69.1041 207.766 69.3041C208.166 69.9041 208.166 71.2041 208.166 71.1041C208.266 70.7041 208.266 69.9041 208.466 69.5041C208.566 69.3041 208.966 69.1041 209.166 69.0041C209.466 68.9041 209.866 68.9041 210.166 69.0041C210.366 69.0041 210.766 69.3041 210.866 69.5041C211.066 69.8041 211.166 70.8041 211.266 71.2041C211.266 71.3041 211.366 70.8041 211.566 70.5041C211.966 69.9041 213.366 69.7041 213.466 71.1041C213.466 71.8041 213.466 71.7041 213.466 72.2041C213.466 72.7041 213.466 73.0041 213.466 73.4041C213.466 73.8041 213.366 74.7041 213.266 75.1041C213.166 75.4041 212.866 76.1041 212.566 76.5041C212.566 76.5041 211.466 77.7041 211.366 78.3041C211.266 78.9041 211.266 78.9041 211.266 79.3041C211.266 79.7041 211.366 80.2041 211.366 80.2041C211.366 80.2041 210.566 80.3041 210.166 80.2041C209.766 80.1041 209.266 79.4041 209.166 79.1041C208.966 78.8041 208.666 78.8041 208.466 79.1041C208.266 79.5041 207.766 80.2041 207.366 80.2041C206.666 80.3041 205.266 80.2041 204.266 80.2041C204.266 80.2041 204.466 79.2041 204.066 78.8041C203.766 78.5041 203.266 78.0041 202.966 77.7041L201.866 77.0041Z" stroke="black" stroke-width="0.75" stroke-linecap="round" stroke-linejoin="round"/>
<path d="M210.166 77.3041V73.9041" stroke="black" stroke-width="0.75" stroke-linecap="round"/>
<path d="M208.165 77.3041L208.065 73.9041" stroke="black" stroke-width="0.75" stroke-linecap="round"/>
<path d="M206.166 73.9041V77.3041" stroke="black" stroke-width="0.75" stroke-linecap="round"/>
<path d="M47.884 156.62C47.164 155.684 46.036 155.288 44.884 155.288C42.364 155.288 40.564 157.256 40.564 159.752C40.564 162.332 42.448 164.216 44.884 164.216C46.24 164.216 47.344 163.748 48.1 162.728L47.344 162.092C46.744 162.86 45.916 163.28 44.884 163.28C42.976 163.28 41.644 161.72 41.644 159.752C41.644 157.892 42.988 156.224 44.884 156.224C45.7 156.224 46.504 156.572 47.008 157.256L47.884 156.62ZM49.3372 164H50.2732V161.264C50.2732 159.98 50.8012 159.104 52.0132 159.104C52.8892 159.104 53.2972 159.692 53.2972 160.628V164H54.2332V160.532C54.2332 159.176 53.5732 158.24 52.0972 158.24C51.2212 158.24 50.5492 158.72 50.2972 159.164H50.2732V154.928H49.3372V164ZM56.5212 159.716C56.9652 159.308 57.5892 159.104 58.1892 159.104C59.0652 159.104 59.5812 159.524 59.5812 160.34V160.508H59.2212C57.8412 160.508 55.6812 160.616 55.6812 162.476C55.6812 163.568 56.6292 164.144 57.7692 164.144C58.6212 164.144 59.2452 163.736 59.6172 163.16H59.6412C59.6412 163.4 59.6412 163.748 59.7012 164H60.6012C60.5532 163.712 60.5172 163.352 60.5172 163.028V160.616C60.5172 159.032 59.8212 158.24 58.1652 158.24C57.3492 158.24 56.5092 158.516 55.9332 159.104L56.5212 159.716ZM59.5812 161.3V161.66C59.5572 162.572 59.0052 163.352 57.9252 163.352C57.2172 163.352 56.6892 163.088 56.6892 162.38C56.6892 161.624 57.4572 161.3 58.6452 161.3H59.5812ZM62.2278 164H63.1638V161.264C63.1638 159.98 63.6918 159.104 64.9038 159.104C65.7798 159.104 66.1878 159.692 66.1878 160.628V164H67.1238V160.532C67.1238 159.176 66.4638 158.24 64.9878 158.24C64.0638 158.24 63.3678 158.756 63.1158 159.308H63.0918C63.0918 158.996 63.0678 158.684 63.0678 158.384H62.1798C62.1798 158.756 62.2278 159.2 62.2278 159.716V164ZM74.4998 158.384H73.5638V159.344H73.5398C73.1678 158.6 72.3158 158.24 71.5598 158.24C69.7718 158.24 68.5718 159.356 68.5718 161.192C68.5718 162.848 69.7958 164.072 71.5598 164.072C72.3038 164.072 73.0958 163.748 73.5398 163.028H73.5638V163.748C73.5638 164.936 73.1198 166.016 71.4398 166.016C70.5758 166.016 69.9398 165.68 69.3518 165.044L68.6798 165.812C69.4718 166.592 70.3478 166.88 71.4398 166.88C73.4078 166.88 74.4998 165.776 74.4998 163.748V158.384ZM69.5798 161.192C69.5798 160.016 70.3838 159.104 71.5598 159.104C72.7478 159.104 73.5638 159.956 73.5638 161.168C73.5638 162.248 72.8438 163.208 71.5598 163.208C70.4678 163.208 69.5798 162.332 69.5798 161.192ZM80.5398 162.428C80.0958 162.992 79.5558 163.28 78.7518 163.28C77.7318 163.28 76.9878 162.452 76.9158 161.48H81.4518V161.18C81.4518 159.32 80.3718 158.24 78.7878 158.24C77.1318 158.24 75.9078 159.452 75.9078 161.192C75.9078 162.824 76.9878 164.144 78.7518 164.144C79.7958 164.144 80.5878 163.832 81.2478 162.98L80.5398 162.428ZM76.9158 160.688C77.0358 159.74 77.7198 159.104 78.7518 159.104C79.7838 159.104 80.4078 159.74 80.4438 160.688H76.9158ZM89.3116 158.384H87.6556V156.788H86.7196V158.384H85.4956V159.176H86.7196V162.26C86.7196 163.424 86.9356 164.144 88.2676 164.144C88.6156 164.144 89.0356 164.084 89.3596 163.94L89.3236 163.088C89.0716 163.22 88.7716 163.28 88.4956 163.28C87.6676 163.28 87.6556 162.704 87.6556 161.984V159.176H89.3116V158.384ZM90.4583 164H91.3943V161.264C91.3943 159.98 91.9223 159.104 93.1343 159.104C94.0103 159.104 94.4183 159.692 94.4183 160.628V164H95.3543V160.532C95.3543 159.176 94.6943 158.24 93.2183 158.24C92.3423 158.24 91.6703 158.72 91.4183 159.164H91.3943V154.928H90.4583V164ZM101.434 162.428C100.99 162.992 100.45 163.28 99.6463 163.28C98.6263 163.28 97.8823 162.452 97.8103 161.48H102.346V161.18C102.346 159.32 101.266 158.24 99.6823 158.24C98.0263 158.24 96.8023 159.452 96.8023 161.192C96.8023 162.824 97.8823 164.144 99.6463 164.144C100.69 164.144 101.482 163.832 102.142 162.98L101.434 162.428ZM97.8103 160.688C97.9303 159.74 98.6143 159.104 99.6463 159.104C100.678 159.104 101.302 159.74 101.338 160.688H97.8103ZM107.134 164H108.07V161.264C108.07 159.98 108.574 159.176 109.714 159.176C109.882 159.176 110.062 159.2 110.218 159.248L110.278 158.3C110.146 158.252 110.014 158.24 109.894 158.24C108.97 158.24 108.274 158.756 108.022 159.308H107.998C107.998 158.996 107.974 158.684 107.974 158.384H107.086C107.086 158.756 107.134 159.2 107.134 159.716V164ZM115.45 162.428C115.006 162.992 114.466 163.28 113.662 163.28C112.642 163.28 111.898 162.452 111.826 161.48H116.362V161.18C116.362 159.32 115.282 158.24 113.698 158.24C112.042 158.24 110.818 159.452 110.818 161.192C110.818 162.824 111.898 164.144 113.662 164.144C114.706 164.144 115.498 163.832 116.158 162.98L115.45 162.428ZM111.826 160.688C111.946 159.74 112.63 159.104 113.662 159.104C114.694 159.104 115.318 159.74 115.354 160.688H111.826ZM117.186 163.1C117.738 163.892 118.422 164.144 119.37 164.144C120.486 164.144 121.614 163.652 121.614 162.38C121.614 161.252 120.774 160.892 119.778 160.7C119.034 160.556 118.362 160.352 118.362 159.884C118.362 159.356 118.95 159.104 119.466 159.104C120.018 159.104 120.414 159.38 120.654 159.776L121.434 159.26C121.05 158.54 120.318 158.24 119.526 158.24C118.482 158.24 117.426 158.804 117.426 159.896C117.426 161.06 118.338 161.288 119.406 161.528C120.006 161.66 120.606 161.816 120.606 162.416C120.606 163.028 119.958 163.28 119.37 163.28C118.71 163.28 118.302 162.98 117.93 162.524L117.186 163.1ZM127.815 158.384H126.879V161.12C126.879 162.404 126.351 163.28 125.139 163.28C124.263 163.28 123.855 162.692 123.855 161.756V158.384H122.919V161.852C122.919 163.208 123.579 164.144 125.055 164.144C125.979 164.144 126.675 163.628 126.927 163.076H126.951C126.951 163.388 126.975 163.7 126.975 164H127.863C127.863 163.628 127.815 163.184 127.815 162.668V158.384ZM129.671 164H130.607V154.928H129.671V164ZM135.542 158.384H133.886V156.788H132.95V158.384H131.726V159.176H132.95V162.26C132.95 163.424 133.166 164.144 134.498 164.144C134.846 164.144 135.266 164.084 135.59 163.94L135.554 163.088C135.302 163.22 135.002 163.28 134.726 163.28C133.898 163.28 133.886 162.704 133.886 161.984V159.176H135.542V158.384ZM136.065 163.1C136.617 163.892 137.301 164.144 138.249 164.144C139.365 164.144 140.493 163.652 140.493 162.38C140.493 161.252 139.653 160.892 138.657 160.7C137.913 160.556 137.241 160.352 137.241 159.884C137.241 159.356 137.829 159.104 138.345 159.104C138.897 159.104 139.293 159.38 139.533 159.776L140.313 159.26C139.929 158.54 139.197 158.24 138.405 158.24C137.361 158.24 136.305 158.804 136.305 159.896C136.305 161.06 137.217 161.288 138.285 161.528C138.885 161.66 139.485 161.816 139.485 162.416C139.485 163.028 138.837 163.28 138.249 163.28C137.589 163.28 137.181 162.98 136.809 162.524L136.065 163.1ZM144.814 161.192C144.814 162.944 146.086 164.144 147.814 164.144C149.542 164.144 150.814 162.944 150.814 161.192C150.814 159.44 149.542 158.24 147.814 158.24C146.086 158.24 144.814 159.44 144.814 161.192ZM145.822 161.192C145.822 160.016 146.602 159.104 147.814 159.104C149.026 159.104 149.806 160.016 149.806 161.192C149.806 162.368 149.026 163.28 147.814 163.28C146.602 163.28 145.822 162.368 145.822 161.192ZM152.743 164H153.679V159.176H155.047V158.384H153.679V157.328C153.679 156.356 153.715 155.648 154.687 155.648C154.903 155.648 155.119 155.696 155.323 155.768L155.455 154.928C155.275 154.832 154.975 154.784 154.735 154.784C153.223 154.784 152.743 155.756 152.743 157.124V158.384H151.519V159.176H152.743V164ZM164.992 158.384H164.056V159.38H164.032C163.684 158.744 162.88 158.24 161.872 158.24C160.3 158.24 159.064 159.512 159.064 161.192C159.064 162.896 160.252 164.144 162.016 164.144C162.832 164.144 163.516 163.784 164.032 163.184H164.056V166.736H164.992V158.384ZM164.056 161.192C164.056 162.368 163.276 163.28 162.064 163.28C160.852 163.28 160.072 162.368 160.072 161.192C160.072 160.016 160.852 159.104 162.064 159.104C163.276 159.104 164.056 160.016 164.056 161.192ZM171.62 158.384H170.684V161.12C170.684 162.404 170.156 163.28 168.944 163.28C168.068 163.28 167.66 162.692 167.66 161.756V158.384H166.724V161.852C166.724 163.208 167.384 164.144 168.86 164.144C169.784 164.144 170.48 163.628 170.732 163.076H170.756C170.756 163.388 170.78 163.7 170.78 164H171.668C171.668 163.628 171.62 163.184 171.62 162.668V158.384ZM177.7 162.428C177.256 162.992 176.716 163.28 175.912 163.28C174.892 163.28 174.148 162.452 174.076 161.48H178.612V161.18C178.612 159.32 177.532 158.24 175.948 158.24C174.292 158.24 173.068 159.452 173.068 161.192C173.068 162.824 174.148 164.144 175.912 164.144C176.956 164.144 177.748 163.832 178.408 162.98L177.7 162.428ZM174.076 160.688C174.196 159.74 174.88 159.104 175.912 159.104C176.944 159.104 177.568 159.74 177.604 160.688H174.076ZM180.06 164H180.996V161.264C180.996 159.98 181.5 159.176 182.64 159.176C182.808 159.176 182.988 159.2 183.144 159.248L183.204 158.3C183.072 158.252 182.94 158.24 182.82 158.24C181.896 158.24 181.2 158.756 180.948 159.308H180.924C180.924 158.996 180.9 158.684 180.9 158.384H180.012C180.012 158.756 180.06 159.2 180.06 159.716V164ZM189.055 158.384H188.035L186.367 162.788H186.343L184.603 158.384H183.511L185.839 164.036L185.455 165.092C185.251 165.644 185.023 166.016 184.411 166.016C184.147 166.016 183.943 165.992 183.751 165.92L183.631 166.736C183.883 166.856 184.207 166.88 184.471 166.88C185.599 166.88 185.971 166.232 186.343 165.284L189.055 158.384ZM193.36 164H194.296V163.004H194.32C194.668 163.64 195.472 164.144 196.48 164.144C198.052 164.144 199.288 162.872 199.288 161.192C199.288 159.488 198.1 158.24 196.336 158.24C195.52 158.24 194.836 158.6 194.32 159.2H194.296V154.928H193.36V164ZM194.296 161.192C194.296 160.016 195.076 159.104 196.288 159.104C197.5 159.104 198.28 160.016 198.28 161.192C198.28 162.368 197.5 163.28 196.288 163.28C195.076 163.28 194.296 162.368 194.296 161.192ZM205.519 158.384H204.499L202.831 162.788H202.807L201.067 158.384H199.975L202.303 164.036L201.919 165.092C201.715 165.644 201.487 166.016 200.875 166.016C200.611 166.016 200.407 165.992 200.215 165.92L200.095 166.736C200.347 166.856 200.671 166.88 200.935 166.88C202.063 166.88 202.435 166.232 202.807 165.284L205.519 158.384ZM41.404 175.716C41.848 175.308 42.472 175.104 43.072 175.104C43.948 175.104 44.464 175.524 44.464 176.34V176.508H44.104C42.724 176.508 40.564 176.616 40.564 178.476C40.564 179.568 41.512 180.144 42.652 180.144C43.504 180.144 44.128 179.736 44.5 179.16H44.524C44.524 179.4 44.524 179.748 44.584 180H45.484C45.436 179.712 45.4 179.352 45.4 179.028V176.616C45.4 175.032 44.704 174.24 43.048 174.24C42.232 174.24 41.392 174.516 40.816 175.104L41.404 175.716ZM44.464 177.3V177.66C44.44 178.572 43.888 179.352 42.808 179.352C42.1 179.352 41.572 179.088 41.572 178.38C41.572 177.624 42.34 177.3 43.528 177.3H44.464ZM51.7787 180H52.7147V170.928H51.7787V175.2H51.7547C51.2387 174.6 50.5547 174.24 49.7387 174.24C47.9747 174.24 46.7867 175.488 46.7867 177.192C46.7867 178.872 48.0227 180.144 49.5947 180.144C50.6027 180.144 51.4067 179.64 51.7547 179.004H51.7787V180ZM51.7787 177.192C51.7787 178.368 50.9987 179.28 49.7867 179.28C48.5747 179.28 47.7947 178.368 47.7947 177.192C47.7947 176.016 48.5747 175.104 49.7867 175.104C50.9987 175.104 51.7787 176.016 51.7787 177.192ZM55.4666 174.384H54.5306V180.828C54.5306 181.476 54.4226 182.016 53.7146 182.016C53.5586 182.016 53.4146 181.992 53.2586 181.944L53.1506 182.76C53.3546 182.856 53.5826 182.88 53.7986 182.88C55.1906 182.88 55.4666 181.836 55.4666 181.26V174.384ZM54.3146 172.188C54.3146 172.584 54.6026 172.872 54.9986 172.872C55.3946 172.872 55.6826 172.584 55.6826 172.188C55.6826 171.816 55.3826 171.504 54.9986 171.504C54.6146 171.504 54.3146 171.816 54.3146 172.188ZM62.2254 174.384H61.2894V177.12C61.2894 178.404 60.7614 179.28 59.5494 179.28C58.6734 179.28 58.2654 178.692 58.2654 177.756V174.384H57.3294V177.852C57.3294 179.208 57.9894 180.144 59.4654 180.144C60.3894 180.144 61.0854 179.628 61.3374 179.076H61.3614C61.3614 179.388 61.3854 179.7 61.3854 180H62.2734C62.2734 179.628 62.2254 179.184 62.2254 178.668V174.384ZM63.3734 179.1C63.9254 179.892 64.6094 180.144 65.5574 180.144C66.6734 180.144 67.8014 179.652 67.8014 178.38C67.8014 177.252 66.9614 176.892 65.9654 176.7C65.2214 176.556 64.5494 176.352 64.5494 175.884C64.5494 175.356 65.1374 175.104 65.6534 175.104C66.2054 175.104 66.6014 175.38 66.8414 175.776L67.6214 175.26C67.2374 174.54 66.5054 174.24 65.7134 174.24C64.6694 174.24 63.6134 174.804 63.6134 175.896C63.6134 177.06 64.5254 177.288 65.5934 177.528C66.1934 177.66 66.7934 177.816 66.7934 178.416C66.7934 179.028 66.1454 179.28 65.5574 179.28C64.8974 179.28 64.4894 178.98 64.1174 178.524L63.3734 179.1ZM72.1788 174.384H70.5228V172.788H69.5868V174.384H68.3628V175.176H69.5868V178.26C69.5868 179.424 69.8027 180.144 71.1348 180.144C71.4828 180.144 71.9028 180.084 72.2268 179.94L72.1908 179.088C71.9388 179.22 71.6388 179.28 71.3628 179.28C70.5348 179.28 70.5228 178.704 70.5228 177.984V175.176H72.1788V174.384ZM73.4095 180H74.3455V174.384H73.4095V180ZM73.1935 172.188C73.1935 172.584 73.4815 172.872 73.8775 172.872C74.2735 172.872 74.5615 172.584 74.5615 172.188C74.5615 171.816 74.2615 171.504 73.8775 171.504C73.4935 171.504 73.1935 171.816 73.1935 172.188ZM76.2083 180H77.1443V177.264C77.1443 175.98 77.6723 175.104 78.8843 175.104C79.7603 175.104 80.1683 175.692 80.1683 176.628V180H81.1043V176.532C81.1043 175.176 80.4443 174.24 78.9683 174.24C78.0443 174.24 77.3483 174.756 77.0963 175.308H77.0723C77.0723 174.996 77.0483 174.684 77.0483 174.384H76.1603C76.1603 174.756 76.2083 175.2 76.2083 175.716V180ZM88.4803 174.384H87.5443V175.344H87.5203C87.1483 174.6 86.2963 174.24 85.5403 174.24C83.7523 174.24 82.5523 175.356 82.5523 177.192C82.5523 178.848 83.7763 180.072 85.5403 180.072C86.2843 180.072 87.0763 179.748 87.5203 179.028H87.5443V179.748C87.5443 180.936 87.1003 182.016 85.4203 182.016C84.5563 182.016 83.9203 181.68 83.3323 181.044L82.6603 181.812C83.4523 182.592 84.3283 182.88 85.4203 182.88C87.3883 182.88 88.4803 181.776 88.4803 179.748V174.384ZM83.5603 177.192C83.5603 176.016 84.3643 175.104 85.5403 175.104C86.7283 175.104 87.5443 175.956 87.5443 177.168C87.5443 178.248 86.8243 179.208 85.5403 179.208C84.4483 179.208 83.5603 178.332 83.5603 177.192ZM96.6241 174.384H94.9681V172.788H94.0321V174.384H92.8081V175.176H94.0321V178.26C94.0321 179.424 94.2481 180.144 95.5801 180.144C95.9281 180.144 96.3481 180.084 96.6721 179.94L96.6361 179.088C96.3841 179.22 96.0841 179.28 95.8081 179.28C94.9801 179.28 94.9681 178.704 94.9681 177.984V175.176H96.6241V174.384ZM97.7708 180H98.7068V177.264C98.7068 175.98 99.2348 175.104 100.447 175.104C101.323 175.104 101.731 175.692 101.731 176.628V180H102.667V176.532C102.667 175.176 102.007 174.24 100.531 174.24C99.6548 174.24 98.9828 174.72 98.7308 175.164H98.7068V170.928H97.7708V180ZM108.747 178.428C108.303 178.992 107.763 179.28 106.959 179.28C105.939 179.28 105.195 178.452 105.123 177.48H109.659V177.18C109.659 175.32 108.579 174.24 106.995 174.24C105.339 174.24 104.115 175.452 104.115 177.192C104.115 178.824 105.195 180.144 106.959 180.144C108.003 180.144 108.795 179.832 109.455 178.98L108.747 178.428ZM105.123 176.688C105.243 175.74 105.927 175.104 106.959 175.104C107.991 175.104 108.615 175.74 108.651 176.688H105.123ZM119.223 174.384H118.215L116.547 178.788H116.523L114.771 174.384H113.679L115.971 180H117.003L119.223 174.384ZM120.752 175.716C121.196 175.308 121.82 175.104 122.42 175.104C123.296 175.104 123.812 175.524 123.812 176.34V176.508H123.452C122.072 176.508 119.912 176.616 119.912 178.476C119.912 179.568 120.86 180.144 122 180.144C122.852 180.144 123.476 179.736 123.848 179.16H123.872C123.872 179.4 123.872 179.748 123.932 180H124.832C124.784 179.712 124.748 179.352 124.748 179.028V176.616C124.748 175.032 124.052 174.24 122.396 174.24C121.58 174.24 120.74 174.516 120.164 175.104L120.752 175.716ZM123.812 177.3V177.66C123.788 178.572 123.236 179.352 122.156 179.352C121.448 179.352 120.92 179.088 120.92 178.38C120.92 177.624 121.688 177.3 122.876 177.3H123.812ZM126.542 180H127.478V170.928H126.542V180ZM134.237 174.384H133.301V177.12C133.301 178.404 132.773 179.28 131.561 179.28C130.685 179.28 130.277 178.692 130.277 177.756V174.384H129.341V177.852C129.341 179.208 130.001 180.144 131.477 180.144C132.401 180.144 133.097 179.628 133.349 179.076H133.373C133.373 179.388 133.397 179.7 133.397 180H134.285C134.285 179.628 134.237 179.184 134.237 178.668V174.384ZM140.317 178.428C139.873 178.992 139.333 179.28 138.529 179.28C137.509 179.28 136.765 178.452 136.693 177.48H141.229V177.18C141.229 175.32 140.149 174.24 138.565 174.24C136.909 174.24 135.685 175.452 135.685 177.192C135.685 178.824 136.765 180.144 138.529 180.144C139.573 180.144 140.365 179.832 141.025 178.98L140.317 178.428ZM136.693 176.688C136.813 175.74 137.497 175.104 138.529 175.104C139.561 175.104 140.185 175.74 140.221 176.688H136.693ZM142.053 179.1C142.605 179.892 143.289 180.144 144.237 180.144C145.353 180.144 146.481 179.652 146.481 178.38C146.481 177.252 145.641 176.892 144.645 176.7C143.901 176.556 143.229 176.352 143.229 175.884C143.229 175.356 143.817 175.104 144.333 175.104C144.885 175.104 145.281 175.38 145.521 175.776L146.301 175.26C145.917 174.54 145.185 174.24 144.393 174.24C143.349 174.24 142.293 174.804 142.293 175.896C142.293 177.06 143.205 177.288 144.273 177.528C144.873 177.66 145.473 177.816 145.473 178.416C145.473 179.028 144.825 179.28 144.237 179.28C143.577 179.28 143.169 178.98 142.797 178.524L142.053 179.1ZM150.802 177.192C150.802 178.944 152.074 180.144 153.802 180.144C155.53 180.144 156.802 178.944 156.802 177.192C156.802 175.44 155.53 174.24 153.802 174.24C152.074 174.24 150.802 175.44 150.802 177.192ZM151.81 177.192C151.81 176.016 152.59 175.104 153.802 175.104C155.014 175.104 155.794 176.016 155.794 177.192C155.794 178.368 155.014 179.28 153.802 179.28C152.59 179.28 151.81 178.368 151.81 177.192ZM158.731 180H159.667V175.176H161.035V174.384H159.667V173.328C159.667 172.356 159.703 171.648 160.675 171.648C160.891 171.648 161.107 171.696 161.311 171.768L161.443 170.928C161.263 170.832 160.963 170.784 160.723 170.784C159.211 170.784 158.731 171.756 158.731 173.124V174.384H157.507V175.176H158.731V180ZM165.46 180H166.396V174.384H165.46V180ZM165.244 172.188C165.244 172.584 165.532 172.872 165.928 172.872C166.324 172.872 166.612 172.584 166.612 172.188C166.612 171.816 166.312 171.504 165.928 171.504C165.544 171.504 165.244 171.816 165.244 172.188ZM168.259 180H169.195V177.264C169.195 175.98 169.723 175.104 170.935 175.104C171.811 175.104 172.219 175.692 172.219 176.628V180H173.155V176.532C173.155 175.176 172.495 174.24 171.019 174.24C170.095 174.24 169.399 174.756 169.147 175.308H169.123C169.123 174.996 169.099 174.684 169.099 174.384H168.211C168.211 174.756 168.259 175.2 168.259 175.716V180ZM177.999 174.384H176.343V172.788H175.407V174.384H174.183V175.176H175.407V178.26C175.407 179.424 175.623 180.144 176.955 180.144C177.303 180.144 177.723 180.084 178.047 179.94L178.011 179.088C177.759 179.22 177.459 179.28 177.183 179.28C176.355 179.28 176.343 178.704 176.343 177.984V175.176H177.999V174.384ZM183.454 178.428C183.01 178.992 182.47 179.28 181.666 179.28C180.646 179.28 179.902 178.452 179.83 177.48H184.366V177.18C184.366 175.32 183.286 174.24 181.702 174.24C180.046 174.24 178.822 175.452 178.822 177.192C178.822 178.824 179.902 180.144 181.666 180.144C182.71 180.144 183.502 179.832 184.162 178.98L183.454 178.428ZM179.83 176.688C179.95 175.74 180.634 175.104 181.666 175.104C182.698 175.104 183.322 175.74 183.358 176.688H179.83ZM185.814 180H186.75V177.264C186.75 175.98 187.254 175.176 188.394 175.176C188.562 175.176 188.742 175.2 188.898 175.248L188.958 174.3C188.826 174.252 188.694 174.24 188.574 174.24C187.65 174.24 186.954 174.756 186.702 175.308H186.678C186.678 174.996 186.654 174.684 186.654 174.384H185.766C185.766 174.756 185.814 175.2 185.814 175.716V180ZM190.549 175.716C190.993 175.308 191.617 175.104 192.217 175.104C193.093 175.104 193.609 175.524 193.609 176.34V176.508H193.249C191.869 176.508 189.709 176.616 189.709 178.476C189.709 179.568 190.657 180.144 191.797 180.144C192.649 180.144 193.273 179.736 193.645 179.16H193.669C193.669 179.4 193.669 179.748 193.729 180H194.629C194.581 179.712 194.545 179.352 194.545 179.028V176.616C194.545 175.032 193.849 174.24 192.193 174.24C191.377 174.24 190.537 174.516 189.961 175.104L190.549 175.716ZM193.609 177.3V177.66C193.585 178.572 193.033 179.352 191.953 179.352C191.245 179.352 190.717 179.088 190.717 178.38C190.717 177.624 191.485 177.3 192.673 177.3H193.609ZM200.995 175.128C200.431 174.516 199.663 174.24 198.835 174.24C197.107 174.24 195.931 175.488 195.931 177.192C195.931 178.92 197.095 180.144 198.835 180.144C199.651 180.144 200.419 179.868 200.959 179.244L200.263 178.584C199.915 179.064 199.447 179.28 198.835 179.28C197.695 179.28 196.939 178.344 196.939 177.192C196.939 176.04 197.575 175.104 198.835 175.104C199.399 175.104 199.855 175.308 200.251 175.788L200.995 175.128ZM205.116 174.384H203.46V172.788H202.524V174.384H201.3V175.176H202.524V178.26C202.524 179.424 202.74 180.144 204.072 180.144C204.42 180.144 204.84 180.084 205.164 179.94L205.128 179.088C204.876 179.22 204.576 179.28 204.3 179.28C203.472 179.28 203.46 178.704 203.46 177.984V175.176H205.116V174.384ZM206.347 180H207.283V174.384H206.347V180ZM206.131 172.188C206.131 172.584 206.419 172.872 206.815 172.872C207.211 172.872 207.499 172.584 207.499 172.188C207.499 171.816 207.199 171.504 206.815 171.504C206.431 171.504 206.131 171.816 206.131 172.188ZM213.922 174.384H212.914L211.246 178.788H211.222L209.47 174.384H208.378L210.67 180H211.702L213.922 174.384ZM219.243 178.428C218.799 178.992 218.259 179.28 217.455 179.28C216.435 179.28 215.691 178.452 215.619 177.48H220.155V177.18C220.155 175.32 219.075 174.24 217.491 174.24C215.835 174.24 214.611 175.452 214.611 177.192C214.611 178.824 215.691 180.144 217.455 180.144C218.499 180.144 219.291 179.832 219.951 178.98L219.243 178.428ZM215.619 176.688C215.739 175.74 216.423 175.104 217.455 175.104C218.487 175.104 219.111 175.74 219.147 176.688H215.619ZM40.972 196H41.908V190.384H40.972V196ZM40.756 188.188C40.756 188.584 41.044 188.872 41.44 188.872C41.836 188.872 42.124 188.584 42.124 188.188C42.124 187.816 41.824 187.504 41.44 187.504C41.056 187.504 40.756 187.816 40.756 188.188ZM43.7708 196H44.7068V193.264C44.7068 191.98 45.2348 191.104 46.4468 191.104C47.3228 191.104 47.7308 191.692 47.7308 192.628V196H48.6668V192.532C48.6668 191.176 48.0068 190.24 46.5308 190.24C45.6068 190.24 44.9108 190.756 44.6588 191.308H44.6348C44.6348 190.996 44.6108 190.684 44.6108 190.384H43.7228C43.7228 190.756 43.7708 191.2 43.7708 191.716V196ZM50.3908 198.736H51.3268V195.004H51.3508C51.6988 195.64 52.5028 196.144 53.5108 196.144C55.0828 196.144 56.3188 194.872 56.3188 193.192C56.3188 191.488 55.1308 190.24 53.3668 190.24C52.5508 190.24 51.8668 190.6 51.3508 191.2H51.3268V190.384H50.3908V198.736ZM51.3268 193.192C51.3268 192.016 52.1068 191.104 53.3188 191.104C54.5308 191.104 55.3108 192.016 55.3108 193.192C55.3108 194.368 54.5308 195.28 53.3188 195.28C52.1068 195.28 51.3268 194.368 51.3268 193.192ZM62.6707 190.384H61.7347V193.12C61.7347 194.404 61.2067 195.28 59.9947 195.28C59.1187 195.28 58.7107 194.692 58.7107 193.756V190.384H57.7747V193.852C57.7747 195.208 58.4347 196.144 59.9107 196.144C60.8347 196.144 61.5307 195.628 61.7827 195.076H61.8067C61.8067 195.388 61.8307 195.7 61.8307 196H62.7187C62.7187 195.628 62.6707 195.184 62.6707 194.668V190.384ZM67.5147 190.384H65.8587V188.788H64.9227V190.384H63.6987V191.176H64.9227V194.26C64.9227 195.424 65.1387 196.144 66.4707 196.144C66.8187 196.144 67.2387 196.084 67.5627 195.94L67.5267 195.088C67.2747 195.22 66.9747 195.28 66.6987 195.28C65.8707 195.28 65.8587 194.704 65.8587 193.984V191.176H67.5147V190.384ZM71.9533 196H72.8893V195.004H72.9133C73.2613 195.64 74.0653 196.144 75.0733 196.144C76.6453 196.144 77.8813 194.872 77.8813 193.192C77.8813 191.488 76.6933 190.24 74.9293 190.24C74.1133 190.24 73.4293 190.6 72.9133 191.2H72.8893V186.928H71.9533V196ZM72.8893 193.192C72.8893 192.016 73.6693 191.104 74.8813 191.104C76.0933 191.104 76.8733 192.016 76.8733 193.192C76.8733 194.368 76.0933 195.28 74.8813 195.28C73.6693 195.28 72.8893 194.368 72.8893 193.192ZM79.4212 196H80.3572V186.928H79.4212V196ZM81.896 193.192C81.896 194.944 83.168 196.144 84.896 196.144C86.624 196.144 87.896 194.944 87.896 193.192C87.896 191.44 86.624 190.24 84.896 190.24C83.168 190.24 81.896 191.44 81.896 193.192ZM82.904 193.192C82.904 192.016 83.684 191.104 84.896 191.104C86.108 191.104 86.888 192.016 86.888 193.192C86.888 194.368 86.108 195.28 84.896 195.28C83.684 195.28 82.904 194.368 82.904 193.192ZM94.085 191.128C93.521 190.516 92.753 190.24 91.925 190.24C90.197 190.24 89.021 191.488 89.021 193.192C89.021 194.92 90.185 196.144 91.925 196.144C92.741 196.144 93.509 195.868 94.049 195.244L93.353 194.584C93.005 195.064 92.537 195.28 91.925 195.28C90.785 195.28 90.029 194.344 90.029 193.192C90.029 192.04 90.665 191.104 91.925 191.104C92.489 191.104 92.945 191.308 93.341 191.788L94.085 191.128ZM95.1341 196H96.0701V193.048L98.8541 196H100.234L97.2461 192.94L99.9581 190.384H98.6261L96.0701 192.856V186.928H95.1341V196ZM100.51 195.1C101.062 195.892 101.746 196.144 102.694 196.144C103.81 196.144 104.938 195.652 104.938 194.38C104.938 193.252 104.098 192.892 103.102 192.7C102.358 192.556 101.686 192.352 101.686 191.884C101.686 191.356 102.274 191.104 102.79 191.104C103.342 191.104 103.738 191.38 103.978 191.776L104.758 191.26C104.374 190.54 103.642 190.24 102.85 190.24C101.806 190.24 100.75 190.804 100.75 191.896C100.75 193.06 101.662 193.288 102.73 193.528C103.33 193.66 103.93 193.816 103.93 194.416C103.93 195.028 103.282 195.28 102.694 195.28C102.034 195.28 101.626 194.98 101.254 194.524L100.51 195.1Z" fill="white"/>
<defs>
<filter id="filter0_d_4611_237236" x="0" y="0" width="268" height="250" filterUnits="userSpaceOnUse" color-interpolation-filters="sRGB">
<feFlood flood-opacity="0" result="BackgroundImageFix"/>
<feColorMatrix in="SourceAlpha" type="matrix" values="0 0 0 0 0 0 0 0 0 0 0 0 0 0 0 0 0 0 127 0" result="hardAlpha"/>
<feOffset dy="9"/>
<feGaussianBlur stdDeviation="16"/>
<feComposite in2="hardAlpha" operator="out"/>
<feColorMatrix type="matrix" values="0 0 0 0 0 0 0 0 0 0 0 0 0 0 0 0 0 0 0.12 0"/>
<feBlend mode="normal" in2="BackgroundImageFix" result="effect1_dropShadow_4611_237236"/>
<feBlend mode="normal" in="SourceGraphic" in2="effect1_dropShadow_4611_237236" result="shape"/>
</filter>
<filter id="filter1_d_4611_237236" x="43.5" y="34" width="182.875" height="46" filterUnits="userSpaceOnUse" color-interpolation-filters="sRGB">
<feFlood flood-opacity="0" result="BackgroundImageFix"/>
<feColorMatrix in="SourceAlpha" type="matrix" values="0 0 0 0 0 0 0 0 0 0 0 0 0 0 0 0 0 0 127 0" result="hardAlpha"/>
<feMorphology radius="1" operator="dilate" in="SourceAlpha" result="effect1_dropShadow_4611_237236"/>
<feOffset dy="2"/>
<feGaussianBlur stdDeviation="2.5"/>
<feComposite in2="hardAlpha" operator="out"/>
<feColorMatrix type="matrix" values="0 0 0 0 0 0 0 0 0 0 0 0 0 0 0 0 0 0 0.05 0"/>
<feBlend mode="normal" in2="BackgroundImageFix" result="effect1_dropShadow_4611_237236"/>
<feBlend mode="normal" in="SourceGraphic" in2="effect1_dropShadow_4611_237236" result="shape"/>
</filter>
<filter id="filter2_d_4611_237236" x="80" y="73" width="143" height="66" filterUnits="userSpaceOnUse" color-interpolation-filters="sRGB">
<feFlood flood-opacity="0" result="BackgroundImageFix"/>
<feColorMatrix in="SourceAlpha" type="matrix" values="0 0 0 0 0 0 0 0 0 0 0 0 0 0 0 0 0 0 127 0" result="hardAlpha"/>
<feOffset dy="4"/>
<feGaussianBlur stdDeviation="2"/>
<feComposite in2="hardAlpha" operator="out"/>
<feColorMatrix type="matrix" values="0 0 0 0 0 0 0 0 0 0 0 0 0 0 0 0 0 0 0.05 0"/>
<feBlend mode="normal" in2="BackgroundImageFix" result="effect1_dropShadow_4611_237236"/>
<feBlend mode="normal" in="SourceGraphic" in2="effect1_dropShadow_4611_237236" result="shape"/>
</filter>
<clipPath id="clip0_4611_237236">
<rect width="124.875" height="20" fill="white" transform="translate(62.5 45)"/>
</clipPath>
</defs>
</svg>
