<svg width="220" height="206" viewBox="0 0 220 206" fill="none" xmlns="http://www.w3.org/2000/svg">
<rect width="220" height="206" rx="4" fill="#F7F7F7"/>
<g clip-path="url(#clip0_4735_234862)">
<rect width="83" height="8" transform="translate(19 41)" fill="white" fill-opacity="0.9"/>
<line x1="19" y1="48.5" x2="102" y2="48.5" stroke="#6F7590"/>
<rect width="30" height="16" transform="translate(40 49)" fill="#D6D6F5"/>
<line x1="40" y1="64.5" x2="70" y2="64.5" stroke="#6F7590"/>
<rect width="20" height="16" transform="translate(19 49)" fill="#C9F9EE"/>
<line x1="19" y1="64.5" x2="39" y2="64.5" stroke="#6F7590"/>
<path d="M28.0547 59.3359H29.2812V55.1523L28.3516 56.2109L27.9219 55.6875L29.2734 54.168H30.0625V59.3359H31.2734V60H28.0547V59.3359Z" fill="#6F7590"/>
<line x1="70.5" y1="49" x2="70.5" y2="65" stroke="#6F7590"/>
<line x1="39.5" y1="49" x2="39.5" y2="65" stroke="#6F7590"/>
<rect width="30" height="16" transform="translate(71 49)" fill="#D6D6F5"/>
<line x1="71" y1="64.5" x2="101" y2="64.5" stroke="#6F7590"/>
<rect width="30" height="16" transform="translate(40 65)" fill="#D6D6F5"/>
<line x1="40" y1="80.5" x2="70" y2="80.5" stroke="#F3F3F3"/>
<rect width="20" height="16" transform="translate(19 65)" fill="#C9F9EE"/>
<line x1="19" y1="80.5" x2="39" y2="80.5" stroke="#F3F3F3"/>
<path d="M27.5938 75.4766C27.5938 75.3802 27.6263 75.2995 27.6914 75.2344C27.8398 75.0781 28.0156 74.8932 28.2188 74.6797C28.4219 74.4635 28.6393 74.2292 28.8711 73.9766C29.0482 73.7839 29.181 73.6393 29.2695 73.543C29.3607 73.444 29.4297 73.3685 29.4766 73.3164C29.5234 73.2617 29.5716 73.2044 29.6211 73.1445C29.7591 72.9779 29.8685 72.8359 29.9492 72.7188C30.0326 72.6016 30.1003 72.4857 30.1523 72.3711C30.2435 72.168 30.2891 71.9648 30.2891 71.7617C30.2891 71.4388 30.194 71.1862 30.0039 71.0039C29.8112 70.819 29.5469 70.7266 29.2109 70.7266C28.7448 70.7266 28.2214 70.8997 27.6406 71.2461V70.4492C27.9062 70.3216 28.1706 70.2253 28.4336 70.1602C28.6914 70.0951 28.9466 70.0625 29.1992 70.0625C29.4701 70.0625 29.724 70.099 29.9609 70.1719C30.1979 70.2448 30.4049 70.3594 30.582 70.5156C30.7383 70.6536 30.8633 70.8229 30.957 71.0234C31.0508 71.2214 31.0977 71.4453 31.0977 71.6953C31.0977 71.9505 31.0404 72.207 30.9258 72.4648C30.8685 72.5951 30.7943 72.7227 30.7031 72.8477C30.6146 72.9701 30.5 73.1159 30.3594 73.2852C30.2839 73.3737 30.194 73.4766 30.0898 73.5938C29.9857 73.7109 29.8646 73.8438 29.7266 73.9922C29.6276 74.099 29.5352 74.1953 29.4492 74.2812C29.3659 74.3672 29.2773 74.457 29.1836 74.5508C29.0898 74.6419 28.9818 74.75 28.8594 74.875C28.7396 74.9974 28.5924 75.151 28.418 75.3359H31.1367V76H27.5938V75.4766Z" fill="#6F7590"/>
<line x1="70.5" y1="65" x2="70.5" y2="81" stroke="#6F7590"/>
<line x1="39.5" y1="65" x2="39.5" y2="81" stroke="#6F7590"/>
<rect width="30" height="16" transform="translate(71 65)" fill="#D6D6F5"/>
<line x1="71" y1="80.5" x2="101" y2="80.5" stroke="#F3F3F3"/>
</g>
<rect x="19.5" y="41.5" width="82" height="39" rx="1.5" stroke="#6F7590"/>
<rect width="83" height="8" transform="translate(118 41)" fill="white" fill-opacity="0.9"/>
<line x1="118" y1="48.5" x2="201" y2="48.5" stroke="#6F7590"/>
<rect width="30" height="16" transform="translate(139 49)" fill="#FFF8E5"/>
<line x1="139" y1="64.5" x2="169" y2="64.5" stroke="#6F7590"/>
<rect width="20" height="16" transform="translate(118 49)" fill="#C9F9EE"/>
<line x1="118" y1="64.5" x2="138" y2="64.5" stroke="#6F7590"/>
<path d="M127.055 59.3359H128.281V55.1523L127.352 56.2109L126.922 55.6875L128.273 54.168H129.062V59.3359H130.273V60H127.055V59.3359Z" fill="#6F7590"/>
<line x1="169.5" y1="49" x2="169.5" y2="65" stroke="#6F7590"/>
<line x1="138.5" y1="49" x2="138.5" y2="65" stroke="#6F7590"/>
<rect width="30" height="16" transform="translate(170 49)" fill="#FFF8E5"/>
<line x1="170" y1="64.5" x2="200" y2="64.5" stroke="#6F7590"/>
<rect width="30" height="16" transform="translate(139 65)" fill="#FFF8E5"/>
<line x1="139" y1="80.5" x2="169" y2="80.5" stroke="#6F7590"/>
<rect width="20" height="16" transform="translate(118 65)" fill="#C9F9EE"/>
<line x1="118" y1="80.5" x2="138" y2="80.5" stroke="#6F7590"/>
<path d="M128.211 76.1133C128.086 76.1133 127.954 76.1068 127.816 76.0938C127.681 76.0833 127.543 76.0651 127.402 76.0391C127.283 76.0182 127.151 75.9896 127.008 75.9531C126.865 75.9167 126.723 75.8737 126.582 75.8242V75.0273C126.715 75.0951 126.845 75.1562 126.973 75.2109C127.1 75.2656 127.232 75.3112 127.367 75.3477C127.497 75.3815 127.625 75.4076 127.75 75.4258C127.878 75.4414 128.007 75.4492 128.137 75.4492C128.572 75.4492 128.904 75.3516 129.133 75.1562C129.365 74.9583 129.48 74.681 129.48 74.3242C129.48 73.9753 129.366 73.7018 129.137 73.5039C128.908 73.306 128.592 73.207 128.191 73.207H127.59V72.5586H128.191C128.559 72.5586 128.842 72.4792 129.043 72.3203C129.243 72.1641 129.344 71.9388 129.344 71.6445C129.344 71.3503 129.25 71.1237 129.062 70.9648C128.88 70.806 128.607 70.7266 128.242 70.7266C128.026 70.7266 127.79 70.7526 127.535 70.8047C127.285 70.8542 127.026 70.9323 126.758 71.0391V70.3125C127.076 70.2292 127.357 70.1667 127.602 70.125C127.833 70.0833 128.053 70.0625 128.262 70.0625C128.535 70.0625 128.786 70.0977 129.016 70.168C129.247 70.2383 129.449 70.3451 129.621 70.4883C129.957 70.7669 130.125 71.1432 130.125 71.6172C130.125 71.7865 130.102 71.9375 130.055 72.0703C130.01 72.2031 129.945 72.3216 129.859 72.4258C129.682 72.6367 129.422 72.7878 129.078 72.8789C129.461 72.9805 129.754 73.1602 129.957 73.418C130.064 73.5534 130.141 73.7031 130.188 73.8672C130.237 74.0312 130.262 74.207 130.262 74.3945C130.262 74.9258 130.083 75.3451 129.727 75.6523C129.549 75.8034 129.335 75.918 129.082 75.9961C128.832 76.0742 128.542 76.1133 128.211 76.1133Z" fill="#6F7590"/>
<line x1="169.5" y1="65" x2="169.5" y2="81" stroke="#6F7590"/>
<line x1="138.5" y1="65" x2="138.5" y2="81" stroke="#6F7590"/>
<rect width="30" height="16" transform="translate(170 65)" fill="#FFF8E5"/>
<line x1="170" y1="80.5" x2="200" y2="80.5" stroke="#6F7590"/>
<rect width="30" height="16" transform="translate(139 81)" fill="#FFF8E5"/>
<line x1="139" y1="96.5" x2="169" y2="96.5" stroke="#F3F3F3"/>
<rect width="20" height="16" transform="translate(118 81)" fill="#C9F9EE"/>
<line x1="118" y1="96.5" x2="138" y2="96.5" stroke="#F3F3F3"/>
<path d="M128.871 90.6094H126.398V89.8633L128.742 86.168H129.656V89.9688H130.434V90.6094H129.656V92H128.871V90.6094ZM128.871 89.9688V86.8867L127.031 89.9688H128.871Z" fill="#6F7590"/>
<line x1="169.5" y1="81" x2="169.5" y2="97" stroke="#6F7590"/>
<line x1="138.5" y1="81" x2="138.5" y2="97" stroke="#6F7590"/>
<rect width="30" height="16" transform="translate(170 81)" fill="#FFF8E5"/>
<line x1="170" y1="96.5" x2="200" y2="96.5" stroke="#F3F3F3"/>
<rect x="118.5" y="41.5" width="82" height="55" rx="1.5" stroke="#6F7590"/>
<rect width="144" height="8" transform="translate(38 138)" fill="white" fill-opacity="0.9"/>
<line x1="38" y1="145.5" x2="182" y2="145.5" stroke="#6F7590"/>
<rect width="30" height="16" transform="translate(59 146)" fill="#D6D6F5"/>
<line x1="59" y1="161.5" x2="89" y2="161.5" stroke="#6F7590"/>
<rect width="20" height="16" transform="translate(38 146)" fill="#C9F9EE"/>
<line x1="38" y1="161.5" x2="58" y2="161.5" stroke="#6F7590"/>
<path d="M47.0547 156.336H48.2812V152.152L47.3516 153.211L46.9219 152.688L48.2734 151.168H49.0625V156.336H50.2734V157H47.0547V156.336Z" fill="#6F7590"/>
<line x1="89.5" y1="146" x2="89.5" y2="162" stroke="#6F7590"/>
<line x1="120.5" y1="146" x2="120.5" y2="162" stroke="#6F7590"/>
<line x1="151.5" y1="146" x2="151.5" y2="162" stroke="#6F7590"/>
<line x1="58.5" y1="146" x2="58.5" y2="162" stroke="#6F7590"/>
<rect width="30" height="16" transform="translate(90 146)" fill="#D6D6F5"/>
<line x1="90" y1="161.5" x2="120" y2="161.5" stroke="#6F7590"/>
<rect width="30" height="16" transform="translate(121 146)" fill="#FFF8E5"/>
<line x1="121" y1="161.5" x2="151" y2="161.5" stroke="#6F7590"/>
<rect width="30" height="16" transform="translate(152 146)" fill="#FFF8E5"/>
<line x1="152" y1="161.5" x2="182" y2="161.5" stroke="#6F7590"/>
<rect width="30" height="16" transform="translate(59 162)" fill="#D6D6F5"/>
<line x1="59" y1="177.5" x2="89" y2="177.5" stroke="#6F7590"/>
<rect width="20" height="16" transform="translate(38 162)" fill="#C9F9EE"/>
<line x1="38" y1="177.5" x2="58" y2="177.5" stroke="#6F7590"/>
<path d="M46.5938 172.477C46.5938 172.38 46.6263 172.299 46.6914 172.234C46.8398 172.078 47.0156 171.893 47.2188 171.68C47.4219 171.464 47.6393 171.229 47.8711 170.977C48.0482 170.784 48.181 170.639 48.2695 170.543C48.3607 170.444 48.4297 170.368 48.4766 170.316C48.5234 170.262 48.5716 170.204 48.6211 170.145C48.7591 169.978 48.8685 169.836 48.9492 169.719C49.0326 169.602 49.1003 169.486 49.1523 169.371C49.2435 169.168 49.2891 168.965 49.2891 168.762C49.2891 168.439 49.194 168.186 49.0039 168.004C48.8112 167.819 48.5469 167.727 48.2109 167.727C47.7448 167.727 47.2214 167.9 46.6406 168.246V167.449C46.9062 167.322 47.1706 167.225 47.4336 167.16C47.6914 167.095 47.9466 167.062 48.1992 167.062C48.4701 167.062 48.724 167.099 48.9609 167.172C49.1979 167.245 49.4049 167.359 49.582 167.516C49.7383 167.654 49.8633 167.823 49.957 168.023C50.0508 168.221 50.0977 168.445 50.0977 168.695C50.0977 168.951 50.0404 169.207 49.9258 169.465C49.8685 169.595 49.7943 169.723 49.7031 169.848C49.6146 169.97 49.5 170.116 49.3594 170.285C49.2839 170.374 49.194 170.477 49.0898 170.594C48.9857 170.711 48.8646 170.844 48.7266 170.992C48.6276 171.099 48.5352 171.195 48.4492 171.281C48.3659 171.367 48.2773 171.457 48.1836 171.551C48.0898 171.642 47.9818 171.75 47.8594 171.875C47.7396 171.997 47.5924 172.151 47.418 172.336H50.1367V173H46.5938V172.477Z" fill="#6F7590"/>
<line x1="89.5" y1="162" x2="89.5" y2="178" stroke="#6F7590"/>
<line x1="120.5" y1="162" x2="120.5" y2="178" stroke="#6F7590"/>
<line x1="151.5" y1="162" x2="151.5" y2="178" stroke="#6F7590"/>
<line x1="58.5" y1="162" x2="58.5" y2="178" stroke="#6F7590"/>
<rect width="30" height="16" transform="translate(90 162)" fill="#D6D6F5"/>
<line x1="90" y1="177.5" x2="120" y2="177.5" stroke="#6F7590"/>
<rect width="30" height="16" transform="translate(121 162)" fill="white"/>
<line x1="121" y1="177.5" x2="151" y2="177.5" stroke="#6F7590"/>
<rect width="30" height="16" transform="translate(152 162)" fill="white"/>
<line x1="152" y1="177.5" x2="182" y2="177.5" stroke="#6F7590"/>
<rect x="38.5" y="138.5" width="143" height="39" rx="1.5" stroke="#6F7590"/>
<path d="M19.632 34H23.048V33.088H20.64V28.336H19.632V34ZM27.3884 32.416V32.152C27.3884 30.816 26.6604 30.064 25.5884 30.064C24.4284 30.064 23.5004 30.872 23.5004 32.08C23.5004 33.288 24.4284 34.096 25.5884 34.096C26.1964 34.096 26.7644 33.88 27.2124 33.328L26.5244 32.808C26.2844 33.104 25.9724 33.328 25.4924 33.328C24.9564 33.328 24.5244 32.984 24.4604 32.416H27.3884ZM24.4604 31.696C24.5324 31.144 24.8844 30.784 25.4524 30.784C26.0524 30.784 26.4204 31.136 26.4284 31.696H24.4604ZM28.6302 34H29.5902V30.976H30.4782V30.16H29.5902V29.464C29.5902 29.04 29.6702 28.672 30.2062 28.672C30.3422 28.672 30.4702 28.696 30.6062 28.728L30.6702 27.912C30.4702 27.872 30.2702 27.856 30.0622 27.856C28.8702 27.856 28.6302 28.552 28.6302 29.616V30.16H27.8382V30.976H28.6302V34ZM31.4427 30.976V32.736C31.4427 33.64 31.6827 34.096 32.6987 34.096C32.9227 34.096 33.2587 34.064 33.4587 33.968V33.16C33.3387 33.248 33.1067 33.28 32.9387 33.28C32.5147 33.28 32.4027 33.04 32.4027 32.656V30.976H33.4587V30.16H32.4027V29.048H31.4427V30.16H30.6507V30.976H31.4427ZM37.8233 34H38.8313V29.248H40.5673V28.336H36.0873V29.248H37.8233V34ZM42.7721 34H43.6361V31.792C43.6361 31.248 43.6361 30.064 41.9961 30.064C41.3881 30.064 40.7881 30.248 40.3641 30.68L40.8681 31.184C41.1241 30.944 41.4921 30.784 41.8921 30.784C42.4041 30.784 42.7721 31.032 42.7721 31.504V31.608H42.5321C41.5721 31.608 40.1161 31.696 40.1161 32.944C40.1161 33.704 40.8041 34.096 41.5161 34.096C42.0281 34.096 42.4761 33.904 42.7481 33.472H42.7721V34ZM42.7161 32.496C42.7161 33.032 42.4041 33.376 41.7481 33.376C41.4361 33.376 41.0761 33.224 41.0761 32.872C41.0761 32.32 41.9881 32.28 42.5161 32.28H42.7161V32.496ZM44.669 34H45.581V33.424H45.597C45.877 33.888 46.381 34.096 46.917 34.096C48.101 34.096 48.813 33.216 48.813 32.08C48.813 30.944 48.053 30.064 46.957 30.064C46.237 30.064 45.853 30.4 45.653 30.648H45.629V27.952H44.669V34ZM47.853 32.08C47.853 32.68 47.429 33.232 46.725 33.232C46.021 33.232 45.597 32.68 45.597 32.08C45.597 31.48 46.021 30.928 46.725 30.928C47.429 30.928 47.853 31.48 47.853 32.08ZM49.7241 34H50.6841V27.952H49.7241V34ZM55.4822 32.416V32.152C55.4822 30.816 54.7542 30.064 53.6822 30.064C52.5222 30.064 51.5942 30.872 51.5942 32.08C51.5942 33.288 52.5222 34.096 53.6822 34.096C54.2902 34.096 54.8582 33.88 55.3062 33.328L54.6182 32.808C54.3782 33.104 54.0662 33.328 53.5862 33.328C53.0502 33.328 52.6182 32.984 52.5542 32.416H55.4822ZM52.5542 31.696C52.6262 31.144 52.9782 30.784 53.5462 30.784C54.1462 30.784 54.5142 31.136 54.5222 31.696H52.5542Z" fill="#3E4359"/>
<path d="M38.656 132H39.616V127.296H39.632L41.352 132H42.056L43.776 127.296H43.792V132H44.752V126.336H43.232L41.704 130.304L40.192 126.336H38.656V132ZM49.6463 130.416V130.152C49.6463 128.816 48.9183 128.064 47.8463 128.064C46.6863 128.064 45.7583 128.872 45.7583 130.08C45.7583 131.288 46.6863 132.096 47.8463 132.096C48.4543 132.096 49.0223 131.88 49.4703 131.328L48.7823 130.808C48.5423 131.104 48.2303 131.328 47.7503 131.328C47.2143 131.328 46.7823 130.984 46.7183 130.416H49.6463ZM46.7183 129.696C46.7903 129.144 47.1423 128.784 47.7103 128.784C48.3103 128.784 48.6783 129.136 48.6863 129.696H46.7183ZM50.544 132H51.504V129.944C51.504 129.736 51.632 128.976 52.536 128.976C52.688 128.976 52.84 129.008 53 129.048V128.12C52.888 128.088 52.776 128.064 52.656 128.064C52.152 128.064 51.728 128.328 51.52 128.768H51.504V128.16H50.544V132ZM56.5528 128.16V128.736H56.5368C56.2568 128.272 55.7528 128.064 55.2168 128.064C54.0328 128.064 53.3208 128.944 53.3208 130.08C53.3208 131.168 54.0808 132.048 55.2328 132.048C55.7128 132.048 56.2088 131.864 56.4888 131.488H56.5048V131.768C56.5048 132.528 56.2168 133.056 55.2888 133.056C54.7528 133.056 54.3528 132.856 53.9688 132.504L53.3928 133.288C53.9368 133.768 54.5848 133.92 55.2968 133.92C56.7928 133.92 57.4648 133.04 57.4648 131.656V128.16H56.5528ZM55.4168 128.928C56.1128 128.928 56.5528 129.392 56.5528 130.056C56.5528 130.696 56.1208 131.184 55.4088 131.184C54.7608 131.184 54.2808 130.68 54.2808 130.072C54.2808 129.392 54.7448 128.928 55.4168 128.928ZM62.2478 130.416V130.152C62.2478 128.816 61.5198 128.064 60.4478 128.064C59.2878 128.064 58.3598 128.872 58.3598 130.08C58.3598 131.288 59.2878 132.096 60.4478 132.096C61.0558 132.096 61.6238 131.88 62.0718 131.328L61.3838 130.808C61.1438 131.104 60.8318 131.328 60.3518 131.328C59.8158 131.328 59.3838 130.984 59.3198 130.416H62.2478ZM59.3198 129.696C59.3918 129.144 59.7438 128.784 60.3118 128.784C60.9118 128.784 61.2798 129.136 61.2878 129.696H59.3198ZM66.1856 132H67.0976V125.952H66.1376V128.648H66.1136C65.9136 128.4 65.5296 128.064 64.8096 128.064C63.7136 128.064 62.9536 128.944 62.9536 130.08C62.9536 131.216 63.6656 132.096 64.8496 132.096C65.3856 132.096 65.8896 131.888 66.1696 131.424H66.1856V132ZM63.9136 130.08C63.9136 129.48 64.3376 128.928 65.0416 128.928C65.7456 128.928 66.1696 129.48 66.1696 130.08C66.1696 130.68 65.7456 131.232 65.0416 131.232C64.3376 131.232 63.9136 130.68 63.9136 130.08ZM71.7998 132H72.8078V127.248H74.5438V126.336H70.0638V127.248H71.7998V132ZM76.7487 132H77.6127V129.792C77.6127 129.248 77.6127 128.064 75.9727 128.064C75.3647 128.064 74.7647 128.248 74.3407 128.68L74.8447 129.184C75.1007 128.944 75.4687 128.784 75.8687 128.784C76.3807 128.784 76.7487 129.032 76.7487 129.504V129.608H76.5087C75.5487 129.608 74.0927 129.696 74.0927 130.944C74.0927 131.704 74.7807 132.096 75.4927 132.096C76.0047 132.096 76.4527 131.904 76.7247 131.472H76.7487V132ZM76.6927 130.496C76.6927 131.032 76.3807 131.376 75.7247 131.376C75.4127 131.376 75.0527 131.224 75.0527 130.872C75.0527 130.32 75.9647 130.28 76.4927 130.28H76.6927V130.496ZM78.6456 132H79.5576V131.424H79.5736C79.8536 131.888 80.3576 132.096 80.8936 132.096C82.0776 132.096 82.7896 131.216 82.7896 130.08C82.7896 128.944 82.0296 128.064 80.9336 128.064C80.2136 128.064 79.8296 128.4 79.6296 128.648H79.6056V125.952H78.6456V132ZM81.8296 130.08C81.8296 130.68 81.4056 131.232 80.7016 131.232C79.9976 131.232 79.5736 130.68 79.5736 130.08C79.5736 129.48 79.9976 128.928 80.7016 128.928C81.4056 128.928 81.8296 129.48 81.8296 130.08ZM83.7006 132H84.6606V125.952H83.7006V132ZM89.4588 130.416V130.152C89.4588 128.816 88.7308 128.064 87.6588 128.064C86.4988 128.064 85.5708 128.872 85.5708 130.08C85.5708 131.288 86.4988 132.096 87.6588 132.096C88.2668 132.096 88.8348 131.88 89.2828 131.328L88.5948 130.808C88.3548 131.104 88.0428 131.328 87.5628 131.328C87.0268 131.328 86.5948 130.984 86.5308 130.416H89.4588ZM86.5308 129.696C86.6028 129.144 86.9548 128.784 87.5228 128.784C88.1228 128.784 88.4908 129.136 88.4988 129.696H86.5308Z" fill="#3E4359"/>
<path d="M119.632 34H120.64V31.6H121.376L122.688 34H123.904L122.4 31.496C123.24 31.376 123.712 30.776 123.712 29.96C123.712 28.688 122.688 28.336 121.6 28.336H119.632V34ZM120.64 30.736V29.2H121.512C122.032 29.2 122.656 29.28 122.656 29.952C122.656 30.688 121.992 30.736 121.424 30.736H120.64ZM124.599 34H125.559V30.16H124.599V34ZM124.463 28.856C124.463 29.16 124.719 29.432 125.071 29.432C125.423 29.432 125.695 29.184 125.695 28.856C125.695 28.528 125.423 28.28 125.071 28.28C124.719 28.28 124.463 28.552 124.463 28.856ZM129.701 30.16V30.736H129.685C129.405 30.272 128.901 30.064 128.365 30.064C127.181 30.064 126.469 30.944 126.469 32.08C126.469 33.168 127.229 34.048 128.381 34.048C128.861 34.048 129.357 33.864 129.637 33.488H129.653V33.768C129.653 34.528 129.365 35.056 128.437 35.056C127.901 35.056 127.501 34.856 127.117 34.504L126.541 35.288C127.085 35.768 127.733 35.92 128.445 35.92C129.941 35.92 130.613 35.04 130.613 33.656V30.16H129.701ZM128.565 30.928C129.261 30.928 129.701 31.392 129.701 32.056C129.701 32.696 129.269 33.184 128.557 33.184C127.909 33.184 127.429 32.68 127.429 32.072C127.429 31.392 127.893 30.928 128.565 30.928ZM132.66 27.952H131.7V34H132.66V31.904C132.66 31.392 132.908 30.928 133.54 30.928C134.212 30.928 134.244 31.632 134.244 32.056V34H135.204V31.576C135.204 30.792 134.836 30.064 133.804 30.064C133.212 30.064 132.828 30.376 132.676 30.696H132.66V27.952ZM136.638 30.976V32.736C136.638 33.64 136.878 34.096 137.894 34.096C138.118 34.096 138.454 34.064 138.654 33.968V33.16C138.534 33.248 138.302 33.28 138.134 33.28C137.71 33.28 137.598 33.04 137.598 32.656V30.976H138.654V30.16H137.598V29.048H136.638V30.16H135.846V30.976H136.638ZM143.019 34H144.027V29.248H145.763V28.336H141.283V29.248H143.019V34ZM147.967 34H148.831V31.792C148.831 31.248 148.831 30.064 147.191 30.064C146.583 30.064 145.983 30.248 145.559 30.68L146.063 31.184C146.319 30.944 146.687 30.784 147.087 30.784C147.599 30.784 147.967 31.032 147.967 31.504V31.608H147.727C146.767 31.608 145.311 31.696 145.311 32.944C145.311 33.704 145.999 34.096 146.711 34.096C147.223 34.096 147.671 33.904 147.943 33.472H147.967V34ZM147.911 32.496C147.911 33.032 147.599 33.376 146.943 33.376C146.631 33.376 146.271 33.224 146.271 32.872C146.271 32.32 147.183 32.28 147.711 32.28H147.911V32.496ZM149.864 34H150.776V33.424H150.792C151.072 33.888 151.576 34.096 152.112 34.096C153.296 34.096 154.008 33.216 154.008 32.08C154.008 30.944 153.248 30.064 152.152 30.064C151.432 30.064 151.048 30.4 150.848 30.648H150.824V27.952H149.864V34ZM153.048 32.08C153.048 32.68 152.624 33.232 151.92 33.232C151.216 33.232 150.792 32.68 150.792 32.08C150.792 31.48 151.216 30.928 151.92 30.928C152.624 30.928 153.048 31.48 153.048 32.08ZM154.919 34H155.879V27.952H154.919V34ZM160.678 32.416V32.152C160.678 30.816 159.95 30.064 158.878 30.064C157.718 30.064 156.79 30.872 156.79 32.08C156.79 33.288 157.718 34.096 158.878 34.096C159.486 34.096 160.054 33.88 160.502 33.328L159.814 32.808C159.574 33.104 159.262 33.328 158.782 33.328C158.246 33.328 157.814 32.984 157.75 32.416H160.678ZM157.75 31.696C157.822 31.144 158.174 30.784 158.742 30.784C159.342 30.784 159.71 31.136 159.718 31.696H157.75Z" fill="#3E4359"/>
<line x1="54.5" y1="81" x2="54.5" y2="116" stroke="#6F7590"/>
<path d="M98 116.5L54 116.5" stroke="#6F7590"/>
<path d="M161 116.5L119.291 116.5" stroke="#6F7590"/>
<line x1="160.5" y1="96" x2="160.5" y2="116" stroke="#6F7590"/>
<path d="M110.677 115.338C110.677 118.77 107.895 121.552 104.463 121.552C101.032 121.552 98.25 118.77 98.25 115.338C98.25 111.907 101.032 109.125 104.463 109.125C107.895 109.125 110.677 111.907 110.677 115.338Z" fill="#D5D5DD" stroke="#6F7590" stroke-linecap="round" stroke-linejoin="round"/>
<path d="M119.5 115.338C119.5 118.77 116.718 121.552 113.287 121.552C109.855 121.552 107.073 118.77 107.073 115.338C107.073 111.907 109.855 109.125 113.287 109.125C116.718 109.125 119.5 111.907 119.5 115.338Z" stroke="#6F7590" stroke-linecap="round" stroke-linejoin="round"/>
<mask id="path-68-inside-1_4735_234862" fill="white">
<path fill-rule="evenodd" clip-rule="evenodd" d="M108.875 110.278C107.464 111.509 106.573 113.319 106.573 115.338C106.573 117.357 107.464 119.168 108.875 120.399C110.285 119.168 111.177 117.357 111.177 115.338C111.177 113.319 110.285 111.509 108.875 110.278Z"/>
</mask>
<path fill-rule="evenodd" clip-rule="evenodd" d="M108.875 110.278C107.464 111.509 106.573 113.319 106.573 115.338C106.573 117.357 107.464 119.168 108.875 120.399C110.285 119.168 111.177 117.357 111.177 115.338C111.177 113.319 110.285 111.509 108.875 110.278Z" fill="#D5D5DD"/>
<path d="M108.875 110.278L109.532 109.524C109.156 109.196 108.594 109.196 108.218 109.524L108.875 110.278ZM108.875 120.399L108.218 121.152C108.594 121.481 109.156 121.481 109.532 121.152L108.875 120.399ZM108.218 109.524C106.599 110.937 105.573 113.018 105.573 115.338H107.573C107.573 113.62 108.33 112.08 109.532 111.031L108.218 109.524ZM105.573 115.338C105.573 117.658 106.599 119.74 108.218 121.152L109.532 119.645C108.33 118.596 107.573 117.056 107.573 115.338H105.573ZM109.532 121.152C111.151 119.74 112.177 117.658 112.177 115.338H110.177C110.177 117.056 109.42 118.596 108.218 119.645L109.532 121.152ZM112.177 115.338C112.177 113.018 111.151 110.937 109.532 109.524L108.218 111.031C109.42 112.08 110.177 113.62 110.177 115.338H112.177Z" fill="#6F7590" mask="url(#path-68-inside-1_4735_234862)"/>
<path d="M108.646 136.354C108.842 136.549 109.158 136.549 109.354 136.354L112.536 133.172C112.731 132.976 112.731 132.66 112.536 132.464C112.34 132.269 112.024 132.269 111.828 132.464L109 135.293L106.172 132.464C105.976 132.269 105.66 132.269 105.464 132.464C105.269 132.66 105.269 132.976 105.464 133.172L108.646 136.354ZM108.5 120V136H109.5V120H108.5Z" fill="#6F7590"/>
<defs>
<clipPath id="clip0_4735_234862">
<rect x="19" y="41" width="83" height="40" rx="2" fill="white"/>
</clipPath>
</defs>
</svg>
