<svg  viewBox="0 0 120 122" fill="none" xmlns="http://www.w3.org/2000/svg">
<path d="M5.63276 17.9753C7.12356 17.4884 7.93929 15.8793 7.45474 14.3812C6.97019 12.8832 5.36885 12.0635 3.87805 12.5504C2.38724 13.0373 1.57152 14.6464 2.05607 16.1445C2.54062 17.6425 4.14196 18.4622 5.63276 17.9753Z" fill="#E2EBFF"/>
<path d="M11.8286 8.66915C12.8423 8.33806 13.397 7.24385 13.0675 6.22518C12.738 5.2065 11.6491 4.64911 10.6354 4.98021C9.62161 5.31131 9.06691 6.40551 9.39641 7.42418C9.7259 8.44286 10.8148 9.00025 11.8286 8.66915Z" fill="#E2EBFF"/>
<path d="M104.879 18.4594C106.638 16.8441 106.761 14.1019 105.153 12.3344C103.546 10.5669 100.817 10.4434 99.0579 12.0586C97.299 13.6739 97.1761 16.4161 98.7835 18.1836C100.391 19.9512 103.12 20.0746 104.879 18.4594Z" fill="#E2EBFF"/>
<path d="M118.659 10.5551C119.4 9.87496 119.451 8.72031 118.775 7.97608C118.098 7.23186 116.949 7.17988 116.208 7.85999C115.468 8.5401 115.416 9.69474 116.093 10.439C116.769 11.1832 117.918 11.2352 118.659 10.5551Z" fill="#E2EBFF"/>
<path d="M10.6201 111.898C11.3607 111.218 11.4125 110.063 10.7356 109.319C10.0588 108.575 8.90977 108.523 8.16914 109.203C7.42852 109.883 7.37679 111.038 8.05361 111.782C8.73042 112.526 9.87948 112.578 10.6201 111.898Z" fill="#E2EBFF"/>
<path d="M56.4277 117.93C87.5919 117.93 112.855 92.5438 112.855 61.2282C112.855 29.9125 87.5919 4.52612 56.4277 4.52612C25.2636 4.52612 0 29.9125 0 61.2282C0 92.5438 25.2636 117.93 56.4277 117.93Z" fill="#F3F3F3"/>
<path d="M21.6853 54.0406L14.3054 22.5521C13.7378 20.1562 15.2137 17.8745 17.4845 17.304L66.1917 5.66699L93.7811 24.4916L111.039 93.7434C111.606 96.1393 110.13 98.421 107.86 98.9915L40.6459 114.964C38.2617 115.534 35.9909 114.051 35.4233 111.769L21.1176 51.6447" fill="#C7D9FF"/>
<path d="M106.724 51.8723L80.7244 118.272C79.8161 120.554 77.3183 121.58 75.0476 120.668L11.1264 94.4274C8.8557 93.5147 7.83387 91.0047 8.74216 88.723L43.1438 3.84104C44.0521 1.55927 46.5499 0.532473 48.8206 1.44518L95.2571 20.498L106.724 51.8723Z" fill="#C7D9FF"/>
<path d="M100.025 105.495C100.025 107.89 98.0952 109.83 95.7109 109.83H26.6806C24.2963 109.83 22.3662 107.89 22.3662 105.495V13.7674C22.3662 11.3715 24.2963 9.43201 26.6806 9.43201H76.7503L99.2305 34.1892L99.6847 75.7175L100.025 105.495Z" fill="white"/>
<path d="M21.6853 54.0406L14.3054 22.5521C13.7378 20.1562 15.2137 17.8745 17.4845 17.304L66.1917 5.66699L93.7811 24.4916L111.039 93.7434C111.606 96.1393 110.13 98.421 107.86 98.9915L40.6459 114.964C38.2617 115.534 35.9909 114.051 35.4233 111.769L21.1176 51.6447" fill="#D5DDEA"/>
<path d="M106.724 51.8723L80.7244 118.272C79.8161 120.554 77.3183 121.58 75.0476 120.668L11.1264 94.4274C8.8557 93.5147 7.83387 91.0047 8.74216 88.723L43.1438 3.84104C44.0521 1.55927 46.5499 0.532473 48.8206 1.44518L95.2571 20.498L106.724 51.8723Z" fill="#D5DDEA"/>
<path d="M92.6458 26.7734L87.7638 38.6387C86.7419 41.1486 88.1044 44.229 90.6022 45.2558L106.724 51.8729" stroke="#182052" stroke-miterlimit="10" stroke-linecap="round" stroke-linejoin="round"/>
<path d="M100.025 105.495C100.025 107.89 98.0952 109.83 95.7109 109.83H26.6806C24.2963 109.83 22.3662 107.89 22.3662 105.495V13.7674C22.3662 11.3715 24.2963 9.43201 26.6806 9.43201H76.7503L99.2305 34.1892L99.6847 75.7175L100.025 105.495Z" fill="white"/>
<path d="M87.3089 83.5895H45.868C45.1868 83.5895 44.6191 83.0191 44.6191 82.3346C44.6191 81.65 45.1868 81.0796 45.868 81.0796H87.3089C87.9902 81.0796 88.5578 81.65 88.5578 82.3346C88.4443 83.0191 87.9902 83.5895 87.3089 83.5895Z" fill="#C7D9FF"/>
<path d="M40.7594 83.5895H33.493C32.8118 83.5895 32.2441 83.0191 32.2441 82.3346C32.2441 81.65 32.8118 81.0796 33.493 81.0796H40.7594C41.4406 81.0796 42.0083 81.65 42.0083 82.3346C42.0083 83.0191 41.4406 83.5895 40.7594 83.5895Z" fill="#C7D9FF"/>
<path d="M87.1958 72.2947H68.6893C68.0081 72.2947 67.4404 71.7243 67.4404 71.0398C67.4404 70.3552 68.0081 69.7848 68.6893 69.7848H87.1958C87.877 69.7848 88.4447 70.3552 88.4447 71.0398C88.3312 71.8384 87.877 72.2947 87.1958 72.2947Z" fill="#C7D9FF"/>
<path d="M60.8546 72.2947H33.8329C33.1517 72.2947 32.584 71.7243 32.584 71.0398C32.584 70.3552 33.1517 69.7848 33.8329 69.7848H60.8546C61.5358 69.7848 62.1035 70.3552 62.1035 71.0398C62.1035 71.8384 61.5358 72.2947 60.8546 72.2947Z" fill="#C7D9FF"/>
<path d="M87.5365 61.1141H80.3837C79.7025 61.1141 79.1348 60.5436 79.1348 59.8591C79.1348 59.1746 79.7025 58.6041 80.3837 58.6041H87.5365C88.2177 58.6041 88.7854 59.1746 88.7854 59.8591C88.7854 60.5436 88.2177 61.1141 87.5365 61.1141Z" fill="#C7D9FF"/>
<path d="M73.6855 61.1141H34.1747C33.4935 61.1141 32.9258 60.5436 32.9258 59.8591C32.9258 59.1746 33.4935 58.6041 34.1747 58.6041H73.6855C74.3667 58.6041 74.9344 59.1746 74.9344 59.8591C74.9344 60.5436 74.3667 61.1141 73.6855 61.1141Z" fill="#C7D9FF"/>
<path d="M55.9733 95.9111H53.4755C52.7942 95.9111 52.2266 95.3406 52.2266 94.6561C52.2266 93.9716 52.7942 93.4011 53.4755 93.4011H55.9733C56.6545 93.4011 57.2222 93.9716 57.2222 94.6561C57.1086 95.3406 56.541 95.9111 55.9733 95.9111Z" fill="#C7D9FF"/>
<path d="M48.9345 95.9111H34.1747C33.4935 95.9111 32.9258 95.3406 32.9258 94.6561C32.9258 93.9716 33.4935 93.4011 34.1747 93.4011H48.8209C49.5021 93.4011 50.0698 93.9716 50.0698 94.6561C50.1834 95.3406 49.6157 95.9111 48.9345 95.9111Z" fill="#C7D9FF"/>
<path d="M87.8774 49.9334H62.4452C61.764 49.9334 61.1963 49.363 61.1963 48.6784C61.1963 47.9939 61.764 47.4235 62.4452 47.4235H87.8774C88.5586 47.4235 89.1263 47.9939 89.1263 48.6784C89.1263 49.363 88.5586 49.9334 87.8774 49.9334Z" fill="#C7D9FF"/>
<path d="M54.2699 49.9334H34.5145C33.8333 49.9334 33.2656 49.363 33.2656 48.6784C33.2656 47.9939 33.8333 47.4235 34.5145 47.4235H54.1564C54.8376 47.4235 55.4053 47.9939 55.4053 48.6784C55.4053 49.363 54.9511 49.9334 54.2699 49.9334Z" fill="#C7D9FF"/>
<path d="M68.1221 24.6057H34.9694C34.0611 24.6057 33.3799 23.9212 33.3799 23.0085C33.3799 22.0958 34.0611 21.4113 34.9694 21.4113H68.1221C69.0304 21.4113 69.7116 22.0958 69.7116 23.0085C69.7116 23.8071 68.9169 24.6057 68.1221 24.6057Z" fill="#C7D9FF"/>
<path d="M47.572 32.5919H34.9694C34.0611 32.5919 33.3799 31.9074 33.3799 30.9947C33.3799 30.082 34.0611 29.3975 34.9694 29.3975H47.6855C48.5938 29.3975 49.275 30.082 49.275 30.9947C49.1615 31.7933 48.4803 32.5919 47.572 32.5919Z" fill="#C7D9FF"/>
<path d="M76.751 9.43201V29.0552C76.751 31.7934 79.1352 34.0751 81.8601 34.0751H99.2312" fill="#D5DDEA"/>
<path d="M76.751 19.5858V29.0552C76.751 31.7933 79.1352 34.0751 81.8601 34.0751H99.2312" stroke="#182052" stroke-miterlimit="10" stroke-linecap="round" stroke-linejoin="round"/>
<path d="M22.0265 55.752L21.1182 51.6448" stroke="#182052" stroke-miterlimit="10" stroke-linecap="round" stroke-linejoin="round"/>
<path d="M53.5889 111.998L40.5322 115.078C38.6021 115.534 36.672 114.622 35.7637 112.91" stroke="#182052" stroke-miterlimit="10" stroke-linecap="round" stroke-linejoin="round"/>
<path d="M99.3447 47.0812L107.5 79.5907" stroke="#182052" stroke-miterlimit="10" stroke-linecap="round" stroke-linejoin="round"/>
<path d="M61.7637 6.69379L66.1916 5.66699L71.6414 9.31783" stroke="#182052" stroke-miterlimit="10" stroke-linecap="round" stroke-linejoin="round"/>
<path d="M21.6853 54.0406L14.3054 22.5522C13.7378 20.1563 15.2137 17.8745 17.4845 17.3041" stroke="#182052" stroke-miterlimit="10" stroke-linecap="round" stroke-linejoin="round"/>
<path d="M14.3055 95.797L11.1264 94.428C8.8557 93.5152 7.83387 91.0053 8.74216 88.7235L22.3666 55.0674" stroke="#182052" stroke-miterlimit="10" stroke-linecap="round" stroke-linejoin="round"/>
<path d="M84.0172 109.83L80.7246 118.272C79.8163 120.554 77.3185 121.581 75.0478 120.668L48.5938 109.83" stroke="#182052" stroke-miterlimit="10" stroke-linecap="round" stroke-linejoin="round"/>
<path d="M81.8594 14.9082L95.1432 20.3845L106.724 51.8729L102.977 61.4564" stroke="#182052" stroke-miterlimit="10" stroke-linecap="round" stroke-linejoin="round"/>
<path d="M40.873 9.31786L43.1438 3.72752C44.0521 1.44574 46.5499 0.418947 48.8206 1.33166L67.6677 9.08968" stroke="#182052" stroke-miterlimit="10" stroke-linecap="round" stroke-linejoin="round"/>
<path d="M40.8727 9.31787H76.7503L99.2305 34.0751L99.6847 75.6033L100.025 105.495C100.025 107.89 98.0952 109.83 95.7109 109.83H26.6806C24.2963 109.83 22.3662 107.89 22.3662 105.495V13.7673C22.3662 11.3715 24.2963 9.43196 26.6806 9.43196H29.8596" stroke="#182052" stroke-miterlimit="10" stroke-linecap="round" stroke-linejoin="round"/>
<path d="M113.992 96.1393C113.992 98.8774 113.537 101.387 112.516 103.783C110.245 109.716 105.363 114.279 99.3453 116.333C97.3016 117.018 95.1444 117.36 92.8737 117.36C81.1794 117.36 71.7559 107.89 71.7559 96.1393C71.7559 84.3882 81.1794 74.9188 92.8737 74.9188C104.568 74.9188 113.992 84.5023 113.992 96.1393Z" fill="url(#paint0_linear_4845_236772)"/>
<path d="M77.6595 109.944C73.9128 106.065 71.8691 100.817 71.8691 94.9984C71.8691 86.5558 76.7512 79.3682 83.7905 75.9456" stroke="#182052" stroke-miterlimit="10" stroke-linecap="round" stroke-linejoin="round"/>
<path d="M93.2143 73.778C104.682 73.892 113.992 83.3614 113.992 94.9984C113.992 97.7366 113.537 100.247 112.516 102.642C110.245 108.575 105.363 113.139 99.3453 115.192C97.3016 115.877 95.1444 116.219 92.8737 116.219C89.6947 116.219 86.6292 115.534 83.9043 114.165" stroke="#182052" stroke-miterlimit="10" stroke-linecap="round" stroke-linejoin="round"/>
<path d="M89.4678 74.1201C89.5813 74.1201 89.5813 74.1201 89.6948 74.1201" stroke="#182052" stroke-miterlimit="10" stroke-linecap="round" stroke-linejoin="round"/>
<path d="M97.1888 92.1462V88.3813C97.1888 86.3277 95.4858 84.6163 93.4421 84.6163C92.4203 84.6163 91.512 85.0727 90.7172 85.7572C90.036 86.4418 89.5819 87.3545 89.5819 88.4953V92.2603C88.5601 92.9448 87.7653 93.7434 87.0841 94.8843C86.5164 95.9111 86.1758 97.1661 86.1758 98.4211C86.1758 102.414 89.3548 105.609 93.3286 105.609C97.3024 105.609 100.481 102.414 100.481 98.4211C100.595 95.6829 99.2325 93.4012 97.1888 92.1462ZM94.2369 99.1056V101.045C94.2369 101.273 94.0098 101.501 93.7827 101.501H92.988C92.7609 101.501 92.5338 101.273 92.5338 101.045V99.7901V99.1056C91.8526 98.7633 91.512 97.9647 91.6255 97.1661C91.7391 96.4815 92.3068 95.9111 92.988 95.797C94.1233 95.5688 95.1452 96.4816 95.1452 97.5083C95.1452 98.1929 94.8046 98.7633 94.2369 99.1056ZM95.5993 91.3476C94.9181 91.1194 94.2369 91.0053 93.4421 91.0053C92.7609 91.0053 92.0797 91.1194 91.3985 91.3476V88.3813C91.3985 87.8108 91.6255 87.2404 91.9662 86.8981C92.3068 86.5558 92.8744 86.3277 93.4421 86.3277C94.5775 86.3277 95.4858 87.2404 95.4858 88.3813V91.3476H95.5993Z" fill="white"/>
<defs>
<linearGradient id="paint0_linear_4845_236772" x1="74.2278" y1="86.0332" x2="111.711" y2="107.044" gradientUnits="userSpaceOnUse">
<stop stop-color="#83A6FF"/>
<stop offset="0.994956" stop-color="#5277D7"/>
</linearGradient>
</defs>
</svg>
