<svg width="158" height="152" viewBox="0 0 158 152" fill="none" xmlns="http://www.w3.org/2000/svg">
<path d="M84.9505 133.045C118.512 133.045 145.721 105.836 145.721 72.1544C145.721 38.4727 118.392 11.2637 84.9505 11.2637C51.3887 11.2637 24.1797 38.4727 24.1797 72.1544C24.1797 105.836 51.3887 133.045 84.9505 133.045Z" fill="#F1F3F9"/>
<path d="M44.4338 60.8704L36.5828 27.3714C35.9788 24.8226 37.549 22.3951 39.9648 21.7883L91.7819 9.4082L121.133 29.4348L139.492 103.108C140.096 105.657 138.526 108.085 136.11 108.691L64.6051 125.684C62.0686 126.29 59.6529 124.713 59.0489 122.285L43.8299 58.3215" fill="#C7D9FF"/>
<path d="M134.902 58.5642L107.242 129.203C106.276 131.631 103.618 132.723 101.203 131.752L33.2001 103.836C30.7844 102.865 29.6973 100.195 30.6636 97.7677L67.2618 7.46612C68.228 5.03866 70.8853 3.9463 73.3011 4.91729L122.702 25.1866L134.902 58.5642Z" fill="#C7D9FF"/>
<path d="M127.774 115.61C127.774 118.159 125.72 120.222 123.184 120.222H49.7461C47.2096 120.222 45.1562 118.159 45.1562 115.61V18.0262C45.1562 15.4774 47.2096 13.4141 49.7461 13.4141H103.013L126.928 39.752L127.411 83.9318L127.774 115.61Z" fill="white"/>
<path d="M44.4299 60.8714L36.5788 27.3724C35.9749 24.8236 37.5451 22.3961 39.9608 21.7892L91.778 9.40918L121.129 29.4357L139.488 103.109C140.092 105.658 138.522 108.085 136.106 108.692L64.6012 125.685C62.0647 126.291 59.649 124.714 59.045 122.286L43.826 58.3225" fill="#D5DDEA"/>
<path d="M134.902 58.5642L107.242 129.203C106.276 131.631 103.618 132.723 101.203 131.752L33.2001 103.836C30.7844 102.865 29.6973 100.195 30.6636 97.7677L67.2618 7.46612C68.228 5.03866 70.8853 3.9463 73.3011 4.91729L122.702 25.1866L134.902 58.5642Z" fill="#D5DDEA"/>
<path d="M119.921 31.8633L114.727 44.4861C113.64 47.1563 115.089 50.4334 117.747 51.5257L134.898 58.5654" stroke="#6F7590" stroke-miterlimit="10" stroke-linecap="round" stroke-linejoin="round"/>
<path d="M127.774 115.61C127.774 118.159 125.72 120.222 123.184 120.222H49.7461C47.2096 120.222 45.1562 118.159 45.1562 115.61V18.0262C45.1562 15.4774 47.2096 13.4141 49.7461 13.4141H103.013L126.928 39.752L127.411 83.9318L127.774 115.61Z" fill="white"/>
<path d="M103.016 13.4141V34.2902C103.016 37.2032 105.552 39.6306 108.451 39.6306H126.931" fill="#D5DDEA"/>
<path d="M103.016 24.2168V34.2908C103.016 37.2037 105.552 39.6312 108.451 39.6312H126.931" stroke="#6F7590" stroke-miterlimit="10" stroke-linecap="round" stroke-linejoin="round"/>
<path d="M115.91 95.9343H51.292C50.6909 95.9343 50.0898 95.5354 50.0898 94.8705C50.0898 94.3386 50.5407 93.8066 51.292 93.8066H115.91C116.511 93.8066 117.112 94.2056 117.112 94.8705C117.112 95.4024 116.511 95.9343 115.91 95.9343Z" fill="#C0D6FF"/>
<path d="M115.91 102.317H51.292C50.6909 102.317 50.0898 101.918 50.0898 101.253C50.0898 100.721 50.5407 100.189 51.292 100.189H115.91C116.511 100.189 117.112 100.588 117.112 101.253C117.112 101.918 116.511 102.317 115.91 102.317Z" fill="#C0D6FF"/>
<path d="M77.6843 77.8484H50.5939C50.3418 77.8484 50.0898 77.4495 50.0898 76.7846C50.0898 76.2526 50.2788 75.7207 50.5939 75.7207H77.6843C77.9363 75.7207 78.1883 76.1196 78.1883 76.7846C78.1883 77.3165 77.9363 77.8484 77.6843 77.8484Z" fill="#C0D6FF"/>
<path d="M99.6353 84.2312H51.4281C50.9797 84.2312 50.5312 83.8323 50.5312 83.1674C50.5312 82.6354 50.8676 82.1035 51.4281 82.1035H99.6353C100.084 82.1035 100.532 82.5025 100.532 83.1674C100.532 83.8323 100.084 84.2312 99.6353 84.2312Z" fill="#C0D6FF"/>
<path d="M44.7983 62.6907L43.832 58.3213" stroke="#182052" stroke-miterlimit="10" stroke-linecap="round" stroke-linejoin="round"/>
<path d="M78.3775 122.527L64.4871 125.804C62.4337 126.29 60.3803 125.319 59.4141 123.498" stroke="#6F7590" stroke-miterlimit="10" stroke-linecap="round" stroke-linejoin="round"/>
<path d="M127.055 53.4668L135.731 88.052" stroke="#6F7590" stroke-miterlimit="10" stroke-linecap="round" stroke-linejoin="round"/>
<path d="M87.0742 10.5006L91.7849 9.4082L97.5826 13.2921" stroke="#6F7590" stroke-miterlimit="10" stroke-linecap="round" stroke-linejoin="round"/>
<path d="M44.4338 60.8702L36.5828 27.3712C35.9788 24.8224 37.549 22.395 39.9648 21.7881" stroke="#6F7590" stroke-miterlimit="10" stroke-linecap="round" stroke-linejoin="round"/>
<path d="M36.586 105.293L33.204 103.837C30.7883 102.866 29.7012 100.195 30.6675 97.768L45.1618 61.9629" stroke="#6F7590" stroke-miterlimit="10" stroke-linecap="round" stroke-linejoin="round"/>
<path d="M110.744 120.222L107.241 129.203C106.275 131.631 103.617 132.723 101.202 131.752L73.0586 120.222" stroke="#6F7590" stroke-miterlimit="10" stroke-linecap="round" stroke-linejoin="round"/>
<path d="M108.453 19.2393L122.585 25.0652L134.905 58.5641L130.919 68.7595" stroke="#6F7590" stroke-miterlimit="10" stroke-linecap="round" stroke-linejoin="round"/>
<path d="M64.8477 13.2923L67.2634 7.34503C68.2297 4.91756 70.887 3.82521 73.3027 4.79619L93.3531 13.0496" stroke="#6F7590" stroke-miterlimit="10" stroke-linecap="round" stroke-linejoin="round"/>
<path d="M64.8483 13.292H103.017L126.932 39.6299L127.415 83.8097L127.778 115.609C127.778 118.158 125.724 120.222 123.188 120.222H49.75C47.2135 120.222 45.1602 118.158 45.1602 115.609V18.0255C45.1602 15.4767 47.2135 13.4134 49.75 13.4134H53.132" stroke="#6F7590" stroke-miterlimit="10" stroke-linecap="round" stroke-linejoin="round"/>
<path d="M3.68134 38.975C5.42325 38.975 6.83535 37.5629 6.83535 35.821C6.83535 34.0791 5.42325 32.667 3.68134 32.667C1.93944 32.667 0.527344 34.0791 0.527344 35.821C0.527344 37.5629 1.93944 38.975 3.68134 38.975Z" fill="#F1F3F9"/>
<path d="M150.688 7.63419L149.906 7.50468C149.516 7.50468 149.255 7.24591 149.125 6.85776C148.995 6.59899 148.995 6.34022 148.864 6.21084C148.734 5.95207 148.734 5.56366 148.995 5.30489L149.386 4.65797C149.646 4.26981 149.646 3.7524 149.255 3.49363L147.952 2.19979C147.562 1.81164 147.041 1.81151 146.78 2.07028L146.129 2.45881C145.868 2.71758 145.477 2.71707 145.087 2.58769C144.826 2.45831 144.566 2.3293 144.435 2.3293C144.044 2.19992 143.914 1.94102 143.784 1.55287L143.654 0.776433C143.523 0.258895 143.133 0 142.742 0H140.918C140.397 0 140.006 0.38828 140.006 0.776433L139.876 1.55287C139.876 1.94102 139.615 2.19992 139.225 2.3293C138.964 2.45868 138.703 2.45831 138.573 2.58769C138.313 2.71707 137.922 2.71758 137.661 2.45881L137.01 2.07028C136.619 1.81151 136.098 1.81164 135.837 2.19979L134.535 3.49363C134.144 3.88179 134.144 4.3992 134.405 4.65797L134.796 5.30489C135.056 5.56366 135.056 5.95207 134.926 6.21084C134.795 6.4696 134.665 6.72837 134.665 6.85776C134.535 7.24591 134.274 7.3753 133.883 7.50468L133.102 7.63419C132.581 7.76358 132.32 8.15135 132.32 8.5395V10.3508C132.32 10.8683 132.711 11.2567 133.102 11.2567L133.883 11.3862C134.274 11.3862 134.535 11.645 134.665 12.0331C134.795 12.2919 134.795 12.5507 134.926 12.6801C135.056 12.9388 135.056 13.3267 134.796 13.7149L134.405 14.3618C134.144 14.75 134.144 15.2675 134.535 15.6557L135.837 16.9495C136.228 17.3377 136.75 17.3378 137.01 17.079L137.661 16.6911C137.922 16.4323 138.313 16.4322 138.573 16.5616C138.834 16.691 139.094 16.82 139.225 16.82C139.615 16.9494 139.746 17.2083 139.876 17.5964L140.006 18.3729C140.137 18.8904 140.527 19.1493 140.918 19.1493H142.742C143.263 19.1493 143.654 18.761 143.654 18.3729L143.784 17.5964C143.784 17.2083 144.044 16.9494 144.435 16.82C144.696 16.6906 144.956 16.691 145.087 16.5616C145.347 16.4322 145.738 16.4323 146.129 16.6911L146.78 17.079C147.171 17.3378 147.692 17.3377 147.952 16.9495L149.255 15.6557C149.646 15.2675 149.646 14.75 149.386 14.3618L148.995 13.7149C148.734 13.4561 148.734 13.0682 148.864 12.6801C148.995 12.4213 149.125 12.1625 149.125 12.0331C149.255 11.645 149.516 11.5156 149.906 11.3862L150.688 11.2567C151.209 11.1273 151.47 10.7389 151.47 10.3508V8.5395C151.47 8.02197 151.209 7.63419 150.688 7.63419ZM142.09 12.5506C140.267 12.5506 138.834 11.1273 138.834 9.31594C138.834 7.50455 140.267 6.08132 142.09 6.08132C143.914 6.08132 145.347 7.50455 145.347 9.31594C145.217 11.1273 143.784 12.5506 142.09 12.5506Z" fill="url(#paint0_linear_4300_93706)"/>
<path d="M13.793 73.788L13.2284 73.6945C12.9462 73.6945 12.7582 73.5076 12.6641 73.2272C12.57 73.0404 12.5698 72.8535 12.4757 72.76C12.3817 72.5731 12.3818 72.2926 12.5699 72.1057L12.8522 71.6385C13.0404 71.3582 13.0403 70.9845 12.758 70.7976L11.8172 69.8632C11.535 69.5828 11.1587 69.5827 10.9706 69.7696L10.5002 70.0502C10.312 70.2371 10.0297 70.2367 9.74745 70.1433C9.55928 70.0499 9.37112 69.9567 9.27704 69.9567C8.99479 69.8632 8.90071 69.6763 8.80663 69.3959L8.71245 68.8352C8.61837 68.4614 8.33617 68.2744 8.05392 68.2744H6.73686C6.36053 68.2744 6.07833 68.5548 6.07833 68.8352L5.98416 69.3959C5.98416 69.6763 5.79599 69.8632 5.51375 69.9567C5.32558 70.0501 5.13742 70.0499 5.04334 70.1433C4.85517 70.2367 4.57297 70.2371 4.38481 70.0502L3.9144 69.7696C3.63215 69.5827 3.25568 69.5828 3.06752 69.8632L2.1267 70.7976C1.84445 71.0779 1.84459 71.4516 2.03275 71.6385L2.31504 72.1057C2.50321 72.2926 2.50307 72.5731 2.40899 72.76C2.31491 72.9469 2.22087 73.1338 2.22087 73.2272C2.12679 73.5076 1.93853 73.601 1.65628 73.6945L1.09193 73.788C0.7156 73.8814 0.527344 74.1615 0.527344 74.4418V75.75C0.527344 76.1237 0.809682 76.4043 1.09193 76.4043L1.65628 76.4978C1.93853 76.4978 2.12679 76.6847 2.22087 76.965C2.31495 77.1519 2.31491 77.3388 2.40899 77.4322C2.50307 77.6191 2.50321 77.8993 2.31504 78.1796L2.03275 78.6468C1.84459 78.9272 1.84445 79.3009 2.1267 79.5813L3.06752 80.5157C3.34976 80.7961 3.72623 80.7961 3.9144 80.6093L4.38481 80.3291C4.57297 80.1422 4.85517 80.1421 5.04334 80.2356C5.2315 80.329 5.41966 80.4222 5.51375 80.4222C5.79599 80.5156 5.89008 80.7026 5.98416 80.9829L6.07833 81.5437C6.17241 81.9175 6.45462 82.1045 6.73686 82.1045H8.05392C8.43025 82.1045 8.71245 81.824 8.71245 81.5437L8.80663 80.9829C8.80663 80.7026 8.99479 80.5156 9.27704 80.4222C9.4652 80.3287 9.65337 80.329 9.74745 80.2356C9.93561 80.1421 10.2179 80.1422 10.5002 80.3291L10.9706 80.6093C11.2528 80.7961 11.629 80.7961 11.8172 80.5157L12.758 79.5813C13.0403 79.3009 13.0404 78.9272 12.8522 78.6468L12.5699 78.1796C12.3818 77.9927 12.3817 77.7126 12.4757 77.4322C12.5698 77.2453 12.6641 77.0585 12.6641 76.965C12.7582 76.6847 12.9462 76.5912 13.2284 76.4978L13.793 76.4043C14.1694 76.3108 14.3574 76.0303 14.3574 75.75V74.4418C14.3574 74.0681 14.1694 73.788 13.793 73.788ZM7.58351 77.3387C6.26636 77.3387 5.23145 76.3108 5.23145 75.0026C5.23145 73.6944 6.26636 72.6665 7.58351 72.6665C8.90066 72.6665 9.93556 73.6944 9.93556 75.0026C9.84148 76.3108 8.80658 77.3387 7.58351 77.3387Z" fill="url(#paint1_linear_4300_93706)"/>
<g filter="url(#filter0_d_4300_93706)">
<path d="M148.258 120.25C147.801 122.194 147.115 124.138 146.314 125.854C144.142 129.972 140.825 133.289 136.709 135.348C132.478 137.521 127.447 138.322 122.301 137.292C110.409 134.776 102.748 123.223 105.263 111.328C107.779 99.4322 119.328 91.7687 131.22 94.285C135.451 95.2001 139.225 97.259 142.312 100.233C147.572 105.494 149.745 113.044 148.258 120.25Z" fill="url(#paint2_linear_4300_93706)"/>
</g>
<path d="M133.504 113.642H128.692V108.83C128.692 107.867 127.943 107.012 126.874 107.012C125.912 107.012 125.056 107.76 125.056 108.83V113.642H120.244C119.281 113.642 118.426 114.391 118.426 115.46C118.426 116.529 119.174 117.278 120.244 117.278H125.056V122.09C125.056 123.053 125.805 123.908 126.874 123.908C127.836 123.908 128.692 123.16 128.692 122.09V117.278H133.504C134.467 117.278 135.322 116.529 135.322 115.46C135.322 114.391 134.467 113.642 133.504 113.642Z" fill="white"/>
<path opacity="0.3" d="M69.7924 53.6631L63.1212 60.3344M59.3091 64.1465L63.1212 60.3344L59.3091 64.1465ZM77.6264 45.8292C76.6422 44.8581 75.8598 43.702 75.3243 42.4273C74.7888 41.1526 74.5107 39.7846 74.5061 38.402C74.5015 37.0194 74.7704 35.6495 75.2973 34.3713C75.8243 33.0931 76.5989 31.9317 77.5765 30.954C78.5542 29.9764 79.7156 29.2018 80.9938 28.6748C82.272 28.1479 83.6419 27.8789 85.0245 27.8836C86.4071 27.8882 87.7751 28.1663 89.0498 28.7018C90.3245 29.2373 91.4807 30.0197 92.4517 31.0039C94.3614 32.981 95.418 35.6292 95.3941 38.3779C95.3702 41.1266 94.2677 43.7559 92.324 45.6996C90.3803 47.6433 87.751 48.7458 85.0023 48.7697C82.2536 48.7936 79.6055 47.7369 77.6283 45.8273L77.6264 45.8292ZM77.6264 45.8292L69.7924 53.6631L77.6264 45.8292ZM69.7924 53.6631L64.0743 47.9449L57.403 54.6162L63.1212 60.3344L69.7924 53.6631Z" stroke="#84A2FF" stroke-width="5" stroke-linecap="round" stroke-linejoin="round"/>
<path d="M67.7924 51.6631L61.1212 58.3344M57.3091 62.1465L61.1212 58.3344L57.3091 62.1465ZM75.6264 43.8292C74.6422 42.8581 73.8598 41.702 73.3243 40.4273C72.7888 39.1526 72.5107 37.7846 72.5061 36.402C72.5015 35.0194 72.7704 33.6495 73.2973 32.3713C73.8243 31.0931 74.5989 29.9317 75.5765 28.954C76.5542 27.9764 77.7156 27.2018 78.9938 26.6748C80.272 26.1479 81.6419 25.8789 83.0245 25.8836C84.4071 25.8882 85.7751 26.1663 87.0498 26.7018C88.3245 27.2373 89.4807 28.0197 90.4517 29.0039C92.3614 30.981 93.418 33.6292 93.3941 36.3779C93.3702 39.1266 92.2677 41.7559 90.324 43.6996C88.3803 45.6433 85.751 46.7458 83.0023 46.7697C80.2536 46.7936 77.6055 45.7369 75.6283 43.8273L75.6264 43.8292ZM75.6264 43.8292L67.7924 51.6631L75.6264 43.8292ZM67.7924 51.6631L62.0743 45.9449L55.403 52.6162L61.1212 58.3344L67.7924 51.6631Z" stroke="#84A2FF" stroke-width="5" stroke-linecap="round" stroke-linejoin="round"/>
<defs>
<filter id="filter0_d_4300_93706" x="96.3146" y="90.6302" width="60.8709" height="60.8718" filterUnits="userSpaceOnUse" color-interpolation-filters="sRGB">
<feFlood flood-opacity="0" result="BackgroundImageFix"/>
<feColorMatrix in="SourceAlpha" type="matrix" values="0 0 0 0 0 0 0 0 0 0 0 0 0 0 0 0 0 0 127 0" result="hardAlpha"/>
<feOffset dy="5.29412"/>
<feGaussianBlur stdDeviation="4.23529"/>
<feColorMatrix type="matrix" values="0 0 0 0 0.1125 0 0 0 0 0.295916 0 0 0 0 1 0 0 0 0.22 0"/>
<feBlend mode="normal" in2="BackgroundImageFix" result="effect1_dropShadow_4300_93706"/>
<feBlend mode="normal" in="SourceGraphic" in2="effect1_dropShadow_4300_93706" result="shape"/>
</filter>
<linearGradient id="paint0_linear_4300_93706" x1="132.347" y1="9.32091" x2="150.923" y2="9.32091" gradientUnits="userSpaceOnUse">
<stop stop-color="#FF66A9"/>
<stop offset="1" stop-color="#F53689"/>
</linearGradient>
<linearGradient id="paint1_linear_4300_93706" x1="0.54636" y1="75.0062" x2="13.9628" y2="75.0062" gradientUnits="userSpaceOnUse">
<stop stop-color="#FF66A9"/>
<stop offset="1" stop-color="#F53689"/>
</linearGradient>
<linearGradient id="paint2_linear_4300_93706" x1="107.356" y1="105.311" x2="146.253" y2="127.22" gradientUnits="userSpaceOnUse">
<stop stop-color="#83A6FF"/>
<stop offset="0.994956" stop-color="#5277D7"/>
</linearGradient>
</defs>
</svg>
