<svg width="148" height="145" viewBox="0 0 148 145" fill="none" xmlns="http://www.w3.org/2000/svg">
<path d="M79.3589 125.884C110.906 125.884 136.482 100.308 136.482 68.6474C136.482 36.9872 110.794 11.4111 79.3589 11.4111C47.8114 11.4111 22.2354 36.9872 22.2354 68.6474C22.2354 100.308 47.8114 125.884 79.3589 125.884Z" fill="#F1F3F9"/>
<path d="M41.2732 58.0406L33.8933 26.5521C33.3256 24.1562 34.8016 21.8745 37.0724 21.304L85.7796 9.66699L113.369 28.4916L130.627 97.7434C131.194 100.139 129.718 102.421 127.448 102.991L60.2338 118.964C57.8496 119.534 55.5788 118.051 55.0112 115.769L40.7055 55.6447" fill="#C7D9FF"/>
<path d="M126.312 55.8721L100.312 122.272C99.404 124.553 96.9062 125.58 94.6355 124.668L30.7143 98.4272C28.4436 97.5144 27.4218 95.0045 28.3301 92.7227L62.7317 7.8408C63.64 5.55903 66.1378 4.53223 68.4085 5.44494L114.845 24.4977L126.312 55.8721Z" fill="#C7D9FF"/>
<path d="M119.613 109.494C119.613 111.89 117.683 113.83 115.299 113.83H46.2685C43.8842 113.83 41.9541 111.89 41.9541 109.494V17.767C41.9541 15.3711 43.8842 13.4316 46.2685 13.4316H96.3382L118.818 38.1889L119.273 79.7171L119.613 109.494Z" fill="white"/>
<path d="M41.2732 58.0406L33.8933 26.5521C33.3256 24.1562 34.8016 21.8745 37.0724 21.304L85.7796 9.66699L113.369 28.4916L130.627 97.7434C131.194 100.139 129.718 102.421 127.448 102.991L60.2338 118.964C57.8496 119.534 55.5788 118.051 55.0112 115.769L40.7055 55.6447" fill="#D5DDEA"/>
<path d="M126.312 55.8721L100.312 122.272C99.404 124.553 96.9062 125.58 94.6355 124.668L30.7143 98.4272C28.4436 97.5144 27.4218 95.0045 28.3301 92.7227L62.7317 7.8408C63.64 5.55903 66.1378 4.53223 68.4085 5.44494L114.845 24.4977L126.312 55.8721Z" fill="#D5DDEA"/>
<path d="M112.233 30.7734L107.351 42.6387C106.329 45.1486 107.692 48.229 110.19 49.2558L126.312 55.8729" stroke="#6F7590" stroke-miterlimit="10" stroke-linecap="round" stroke-linejoin="round"/>
<path d="M119.613 109.494C119.613 111.89 117.683 113.83 115.299 113.83H46.2685C43.8842 113.83 41.9541 111.89 41.9541 109.494V17.767C41.9541 15.3711 43.8842 13.4316 46.2685 13.4316H96.3382L118.818 38.1889L119.273 79.7171L119.613 109.494Z" fill="white"/>
<path d="M96.3389 13.4316V33.0549C96.3389 35.793 98.7231 38.0748 101.448 38.0748H118.819" fill="#D5DDEA"/>
<path d="M96.3389 23.5859V33.0553C96.3389 35.7934 98.7231 38.0752 101.448 38.0752H118.819" stroke="#6F7590" stroke-miterlimit="10" stroke-linecap="round" stroke-linejoin="round"/>
<path d="M108.458 91H47.7179C47.1529 91 46.5879 90.625 46.5879 90C46.5879 89.5 47.0117 89 47.7179 89H108.458C109.023 89 109.588 89.375 109.588 90C109.588 90.5 109.023 91 108.458 91Z" fill="#C0D6FF"/>
<path d="M108.458 97H47.7179C47.1529 97 46.5879 96.625 46.5879 96C46.5879 95.5 47.0117 95 47.7179 95H108.458C109.023 95 109.588 95.375 109.588 96C109.588 96.625 109.023 97 108.458 97Z" fill="#C0D6FF"/>
<path d="M72.5262 74H47.0617C46.8248 74 46.5879 73.625 46.5879 73C46.5879 72.5 46.7656 72 47.0617 72H72.5262C72.7631 72 73 72.375 73 73C73 73.5 72.7631 74 72.5262 74Z" fill="#C0D6FF"/>
<path d="M93.157 80H47.843C47.4215 80 47 79.625 47 79C47 78.5 47.3161 78 47.843 78H93.157C93.5785 78 94 78.375 94 79C94 79.625 93.5785 80 93.157 80Z" fill="#C0D6FF"/>
<path d="M41.6143 59.7517L40.7061 55.6445" stroke="#182052" stroke-miterlimit="10" stroke-linecap="round" stroke-linejoin="round"/>
<path d="M73.1773 115.998L60.1206 119.078C58.1905 119.535 56.2603 118.622 55.3521 116.911" stroke="#6F7590" stroke-miterlimit="10" stroke-linecap="round" stroke-linejoin="round"/>
<path d="M118.933 51.0811L127.088 83.5906" stroke="#6F7590" stroke-miterlimit="10" stroke-linecap="round" stroke-linejoin="round"/>
<path d="M81.3516 10.6938L85.7795 9.66699L91.2293 13.3178" stroke="#6F7590" stroke-miterlimit="10" stroke-linecap="round" stroke-linejoin="round"/>
<path d="M41.2732 58.0402L33.8933 26.5518C33.3256 24.1559 34.8016 21.8742 37.0724 21.3037" stroke="#6F7590" stroke-miterlimit="10" stroke-linecap="round" stroke-linejoin="round"/>
<path d="M33.8933 99.797L30.7143 98.428C28.4436 97.5152 27.4218 95.0053 28.3301 92.7235L41.9545 59.0674" stroke="#6F7590" stroke-miterlimit="10" stroke-linecap="round" stroke-linejoin="round"/>
<path d="M103.605 113.83L100.312 122.273C99.4037 124.554 96.9059 125.581 94.6352 124.668L68.1812 113.83" stroke="#6F7590" stroke-miterlimit="10" stroke-linecap="round" stroke-linejoin="round"/>
<path d="M101.448 18.9082L114.732 24.3845L126.312 55.8729L122.566 65.4564" stroke="#6F7590" stroke-miterlimit="10" stroke-linecap="round" stroke-linejoin="round"/>
<path d="M60.4611 13.3179L62.7318 7.72752C63.6401 5.44574 66.1379 4.41895 68.4086 5.33166L87.2557 13.0897" stroke="#6F7590" stroke-miterlimit="10" stroke-linecap="round" stroke-linejoin="round"/>
<path d="M60.4606 13.3184H96.3382L118.818 38.0756L119.273 79.6038L119.613 109.495C119.613 111.891 117.683 113.83 115.299 113.83H46.2685C43.8842 113.83 41.9541 111.891 41.9541 109.495V17.7678C41.9541 15.372 43.8842 13.4324 46.2685 13.4324H49.4475" stroke="#6F7590" stroke-miterlimit="10" stroke-linecap="round" stroke-linejoin="round"/>
<path d="M2.96471 37.4587C4.60207 37.4587 5.92941 36.1314 5.92941 34.494C5.92941 32.8566 4.60207 31.5293 2.96471 31.5293C1.32734 31.5293 0 32.8566 0 34.494C0 36.1314 1.32734 37.4587 2.96471 37.4587Z" fill="#F1F3F9"/>
<path d="M141.148 7.99925L140.413 7.87751C140.046 7.87751 139.801 7.63427 139.678 7.26942C139.556 7.02618 139.556 6.78294 139.433 6.66132C139.311 6.41808 139.311 6.05299 139.556 5.80975L139.923 5.20165C140.168 4.83679 140.168 4.35044 139.801 4.1072L138.576 2.89101C138.209 2.52615 137.719 2.52603 137.474 2.76927L136.862 3.13448C136.617 3.37772 136.25 3.37725 135.882 3.25563C135.638 3.13401 135.393 3.01274 135.27 3.01274C134.903 2.89113 134.78 2.64777 134.658 2.28291L134.535 1.55308C134.413 1.0666 134.046 0.823242 133.678 0.823242H131.964C131.474 0.823242 131.107 1.18822 131.107 1.55308L130.984 2.28291C130.984 2.64777 130.74 2.89113 130.372 3.01274C130.127 3.13436 129.882 3.13401 129.76 3.25563C129.515 3.37725 129.148 3.37772 128.903 3.13448L128.291 2.76927C127.923 2.52603 127.433 2.52615 127.188 2.89101L125.964 4.1072C125.597 4.47206 125.597 4.95841 125.842 5.20165L126.209 5.80975C126.454 6.05299 126.454 6.41808 126.331 6.66132C126.209 6.90456 126.086 7.1478 126.086 7.26942C125.964 7.63427 125.719 7.75589 125.352 7.87751L124.617 7.99925C124.127 8.12087 123.882 8.48537 123.882 8.85023V10.5528C123.882 11.0393 124.25 11.4044 124.617 11.4044L125.352 11.5261C125.719 11.5261 125.964 11.7693 126.086 12.1342C126.209 12.3774 126.209 12.6207 126.331 12.7423C126.454 12.9855 126.454 13.3501 126.209 13.715L125.842 14.3231C125.597 14.688 125.597 15.1744 125.964 15.5393L127.188 16.7555C127.556 17.1203 128.046 17.1205 128.291 16.8772L128.903 16.5126C129.148 16.2694 129.515 16.2692 129.76 16.3909C130.005 16.5125 130.25 16.6337 130.372 16.6337C130.74 16.7554 130.862 16.9987 130.984 17.3636L131.107 18.0934C131.229 18.5799 131.597 18.8232 131.964 18.8232H133.678C134.168 18.8232 134.535 18.4583 134.535 18.0934L134.658 17.3636C134.658 16.9987 134.903 16.7554 135.27 16.6337C135.515 16.5121 135.76 16.5125 135.882 16.3909C136.127 16.2692 136.495 16.2694 136.862 16.5126L137.474 16.8772C137.842 17.1205 138.331 17.1203 138.576 16.7555L139.801 15.5393C140.168 15.1744 140.168 14.688 139.923 14.3231L139.556 13.715C139.311 13.4718 139.311 13.1071 139.433 12.7423C139.556 12.499 139.678 12.2558 139.678 12.1342C139.801 11.7693 140.046 11.6477 140.413 11.5261L141.148 11.4044C141.638 11.2827 141.882 10.9176 141.882 10.5528V8.85023C141.882 8.36375 141.638 7.99925 141.148 7.99925ZM133.066 12.6205C131.352 12.6205 130.005 11.2827 130.005 9.58006C130.005 7.87739 131.352 6.53958 133.066 6.53958C134.78 6.53958 136.127 7.87739 136.127 9.58006C136.005 11.2827 134.658 12.6205 133.066 12.6205Z" fill="url(#paint0_linear_3658:66388)"/>
<path d="M12.4695 70.1827L11.9388 70.0948C11.6735 70.0948 11.4968 69.9191 11.4083 69.6556C11.3199 69.4799 11.3197 69.3042 11.2313 69.2164C11.1429 69.0407 11.1429 68.777 11.3198 68.6014L11.5852 68.1622C11.762 67.8987 11.7619 67.5474 11.4966 67.3717L10.6123 66.4934C10.347 66.2299 9.99332 66.2298 9.81645 66.4055L9.37427 66.6692C9.1974 66.8449 8.93205 66.8446 8.66674 66.7567C8.48987 66.6689 8.313 66.5813 8.22456 66.5813C7.95925 66.4935 7.87082 66.3177 7.78238 66.0542L7.69386 65.5271C7.60542 65.1758 7.34016 65 7.07485 65H5.83684C5.4831 65 5.21783 65.2636 5.21783 65.5271L5.12931 66.0542C5.12931 66.3177 4.95244 66.4935 4.68713 66.5813C4.51026 66.6691 4.33339 66.6689 4.24496 66.7567C4.06808 66.8446 3.80282 66.8449 3.62595 66.6692L3.18377 66.4055C2.91846 66.2298 2.56459 66.2299 2.38772 66.4934L1.50336 67.3717C1.23806 67.6353 1.23819 67.9865 1.41506 68.1622L1.68041 68.6014C1.85728 68.777 1.85715 69.0407 1.76871 69.2164C1.68028 69.3921 1.59189 69.5677 1.59189 69.6556C1.50345 69.9191 1.32649 70.0069 1.06118 70.0948L0.5307 70.1827C0.176958 70.2705 0 70.5338 0 70.7973V72.0269C0 72.3782 0.265393 72.6419 0.5307 72.6419L1.06118 72.7298C1.32649 72.7298 1.50345 72.9055 1.59189 73.169C1.68032 73.3447 1.68028 73.5204 1.76871 73.6082C1.85715 73.7839 1.85728 74.0472 1.68041 74.3107L1.41506 74.7499C1.23819 75.0134 1.23806 75.3647 1.50336 75.6283L2.38772 76.5066C2.65303 76.7701 3.0069 76.7702 3.18377 76.5945L3.62595 76.3312C3.80282 76.1555 4.06808 76.1554 4.24496 76.2433C4.42183 76.3311 4.5987 76.4187 4.68713 76.4187C4.95244 76.5065 5.04088 76.6823 5.12931 76.9458L5.21783 77.4729C5.30627 77.8242 5.57153 78 5.83684 78H7.07485C7.4286 78 7.69386 77.7364 7.69386 77.4729L7.78238 76.9458C7.78238 76.6823 7.95925 76.5065 8.22456 76.4187C8.40143 76.3309 8.5783 76.3311 8.66674 76.2433C8.84361 76.1554 9.10896 76.1555 9.37427 76.3312L9.81645 76.5945C10.0818 76.7702 10.4354 76.7701 10.6123 76.5066L11.4966 75.6283C11.7619 75.3647 11.762 75.0134 11.5852 74.7499L11.3198 74.3107C11.1429 74.135 11.1429 73.8717 11.2313 73.6082C11.3197 73.4325 11.4083 73.2569 11.4083 73.169C11.4968 72.9055 11.6735 72.8177 11.9388 72.7298L12.4695 72.6419C12.8233 72.5541 13 72.2904 13 72.0269V70.7973C13 70.4459 12.8233 70.1827 12.4695 70.1827ZM6.63268 73.5203C5.39458 73.5203 4.42178 72.5541 4.42178 71.3244C4.42178 70.0947 5.39458 69.1285 6.63268 69.1285C7.87077 69.1285 8.84357 70.0947 8.84357 71.3244C8.75513 72.5541 7.78234 73.5203 6.63268 73.5203Z" fill="url(#paint1_linear_3658:66388)"/>
<g filter="url(#filter0_d_3658:66388)">
<path d="M138.864 113.856C138.434 115.684 137.789 117.511 137.037 119.124C134.994 122.995 131.877 126.113 128.008 128.048C124.031 130.091 119.302 130.843 114.465 129.876C103.286 127.51 96.0849 116.651 98.4496 105.47C100.814 94.2879 111.67 87.0843 122.849 89.4497C126.825 90.3098 130.372 92.2451 133.275 95.0405C138.219 99.9863 140.261 107.082 138.864 113.856Z" fill="url(#paint2_linear_3658:66388)"/>
</g>
<path d="M124.997 107.644H120.474V103.121C120.474 102.216 119.77 101.412 118.765 101.412C117.86 101.412 117.056 102.116 117.056 103.121V107.644H112.532C111.628 107.644 110.823 108.348 110.823 109.353C110.823 110.358 111.527 111.062 112.532 111.062H117.056V115.586C117.056 116.49 117.759 117.294 118.765 117.294C119.669 117.294 120.474 116.591 120.474 115.586V111.062H124.997C125.902 111.062 126.706 110.358 126.706 109.353C126.706 108.348 125.902 107.644 124.997 107.644Z" fill="white"/>
<g opacity="0.3">
<path opacity="0.6" d="M79.0209 31.3113C78.2661 31.3113 76.4545 30.6289 75.8507 30.4014C72.7559 28.885 67.5476 24.7148 64.6793 24.7148C61.811 24.7148 56.6027 28.885 53.4325 30.4014C52.9041 30.6289 51.017 31.3113 50.2622 31.3113C49.0545 31.3871 48.1487 32.4486 48.2997 33.5859C48.6016 36.3912 49.3564 41.3954 51.319 47.8402C53.8099 55.8014 60.9052 60.5781 63.6225 62.1703C64.3019 62.5494 65.0567 62.5494 65.736 62.1703C68.4534 60.5781 75.5487 55.8014 77.9642 47.8402C79.9267 41.3954 80.6815 36.3912 80.9834 33.5859C81.1344 32.3727 80.2286 31.3113 79.0209 31.3113Z" fill="#84A2FF"/>
</g>
<path d="M77.8132 27.5964C77.0584 27.5964 75.2468 26.914 74.6429 26.6866C71.4727 25.246 66.2644 21 63.3961 21C60.5278 21 55.3195 25.1701 52.1493 26.6866C51.6209 26.914 49.7338 27.5964 48.979 27.5964C47.7713 27.6722 46.8655 28.7337 47.0165 29.871C47.3184 32.6764 48.0732 37.6806 50.0357 44.1253C52.6021 52.0865 59.6975 56.8632 62.4148 58.4555C63.0942 58.8346 63.849 58.8346 64.5283 58.4555C67.2457 56.8632 74.341 52.0865 76.7564 44.1253C78.719 37.6806 79.4738 32.6764 79.7757 29.871C79.9267 28.7337 79.0209 27.6722 77.8132 27.5964Z" fill="#C0D6FF"/>
<path d="M79.7003 30.4776C79.7003 30.2501 79.7757 30.0227 79.7757 29.871C79.9267 28.6579 79.0209 27.5964 77.8132 27.5964C77.0584 27.5964 75.2468 26.914 74.643 26.6866C71.4727 25.246 66.2644 21 63.3961 21C62.5658 21 61.5091 21.3791 60.3768 21.9098" stroke="#6F7590" stroke-miterlimit="10" stroke-linecap="round" stroke-linejoin="round"/>
<path d="M53.2062 26.1553C52.8288 26.3827 52.5269 26.5344 52.2249 26.686C51.6966 26.9135 49.8095 27.5959 49.0547 27.5959C47.847 27.6717 46.9412 28.7332 47.0921 29.8705C47.3941 32.6759 48.1489 37.68 50.1114 44.1248C52.6023 52.086 59.6977 56.8627 62.415 58.4549C63.0944 58.834 63.8492 58.834 64.5285 58.4549C67.2459 56.8627 74.3412 52.086 76.7566 44.1248C77.5869 41.3194 78.2663 38.8173 78.7192 36.6185" stroke="#6F7590" stroke-miterlimit="10" stroke-linecap="round" stroke-linejoin="round"/>
<path d="M55.7725 24.6406C55.6215 24.7164 55.4705 24.7923 55.3196 24.9439" stroke="#6F7590" stroke-miterlimit="10" stroke-linecap="round" stroke-linejoin="round"/>
<path d="M60.0772 44.504L55.5482 39.9547C55.2463 39.6514 55.2463 39.0449 55.5482 38.7416L57.3598 36.9219C57.6617 36.6186 58.2656 36.6186 58.5675 36.9219L60.681 39.0449C60.9829 39.3482 61.4358 39.3482 61.6623 39.0449L67.3234 33.3583C67.6254 33.055 68.2292 33.055 68.5312 33.3583L70.3427 35.178C70.6447 35.4813 70.6447 36.0879 70.3427 36.3912L62.3416 44.504C61.6623 45.1105 60.681 45.1105 60.0772 44.504Z" fill="white"/>
<defs>
<filter id="filter0_d_3658:66388" x="89.5294" y="85.8235" width="58.2352" height="58.2351" filterUnits="userSpaceOnUse" color-interpolation-filters="sRGB">
<feFlood flood-opacity="0" result="BackgroundImageFix"/>
<feColorMatrix in="SourceAlpha" type="matrix" values="0 0 0 0 0 0 0 0 0 0 0 0 0 0 0 0 0 0 127 0" result="hardAlpha"/>
<feOffset dy="5.29412"/>
<feGaussianBlur stdDeviation="4.23529"/>
<feColorMatrix type="matrix" values="0 0 0 0 0.1125 0 0 0 0 0.295916 0 0 0 0 1 0 0 0 0.22 0"/>
<feBlend mode="normal" in2="BackgroundImageFix" result="effect1_dropShadow_3658:66388"/>
<feBlend mode="normal" in="SourceGraphic" in2="effect1_dropShadow_3658:66388" result="shape"/>
</filter>
<linearGradient id="paint0_linear_3658:66388" x1="123.907" y1="9.58474" x2="141.369" y2="9.58474" gradientUnits="userSpaceOnUse">
<stop stop-color="#FF66A9"/>
<stop offset="1" stop-color="#F53689"/>
</linearGradient>
<linearGradient id="paint1_linear_3658:66388" x1="0.017875" y1="71.3277" x2="12.6291" y2="71.3277" gradientUnits="userSpaceOnUse">
<stop stop-color="#FF66A9"/>
<stop offset="1" stop-color="#F53689"/>
</linearGradient>
<linearGradient id="paint2_linear_3658:66388" x1="100.417" y1="99.8141" x2="136.979" y2="120.408" gradientUnits="userSpaceOnUse">
<stop stop-color="#83A6FF"/>
<stop offset="0.994956" stop-color="#5277D7"/>
</linearGradient>
</defs>
</svg>
