<svg width="136" height="145" fill="none" xmlns="http://www.w3.org/2000/svg"><path d="m105.717 5.729-.584-.097c-.292 0-.486-.195-.584-.486-.097-.194-.097-.388-.194-.485-.098-.194-.097-.486.097-.68l.292-.486c.195-.29.194-.68-.097-.873l-.973-.971c-.292-.292-.681-.292-.876-.097l-.486.291c-.195.194-.487.194-.778.097-.195-.097-.389-.194-.487-.194-.292-.097-.389-.291-.486-.583l-.098-.582c-.097-.389-.389-.583-.68-.583H98.42c-.39 0-.681.291-.681.583l-.098.582c0 .292-.194.486-.486.583-.195.097-.39.097-.486.194-.195.097-.487.097-.681-.097l-.487-.291c-.292-.195-.68-.195-.875.097l-.973.97c-.292.292-.292.68-.097.874l.291.486c.195.194.195.486.098.68-.098.194-.195.388-.195.485-.097.291-.292.389-.584.486l-.583.097c-.39.097-.584.388-.584.68v1.358c0 .389.292.68.584.68l.583.097c.292 0 .487.195.584.486.097.194.097.388.195.485.097.195.097.486-.097.777l-.292.485a.746.746 0 0 0 .097.971l.973.971c.291.292.68.292.875.097l.487-.29c.194-.195.486-.195.68-.098.195.097.39.194.487.194.292.097.39.291.486.583l.098.582c.097.389.389.583.68.583h1.362c.39 0 .681-.291.681-.583l.098-.582c0-.292.194-.486.486-.583.195-.097.389-.097.487-.194.194-.097.486-.097.778.097l.486.291c.292.195.681.194.876-.097l.973-.97a.746.746 0 0 0 .097-.972l-.292-.485c-.194-.194-.195-.485-.097-.777.097-.194.194-.388.194-.485.098-.291.292-.388.584-.486l.584-.097c.389-.097.583-.388.583-.68V6.408c0-.388-.194-.68-.583-.68Zm-6.42 3.69a2.406 2.406 0 0 1-2.433-2.428c0-1.36 1.07-2.427 2.432-2.427a2.406 2.406 0 0 1 2.432 2.427c-.097 1.36-1.167 2.427-2.432 2.427Z" fill="url(#illustration_no_groups__a)"/><path d="m19.534 110.078-.39-.097c-.194 0-.291-.195-.389-.292 0-.097-.097-.291-.194-.388-.098-.194-.097-.388.097-.485l.195-.291a.829.829 0 0 0 0-.68l-.681-.68a.471.471 0 0 0-.681 0l-.292.194c-.195.097-.39.097-.486 0-.098-.097-.292-.097-.39-.194-.194-.097-.291-.194-.291-.388l-.098-.389c0-.194-.194-.388-.486-.388h-.876c-.291 0-.486.194-.486.388l-.097.389c0 .194-.195.291-.292.388-.097 0-.292.097-.39.194-.194.097-.388.097-.486 0l-.292-.194c-.194-.194-.486-.097-.68 0l-.681.68a.469.469 0 0 0 0 .68l.194.291c.097.194.097.291 0 .485-.097.097-.097.291-.194.388-.098.195-.195.292-.39.292l-.389.097c-.194 0-.389.194-.389.485v.874c0 .292.195.486.39.486l.388.096c.195 0 .292.195.39.292 0 .097.097.291.194.388.097.194.097.389 0 .486l-.194.291a.829.829 0 0 0 0 .68l.68.68a.471.471 0 0 0 .681 0l.292-.195c.098-.097.292-.097.487-.097.097.097.292.097.389.194.194.097.292.194.292.389l.097.388c0 .194.195.388.486.388h.876c.292 0 .486-.194.486-.388l.098-.388c0-.195.194-.292.291-.389.098 0 .292-.097.39-.194.194-.097.389-.097.486.097l.292.195a.833.833 0 0 0 .68 0l.682-.68a.469.469 0 0 0 0-.68l-.195-.291a1.056 1.056 0 0 1-.097-.486c.097-.097.097-.291.194-.388.098-.194.195-.292.39-.292l.389-.096c.194 0 .389-.194.389-.486v-.874c.097-.291-.097-.485-.39-.485Zm-4.475 2.621c-.876 0-1.654-.777-1.654-1.65 0-.874.778-1.651 1.654-1.651.875 0 1.654.777 1.654 1.651 0 .873-.681 1.65-1.654 1.65Z" fill="url(#illustration_no_groups__b)"/><path d="M70.5 129c30.651 0 55.5-24.8 55.5-55.5S101.041 18 70.5 18C39.85 18 15 42.8 15 73.5S39.85 129 70.5 129Zm56.6-86.4a4.1 4.1 0 1 0 0-8.2 4.1 4.1 0 0 0 0 8.2Zm6-16a2.8 2.8 0 1 0 0-5.6 2.8 2.8 0 0 0 0 5.6Zm-116.118 15a2.8 2.8 0 1 0 0-5.6 2.8 2.8 0 0 0 0 5.6ZM5.2 102.128a5.2 5.2 0 1 0 0-10.4 5.2 5.2 0 0 0 0 10.4Z" fill="#E2EBFF"/><path d="M114.079 96h-12.49c-.59 0-1.097-.367-1.265-.856-1.224-3.506-3.925-4.363-10.465-6.85-.38-.163-.422-.652-.042-.856 1.899-.897 1.56-1.671 1.56-7.053a1.243 1.243 0 0 1-.21-.285 4.68 4.68 0 0 1-.802-2.08l-.422-.203c-1.266.285-1.181-1.02-1.519-3.547-.126-1.06.042-1.264.506-1.427l.422-.53c-2.49-5.382-1.223-8.766 1.224-9.99-.801-1.711-.844-2.323-.844-2.323s5.19.856 6.963.49c2.278-.45 5.738.08 7.046 2.975 2.152.816 2.996 2.161 3.207 3.547.296 2.284-1.012 4.77-1.266 5.749.043.04.043.082.085.122.337.163.464.449.337 1.346-.295 2.405-.253 3.914-1.519 3.547l-1.139 1.916c-.042.245-.084.326-.084.448-.043.367-.043 1.06-.043 5.056 0 .49.127.938.38 1.305.253.448.675.774 1.182.978h.042c2.954 1.182 5.063 1.957 6.625 2.569 3.46 1.345 4.051 1.712 4.346 3.954.084 1.101-.717 1.998-1.815 1.998Z" fill="#fff" stroke="#182052" stroke-miterlimit="10"/><path d="M105.464 73.25c.123-.623-.165-1.37-.411-1.91-.041-.084-.083-.167-.124-.291-.945-1.952-3.125-2.783-5.18-2.866-5.264-.29-5.758.747-7.403-.79.494.79.576 1.994-.246 3.531-.535 1.08-1.604 1.537-2.55 1.87-2.385-5.483-1.192-8.93 1.193-10.177-.782-1.744-.823-2.367-.823-2.367s5.058.872 6.785.498c2.22-.456 5.593.084 6.867 3.032 2.098.831 2.92 2.202 3.126 3.614.329 2.326-.987 4.86-1.234 5.856Z" fill="#6F7590"/><path d="M91.275 80.333c.244.448.376.363.742.689l3.789 2.648c.896.733 2.159.774 3.055.04l3.544-3.177c.123-.123.294-.454.416-.576" stroke="#182052" stroke-miterlimit="10"/><path d="m47.908 86.252-.014-.004v-2.856c2.028-1.701 3.803-3.73 4.4-6.373 1.416-.464 2.274-1.831 2.137-3.311-.026-.358-.149-.694-.246-.96l-.014-.04c-.106-.291-.184-.519-.202-.749v-.882c0-.192 0-.39-.043-.627a4.012 4.012 0 0 0-.022-.307v-.01a2.76 2.76 0 0 1-.02-.266v-.031l-.003-.031c-.133-1.06-.4-2.177-1.112-3.467a10.458 10.458 0 0 0-11.561-5.27 9.699 9.699 0 0 0-3.865 1.821l-.007.006-.317.253-.316.253-.022.018-.02.02a.42.42 0 0 1-.027.026h-.001a.094.094 0 0 1-.01.006l-.064.032-.053.049c-1.239 1.15-2.216 2.614-2.75 4.262a11.261 11.261 0 0 0-.447 4.954v.258l.005.036.021.121-.032.039-.024.048-.009.014-.019.027-.027.04a1.216 1.216 0 0 0-.125.236c-.283.53-.539 1.308-.18 2.236.145.41.335.725.567.975.233.25.489.415.734.544.121.063.243.12.357.172l.045.02.025.012-.228.073h-.002c-3.298 1.034-5.253 3.343-5.431 5.68a4.313 4.313 0 0 0 1.117 3.259c.59.656 1.4 1.194 2.426 1.566-2.173 1.686-3.541 4.248-3.897 6.77-.178 1.042.673 1.97 1.717 1.97H40.39c.46 0 .828-.339.97-.695l.011-.026.008-.027c.438-1.592 1.14-2.637 2.242-3.505 1.129-.888 2.69-1.604 4.887-2.492h.001l2.53-1.012c.15-.06.313-.123.487-.19.283-.109.591-.228.902-.357.967-.363.78-1.69-.146-1.92-.545-.137-1.086-.182-1.581-.224l-.017-.001-.046-.004-.045.005c-.393.039-.708.04-.958.04-.985-.021-1.487-.124-1.727-.203Zm-10.645-3.619c.006-.14.09-.357.37-.65.207.237.442.48.695.704l.007.006.005.004c.292.251.598.513.949.776l.02.016.023.013c.17.102.348.242.556.409a.994.994 0 0 0 .129.107v.761a11.564 11.564 0 0 0-.799-.486 5.373 5.373 0 0 0-.148-.096.34.34 0 0 1-.056-.043l-.037-.037-.043-.028c-.493-.321-.925-.608-1.24-.885-.32-.28-.417-.465-.431-.571Z" fill="#fff" stroke="#182052" stroke-miterlimit="10"/><path d="M40.034 83.927c1.772.886 4.55 1.23 7.713-.625" stroke="#182052" stroke-miterlimit="10"/><path d="M53.385 70.5a13.696 13.696 0 0 1-5.696.718c-3.038-.253-5.99-1.477-8.269-3.502-.76 2.194-2.658 3.84-4.81 4.81-.295.126-.59.253-.886.337v-.084a10.766 10.766 0 0 1 .422-4.767c.507-1.561 1.435-2.954 2.616-4.05a.58.58 0 0 1 .169-.127l.633-.506a10.864 10.864 0 0 1 3.67-1.73 10.09 10.09 0 0 1 2.236-.253 9.958 9.958 0 0 1 8.775 5.273c.633 1.224.928 2.279 1.055 3.249.085.21.085.422.085.633ZM41.783 92.06c-.802 1.012-2.32 1.054-3.586 1.012 1.35-1.308.59-5.57-4.135-5.063h-.042c-6.497-1.223-5.78-7.931.506-9.914l1.055-.338a.33.33 0 0 1 .169.169 12.26 12.26 0 0 0 1.898 3.29c-2.573 2.152 1.013 2.827 2.742 4.473 1.52.886 2.785 4.598 1.393 6.37Z" fill="#6F7590"/><path d="M34.96 77.618c2.233.812 1.611 3.015 2.842 4.466" stroke="#182052"/><path d="m59.46 46.327-.498.045v.01l.002.015.007.047c.005.039.014.093.028.164.028.143.076.355.159.646.147.519.403 1.294.85 2.394-1.738 1.032-3.011 2.833-3.45 5.325-.462 2.613-.006 5.97 1.737 10.02l-.332.452c-.355.144-.695.365-.877.82-.18.45-.168 1.053-.063 1.853.084.645.149 1.233.208 1.773.03.27.058.527.087.774.085.726.174 1.364.315 1.873.138.499.35.969.752 1.256.378.27.829.315 1.31.226l.231.108a7.526 7.526 0 0 0 1.213 3.126c.06.114.13.208.19.285l.078.097v7.209c0 .475-.11.953-.293 1.354l-.005.01c-.324.757-.94 1.343-1.718 1.677-2.916 1.223-5.268 2.14-7.205 2.897a396.691 396.691 0 0 0-1.855.727l-1.18.464-.004.001c-2.384.962-3.865 1.649-4.787 2.548-.963.94-1.276 2.064-1.511 3.71l-.001.003c-.25 1.857 1.201 3.563 3.111 3.563h49.446c1.91 0 3.362-1.706 3.11-3.563v-.006c-.257-1.734-.604-2.895-1.649-3.855-.995-.914-2.591-1.61-5.161-2.613l-1.18-.457a324.084 324.084 0 0 1-8.478-3.388.572.572 0 0 0-.226-.102c-.58-.255-1.075-.715-1.442-1.264l-.004-.008c-.317-.457-.502-1.072-.502-1.698 0-1.509-.003-2.71-.005-3.67l-.002-.67c-.002-.635-.004-1.144-.004-1.556 0-1.109.012-1.476.047-1.704.017-.101.027-.176.036-.242.015-.114.027-.203.066-.367l1.476-2.583c.416.046.802-.03 1.13-.28.397-.302.61-.788.75-1.3.143-.523.234-1.17.317-1.892l.091-.837c.055-.505.112-1.045.186-1.627v-.003c.086-.703.098-1.24-.013-1.652a1.415 1.415 0 0 0-.296-.57 1.353 1.353 0 0 0-.22-.202c.095-.3.239-.681.413-1.146l.02-.051c.232-.618.505-1.351.753-2.15.492-1.59.897-3.487.65-5.325-.157-1.17-.566-2.303-1.37-3.314-.77-.97-1.886-1.8-3.432-2.448-1.034-2.255-2.874-3.592-4.864-4.279-2.034-.702-4.245-.734-5.987-.382-.593.115-1.509.133-2.587.086a50.598 50.598 0 0 1-3.367-.282 90.821 90.821 0 0 1-4.035-.552l-.063-.01-.017-.003h-.004l-.082.492Zm0 0-.498.045-.059-.645.638.106-.081.494Z" fill="#fff" stroke="#182052" stroke-miterlimit="10"/><path d="M61.949 78.748c-.127-.169-.253-.296-.338-.464v-.422c.38.675.886 1.308 1.52 1.814l5.779 4.05a3.69 3.69 0 0 0 4.683.085l5.4-4.852c.169-.169.656-.928.824-1.097" stroke="#182052" stroke-miterlimit="10"/><path d="M82.917 65.818c.168-.928-.253-2.067-.59-2.87-.043-.126-.127-.252-.17-.421-1.476-2.953-4.725-4.135-7.847-4.303-7.974-.422-8.69 1.097-11.18-1.181.76 1.18.844 2.995-.337 5.273-.844 1.603-2.447 2.32-3.84 2.785-3.628-8.227-1.814-13.374 1.772-15.188-1.18-2.658-1.265-3.586-1.265-3.586s7.636 1.265 10.252.759c3.332-.675 8.48.127 10.378 4.556 3.164 1.266 4.388 3.249 4.683 5.443.506 3.417-1.477 7.214-1.856 8.733Z" fill="#6F7590"/><path d="M71.43 133.528c6.87 0 12.44-5.567 12.44-12.435 0-6.867-5.57-12.434-12.44-12.434-6.871 0-12.44 5.567-12.44 12.434 0 6.868 5.569 12.435 12.44 12.435Z" fill="#fff"/><path d="m89.995 136.242-2.589 2.588-7.64-7.511 2.651-2.588 7.578 7.511Z" fill="#A0B7FF"/><path d="M61.263 110.237c-5.684 5.681-5.684 14.833 0 20.45 5.683 5.618 14.84 5.681 20.46 0 5.62-5.68 5.683-14.833 0-20.45-5.684-5.618-14.777-5.681-20.46 0Zm18.187 18.178c-4.358 4.355-11.494 4.355-15.85 0-4.358-4.355-4.358-11.487 0-15.843 4.356-4.355 11.492-4.355 15.85 0 4.357 4.356 4.357 11.425 0 15.843Z" fill="url(#illustration_no_groups__c)"/><path d="M94.1 142.933c-1.2 1.199-3.094 1.199-4.23 0l-7.705-7.638a1.147 1.147 0 0 1 0-1.704l2.526-2.525c.442-.442 1.2-.442 1.705 0l7.704 7.638c1.2 1.199 1.2 3.092 0 4.229Z" fill="url(#illustration_no_groups__d)"/><path d="M71.619 128.163a.997.997 0 0 1-1.01-1.01c0-.568.505-1.073 1.073-1.073s1.073.442 1.073 1.01c-.063.631-.505 1.073-1.073 1.073h-.063Zm.063-3.219c-.568 0-1.01-.442-1.073-1.01v-2.209c0-1.073.694-2.02 1.705-2.399.82-.252 1.326-1.073 1.263-1.894a1.969 1.969 0 0 0-1.832-1.83h-.126c-.821 0-1.579.568-1.832 1.389-.126.441-.568.694-1.01.694-.126 0-.252 0-.379-.063-.505-.19-.82-.694-.694-1.263.505-1.704 2.084-2.966 3.915-2.966h.252c1.074.063 2.084.505 2.779 1.325.695.821 1.074 1.831 1.01 2.904-.063 1.578-1.136 3.03-2.589 3.598h-.126c-.126.063-.253.189-.19.378v2.02c0 .316-.063.568-.252.758-.19.189-.442.315-.758.378l-.063.19Z" fill="url(#illustration_no_groups__e)"/><path d="m89.111 142.175.758.758c1.2 1.199 3.094 1.199 4.23 0 1.138-1.2 1.2-3.093 0-4.229l-7.703-7.638c-.442-.442-1.137-.442-1.642-.063l-1.768-1.704c4.357-5.681 3.978-13.823-1.2-19.062-3.915-3.913-9.599-5.113-14.588-3.598m-6.314 4.04c-5.242 5.68-5.115 14.517.442 20.008 5.178 5.176 13.387 5.618 19.07 1.2l1.769 1.767c-.442.505-.442 1.199.063 1.641l4.61 4.545m-18.566-8.648a11.119 11.119 0 0 1-4.673-2.777c-4.357-4.355-4.357-11.487 0-15.843 4.357-4.355 11.493-4.355 15.85 0 4.358 4.356 4.358 11.488 0 15.843a10.672 10.672 0 0 1-3.03 2.146m-12.441-22.407c-.19.126-.442.252-.632.442l.632-.442Z" stroke="#182052" stroke-miterlimit="10" stroke-linecap="round" stroke-linejoin="round"/><defs><linearGradient id="illustration_no_groups__a" x1="92.02" y1="6.995" x2="105.892" y2="6.995" gradientUnits="userSpaceOnUse"><stop stop-color="#FF66A9"/><stop offset="1" stop-color="#F53689"/></linearGradient><linearGradient id="illustration_no_groups__b" x1="10.014" y1="110.82" x2="19.664" y2="110.82" gradientUnits="userSpaceOnUse"><stop stop-color="#FF66A9"/><stop offset="1" stop-color="#F53689"/></linearGradient><linearGradient id="illustration_no_groups__c" x1="58.695" y1="113.575" x2="84.322" y2="128.028" gradientUnits="userSpaceOnUse"><stop stop-color="#83A6FF"/><stop offset=".995" stop-color="#5277D7"/></linearGradient><linearGradient id="illustration_no_groups__d" x1="82.559" y1="134.165" x2="94.209" y2="140.785" gradientUnits="userSpaceOnUse"><stop stop-color="#83A6FF"/><stop offset=".995" stop-color="#5277D7"/></linearGradient><linearGradient id="illustration_no_groups__e" x1="68.144" y1="117.261" x2="76.672" y2="119.86" gradientUnits="userSpaceOnUse"><stop stop-color="#83A6FF"/><stop offset=".995" stop-color="#5277D7"/></linearGradient></defs></svg>