<svg viewBox="0 0 136 145" fill="none" xmlns="http://www.w3.org/2000/svg">
    <path
        d="M105.717 5.72885L105.133 5.63166C104.841 5.63166 104.647 5.43747 104.549 5.1462C104.452 4.95201 104.452 4.75783 104.355 4.66073C104.257 4.46655 104.258 4.17508 104.452 3.98089L104.744 3.49543C104.939 3.20415 104.938 2.81588 104.647 2.62169L103.674 1.65077C103.382 1.35949 102.993 1.35939 102.798 1.55358L102.312 1.84514C102.117 2.03933 101.825 2.03895 101.534 1.94185C101.339 1.84476 101.145 1.74795 101.047 1.74795C100.755 1.65086 100.658 1.45658 100.561 1.1653L100.463 0.582651C100.366 0.19428 100.074 0 99.7825 0H98.4207C98.0315 0 97.7398 0.291373 97.7398 0.582651L97.6424 1.1653C97.6424 1.45658 97.4478 1.65086 97.156 1.74795C96.9614 1.84505 96.7668 1.84476 96.6696 1.94185C96.475 2.03895 96.1832 2.03933 95.9886 1.84514L95.5022 1.55358C95.2104 1.35939 94.8211 1.35949 94.6266 1.65077L93.6537 2.62169C93.3619 2.91297 93.362 3.30125 93.5566 3.49543L93.8485 3.98089C94.0431 4.17508 94.0429 4.46655 93.9456 4.66073C93.8483 4.85492 93.7511 5.0491 93.7511 5.1462C93.6538 5.43747 93.4592 5.53457 93.1673 5.63166L92.5838 5.72885C92.1947 5.82594 92 6.11693 92 6.40821V7.76741C92 8.15578 92.2919 8.44725 92.5838 8.44725L93.1673 8.54444C93.4592 8.54444 93.6538 8.73863 93.7511 9.0299C93.8484 9.22409 93.8483 9.41827 93.9456 9.51537C94.0429 9.70955 94.0431 10.0006 93.8485 10.2919L93.5566 10.7774C93.362 11.0687 93.3619 11.457 93.6537 11.7483L94.6266 12.7192C94.9184 13.0105 95.3077 13.0106 95.5022 12.8164L95.9886 12.5253C96.1832 12.3311 96.475 12.3311 96.6696 12.4281C96.8641 12.5252 97.0587 12.622 97.156 12.622C97.4478 12.7191 97.5451 12.9134 97.6424 13.2047L97.7398 13.7873C97.837 14.1757 98.1288 14.37 98.4207 14.37H99.7825C100.172 14.37 100.463 14.0786 100.463 13.7873L100.561 13.2047C100.561 12.9134 100.755 12.7191 101.047 12.622C101.242 12.525 101.436 12.5252 101.534 12.4281C101.728 12.3311 102.02 12.3311 102.312 12.5253L102.798 12.8164C103.09 13.0106 103.479 13.0105 103.674 12.7192L104.647 11.7483C104.938 11.457 104.939 11.0687 104.744 10.7774L104.452 10.2919C104.258 10.0977 104.257 9.80664 104.355 9.51537C104.452 9.32118 104.549 9.127 104.549 9.0299C104.647 8.73863 104.841 8.64153 105.133 8.54444L105.717 8.44725C106.106 8.35016 106.3 8.05869 106.3 7.76741V6.40821C106.3 6.01984 106.106 5.72885 105.717 5.72885ZM99.2961 9.41818C97.9342 9.41818 96.8641 8.35016 96.8641 6.99086C96.8641 5.63157 97.9342 4.56355 99.2961 4.56355C100.658 4.56355 101.728 5.63157 101.728 6.99086C101.631 8.35016 100.561 9.41818 99.2961 9.41818Z"
        fill="url(#paint0_linear_385_69631)" />
    <path
        d="M19.5336 110.078L19.1446 109.981C18.95 109.981 18.8526 109.786 18.7553 109.689C18.7553 109.592 18.6581 109.398 18.5608 109.301C18.4635 109.107 18.4636 108.913 18.6582 108.816L18.8527 108.525C18.95 108.33 18.95 108.039 18.8527 107.845L18.1718 107.165C17.9772 106.971 17.6854 106.971 17.4909 107.165L17.199 107.359C17.0044 107.456 16.8098 107.456 16.7126 107.359C16.6153 107.262 16.4206 107.262 16.3233 107.165C16.1287 107.068 16.0316 106.971 16.0316 106.777L15.9343 106.388C15.9343 106.194 15.7397 106 15.4479 106H14.5724C14.2806 106 14.086 106.194 14.086 106.388L13.9886 106.777C13.9886 106.971 13.794 107.068 13.6967 107.165C13.5995 107.165 13.405 107.262 13.3077 107.359C13.1132 107.456 12.9186 107.456 12.8213 107.359L12.5294 107.165C12.3349 106.971 12.0431 107.068 11.8485 107.165L11.1676 107.845C10.973 108.039 10.973 108.33 11.1676 108.525L11.3621 108.816C11.4594 109.01 11.4594 109.107 11.3621 109.301C11.2648 109.398 11.2648 109.592 11.1676 109.689C11.0703 109.884 10.9729 109.981 10.7783 109.981L10.3893 110.078C10.1947 110.078 10 110.272 10 110.563V111.437C10 111.729 10.1947 111.923 10.3893 111.923L10.7783 112.019C10.9729 112.019 11.0703 112.214 11.1676 112.311C11.1676 112.408 11.2648 112.602 11.3621 112.699C11.4594 112.893 11.4594 113.088 11.3621 113.185L11.1676 113.476C11.0703 113.67 11.0703 113.962 11.1676 114.156L11.8485 114.836C12.0431 115.03 12.3349 115.03 12.5294 114.836L12.8213 114.641C12.9186 114.544 13.1132 114.544 13.3077 114.544C13.405 114.641 13.5995 114.641 13.6967 114.738C13.8913 114.835 13.9886 114.932 13.9886 115.127L14.086 115.515C14.086 115.709 14.2806 115.903 14.5724 115.903H15.4479C15.7397 115.903 15.9343 115.709 15.9343 115.515L16.0316 115.127C16.0316 114.932 16.226 114.835 16.3233 114.738C16.4206 114.738 16.6153 114.641 16.7126 114.544C16.9071 114.447 17.1017 114.447 17.199 114.641L17.4909 114.836C17.6854 114.933 17.9772 114.933 18.1718 114.836L18.8527 114.156C19.0473 113.962 19.0473 113.67 18.8527 113.476L18.6582 113.185C18.5609 112.991 18.5608 112.796 18.5608 112.699C18.6581 112.602 18.6581 112.408 18.7553 112.311C18.8526 112.117 18.95 112.019 19.1446 112.019L19.5336 111.923C19.7282 111.923 19.9229 111.729 19.9229 111.437V110.563C20.0202 110.272 19.8255 110.078 19.5336 110.078ZM15.0588 112.699C14.1833 112.699 13.4049 111.922 13.4049 111.049C13.4049 110.175 14.1833 109.398 15.0588 109.398C15.9344 109.398 16.7126 110.175 16.7126 111.049C16.7126 111.922 16.0316 112.699 15.0588 112.699Z"
        fill="url(#paint1_linear_385_69631)" />
    <path
        d="M70.5 129C101.151 129 126 104.2 126 73.5C126 42.8002 101.041 18 70.5 18C39.8491 18 15 42.8002 15 73.5C15 104.2 39.8491 129 70.5 129Z"
        fill="#E2EBFF" />
    <path
        d="M127.1 42.6C129.364 42.6 131.2 40.7644 131.2 38.5C131.2 36.2357 129.364 34.4 127.1 34.4C124.836 34.4 123 36.2357 123 38.5C123 40.7644 124.836 42.6 127.1 42.6Z"
        fill="#E2EBFF" />
    <path
        d="M133.1 26.6C134.646 26.6 135.9 25.3464 135.9 23.8C135.9 22.2536 134.646 21 133.1 21C131.554 21 130.3 22.2536 130.3 23.8C130.3 25.3464 131.554 26.6 133.1 26.6Z"
        fill="#E2EBFF" />
    <path
        d="M16.982 41.6C18.5284 41.6 19.782 40.3464 19.782 38.8C19.782 37.2536 18.5284 36 16.982 36C15.4356 36 14.182 37.2536 14.182 38.8C14.182 40.3464 15.4356 41.6 16.982 41.6Z"
        fill="#E2EBFF" />
    <path
        d="M5.2 102.128C8.07188 102.128 10.4 99.7999 10.4 96.9281C10.4 94.0562 8.07188 91.7281 5.2 91.7281C2.32812 91.7281 0 94.0562 0 96.9281C0 99.7999 2.32812 102.128 5.2 102.128Z"
        fill="#E2EBFF" />
    <path
        d="M89.9211 58.6175L89.9212 58.6175L89.9218 58.6176L89.9244 58.6181L89.935 58.6199L89.9777 58.627C90.0154 58.6333 90.0713 58.6425 90.1431 58.6541C90.2869 58.6773 90.4946 58.7102 90.7496 58.7484C91.2599 58.825 91.958 58.923 92.71 59.0092C93.4631 59.0954 94.2644 59.1692 94.983 59.1981C95.7138 59.2276 96.3163 59.2085 96.6933 59.1277L96.6983 59.1267L96.6983 59.1267C97.9137 58.8791 99.44 58.9003 100.848 59.3866C102.211 59.8574 103.479 60.772 104.216 62.3079C105.262 62.7478 106.027 63.3259 106.565 63.9978C107.135 64.7099 107.428 65.5029 107.545 66.2941L107.546 66.3048L107.546 66.3049C107.707 67.5897 107.43 68.9035 107.101 69.992C106.936 70.5397 106.754 71.0422 106.6 71.4626L106.594 71.4806C106.494 71.7527 106.411 71.9794 106.35 72.1644C106.505 72.2978 106.627 72.477 106.694 72.7208C106.78 73.0342 106.767 73.4241 106.702 73.8975C106.666 74.2036 106.635 74.496 106.605 74.7747C106.603 74.8011 106.6 74.8273 106.597 74.8534C106.571 75.1039 106.545 75.3442 106.519 75.5694C106.461 76.061 106.396 76.5125 106.292 76.8812C106.191 77.2374 106.03 77.6103 105.714 77.8438C105.48 78.0164 105.217 78.0752 104.946 78.0585L104.025 79.6614C104.01 79.7422 103.995 79.8054 103.984 79.8527C103.982 79.8623 103.979 79.8712 103.978 79.8795C103.963 79.9428 103.964 79.9488 103.964 79.9517V79.9794L103.961 80.0069C103.923 80.3502 103.922 81.0208 103.922 85.1831C103.922 85.6064 104.027 85.9704 104.217 86.2558L104.23 86.2743L104.24 86.2937C104.415 86.6141 104.707 86.8694 105.088 87.0457H105.124L105.216 87.0838C107.135 87.8788 108.688 88.4915 109.972 88.9986C110.666 89.2724 111.282 89.5155 111.835 89.7398M89.9211 58.6175L111.836 89.7402C111.836 89.7401 111.836 89.74 111.835 89.7398M89.9211 58.6175L89.9211 58.6175L89.2959 58.5108L89.3381 59.1436L89.8369 59.1104C89.3381 59.1436 89.3381 59.1439 89.3381 59.1442L89.3381 59.1447L89.3382 59.1458L89.3384 59.1483L89.3388 59.1538L89.3401 59.1675C89.3411 59.1778 89.3425 59.1906 89.3446 59.206C89.3486 59.2367 89.3549 59.2777 89.3648 59.33C89.3846 59.4345 89.4189 59.5847 89.4782 59.7883C89.5778 60.1296 89.7487 60.6237 90.0426 61.3075C88.8791 62.0574 88.0281 63.3008 87.7258 64.981C87.4023 66.7799 87.7087 69.0593 88.8804 71.7812L88.7225 71.9865C88.4831 72.0919 88.2335 72.262 88.0965 72.6044C87.9604 72.9447 87.9693 73.3874 88.0324 73.9338L88.0323 73.9338L88.0332 73.9405C88.085 74.3419 88.1257 74.7036 88.1635 75.0402C88.1876 75.2541 88.2105 75.4578 88.2344 75.6552C88.2937 76.1442 88.358 76.5847 88.4597 76.9407C88.5589 77.2879 88.7178 77.646 89.0325 77.872C89.3159 78.0755 89.6434 78.1161 89.9743 78.0692L90.0115 78.0877C90.1377 78.8292 90.4359 79.5508 90.8399 80.1636C90.8761 80.2312 90.9253 80.3099 90.9824 80.3869C90.9834 81.1281 90.9902 81.798 90.9962 82.3867C91.0006 82.8261 91.0046 83.2203 91.0054 83.5652C91.0074 84.4398 90.9894 85.0558 90.9194 85.5198C90.8508 85.9738 90.7377 86.2408 90.5765 86.4413C90.4094 86.6492 90.1521 86.8341 89.7017 87.0543L89.69 87.0601L89.6785 87.0664C88.9173 87.4893 89.0259 88.5199 89.7604 88.8464L89.7703 88.8508L89.7804 88.8547C90.1178 88.9875 90.4443 89.1155 90.7602 89.2395C93.5305 90.326 95.4943 91.0962 96.9293 91.9655C98.4851 92.9079 99.3824 93.9466 99.9524 95.6364M89.9211 58.6175L99.9524 95.6364M111.835 89.7398C113.536 90.4241 114.646 90.8991 115.344 91.5311C116.097 92.2134 116.338 93.0394 116.49 94.2328L116.492 94.2458L116.493 94.259C116.596 95.6576 115.597 96.8632 114.18 96.8632H101.692C100.89 96.8632 100.191 96.3496 99.9524 95.6364M111.835 89.7398L99.9524 95.6364"
        fill="white" stroke="#182052" stroke-miterlimit="10" />
    <path
        d="M91.1838 80.4599C91.437 80.924 91.9792 81.2251 92.3589 81.5627L96.2825 84.3049C97.2106 85.0643 98.5185 85.1065 99.4466 84.3471L103.117 81.0564C103.244 80.9298 103.642 80.1805 103.768 80.054"
        stroke="#182052" stroke-miterlimit="10" />
    <path
        d="M105.699 72.2727C105.825 71.6398 105.53 70.8804 105.277 70.332C105.235 70.2476 105.192 70.1632 105.15 70.0366C104.18 68.0538 101.944 67.21 99.8345 67.1256C94.4343 66.8303 93.928 67.885 92.2405 66.324C92.7467 67.1256 92.8311 68.3491 91.9874 69.9101C91.4389 71.007 90.342 71.4711 89.3716 71.8086C86.9247 66.2396 88.1482 62.738 90.5951 61.4723C89.7935 59.7004 89.7513 59.0675 89.7513 59.0675C89.7513 59.0675 94.9406 59.9535 96.7125 59.5738C98.9907 59.1097 102.45 59.6582 103.758 62.6536C105.91 63.4974 106.753 64.8896 106.964 66.324C107.302 68.6866 105.952 71.2601 105.699 72.2727Z"
        fill="#6F7590" />
    <path
        d="M47.908 86.2525C47.9031 86.2509 47.8983 86.2493 47.8937 86.2478V83.392C49.9215 81.691 51.6965 79.6613 52.2933 77.0193C53.7098 76.5552 54.5676 75.1876 54.4313 73.708C54.4046 73.3496 54.2823 73.0139 54.185 72.7471C54.1802 72.734 54.1755 72.7211 54.1708 72.7083C54.0647 72.4165 53.9869 72.1892 53.9689 71.9594V71.9583V71.9566V71.9549V71.9531V71.9514V71.9497V71.948V71.9462V71.9445V71.9428V71.941V71.9393V71.9376V71.9358V71.9341V71.9324V71.9307V71.9289V71.9272V71.9255V71.9237V71.922V71.9203V71.9185V71.9168V71.9151V71.9133V71.9116V71.9099V71.9082V71.9064V71.9047V71.903V71.9012V71.8995V71.8978V71.896V71.8943V71.8926V71.8909V71.8891V71.8874V71.8857V71.8839V71.8822V71.8805V71.8787V71.877V71.8753V71.8735V71.8718V71.8701V71.8684V71.8666V71.8649V71.8632V71.8614V71.8597V71.858V71.8562V71.8545V71.8528V71.8511V71.8493V71.8476V71.8459V71.8441V71.8424V71.8407V71.8389V71.8372V71.8355V71.8337V71.832V71.8303V71.8286V71.8268V71.8251V71.8234V71.8216V71.8199V71.8182V71.8164V71.8147V71.813V71.8113V71.8095V71.8078V71.8061V71.8043V71.8026V71.8009V71.7991V71.7974V71.7957V71.794V71.7922V71.7905V71.7888V71.787V71.7853V71.7836V71.7818V71.7801V71.7784V71.7766V71.7749V71.7732V71.7715V71.7697V71.768V71.7663V71.7645V71.7628V71.7611V71.7593V71.7576V71.7559V71.7542V71.7524V71.7507V71.749V71.7472V71.7455V71.7438V71.742V71.7403V71.7386V71.7368V71.7351V71.7334V71.7317V71.7299V71.7282V71.7265V71.7247V71.723V71.7213V71.7195V71.7178V71.7161V71.7144V71.7126V71.7109V71.7092V71.7074V71.7057V71.704V71.7022V71.7005V71.6988V71.697V71.6953V71.6936V71.6919V71.6901V71.6884V71.6867V71.6849V71.6832V71.6815V71.6797V71.678V71.6763V71.6746V71.6728V71.6711V71.6694V71.6676V71.6659V71.6642V71.6624V71.6607V71.659V71.6572V71.6555V71.6538V71.6521V71.6503V71.6486V71.6469V71.6451V71.6434V71.6417V71.6399V71.6382V71.6365V71.6348V71.633V71.6313V71.6296V71.6278V71.6261V71.6244V71.6226V71.6209V71.6192V71.6174V71.6157V71.614V71.6123V71.6105V71.6088V71.6071V71.6053V71.6036V71.6019V71.6001V71.5984V71.5967V71.595V71.5932V71.5915V71.5898V71.588V71.5863V71.5846V71.5828V71.5811V71.5794V71.5777V71.5759V71.5742V71.5725V71.5707V71.569V71.5673V71.5655V71.5638V71.5621V71.5603V71.5586V71.5569V71.5552V71.5534V71.5517V71.55V71.5482V71.5465V71.5448V71.543V71.5413V71.5396V71.5379V71.5361V71.5344V71.5327V71.5309V71.5292V71.5275V71.5257V71.524V71.5223V71.5205V71.5188V71.5171V71.5154V71.5136V71.5119V71.5102V71.5084V71.5067V71.505V71.5032V71.5015V71.4998V71.4981V71.4963V71.4946V71.4929V71.4911V71.4894V71.4877V71.4859V71.4842V71.4825V71.4807V71.479V71.4773V71.4756V71.4738V71.4721V71.4704V71.4686V71.4669V71.4652V71.4634V71.4617V71.46V71.4583V71.4565V71.4548V71.4531V71.4513V71.4496V71.4479V71.4461V71.4444V71.4427V71.4409V71.4392V71.4375V71.4358V71.434V71.4323V71.4306V71.4288V71.4271V71.4254V71.4236V71.4219V71.4202V71.4185V71.4167V71.415V71.4133V71.4115V71.4098V71.4081V71.4063V71.4046V71.4029V71.4011V71.3994V71.3977V71.396V71.3942V71.3925V71.3908V71.389V71.3873V71.3856V71.3838V71.3821V71.3804V71.3787V71.3769V71.3752V71.3735V71.3717V71.37V71.3683V71.3665V71.3648V71.3631V71.3614V71.3596V71.3579V71.3562V71.3544V71.3527V71.351V71.3492V71.3475V71.3458V71.344V71.3423V71.3406V71.3389V71.3371V71.3354V71.3337V71.3319V71.3302V71.3285V71.3267V71.325V71.3233V71.3216V71.3198V71.3181V71.3164V71.3146V71.3129V71.3112V71.3094V71.3077V71.306V71.3042V71.3025V71.3008V71.2991V71.2973V71.2956V71.2939V71.2921V71.2904V71.2887V71.2869V71.2852V71.2835V71.2818V71.28V71.2783V71.2766V71.2748V71.2731V71.2714V71.2696V71.2679V71.2662V71.2644V71.2627V71.261V71.2593V71.2575V71.2558V71.2541V71.2523V71.2506V71.2489V71.2471V71.2454V71.2437V71.242V71.2402V71.2385V71.2368V71.235V71.2333V71.2316V71.2298V71.2281V71.2264V71.2246V71.2229V71.2212V71.2195V71.2177V71.216V71.2143V71.2125V71.2108V71.2091V71.2073V71.2056V71.2039V71.2022V71.2004V71.1987V71.197V71.1952V71.1935V71.1918V71.19V71.1883V71.1866V71.1849V71.1831V71.1814V71.1797V71.1779V71.1762V71.1745V71.1727V71.171V71.1693V71.1675V71.1658V71.1641V71.1624V71.1606V71.1589V71.1572V71.1554V71.1537V71.152V71.1502V71.1485V71.1468V71.1451V71.1433V71.1416V71.1399V71.1381V71.1364V71.1347V71.1329V71.1312V71.1295V71.1277V71.126V71.1243V71.1226V71.1208V71.1191V71.1174V71.1156V71.1139V71.1122V71.1104V71.1087V71.107V71.1053V71.1035V71.1018V71.1001V71.0983V71.0966V71.0949V71.0931V71.0914V71.078C53.9689 70.8863 53.9689 70.6887 53.9261 70.4507C53.9235 70.338 53.9127 70.2306 53.904 70.1435L53.9031 70.1346C53.8922 70.0249 53.8845 69.9443 53.8845 69.8679V69.8368L53.8807 69.8059C53.7483 68.7469 53.4805 67.6289 52.7694 66.3389C50.997 63.0184 47.4983 60.8036 43.5545 60.8036C42.7602 60.8036 41.9636 60.8916 41.2078 61.0691C39.7826 61.3815 38.4935 62.0053 37.3432 62.8902L37.3432 62.8901L37.3357 62.896L36.7029 63.4023L36.6813 63.4196L36.6617 63.4392C36.6391 63.4617 36.6362 63.4641 36.6343 63.4656L36.633 63.4665C36.632 63.4672 36.6289 63.4691 36.6229 63.4721L36.5588 63.5041L36.5063 63.5529C35.2672 64.7035 34.2896 66.1672 33.7552 67.8152C33.2283 69.4398 33.0947 71.1069 33.3089 72.7692V72.7694V72.7697V72.7699V72.7701V72.7704V72.7706V72.7709V72.7711V72.7714V72.7716V72.7719V72.7721V72.7724V72.7726V72.7729V72.7731V72.7734V72.7736V72.7739V72.7741V72.7743V72.7746V72.7748V72.7751V72.7753V72.7756V72.7758V72.7761V72.7763V72.7766V72.7768V72.7771V72.7773V72.7776V72.7778V72.7781V72.7783V72.7786V72.7788V72.779V72.7793V72.7795V72.7798V72.78V72.7803V72.7805V72.7808V72.781V72.7813V72.7815V72.7818V72.782V72.7823V72.7825V72.7828V72.783V72.7832V72.7835V72.7837V72.784V72.7842V72.7845V72.7847V72.785V72.7852V72.7855V72.7857V72.786V72.7862V72.7865V72.7867V72.787V72.7872V72.7874V72.7877V72.7879V72.7882V72.7884V72.7887V72.7889V72.7892V72.7894V72.7897V72.7899V72.7902V72.7904V72.7907V72.7909V72.7912V72.7914V72.7917V72.7919V72.7921V72.7924V72.7926V72.7929V72.7931V72.7934V72.7936V72.7939V72.7941V72.7944V72.7946V72.7949V72.7951V72.7954V72.7956V72.7959V72.7961V72.7963V72.7966V72.7968V72.7971V72.7973V72.7976V72.7978V72.7981V72.7983V72.7986V72.7988V72.7991V72.7993V72.7996V72.7998V72.8001V72.8003V72.8006V72.8008V72.801V72.8013V72.8015V72.8018V72.802V72.8023V72.8025V72.8028V72.803V72.8033V72.8035V72.8038V72.804V72.8043V72.8045V72.8048V72.805V72.8052V72.8055V72.8057V72.806V72.8062V72.8065V72.8067V72.807V72.8072V72.8075V72.8077V72.808V72.8082V72.8085V72.8087V72.809V72.8092V72.8095V72.8097V72.8099V72.8102V72.8104V72.8107V72.8109V72.8112V72.8114V72.8117V72.8119V72.8122V72.8124V72.8127V72.8129V72.8132V72.8134V72.8137V72.8139V72.8141V72.8144V72.8146V72.8149V72.8151V72.8154V72.8156V72.8159V72.8161V72.8164V72.8166V72.8169V72.8171V72.8174V72.8176V72.8179V72.8181V72.8184V72.8186V72.8188V72.8191V72.8193V72.8196V72.8198V72.8201V72.8203V72.8206V72.8208V72.8211V72.8213V72.8216V72.8218V72.8221V72.8223V72.8226V72.8228V72.823V72.8233V72.8235V72.8238V72.824V72.8243V72.8245V72.8248V72.825V72.8253V72.8255V72.8258V72.826V72.8263V72.8265V72.8268V72.827V72.8272V72.8275V72.8277V72.828V72.8282V72.8285V72.8287V72.829V72.8292V72.8295V72.8297V72.83V72.8302V72.8305V72.8307V72.831V72.8312V72.8315V72.8317V72.8319V72.8322V72.8324V72.8327V72.8329V72.8332V72.8334V72.8337V72.8339V72.8342V72.8344V72.8347V72.8349V72.8352V72.8354V72.8357V72.8359V72.8361V72.8364V72.8366V72.8369V72.8371V72.8374V72.8376V72.8379V72.8381V72.8384V72.8386V72.8389V72.8391V72.8394V72.8396V72.8399V72.8401V72.8404V72.8406V72.8408V72.8411V72.8413V72.8416V72.8418V72.8421V72.8423V72.8426V72.8428V72.8431V72.8433V72.8436V72.8438V72.8441V72.8443V72.8446V72.8448V72.845V72.8453V72.8455V72.8458V72.846V72.8463V72.8465V72.8468V72.847V72.8473V72.8475V72.8478V72.848V72.8483V72.8485V72.8488V72.849V72.8493V72.8495V72.8497V72.85V72.8502V72.8505V72.8507V72.851V72.8512V72.8515V72.8517V72.852V72.8522V72.8525V72.8527V72.853V72.8532V72.8535V72.8537V72.8539V72.8542V72.8544V72.8547V72.8549V72.8552V72.8554V72.8557V72.8559V72.8562V72.8564V72.8567V72.8569V72.8572V72.8574V72.8577V72.8579V72.8582V72.8584V72.8586V72.8589V72.8591V72.8594V72.8596V72.8599V72.8601V72.8604V72.8606V72.8609V72.8611V72.8614V72.8616V72.8619V72.8621V72.8624V72.8626V72.8628V72.8631V72.8633V72.8636V72.8638V72.8641V72.8643V72.8646V72.8648V72.8651V72.8653V72.8656V72.8658V72.8661V72.8663V72.8666V72.8668V72.867V72.8673V72.8675V72.8678V72.868V72.8683V72.8685V72.8688V72.869V72.8693V72.8695V72.8698V72.87V72.8703V72.8705V72.8708V72.871V72.8713V72.8715V72.8717V72.872V72.8722V72.8725V72.8727V72.873V72.8732V72.8735V72.8737V72.874V72.8742V72.8745V72.8747V72.875V72.8752V72.8755V72.8757V72.8759V72.8762V72.8764V72.8767V72.8769V72.8772V72.8774V72.8777V72.8779V72.8782V72.8784V72.8787V72.8789V72.8792V72.8794V72.8797V72.8799V72.8802V72.8804V72.8806V72.8809V72.8811V72.8814V72.8816V72.8819V72.8821V72.8824V72.8826V72.8829V72.8831V72.8834V72.8836V72.8839V72.8841V72.8844V72.8846V72.8848V72.8851V72.8853V72.8856V72.8858V72.8861V72.8863V72.8866V72.8868V72.8871V72.8873V72.8876V72.8878V72.8881V72.8883V72.8886V72.8888V72.8891V72.8893V72.8895V72.8898V72.89V72.8903V72.8905V72.8908V72.891V72.8913V72.8915V72.8918V72.892V72.8923V72.8925V72.8928V72.893V72.8933V72.8935V72.8937V72.894V72.8942V72.8945V72.8947V72.895V72.8952V72.8955V72.8957V72.896V72.8962V72.8965V72.8967V72.897V72.8972V72.8975V72.8977V72.8979V72.8982V72.8984V72.8987V72.8989V72.8992V72.8994V72.8997V72.8999V72.9002V72.9004V72.9007V72.9009V72.9012V72.9014V72.9017V72.9019V72.9022V72.9024V72.9026V72.9029V72.9031V72.9034V72.9036V72.9039V72.9041V72.9044V72.9046V72.9049V72.9051V72.9054V72.9056V72.9059V72.9061V72.9064V72.9066V72.9068V72.9071V72.9073V72.9076V72.9078V72.9081V72.9083V72.9086V72.9088V72.9091V72.9093V72.9096V72.9098V72.9101V72.9103V72.9106V72.9108V72.9111V72.9113V72.9115V72.9118V72.912V72.9123V72.9125V72.9128V72.913V72.9133V72.9135V72.9138V72.914V72.9143V72.9145V72.9148V72.915V72.9153V72.9155V72.9157V72.916V72.9162V72.9165V72.9167V72.917V72.9172V72.9175V72.9177V72.918V72.9182V72.9185V72.9187V72.919V72.9192V72.9195V72.9197V72.9199V72.9202V72.9204V72.9207V72.9209V72.9212V72.9214V72.9217V72.9219V72.9222V72.9224V72.9227V72.9229V72.9232V72.9234V72.9237V72.9239V72.9242V72.9244V72.9246V72.9249V72.9251V72.9254V72.9256V72.9259V72.9261V72.9264V72.9266V72.9269V72.9271V72.9274V72.9276V72.9279V72.9281V72.9284V72.9286V72.9288V72.9291V72.9293V72.9296V72.9298V72.9301V72.9303V72.9306V72.9308V72.9311V72.9313V72.9316V72.9318V72.9321V72.9323V72.9326V72.9328V72.9331V72.9333V72.9335V72.9338V72.934V72.9343V72.9345V72.9348V72.935V72.9353V72.9355V72.9358V72.936V72.9363V72.9365V72.9368V72.937V72.9373V72.9375V72.9377V72.938V72.9382V72.9385V72.9387V72.939V72.9392V72.9395V72.9397V72.94V72.9402V72.9405V72.9407V72.941V72.9412V72.9415V72.9417V72.942V72.9422V72.9424V72.9427V72.9429V72.9432V72.9434V72.9437V72.9439V72.9442V72.9444V72.9447V72.9449V72.9452V72.9454V72.9457V72.9459V72.9462V72.9464V72.9466V72.9469V72.9471V72.9474V72.9476V72.9479V72.9481V72.9484V72.9486V72.9489V72.9491V72.9494V72.9496V72.9499V72.9501V72.9504V72.9506V72.9508V72.9511V72.9513V72.9516V72.9518V72.9521V72.9523V72.9526V72.9528V72.9531V72.9533V72.9536V72.9538V72.9541V72.9543V72.9546V72.9548V72.9551V72.9553V72.9555V72.9558V72.956V72.9563V72.9565V72.9568V72.957V72.9573V72.9575V72.9578V72.958V72.9583V72.9585V72.9588V72.959V72.9593V72.9595V72.9597V72.96V72.9602V72.9605V72.9607V72.961V72.9612V72.9615V72.9617V72.962V72.9622V72.9625V72.9627V72.963V72.9632V72.9635V72.9637V72.964V72.9642V72.9644V72.9647V72.9649V72.9652V72.9654V72.9657V72.9659V72.9662V72.9664V72.9667V72.9669V72.9672V72.9674V72.9677V72.9679V72.9682V72.9684V72.9686V72.9689V72.9691V72.9694V72.9696V72.9699V72.9701V72.9704V72.9706V72.9709V72.9711V72.9714V72.9716V72.9719V72.9721V72.9724V72.9726V72.9729V72.9731V72.9733V72.9736V72.9738V72.9741V72.9743V72.9746V72.9748V72.9751V72.9753V72.9756V72.9758V72.9761V72.9763V72.9766V72.9768V72.9771V72.9773V72.9775V72.9778V72.978V72.9783V72.9785V72.9788V72.979V72.9793V72.9795V72.9798V72.98V72.9803V72.9805V72.9808V72.981V72.9813V72.9815V72.9817V72.982V72.9822V72.9825V72.9827V72.983V72.9832V72.9835V72.9837V72.984V72.9842V72.9845V72.9847V72.985V72.9852V72.9855V72.9857V72.986V72.9862V72.9864V72.9867V72.9869V72.9872V72.9874V72.9877V72.9879V72.9882V72.9884V72.9887V72.9889V72.9892V72.9894V72.9897V72.9899V73.0254L33.3139 73.0606C33.3205 73.1069 33.328 73.1474 33.3353 73.1822L33.3032 73.2207L33.2789 73.2694C33.2779 73.271 33.2753 73.2752 33.2702 73.2828L33.2514 73.3104L33.2512 73.3108C33.2437 73.3217 33.234 73.3358 33.2241 73.3507C33.189 73.4033 33.1388 73.4829 33.0986 73.5858C32.8161 74.1159 32.5603 74.8939 32.9181 75.8216C33.0638 76.2318 33.2539 76.547 33.486 76.7969C33.7185 77.0472 33.9745 77.2117 34.2201 77.3405C34.3412 77.404 34.4634 77.4606 34.5772 77.5127C34.5921 77.5196 34.607 77.5263 34.6216 77.533C34.6301 77.5369 34.6386 77.5408 34.6469 77.5446L34.4188 77.6176C34.4183 77.6178 34.4179 77.6179 34.4175 77.618C31.1187 78.6521 29.1639 80.9612 28.986 83.2988C28.8967 84.4712 29.2622 85.6215 30.1027 86.5569C30.6927 87.2135 31.5038 87.7506 32.5287 88.123C30.3562 89.8093 28.9879 92.3715 28.6319 94.8928C28.454 95.9348 29.3055 96.8625 30.3494 96.8625H40.3903C40.8502 96.8625 41.2185 96.5244 41.3608 96.1685L41.3713 96.1425L41.3787 96.1154C41.8167 94.5229 42.5196 93.478 43.6213 92.6103C44.7496 91.7216 46.31 91.0063 48.5081 90.1185C48.5084 90.1184 48.5087 90.1183 48.5091 90.1181L51.0389 89.1062C51.1885 89.0464 51.3525 88.9831 51.5258 88.9164C51.8091 88.8072 52.1173 88.6884 52.4284 88.5589C53.3954 88.1958 53.208 86.8695 52.2823 86.6381C51.7366 86.5017 51.1962 86.4567 50.7005 86.4154L50.6838 86.414L50.6381 86.4102L50.5925 86.4147C50.1999 86.454 49.8853 86.4544 49.6349 86.4544C48.6504 86.4336 48.1476 86.331 47.908 86.2525ZM37.2625 82.633C37.2691 82.4934 37.3523 82.2762 37.6333 81.9826C37.8401 82.2204 38.0752 82.4622 38.3284 82.6874L38.3284 82.6874L38.3352 82.6933L38.3398 82.6972C38.6324 82.948 38.9382 83.2101 39.2888 83.473L39.3094 83.4885L39.3315 83.5018C39.5023 83.6043 39.6799 83.7442 39.8879 83.9105C39.9101 83.9323 39.9455 83.9656 39.9849 83.9951C39.9933 84.0015 40.004 84.0093 40.0169 84.0179V84.7794C39.7424 84.5922 39.4716 84.4372 39.2184 84.2925C39.1875 84.2722 39.1596 84.2544 39.136 84.2395L39.1321 84.237C39.1054 84.22 39.0869 84.2083 39.0698 84.1969C39.0379 84.1756 39.0248 84.1645 39.0142 84.1539L38.9773 84.1171L38.9337 84.0887C38.4414 83.7676 38.0094 83.4815 37.6933 83.2037C37.3749 82.9239 37.277 82.739 37.2625 82.633Z"
        fill="white" stroke="#182052" stroke-miterlimit="10" />
    <path d="M40.0343 83.9271C41.8062 84.8131 44.5832 85.1579 47.7473 83.3016" stroke="#182052"
        stroke-miterlimit="10" />
    <path
        d="M53.3845 70.5008C51.5704 71.1336 49.6297 71.3867 47.689 71.218C44.6514 70.9648 41.6982 69.7414 39.42 67.7163C38.6606 69.9101 36.7621 71.5555 34.6104 72.5258C34.3151 72.6524 34.0198 72.779 33.7245 72.8633C33.7245 72.8211 33.7245 72.7789 33.7245 72.7789C33.5135 71.1758 33.6401 69.5726 34.1463 68.0116C34.6526 66.4506 35.5808 65.0584 36.7621 63.9615C36.8042 63.9193 36.8464 63.8771 36.9308 63.8349C37.1418 63.6662 37.3527 63.4974 37.5636 63.3286C38.6606 62.5271 39.9262 61.9364 41.2341 61.5989C41.9935 61.4301 42.7107 61.3458 43.4701 61.3458C47.2249 61.3458 50.5578 63.4552 52.2454 66.6194C52.8782 67.8429 53.1735 68.8976 53.3001 69.8679C53.3845 70.0789 53.3845 70.2898 53.3845 70.5008Z"
        fill="#6F7590" />
    <path
        d="M41.7827 92.0593C40.9811 93.0718 39.4623 93.114 38.1966 93.0718C39.5467 91.764 38.7873 87.5029 34.0621 88.0092H34.0199C27.5228 86.7857 28.24 80.0777 34.5262 78.0948L35.5809 77.7573C35.6653 77.7995 35.7075 77.8416 35.7497 77.926C36.2559 79.2339 36.9309 80.3308 37.6482 81.2167C35.0746 83.3684 38.6607 84.0434 40.3904 85.6888C41.9092 86.5747 43.1749 90.2874 41.7827 92.0593Z"
        fill="#6F7590" />
    <path d="M34.96 77.6183C37.1927 78.4302 36.5714 80.6328 37.8016 82.0837" stroke="#182052" />
    <path
        d="M98.5149 98.2299L98.5158 98.2362C98.7667 100.093 97.3147 101.799 95.4046 101.799H45.9592C44.0491 101.799 42.5971 100.093 42.848 98.2363L42.8485 98.2325L42.8486 98.2325C43.0836 96.5872 43.3967 95.4621 44.3604 94.5226C45.2822 93.6239 46.7632 92.9373 49.1473 91.9753L49.1515 91.9736L50.3315 91.51C50.3316 91.51 50.3318 91.5099 50.332 91.5098C50.9052 91.2827 51.5212 91.0423 52.1859 90.7829C54.1233 90.0268 56.4752 89.109 59.3911 87.8863C60.1689 87.5524 60.7851 86.9661 61.1095 86.209L61.1138 86.199L61.1139 86.199C61.2963 85.7979 61.4066 85.3199 61.4066 84.845V77.6356C61.3846 77.6086 61.3601 77.5785 61.3289 77.5388C61.2685 77.4619 61.1993 77.3679 61.1387 77.2541C60.5212 76.3404 60.0938 75.2752 59.9265 74.1279L59.6954 74.0201C59.2137 74.1085 58.7631 74.0644 58.3851 73.7941C57.9833 73.5068 57.7711 73.0366 57.633 72.5379C57.4923 72.0295 57.4032 71.3914 57.3183 70.6649C57.2895 70.4181 57.2612 70.1604 57.2315 69.8908C57.1721 69.3513 57.1073 68.7637 57.0233 68.119L98.5149 98.2299ZM98.5149 98.2299C98.2579 96.4955 97.9106 95.3353 96.8662 94.3754C95.871 93.4607 94.2748 92.7651 91.705 91.7622L91.7044 91.762C91.3339 91.6179 90.9413 91.4661 90.5251 91.3052C88.394 90.4811 85.6428 89.4172 82.0466 87.9171C82.0241 87.9001 81.9946 87.8803 81.959 87.8625C81.9094 87.8377 81.8621 87.8235 81.821 87.8154C81.2415 87.5596 80.7457 87.0997 80.3795 86.5505L80.3796 86.5504L80.3746 86.5432C80.0583 86.0864 79.8728 85.4706 79.8728 84.845C79.8728 83.3361 79.8702 82.1359 79.8675 81.1758C79.8669 80.9372 79.8662 80.7135 79.8656 80.5037C79.8638 79.8687 79.8623 79.3606 79.8623 78.9491C79.8623 77.8407 79.8741 77.4731 79.9088 77.2455C79.9257 77.1438 79.9357 77.0694 79.9445 77.0034C79.9599 76.889 79.972 76.7996 80.0107 76.6363L81.4866 74.0534C81.9029 74.0994 82.2887 74.0233 82.6171 73.7734C83.014 73.4711 83.2276 72.9847 83.3674 72.473C83.5103 71.9497 83.6007 71.3023 83.6837 70.581C83.7146 70.3123 83.7444 70.0339 83.7755 69.7441C83.8297 69.2388 83.8875 68.699 83.9612 68.1165L83.9615 68.114C84.0467 67.4114 84.0594 66.874 83.9477 66.4621C83.8887 66.2444 83.7932 66.054 83.6524 65.8922C83.5841 65.8138 83.5098 65.7474 83.4321 65.6903C83.5274 65.3902 83.6708 65.0086 83.8452 64.5443L83.8647 64.4926C84.0967 63.875 84.3704 63.1415 84.6178 62.3428C85.1102 60.753 85.5151 58.8557 85.2686 57.0182L85.2685 57.018C85.111 55.8476 84.7024 54.7146 83.8986 53.7042C83.1272 52.7343 82.0123 51.9034 80.4656 51.2558C79.432 49.0006 77.5917 47.6639 75.6018 46.9772C73.5676 46.2751 71.357 46.2429 69.6145 46.5954M98.5149 98.2299L69.6145 46.5954M59.4597 46.3265L59.5414 45.8333L58.9032 45.7275L58.9617 46.3718L59.4597 46.3265ZM59.4597 46.3265L59.5415 45.8333L59.5417 45.8333L59.5426 45.8334L59.5465 45.8341L59.5625 45.8367L59.6259 45.847C59.6818 45.8561 59.7643 45.8693 59.8705 45.886C60.0829 45.9194 60.3897 45.9666 60.7661 46.0216C61.5193 46.1319 62.5499 46.2735 63.661 46.3992C64.7731 46.5251 65.9603 46.6346 67.0281 46.6813C68.106 46.7285 69.0224 46.7097 69.6145 46.5954M59.4597 46.3265C58.9617 46.3718 58.9618 46.372 58.9618 46.3722L58.9618 46.3727L58.9619 46.3737L58.9621 46.376L58.9627 46.3816L58.9644 46.3967C58.9658 46.4086 58.9678 46.4243 58.9707 46.4437C58.9764 46.4826 58.9853 46.5371 58.9993 46.6085C59.0273 46.7513 59.0754 46.9625 59.1579 47.2537C59.3048 47.7727 59.5612 48.5485 60.0081 49.6478C58.2696 50.6802 56.9967 52.4808 56.5572 54.9728C56.0965 57.5857 56.5518 60.9425 58.2955 64.9938L57.9634 65.4446C57.6085 65.5888 57.2682 65.8103 57.0864 66.2649C56.9067 66.7142 56.9179 67.3178 57.0232 68.1185L69.6145 46.5954"
        fill="white" stroke="#182052" stroke-miterlimit="10" />
    <path
        d="M82.9167 65.8178C83.0855 64.8896 82.6636 63.7505 82.3261 62.9489C82.2839 62.8224 82.1995 62.6958 82.1573 62.5271C80.6807 59.5738 77.4322 58.3925 74.3102 58.2238C66.3365 57.8019 65.6193 59.3207 63.1301 57.0425C63.8895 58.2238 63.9739 60.0379 62.7926 62.3161C61.9489 63.9193 60.3457 64.6365 58.9534 65.1006C55.3252 56.8737 57.1393 51.7267 60.7254 49.9126C59.5441 47.2547 59.4597 46.3265 59.4597 46.3265C59.4597 46.3265 67.0959 47.5922 69.7116 47.0859C73.0445 46.4109 78.1916 47.2125 80.0901 51.6423C83.2542 52.908 84.4777 54.8909 84.773 57.0847C85.2793 60.502 83.2964 64.299 82.9167 65.8178Z"
        fill="#6F7590" />
    <path
        d="M61.9488 78.7478C61.8223 78.5791 61.6957 78.4525 61.6113 78.2837V77.8618C61.991 78.5369 62.4973 79.1697 63.1301 79.676L68.91 83.7261C70.26 84.8652 72.2007 84.9074 73.593 83.8105L78.9931 78.9588C79.1619 78.79 79.6485 78.0306 79.8173 77.8618"
        stroke="#182052" stroke-miterlimit="10" />
    <path
        d="M71.4296 133.528C78.3002 133.528 83.87 127.961 83.87 121.093C83.87 114.226 78.3002 108.659 71.4296 108.659C64.559 108.659 58.9893 114.226 58.9893 121.093C58.9893 127.961 64.559 133.528 71.4296 133.528Z"
        fill="white" />
    <path d="M89.9953 136.242L87.4062 138.83L79.7651 131.319L82.4174 128.731L89.9953 136.242Z" fill="#A0B7FF" />
    <path
        d="M61.2626 110.237C55.5791 115.918 55.5791 125.07 61.2626 130.687C66.946 136.305 76.1026 136.368 81.7228 130.687C87.3431 125.007 87.4062 115.854 81.7228 110.237C76.0394 104.619 66.946 104.556 61.2626 110.237ZM79.4495 128.415C75.0922 132.77 67.9563 132.77 63.5991 128.415C59.2418 124.06 59.2418 116.928 63.5991 112.572C67.9563 108.217 75.0922 108.217 79.4495 112.572C83.8067 116.928 83.8067 123.997 79.4495 128.415Z"
        fill="url(#paint2_linear_385_69631)" />
    <path
        d="M94.1002 142.933C92.9004 144.132 91.0059 144.132 89.8692 142.933L82.165 135.295C81.6598 134.853 81.6598 134.033 82.165 133.591L84.691 131.066C85.133 130.624 85.8908 130.624 86.396 131.066L94.1002 138.704C95.3 139.903 95.3 141.796 94.1002 142.933Z"
        fill="url(#paint3_linear_385_69631)" />
    <path
        d="M71.6189 128.163C71.0505 128.163 70.6085 127.721 70.6085 127.153C70.6085 126.585 71.1137 126.08 71.682 126.08C72.2504 126.08 72.7555 126.522 72.7555 127.09C72.6924 127.721 72.2504 128.163 71.682 128.163H71.6189ZM71.682 124.944C71.1137 124.944 70.6716 124.502 70.6085 123.934C70.6085 123.871 70.6085 123.871 70.6085 123.807V121.725C70.6085 120.652 71.3031 119.705 72.3135 119.326C73.1344 119.074 73.6396 118.253 73.5765 117.432C73.5133 116.486 72.7555 115.665 71.7452 115.602H71.6189C70.7979 115.602 70.0401 116.17 69.7875 116.991C69.6612 117.432 69.2192 117.685 68.7772 117.685C68.6509 117.685 68.5246 117.685 68.3983 117.622C67.8931 117.432 67.5773 116.928 67.7036 116.359C68.2088 114.655 69.7875 113.393 71.6189 113.393C71.682 113.393 71.8083 113.393 71.8715 113.393C72.945 113.456 73.9554 113.898 74.65 114.718C75.3447 115.539 75.7236 116.549 75.6604 117.622C75.5973 119.2 74.5237 120.652 73.0713 121.22H73.0081H72.945C72.8187 121.283 72.6924 121.409 72.7555 121.598V123.618C72.7555 123.934 72.6924 124.186 72.503 124.376C72.3135 124.565 72.0609 124.691 71.7452 124.754L71.682 124.944Z"
        fill="url(#paint4_linear_385_69631)" />
    <path
        d="M89.1112 142.175L89.869 142.933C91.0688 144.132 92.9633 144.132 94.0999 142.933C95.2366 141.733 95.2998 139.84 94.0999 138.704L86.3958 131.066C85.9537 130.624 85.2591 130.624 84.7539 131.003L82.9857 129.299C87.343 123.618 86.9641 115.476 81.7859 110.237C77.8707 106.324 72.1872 105.124 67.1985 106.639M60.8836 110.679C55.6422 116.359 55.7685 125.196 61.3256 130.687C66.5038 135.863 74.7132 136.305 80.3966 131.887L82.1648 133.654C81.7227 134.159 81.7227 134.853 82.2279 135.295L86.8378 139.84M68.272 131.192C66.567 130.687 64.9251 129.741 63.599 128.415C59.2417 124.06 59.2417 116.928 63.599 112.572C67.9563 108.217 75.0921 108.217 79.4494 112.572C83.8067 116.928 83.8067 124.06 79.4494 128.415C78.5021 129.362 77.4918 130.056 76.4182 130.561M63.9779 108.154C63.7884 108.28 63.5358 108.406 63.3464 108.596L63.9779 108.154Z"
        stroke="#182052" stroke-miterlimit="10" stroke-linecap="round" stroke-linejoin="round" />
    <defs>
        <linearGradient id="paint0_linear_385_69631" x1="92.0197" y1="6.9946" x2="105.892" y2="6.9946"
            gradientUnits="userSpaceOnUse">
            <stop stop-color="#FF66A9" />
            <stop offset="1" stop-color="#F53689" />
        </linearGradient>
        <linearGradient id="paint1_linear_385_69631" x1="10.0137" y1="110.82" x2="19.6644" y2="110.82"
            gradientUnits="userSpaceOnUse">
            <stop stop-color="#FF66A9" />
            <stop offset="1" stop-color="#F53689" />
        </linearGradient>
        <linearGradient id="paint2_linear_385_69631" x1="58.695" y1="113.575" x2="84.3221" y2="128.028"
            gradientUnits="userSpaceOnUse">
            <stop stop-color="#83A6FF" />
            <stop offset="0.994956" stop-color="#5277D7" />
        </linearGradient>
        <linearGradient id="paint3_linear_385_69631" x1="82.5595" y1="134.165" x2="94.209" y2="140.785"
            gradientUnits="userSpaceOnUse">
            <stop stop-color="#83A6FF" />
            <stop offset="0.994956" stop-color="#5277D7" />
        </linearGradient>
        <linearGradient id="paint4_linear_385_69631" x1="68.1435" y1="117.261" x2="76.6719" y2="119.86"
            gradientUnits="userSpaceOnUse">
            <stop stop-color="#83A6FF" />
            <stop offset="0.994956" stop-color="#5277D7" />
        </linearGradient>
    </defs>
</svg>