<svg viewBox="0 0 144 118" fill="none" xmlns="http://www.w3.org/2000/svg">
    <path
        d="M119.506 5.72885L118.922 5.63166C118.63 5.63166 118.436 5.43747 118.339 5.1462C118.241 4.95201 118.241 4.75783 118.144 4.66073C118.046 4.46655 118.047 4.17508 118.241 3.98089L118.533 3.49543C118.728 3.20415 118.728 2.81588 118.436 2.62169L117.463 1.65077C117.171 1.35949 116.782 1.35939 116.587 1.55358L116.101 1.84514C115.906 2.03933 115.615 2.03895 115.323 1.94185C115.128 1.84476 114.934 1.74795 114.836 1.74795C114.544 1.65086 114.447 1.45658 114.35 1.1653L114.253 0.582651C114.155 0.19428 113.863 0 113.572 0H112.21C111.821 0 111.529 0.291373 111.529 0.582651L111.431 1.1653C111.431 1.45658 111.237 1.65086 110.945 1.74795C110.75 1.84505 110.556 1.84476 110.459 1.94185C110.264 2.03895 109.972 2.03933 109.778 1.84514L109.291 1.55358C108.999 1.35939 108.61 1.35949 108.416 1.65077L107.443 2.62169C107.151 2.91297 107.151 3.30125 107.346 3.49543L107.638 3.98089C107.832 4.17508 107.832 4.46655 107.735 4.66073C107.637 4.85492 107.54 5.0491 107.54 5.1462C107.443 5.43747 107.248 5.53457 106.956 5.63166L106.373 5.72885C105.984 5.82594 105.789 6.11693 105.789 6.40821V7.76741C105.789 8.15578 106.081 8.44725 106.373 8.44725L106.956 8.54444C107.248 8.54444 107.443 8.73863 107.54 9.0299C107.637 9.22409 107.637 9.41827 107.735 9.51537C107.832 9.70955 107.832 10.0006 107.638 10.2919L107.346 10.7774C107.151 11.0687 107.151 11.457 107.443 11.7483L108.416 12.7192C108.707 13.0105 109.097 13.0106 109.291 12.8164L109.778 12.5253C109.972 12.3311 110.264 12.3311 110.459 12.4281C110.653 12.5252 110.848 12.622 110.945 12.622C111.237 12.7191 111.334 12.9134 111.431 13.2047L111.529 13.7873C111.626 14.1757 111.918 14.37 112.21 14.37H113.572C113.961 14.37 114.253 14.0786 114.253 13.7873L114.35 13.2047C114.35 12.9134 114.544 12.7191 114.836 12.622C115.031 12.525 115.225 12.5252 115.323 12.4281C115.517 12.3311 115.809 12.3311 116.101 12.5253L116.587 12.8164C116.879 13.0106 117.268 13.0105 117.463 12.7192L118.436 11.7483C118.728 11.457 118.728 11.0687 118.533 10.7774L118.241 10.2919C118.047 10.0977 118.046 9.80664 118.144 9.51537C118.241 9.32118 118.339 9.127 118.339 9.0299C118.436 8.73863 118.63 8.64153 118.922 8.54444L119.506 8.44725C119.895 8.35016 120.089 8.05869 120.089 7.76741V6.40821C120.089 6.01984 119.895 5.72885 119.506 5.72885ZM113.085 9.41818C111.723 9.41818 110.653 8.35016 110.653 6.99086C110.653 5.63157 111.723 4.56355 113.085 4.56355C114.447 4.56355 115.517 5.63157 115.517 6.99086C115.42 8.35016 114.35 9.41818 113.085 9.41818Z"
        fill="url(#paint0_linear_385_69635)" />
    <path
        d="M37.3227 86.0776L36.9337 85.9809C36.7391 85.9809 36.6417 85.7864 36.5444 85.6893C36.5444 85.5922 36.4472 85.3981 36.3499 85.3011C36.2526 85.1069 36.2527 84.9127 36.4473 84.8156L36.6418 84.5245C36.7391 84.3303 36.7391 84.0389 36.6418 83.8447L35.9609 83.1648C35.7663 82.9706 35.4745 82.9706 35.2799 83.1648L34.988 83.3592C34.7935 83.4563 34.5989 83.4563 34.5016 83.3592C34.4043 83.2621 34.2096 83.2619 34.1124 83.1648C33.9178 83.0677 33.8207 82.9707 33.8207 82.7766L33.7233 82.3883C33.7233 82.1941 33.5288 82 33.2369 82H32.3615C32.0696 82 31.8751 82.1941 31.8751 82.3883L31.7777 82.7766C31.7777 82.9707 31.5831 83.0677 31.4858 83.1648C31.3885 83.1648 31.1941 83.2621 31.0968 83.3592C30.9022 83.4563 30.7077 83.4563 30.6104 83.3592L30.3185 83.1648C30.1239 82.9706 29.8321 83.0677 29.6376 83.1648L28.9566 83.8447C28.7621 84.0389 28.7621 84.3303 28.9566 84.5245L29.1511 84.8156C29.2484 85.0098 29.2484 85.1069 29.1511 85.3011C29.0539 85.3981 29.0539 85.5922 28.9566 85.6893C28.8593 85.8835 28.7619 85.9809 28.5674 85.9809L28.1783 86.0776C27.9838 86.0776 27.7891 86.2718 27.7891 86.5631V87.4373C27.7891 87.7286 27.9838 87.9227 28.1783 87.9227L28.5674 88.0195C28.7619 88.0195 28.8593 88.2139 28.9566 88.311C28.9566 88.4081 29.0539 88.6022 29.1511 88.6993C29.2484 88.8935 29.2484 89.0877 29.1511 89.1848L28.9566 89.4759C28.8593 89.67 28.8593 89.9615 28.9566 90.1557L29.6376 90.8355C29.8321 91.0297 30.1239 91.0297 30.3185 90.8355L30.6104 90.6412C30.7077 90.5441 30.9022 90.544 31.0968 90.544C31.1941 90.6411 31.3885 90.6412 31.4858 90.7383C31.6804 90.8354 31.7777 90.9324 31.7777 91.1266L31.8751 91.5149C31.8751 91.7091 32.0696 91.9032 32.3615 91.9032H33.2369C33.5288 91.9032 33.7233 91.7091 33.7233 91.5149L33.8207 91.1266C33.8207 90.9324 34.0151 90.8354 34.1124 90.7383C34.2096 90.7383 34.4043 90.6411 34.5016 90.544C34.6962 90.4469 34.8908 90.447 34.988 90.6412L35.2799 90.8355C35.4745 90.9326 35.7663 90.9326 35.9609 90.8355L36.6418 90.1557C36.8363 89.9615 36.8363 89.67 36.6418 89.4759L36.4473 89.1848C36.35 88.9906 36.3499 88.7964 36.3499 88.6993C36.4472 88.6022 36.4471 88.4081 36.5444 88.311C36.6417 88.1168 36.7391 88.0195 36.9337 88.0195L37.3227 87.9227C37.5173 87.9227 37.712 87.7286 37.712 87.4373V86.5631C37.8092 86.2718 37.6145 86.0776 37.3227 86.0776ZM32.8479 88.6993C31.9724 88.6993 31.1939 87.9224 31.1939 87.0485C31.1939 86.1747 31.9724 85.3982 32.8479 85.3982C33.7234 85.3982 34.5016 86.1747 34.5016 87.0485C34.5016 87.9224 33.8207 88.6993 32.8479 88.6993Z"
        fill="url(#paint1_linear_385_69635)" />
    <path
        d="M10.4292 16.8858C11.9822 16.3885 12.8321 14.7449 12.3273 13.2147C11.8225 11.6846 10.1542 10.8473 8.60116 11.3446C7.04808 11.842 6.19828 13.4856 6.70307 15.0157C7.20786 16.5459 8.87609 17.3832 10.4292 16.8858Z"
        fill="#E2EBFF" />
    <path
        d="M16.8846 7.38035C17.9407 7.04216 18.5186 5.92451 18.1753 4.884C17.8321 3.8435 16.6977 3.27416 15.6416 3.61235C14.5855 3.95054 14.0076 5.0682 14.3509 6.1087C14.6942 7.1492 15.8286 7.71854 16.8846 7.38035Z"
        fill="#E2EBFF" />
    <path
        d="M93.5875 82.2662H48.9445C47.041 82.2662 45.5 80.7252 45.5 78.8216V17.5905C45.5 15.687 47.041 14.146 48.9445 14.146H93.5875C95.4911 14.146 97.032 15.687 97.032 17.5905V78.8216C97.032 80.7252 95.4911 82.2662 93.5875 82.2662Z"
        fill="white" stroke="#182052" stroke-miterlimit="10" />
    <path
        d="M77.0673 65.746H65.4647C64.173 65.746 63.1306 64.7035 63.1306 63.4118C63.1306 62.1201 64.173 61.0777 65.4647 61.0777H77.0673C78.359 61.0777 79.4014 62.1201 79.4014 63.4118C79.4014 64.7035 78.359 65.746 77.0673 65.746Z"
        fill="#D6DCE8" />
    <path
        d="M82.3928 70.7994H60.1166C59.4368 70.7994 58.8929 70.2555 58.8929 69.5757C58.8929 68.8959 59.4368 68.352 60.1166 68.352H82.3928C83.0726 68.352 83.6165 68.8959 83.6165 69.5757C83.6165 70.2329 83.0726 70.7994 82.3928 70.7994Z"
        fill="#D6DCE8" />
    <path
        d="M81.2823 49.9057C78.6083 52.2398 75.0958 53.6448 71.266 53.6448C67.4362 53.6448 63.9237 52.2398 61.2497 49.883C62.3601 49.4524 63.8104 48.8859 65.7593 48.0928C66.2125 47.9115 66.5524 47.5715 66.7564 47.141C66.8697 46.8917 66.915 46.6424 66.915 46.3705V42.722C66.847 42.654 66.8017 42.5634 66.7564 42.4954C66.4391 42.0195 66.2352 41.4756 66.1672 40.9091L65.8499 40.7505C64.9208 40.9771 64.9888 39.98 64.7395 38.0537C64.6489 37.2606 64.7622 37.102 65.1248 36.966L65.4194 36.5581C62.9279 30.9522 67.1768 27.5 71.289 27.5C76.5819 27.5 78.8436 32.317 77.3166 36.898C77.645 37.2264 77.6741 37.5435 77.6112 38.0311C77.3846 39.8667 77.4526 40.9771 76.5008 40.7278L75.6623 42.1781C75.6397 42.3368 75.617 42.4274 75.5943 42.518C75.5717 42.79 75.5717 43.3339 75.5717 46.3252C75.5717 46.6877 75.685 47.0277 75.8663 47.3223C76.0702 47.6395 76.3648 47.9115 76.7274 48.0701C76.7274 48.0701 76.7501 48.0701 76.7501 48.0928C78.7216 48.9312 80.1719 49.4751 81.2823 49.9057Z"
        fill="#E2EBFF" stroke="#182052" stroke-miterlimit="10" />
    <path
        d="M32.9456 71.7286H4.23359C2.33004 71.7286 0.789062 70.1876 0.789062 68.284V28.128C0.789062 26.2245 2.33004 24.6835 4.23359 24.6835H32.9456C34.8491 24.6835 36.3901 26.2245 36.3901 28.128V68.3067C36.3901 70.2102 34.8491 71.7286 32.9456 71.7286Z"
        fill="#F1F3F9" stroke="#182052" stroke-miterlimit="10" />
    <path
        d="M22.5893 60.3299H14.5672C13.6834 60.3299 12.9582 59.6048 12.9582 58.721C12.9582 57.8372 13.6834 57.112 14.5672 57.112H22.5893C23.4731 57.112 24.1983 57.8372 24.1983 58.721C24.1983 59.6048 23.4731 60.3299 22.5893 60.3299Z"
        fill="#D6DCE8" />
    <path
        d="M26.2831 63.8198H10.896C10.4202 63.8198 10.0576 63.4345 10.0576 62.9813C10.0576 62.5054 10.4428 62.1428 10.896 62.1428H26.2831C26.759 62.1428 27.1216 62.5281 27.1216 62.9813C27.1216 63.4345 26.7364 63.8198 26.2831 63.8198Z"
        fill="#D6DCE8" />
    <path
        d="M29.0932 41.453C29.0932 44.6255 27.6882 47.4582 25.49 49.3844C23.6318 50.9934 21.2297 51.9678 18.5783 51.9678C15.9269 51.9678 13.5021 50.9934 11.6665 49.3844C9.46838 47.4582 8.06338 44.6255 8.06338 41.453C8.06338 35.6516 12.7769 30.9381 18.5783 30.9381C24.3796 30.9381 29.0932 35.6516 29.0932 41.453Z"
        fill="white" stroke="#182052" stroke-miterlimit="10" />
    <path
        d="M137.619 71.7286H108.907C107.003 71.7286 105.462 70.1876 105.462 68.284V28.128C105.462 26.2245 107.003 24.6835 108.907 24.6835H137.619C139.522 24.6835 141.063 26.2245 141.063 28.128V68.3067C141.063 70.2102 139.522 71.7286 137.619 71.7286Z"
        fill="#F1F3F9" stroke="#182052" stroke-miterlimit="10" />
    <path
        d="M127.262 60.3299H119.24C118.356 60.3299 117.631 59.6048 117.631 58.721C117.631 57.8372 118.356 57.112 119.24 57.112H127.262C128.146 57.112 128.871 57.8372 128.871 58.721C128.894 59.6048 128.169 60.3299 127.262 60.3299Z"
        fill="#D6DCE8" />
    <path
        d="M130.956 63.8198H115.569C115.093 63.8198 114.731 63.4345 114.731 62.9813C114.731 62.5054 115.116 62.1428 115.569 62.1428H130.956C131.432 62.1428 131.795 62.5281 131.795 62.9813C131.795 63.4345 131.432 63.8198 130.956 63.8198Z"
        fill="#D6DCE8" />
    <path
        d="M133.789 41.5C133.789 44.6681 132.386 47.4968 130.191 49.4203C128.335 51.0269 125.937 52 123.289 52C120.641 52 118.22 51.0269 116.387 49.4203C114.192 47.4968 112.789 44.6681 112.789 41.5C112.789 35.7069 117.496 31 123.289 31C129.082 31 133.789 35.7069 133.789 41.5Z"
        fill="white" stroke="#182052" stroke-miterlimit="10" />
    <path
        d="M86.4945 38.439C86.4945 43.0166 84.4776 47.1183 81.2823 49.9057C78.6083 52.2398 75.0958 53.6448 71.266 53.6448C67.4362 53.6448 63.9237 52.2398 61.2497 49.883C58.0544 47.0956 56.0375 42.9939 56.0375 38.4163C56.0375 30.0089 62.8586 23.1879 71.266 23.1879C79.6734 23.1879 86.4945 30.0316 86.4945 38.439Z"
        stroke="#182052" stroke-miterlimit="10" />
    <path
        d="M119.823 35.4363C120.02 35.2216 120.289 35.0724 120.557 34.9233C120.826 34.7743 121.094 34.6252 121.363 34.4762C121.631 34.3271 121.971 34.2439 122.312 34.1606C122.652 34.0773 123.064 34.0598 123.476 34.0422C124.025 34.0187 124.509 34.0669 124.998 34.2524C125.416 34.3721 125.841 34.6289 126.128 34.8918C126.415 35.1547 126.708 35.5551 126.929 35.8895C127.085 36.2956 127.175 36.7731 127.265 37.2507C127.283 37.6626 127.236 38.1462 127.045 38.4982C126.92 38.7787 126.73 39.1309 126.539 39.4829C126.342 39.6977 126.08 39.984 125.883 40.1988C125.615 40.3478 125.418 40.5625 125.149 40.7116C124.953 40.9263 124.75 41.0036 124.553 41.2183C124.422 41.3615 124.291 41.5047 124.303 41.7793L124.089 43.1643L122.507 43.1632L122.368 41.5871C122.356 41.3124 122.344 41.0377 122.469 40.7572C122.594 40.4767 122.725 40.3336 122.922 40.1189C123.118 39.9041 123.387 39.7552 123.584 39.5405C123.852 39.3914 124.049 39.1763 124.246 38.9615C124.443 38.7468 124.639 38.5322 124.764 38.2517C124.89 37.9712 124.943 37.6251 124.996 37.2789C125.056 37.07 124.978 36.8671 124.9 36.664C124.822 36.461 124.679 36.3294 124.535 36.198C124.392 36.0666 124.182 36.0068 123.973 35.9469C123.764 35.8871 123.555 35.8272 123.281 35.839C123.006 35.8507 122.666 35.9337 122.391 35.9455C122.188 36.0229 121.985 36.1005 121.717 36.2495C121.514 36.3269 121.383 36.4702 121.317 36.5418C121.252 36.6134 121.115 36.6191 120.977 36.625C120.774 36.7025 120.559 36.5053 120.481 36.3023L119.823 35.4363ZM121.843 46.7681C121.837 46.6308 121.896 46.4219 121.956 46.213C122.015 46.0041 122.146 45.8608 122.277 45.7176C122.54 45.4313 122.945 45.2767 123.357 45.2591C123.495 45.2532 123.704 45.3129 123.913 45.3727C124.122 45.4326 124.266 45.564 124.409 45.6955C124.839 46.0898 125.007 46.7704 124.757 47.3313C124.698 47.5402 124.566 47.6835 124.435 47.8267C124.304 47.9699 124.101 48.0473 123.97 48.1905C123.767 48.268 123.63 48.2739 123.355 48.2856C123.218 48.2915 122.943 48.3031 122.8 48.1716C122.447 47.9803 122.16 47.7174 122.011 47.4486C121.861 47.1799 121.783 46.977 121.843 46.7681Z"
        fill="#C0D6FF" />
    <path
        d="M14.8231 35.4363C15.0199 35.2216 15.2888 35.0724 15.5573 34.9233C15.8258 34.7743 16.0941 34.6252 16.3626 34.4762C16.6311 34.3271 16.9713 34.2439 17.3115 34.1606C17.6518 34.0773 18.0637 34.0598 18.4756 34.0422C19.0249 34.0187 19.5086 34.0669 19.9984 34.2524C20.4165 34.3721 20.8409 34.6289 21.1278 34.8918C21.4147 35.1547 21.7076 35.5551 21.9289 35.8895C22.0847 36.2956 22.1749 36.7731 22.265 37.2507C22.2834 37.6626 22.2361 38.1462 22.0454 38.4982C21.9204 38.7787 21.7297 39.1309 21.539 39.4829C21.3423 39.6977 21.0799 39.984 20.8831 40.1988C20.6146 40.3478 20.4179 40.5625 20.1494 40.7116C19.9526 40.9263 19.7498 41.0036 19.553 41.2183C19.4218 41.3615 19.2905 41.5047 19.3028 41.7793L19.0894 43.1643L17.5071 43.1632L17.3681 41.5871C17.3558 41.3124 17.3437 41.0377 17.4687 40.7572C17.5938 40.4767 17.7248 40.3336 17.9215 40.1189C18.1183 39.9041 18.3868 39.7552 18.5836 39.5405C18.8521 39.3914 19.049 39.1763 19.2458 38.9615C19.4426 38.7468 19.6394 38.5322 19.7645 38.2517C19.8895 37.9712 19.9428 37.6251 19.9961 37.2789C20.0556 37.07 19.9777 36.8671 19.8998 36.664C19.822 36.461 19.6785 36.3294 19.5351 36.198C19.3916 36.0666 19.1824 36.0068 18.9733 35.9469C18.7643 35.8871 18.5554 35.8272 18.2808 35.839C18.0061 35.8507 17.666 35.9337 17.3914 35.9455C17.1885 36.0229 16.9854 36.1005 16.7169 36.2495C16.514 36.3269 16.3829 36.4702 16.3173 36.5418C16.2517 36.6134 16.1146 36.6191 15.9772 36.625C15.7743 36.7025 15.559 36.5053 15.4812 36.3023L14.8231 35.4363ZM16.8428 46.7681C16.8367 46.6308 16.8961 46.4219 16.9556 46.213C17.015 46.0041 17.1462 45.8608 17.2774 45.7176C17.5398 45.4313 17.9454 45.2767 18.3573 45.2591C18.4946 45.2532 18.7039 45.3129 18.9129 45.3727C19.1219 45.4326 19.2655 45.564 19.409 45.6955C19.8393 46.0898 20.0072 46.7704 19.7571 47.3313C19.6977 47.5402 19.5665 47.6835 19.4353 47.8267C19.3041 47.9699 19.1011 48.0473 18.9699 48.1905C18.767 48.268 18.6297 48.2739 18.3551 48.2856C18.2178 48.2915 17.9432 48.3031 17.7998 48.1716C17.4473 47.9803 17.1603 47.7174 17.0108 47.4486C16.8612 47.1799 16.7834 46.977 16.8428 46.7681Z"
        fill="#C0D6FF" />
    <path d="M127.878 93.6532L119.946 101.582L96.5355 78.5696L104.661 70.641L127.878 93.6532Z" fill="#A0B7FF" />
    <path
        d="M39.8484 13.9807C22.436 31.3849 22.436 59.4249 39.8484 76.6357C57.2608 93.8465 85.3142 94.0399 102.533 76.6357C119.752 59.2316 119.946 31.1915 102.533 13.9807C85.1207 -3.23008 57.2608 -3.42346 39.8484 13.9807ZM95.5682 69.6741C82.2187 83.0173 60.3564 83.0173 47.0068 69.6741C33.6573 56.3309 33.6573 34.479 47.0068 21.1358C60.3564 7.79257 82.2187 7.79257 95.5682 21.1358C108.918 34.479 108.918 56.1375 95.5682 69.6741Z"
        fill="url(#paint2_linear_385_69635)" />
    <path
        d="M140.454 114.152C136.778 117.826 130.974 117.826 127.491 114.152L103.888 90.7526C102.34 89.3989 102.34 86.885 103.888 85.5313L111.627 77.7961C112.981 76.4425 115.303 76.4425 116.85 77.7961L140.454 101.195C144.13 104.869 144.13 110.671 140.454 114.152Z"
        fill="url(#paint3_linear_385_69635)" />
    <path
        d="M125.169 111.831L127.491 114.151C131.167 117.826 136.971 117.826 140.454 114.151C143.936 110.477 144.13 104.676 140.454 101.195L116.85 77.7961C115.496 76.4424 113.368 76.4424 111.82 77.6027L106.403 72.3815C119.752 54.9773 118.591 30.0313 102.727 13.9808C90.7314 1.99123 73.3189 -1.68299 58.0347 2.95813M38.6875 15.3344C22.6294 32.7386 23.0163 59.8118 40.0418 76.6358C55.9065 92.4929 81.0578 93.8466 98.4702 80.31L103.887 85.7247C102.533 87.2717 102.533 89.3989 104.081 90.7525L118.204 104.676M61.3237 78.1828C56.0999 76.6358 51.0697 73.7351 47.0068 69.6741C33.6572 56.3309 33.6572 34.479 47.0068 21.1358C60.3563 7.79262 82.2186 7.79262 95.5681 21.1358C108.918 34.479 108.918 56.3309 95.5681 69.6741C92.6661 72.5748 89.5705 74.702 86.2815 76.249M48.1676 7.59924C47.5872 7.986 46.8133 8.37276 46.2329 8.9529L48.1676 7.59924Z"
        stroke="#182052" stroke-miterlimit="10" stroke-linecap="round" stroke-linejoin="round" />
    <defs>
        <linearGradient id="paint0_linear_385_69635" x1="105.809" y1="6.9946" x2="119.681" y2="6.9946"
            gradientUnits="userSpaceOnUse">
            <stop stop-color="#FF66A9" />
            <stop offset="1" stop-color="#F53689" />
        </linearGradient>
        <linearGradient id="paint1_linear_385_69635" x1="27.8027" y1="86.8204" x2="37.4534" y2="86.8204"
            gradientUnits="userSpaceOnUse">
            <stop stop-color="#FF66A9" />
            <stop offset="1" stop-color="#F53689" />
        </linearGradient>
        <linearGradient id="paint2_linear_385_69635" x1="31.9822" y1="24.2068" x2="110.497" y2="68.4879"
            gradientUnits="userSpaceOnUse">
            <stop stop-color="#83A6FF" />
            <stop offset="0.994956" stop-color="#5277D7" />
        </linearGradient>
        <linearGradient id="paint3_linear_385_69635" x1="105.096" y1="87.2891" x2="140.787" y2="107.572"
            gradientUnits="userSpaceOnUse">
            <stop stop-color="#83A6FF" />
            <stop offset="0.994956" stop-color="#5277D7" />
        </linearGradient>
    </defs>
</svg>