<svg width="229" height="165" fill="none" xmlns="http://www.w3.org/2000/svg"><path d="M128.175 144.759c34.507 0 62.48-28.047 62.48-62.645 0-34.597-27.973-62.644-62.48-62.644-34.506 0-62.48 28.047-62.48 62.644 0 34.598 27.974 62.645 62.48 62.645Zm-28.95 14.908a5.071 5.071 0 0 0 5.075-5.067 5.071 5.071 0 0 0-5.075-5.067 5.07 5.07 0 0 0-5.074 5.067 5.07 5.07 0 0 0 5.075 5.067Zm62.381-153a3.336 3.336 0 0 0 3.339-3.334A3.336 3.336 0 0 0 161.606 0a3.336 3.336 0 0 0-3.338 3.333 3.336 3.336 0 0 0 3.338 3.334Z" fill="#EAEEF9"/><path d="M165.211 22.667a2.268 2.268 0 0 0 2.27-2.267 2.268 2.268 0 0 0-2.27-2.266 2.269 2.269 0 0 0-2.27 2.266 2.269 2.269 0 0 0 2.27 2.267Z" fill="url(#no_assets_to_show__a)"/><path d="M84.136 151.267a2.135 2.135 0 1 0 0-4.267 2.135 2.135 0 1 0 0 4.267Z" fill="#EAEEF9"/><path d="M88.548 139.897c1.18 0 2.137-.956 2.137-2.134a2.135 2.135 0 0 0-2.137-2.133 2.135 2.135 0 1 0 0 4.267Z" fill="url(#no_assets_to_show__b)"/><path d="M195.789 18.267c1.18 0 2.137-.955 2.137-2.133A2.135 2.135 0 0 0 195.789 14a2.135 2.135 0 1 0 0 4.267Z" fill="url(#no_assets_to_show__c)"/><path d="m166.826 33.05 3.261-6.61c.854-1.731 2.98-2.444 4.724-1.583l36.46 17.988 7.633 25.88-24.758 51.581c-.855 1.731-2.98 2.444-4.724 1.583L139.17 97.097c-1.744-.86-2.472-2.98-1.617-4.712l24.575-49.813" fill="#fff"/><path d="m166.826 33.05 3.261-6.61c.854-1.731 2.98-2.444 4.724-1.583l36.46 17.988 7.633 25.88-24.758 51.581c-.855 1.731-2.98 2.444-4.724 1.583L139.17 97.097c-1.744-.86-2.472-2.98-1.617-4.712l24.575-49.813" stroke="#6F7590" stroke-miterlimit="10" stroke-linecap="round" stroke-linejoin="round"/><path d="m210.938 43.472-5.952 13.756c-1.006 1.85-.053 3.96 1.67 4.764l10.865 5.137" fill="#D5DDEA"/><path d="m194.501 96.215-30.12-14.86c-.396-.195-.519-.745-.286-1.217.233-.473.744-.71 1.14-.514l30.12 14.86c.396.195.519.745.286 1.217-.233.472-.744.71-1.14.514Zm-33.846-16.697-5.31-2.62c-.397-.196-.52-.746-.287-1.218.233-.472.744-.71 1.141-.514l5.31 2.62c.397.196.519.746.287 1.218-.233.472-.745.71-1.141.514Zm36.872 10.362-13.475-6.647c-.396-.196-.519-.746-.286-1.218.233-.472.744-.709 1.14-.513l13.475 6.647c.396.196.519.746.286 1.218-.233.472-.744.71-1.14.514Zm-19.182-9.463-19.657-9.698c-.396-.195-.519-.745-.286-1.217.233-.472.744-.71 1.14-.514l19.657 9.698c.397.196.52.745.287 1.218-.233.472-.744.709-1.141.513Zm23.703-11.887 5.39 2.658c.396.196.907-.041 1.14-.514.233-.472.151-.904-.325-1.138l-5.39-2.66c-.396-.195-.907.042-1.14.514-.233.472-.071.944.325 1.14Zm-1.139 15.094-5.231-2.58c-.396-.196-.519-.746-.286-1.218.233-.473.744-.71 1.14-.514l5.231 2.58c.397.196.52.746.287 1.218-.193.59-.744.71-1.141.514Zm-10.066-4.966-14.029-6.922c-.396-.195-.519-.745-.286-1.217.232-.473.744-.71 1.14-.514l14.109 6.96c.396.196.519.746.286 1.218-.272.551-.744.71-1.22.475ZM165.5 97.466l-1.823-.9c-.396-.195-.519-.745-.286-1.217.233-.472.744-.71 1.14-.514l1.823.9c.397.195.519.745.287 1.217-.233.472-.745.71-1.141.514Zm-5.074-2.504-10.7-5.279c-.396-.196-.519-.745-.286-1.218.233-.472.744-.709 1.14-.513l10.7 5.279c.397.195.52.745.287 1.217-.233.473-.744.71-1.141.514Zm43.827-17.517-10.542-5.2c-.397-.196-.519-.746-.287-1.218.233-.472.745-.71 1.141-.514l10.621 5.24c.396.196.519.746.286 1.218-.233.472-.744.71-1.219.474Zm-21.311-18.34 14.268 7.039c.396.195.907-.042 1.14-.514.233-.472.071-.944-.325-1.14l-14.267-7.038c-.397-.195-.908.042-1.141.514-.233.472-.071.943.325 1.139Zm6.329 10.95-9.511-4.693c-.397-.195-.52-.745-.287-1.217.233-.472.744-.71 1.141-.514l9.511 4.693c.396.195.519.745.286 1.217-.153.512-.664.749-1.14.514Zm10.339-19.557L175.515 38.61c-.555-.274-.798-.98-.526-1.532.272-.55.98-.788 1.535-.514l24.096 11.888c.555.273.797.98.525 1.53-.271.552-.98.79-1.535.516Zm-17.655-1.568-9.274-4.576a1.166 1.166 0 0 1-.526-1.531c.272-.55.981-.788 1.536-.515l9.194 4.536c.555.274.797.981.526 1.532-.272.55-.981.788-1.456.554Z" fill="#E6E6EB"/><path d="m206.573 52.367-2.329 4.722c-.971 1.967-.042 4.48 1.939 5.458l12.682 6.257" stroke="#6F7590" stroke-miterlimit="10" stroke-linecap="round" stroke-linejoin="round"/><g filter="url(#no_assets_to_show__d)"><path d="m149.685 105.29-58.284-2.808a2.392 2.392 0 0 1-2.286-2.513l4.075-84.572a2.392 2.392 0 0 1 2.516-2.281l58.151 2.801a2.39 2.39 0 0 1 2.285 2.513l-4.08 84.705c-.058 1.198-1.176 2.212-2.377 2.155Z" fill="#fff"/></g><g filter="url(#no_assets_to_show__e)"><path d="M153.851 16.045a2.39 2.39 0 0 1 2.285 2.51l-4.075 84.582c-.057 1.197-1.176 2.209-2.376 2.152l-58.284-2.808a2.39 2.39 0 0 1-2.286-2.51l4.069-84.45a2.39 2.39 0 0 1 2.516-2.278l49.378 2.278" stroke="#64748B" stroke-linecap="round"/></g><path d="m149.897 62.048-46.814-2.255-.264 5.46 46.815 2.255.263-5.46Z" fill="#E6EDF5"/><path d="m130.201 62.968-12.804-.617-.077 1.599 12.804.616.077-1.598Z" fill="#CED7E2"/><path d="m142.413 64.057 3.536.17-.029.6-3.536-.17.029-.6Z" fill="#CED7E2" stroke="#CDD6E1"/><path d="m149.338 73.635-46.814-2.255-.263 5.46 46.814 2.255.263-5.46Z" fill="#E6EDF5"/><path d="m125.769 74.502-8.936-.43-.077 1.597 8.936.431.077-1.598Z" fill="#CED7E2"/><path d="m138.514 75.617 6.871.33-.029.6-6.87-.33.028-.6Z" fill="#CED7E2" stroke="#CDD6E1"/><path d="M148.774 85.356 101.959 83.1l-.263 5.46 46.815 2.256.263-5.46Z" fill="#E6EDF5"/><path d="m131.079 86.371-14.805-.713-.077 1.598 14.805.714.077-1.599Z" fill="#CED7E2"/><path d="m143.291 87.46 1.536.074-.029.6-1.536-.074.029-.6Z" fill="#CED7E2" stroke="#CDD6E1"/><path d="m148.449 22.732-14.538-.7-.134-.007-.133-.006-14.938-.72-.133-.006-.134-.007-14.004-.675c-1.6-.077-2.865 1.197-2.942 2.796l-1.225 25.437c-.077 1.599 1.192 2.995 2.659 3.066l44.014 2.12c1.6.077 2.865-1.197 2.942-2.795l1.225-25.438c.077-1.599-1.192-2.995-2.659-3.065Zm-30.027 21.113.276-5.726 13.471.648-.276 5.727-13.471-.649Zm13.387 2.38-.25 5.195-13.471-.649.251-5.194 13.47.649Zm.713-14.783-.276 5.727-13.471-.649.276-5.727 13.471.65Zm-13.381-2.513.276-5.727 13.47.649-.282 5.86-13.471-.649.007-.133Zm29.65 8.904-14.805-.713.276-5.727 14.805.713-.276 5.727Zm-31.877-1.536-14.404-.694.276-5.727 14.404.694-.276 5.727Zm-14.488 1.038 14.405.694-.276 5.726-14.405-.694.276-5.726Zm31.477 1.516 14.804.713-.276 5.727-14.804-.713.276-5.727Zm15.471-13.138-.224 4.662-14.805-.714.276-5.727 13.738.662c.533.026 1.048.451 1.015 1.117Zm-45.029-3.237 13.338.643-.283 5.86-14.537-.7.224-4.662c.039-.8.591-1.173 1.258-1.141Zm-2.477 26.446.199-4.13 14.404.695-.25 5.194-13.337-.642c-.54.107-1.048-.452-1.016-1.117Zm45.156 3.377-13.737-.662.25-5.194 14.804.713-.198 4.128c-.026.533-.585 1.04-1.119 1.014Z" fill="#E3EAF2"/><g filter="url(#no_assets_to_show__f)"><path d="m106.242 99.677-49.983 20.86a2.22 2.22 0 0 1-2.917-1.197L23.027 46.7a2.22 2.22 0 0 1 1.2-2.916l49.87-20.812a2.22 2.22 0 0 1 2.917 1.197l30.315 72.64c.477 1.143-.057 2.438-1.087 2.868Z" fill="#fff"/></g><g filter="url(#no_assets_to_show__g)"><path d="m41.21 36.62 32.887-13.647a2.22 2.22 0 0 1 2.917 1.196l30.315 72.64c.477 1.143-.057 2.439-1.087 2.868l-49.983 20.86a2.22 2.22 0 0 1-2.917-1.197L23.027 46.7a2.22 2.22 0 0 1 1.2-2.916l11.904-4.967" stroke="#64748B" stroke-linecap="round"/></g><path d="m92.907 79.628-39.918 16.66c-.343.142-.83-.057-.972-.4l-.096-.228c-.143-.343.057-.829.4-.972L92.24 78.03c.343-.143.829.056.972.399l.095.228c.143.343.058.781-.4.972Zm2.049 4.912-39.918 16.658c-.343.143-.83-.056-.972-.399l-.095-.228c-.143-.343.057-.828.4-.972L94.289 82.94c.343-.143.83.056.972.4l.096.227c.142.343.057.781-.4.972Zm-27.507 17.111-10.294 4.297a.847.847 0 0 1-1.135-.466.846.846 0 0 1 .467-1.133l10.294-4.297a.847.847 0 0 1 1.135.466.846.846 0 0 1-.467 1.133Z" fill="#E3EAF2"/><path d="m61.11 86.461-10.295 4.296a.847.847 0 0 1-1.134-.465.847.847 0 0 1 .467-1.133l10.294-4.297a.847.847 0 0 1 1.134.466.846.846 0 0 1-.467 1.133Z" fill="#CED7E2"/><path d="M72.601 37.41c-.686.286-1.23.915-1.448 1.677l-5.948.873c-.277-.019-.572.239-.706.563l-5.203 12.632c-.39.029-.782.058-1.125.2-.343.144-.639.402-.934.659l-9.723-3.989c.02-.276-.076-.505-.219-.847-.524-1.257-1.935-1.74-3.079-1.263-1.144.477-1.744 1.934-1.267 3.077.095.228.238.57.448.751l-3.27 7.936c-.276-.019-.619.124-.848.22a2.352 2.352 0 0 0-1.267 3.077c.477 1.142 1.935 1.74 3.079 1.263 1.144-.477 1.744-1.935 1.267-3.077-.143-.343-.352-.523-.61-.818l3.27-7.936c.39-.029.666-.01 1.01-.153.343-.143.638-.4.82-.61l9.722 3.988c-.02.276.076.505.172.733.524 1.257 1.935 1.74 3.078 1.264a2.351 2.351 0 0 0 1.268-3.078c-.095-.228-.19-.456-.4-.637l5.07-12.308 5.442-.796c.544.98 1.84 1.512 2.984 1.034a2.352 2.352 0 0 0 1.267-3.077c-.295-1.352-1.706-1.836-2.85-1.358ZM40.776 63.163a1.11 1.11 0 0 1-1.458-.598 1.11 1.11 0 0 1 .6-1.457 1.11 1.11 0 0 1 1.459.598c.19.457-.029 1.219-.6 1.457Zm4.89-12.098a1.11 1.11 0 0 1-1.46-.598 1.11 1.11 0 0 1 .601-1.458 1.11 1.11 0 0 1 1.459.598c.238.572.086 1.172-.6 1.458Zm13.954 5.441a1.11 1.11 0 0 1-1.458-.598 1.11 1.11 0 0 1 .6-1.458 1.11 1.11 0 0 1 1.459.599c.352.523.085 1.17-.6 1.457Zm14.316-15.898a1.11 1.11 0 0 1-1.458-.599 1.11 1.11 0 0 1 .6-1.457 1.11 1.11 0 0 1 1.458.598 1.11 1.11 0 0 1-.6 1.458Z" fill="url(#no_assets_to_show__h)"/><path d="m49.833 81.646-2.288.955c-.229.095-.553-.038-.648-.266l-4.671-11.193c-.096-.229.038-.553.267-.648l2.287-.955c.229-.095.553.038.648.266L50.1 80.998c.095.229-.038.552-.267.648Z" fill="url(#no_assets_to_show__i)"/><path d="m51.206 81.073-2.631 1.098c-.229.096-.39.03-.486-.2l-2.145-5.139c-.096-.228-.029-.39.2-.486l2.63-1.098c.23-.095.391-.029.487.2l2.145 5.14c.095.228-.086.438-.2.485Z" fill="url(#no_assets_to_show__j)"/><path d="m55.78 79.164-2.287.955c-.229.095-.553-.038-.648-.266l-3.241-7.767c-.096-.228.038-.552.267-.648l2.287-.954c.229-.096.553.037.648.266l3.242 7.766c.095.229-.038.552-.267.648Z" fill="url(#no_assets_to_show__k)"/><path d="m61.728 76.681-2.287.955c-.23.096-.553-.037-.649-.266l-2.05-4.911c-.094-.228.039-.552.268-.648l2.287-.954c.23-.096.553.037.649.266l2.05 4.91c.094.23-.039.553-.268.648Z" fill="url(#no_assets_to_show__l)"/><path d="m67.676 74.2-2.287.954c-.229.095-.553-.038-.648-.266l-3.861-9.252c-.096-.228.038-.552.267-.647l2.287-.955c.229-.095.553.037.648.266l3.861 9.251c.096.229.076.505-.267.648Z" fill="url(#no_assets_to_show__m)"/><path d="m73.738 71.67-2.288.954c-.228.096-.553-.037-.648-.266l-2.336-5.596c-.095-.228.039-.552.267-.648l2.288-.955c.229-.095.553.038.648.266l2.336 5.597c.095.228-.038.552-.267.648Z" fill="url(#no_assets_to_show__n)"/><path d="m79.686 69.188-2.288.954c-.229.096-.553-.037-.648-.266l-3.242-7.766c-.095-.229.039-.553.267-.648l2.288-.955c.229-.095.553.038.648.266l3.241 7.767c.096.228-.038.552-.266.648Z" fill="url(#no_assets_to_show__o)"/><path d="m85.633 66.705-2.287.955c-.229.095-.553-.038-.648-.266l-2.05-4.911c-.095-.229.038-.553.267-.648l2.288-.955c.228-.095.552.038.648.266l2.05 4.911c.095.229-.039.553-.267.648Z" fill="url(#no_assets_to_show__p)"/><path d="m57.153 78.591-2.745 1.146a.266.266 0 0 1-.324-.133l-1.287-3.084a.266.266 0 0 1 .133-.324l2.745-1.146a.266.266 0 0 1 .325.133l1.287 3.084a.266.266 0 0 1-.134.324Z" fill="url(#no_assets_to_show__q)"/><path d="m63.215 76.061-2.859 1.194c-.114.047-.276-.02-.324-.133l-.62-1.485a.266.266 0 0 1 .134-.324l2.86-1.193a.266.266 0 0 1 .323.133l.62 1.484c-.067.162-.02.276-.134.324Z" fill="url(#no_assets_to_show__r)"/><path d="m69.163 73.579-2.745 1.146a.267.267 0 0 1-.324-.133l-.906-2.17c-.048-.115.02-.277.133-.324l2.746-1.146a.266.266 0 0 1 .324.133l.905 2.17c.048.114.096.229-.133.324Z" fill="url(#no_assets_to_show__s)"/><path d="m75.11 71.097-2.63 1.098a.266.266 0 0 1-.324-.133l-1.669-3.998a.267.267 0 0 1 .134-.324l2.63-1.097c.115-.048.277.018.325.132l1.668 3.998c.162.067.095.228-.133.324Z" fill="url(#no_assets_to_show__t)"/><path d="m81.401 68.471-2.974 1.242c-.114.047-.114.047-.162-.067l-.286-.685c-.047-.114-.047-.114.067-.162l2.974-1.241c.114-.048.114-.048.162.066l.238.571c.048.115.096.229-.019.276Z" fill="url(#no_assets_to_show__u)"/><path d="m87.35 65.99-2.974 1.241s-.115.048-.163-.066l-.143-.344s-.047-.114.067-.162l2.974-1.24s.114-.049.162.066l.076.505s.067-.162 0 0Z" fill="url(#no_assets_to_show__v)"/><path d="M119.372 148.772c10.176 0 18.425-8.246 18.425-18.417 0-10.171-8.249-18.417-18.425-18.417s-18.426 8.246-18.426 18.417c0 10.171 8.25 18.417 18.426 18.417Z" fill="#fff"/><path d="m146.87 152.792-3.835 3.833-11.317-11.125 3.928-3.833 11.224 11.125Z" fill="#A0B7FF"/><path d="M104.313 114.275c-8.417 8.414-8.417 21.97 0 30.29 8.418 8.32 21.98 8.414 30.304 0 8.324-8.414 8.418-21.969 0-30.29-8.418-8.32-21.886-8.413-30.304 0Zm26.937 26.924c-6.453 6.451-17.022 6.451-23.476 0-6.454-6.45-6.454-17.014 0-23.465 6.454-6.45 17.023-6.45 23.476 0 6.454 6.451 6.454 16.921 0 23.465Z" fill="url(#no_assets_to_show__w)"/><path d="M152.949 162.701c-1.777 1.776-4.583 1.776-6.266 0l-11.411-11.312c-.748-.654-.748-1.869 0-2.524l3.741-3.739c.655-.655 1.777-.655 2.526 0l11.41 11.312c1.777 1.776 1.777 4.58 0 6.263Z" fill="url(#no_assets_to_show__x)"/><path d="M119.652 140.825a1.476 1.476 0 0 1-1.496-1.495c0-.842.748-1.59 1.59-1.59.841 0 1.59.655 1.59 1.496-.094.935-.749 1.589-1.59 1.589h-.094Zm.094-4.767c-.842 0-1.497-.655-1.59-1.496v-3.272c0-1.589 1.029-2.992 2.525-3.553 1.216-.374 1.964-1.589 1.871-2.804-.094-1.403-1.216-2.618-2.713-2.711h-.187c-1.216 0-2.338.841-2.712 2.056-.187.655-.842 1.029-1.497 1.029-.187 0-.374 0-.561-.094-.748-.28-1.216-1.028-1.029-1.87.749-2.524 3.087-4.393 5.799-4.393h.374c1.59.093 3.087.748 4.116 1.963 1.028 1.215 1.59 2.711 1.496 4.3-.093 2.337-1.683 4.488-3.835 5.329h-.187c-.187.093-.374.28-.28.561v2.991c0 .468-.094.842-.374 1.122-.281.281-.655.468-1.123.561l-.093.281Z" fill="url(#no_assets_to_show__y)"/><path d="m145.56 161.579 1.123 1.122c1.777 1.776 4.583 1.776 6.266 0 1.684-1.776 1.777-4.581 0-6.263l-11.411-11.312c-.654-.655-1.683-.655-2.431-.094l-2.619-2.524c6.453-8.414 5.892-20.473-1.777-28.233-5.799-5.796-14.217-7.572-21.606-5.328m-9.353 5.983c-7.763 8.414-7.576 21.502.655 29.635 7.669 7.666 19.828 8.32 28.246 1.776l2.619 2.618c-.655.748-.655 1.776.093 2.43l6.828 6.731m-27.498-12.807a16.47 16.47 0 0 1-6.921-4.114c-6.454-6.45-6.454-17.014 0-23.465 6.454-6.45 17.022-6.45 23.476 0 6.454 6.451 6.454 17.015 0 23.465-1.403 1.403-2.899 2.431-4.489 3.179m-18.426-33.188c-.281.187-.655.374-.935.655l.935-.655Z" stroke="#6F7590" stroke-miterlimit="10" stroke-linecap="round" stroke-linejoin="round"/><path d="m86.717 9.729-.584-.097c-.292 0-.486-.195-.584-.486-.097-.194-.097-.388-.194-.485-.098-.194-.098-.486.097-.68l.292-.486c.195-.29.194-.68-.097-.873l-.973-.971c-.292-.292-.681-.292-.876-.097l-.486.291c-.195.194-.486.194-.778.097-.195-.097-.39-.194-.487-.194-.292-.097-.389-.291-.486-.583l-.098-.582c-.097-.389-.389-.583-.68-.583H79.42c-.39 0-.681.291-.681.583l-.098.582c0 .292-.194.486-.486.583-.195.097-.39.097-.486.194-.195.097-.487.097-.681-.097l-.487-.291c-.292-.195-.68-.195-.875.097l-.973.97c-.292.292-.292.68-.097.874l.291.486c.195.194.195.486.098.68-.098.194-.195.388-.195.485-.097.291-.292.389-.584.486l-.583.097c-.39.097-.584.388-.584.68v1.358c0 .389.292.68.584.68l.583.097c.292 0 .487.195.584.486.097.194.097.388.195.485.097.195.097.486-.097.777l-.292.485a.746.746 0 0 0 .097.971l.973.971c.291.291.68.292.875.097l.487-.29c.194-.195.486-.195.68-.098.195.097.39.194.487.194.292.097.39.291.486.583l.098.582c.097.389.389.583.68.583h1.362c.39 0 .681-.291.681-.583l.098-.582c0-.292.194-.486.486-.583.195-.097.39-.097.487-.194.194-.097.486-.097.778.097l.486.291c.292.195.681.195.876-.097l.973-.97a.746.746 0 0 0 .097-.972l-.292-.485c-.195-.194-.195-.485-.097-.777.097-.194.194-.388.194-.485.098-.291.292-.388.584-.486l.584-.097c.389-.097.583-.388.583-.68v-1.359c0-.388-.194-.68-.583-.68Zm-6.42 3.69a2.406 2.406 0 0 1-2.433-2.428c0-1.36 1.07-2.427 2.432-2.427a2.406 2.406 0 0 1 2.432 2.427c-.097 1.36-1.167 2.427-2.432 2.427Z" fill="url(#no_assets_to_show__z)"/><path d="m185.534 130.078-.389-.097c-.195 0-.292-.195-.39-.292 0-.097-.097-.291-.194-.388-.097-.194-.097-.388.097-.485l.195-.291a.83.83 0 0 0 0-.68l-.681-.68a.471.471 0 0 0-.681 0l-.292.194c-.195.097-.389.097-.486 0-.098-.097-.292-.097-.39-.194-.194-.097-.291-.194-.291-.388l-.098-.389c0-.194-.194-.388-.486-.388h-.876c-.291 0-.486.194-.486.388l-.097.389c0 .194-.195.291-.292.388-.098 0-.292.097-.389.194-.195.097-.389.097-.487 0l-.292-.194c-.194-.194-.486-.097-.681 0l-.68.68a.468.468 0 0 0 0 .68l.194.291c.097.194.097.291 0 .485-.097.097-.097.291-.194.388-.098.195-.195.292-.39.292l-.389.097c-.194 0-.389.194-.389.485v.874c0 .292.195.486.389.486l.389.096c.195 0 .292.195.39.292 0 .097.097.291.194.388.097.194.097.389 0 .486l-.194.291a.823.823 0 0 0 0 .68l.68.68a.471.471 0 0 0 .681 0l.292-.195c.098-.097.292-.097.487-.097.097.097.291.097.389.194.194.097.292.194.292.389l.097.388c0 .194.195.388.486.388h.876c.292 0 .486-.194.486-.388l.098-.388c0-.195.194-.292.291-.389.098 0 .292-.097.39-.194.194-.097.389-.097.486.097l.292.195a.833.833 0 0 0 .681 0l.681-.68a.47.47 0 0 0 0-.68l-.195-.291c-.097-.194-.097-.389-.097-.486.097-.097.097-.291.194-.388.098-.194.195-.292.39-.292l.389-.096c.194 0 .389-.194.389-.486v-.874c.097-.291-.098-.485-.389-.485Zm-4.475 2.621c-.876 0-1.654-.777-1.654-1.65 0-.874.778-1.651 1.654-1.651.875 0 1.654.777 1.654 1.651 0 .873-.681 1.65-1.654 1.65Z" fill="url(#no_assets_to_show__A)"/><defs><linearGradient id="no_assets_to_show__a" x1="163.026" y1="20.452" x2="167.439" y2="20.452" gradientUnits="userSpaceOnUse"><stop stop-color="#FF66A9"/><stop offset="1" stop-color="#F53689"/></linearGradient><linearGradient id="no_assets_to_show__b" x1="86.418" y1="137.707" x2="90.563" y2="137.707" gradientUnits="userSpaceOnUse"><stop stop-color="#FF66A9"/><stop offset="1" stop-color="#F53689"/></linearGradient><linearGradient id="no_assets_to_show__c" x1="193.694" y1="16.171" x2="197.839" y2="16.171" gradientUnits="userSpaceOnUse"><stop stop-color="#83A6FF"/><stop offset="1" stop-color="#5A78FF"/></linearGradient><linearGradient id="no_assets_to_show__h" x1="36.499" y1="59.259" x2="77.201" y2="42.273" gradientUnits="userSpaceOnUse"><stop stop-color="#FF66A9"/><stop offset="1" stop-color="#F53689"/></linearGradient><linearGradient id="no_assets_to_show__i" x1="44.509" y1="76.768" x2="47.733" y2="75.423" gradientUnits="userSpaceOnUse"><stop stop-color="#83A6FF"/><stop offset="1" stop-color="#5A78FF"/></linearGradient><linearGradient id="no_assets_to_show__j" x1="47.065" y1="79.362" x2="50.289" y2="78.017" gradientUnits="userSpaceOnUse"><stop stop-color="#FF66A9"/><stop offset="1" stop-color="#F53689"/></linearGradient><linearGradient id="no_assets_to_show__k" x1="51.196" y1="75.985" x2="54.42" y2="74.639" gradientUnits="userSpaceOnUse"><stop stop-color="#83A6FF"/><stop offset="1" stop-color="#5A78FF"/></linearGradient><linearGradient id="no_assets_to_show__l" x1="57.759" y1="74.906" x2="60.983" y2="73.56" gradientUnits="userSpaceOnUse"><stop stop-color="#83A6FF"/><stop offset="1" stop-color="#5A78FF"/></linearGradient><linearGradient id="no_assets_to_show__m" x1="62.815" y1="70.213" x2="66.039" y2="68.867" gradientUnits="userSpaceOnUse"><stop stop-color="#83A6FF"/><stop offset="1" stop-color="#5A78FF"/></linearGradient><linearGradient id="no_assets_to_show__n" x1="69.556" y1="69.561" x2="72.78" y2="68.215" gradientUnits="userSpaceOnUse"><stop stop-color="#83A6FF"/><stop offset="1" stop-color="#5A78FF"/></linearGradient><linearGradient id="no_assets_to_show__o" x1="75.089" y1="66.013" x2="78.313" y2="64.668" gradientUnits="userSpaceOnUse"><stop stop-color="#83A6FF"/><stop offset="1" stop-color="#5A78FF"/></linearGradient><linearGradient id="no_assets_to_show__p" x1="81.653" y1="64.934" x2="84.877" y2="63.589" gradientUnits="userSpaceOnUse"><stop stop-color="#83A6FF"/><stop offset="1" stop-color="#5A78FF"/></linearGradient><linearGradient id="no_assets_to_show__q" x1="53.45" y1="78.03" x2="56.674" y2="76.684" gradientUnits="userSpaceOnUse"><stop stop-color="#FF66A9"/><stop offset="1" stop-color="#F53689"/></linearGradient><linearGradient id="no_assets_to_show__r" x1="59.749" y1="76.406" x2="62.974" y2="75.06" gradientUnits="userSpaceOnUse"><stop stop-color="#FF66A9"/><stop offset="1" stop-color="#F53689"/></linearGradient><linearGradient id="no_assets_to_show__s" x1="65.65" y1="73.478" x2="68.874" y2="72.132" gradientUnits="userSpaceOnUse"><stop stop-color="#FF66A9"/><stop offset="1" stop-color="#F53689"/></linearGradient><linearGradient id="no_assets_to_show__t" x1="71.244" y1="69.99" x2="74.468" y2="68.644" gradientUnits="userSpaceOnUse"><stop stop-color="#FF66A9"/><stop offset="1" stop-color="#F53689"/></linearGradient><linearGradient id="no_assets_to_show__u" x1="78.152" y1="69.302" x2="81.376" y2="67.957" gradientUnits="userSpaceOnUse"><stop stop-color="#FF66A9"/><stop offset="1" stop-color="#F53689"/></linearGradient><linearGradient id="no_assets_to_show__v" x1="84.092" y1="66.991" x2="87.316" y2="65.646" gradientUnits="userSpaceOnUse"><stop stop-color="#FF66A9"/><stop offset="1" stop-color="#F53689"/></linearGradient><linearGradient id="no_assets_to_show__w" x1="100.511" y1="119.219" x2="138.467" y2="140.626" gradientUnits="userSpaceOnUse"><stop stop-color="#83A6FF"/><stop offset=".995" stop-color="#5277D7"/></linearGradient><linearGradient id="no_assets_to_show__x" x1="135.856" y1="149.715" x2="153.111" y2="159.52" gradientUnits="userSpaceOnUse"><stop stop-color="#83A6FF"/><stop offset=".995" stop-color="#5277D7"/></linearGradient><linearGradient id="no_assets_to_show__y" x1="114.505" y1="124.678" x2="127.136" y2="128.528" gradientUnits="userSpaceOnUse"><stop stop-color="#83A6FF"/><stop offset=".995" stop-color="#5277D7"/></linearGradient><linearGradient id="no_assets_to_show__z" x1="73.02" y1="10.995" x2="86.892" y2="10.995" gradientUnits="userSpaceOnUse"><stop stop-color="#FF66A9"/><stop offset="1" stop-color="#F53689"/></linearGradient><linearGradient id="no_assets_to_show__A" x1="176.014" y1="130.82" x2="185.664" y2="130.82" gradientUnits="userSpaceOnUse"><stop stop-color="#FF66A9"/><stop offset="1" stop-color="#F53689"/></linearGradient><filter id="no_assets_to_show__d" x="67.112" y="2.113" width="111.033" height="136.179" filterUnits="userSpaceOnUse" color-interpolation-filters="sRGB"><feFlood flood-opacity="0" result="BackgroundImageFix"/><feColorMatrix in="SourceAlpha" values="0 0 0 0 0 0 0 0 0 0 0 0 0 0 0 0 0 0 127 0" result="hardAlpha"/><feOffset dy="11"/><feGaussianBlur stdDeviation="11"/><feColorMatrix values="0 0 0 0 0.397708 0 0 0 0 0.47749 0 0 0 0 0.575 0 0 0 0.18 0"/><feBlend in2="BackgroundImageFix" result="effect1_dropShadow_294_57782"/><feBlend in="SourceGraphic" in2="effect1_dropShadow_294_57782" result="shape"/></filter><filter id="no_assets_to_show__e" x="66.612" y="1.74" width="112.027" height="137.051" filterUnits="userSpaceOnUse" color-interpolation-filters="sRGB"><feFlood flood-opacity="0" result="BackgroundImageFix"/><feColorMatrix in="SourceAlpha" values="0 0 0 0 0 0 0 0 0 0 0 0 0 0 0 0 0 0 127 0" result="hardAlpha"/><feOffset dy="11"/><feGaussianBlur stdDeviation="11"/><feColorMatrix values="0 0 0 0 0.397708 0 0 0 0 0.47749 0 0 0 0 0.575 0 0 0 0.18 0"/><feBlend in2="BackgroundImageFix" result="effect1_dropShadow_294_57782"/><feBlend in="SourceGraphic" in2="effect1_dropShadow_294_57782" result="shape"/></filter><filter id="no_assets_to_show__f" x=".853" y="11.797" width="128.652" height="141.914" filterUnits="userSpaceOnUse" color-interpolation-filters="sRGB"><feFlood flood-opacity="0" result="BackgroundImageFix"/><feColorMatrix in="SourceAlpha" values="0 0 0 0 0 0 0 0 0 0 0 0 0 0 0 0 0 0 127 0" result="hardAlpha"/><feOffset dy="11"/><feGaussianBlur stdDeviation="11"/><feColorMatrix values="0 0 0 0 0.397708 0 0 0 0 0.47749 0 0 0 0 0.575 0 0 0 0.18 0"/><feBlend in2="BackgroundImageFix" result="effect1_dropShadow_294_57782"/><feBlend in="SourceGraphic" in2="effect1_dropShadow_294_57782" result="shape"/></filter><filter id="no_assets_to_show__g" x=".353" y="11.297" width="129.652" height="142.915" filterUnits="userSpaceOnUse" color-interpolation-filters="sRGB"><feFlood flood-opacity="0" result="BackgroundImageFix"/><feColorMatrix in="SourceAlpha" values="0 0 0 0 0 0 0 0 0 0 0 0 0 0 0 0 0 0 127 0" result="hardAlpha"/><feOffset dy="11"/><feGaussianBlur stdDeviation="11"/><feColorMatrix values="0 0 0 0 0.397708 0 0 0 0 0.47749 0 0 0 0 0.575 0 0 0 0.18 0"/><feBlend in2="BackgroundImageFix" result="effect1_dropShadow_294_57782"/><feBlend in="SourceGraphic" in2="effect1_dropShadow_294_57782" result="shape"/></filter></defs></svg>