<svg width="220" height="206" viewBox="0 0 220 206" fill="none" xmlns="http://www.w3.org/2000/svg">
<rect width="220" height="206" rx="4" fill="#F7F7F7"/>
<g clip-path="url(#clip0_4735_234498)">
<rect width="83" height="8" transform="translate(19 25)" fill="white" fill-opacity="0.9"/>
<line x1="19" y1="32.5" x2="102" y2="32.5" stroke="#6F7590"/>
<rect width="30" height="16" transform="translate(40 33)" fill="#D6D6F5"/>
<line x1="40" y1="48.5" x2="70" y2="48.5" stroke="#6F7590"/>
<rect width="20" height="16" transform="translate(19 33)" fill="#C9F9EE"/>
<line x1="19" y1="48.5" x2="39" y2="48.5" stroke="#6F7590"/>
<path d="M27.7344 42.9844H29.0234V39.3555L28.1484 40.3047L27.6016 39.7344L29.0312 38.168H30.1445V42.9844H31.4336V44H27.7344V42.9844Z" fill="#3E4359"/>
<line x1="70.5" y1="33" x2="70.5" y2="49" stroke="#6F7590"/>
<line x1="39.5" y1="33" x2="39.5" y2="49" stroke="#6F7590"/>
<rect width="30" height="16" transform="translate(71 33)" fill="#D6D6F5"/>
<line x1="71" y1="48.5" x2="101" y2="48.5" stroke="#6F7590"/>
<rect width="30" height="16" transform="translate(40 49)" fill="#D6D6F5"/>
<line x1="40" y1="64.5" x2="70" y2="64.5" stroke="#F3F3F3"/>
<rect width="20" height="16" transform="translate(19 49)" fill="#C9F9EE"/>
<line x1="19" y1="64.5" x2="39" y2="64.5" stroke="#F3F3F3"/>
<path d="M27.4492 59.1562C27.4492 59.0677 27.4818 58.987 27.5469 58.9141L28.0742 58.3516C28.3633 58.0391 28.5924 57.793 28.7617 57.6133C28.931 57.4336 29.0638 57.2904 29.1602 57.1836C29.2565 57.0768 29.3451 56.9792 29.4258 56.8906C29.5221 56.7786 29.6055 56.6771 29.6758 56.5859C29.7461 56.4922 29.8034 56.3971 29.8477 56.3008C29.9336 56.1263 29.9766 55.9505 29.9766 55.7734C29.9766 55.5234 29.8971 55.3268 29.7383 55.1836C29.5794 55.0404 29.3568 54.9688 29.0703 54.9688C28.8542 54.9688 28.6237 55.0091 28.3789 55.0898C28.2513 55.1315 28.1198 55.1823 27.9844 55.2422C27.8516 55.2995 27.7148 55.3685 27.5742 55.4492V54.375C27.7305 54.3177 27.8789 54.2695 28.0195 54.2305C28.1602 54.1914 28.2852 54.1615 28.3945 54.1406C28.6628 54.0885 28.9232 54.0625 29.1758 54.0625C29.4596 54.0625 29.724 54.0977 29.9688 54.168C30.2161 54.2357 30.4323 54.3438 30.6172 54.4922C30.7839 54.6276 30.9128 54.793 31.0039 54.9883C31.0977 55.1836 31.1445 55.4167 31.1445 55.6875C31.1445 55.901 31.1055 56.1107 31.0273 56.3164C30.931 56.5482 30.7995 56.7708 30.6328 56.9844C30.5417 57.099 30.4089 57.2474 30.2344 57.4297C30.0599 57.612 29.8138 57.862 29.4961 58.1797C29.306 58.3724 29.1562 58.5143 29.0469 58.6055C28.9375 58.694 28.849 58.7617 28.7812 58.8086C28.7135 58.8555 28.6458 58.9141 28.5781 58.9844H31.1523V60H27.4492V59.1562Z" fill="#3E4359"/>
<line x1="70.5" y1="49" x2="70.5" y2="65" stroke="#6F7590"/>
<line x1="39.5" y1="49" x2="39.5" y2="65" stroke="#6F7590"/>
<rect width="30" height="16" transform="translate(71 49)" fill="#D6D6F5"/>
<line x1="71" y1="64.5" x2="101" y2="64.5" stroke="#F3F3F3"/>
</g>
<rect x="19.5" y="25.5" width="82" height="39" rx="1.5" stroke="#6F7590"/>
<rect width="83" height="8" transform="translate(118 25)" fill="white" fill-opacity="0.9"/>
<line x1="118" y1="32.5" x2="201" y2="32.5" stroke="#6F7590"/>
<rect width="30" height="16" transform="translate(139 33)" fill="#FFF8E5"/>
<line x1="139" y1="48.5" x2="169" y2="48.5" stroke="#6F7590"/>
<rect width="20" height="16" transform="translate(118 33)" fill="#C9F9EE"/>
<line x1="118" y1="48.5" x2="138" y2="48.5" stroke="#6F7590"/>
<path d="M126.734 42.9844H128.023V39.3555L127.148 40.3047L126.602 39.7344L128.031 38.168H129.145V42.9844H130.434V44H126.734V42.9844Z" fill="#3E4359"/>
<line x1="169.5" y1="33" x2="169.5" y2="49" stroke="#6F7590"/>
<line x1="138.5" y1="33" x2="138.5" y2="49" stroke="#6F7590"/>
<rect width="30" height="16" transform="translate(170 33)" fill="#FFF8E5"/>
<line x1="170" y1="48.5" x2="200" y2="48.5" stroke="#6F7590"/>
<rect width="30" height="16" transform="translate(139 49)" fill="#FFF8E5"/>
<line x1="139" y1="64.5" x2="169" y2="64.5" stroke="#6F7590"/>
<rect width="20" height="16" transform="translate(118 49)" fill="#C9F9EE"/>
<line x1="118" y1="64.5" x2="138" y2="64.5" stroke="#6F7590"/>
<path d="M128.168 60.1133C128.03 60.1133 127.888 60.1068 127.742 60.0938C127.596 60.0833 127.452 60.0651 127.309 60.0391C127.176 60.0156 127.04 59.987 126.902 59.9531C126.764 59.9167 126.626 59.8737 126.488 59.8242V58.7539C126.733 58.8789 126.997 58.9714 127.281 59.0312C127.43 59.0651 127.576 59.0898 127.719 59.1055C127.862 59.1211 127.993 59.1289 128.113 59.1289C128.285 59.1289 128.439 59.112 128.574 59.0781C128.71 59.0443 128.826 58.9896 128.922 58.9141C129.102 58.7682 129.191 58.5638 129.191 58.3008C129.191 58.0221 129.1 57.7995 128.918 57.6328C128.832 57.5573 128.724 57.4987 128.594 57.457C128.466 57.4128 128.316 57.3906 128.145 57.3906H127.527V56.375H128.145C128.428 56.375 128.651 56.3177 128.812 56.2031C128.969 56.0911 129.047 55.931 129.047 55.7227C129.047 55.5065 128.969 55.3385 128.812 55.2188C128.661 55.099 128.436 55.0391 128.137 55.0391C128.035 55.0391 127.924 55.0456 127.805 55.0586C127.688 55.0716 127.566 55.0924 127.441 55.1211C127.324 55.1471 127.199 55.181 127.066 55.2227C126.934 55.2617 126.799 55.3073 126.664 55.3594V54.3125C126.935 54.2318 127.199 54.1693 127.457 54.125C127.715 54.0833 127.964 54.0625 128.203 54.0625C128.826 54.0625 129.306 54.1966 129.645 54.4648C129.988 54.7331 130.16 55.1029 130.16 55.5742C130.16 55.7409 130.137 55.8945 130.09 56.0352C130.046 56.1758 129.97 56.3047 129.863 56.4219C129.665 56.6432 129.383 56.7878 129.016 56.8555C129.432 56.9284 129.75 57.0938 129.969 57.3516C130.188 57.6068 130.297 57.9505 130.297 58.3828C130.297 58.9401 130.117 59.3685 129.758 59.668C129.398 59.9648 128.868 60.1133 128.168 60.1133Z" fill="#3E4359"/>
<line x1="169.5" y1="49" x2="169.5" y2="65" stroke="#6F7590"/>
<line x1="138.5" y1="49" x2="138.5" y2="65" stroke="#6F7590"/>
<rect width="30" height="16" transform="translate(170 49)" fill="#FFF8E5"/>
<line x1="170" y1="64.5" x2="200" y2="64.5" stroke="#6F7590"/>
<rect width="30" height="16" transform="translate(139 65)" fill="#FFF8E5"/>
<line x1="139" y1="80.5" x2="169" y2="80.5" stroke="#F3F3F3"/>
<rect width="20" height="16" transform="translate(118 65)" fill="#C9F9EE"/>
<line x1="118" y1="80.5" x2="138" y2="80.5" stroke="#F3F3F3"/>
<path d="M128.711 74.7422H126.398V73.625L128.609 70.168H129.816V73.7539H130.457V74.7422H129.816V76H128.711V74.7422ZM128.711 73.7539V71.4492L127.238 73.7539H128.711Z" fill="#3E4359"/>
<line x1="169.5" y1="65" x2="169.5" y2="81" stroke="#6F7590"/>
<line x1="138.5" y1="65" x2="138.5" y2="81" stroke="#6F7590"/>
<rect width="30" height="16" transform="translate(170 65)" fill="#FFF8E5"/>
<line x1="170" y1="80.5" x2="200" y2="80.5" stroke="#F3F3F3"/>
<rect x="118.5" y="25.5" width="82" height="55" rx="1.5" stroke="#6F7590"/>
<rect width="144" height="8" transform="translate(38 122)" fill="white" fill-opacity="0.9"/>
<line x1="38" y1="129.5" x2="182" y2="129.5" stroke="#6F7590"/>
<rect width="30" height="16" transform="translate(59 130)" fill="#D6D6F5"/>
<line x1="59" y1="145.5" x2="89" y2="145.5" stroke="#6F7590"/>
<rect width="20" height="16" transform="translate(38 130)" fill="#C9F9EE"/>
<line x1="38" y1="145.5" x2="58" y2="145.5" stroke="#6F7590"/>
<path d="M46.7344 139.984H48.0234V136.355L47.1484 137.305L46.6016 136.734L48.0312 135.168H49.1445V139.984H50.4336V141H46.7344V139.984Z" fill="#3E4359"/>
<line x1="89.5" y1="130" x2="89.5" y2="146" stroke="#6F7590"/>
<line x1="120.5" y1="130" x2="120.5" y2="146" stroke="#6F7590"/>
<line x1="151.5" y1="130" x2="151.5" y2="146" stroke="#6F7590"/>
<line x1="58.5" y1="130" x2="58.5" y2="146" stroke="#6F7590"/>
<rect width="30" height="16" transform="translate(90 130)" fill="#D6D6F5"/>
<line x1="90" y1="145.5" x2="120" y2="145.5" stroke="#6F7590"/>
<rect width="30" height="16" transform="translate(121 130)" fill="#FFF8E5"/>
<line x1="121" y1="145.5" x2="151" y2="145.5" stroke="#6F7590"/>
<rect width="30" height="16" transform="translate(152 130)" fill="#FFF8E5"/>
<line x1="152" y1="145.5" x2="182" y2="145.5" stroke="#6F7590"/>
<rect width="30" height="16" transform="translate(59 146)" fill="#D6D6F5"/>
<line x1="59" y1="161.5" x2="89" y2="161.5" stroke="#6F7590"/>
<rect width="20" height="16" transform="translate(38 146)" fill="#C9F9EE"/>
<line x1="38" y1="161.5" x2="58" y2="161.5" stroke="#6F7590"/>
<path d="M46.4492 156.156C46.4492 156.068 46.4818 155.987 46.5469 155.914L47.0742 155.352C47.3633 155.039 47.5924 154.793 47.7617 154.613C47.931 154.434 48.0638 154.29 48.1602 154.184C48.2565 154.077 48.3451 153.979 48.4258 153.891C48.5221 153.779 48.6055 153.677 48.6758 153.586C48.7461 153.492 48.8034 153.397 48.8477 153.301C48.9336 153.126 48.9766 152.951 48.9766 152.773C48.9766 152.523 48.8971 152.327 48.7383 152.184C48.5794 152.04 48.3568 151.969 48.0703 151.969C47.8542 151.969 47.6237 152.009 47.3789 152.09C47.2513 152.132 47.1198 152.182 46.9844 152.242C46.8516 152.299 46.7148 152.368 46.5742 152.449V151.375C46.7305 151.318 46.8789 151.27 47.0195 151.23C47.1602 151.191 47.2852 151.161 47.3945 151.141C47.6628 151.089 47.9232 151.062 48.1758 151.062C48.4596 151.062 48.724 151.098 48.9688 151.168C49.2161 151.236 49.4323 151.344 49.6172 151.492C49.7839 151.628 49.9128 151.793 50.0039 151.988C50.0977 152.184 50.1445 152.417 50.1445 152.688C50.1445 152.901 50.1055 153.111 50.0273 153.316C49.931 153.548 49.7995 153.771 49.6328 153.984C49.5417 154.099 49.4089 154.247 49.2344 154.43C49.0599 154.612 48.8138 154.862 48.4961 155.18C48.306 155.372 48.1562 155.514 48.0469 155.605C47.9375 155.694 47.849 155.762 47.7812 155.809C47.7135 155.855 47.6458 155.914 47.5781 155.984H50.1523V157H46.4492V156.156Z" fill="#3E4359"/>
<line x1="89.5" y1="146" x2="89.5" y2="162" stroke="#6F7590"/>
<line x1="120.5" y1="146" x2="120.5" y2="162" stroke="#6F7590"/>
<line x1="151.5" y1="146" x2="151.5" y2="162" stroke="#6F7590"/>
<line x1="58.5" y1="146" x2="58.5" y2="162" stroke="#6F7590"/>
<rect width="30" height="16" transform="translate(90 146)" fill="#D6D6F5"/>
<line x1="90" y1="161.5" x2="120" y2="161.5" stroke="#6F7590"/>
<rect width="30" height="16" transform="translate(121 146)" fill="white"/>
<line x1="121" y1="161.5" x2="151" y2="161.5" stroke="#6F7590"/>
<rect width="30" height="16" transform="translate(152 146)" fill="white"/>
<line x1="152" y1="161.5" x2="182" y2="161.5" stroke="#6F7590"/>
<rect width="30" height="16" transform="translate(59 162)" fill="white"/>
<line x1="59" y1="177.5" x2="89" y2="177.5" stroke="#6F7590"/>
<rect width="20" height="16" transform="translate(38 162)" fill="#C9F9EE"/>
<line x1="38" y1="177.5" x2="58" y2="177.5" stroke="#6F7590"/>
<path d="M48.168 173.113C48.0299 173.113 47.888 173.107 47.7422 173.094C47.5964 173.083 47.4518 173.065 47.3086 173.039C47.1758 173.016 47.0404 172.987 46.9023 172.953C46.7643 172.917 46.6263 172.874 46.4883 172.824V171.754C46.7331 171.879 46.9974 171.971 47.2812 172.031C47.4297 172.065 47.5755 172.09 47.7188 172.105C47.862 172.121 47.9935 172.129 48.1133 172.129C48.2852 172.129 48.4388 172.112 48.5742 172.078C48.7096 172.044 48.8255 171.99 48.9219 171.914C49.1016 171.768 49.1914 171.564 49.1914 171.301C49.1914 171.022 49.1003 170.799 48.918 170.633C48.832 170.557 48.724 170.499 48.5938 170.457C48.4661 170.413 48.3164 170.391 48.1445 170.391H47.5273V169.375H48.1445C48.4284 169.375 48.651 169.318 48.8125 169.203C48.9688 169.091 49.0469 168.931 49.0469 168.723C49.0469 168.507 48.9688 168.339 48.8125 168.219C48.6615 168.099 48.4362 168.039 48.1367 168.039C48.0352 168.039 47.9245 168.046 47.8047 168.059C47.6875 168.072 47.5664 168.092 47.4414 168.121C47.3242 168.147 47.1992 168.181 47.0664 168.223C46.9336 168.262 46.7995 168.307 46.6641 168.359V167.312C46.9349 167.232 47.1992 167.169 47.457 167.125C47.7148 167.083 47.9635 167.062 48.2031 167.062C48.8255 167.062 49.306 167.197 49.6445 167.465C49.9883 167.733 50.1602 168.103 50.1602 168.574C50.1602 168.741 50.1367 168.895 50.0898 169.035C50.0456 169.176 49.9701 169.305 49.8633 169.422C49.6654 169.643 49.3828 169.788 49.0156 169.855C49.4323 169.928 49.75 170.094 49.9688 170.352C50.1875 170.607 50.2969 170.951 50.2969 171.383C50.2969 171.94 50.1172 172.368 49.7578 172.668C49.3984 172.965 48.8685 173.113 48.168 173.113Z" fill="#3E4359"/>
<line x1="89.5" y1="162" x2="89.5" y2="178" stroke="#6F7590"/>
<line x1="120.5" y1="162" x2="120.5" y2="178" stroke="#6F7590"/>
<line x1="151.5" y1="162" x2="151.5" y2="178" stroke="#6F7590"/>
<line x1="58.5" y1="162" x2="58.5" y2="178" stroke="#6F7590"/>
<rect width="30" height="16" transform="translate(90 162)" fill="white"/>
<line x1="90" y1="177.5" x2="120" y2="177.5" stroke="#6F7590"/>
<rect width="30" height="16" transform="translate(121 162)" fill="#FFF8E5"/>
<line x1="121" y1="177.5" x2="151" y2="177.5" stroke="#6F7590"/>
<rect width="30" height="16" transform="translate(152 162)" fill="#FFF8E5"/>
<line x1="152" y1="177.5" x2="182" y2="177.5" stroke="#6F7590"/>
<rect width="30" height="16" transform="translate(59 178)" fill="white"/>
<line x1="59" y1="193.5" x2="89" y2="193.5" stroke="#6F7590"/>
<rect width="20" height="16" transform="translate(38 178)" fill="#C9F9EE"/>
<line x1="38" y1="193.5" x2="58" y2="193.5" stroke="#6F7590"/>
<path d="M48.7109 187.742H46.3984V186.625L48.6094 183.168H49.8164V186.754H50.457V187.742H49.8164V189H48.7109V187.742ZM48.7109 186.754V184.449L47.2383 186.754H48.7109Z" fill="#3E4359"/>
<line x1="89.5" y1="178" x2="89.5" y2="194" stroke="#6F7590"/>
<line x1="120.5" y1="178" x2="120.5" y2="194" stroke="#6F7590"/>
<line x1="151.5" y1="178" x2="151.5" y2="194" stroke="#6F7590"/>
<line x1="58.5" y1="178" x2="58.5" y2="194" stroke="#6F7590"/>
<rect width="30" height="16" transform="translate(90 178)" fill="white"/>
<line x1="90" y1="193.5" x2="120" y2="193.5" stroke="#6F7590"/>
<rect width="30" height="16" transform="translate(121 178)" fill="#FFF8E5"/>
<line x1="121" y1="193.5" x2="151" y2="193.5" stroke="#6F7590"/>
<rect width="30" height="16" transform="translate(152 178)" fill="#FFF8E5"/>
<line x1="152" y1="193.5" x2="182" y2="193.5" stroke="#6F7590"/>
<rect x="38.5" y="122.5" width="143" height="71" rx="1.5" stroke="#6F7590"/>
<path d="M19.632 18H23.048V17.088H20.64V12.336H19.632V18ZM27.3884 16.416V16.152C27.3884 14.816 26.6604 14.064 25.5884 14.064C24.4284 14.064 23.5004 14.872 23.5004 16.08C23.5004 17.288 24.4284 18.096 25.5884 18.096C26.1964 18.096 26.7644 17.88 27.2124 17.328L26.5244 16.808C26.2844 17.104 25.9724 17.328 25.4924 17.328C24.9564 17.328 24.5244 16.984 24.4604 16.416H27.3884ZM24.4604 15.696C24.5324 15.144 24.8844 14.784 25.4524 14.784C26.0524 14.784 26.4204 15.136 26.4284 15.696H24.4604ZM28.6302 18H29.5902V14.976H30.4782V14.16H29.5902V13.464C29.5902 13.04 29.6702 12.672 30.2062 12.672C30.3422 12.672 30.4702 12.696 30.6062 12.728L30.6702 11.912C30.4702 11.872 30.2702 11.856 30.0622 11.856C28.8702 11.856 28.6302 12.552 28.6302 13.616V14.16H27.8382V14.976H28.6302V18ZM31.4427 14.976V16.736C31.4427 17.64 31.6827 18.096 32.6987 18.096C32.9227 18.096 33.2587 18.064 33.4587 17.968V17.16C33.3387 17.248 33.1067 17.28 32.9387 17.28C32.5147 17.28 32.4027 17.04 32.4027 16.656V14.976H33.4587V14.16H32.4027V13.048H31.4427V14.16H30.6507V14.976H31.4427ZM37.8233 18H38.8313V13.248H40.5673V12.336H36.0873V13.248H37.8233V18ZM42.7721 18H43.6361V15.792C43.6361 15.248 43.6361 14.064 41.9961 14.064C41.3881 14.064 40.7881 14.248 40.3641 14.68L40.8681 15.184C41.1241 14.944 41.4921 14.784 41.8921 14.784C42.4041 14.784 42.7721 15.032 42.7721 15.504V15.608H42.5321C41.5721 15.608 40.1161 15.696 40.1161 16.944C40.1161 17.704 40.8041 18.096 41.5161 18.096C42.0281 18.096 42.4761 17.904 42.7481 17.472H42.7721V18ZM42.7161 16.496C42.7161 17.032 42.4041 17.376 41.7481 17.376C41.4361 17.376 41.0761 17.224 41.0761 16.872C41.0761 16.32 41.9881 16.28 42.5161 16.28H42.7161V16.496ZM44.669 18H45.581V17.424H45.597C45.877 17.888 46.381 18.096 46.917 18.096C48.101 18.096 48.813 17.216 48.813 16.08C48.813 14.944 48.053 14.064 46.957 14.064C46.237 14.064 45.853 14.4 45.653 14.648H45.629V11.952H44.669V18ZM47.853 16.08C47.853 16.68 47.429 17.232 46.725 17.232C46.021 17.232 45.597 16.68 45.597 16.08C45.597 15.48 46.021 14.928 46.725 14.928C47.429 14.928 47.853 15.48 47.853 16.08ZM49.7241 18H50.6841V11.952H49.7241V18ZM55.4822 16.416V16.152C55.4822 14.816 54.7542 14.064 53.6822 14.064C52.5222 14.064 51.5942 14.872 51.5942 16.08C51.5942 17.288 52.5222 18.096 53.6822 18.096C54.2902 18.096 54.8582 17.88 55.3062 17.328L54.6182 16.808C54.3782 17.104 54.0662 17.328 53.5862 17.328C53.0502 17.328 52.6182 16.984 52.5542 16.416H55.4822ZM52.5542 15.696C52.6262 15.144 52.9782 14.784 53.5462 14.784C54.1462 14.784 54.5142 15.136 54.5222 15.696H52.5542Z" fill="#3E4359"/>
<path d="M38.656 116H39.616V111.296H39.632L41.352 116H42.056L43.776 111.296H43.792V116H44.752V110.336H43.232L41.704 114.304L40.192 110.336H38.656V116ZM49.6463 114.416V114.152C49.6463 112.816 48.9183 112.064 47.8463 112.064C46.6863 112.064 45.7583 112.872 45.7583 114.08C45.7583 115.288 46.6863 116.096 47.8463 116.096C48.4543 116.096 49.0223 115.88 49.4703 115.328L48.7823 114.808C48.5423 115.104 48.2303 115.328 47.7503 115.328C47.2143 115.328 46.7823 114.984 46.7183 114.416H49.6463ZM46.7183 113.696C46.7903 113.144 47.1423 112.784 47.7103 112.784C48.3103 112.784 48.6783 113.136 48.6863 113.696H46.7183ZM50.544 116H51.504V113.944C51.504 113.736 51.632 112.976 52.536 112.976C52.688 112.976 52.84 113.008 53 113.048V112.12C52.888 112.088 52.776 112.064 52.656 112.064C52.152 112.064 51.728 112.328 51.52 112.768H51.504V112.16H50.544V116ZM56.5528 112.16V112.736H56.5368C56.2568 112.272 55.7528 112.064 55.2168 112.064C54.0328 112.064 53.3208 112.944 53.3208 114.08C53.3208 115.168 54.0808 116.048 55.2328 116.048C55.7128 116.048 56.2088 115.864 56.4888 115.488H56.5048V115.768C56.5048 116.528 56.2168 117.056 55.2888 117.056C54.7528 117.056 54.3528 116.856 53.9688 116.504L53.3928 117.288C53.9368 117.768 54.5848 117.92 55.2968 117.92C56.7928 117.92 57.4648 117.04 57.4648 115.656V112.16H56.5528ZM55.4168 112.928C56.1128 112.928 56.5528 113.392 56.5528 114.056C56.5528 114.696 56.1208 115.184 55.4088 115.184C54.7608 115.184 54.2808 114.68 54.2808 114.072C54.2808 113.392 54.7448 112.928 55.4168 112.928ZM62.2478 114.416V114.152C62.2478 112.816 61.5198 112.064 60.4478 112.064C59.2878 112.064 58.3598 112.872 58.3598 114.08C58.3598 115.288 59.2878 116.096 60.4478 116.096C61.0558 116.096 61.6238 115.88 62.0718 115.328L61.3838 114.808C61.1438 115.104 60.8318 115.328 60.3518 115.328C59.8158 115.328 59.3838 114.984 59.3198 114.416H62.2478ZM59.3198 113.696C59.3918 113.144 59.7438 112.784 60.3118 112.784C60.9118 112.784 61.2798 113.136 61.2878 113.696H59.3198ZM66.1856 116H67.0976V109.952H66.1376V112.648H66.1136C65.9136 112.4 65.5296 112.064 64.8096 112.064C63.7136 112.064 62.9536 112.944 62.9536 114.08C62.9536 115.216 63.6656 116.096 64.8496 116.096C65.3856 116.096 65.8896 115.888 66.1696 115.424H66.1856V116ZM63.9136 114.08C63.9136 113.48 64.3376 112.928 65.0416 112.928C65.7456 112.928 66.1696 113.48 66.1696 114.08C66.1696 114.68 65.7456 115.232 65.0416 115.232C64.3376 115.232 63.9136 114.68 63.9136 114.08ZM71.7998 116H72.8078V111.248H74.5438V110.336H70.0638V111.248H71.7998V116ZM76.7487 116H77.6127V113.792C77.6127 113.248 77.6127 112.064 75.9727 112.064C75.3647 112.064 74.7647 112.248 74.3407 112.68L74.8447 113.184C75.1007 112.944 75.4687 112.784 75.8687 112.784C76.3807 112.784 76.7487 113.032 76.7487 113.504V113.608H76.5087C75.5487 113.608 74.0927 113.696 74.0927 114.944C74.0927 115.704 74.7807 116.096 75.4927 116.096C76.0047 116.096 76.4527 115.904 76.7247 115.472H76.7487V116ZM76.6927 114.496C76.6927 115.032 76.3807 115.376 75.7247 115.376C75.4127 115.376 75.0527 115.224 75.0527 114.872C75.0527 114.32 75.9647 114.28 76.4927 114.28H76.6927V114.496ZM78.6456 116H79.5576V115.424H79.5736C79.8536 115.888 80.3576 116.096 80.8936 116.096C82.0776 116.096 82.7896 115.216 82.7896 114.08C82.7896 112.944 82.0296 112.064 80.9336 112.064C80.2136 112.064 79.8296 112.4 79.6296 112.648H79.6056V109.952H78.6456V116ZM81.8296 114.08C81.8296 114.68 81.4056 115.232 80.7016 115.232C79.9976 115.232 79.5736 114.68 79.5736 114.08C79.5736 113.48 79.9976 112.928 80.7016 112.928C81.4056 112.928 81.8296 113.48 81.8296 114.08ZM83.7006 116H84.6606V109.952H83.7006V116ZM89.4588 114.416V114.152C89.4588 112.816 88.7308 112.064 87.6588 112.064C86.4988 112.064 85.5708 112.872 85.5708 114.08C85.5708 115.288 86.4988 116.096 87.6588 116.096C88.2668 116.096 88.8348 115.88 89.2828 115.328L88.5948 114.808C88.3548 115.104 88.0428 115.328 87.5628 115.328C87.0268 115.328 86.5948 114.984 86.5308 114.416H89.4588ZM86.5308 113.696C86.6028 113.144 86.9548 112.784 87.5228 112.784C88.1228 112.784 88.4908 113.136 88.4988 113.696H86.5308Z" fill="#3E4359"/>
<path d="M119.632 18H120.64V15.6H121.376L122.688 18H123.904L122.4 15.496C123.24 15.376 123.712 14.776 123.712 13.96C123.712 12.688 122.688 12.336 121.6 12.336H119.632V18ZM120.64 14.736V13.2H121.512C122.032 13.2 122.656 13.28 122.656 13.952C122.656 14.688 121.992 14.736 121.424 14.736H120.64ZM124.599 18H125.559V14.16H124.599V18ZM124.463 12.856C124.463 13.16 124.719 13.432 125.071 13.432C125.423 13.432 125.695 13.184 125.695 12.856C125.695 12.528 125.423 12.28 125.071 12.28C124.719 12.28 124.463 12.552 124.463 12.856ZM129.701 14.16V14.736H129.685C129.405 14.272 128.901 14.064 128.365 14.064C127.181 14.064 126.469 14.944 126.469 16.08C126.469 17.168 127.229 18.048 128.381 18.048C128.861 18.048 129.357 17.864 129.637 17.488H129.653V17.768C129.653 18.528 129.365 19.056 128.437 19.056C127.901 19.056 127.501 18.856 127.117 18.504L126.541 19.288C127.085 19.768 127.733 19.92 128.445 19.92C129.941 19.92 130.613 19.04 130.613 17.656V14.16H129.701ZM128.565 14.928C129.261 14.928 129.701 15.392 129.701 16.056C129.701 16.696 129.269 17.184 128.557 17.184C127.909 17.184 127.429 16.68 127.429 16.072C127.429 15.392 127.893 14.928 128.565 14.928ZM132.66 11.952H131.7V18H132.66V15.904C132.66 15.392 132.908 14.928 133.54 14.928C134.212 14.928 134.244 15.632 134.244 16.056V18H135.204V15.576C135.204 14.792 134.836 14.064 133.804 14.064C133.212 14.064 132.828 14.376 132.676 14.696H132.66V11.952ZM136.638 14.976V16.736C136.638 17.64 136.878 18.096 137.894 18.096C138.118 18.096 138.454 18.064 138.654 17.968V17.16C138.534 17.248 138.302 17.28 138.134 17.28C137.71 17.28 137.598 17.04 137.598 16.656V14.976H138.654V14.16H137.598V13.048H136.638V14.16H135.846V14.976H136.638ZM143.019 18H144.027V13.248H145.763V12.336H141.283V13.248H143.019V18ZM147.967 18H148.831V15.792C148.831 15.248 148.831 14.064 147.191 14.064C146.583 14.064 145.983 14.248 145.559 14.68L146.063 15.184C146.319 14.944 146.687 14.784 147.087 14.784C147.599 14.784 147.967 15.032 147.967 15.504V15.608H147.727C146.767 15.608 145.311 15.696 145.311 16.944C145.311 17.704 145.999 18.096 146.711 18.096C147.223 18.096 147.671 17.904 147.943 17.472H147.967V18ZM147.911 16.496C147.911 17.032 147.599 17.376 146.943 17.376C146.631 17.376 146.271 17.224 146.271 16.872C146.271 16.32 147.183 16.28 147.711 16.28H147.911V16.496ZM149.864 18H150.776V17.424H150.792C151.072 17.888 151.576 18.096 152.112 18.096C153.296 18.096 154.008 17.216 154.008 16.08C154.008 14.944 153.248 14.064 152.152 14.064C151.432 14.064 151.048 14.4 150.848 14.648H150.824V11.952H149.864V18ZM153.048 16.08C153.048 16.68 152.624 17.232 151.92 17.232C151.216 17.232 150.792 16.68 150.792 16.08C150.792 15.48 151.216 14.928 151.92 14.928C152.624 14.928 153.048 15.48 153.048 16.08ZM154.919 18H155.879V11.952H154.919V18ZM160.678 16.416V16.152C160.678 14.816 159.95 14.064 158.878 14.064C157.718 14.064 156.79 14.872 156.79 16.08C156.79 17.288 157.718 18.096 158.878 18.096C159.486 18.096 160.054 17.88 160.502 17.328L159.814 16.808C159.574 17.104 159.262 17.328 158.782 17.328C158.246 17.328 157.814 16.984 157.75 16.416H160.678ZM157.75 15.696C157.822 15.144 158.174 14.784 158.742 14.784C159.342 14.784 159.71 15.136 159.718 15.696H157.75Z" fill="#3E4359"/>
<line x1="54.5" y1="65" x2="54.5" y2="100" stroke="#6F7590"/>
<path d="M98 100.5L54 100.5" stroke="#6F7590"/>
<path d="M161 100.5L119.291 100.5" stroke="#6F7590"/>
<line x1="160.5" y1="80" x2="160.5" y2="100" stroke="#6F7590"/>
<path d="M110.677 99.3384C110.677 102.77 107.895 105.552 104.463 105.552C101.032 105.552 98.25 102.77 98.25 99.3384C98.25 95.9068 101.032 93.125 104.463 93.125C107.895 93.125 110.677 95.9068 110.677 99.3384Z" fill="#D5D5DD" stroke="#6F7590" stroke-linecap="round" stroke-linejoin="round"/>
<path d="M119.5 99.3384C119.5 102.77 116.718 105.552 113.287 105.552C109.855 105.552 107.073 102.77 107.073 99.3384C107.073 95.9068 109.855 93.125 113.287 93.125C116.718 93.125 119.5 95.9068 119.5 99.3384Z" fill="#D5D5DD" stroke="#6F7590" stroke-linecap="round" stroke-linejoin="round"/>
<mask id="path-88-inside-1_4735_234498" fill="white">
<path fill-rule="evenodd" clip-rule="evenodd" d="M108.875 94.2779C107.465 95.5086 106.573 97.3194 106.573 99.3384C106.573 101.357 107.465 103.168 108.875 104.399C110.286 103.168 111.177 101.357 111.177 99.3384C111.177 97.3194 110.285 95.5086 108.875 94.2779Z"/>
</mask>
<path fill-rule="evenodd" clip-rule="evenodd" d="M108.875 94.2779C107.465 95.5086 106.573 97.3194 106.573 99.3384C106.573 101.357 107.465 103.168 108.875 104.399C110.286 103.168 111.177 101.357 111.177 99.3384C111.177 97.3194 110.285 95.5086 108.875 94.2779Z" fill="#D5D5DD"/>
<path d="M108.875 94.2779L109.532 93.5244C109.156 93.1958 108.594 93.1958 108.218 93.5244L108.875 94.2779ZM108.875 104.399L108.218 105.152C108.594 105.481 109.156 105.481 109.532 105.152L108.875 104.399ZM108.218 93.5244C106.599 94.9369 105.573 97.0185 105.573 99.3384H107.573C107.573 97.6203 108.33 96.0803 109.532 95.0314L108.218 93.5244ZM105.573 99.3384C105.573 101.658 106.599 103.74 108.218 105.152L109.532 103.645C108.33 102.596 107.573 101.056 107.573 99.3384H105.573ZM109.532 105.152C111.151 103.74 112.177 101.658 112.177 99.3384H110.177C110.177 101.056 109.42 102.596 108.218 103.645L109.532 105.152ZM112.177 99.3384C112.177 97.0185 111.151 94.9369 109.532 93.5244L108.218 95.0314C109.42 96.0803 110.177 97.6203 110.177 99.3384H112.177Z" fill="#6F7590" mask="url(#path-88-inside-1_4735_234498)"/>
<path d="M108.646 120.354C108.842 120.549 109.158 120.549 109.354 120.354L112.536 117.172C112.731 116.976 112.731 116.66 112.536 116.464C112.34 116.269 112.024 116.269 111.828 116.464L109 119.293L106.172 116.464C105.976 116.269 105.66 116.269 105.464 116.464C105.269 116.66 105.269 116.976 105.464 117.172L108.646 120.354ZM108.5 104V120H109.5V104H108.5Z" fill="#6F7590"/>
<defs>
<clipPath id="clip0_4735_234498">
<rect x="19" y="25" width="83" height="40" rx="2" fill="white"/>
</clipPath>
</defs>
</svg>
