<svg width="205" height="174" viewBox="0 0 205 174" fill="none" xmlns="http://www.w3.org/2000/svg">
<path d="M102.391 161.657C143.474 161.657 176.779 128.196 176.779 86.919C176.779 45.6422 143.474 12.1807 102.391 12.1807C61.3082 12.1807 28.0039 45.6422 28.0039 86.919C28.0039 128.196 61.3082 161.657 102.391 161.657Z" fill="#F4F6FD"/>
<g filter="url(#filter0_d_8688_248020)">
<path d="M182.307 37.5939V136.393C182.307 138.949 180.362 140.904 177.817 140.904H26.9472C24.4028 140.904 22.457 138.949 22.457 136.393V37.5939C22.457 35.0374 24.4028 33.0825 26.9472 33.0825H177.817C180.362 33.0825 182.307 35.0374 182.307 37.5939Z" fill="white"/>
</g>
<path d="M182.307 37.5939V42.7909H22.457V37.5939C22.457 35.0374 24.4028 33.0825 26.9472 33.0825H177.817C180.212 33.0825 182.307 35.0374 182.307 37.5939Z" fill="url(#paint0_linear_8688_248020)"/>
<circle cx="27.9757" cy="38.0367" r="1.35847" fill="#FDFDFD"/>
<circle opacity="0.6" cx="32.1358" cy="38.0367" r="1.35847" fill="#FDFDFD"/>
<circle opacity="0.4" cx="35.6026" cy="38.0367" r="1.35847" fill="#FDFDFD"/>
<g filter="url(#filter1_d_8688_248020)">
<path d="M132.578 134.589H70.9129C69.4161 134.589 68.2188 133.386 68.2188 131.882V53.8352C68.2188 52.3314 69.4161 51.1284 70.9129 51.1284H132.578C134.075 51.1284 135.272 52.3314 135.272 53.8352V131.882C135.272 133.386 134.075 134.589 132.578 134.589Z" fill="white"/>
</g>
<path d="M126.64 113.385H77.2478C76.0504 113.385 75.1523 112.483 75.1523 111.28V79.7005C75.1523 78.4975 76.0504 77.5952 77.2478 77.5952H126.49C127.687 77.5952 128.585 78.4975 128.585 79.7005V111.28C128.735 112.483 127.837 113.385 126.64 113.385Z" fill="#E6EDF5"/>
<path d="M173.445 133.386H143.062C142.314 133.386 141.715 132.785 141.715 132.033V112.484C141.715 111.732 142.314 111.13 143.062 111.13H173.445C174.194 111.13 174.792 111.732 174.792 112.484V132.033C174.792 132.785 174.194 133.386 173.445 133.386Z" fill="#E6EDF5"/>
<path d="M173.445 104.063H143.062C142.314 104.063 141.715 103.461 141.715 102.709V83.16C141.715 82.4082 142.314 81.8066 143.062 81.8066H173.445C174.194 81.8066 174.792 82.4082 174.792 83.16V102.709C174.792 103.461 174.194 104.063 173.445 104.063Z" fill="#E6EDF5"/>
<path d="M173.445 74.5876H143.062C142.314 74.5876 141.715 73.9861 141.715 73.2342V53.685C141.715 52.9331 142.314 52.3315 143.062 52.3315H173.445C174.194 52.3315 174.792 52.9331 174.792 53.685V73.2342C174.792 73.9861 174.194 74.5876 173.445 74.5876Z" fill="#E6EDF5"/>
<path d="M128.286 59.4003H76.0504C75.4517 59.4003 75.1523 58.9491 75.1523 58.498C75.1523 57.8965 75.6014 57.5957 76.0504 57.5957H128.136C128.735 57.5957 129.035 58.0468 129.035 58.498C129.184 58.9491 128.735 59.4003 128.286 59.4003Z" fill="#E6EDF5"/>
<path d="M128.286 64.8138H76.0504C75.4517 64.8138 75.1523 64.3627 75.1523 63.9115C75.1523 63.31 75.6014 63.0093 76.0504 63.0093H128.136C128.735 63.0093 129.035 63.4604 129.035 63.9115C129.184 64.3627 128.735 64.8138 128.286 64.8138Z" fill="#E6EDF5"/>
<path d="M113.618 121.506H76.0504C75.4517 121.506 75.1523 121.055 75.1523 120.604C75.1523 120.002 75.6014 119.702 76.0504 119.702H113.618C114.217 119.702 114.516 120.153 114.516 120.604C114.516 121.055 114.067 121.506 113.618 121.506Z" fill="#E6EDF5"/>
<path d="M102.393 70.6786H76.0504C75.4517 70.6786 75.1523 70.2274 75.1523 69.7763C75.1523 69.1748 75.6014 68.874 76.0504 68.874H102.243C102.842 68.874 103.141 69.3252 103.141 69.7763C103.291 70.2274 102.842 70.6786 102.393 70.6786Z" fill="url(#paint1_linear_8688_248020)"/>
<path d="M128.286 127.07H76.0504C75.4517 127.07 75.1523 126.619 75.1523 126.168C75.1523 125.566 75.6014 125.266 76.0504 125.266H128.136C128.735 125.266 129.035 125.717 129.035 126.168C129.184 126.619 128.735 127.07 128.286 127.07Z" fill="#E6EDF5"/>
<path d="M128.523 121.506H118.345C117.747 121.506 117.447 121.055 117.447 120.604C117.447 120.002 117.896 119.702 118.345 119.702H128.523C129.122 119.702 129.421 120.153 129.421 120.604C129.421 121.055 128.972 121.506 128.523 121.506Z" fill="url(#paint2_linear_8688_248020)"/>
<path d="M59.7345 134.139H31.147C29.351 134.139 28.0039 132.785 28.0039 130.981V53.8362C28.0039 52.0316 29.351 50.6782 31.147 50.6782H59.5848C61.3809 50.6782 62.728 52.0316 62.728 53.8362V130.981C62.8776 132.785 61.3809 134.139 59.7345 134.139Z" fill="#525C73"/>
<path d="M45.3136 61.2046C47.2148 61.2046 48.756 59.656 48.756 57.7458C48.756 55.8356 47.2148 54.2871 45.3136 54.2871C43.4123 54.2871 41.8711 55.8356 41.8711 57.7458C41.8711 59.656 43.4123 61.2046 45.3136 61.2046Z" fill="#687592"/>
<path d="M56.695 65.4154H34.8428C34.5435 65.4154 34.2441 65.1147 34.2441 64.8139C34.2441 64.5132 34.5435 64.2124 34.8428 64.2124H56.695C56.9944 64.2124 57.2937 64.5132 57.2937 64.8139C57.2937 65.1147 56.9944 65.4154 56.695 65.4154Z" fill="#687592"/>
<path d="M56.695 70.0771H34.8428C34.5435 70.0771 34.2441 69.7763 34.2441 69.4755C34.2441 69.1748 34.5435 68.874 34.8428 68.874H56.695C56.9944 68.874 57.2937 69.1748 57.2937 69.4755C57.2937 69.7763 56.9944 70.0771 56.695 70.0771Z" fill="#687592"/>
<path d="M56.695 78.0473H34.8428C34.5435 78.0473 34.2441 77.7465 34.2441 77.4457C34.2441 76.9946 34.3938 76.6938 34.8428 76.6938H56.695C56.9944 76.6938 57.2937 76.9946 57.2937 77.2954C57.2937 77.7465 56.9944 78.0473 56.695 78.0473Z" fill="#687592"/>
<path d="M42.9252 82.7084H34.6932C34.5435 82.7084 34.2441 82.558 34.2441 82.2573V81.8061C34.2441 81.6557 34.3938 81.355 34.6932 81.355H42.7755C42.9252 81.355 43.2245 81.5054 43.2245 81.8061V82.2573C43.2245 82.558 43.0748 82.7084 42.9252 82.7084Z" fill="#687592"/>
<path d="M56.695 90.9789H34.8428C34.5435 90.9789 34.2441 90.6781 34.2441 90.3774C34.2441 90.0766 34.5435 89.7759 34.8428 89.7759H56.695C56.9944 89.7759 57.2937 90.0766 57.2937 90.3774C57.2937 90.6781 56.9944 90.9789 56.695 90.9789Z" fill="#687592"/>
<path d="M42.9252 95.641H34.6932C34.5435 95.641 34.2441 95.4906 34.2441 95.1899V94.7387C34.2441 94.5884 34.3938 94.2876 34.6932 94.2876H42.7755C42.9252 94.2876 43.2245 94.438 43.2245 94.7387V95.1899C43.2245 95.4906 43.0748 95.641 42.9252 95.641Z" fill="url(#paint3_linear_8688_248020)"/>
<path d="M56.695 103.912H34.8428C34.5435 103.912 34.2441 103.611 34.2441 103.31C34.2441 103.01 34.5435 102.709 34.8428 102.709H56.695C56.9944 102.709 57.2937 103.01 57.2937 103.31C57.2937 103.762 56.9944 103.912 56.695 103.912Z" fill="#687592"/>
<path d="M42.9252 108.573H34.6932C34.5435 108.573 34.2441 108.423 34.2441 108.122V107.671C34.2441 107.52 34.3938 107.22 34.6932 107.22H42.7755C42.9252 107.22 43.2245 107.37 43.2245 107.671V108.272C43.2245 108.423 43.0748 108.573 42.9252 108.573Z" fill="url(#paint4_linear_8688_248020)"/>
<path d="M161.963 28.8722C165.104 28.8722 167.651 26.3137 167.651 23.1578C167.651 20.0018 165.104 17.4434 161.963 17.4434C158.822 17.4434 156.275 20.0018 156.275 23.1578C156.275 26.3137 158.822 28.8722 161.963 28.8722Z" fill="#F4F6FD"/>
<path d="M58.0934 12.1811C60.1599 12.1811 61.8352 10.4979 61.8352 8.42159C61.8352 6.34528 60.1599 4.66211 58.0934 4.66211C56.0268 4.66211 54.3516 6.34528 54.3516 8.42159C54.3516 10.4979 56.0268 12.1811 58.0934 12.1811Z" fill="#F4F6FD"/>
<path d="M40.9487 21.8058C42.354 21.8058 43.4932 20.6612 43.4932 19.2493C43.4932 17.8374 42.354 16.6929 40.9487 16.6929C39.5435 16.6929 38.4043 17.8374 38.4043 19.2493C38.4043 20.6612 39.5435 21.8058 40.9487 21.8058Z" fill="#F4F6FD"/>
<path d="M155.203 4.81213C156.526 4.81213 157.598 3.7349 157.598 2.40606C157.598 1.07723 156.526 0 155.203 0C153.881 0 152.809 1.07723 152.809 2.40606C152.809 3.7349 153.881 4.81213 155.203 4.81213Z" fill="#F4F6FD"/>
<path d="M46.7399 160.756C47.8972 160.756 48.8354 159.813 48.8354 158.65C48.8354 157.488 47.8972 156.545 46.7399 156.545C45.5827 156.545 44.6445 157.488 44.6445 158.65C44.6445 159.813 45.5827 160.756 46.7399 160.756Z" fill="url(#paint5_linear_8688_248020)"/>
<path d="M129.25 5.41325C130.407 5.41325 131.345 4.47067 131.345 3.30794C131.345 2.14521 130.407 1.20264 129.25 1.20264C128.092 1.20264 127.154 2.14521 127.154 3.30794C127.154 4.47067 128.092 5.41325 129.25 5.41325Z" fill="url(#paint6_linear_8688_248020)"/>
<defs>
<filter id="filter0_d_8688_248020" x="0.457031" y="22.0825" width="203.851" height="151.822" filterUnits="userSpaceOnUse" color-interpolation-filters="sRGB">
<feFlood flood-opacity="0" result="BackgroundImageFix"/>
<feColorMatrix in="SourceAlpha" type="matrix" values="0 0 0 0 0 0 0 0 0 0 0 0 0 0 0 0 0 0 127 0" result="hardAlpha"/>
<feOffset dy="11"/>
<feGaussianBlur stdDeviation="11"/>
<feColorMatrix type="matrix" values="0 0 0 0 0.397708 0 0 0 0 0.47749 0 0 0 0 0.575 0 0 0 0.18 0"/>
<feBlend mode="normal" in2="BackgroundImageFix" result="effect1_dropShadow_8688_248020"/>
<feBlend mode="normal" in="SourceGraphic" in2="effect1_dropShadow_8688_248020" result="shape"/>
</filter>
<filter id="filter1_d_8688_248020" x="46.2188" y="40.1284" width="111.054" height="127.46" filterUnits="userSpaceOnUse" color-interpolation-filters="sRGB">
<feFlood flood-opacity="0" result="BackgroundImageFix"/>
<feColorMatrix in="SourceAlpha" type="matrix" values="0 0 0 0 0 0 0 0 0 0 0 0 0 0 0 0 0 0 127 0" result="hardAlpha"/>
<feOffset dy="11"/>
<feGaussianBlur stdDeviation="11"/>
<feColorMatrix type="matrix" values="0 0 0 0 0.397708 0 0 0 0 0.47749 0 0 0 0 0.575 0 0 0 0.18 0"/>
<feBlend mode="normal" in2="BackgroundImageFix" result="effect1_dropShadow_8688_248020"/>
<feBlend mode="normal" in="SourceGraphic" in2="effect1_dropShadow_8688_248020" result="shape"/>
</filter>
<linearGradient id="paint0_linear_8688_248020" x1="31.8126" y1="35.6249" x2="33.9553" y2="55.4965" gradientUnits="userSpaceOnUse">
<stop stop-color="#83A6FF"/>
<stop offset="0.994956" stop-color="#5277D7"/>
</linearGradient>
<linearGradient id="paint1_linear_8688_248020" x1="75.1061" y1="69.661" x2="103.307" y2="69.661" gradientUnits="userSpaceOnUse">
<stop stop-color="#FF66A9"/>
<stop offset="1" stop-color="#F53689"/>
</linearGradient>
<linearGradient id="paint2_linear_8688_248020" x1="117.312" y1="120.59" x2="129.424" y2="120.59" gradientUnits="userSpaceOnUse">
<stop stop-color="#FF66A9"/>
<stop offset="1" stop-color="#F53689"/>
</linearGradient>
<linearGradient id="paint3_linear_8688_248020" x1="34.2293" y1="94.8778" x2="43.2682" y2="94.8778" gradientUnits="userSpaceOnUse">
<stop stop-color="#FF66A9"/>
<stop offset="1" stop-color="#F53689"/>
</linearGradient>
<linearGradient id="paint4_linear_8688_248020" x1="34.2293" y1="107.81" x2="43.2682" y2="107.81" gradientUnits="userSpaceOnUse">
<stop stop-color="#FF66A9"/>
<stop offset="1" stop-color="#F53689"/>
</linearGradient>
<linearGradient id="paint5_linear_8688_248020" x1="44.6544" y1="158.648" x2="48.6972" y2="158.648" gradientUnits="userSpaceOnUse">
<stop stop-color="#FF66A9"/>
<stop offset="1" stop-color="#F53689"/>
</linearGradient>
<linearGradient id="paint6_linear_8688_248020" x1="127.244" y1="3.38283" x2="131.287" y2="3.38283" gradientUnits="userSpaceOnUse">
<stop stop-color="#83A6FF"/>
<stop offset="1" stop-color="#5A78FF"/>
</linearGradient>
</defs>
</svg>
