<svg width="220" height="206" viewBox="0 0 220 206" fill="none" xmlns="http://www.w3.org/2000/svg">
<rect width="220" height="206" rx="4" fill="#F7F7F7"/>
<g clip-path="url(#clip0_4735_234701)">
<rect width="83" height="8" transform="translate(19 33)" fill="white" fill-opacity="0.9"/>
<line x1="19" y1="40.5" x2="102" y2="40.5" stroke="#6F7590"/>
<rect width="30" height="16" transform="translate(40 41)" fill="#D6D6F5"/>
<line x1="40" y1="56.5" x2="70" y2="56.5" stroke="#6F7590"/>
<rect width="20" height="16" transform="translate(19 41)" fill="#C9F9EE"/>
<line x1="19" y1="56.5" x2="39" y2="56.5" stroke="#6F7590"/>
<path d="M28.0547 51.3359H29.2812V47.1523L28.3516 48.2109L27.9219 47.6875L29.2734 46.168H30.0625V51.3359H31.2734V52H28.0547V51.3359Z" fill="#6F7590"/>
<line x1="70.5" y1="41" x2="70.5" y2="57" stroke="#6F7590"/>
<line x1="39.5" y1="41" x2="39.5" y2="57" stroke="#6F7590"/>
<rect width="30" height="16" transform="translate(71 41)" fill="#D6D6F5"/>
<line x1="71" y1="56.5" x2="101" y2="56.5" stroke="#6F7590"/>
<rect width="30" height="16" transform="translate(40 57)" fill="#D6D6F5"/>
<line x1="40" y1="72.5" x2="70" y2="72.5" stroke="#F3F3F3"/>
<rect width="20" height="16" transform="translate(19 57)" fill="#C9F9EE"/>
<line x1="19" y1="72.5" x2="39" y2="72.5" stroke="#F3F3F3"/>
<path d="M27.5938 67.4766C27.5938 67.3802 27.6263 67.2995 27.6914 67.2344C27.8398 67.0781 28.0156 66.8932 28.2188 66.6797C28.4219 66.4635 28.6393 66.2292 28.8711 65.9766C29.0482 65.7839 29.181 65.6393 29.2695 65.543C29.3607 65.444 29.4297 65.3685 29.4766 65.3164C29.5234 65.2617 29.5716 65.2044 29.6211 65.1445C29.7591 64.9779 29.8685 64.8359 29.9492 64.7188C30.0326 64.6016 30.1003 64.4857 30.1523 64.3711C30.2435 64.168 30.2891 63.9648 30.2891 63.7617C30.2891 63.4388 30.194 63.1862 30.0039 63.0039C29.8112 62.819 29.5469 62.7266 29.2109 62.7266C28.7448 62.7266 28.2214 62.8997 27.6406 63.2461V62.4492C27.9062 62.3216 28.1706 62.2253 28.4336 62.1602C28.6914 62.0951 28.9466 62.0625 29.1992 62.0625C29.4701 62.0625 29.724 62.099 29.9609 62.1719C30.1979 62.2448 30.4049 62.3594 30.582 62.5156C30.7383 62.6536 30.8633 62.8229 30.957 63.0234C31.0508 63.2214 31.0977 63.4453 31.0977 63.6953C31.0977 63.9505 31.0404 64.207 30.9258 64.4648C30.8685 64.5951 30.7943 64.7227 30.7031 64.8477C30.6146 64.9701 30.5 65.1159 30.3594 65.2852C30.2839 65.3737 30.194 65.4766 30.0898 65.5938C29.9857 65.7109 29.8646 65.8438 29.7266 65.9922C29.6276 66.099 29.5352 66.1953 29.4492 66.2812C29.3659 66.3672 29.2773 66.457 29.1836 66.5508C29.0898 66.6419 28.9818 66.75 28.8594 66.875C28.7396 66.9974 28.5924 67.151 28.418 67.3359H31.1367V68H27.5938V67.4766Z" fill="#6F7590"/>
<line x1="70.5" y1="57" x2="70.5" y2="73" stroke="#6F7590"/>
<line x1="39.5" y1="57" x2="39.5" y2="73" stroke="#6F7590"/>
<rect width="30" height="16" transform="translate(71 57)" fill="#D6D6F5"/>
<line x1="71" y1="72.5" x2="101" y2="72.5" stroke="#F3F3F3"/>
</g>
<rect x="19.5" y="33.5" width="82" height="39" rx="1.5" stroke="#6F7590"/>
<rect width="83" height="8" transform="translate(118 33)" fill="white" fill-opacity="0.9"/>
<line x1="118" y1="40.5" x2="201" y2="40.5" stroke="#6F7590"/>
<rect width="30" height="16" transform="translate(139 41)" fill="#FFF8E5"/>
<line x1="139" y1="56.5" x2="169" y2="56.5" stroke="#6F7590"/>
<rect width="20" height="16" transform="translate(118 41)" fill="#C9F9EE"/>
<line x1="118" y1="56.5" x2="138" y2="56.5" stroke="#6F7590"/>
<path d="M127.055 51.3359H128.281V47.1523L127.352 48.2109L126.922 47.6875L128.273 46.168H129.062V51.3359H130.273V52H127.055V51.3359Z" fill="#6F7590"/>
<line x1="169.5" y1="41" x2="169.5" y2="57" stroke="#6F7590"/>
<line x1="138.5" y1="41" x2="138.5" y2="57" stroke="#6F7590"/>
<rect width="30" height="16" transform="translate(170 41)" fill="#FFF8E5"/>
<line x1="170" y1="56.5" x2="200" y2="56.5" stroke="#6F7590"/>
<rect width="30" height="16" transform="translate(139 57)" fill="#FFF8E5"/>
<line x1="139" y1="72.5" x2="169" y2="72.5" stroke="#6F7590"/>
<rect width="20" height="16" transform="translate(118 57)" fill="#C9F9EE"/>
<line x1="118" y1="72.5" x2="138" y2="72.5" stroke="#6F7590"/>
<path d="M128.211 68.1133C128.086 68.1133 127.954 68.1068 127.816 68.0938C127.681 68.0833 127.543 68.0651 127.402 68.0391C127.283 68.0182 127.151 67.9896 127.008 67.9531C126.865 67.9167 126.723 67.8737 126.582 67.8242V67.0273C126.715 67.0951 126.845 67.1562 126.973 67.2109C127.1 67.2656 127.232 67.3112 127.367 67.3477C127.497 67.3815 127.625 67.4076 127.75 67.4258C127.878 67.4414 128.007 67.4492 128.137 67.4492C128.572 67.4492 128.904 67.3516 129.133 67.1562C129.365 66.9583 129.48 66.681 129.48 66.3242C129.48 65.9753 129.366 65.7018 129.137 65.5039C128.908 65.306 128.592 65.207 128.191 65.207H127.59V64.5586H128.191C128.559 64.5586 128.842 64.4792 129.043 64.3203C129.243 64.1641 129.344 63.9388 129.344 63.6445C129.344 63.3503 129.25 63.1237 129.062 62.9648C128.88 62.806 128.607 62.7266 128.242 62.7266C128.026 62.7266 127.79 62.7526 127.535 62.8047C127.285 62.8542 127.026 62.9323 126.758 63.0391V62.3125C127.076 62.2292 127.357 62.1667 127.602 62.125C127.833 62.0833 128.053 62.0625 128.262 62.0625C128.535 62.0625 128.786 62.0977 129.016 62.168C129.247 62.2383 129.449 62.3451 129.621 62.4883C129.957 62.7669 130.125 63.1432 130.125 63.6172C130.125 63.7865 130.102 63.9375 130.055 64.0703C130.01 64.2031 129.945 64.3216 129.859 64.4258C129.682 64.6367 129.422 64.7878 129.078 64.8789C129.461 64.9805 129.754 65.1602 129.957 65.418C130.064 65.5534 130.141 65.7031 130.188 65.8672C130.237 66.0312 130.262 66.207 130.262 66.3945C130.262 66.9258 130.083 67.3451 129.727 67.6523C129.549 67.8034 129.335 67.918 129.082 67.9961C128.832 68.0742 128.542 68.1133 128.211 68.1133Z" fill="#6F7590"/>
<line x1="169.5" y1="57" x2="169.5" y2="73" stroke="#6F7590"/>
<line x1="138.5" y1="57" x2="138.5" y2="73" stroke="#6F7590"/>
<rect width="30" height="16" transform="translate(170 57)" fill="#FFF8E5"/>
<line x1="170" y1="72.5" x2="200" y2="72.5" stroke="#6F7590"/>
<rect width="30" height="16" transform="translate(139 73)" fill="#FFF8E5"/>
<line x1="139" y1="88.5" x2="169" y2="88.5" stroke="#F3F3F3"/>
<rect width="20" height="16" transform="translate(118 73)" fill="#C9F9EE"/>
<line x1="118" y1="88.5" x2="138" y2="88.5" stroke="#F3F3F3"/>
<path d="M128.871 82.6094H126.398V81.8633L128.742 78.168H129.656V81.9688H130.434V82.6094H129.656V84H128.871V82.6094ZM128.871 81.9688V78.8867L127.031 81.9688H128.871Z" fill="#6F7590"/>
<line x1="169.5" y1="73" x2="169.5" y2="89" stroke="#6F7590"/>
<line x1="138.5" y1="73" x2="138.5" y2="89" stroke="#6F7590"/>
<rect width="30" height="16" transform="translate(170 73)" fill="#FFF8E5"/>
<line x1="170" y1="88.5" x2="200" y2="88.5" stroke="#F3F3F3"/>
<rect x="118.5" y="33.5" width="82" height="55" rx="1.5" stroke="#6F7590"/>
<rect width="144" height="8" transform="translate(38 130)" fill="white" fill-opacity="0.9"/>
<line x1="38" y1="137.5" x2="182" y2="137.5" stroke="#6F7590"/>
<rect width="30" height="16" transform="translate(59 138)" fill="#D6D6F5"/>
<line x1="59" y1="153.5" x2="89" y2="153.5" stroke="#6F7590"/>
<rect width="20" height="16" transform="translate(38 138)" fill="#C9F9EE"/>
<line x1="38" y1="153.5" x2="58" y2="153.5" stroke="#6F7590"/>
<path d="M47.0547 148.336H48.2812V144.152L47.3516 145.211L46.9219 144.688L48.2734 143.168H49.0625V148.336H50.2734V149H47.0547V148.336Z" fill="#6F7590"/>
<line x1="89.5" y1="138" x2="89.5" y2="154" stroke="#6F7590"/>
<line x1="120.5" y1="138" x2="120.5" y2="154" stroke="#6F7590"/>
<line x1="151.5" y1="138" x2="151.5" y2="154" stroke="#6F7590"/>
<line x1="58.5" y1="138" x2="58.5" y2="154" stroke="#6F7590"/>
<rect width="30" height="16" transform="translate(90 138)" fill="#D6D6F5"/>
<line x1="90" y1="153.5" x2="120" y2="153.5" stroke="#6F7590"/>
<rect width="30" height="16" transform="translate(121 138)" fill="#FFF8E5"/>
<line x1="121" y1="153.5" x2="151" y2="153.5" stroke="#6F7590"/>
<rect width="30" height="16" transform="translate(152 138)" fill="#FFF8E5"/>
<line x1="152" y1="153.5" x2="182" y2="153.5" stroke="#6F7590"/>
<rect width="30" height="16" transform="translate(59 154)" fill="white"/>
<line x1="59" y1="169.5" x2="89" y2="169.5" stroke="#6F7590"/>
<rect width="20" height="16" transform="translate(38 154)" fill="#C9F9EE"/>
<line x1="38" y1="169.5" x2="58" y2="169.5" stroke="#6F7590"/>
<path d="M48.2109 165.113C48.0859 165.113 47.9544 165.107 47.8164 165.094C47.681 165.083 47.543 165.065 47.4023 165.039C47.2826 165.018 47.151 164.99 47.0078 164.953C46.8646 164.917 46.7227 164.874 46.582 164.824V164.027C46.7148 164.095 46.8451 164.156 46.9727 164.211C47.1003 164.266 47.2318 164.311 47.3672 164.348C47.4974 164.382 47.625 164.408 47.75 164.426C47.8776 164.441 48.0065 164.449 48.1367 164.449C48.5716 164.449 48.9036 164.352 49.1328 164.156C49.3646 163.958 49.4805 163.681 49.4805 163.324C49.4805 162.975 49.3659 162.702 49.1367 162.504C48.9076 162.306 48.5924 162.207 48.1914 162.207H47.5898V161.559H48.1914C48.5586 161.559 48.8424 161.479 49.043 161.32C49.2435 161.164 49.3438 160.939 49.3438 160.645C49.3438 160.35 49.25 160.124 49.0625 159.965C48.8802 159.806 48.6068 159.727 48.2422 159.727C48.026 159.727 47.7904 159.753 47.5352 159.805C47.2852 159.854 47.026 159.932 46.7578 160.039V159.312C47.0755 159.229 47.3568 159.167 47.6016 159.125C47.8333 159.083 48.0534 159.062 48.2617 159.062C48.5352 159.062 48.7865 159.098 49.0156 159.168C49.2474 159.238 49.4492 159.345 49.6211 159.488C49.957 159.767 50.125 160.143 50.125 160.617C50.125 160.786 50.1016 160.938 50.0547 161.07C50.0104 161.203 49.9453 161.322 49.8594 161.426C49.6823 161.637 49.4219 161.788 49.0781 161.879C49.4609 161.98 49.7539 162.16 49.957 162.418C50.0638 162.553 50.1406 162.703 50.1875 162.867C50.237 163.031 50.2617 163.207 50.2617 163.395C50.2617 163.926 50.0833 164.345 49.7266 164.652C49.5495 164.803 49.3346 164.918 49.082 164.996C48.832 165.074 48.5417 165.113 48.2109 165.113Z" fill="#6F7590"/>
<line x1="89.5" y1="154" x2="89.5" y2="170" stroke="#6F7590"/>
<line x1="120.5" y1="154" x2="120.5" y2="170" stroke="#6F7590"/>
<line x1="151.5" y1="154" x2="151.5" y2="170" stroke="#6F7590"/>
<line x1="58.5" y1="154" x2="58.5" y2="170" stroke="#6F7590"/>
<rect width="30" height="16" transform="translate(90 154)" fill="white"/>
<line x1="90" y1="169.5" x2="120" y2="169.5" stroke="#6F7590"/>
<rect width="30" height="16" transform="translate(121 154)" fill="#FFF8E5"/>
<line x1="121" y1="169.5" x2="151" y2="169.5" stroke="#6F7590"/>
<rect width="30" height="16" transform="translate(152 154)" fill="#FFF8E5"/>
<line x1="152" y1="169.5" x2="182" y2="169.5" stroke="#6F7590"/>
<rect width="30" height="16" transform="translate(59 170)" fill="white"/>
<line x1="59" y1="185.5" x2="89" y2="185.5" stroke="#6F7590"/>
<rect width="20" height="16" transform="translate(38 170)" fill="#C9F9EE"/>
<line x1="38" y1="185.5" x2="58" y2="185.5" stroke="#6F7590"/>
<path d="M48.8711 179.609H46.3984V178.863L48.7422 175.168H49.6562V178.969H50.4336V179.609H49.6562V181H48.8711V179.609ZM48.8711 178.969V175.887L47.0312 178.969H48.8711Z" fill="#6F7590"/>
<line x1="89.5" y1="170" x2="89.5" y2="186" stroke="#6F7590"/>
<line x1="120.5" y1="170" x2="120.5" y2="186" stroke="#6F7590"/>
<line x1="151.5" y1="170" x2="151.5" y2="186" stroke="#6F7590"/>
<line x1="58.5" y1="170" x2="58.5" y2="186" stroke="#6F7590"/>
<rect width="30" height="16" transform="translate(90 170)" fill="white"/>
<line x1="90" y1="185.5" x2="120" y2="185.5" stroke="#6F7590"/>
<rect width="30" height="16" transform="translate(121 170)" fill="#FFF8E5"/>
<line x1="121" y1="185.5" x2="151" y2="185.5" stroke="#6F7590"/>
<rect width="30" height="16" transform="translate(152 170)" fill="#FFF8E5"/>
<line x1="152" y1="185.5" x2="182" y2="185.5" stroke="#6F7590"/>
<rect x="38.5" y="130.5" width="143" height="55" rx="1.5" stroke="#6F7590"/>
<path d="M19.632 26H23.048V25.088H20.64V20.336H19.632V26ZM27.3884 24.416V24.152C27.3884 22.816 26.6604 22.064 25.5884 22.064C24.4284 22.064 23.5004 22.872 23.5004 24.08C23.5004 25.288 24.4284 26.096 25.5884 26.096C26.1964 26.096 26.7644 25.88 27.2124 25.328L26.5244 24.808C26.2844 25.104 25.9724 25.328 25.4924 25.328C24.9564 25.328 24.5244 24.984 24.4604 24.416H27.3884ZM24.4604 23.696C24.5324 23.144 24.8844 22.784 25.4524 22.784C26.0524 22.784 26.4204 23.136 26.4284 23.696H24.4604ZM28.6302 26H29.5902V22.976H30.4782V22.16H29.5902V21.464C29.5902 21.04 29.6702 20.672 30.2062 20.672C30.3422 20.672 30.4702 20.696 30.6062 20.728L30.6702 19.912C30.4702 19.872 30.2702 19.856 30.0622 19.856C28.8702 19.856 28.6302 20.552 28.6302 21.616V22.16H27.8382V22.976H28.6302V26ZM31.4427 22.976V24.736C31.4427 25.64 31.6827 26.096 32.6987 26.096C32.9227 26.096 33.2587 26.064 33.4587 25.968V25.16C33.3387 25.248 33.1067 25.28 32.9387 25.28C32.5147 25.28 32.4027 25.04 32.4027 24.656V22.976H33.4587V22.16H32.4027V21.048H31.4427V22.16H30.6507V22.976H31.4427ZM37.8233 26H38.8313V21.248H40.5673V20.336H36.0873V21.248H37.8233V26ZM42.7721 26H43.6361V23.792C43.6361 23.248 43.6361 22.064 41.9961 22.064C41.3881 22.064 40.7881 22.248 40.3641 22.68L40.8681 23.184C41.1241 22.944 41.4921 22.784 41.8921 22.784C42.4041 22.784 42.7721 23.032 42.7721 23.504V23.608H42.5321C41.5721 23.608 40.1161 23.696 40.1161 24.944C40.1161 25.704 40.8041 26.096 41.5161 26.096C42.0281 26.096 42.4761 25.904 42.7481 25.472H42.7721V26ZM42.7161 24.496C42.7161 25.032 42.4041 25.376 41.7481 25.376C41.4361 25.376 41.0761 25.224 41.0761 24.872C41.0761 24.32 41.9881 24.28 42.5161 24.28H42.7161V24.496ZM44.669 26H45.581V25.424H45.597C45.877 25.888 46.381 26.096 46.917 26.096C48.101 26.096 48.813 25.216 48.813 24.08C48.813 22.944 48.053 22.064 46.957 22.064C46.237 22.064 45.853 22.4 45.653 22.648H45.629V19.952H44.669V26ZM47.853 24.08C47.853 24.68 47.429 25.232 46.725 25.232C46.021 25.232 45.597 24.68 45.597 24.08C45.597 23.48 46.021 22.928 46.725 22.928C47.429 22.928 47.853 23.48 47.853 24.08ZM49.7241 26H50.6841V19.952H49.7241V26ZM55.4822 24.416V24.152C55.4822 22.816 54.7542 22.064 53.6822 22.064C52.5222 22.064 51.5942 22.872 51.5942 24.08C51.5942 25.288 52.5222 26.096 53.6822 26.096C54.2902 26.096 54.8582 25.88 55.3062 25.328L54.6182 24.808C54.3782 25.104 54.0662 25.328 53.5862 25.328C53.0502 25.328 52.6182 24.984 52.5542 24.416H55.4822ZM52.5542 23.696C52.6262 23.144 52.9782 22.784 53.5462 22.784C54.1462 22.784 54.5142 23.136 54.5222 23.696H52.5542Z" fill="#3E4359"/>
<path d="M38.656 124H39.616V119.296H39.632L41.352 124H42.056L43.776 119.296H43.792V124H44.752V118.336H43.232L41.704 122.304L40.192 118.336H38.656V124ZM49.6463 122.416V122.152C49.6463 120.816 48.9183 120.064 47.8463 120.064C46.6863 120.064 45.7583 120.872 45.7583 122.08C45.7583 123.288 46.6863 124.096 47.8463 124.096C48.4543 124.096 49.0223 123.88 49.4703 123.328L48.7823 122.808C48.5423 123.104 48.2303 123.328 47.7503 123.328C47.2143 123.328 46.7823 122.984 46.7183 122.416H49.6463ZM46.7183 121.696C46.7903 121.144 47.1423 120.784 47.7103 120.784C48.3103 120.784 48.6783 121.136 48.6863 121.696H46.7183ZM50.544 124H51.504V121.944C51.504 121.736 51.632 120.976 52.536 120.976C52.688 120.976 52.84 121.008 53 121.048V120.12C52.888 120.088 52.776 120.064 52.656 120.064C52.152 120.064 51.728 120.328 51.52 120.768H51.504V120.16H50.544V124ZM56.5528 120.16V120.736H56.5368C56.2568 120.272 55.7528 120.064 55.2168 120.064C54.0328 120.064 53.3208 120.944 53.3208 122.08C53.3208 123.168 54.0808 124.048 55.2328 124.048C55.7128 124.048 56.2088 123.864 56.4888 123.488H56.5048V123.768C56.5048 124.528 56.2168 125.056 55.2888 125.056C54.7528 125.056 54.3528 124.856 53.9688 124.504L53.3928 125.288C53.9368 125.768 54.5848 125.92 55.2968 125.92C56.7928 125.92 57.4648 125.04 57.4648 123.656V120.16H56.5528ZM55.4168 120.928C56.1128 120.928 56.5528 121.392 56.5528 122.056C56.5528 122.696 56.1208 123.184 55.4088 123.184C54.7608 123.184 54.2808 122.68 54.2808 122.072C54.2808 121.392 54.7448 120.928 55.4168 120.928ZM62.2478 122.416V122.152C62.2478 120.816 61.5198 120.064 60.4478 120.064C59.2878 120.064 58.3598 120.872 58.3598 122.08C58.3598 123.288 59.2878 124.096 60.4478 124.096C61.0558 124.096 61.6238 123.88 62.0718 123.328L61.3838 122.808C61.1438 123.104 60.8318 123.328 60.3518 123.328C59.8158 123.328 59.3838 122.984 59.3198 122.416H62.2478ZM59.3198 121.696C59.3918 121.144 59.7438 120.784 60.3118 120.784C60.9118 120.784 61.2798 121.136 61.2878 121.696H59.3198ZM66.1856 124H67.0976V117.952H66.1376V120.648H66.1136C65.9136 120.4 65.5296 120.064 64.8096 120.064C63.7136 120.064 62.9536 120.944 62.9536 122.08C62.9536 123.216 63.6656 124.096 64.8496 124.096C65.3856 124.096 65.8896 123.888 66.1696 123.424H66.1856V124ZM63.9136 122.08C63.9136 121.48 64.3376 120.928 65.0416 120.928C65.7456 120.928 66.1696 121.48 66.1696 122.08C66.1696 122.68 65.7456 123.232 65.0416 123.232C64.3376 123.232 63.9136 122.68 63.9136 122.08ZM71.7998 124H72.8078V119.248H74.5438V118.336H70.0638V119.248H71.7998V124ZM76.7487 124H77.6127V121.792C77.6127 121.248 77.6127 120.064 75.9727 120.064C75.3647 120.064 74.7647 120.248 74.3407 120.68L74.8447 121.184C75.1007 120.944 75.4687 120.784 75.8687 120.784C76.3807 120.784 76.7487 121.032 76.7487 121.504V121.608H76.5087C75.5487 121.608 74.0927 121.696 74.0927 122.944C74.0927 123.704 74.7807 124.096 75.4927 124.096C76.0047 124.096 76.4527 123.904 76.7247 123.472H76.7487V124ZM76.6927 122.496C76.6927 123.032 76.3807 123.376 75.7247 123.376C75.4127 123.376 75.0527 123.224 75.0527 122.872C75.0527 122.32 75.9647 122.28 76.4927 122.28H76.6927V122.496ZM78.6456 124H79.5576V123.424H79.5736C79.8536 123.888 80.3576 124.096 80.8936 124.096C82.0776 124.096 82.7896 123.216 82.7896 122.08C82.7896 120.944 82.0296 120.064 80.9336 120.064C80.2136 120.064 79.8296 120.4 79.6296 120.648H79.6056V117.952H78.6456V124ZM81.8296 122.08C81.8296 122.68 81.4056 123.232 80.7016 123.232C79.9976 123.232 79.5736 122.68 79.5736 122.08C79.5736 121.48 79.9976 120.928 80.7016 120.928C81.4056 120.928 81.8296 121.48 81.8296 122.08ZM83.7006 124H84.6606V117.952H83.7006V124ZM89.4588 122.416V122.152C89.4588 120.816 88.7308 120.064 87.6588 120.064C86.4988 120.064 85.5708 120.872 85.5708 122.08C85.5708 123.288 86.4988 124.096 87.6588 124.096C88.2668 124.096 88.8348 123.88 89.2828 123.328L88.5948 122.808C88.3548 123.104 88.0428 123.328 87.5628 123.328C87.0268 123.328 86.5948 122.984 86.5308 122.416H89.4588ZM86.5308 121.696C86.6028 121.144 86.9548 120.784 87.5228 120.784C88.1228 120.784 88.4908 121.136 88.4988 121.696H86.5308Z" fill="#3E4359"/>
<path d="M119.632 26H120.64V23.6H121.376L122.688 26H123.904L122.4 23.496C123.24 23.376 123.712 22.776 123.712 21.96C123.712 20.688 122.688 20.336 121.6 20.336H119.632V26ZM120.64 22.736V21.2H121.512C122.032 21.2 122.656 21.28 122.656 21.952C122.656 22.688 121.992 22.736 121.424 22.736H120.64ZM124.599 26H125.559V22.16H124.599V26ZM124.463 20.856C124.463 21.16 124.719 21.432 125.071 21.432C125.423 21.432 125.695 21.184 125.695 20.856C125.695 20.528 125.423 20.28 125.071 20.28C124.719 20.28 124.463 20.552 124.463 20.856ZM129.701 22.16V22.736H129.685C129.405 22.272 128.901 22.064 128.365 22.064C127.181 22.064 126.469 22.944 126.469 24.08C126.469 25.168 127.229 26.048 128.381 26.048C128.861 26.048 129.357 25.864 129.637 25.488H129.653V25.768C129.653 26.528 129.365 27.056 128.437 27.056C127.901 27.056 127.501 26.856 127.117 26.504L126.541 27.288C127.085 27.768 127.733 27.92 128.445 27.92C129.941 27.92 130.613 27.04 130.613 25.656V22.16H129.701ZM128.565 22.928C129.261 22.928 129.701 23.392 129.701 24.056C129.701 24.696 129.269 25.184 128.557 25.184C127.909 25.184 127.429 24.68 127.429 24.072C127.429 23.392 127.893 22.928 128.565 22.928ZM132.66 19.952H131.7V26H132.66V23.904C132.66 23.392 132.908 22.928 133.54 22.928C134.212 22.928 134.244 23.632 134.244 24.056V26H135.204V23.576C135.204 22.792 134.836 22.064 133.804 22.064C133.212 22.064 132.828 22.376 132.676 22.696H132.66V19.952ZM136.638 22.976V24.736C136.638 25.64 136.878 26.096 137.894 26.096C138.118 26.096 138.454 26.064 138.654 25.968V25.16C138.534 25.248 138.302 25.28 138.134 25.28C137.71 25.28 137.598 25.04 137.598 24.656V22.976H138.654V22.16H137.598V21.048H136.638V22.16H135.846V22.976H136.638ZM143.019 26H144.027V21.248H145.763V20.336H141.283V21.248H143.019V26ZM147.967 26H148.831V23.792C148.831 23.248 148.831 22.064 147.191 22.064C146.583 22.064 145.983 22.248 145.559 22.68L146.063 23.184C146.319 22.944 146.687 22.784 147.087 22.784C147.599 22.784 147.967 23.032 147.967 23.504V23.608H147.727C146.767 23.608 145.311 23.696 145.311 24.944C145.311 25.704 145.999 26.096 146.711 26.096C147.223 26.096 147.671 25.904 147.943 25.472H147.967V26ZM147.911 24.496C147.911 25.032 147.599 25.376 146.943 25.376C146.631 25.376 146.271 25.224 146.271 24.872C146.271 24.32 147.183 24.28 147.711 24.28H147.911V24.496ZM149.864 26H150.776V25.424H150.792C151.072 25.888 151.576 26.096 152.112 26.096C153.296 26.096 154.008 25.216 154.008 24.08C154.008 22.944 153.248 22.064 152.152 22.064C151.432 22.064 151.048 22.4 150.848 22.648H150.824V19.952H149.864V26ZM153.048 24.08C153.048 24.68 152.624 25.232 151.92 25.232C151.216 25.232 150.792 24.68 150.792 24.08C150.792 23.48 151.216 22.928 151.92 22.928C152.624 22.928 153.048 23.48 153.048 24.08ZM154.919 26H155.879V19.952H154.919V26ZM160.678 24.416V24.152C160.678 22.816 159.95 22.064 158.878 22.064C157.718 22.064 156.79 22.872 156.79 24.08C156.79 25.288 157.718 26.096 158.878 26.096C159.486 26.096 160.054 25.88 160.502 25.328L159.814 24.808C159.574 25.104 159.262 25.328 158.782 25.328C158.246 25.328 157.814 24.984 157.75 24.416H160.678ZM157.75 23.696C157.822 23.144 158.174 22.784 158.742 22.784C159.342 22.784 159.71 23.136 159.718 23.696H157.75Z" fill="#3E4359"/>
<line x1="54.5" y1="73" x2="54.5" y2="108" stroke="#6F7590"/>
<path d="M98 108.5L54 108.5" stroke="#6F7590"/>
<path d="M161 108.5L119.291 108.5" stroke="#6F7590"/>
<line x1="160.5" y1="88" x2="160.5" y2="108" stroke="#6F7590"/>
<path d="M110.677 107.338C110.677 110.77 107.895 113.552 104.463 113.552C101.032 113.552 98.25 110.77 98.25 107.338C98.25 103.907 101.032 101.125 104.463 101.125C107.895 101.125 110.677 103.907 110.677 107.338Z" fill="#F8F8F8" stroke="#6F7590" stroke-linecap="round" stroke-linejoin="round"/>
<path d="M119.5 107.338C119.5 110.77 116.718 113.552 113.287 113.552C109.855 113.552 107.073 110.77 107.073 107.338C107.073 103.907 109.855 101.125 113.287 101.125C116.718 101.125 119.5 103.907 119.5 107.338Z" fill="#D5D5DD" stroke="#6F7590" stroke-linecap="round" stroke-linejoin="round"/>
<mask id="path-78-inside-1_4735_234701" fill="white">
<path fill-rule="evenodd" clip-rule="evenodd" d="M108.875 102.278C107.464 103.509 106.573 105.319 106.573 107.338C106.573 109.357 107.464 111.168 108.875 112.399C110.285 111.168 111.177 109.357 111.177 107.338C111.177 105.319 110.285 103.509 108.875 102.278Z"/>
</mask>
<path fill-rule="evenodd" clip-rule="evenodd" d="M108.875 102.278C107.464 103.509 106.573 105.319 106.573 107.338C106.573 109.357 107.464 111.168 108.875 112.399C110.285 111.168 111.177 109.357 111.177 107.338C111.177 105.319 110.285 103.509 108.875 102.278Z" fill="#D5D5DD"/>
<path d="M108.875 102.278L109.532 101.524C109.156 101.196 108.594 101.196 108.218 101.524L108.875 102.278ZM108.875 112.399L108.218 113.152C108.594 113.481 109.156 113.481 109.532 113.152L108.875 112.399ZM108.218 101.524C106.599 102.937 105.573 105.018 105.573 107.338H107.573C107.573 105.62 108.33 104.08 109.532 103.031L108.218 101.524ZM105.573 107.338C105.573 109.658 106.599 111.74 108.218 113.152L109.532 111.645C108.33 110.596 107.573 109.056 107.573 107.338H105.573ZM109.532 113.152C111.151 111.74 112.177 109.658 112.177 107.338H110.177C110.177 109.056 109.42 110.596 108.218 111.645L109.532 113.152ZM112.177 107.338C112.177 105.018 111.151 102.937 109.532 101.524L108.218 103.031C109.42 104.08 110.177 105.62 110.177 107.338H112.177Z" fill="#6F7590" mask="url(#path-78-inside-1_4735_234701)"/>
<path d="M108.646 128.354C108.842 128.549 109.158 128.549 109.354 128.354L112.536 125.172C112.731 124.976 112.731 124.66 112.536 124.464C112.34 124.269 112.024 124.269 111.828 124.464L109 127.293L106.172 124.464C105.976 124.269 105.66 124.269 105.464 124.464C105.269 124.66 105.269 124.976 105.464 125.172L108.646 128.354ZM108.5 112V128H109.5V112H108.5Z" fill="#6F7590"/>
<defs>
<clipPath id="clip0_4735_234701">
<rect x="19" y="33" width="83" height="40" rx="2" fill="white"/>
</clipPath>
</defs>
</svg>
